<?xml version="1.0" encoding="utf-8"?>
<!DOCTYPE svg PUBLIC "-//W3C//DTD SVG 1.1//EN" "http://www.w3.org/Graphics/SVG/1.1/DTD/svg11.dtd">
<svg version="1.1" id="Calque_1" xmlns="http://www.w3.org/2000/svg" xmlns:xlink="http://www.w3.org/1999/xlink" x="0px" y="0px"
	 width="355px" height="415px" viewBox="0 0 355 415" enable-background="new 0 0 355 415" xml:space="preserve">
<g display="none">
	<path display="inline" fill="none" stroke="#000000" stroke-width="3" stroke-miterlimit="10" d="M785.1,155
		c-9.3-3.7-8.6-10.3-8.6-10.3v-7.3h-16.6v7.3c0,0,0.7,6.6-8.6,10.3c0,0-28.2,6.7-28.2,57.8v111.7h90.4V212.8
		C813.3,161.7,785.1,155,785.1,155z"/>
	<rect x="756" y="123.2" display="inline" width="24.2" height="5.5"/>
	<line display="inline" fill="none" stroke="#000000" stroke-miterlimit="10" x1="566.7" y1="302.7" x2="613.1" y2="302.7"/>
	<line display="inline" fill="none" stroke="#000000" stroke-miterlimit="10" x1="583.9" y1="297.3" x2="595.8" y2="297.3"/>
	<line display="inline" fill="none" stroke="#000000" stroke-miterlimit="10" x1="583.9" y1="291.8" x2="595.8" y2="291.8"/>
	<line display="inline" fill="none" stroke="#000000" stroke-miterlimit="10" x1="583.9" y1="286.3" x2="595.8" y2="286.3"/>
	<line display="inline" fill="none" stroke="#000000" stroke-miterlimit="10" x1="583.9" y1="280.8" x2="595.8" y2="280.8"/>
	<line display="inline" fill="none" stroke="#000000" stroke-miterlimit="10" x1="583.9" y1="275.3" x2="595.8" y2="275.3"/>
	<line display="inline" fill="none" stroke="#000000" stroke-miterlimit="10" x1="583.9" y1="269.8" x2="595.8" y2="269.8"/>
	<line display="inline" fill="none" stroke="#000000" stroke-miterlimit="10" x1="583.9" y1="264.3" x2="595.8" y2="264.3"/>
	<line display="inline" fill="none" stroke="#000000" stroke-miterlimit="10" x1="583.9" y1="258.8" x2="595.8" y2="258.8"/>
	<line display="inline" fill="none" stroke="#000000" stroke-miterlimit="10" x1="583.9" y1="253.3" x2="595.8" y2="253.3"/>
	<line display="inline" fill="none" stroke="#000000" stroke-miterlimit="10" x1="577.3" y1="247.9" x2="602.5" y2="247.9"/>
	<line display="inline" fill="none" stroke="#000000" stroke-miterlimit="10" x1="583.9" y1="242.3" x2="595.8" y2="242.3"/>
	<line display="inline" fill="none" stroke="#000000" stroke-miterlimit="10" x1="583.9" y1="236.9" x2="595.8" y2="236.9"/>
	<line display="inline" fill="none" stroke="#000000" stroke-miterlimit="10" x1="583.9" y1="231.4" x2="595.8" y2="231.4"/>
	<line display="inline" fill="none" stroke="#000000" stroke-miterlimit="10" x1="583.9" y1="225.9" x2="595.8" y2="225.9"/>
	<line display="inline" fill="none" stroke="#000000" stroke-miterlimit="10" x1="583.9" y1="220.4" x2="595.8" y2="220.4"/>
	<line display="inline" fill="none" stroke="#000000" stroke-miterlimit="10" x1="583.9" y1="214.9" x2="595.8" y2="214.9"/>
	<line display="inline" fill="none" stroke="#000000" stroke-miterlimit="10" x1="583.9" y1="209.4" x2="595.8" y2="209.4"/>
	<line display="inline" fill="none" stroke="#000000" stroke-miterlimit="10" x1="583.9" y1="203.9" x2="595.8" y2="203.9"/>
	<line display="inline" fill="none" stroke="#000000" stroke-miterlimit="10" x1="583.9" y1="198.4" x2="595.8" y2="198.4"/>
	<line display="inline" fill="none" stroke="#000000" stroke-miterlimit="10" x1="577.3" y1="192.9" x2="602.5" y2="192.9"/>
	<line display="inline" fill="none" stroke="#000000" stroke-miterlimit="10" x1="583.9" y1="187.4" x2="595.8" y2="187.4"/>
	<line display="inline" fill="none" stroke="#000000" stroke-miterlimit="10" x1="583.9" y1="181.9" x2="595.8" y2="181.9"/>
	<line display="inline" fill="none" stroke="#000000" stroke-miterlimit="10" x1="583.9" y1="176.5" x2="595.8" y2="176.5"/>
	<line display="inline" fill="none" stroke="#000000" stroke-miterlimit="10" x1="583.9" y1="171" x2="595.8" y2="171"/>
	<line display="inline" fill="none" stroke="#000000" stroke-miterlimit="10" x1="583.9" y1="165.5" x2="595.8" y2="165.5"/>
	<line display="inline" fill="none" stroke="#000000" stroke-miterlimit="10" x1="583.9" y1="160" x2="595.8" y2="160"/>
	<line display="inline" fill="none" stroke="#000000" stroke-miterlimit="10" x1="583.9" y1="154.5" x2="595.8" y2="154.5"/>
	<line display="inline" fill="none" stroke="#000000" stroke-miterlimit="10" x1="583.9" y1="149" x2="595.8" y2="149"/>
	<line display="inline" fill="none" stroke="#000000" stroke-miterlimit="10" x1="583.9" y1="143.5" x2="595.8" y2="143.5"/>
	<line display="inline" fill="none" stroke="#000000" stroke-miterlimit="10" x1="577.3" y1="138" x2="602.5" y2="138"/>
	<line display="inline" fill="none" stroke="#000000" stroke-miterlimit="10" x1="583.9" y1="132.5" x2="595.8" y2="132.5"/>
	<line display="inline" fill="none" stroke="#000000" stroke-miterlimit="10" x1="583.9" y1="127" x2="595.8" y2="127"/>
	<line display="inline" fill="none" stroke="#000000" stroke-miterlimit="10" x1="583.9" y1="121.5" x2="595.8" y2="121.5"/>
	<line display="inline" fill="none" stroke="#000000" stroke-miterlimit="10" x1="583.9" y1="116.1" x2="595.8" y2="116.1"/>
	<line display="inline" fill="none" stroke="#000000" stroke-miterlimit="10" x1="583.9" y1="110.6" x2="595.8" y2="110.6"/>
	<line display="inline" fill="none" stroke="#000000" stroke-miterlimit="10" x1="583.9" y1="105.1" x2="595.8" y2="105.1"/>
	<line display="inline" fill="none" stroke="#000000" stroke-miterlimit="10" x1="583.9" y1="99.6" x2="595.8" y2="99.6"/>
	<line display="inline" fill="none" stroke="#000000" stroke-miterlimit="10" x1="583.9" y1="94.1" x2="595.8" y2="94.1"/>
	<line display="inline" fill="none" stroke="#000000" stroke-miterlimit="10" x1="583.9" y1="88.6" x2="595.8" y2="88.6"/>
	<line display="inline" fill="none" stroke="#000000" stroke-miterlimit="10" x1="566.7" y1="83.1" x2="613.1" y2="83.1"/>
	<rect x="762.6" y="126.4" display="inline" width="11" height="7"/>
	<path display="inline" fill="none" stroke="#000000" stroke-width="3" stroke-miterlimit="10" d="M553.6,4.3c0,2.4,1.7,4.7,4.8,6.7
		v51.6c0,0-73.1,189.4-73.1,225.2c0,20.3,16.5,36.7,37,36.7h135.5c20.4,0,37-16.4,37-36.7c0-34.4-71.1-225.2-71.1-225.2V10.7
		c2.7-1.9,4.3-4.1,4.3-6.4H553.6z"/>
	
		<line display="inline" fill="none" stroke="#000000" stroke-width="3" stroke-miterlimit="10" x1="564.1" y1="13.9" x2="615.7" y2="13.9"/>
	
		<line display="inline" fill="none" stroke="#000000" stroke-width="3" stroke-miterlimit="10" x1="598.5" y1="23.4" x2="581.3" y2="23.4"/>
	<line display="inline" fill="none" stroke="#000000" stroke-miterlimit="10" x1="813.3" y1="319.2" x2="722.9" y2="319.2"/>
	<line display="inline" fill="none" stroke="#000000" stroke-miterlimit="10" x1="813.3" y1="325.4" x2="722.9" y2="325.4"/>
	<line display="inline" fill="none" stroke="#000000" stroke-miterlimit="10" x1="813.3" y1="313.7" x2="722.9" y2="313.7"/>
	<line display="inline" fill="none" stroke="#000000" stroke-miterlimit="10" x1="813.3" y1="308.2" x2="722.9" y2="308.2"/>
	<line display="inline" fill="none" stroke="#000000" stroke-miterlimit="10" x1="813.3" y1="302.7" x2="722.9" y2="302.7"/>
	<line display="inline" fill="none" stroke="#000000" stroke-miterlimit="10" x1="813.3" y1="297.3" x2="722.9" y2="297.3"/>
	<line display="inline" fill="none" stroke="#000000" stroke-miterlimit="10" x1="813.3" y1="291.8" x2="722.9" y2="291.8"/>
	<line display="inline" fill="none" stroke="#000000" stroke-miterlimit="10" x1="813.3" y1="286.3" x2="722.9" y2="286.3"/>
	<line display="inline" fill="none" stroke="#000000" stroke-miterlimit="10" x1="813.3" y1="280.8" x2="722.9" y2="280.8"/>
	<line display="inline" fill="none" stroke="#000000" stroke-miterlimit="10" x1="813.3" y1="275.4" x2="722.9" y2="275.4"/>
	<line display="inline" fill="none" stroke="#000000" stroke-miterlimit="10" x1="813.3" y1="269.9" x2="722.9" y2="269.9"/>
	<line display="inline" fill="none" stroke="#000000" stroke-miterlimit="10" x1="813.3" y1="264.4" x2="722.9" y2="264.4"/>
	<line display="inline" fill="none" stroke="#000000" stroke-miterlimit="10" x1="813.3" y1="258.9" x2="722.9" y2="258.9"/>
	<line display="inline" fill="none" stroke="#000000" stroke-miterlimit="10" x1="813.3" y1="253.4" x2="722.9" y2="253.4"/>
	<line display="inline" fill="none" stroke="#000000" stroke-miterlimit="10" x1="813.3" y1="248" x2="722.9" y2="248"/>
	<line display="inline" fill="none" stroke="#000000" stroke-miterlimit="10" x1="813.3" y1="242.5" x2="722.9" y2="242.5"/>
	<line display="inline" fill="none" stroke="#000000" stroke-miterlimit="10" x1="813.3" y1="237" x2="722.9" y2="237"/>
	<line display="inline" fill="none" stroke="#000000" stroke-miterlimit="10" x1="813.3" y1="231.5" x2="722.9" y2="231.5"/>
	<line display="inline" fill="none" stroke="#000000" stroke-miterlimit="10" x1="813.3" y1="226" x2="722.9" y2="226"/>
	<line display="inline" fill="none" stroke="#000000" stroke-miterlimit="10" x1="813.3" y1="220.6" x2="722.9" y2="220.6"/>
	<line display="inline" fill="none" stroke="#000000" stroke-miterlimit="10" x1="813.3" y1="215.1" x2="722.9" y2="215.1"/>
	<line display="inline" fill="none" stroke="#000000" stroke-miterlimit="10" x1="813.3" y1="209.6" x2="722.9" y2="209.6"/>
	<line display="inline" fill="none" stroke="#000000" stroke-miterlimit="10" x1="813.3" y1="204.1" x2="722.9" y2="204.1"/>
	<line display="inline" fill="none" stroke="#000000" stroke-miterlimit="10" x1="813.3" y1="198.7" x2="722.9" y2="198.7"/>
	<line display="inline" fill="none" stroke="#000000" stroke-miterlimit="10" x1="813.3" y1="193.2" x2="722.9" y2="193.2"/>
	<line display="inline" fill="none" stroke="#000000" stroke-miterlimit="10" x1="810.5" y1="187.7" x2="725.7" y2="187.7"/>
	<line display="inline" fill="none" stroke="#000000" stroke-miterlimit="10" x1="808.9" y1="182.2" x2="727.3" y2="182.2"/>
	<line display="inline" fill="none" stroke="#000000" stroke-miterlimit="10" x1="806.8" y1="176.7" x2="729.5" y2="176.7"/>
	<line display="inline" fill="none" stroke="#000000" stroke-miterlimit="10" x1="803.9" y1="171.3" x2="732.3" y2="171.3"/>
	<line display="inline" fill="none" stroke="#000000" stroke-miterlimit="10" x1="800.1" y1="165.8" x2="736.1" y2="165.8"/>
	<line display="inline" fill="none" stroke="#000000" stroke-miterlimit="10" x1="796" y1="160.3" x2="742.6" y2="160.3"/>
	<line display="inline" fill="none" stroke="#000000" stroke-miterlimit="10" x1="784.8" y1="154.8" x2="752.7" y2="154.8"/>
	<line display="inline" fill="none" stroke="#000000" stroke-miterlimit="10" x1="776.4" y1="149.3" x2="759.8" y2="149.3"/>
	<line display="inline" fill="none" stroke="#000000" stroke-miterlimit="10" x1="776.4" y1="143.9" x2="759.8" y2="143.9"/>
	
		<line display="inline" fill="none" stroke="#000000" stroke-width="3" stroke-miterlimit="10" x1="563.7" y1="314.4" x2="615.4" y2="314.4"/>
	
		<line display="inline" fill="none" stroke="#000000" stroke-width="3" stroke-miterlimit="10" x1="598.1" y1="323.9" x2="580.9" y2="323.9"/>
</g>
<path fill="#0D0D0D" d="M353.4,374.7L323.7,81.3l-2-68.6L303.6,1l-18.3,11.8l-2.1,68.6l-28.1,294.2c-1.2,4.6-1.3,12.1,4,15.5
	c4,2.6,25.4,22.8,25.4,22.8l1.5-4.6c0,0-18.6-22.7-21.1-24.9c-1.9-1.7-1.5-4.3-0.9-6.5l39.8-255.5l39.4,253.9c0.3,2.5,0.6,6-1.3,8.1
	c-2.2,2.4-21.1,24.9-21.1,24.9l1.5,4.6c0,0,21.8-19.7,25.4-22.8C353.5,386.2,353.8,382.5,353.4,374.7z M304,98.4
	c-3.2,0-5.9-2.6-5.9-5.9c0-3.2,2.6-5.9,5.9-5.9c3.2,0,5.9,2.6,5.9,5.9C309.9,95.8,307.2,98.4,304,98.4z"/>
<path fill="#0D0D0D" d="M216.7,239.6c0-17.6-10.2-34.3-31.1-47.7l-33.9,50.6c-9.1-8.7-26.2-12.6-45.6-9.5l-18.5-59.4
	C36.6,183.1,2,208.6,2,238.4c0,12.3,10.7,28.8,23.8,41.1l18.9,74.3l0.2,0.3c16.1,18.1,33,21.5,58.5,21.5c44.3,0,62-21.1,62.7-22
	l0.2-0.2l28.2-75.3c1.7-1.4,3.3-2.8,4.8-4.3C210.2,263.8,216.7,252.1,216.7,239.6z M14.4,238.4c0-22.7,31-43.1,73.7-51.8l15.9,49.9
	l1.3-0.3c0.1,0,30.4-6,45.5,9.7l1.3,1.4l28.9-43c15.9,10.7,23.4,22.6,23.4,35.2c0,22.3-27,43.3-64,49.8l-6.3,12.8l0,0l-7.2,14.4
	c-6.1-1.2-12.6-1.8-19.4-1.8c-21.8,0-40,6.5-45,15.4l-13.9-37.3l-3.4-15.1C28.8,268.7,14.4,249.7,14.4,238.4z M125.3,319.4
	l-10.7,21.4c-5.8,2.7-11.9,4-18.2,4c-15.8,0-28.6-8.5-32.2-11.3c2.1-8.8,20.8-15.8,43.2-15.8C113.5,317.8,119.7,318.4,125.3,319.4z
	 M190,281.4l-26.3,70.5c-1.8,2-19.5,20.8-60.2,20.8c-25.1,0-40.6-3.1-56-20.3l-17.6-69.3c5.1,4.3,10.5,7.9,15.6,10.4l15.5,41.4
	c0,0,15.6,13,35.3,13c0.1,0,0.1,0,0.2,0c0,0,0,0,0,0c6.9,0,13.6-1.5,20-4.6l0.5-0.2l20.8-41.4c5.8-1,11.5-2.4,17-4
	C168.3,293.8,180.3,288.2,190,281.4z"/>
</svg>
