<?xml version="1.0" encoding="utf-8"?>
<!DOCTYPE svg PUBLIC "-//W3C//DTD SVG 1.1//EN" "http://www.w3.org/Graphics/SVG/1.1/DTD/svg11.dtd">
<svg version="1.1" xmlns="http://www.w3.org/2000/svg" xmlns:xlink="http://www.w3.org/1999/xlink" x="0px" y="0px" width="442px"
	 height="221px" viewBox="0 0 442 221" enable-background="new 0 0 442 221" xml:space="preserve">
<g>
	<g>
		<line fill="none" stroke="#0F0F0F" stroke-width="1.3997" stroke-miterlimit="10" x1="0" y1="134.2" x2="442.1" y2="134.2"/>
		<line fill="none" stroke="#0F0F0F" stroke-width="1.3997" stroke-miterlimit="10" x1="0" y1="126.4" x2="442.1" y2="126.4"/>
		<line fill="none" stroke="#0F0F0F" stroke-width="1.3997" stroke-miterlimit="10" x1="0" y1="118.5" x2="442.1" y2="118.5"/>
		<line fill="none" stroke="#0F0F0F" stroke-width="1.3997" stroke-miterlimit="10" x1="0" y1="110.7" x2="442.1" y2="110.7"/>
		<line fill="none" stroke="#0F0F0F" stroke-width="1.3997" stroke-miterlimit="10" x1="0" y1="102.9" x2="442.1" y2="102.9"/>
		<line fill="none" stroke="#0F0F0F" stroke-width="1.3997" stroke-miterlimit="10" x1="0" y1="95.1" x2="442.1" y2="95.1"/>
		<line fill="none" stroke="#0F0F0F" stroke-width="1.3997" stroke-miterlimit="10" x1="0" y1="87.3" x2="442.1" y2="87.3"/>
		<line fill="none" stroke="#0F0F0F" stroke-width="1.3997" stroke-miterlimit="10" x1="0" y1="79.5" x2="442.1" y2="79.5"/>
		<line fill="none" stroke="#0F0F0F" stroke-width="1.3997" stroke-miterlimit="10" x1="0" y1="71.6" x2="442.1" y2="71.6"/>
		<line fill="none" stroke="#0F0F0F" stroke-width="1.3997" stroke-miterlimit="10" x1="0" y1="63.8" x2="442.1" y2="63.8"/>
		<line fill="none" stroke="#0F0F0F" stroke-width="1.3997" stroke-miterlimit="10" x1="0" y1="56" x2="442.1" y2="56"/>
		<line fill="none" stroke="#0F0F0F" stroke-width="1.3997" stroke-miterlimit="10" x1="0" y1="219.7" x2="442.1" y2="219.7"/>
		<line fill="none" stroke="#0F0F0F" stroke-width="1.3997" stroke-miterlimit="10" x1="0" y1="211.9" x2="442.1" y2="211.9"/>
		<line fill="none" stroke="#0F0F0F" stroke-width="1.3997" stroke-miterlimit="10" x1="0" y1="204" x2="442.1" y2="204"/>
		<line fill="none" stroke="#0F0F0F" stroke-width="1.3997" stroke-miterlimit="10" x1="0" y1="196.2" x2="442.1" y2="196.2"/>
		<line fill="none" stroke="#0F0F0F" stroke-width="1.3997" stroke-miterlimit="10" x1="0" y1="188.4" x2="442.1" y2="188.4"/>
		<line fill="none" stroke="#0F0F0F" stroke-width="1.3997" stroke-miterlimit="10" x1="0" y1="180.6" x2="442.1" y2="180.6"/>
		<line fill="none" stroke="#0F0F0F" stroke-width="1.3997" stroke-miterlimit="10" x1="0" y1="172.8" x2="442.1" y2="172.8"/>
		<line fill="none" stroke="#0F0F0F" stroke-width="1.3997" stroke-miterlimit="10" x1="0" y1="165" x2="442.1" y2="165"/>
		<line fill="none" stroke="#0F0F0F" stroke-width="1.3997" stroke-miterlimit="10" x1="0" y1="157.1" x2="442.1" y2="157.1"/>
		<line fill="none" stroke="#0F0F0F" stroke-width="1.3997" stroke-miterlimit="10" x1="0" y1="149.3" x2="442.1" y2="149.3"/>
		<line fill="none" stroke="#0F0F0F" stroke-width="1.3997" stroke-miterlimit="10" x1="0" y1="141.5" x2="442.1" y2="141.5"/>
		<line fill="none" stroke="#0F0F0F" stroke-width="1.3997" stroke-miterlimit="10" x1="0" y1="48.2" x2="442.1" y2="48.2"/>
		<line fill="none" stroke="#0F0F0F" stroke-width="1.3997" stroke-miterlimit="10" x1="0" y1="40.4" x2="442.1" y2="40.4"/>
		<line fill="none" stroke="#0F0F0F" stroke-width="1.3997" stroke-miterlimit="10" x1="0" y1="32.6" x2="442.1" y2="32.6"/>
		<line fill="none" stroke="#0F0F0F" stroke-width="1.3997" stroke-miterlimit="10" x1="0" y1="24.7" x2="442.1" y2="24.7"/>
		<line fill="none" stroke="#0F0F0F" stroke-width="1.3997" stroke-miterlimit="10" x1="0" y1="16.9" x2="442.1" y2="16.9"/>
		<line fill="none" stroke="#0F0F0F" stroke-width="1.3997" stroke-miterlimit="10" x1="0" y1="9.1" x2="442.1" y2="9.1"/>
		<line fill="none" stroke="#0F0F0F" stroke-width="1.3997" stroke-miterlimit="10" x1="0" y1="1.3" x2="442.1" y2="1.3"/>
	</g>
</g>
</svg>
