<?xml version="1.0" encoding="utf-8"?>
<!DOCTYPE svg PUBLIC "-//W3C//DTD SVG 1.1//EN" "http://www.w3.org/Graphics/SVG/1.1/DTD/svg11.dtd">
<svg version="1.1" xmlns="http://www.w3.org/2000/svg" xmlns:xlink="http://www.w3.org/1999/xlink" x="0px" y="0px" width="536px"
	 height="248px" viewBox="0 0 536 248" enable-background="new 0 0 536 248" xml:space="preserve">
<g>
	<g>
		<line fill="none" stroke="#FFFFFF" stroke-miterlimit="10" x1="6.6" y1="227.6" x2="529.6" y2="227.6"/>
		<line fill="none" stroke="#FFFFFF" stroke-miterlimit="10" x1="6.6" y1="227.6" x2="6.1" y2="227.6"/>
		<line fill="none" stroke="#FFFFFF" stroke-miterlimit="10" x1="10" y1="216" x2="526.2" y2="216"/>
		<line fill="none" stroke="#FFFFFF" stroke-miterlimit="10" x1="13.7" y1="203.4" x2="522.6" y2="203.4"/>
		<line fill="none" stroke="#FFFFFF" stroke-miterlimit="10" x1="17.4" y1="190.7" x2="519" y2="190.7"/>
		<line fill="none" stroke="#FFFFFF" stroke-miterlimit="10" x1="21.1" y1="178.1" x2="515.3" y2="178.1"/>
		<line fill="none" stroke="#FFFFFF" stroke-miterlimit="10" x1="24.8" y1="165.5" x2="511.7" y2="165.5"/>
		<line fill="none" stroke="#FFFFFF" stroke-miterlimit="10" x1="28.5" y1="152.9" x2="508.1" y2="152.9"/>
		<line fill="none" stroke="#FFFFFF" stroke-miterlimit="10" x1="32.2" y1="140.2" x2="504.4" y2="140.2"/>
		<line fill="none" stroke="#FFFFFF" stroke-miterlimit="10" x1="35.8" y1="127.6" x2="500.8" y2="127.6"/>
		<line fill="none" stroke="#FFFFFF" stroke-miterlimit="10" x1="39.5" y1="115" x2="497.2" y2="115"/>
		<line fill="none" stroke="#FFFFFF" stroke-miterlimit="10" x1="43.2" y1="102.4" x2="493.5" y2="102.4"/>
		<line fill="none" stroke="#FFFFFF" stroke-miterlimit="10" x1="46.9" y1="89.8" x2="489.9" y2="89.8"/>
		<line fill="none" stroke="#FFFFFF" stroke-miterlimit="10" x1="50.6" y1="77.1" x2="486.2" y2="77.1"/>
		<line fill="none" stroke="#FFFFFF" stroke-miterlimit="10" x1="54.3" y1="64.5" x2="482.6" y2="64.5"/>
		<line fill="none" stroke="#FFFFFF" stroke-miterlimit="10" x1="58" y1="51.9" x2="479" y2="51.9"/>
		<line fill="none" stroke="#FFFFFF" stroke-miterlimit="10" x1="61.7" y1="39.3" x2="475.3" y2="39.3"/>
		<line fill="none" stroke="#FFFFFF" stroke-miterlimit="10" x1="65.4" y1="26.7" x2="471.7" y2="26.7"/>
		<line fill="none" stroke="#FFFFFF" stroke-miterlimit="10" x1="69.1" y1="14" x2="468.1" y2="14"/>
		<line fill="none" stroke="#FFFFFF" stroke-miterlimit="10" x1="2" y1="243.3" x2="534.1" y2="243.3"/>
		<line fill="none" stroke="#FFFFFF" stroke-miterlimit="10" x1="464.3" y1="1" x2="72.9" y2="1"/>
	</g>
</g>
</svg>
