<?xml version="1.0" encoding="utf-8"?>
<!DOCTYPE svg PUBLIC "-//W3C//DTD SVG 1.1//EN" "http://www.w3.org/Graphics/SVG/1.1/DTD/svg11.dtd">
<svg version="1.1" xmlns="http://www.w3.org/2000/svg" xmlns:xlink="http://www.w3.org/1999/xlink" x="0px" y="0px" width="310px"
	 height="22px" enable-background="new 0 0 310 22" xml:space="preserve">
<g>
	<g>
		<g>
			<path fill="none" stroke="#0F0F0F" stroke-width="1.263" stroke-miterlimit="10" d="M75.2,10.7c0,4.3-3.5,7.8-7.8,7.8
				c-4.3,0-7.8-3.5-7.8-7.8c0-4.3,3.5-7.8,7.8-7.8C71.7,2.9,75.2,6.4,75.2,10.7z"/>
			<path fill="none" stroke="#0F0F0F" stroke-width="1.263" stroke-miterlimit="10" d="M78.1,10.7c0,5.9-4.8,10.7-10.7,10.7
				c-5.9,0-10.7-4.8-10.7-10.7C56.6,4.8,61.4,0,67.4,0C73.3,0,78.1,4.8,78.1,10.7z"/>
			<path fill="#0F0F0F" stroke="#0F0F0F" stroke-width="1.263" stroke-miterlimit="10" d="M70.4,10.7c0,1.7-1.4,3-3,3
				c-1.7,0-3-1.4-3-3c0-1.7,1.4-3,3-3C69,7.7,70.4,9,70.4,10.7z"/>
		</g>
		<g>
			<path fill="none" stroke="#0F0F0F" stroke-width="1.263" stroke-miterlimit="10" d="M53.7,10.7c0,4.3-3.5,7.8-7.8,7.8
				c-4.3,0-7.8-3.5-7.8-7.8c0-4.3,3.5-7.8,7.8-7.8C50.2,2.9,53.7,6.4,53.7,10.7z"/>
			<path fill="none" stroke="#0F0F0F" stroke-width="1.263" stroke-miterlimit="10" d="M56.6,10.7c0,5.9-4.8,10.7-10.7,10.7
				c-5.9,0-10.7-4.8-10.7-10.7C35.2,4.8,40,0,45.9,0C51.8,0,56.6,4.8,56.6,10.7z"/>
			<path fill="#0F0F0F" stroke="#0F0F0F" stroke-width="1.263" stroke-miterlimit="10" d="M48.9,10.7c0,1.7-1.4,3-3,3
				c-1.7,0-3-1.4-3-3c0-1.7,1.4-3,3-3C47.6,7.7,48.9,9,48.9,10.7z"/>
		</g>
		<g>
			<path fill="none" stroke="#0F0F0F" stroke-width="1.263" stroke-miterlimit="10" d="M96.6,10.7c0,4.3-3.5,7.8-7.8,7.8
				c-4.3,0-7.8-3.5-7.8-7.8c0-4.3,3.5-7.8,7.8-7.8C93.1,2.9,96.6,6.4,96.6,10.7z"/>
			<path fill="none" stroke="#0F0F0F" stroke-width="1.263" stroke-miterlimit="10" d="M99.5,10.7c0,5.9-4.8,10.7-10.7,10.7
				c-5.9,0-10.7-4.8-10.7-10.7C78.1,4.8,82.9,0,88.8,0C94.7,0,99.5,4.8,99.5,10.7z"/>
			<path fill="#0F0F0F" stroke="#0F0F0F" stroke-width="1.263" stroke-miterlimit="10" d="M91.8,10.7c0,1.7-1.4,3-3,3
				c-1.7,0-3-1.4-3-3c0-1.7,1.4-3,3-3C90.5,7.7,91.8,9,91.8,10.7z"/>
		</g>
		<g>
			<path fill="none" stroke="#0F0F0F" stroke-width="1.263" stroke-miterlimit="10" d="M118.1,10.7c0,4.3-3.5,7.8-7.8,7.8
				s-7.8-3.5-7.8-7.8c0-4.3,3.5-7.8,7.8-7.8S118.1,6.4,118.1,10.7z"/>
			<path fill="none" stroke="#0F0F0F" stroke-width="1.263" stroke-miterlimit="10" d="M121,10.7c0,5.9-4.8,10.7-10.7,10.7
				c-5.9,0-10.7-4.8-10.7-10.7c0-5.9,4.8-10.7,10.7-10.7C116.2,0,121,4.8,121,10.7z"/>
			<path fill="#0F0F0F" stroke="#0F0F0F" stroke-width="1.263" stroke-miterlimit="10" d="M113.3,10.7c0,1.7-1.4,3-3,3
				c-1.7,0-3-1.4-3-3c0-1.7,1.4-3,3-3C111.9,7.7,113.3,9,113.3,10.7z"/>
		</g>
		<g>
			<path fill="none" stroke="#0F0F0F" stroke-width="1.263" stroke-miterlimit="10" d="M139.5,10.7c0,4.3-3.5,7.8-7.8,7.8
				c-4.3,0-7.8-3.5-7.8-7.8c0-4.3,3.5-7.8,7.8-7.8C136,2.9,139.5,6.4,139.5,10.7z"/>
			<path fill="none" stroke="#0F0F0F" stroke-width="1.263" stroke-miterlimit="10" d="M142.4,10.7c0,5.9-4.8,10.7-10.7,10.7
				c-5.9,0-10.7-4.8-10.7-10.7C121,4.8,125.8,0,131.7,0C137.6,0,142.4,4.8,142.4,10.7z"/>
			<path fill="#0F0F0F" stroke="#0F0F0F" stroke-width="1.263" stroke-miterlimit="10" d="M134.7,10.7c0,1.7-1.4,3-3,3s-3-1.4-3-3
				c0-1.7,1.4-3,3-3S134.7,9,134.7,10.7z"/>
		</g>
		<g>
			<path fill="none" stroke="#0F0F0F" stroke-width="1.263" stroke-miterlimit="10" d="M161,10.7c0,4.3-3.5,7.8-7.8,7.8
				c-4.3,0-7.8-3.5-7.8-7.8c0-4.3,3.5-7.8,7.8-7.8C157.5,2.9,161,6.4,161,10.7z"/>
			<path fill="none" stroke="#0F0F0F" stroke-width="1.263" stroke-miterlimit="10" d="M163.8,10.7c0,5.9-4.8,10.7-10.7,10.7
				c-5.9,0-10.7-4.8-10.7-10.7c0-5.9,4.8-10.7,10.7-10.7C159,0,163.8,4.8,163.8,10.7z"/>
			<path fill="#0F0F0F" stroke="#0F0F0F" stroke-width="1.263" stroke-miterlimit="10" d="M156.2,10.7c0,1.7-1.4,3-3,3s-3-1.4-3-3
				c0-1.7,1.4-3,3-3S156.2,9,156.2,10.7z"/>
		</g>
		<g>
			<path fill="none" stroke="#0F0F0F" stroke-width="1.263" stroke-miterlimit="10" d="M182.4,10.7c0,4.3-3.5,7.8-7.8,7.8
				c-4.3,0-7.8-3.5-7.8-7.8c0-4.3,3.5-7.8,7.8-7.8C178.9,2.9,182.4,6.4,182.4,10.7z"/>
			<path fill="none" stroke="#0F0F0F" stroke-width="1.263" stroke-miterlimit="10" d="M185.3,10.7c0,5.9-4.8,10.7-10.7,10.7
				c-5.9,0-10.7-4.8-10.7-10.7c0-5.9,4.8-10.7,10.7-10.7C180.5,0,185.3,4.8,185.3,10.7z"/>
			<path fill="#0F0F0F" stroke="#0F0F0F" stroke-width="1.263" stroke-miterlimit="10" d="M177.6,10.7c0,1.7-1.4,3-3,3
				c-1.7,0-3-1.4-3-3c0-1.7,1.4-3,3-3C176.2,7.7,177.6,9,177.6,10.7z"/>
		</g>
		<g>
			<path fill="none" stroke="#0F0F0F" stroke-width="1.263" stroke-miterlimit="10" d="M203.8,10.7c0,4.3-3.5,7.8-7.8,7.8
				s-7.8-3.5-7.8-7.8c0-4.3,3.5-7.8,7.8-7.8S203.8,6.4,203.8,10.7z"/>
			<path fill="none" stroke="#0F0F0F" stroke-width="1.263" stroke-miterlimit="10" d="M206.7,10.7c0,5.9-4.8,10.7-10.7,10.7
				c-5.9,0-10.7-4.8-10.7-10.7C185.3,4.8,190.1,0,196,0C201.9,0,206.7,4.8,206.7,10.7z"/>
			<path fill="#0F0F0F" stroke="#0F0F0F" stroke-width="1.263" stroke-miterlimit="10" d="M199,10.7c0,1.7-1.4,3-3,3
				c-1.7,0-3-1.4-3-3c0-1.7,1.4-3,3-3C197.7,7.7,199,9,199,10.7z"/>
		</g>
		<g>
			<path fill="none" stroke="#0F0F0F" stroke-width="1.263" stroke-miterlimit="10" d="M225.3,10.7c0,4.3-3.5,7.8-7.8,7.8
				c-4.3,0-7.8-3.5-7.8-7.8c0-4.3,3.5-7.8,7.8-7.8C221.8,2.9,225.3,6.4,225.3,10.7z"/>
			<path fill="none" stroke="#0F0F0F" stroke-width="1.263" stroke-miterlimit="10" d="M228.2,10.7c0,5.9-4.8,10.7-10.7,10.7
				c-5.9,0-10.7-4.8-10.7-10.7c0-5.9,4.8-10.7,10.7-10.7C223.4,0,228.2,4.8,228.2,10.7z"/>
			<path fill="#0F0F0F" stroke="#0F0F0F" stroke-width="1.263" stroke-miterlimit="10" d="M220.5,10.7c0,1.7-1.4,3-3,3
				c-1.7,0-3-1.4-3-3c0-1.7,1.4-3,3-3C219.1,7.7,220.5,9,220.5,10.7z"/>
		</g>
		<g>
			<path fill="none" stroke="#0F0F0F" stroke-width="1.263" stroke-miterlimit="10" d="M246.7,10.7c0,4.3-3.5,7.8-7.8,7.8
				c-4.3,0-7.8-3.5-7.8-7.8c0-4.3,3.5-7.8,7.8-7.8C243.2,2.9,246.7,6.4,246.7,10.7z"/>
			<path fill="none" stroke="#0F0F0F" stroke-width="1.263" stroke-miterlimit="10" d="M249.6,10.7c0,5.9-4.8,10.7-10.7,10.7
				c-5.9,0-10.7-4.8-10.7-10.7C228.2,4.8,233,0,238.9,0C244.8,0,249.6,4.8,249.6,10.7z"/>
			<path fill="#0F0F0F" stroke="#0F0F0F" stroke-width="1.263" stroke-miterlimit="10" d="M241.9,10.7c0,1.7-1.4,3-3,3
				c-1.7,0-3-1.4-3-3c0-1.7,1.4-3,3-3C240.6,7.7,241.9,9,241.9,10.7z"/>
		</g>
		<g>
			<path fill="none" stroke="#0F0F0F" stroke-width="1.263" stroke-miterlimit="10" d="M268.2,10.7c0,4.3-3.5,7.8-7.8,7.8
				c-4.3,0-7.8-3.5-7.8-7.8c0-4.3,3.5-7.8,7.8-7.8C264.7,2.9,268.2,6.4,268.2,10.7z"/>
			<path fill="none" stroke="#0F0F0F" stroke-width="1.263" stroke-miterlimit="10" d="M271.1,10.7c0,5.9-4.8,10.7-10.7,10.7
				c-5.9,0-10.7-4.8-10.7-10.7c0-5.9,4.8-10.7,10.7-10.7C266.3,0,271.1,4.8,271.1,10.7z"/>
			<path fill="#0F0F0F" stroke="#0F0F0F" stroke-width="1.263" stroke-miterlimit="10" d="M263.4,10.7c0,1.7-1.4,3-3,3
				c-1.7,0-3-1.4-3-3c0-1.7,1.4-3,3-3C262,7.7,263.4,9,263.4,10.7z"/>
		</g>
	</g>

</g>
</svg>
