<?xml version="1.0" encoding="utf-8"?>
<!DOCTYPE svg PUBLIC "-//W3C//DTD SVG 1.1//EN" "http://www.w3.org/Graphics/SVG/1.1/DTD/svg11.dtd">
<svg version="1.1" xmlns="http://www.w3.org/2000/svg" xmlns:xlink="http://www.w3.org/1999/xlink" x="0px" y="0px" width="127px"
	 height="127px" viewBox="0 0 127 127" enable-background="new 0 0 127 127" xml:space="preserve">
<g>
	<circle fill="#F9F0EF" cx="63.5" cy="63.5" r="63.5"/>
	<g>
		<rect x="52.5" y="68.7" fill="#0F0F0F" width="22" height="40.6"/>
		<rect x="56.6" y="41.2" fill="none" stroke="#0F0F0F" stroke-width="1.4185" stroke-miterlimit="10" width="13.7" height="23.7"/>
		
			<rect x="56.6" y="64.9" fill="#0F0F0F" stroke="#0F0F0F" stroke-width="1.4185" stroke-miterlimit="10" width="13.7" height="23.7"/>
		<path fill="#FF0D0D" d="M58.1,38.6c0-3.4,0-8.5,0-8.8c0-3.5,1.8-9.7,5-11.8c0.2-0.1,0.5-0.1,0.7,0c3.2,2.1,5,8.3,5,11.8
			c0,0.4,0,5.8,0,8.8L58.1,38.6z"/>
		<line fill="none" stroke="#000000" stroke-width="0.4728" stroke-miterlimit="10" x1="70.2" y1="64.5" x2="56.5" y2="64.5"/>
		<line fill="none" stroke="#000000" stroke-width="0.4728" stroke-miterlimit="10" x1="70.2" y1="61.9" x2="56.5" y2="61.9"/>
		<line fill="none" stroke="#000000" stroke-width="0.4728" stroke-miterlimit="10" x1="70.2" y1="59.3" x2="56.5" y2="59.3"/>
		<line fill="none" stroke="#000000" stroke-width="0.4728" stroke-miterlimit="10" x1="70.2" y1="56.7" x2="56.5" y2="56.7"/>
		<line fill="none" stroke="#000000" stroke-width="0.4728" stroke-miterlimit="10" x1="70.2" y1="54.1" x2="56.5" y2="54.1"/>
		<line fill="none" stroke="#000000" stroke-width="0.4728" stroke-miterlimit="10" x1="70.2" y1="51.5" x2="56.5" y2="51.5"/>
		<line fill="none" stroke="#000000" stroke-width="0.4728" stroke-miterlimit="10" x1="70.2" y1="48.9" x2="56.5" y2="48.9"/>
		<line fill="none" stroke="#000000" stroke-width="0.4728" stroke-miterlimit="10" x1="70.2" y1="46.3" x2="56.5" y2="46.3"/>
		<line fill="none" stroke="#000000" stroke-width="0.4728" stroke-miterlimit="10" x1="70.2" y1="43.7" x2="56.5" y2="43.7"/>
		<line fill="none" stroke="#000000" stroke-width="0.4728" stroke-miterlimit="10" x1="70.2" y1="41.1" x2="56.5" y2="41.1"/>
	</g>
</g>
</svg>
