<?xml version="1.0" encoding="utf-8"?>
<!DOCTYPE svg PUBLIC "-//W3C//DTD SVG 1.1//EN" "http://www.w3.org/Graphics/SVG/1.1/DTD/svg11.dtd">
<svg version="1.1" xmlns="http://www.w3.org/2000/svg" xmlns:xlink="http://www.w3.org/1999/xlink" x="0px" y="0px" width="552px"
	 height="271px" viewBox="0 0 552 271" enable-background="new 0 0 552 271" xml:space="preserve">
<g>
	<path fill="#0C0C0C" d="M310.3,76.5c0,0,6,5,13.6,5c0,0,0,0,0.1,0h0c2.7,0,5.3-0.6,7.7-1.8l0.2-0.1l8-16c2.3-0.4,4.5-0.9,6.6-1.5
		c3.8-1.1,7.3-2.5,10.3-4.1c-1.1-12.9-13.9-22.7-28.9-21.9c-14.2,0.7-25.5,10.7-26.4,22.7c1,0.7,2,1.2,3,1.7L310.3,76.5z"/>
	<path fill="#0C0C0C" d="M103.9,76.5c0,0,6,5,13.6,5c0,0,0,0,0.1,0h0c2.7,0,5.3-0.6,7.7-1.8l0.2-0.1l8-16c2.3-0.4,4.5-0.9,6.6-1.5
		c3.8-1.1,7.3-2.5,10.3-4.1c-1.1-12.9-13.9-22.7-29-21.9C107.2,36.9,95.9,46.8,95,58.8c1,0.7,2,1.2,3,1.7L103.9,76.5z"/>
	<g>
		<polyline fill="none" stroke="#0C0C0C" stroke-miterlimit="10" points="547.7,241.9 547.7,268.8 4.4,268.8 4.4,241.9 		"/>
		<path fill="none" stroke="#0C0C0C" stroke-width="0.8055" stroke-miterlimit="10" d="M477,39.9c0-16.4-20.7-29.7-46.1-29.7
			c-25.5,0-46.1,13.3-46.1,29.7s20.7,29.7,46.1,29.7C456.4,69.6,477,56.3,477,39.9z"/>
		<path fill="#0C0C0C" d="M460.8,21.4l-12.9,19.2c0.3,0.2,0.7,0.4,1,0.6l10.1-15c6.1,4.1,9,8.7,9,13.6c0,8.6-10.4,16.7-24.7,19.2
			l-9.9,19.8c-2.2,1-4.6,1.5-7,1.6c-7,0.1-12.9-4.6-12.9-4.6l-5.7-15.5l-1.3-5.8c-6.2-3.5-11.8-10.8-11.8-15.2
			c0-8.8,12-16.6,28.5-20l5.4,16.9c0.4,0,0.8-0.1,1.2-0.1l-6.8-21.9c-19.6,3.6-33,13.5-33,25c0,4.8,4.1,11.1,9.2,15.9l7.3,28.7
			l0.1,0.1c6.2,7,12.7,8.3,22.6,8.3c17.1,0,23.9-8.2,24.2-8.5l0.1-0.1l10.9-29.1c0.7-0.5,1.3-1.1,1.9-1.7c4.2-3.8,6.7-8.4,6.7-13.2
			C472.8,33,468.8,26.5,460.8,21.4z M452.3,83.1c-0.7,0.8-7.5,8-23.2,8c-9.7,0-15.7-1.2-21.6-7.8l-6.8-26.7c2,1.7,4,3.1,6,4l6,16
			c0,0,6,5,13.6,5c0,0,0,0,0.1,0c0,0,0,0,0,0c2.7,0,5.3-0.6,7.7-1.8l0.2-0.1l8-16c2.3-0.4,4.5-0.9,6.6-1.5c5.3-1.5,9.9-3.6,13.7-6.2
			L452.3,83.1z"/>
		<path fill="none" stroke="#0C0C0C" stroke-width="0.8055" stroke-miterlimit="10" d="M374.6,39.9c0-16.4-20.7-29.7-46.1-29.7
			c-25.5,0-46.1,13.3-46.1,29.7s20.7,29.7,46.1,29.7C354,69.6,374.6,56.3,374.6,39.9z"/>
		<path fill="#0C0C0C" d="M358.4,21.4l-12.9,19.2c0.3,0.2,0.7,0.4,1,0.6l10.1-15c6.1,4.1,9,8.7,9,13.6c0,8.6-10.4,16.7-24.7,19.2
			L331,78.8c-2.2,1-4.6,1.5-7,1.6c-7,0.1-12.9-4.6-12.9-4.6l-5.7-15.5l-1.3-5.8c-6.2-3.5-11.8-10.8-11.8-15.2c0-8.8,12-16.6,28.5-20
			l5.4,16.9c0.4,0,0.8-0.1,1.2-0.1l-6.8-21.9c-19.6,3.6-33,13.5-33,25c0,4.8,4.1,11.1,9.2,15.9l7.3,28.7l0.1,0.1
			c6.2,7,12.7,8.3,22.6,8.3c17.1,0,23.9-8.2,24.2-8.5l0.1-0.1l10.9-29.1c0.7-0.5,1.3-1.1,1.9-1.7c4.2-3.8,6.7-8.4,6.7-13.2
			C370.4,33,366.5,26.5,358.4,21.4z M349.9,83.1c-0.7,0.8-7.5,8-23.2,8c-9.7,0-15.7-1.2-21.6-7.8l-6.8-26.7c2,1.7,4,3.1,6,4l6,16
			c0,0,6,5,13.6,5c0,0,0,0,0.1,0c0,0,0,0,0,0c2.7,0,5.3-0.6,7.7-1.8l0.2-0.1l8-16c2.3-0.4,4.5-0.9,6.6-1.5c5.3-1.5,9.9-3.6,13.7-6.2
			L349.9,83.1z"/>
		<path fill="none" stroke="#0C0C0C" stroke-width="0.8055" stroke-miterlimit="10" d="M271.5,39.9c0-16.4-20.7-29.7-46.1-29.7
			c-25.5,0-46.1,13.3-46.1,29.7c0,16.4,20.7,29.7,46.1,29.7C250.8,69.6,271.5,56.3,271.5,39.9z"/>
		<path fill="#0C0C0C" d="M255.2,21.4l-12.9,19.2c0.3,0.2,0.7,0.4,1,0.6l10.1-15c6.1,4.1,9,8.7,9,13.6c0,8.6-10.4,16.7-24.7,19.2
			l-9.9,19.8c-2.2,1-4.6,1.5-7,1.6c-7,0.1-12.9-4.6-12.9-4.6l-5.7-15.5l-1.3-5.8c-6.2-3.5-11.8-10.8-11.8-15.2
			c0-8.8,12-16.6,28.5-20l5.4,16.9c0.4,0,0.8-0.1,1.2-0.1l-6.8-21.9c-19.6,3.6-33,13.5-33,25c0,4.8,4.1,11.1,9.2,15.9l7.3,28.7
			l0.1,0.1c6.2,7,12.7,8.3,22.6,8.3c17.1,0,23.9-8.2,24.2-8.5l0.1-0.1l10.9-29.1c0.7-0.5,1.3-1.1,1.9-1.7c4.2-3.8,6.7-8.4,6.7-13.2
			C267.3,33,263.3,26.5,255.2,21.4z M246.8,83.1c-0.7,0.8-7.5,8-23.2,8c-9.7,0-15.7-1.2-21.6-7.8l-6.8-26.7c2,1.7,4,3.1,6,4l6,16
			c0,0,6,5,13.6,5c0,0,0,0,0.1,0c0,0,0,0,0,0c2.7,0,5.3-0.6,7.7-1.8l0.2-0.1l8-16c2.3-0.4,4.5-0.9,6.6-1.5c5.3-1.5,9.9-3.6,13.7-6.2
			L246.8,83.1z"/>
		<ellipse fill="none" stroke="#0C0C0C" stroke-width="0.8055" stroke-miterlimit="10" cx="122.1" cy="39.9" rx="46.1" ry="29.7"/>
		<path fill="#0C0C0C" d="M152,21.4l-12.9,19.2c0.3,0.2,0.7,0.4,1,0.6l10.1-15c6.1,4.1,9,8.7,9,13.6c0,8.6-10.4,16.7-24.7,19.2
			l-9.9,19.8c-2.2,1-4.6,1.5-7,1.6c-7,0.1-12.9-4.6-12.9-4.6l-5.7-15.5l-1.3-5.8C91.5,51,86,43.7,86,39.3c0-8.8,12-16.6,28.5-20
			l5.4,16.9c0.4,0,0.8-0.1,1.2-0.1l-6.8-21.9c-19.6,3.6-33,13.5-33,25c0,4.8,4.1,11.1,9.2,15.9l7.3,28.7l0.1,0.1
			c6.2,7,12.7,8.3,22.6,8.3c17.1,0,23.9-8.2,24.2-8.5l0.1-0.1l10.9-29.1c0.7-0.5,1.3-1.1,1.9-1.7c4.2-3.8,6.7-8.4,6.7-13.2
			C164,33,160.1,26.5,152,21.4z M143.6,83.1c-0.7,0.8-7.5,8-23.2,8c-9.7,0-15.7-1.2-21.6-7.8l-6.8-26.7c2,1.7,4,3.1,6,4l6,16
			c0,0,6,5,13.6,5c0,0,0,0,0.1,0c0,0,0,0,0,0c2.7,0,5.3-0.6,7.7-1.8l0.2-0.1l8-16c2.3-0.4,4.5-0.9,6.6-1.5c5.3-1.5,9.9-3.6,13.6-6.2
			L143.6,83.1z"/>
		<ellipse fill="none" stroke="#0C0C0C" stroke-width="0.895" stroke-miterlimit="10" cx="447.9" cy="108.3" rx="51.3" ry="33"/>
		<path fill="#0C0C0C" d="M481.1,87.7l-14.3,21.3c0.4,0.2,0.7,0.5,1.1,0.7l11.2-16.7c6.8,4.6,10,9.7,10,15.1
			c0,9.5-11.6,18.6-27.5,21.4l-11,22c-2.5,1.1-5.1,1.7-7.8,1.7c-7.8,0.1-14.3-5.1-14.3-5.1l-6.3-17.2l-1.5-6.5
			c-6.9-3.8-13.1-12-13.1-16.8c0-9.7,13.3-18.5,31.6-22.2l6,18.8c0.4,0,0.9-0.1,1.3-0.1l-7.6-24.3c-21.8,4-36.7,15-36.7,27.8
			c0,5.3,4.6,12.3,10.2,17.6l8.1,31.9l0.1,0.1c6.9,7.8,14.2,9.2,25.1,9.2c19,0,26.6-9.1,26.9-9.4l0.1-0.1l12.1-32.3
			c0.7-0.6,1.4-1.2,2.1-1.8c4.7-4.3,7.4-9.3,7.4-14.7C494.5,100.7,490.1,93.5,481.1,87.7z M471.7,156.3c-0.8,0.9-8.4,8.9-25.8,8.9
			c-10.7,0-17.4-1.3-24-8.7l-7.6-29.7c2.2,1.9,4.5,3.4,6.7,4.4l6.6,17.7c0,0,6.7,5.6,15.1,5.6c0,0,0.1,0,0.1,0c0,0,0,0,0,0
			c3,0,5.8-0.7,8.6-1.9l0.2-0.1l8.9-17.8c2.5-0.4,5-1,7.3-1.7c5.9-1.6,11-4,15.2-6.9L471.7,156.3z"/>
		<ellipse fill="none" stroke="#0C0C0C" stroke-width="0.895" stroke-miterlimit="10" cx="332.5" cy="108.3" rx="51.3" ry="33"/>
		<path fill="#0C0C0C" d="M365.7,87.7l-14.3,21.3c0.4,0.2,0.7,0.5,1.1,0.7l11.2-16.7c6.8,4.6,10,9.7,10,15.1
			c0,9.5-11.6,18.6-27.5,21.4l-11,22c-2.5,1.1-5.1,1.7-7.8,1.7c-7.8,0.1-14.3-5.1-14.3-5.1l-6.3-17.2l-1.5-6.5
			c-6.9-3.8-13.1-12-13.1-16.8c0-9.7,13.3-18.5,31.6-22.2l6,18.8c0.4,0,0.9-0.1,1.3-0.1l-7.6-24.3c-21.8,4-36.7,15-36.7,27.8
			c0,5.3,4.6,12.3,10.2,17.6l8.1,31.9l0.1,0.1c6.9,7.8,14.2,9.2,25.1,9.2c19,0,26.6-9.1,26.9-9.4l0.1-0.1l12.1-32.3
			c0.7-0.6,1.4-1.2,2.1-1.8c4.7-4.3,7.4-9.3,7.4-14.7C379,100.7,374.6,93.5,365.7,87.7z M356.3,156.3c-0.8,0.9-8.4,8.9-25.8,8.9
			c-10.7,0-17.4-1.3-24-8.7l-7.6-29.7c2.2,1.9,4.5,3.4,6.7,4.4l6.6,17.7c0,0,6.7,5.6,15.1,5.6c0,0,0.1,0,0.1,0c0,0,0,0,0,0
			c3,0,5.8-0.7,8.6-1.9l0.2-0.1l8.9-17.8c2.5-0.4,5-1,7.3-1.7c5.9-1.6,11-4,15.2-6.9L356.3,156.3z"/>
		<ellipse fill="none" stroke="#0C0C0C" stroke-width="0.9945" stroke-miterlimit="10" cx="464.4" cy="190.2" rx="57" ry="36.6"/>
		<path fill="#0C0C0C" d="M501.3,167.3l-15.9,23.7c0.4,0.3,0.8,0.5,1.2,0.8l12.5-18.6c7.6,5.1,11.1,10.7,11.1,16.8
			c0,10.6-12.9,20.6-30.5,23.7l-12.2,24.5c-2.8,1.3-5.7,1.9-8.7,1.9c-8.7,0.2-15.9-5.7-15.9-5.7l-7-19.1l-1.6-7.2
			c-7.7-4.3-14.6-13.3-14.6-18.7c0-10.8,14.8-20.5,35.1-24.7l6.6,20.9c0.5,0,1-0.1,1.5-0.1l-8.4-27c-24.2,4.5-40.7,16.7-40.7,30.9
			c0,5.9,5.1,13.7,11.3,19.6l9,35.4l0.1,0.1c7.7,8.6,15.7,10.3,27.9,10.3c21.1,0,29.5-10.1,29.9-10.5l0.1-0.1l13.4-35.9
			c0.8-0.7,1.6-1.3,2.3-2c5.2-4.7,8.3-10.3,8.3-16.3C516.2,181.7,511.3,173.7,501.3,167.3z M490.9,243.5c-0.8,1-9.3,9.9-28.7,9.9
			c-11.9,0-19.4-1.5-26.7-9.6l-8.4-33c2.4,2.1,5,3.8,7.4,4.9l7.4,19.7c0,0,7.4,6.2,16.8,6.2c0,0,0.1,0,0.1,0c0,0,0,0,0,0
			c3.3,0,6.5-0.7,9.5-2.2l0.2-0.1l9.9-19.7c2.8-0.5,5.5-1.1,8.1-1.9c6.5-1.8,12.3-4.5,16.9-7.7L490.9,243.5z"/>
		<path fill="none" stroke="#0C0C0C" stroke-width="0.9945" stroke-miterlimit="10" d="M394.7,190.2c0-20.2-25.5-36.6-57-36.6
			c-31.5,0-57,16.4-57,36.6c0,20.2,25.5,36.6,57,36.6C369.2,226.9,394.7,210.5,394.7,190.2z"/>
		<path fill="#0C0C0C" d="M374.7,167.3l-15.9,23.7c0.4,0.3,0.8,0.5,1.2,0.8l12.5-18.6c7.6,5.1,11.1,10.7,11.1,16.8
			c0,10.6-12.9,20.6-30.5,23.7l-12.2,24.5c-2.8,1.3-5.7,1.9-8.7,1.9c-8.7,0.2-15.9-5.7-15.9-5.7l-7-19.1l-1.6-7.2
			c-7.7-4.3-14.6-13.3-14.6-18.7c0-10.8,14.8-20.5,35.1-24.7l6.7,20.9c0.5,0,1-0.1,1.5-0.1l-8.4-27c-24.2,4.5-40.7,16.7-40.7,30.9
			c0,5.9,5.1,13.7,11.3,19.6l9,35.4l0.1,0.1c7.7,8.6,15.7,10.3,27.9,10.3c21.1,0,29.5-10.1,29.9-10.5l0.1-0.1l13.4-35.9
			c0.8-0.7,1.6-1.3,2.3-2c5.2-4.7,8.3-10.3,8.3-16.3C389.5,181.7,384.7,173.7,374.7,167.3z M364.3,243.5c-0.8,1-9.3,9.9-28.7,9.9
			c-11.9,0-19.4-1.5-26.7-9.6l-8.4-33c2.4,2.1,5,3.8,7.4,4.9l7.4,19.7c0,0,7.4,6.2,16.8,6.2c0,0,0.1,0,0.1,0c0,0,0,0,0,0
			c3.3,0,6.5-0.7,9.5-2.2l0.2-0.1l9.9-19.7c2.8-0.5,5.5-1.1,8.1-1.9c6.5-1.8,12.3-4.5,16.9-7.7L364.3,243.5z"/>
		<ellipse fill="none" stroke="#0C0C0C" stroke-width="0.895" stroke-miterlimit="10" cx="223.1" cy="108.3" rx="51.3" ry="33"/>
		<path fill="#0C0C0C" d="M256.3,87.7L242,109.1c0.4,0.2,0.7,0.5,1.1,0.7l11.2-16.7c6.8,4.6,10,9.7,10,15.1
			c0,9.5-11.6,18.6-27.5,21.4l-11,22c-2.5,1.2-5.1,1.7-7.8,1.7c-7.8,0.1-14.3-5.1-14.3-5.1l-6.3-17.2l-1.5-6.5
			c-6.9-3.8-13.1-12-13.1-16.8c0-9.7,13.3-18.5,31.6-22.2l6,18.8c0.4,0,0.9-0.1,1.3-0.1l-7.6-24.3c-21.8,4-36.7,15-36.7,27.8
			c0,5.3,4.6,12.3,10.2,17.6l8.1,31.9l0.1,0.1c6.9,7.8,14.2,9.2,25.1,9.2c19,0,26.6-9.1,26.9-9.4l0.1-0.1l12.1-32.3
			c0.7-0.6,1.4-1.2,2.1-1.8c4.7-4.3,7.4-9.3,7.4-14.7C269.6,100.7,265.3,93.5,256.3,87.7z M246.9,156.3c-0.8,0.9-8.4,8.9-25.8,8.9
			c-10.7,0-17.4-1.3-24-8.7l-7.6-29.7c2.2,1.9,4.5,3.4,6.7,4.4l6.6,17.7c0,0,6.7,5.6,15.1,5.6c0,0,0.1,0,0.1,0c0,0,0,0,0,0
			c3,0,5.8-0.7,8.6-1.9l0.2-0.1l8.9-17.8c2.5-0.4,5-1,7.3-1.7c5.9-1.6,11-4,15.2-6.9L246.9,156.3z"/>
		<ellipse fill="none" stroke="#0C0C0C" stroke-width="0.895" stroke-miterlimit="10" cx="113.6" cy="108.3" rx="51.3" ry="33"/>
		<path fill="#0C0C0C" d="M146.8,87.7l-14.3,21.3c0.4,0.2,0.7,0.5,1.1,0.7l11.2-16.7c6.8,4.6,10,9.7,10,15.1
			c0,9.5-11.6,18.6-27.5,21.4l-11,22c-2.5,1.2-5.1,1.7-7.8,1.7c-7.8,0.1-14.3-5.1-14.3-5.1L88,131l-1.5-6.5
			c-6.9-3.8-13.1-12-13.1-16.8c0-9.7,13.3-18.5,31.6-22.2l6,18.8c0.4,0,0.9-0.1,1.3-0.1l-7.6-24.3c-21.8,4-36.7,15-36.7,27.8
			c0,5.3,4.6,12.3,10.2,17.6l8.1,31.9l0.1,0.1c6.9,7.8,14.2,9.2,25.1,9.2c19,0,26.6-9.1,26.9-9.4l0.1-0.1l12.1-32.3
			c0.7-0.6,1.4-1.2,2.1-1.8c4.7-4.3,7.4-9.3,7.4-14.7C160.2,100.7,155.8,93.5,146.8,87.7z M137.4,156.3c-0.8,0.9-8.4,8.9-25.8,8.9
			c-10.7,0-17.4-1.3-24-8.7l-7.6-29.7c2.2,1.9,4.5,3.4,6.7,4.4l6.6,17.7c0,0,6.7,5.6,15.1,5.6c0,0,0.1,0,0.1,0c0,0,0,0,0,0
			c3,0,5.8-0.7,8.6-1.9l0.2-0.1l8.9-17.8c2.5-0.4,5-1,7.3-1.7c5.9-1.6,11-4,15.2-6.9L137.4,156.3z"/>
		<ellipse fill="none" stroke="#0C0C0C" stroke-width="0.9945" stroke-miterlimit="10" cx="212.1" cy="190.2" rx="57" ry="36.6"/>
		<path fill="#0C0C0C" d="M249,167.3l-15.9,23.7c0.4,0.3,0.8,0.5,1.2,0.8l12.5-18.6c7.6,5.1,11.1,10.7,11.1,16.8
			c0,10.6-12.9,20.6-30.5,23.7l-12.2,24.5c-2.8,1.3-5.7,1.9-8.7,1.9c-8.7,0.2-15.9-5.7-15.9-5.7l-7-19.1l-1.6-7.2
			c-7.7-4.3-14.6-13.3-14.6-18.7c0-10.8,14.8-20.5,35.1-24.7l6.6,20.9c0.5,0,1-0.1,1.5-0.1l-8.4-27c-24.2,4.5-40.7,16.7-40.7,30.9
			c0,5.9,5.1,13.7,11.3,19.6l9,35.4l0.1,0.1c7.7,8.6,15.7,10.3,27.9,10.3c21.1,0,29.5-10.1,29.9-10.5l0.1-0.1l13.4-35.9
			c0.8-0.7,1.6-1.3,2.3-2c5.2-4.7,8.3-10.3,8.3-16.3C263.9,181.7,259,173.7,249,167.3z M238.6,243.5c-0.8,1-9.3,9.9-28.7,9.9
			c-11.9,0-19.4-1.5-26.7-9.6l-8.4-33c2.4,2.1,5,3.8,7.4,4.9l7.4,19.7c0,0,7.4,6.2,16.8,6.2c0,0,0.1,0,0.1,0c0,0,0,0,0,0
			c3.3,0,6.5-0.7,9.5-2.2l0.2-0.1l9.9-19.7c2.8-0.5,5.5-1.1,8.1-1.9c6.5-1.8,12.3-4.5,16.9-7.7L238.6,243.5z"/>
		<path fill="none" stroke="#0C0C0C" stroke-width="0.9945" stroke-miterlimit="10" d="M143.5,190.2c0-20.2-25.5-36.6-57-36.6
			c-31.5,0-57,16.4-57,36.6c0,20.2,25.5,36.6,57,36.6C118,226.9,143.5,210.5,143.5,190.2z"/>
		<path fill="#0C0C0C" d="M123.4,167.3l-15.9,23.7c0.4,0.3,0.8,0.5,1.2,0.8l12.5-18.6c7.6,5.1,11.1,10.7,11.1,16.8
			c0,10.6-12.9,20.6-30.5,23.7l-12.2,24.5c-2.8,1.3-5.7,1.9-8.7,1.9c-8.7,0.2-15.9-5.7-15.9-5.7l-7-19.1l-1.6-7.2
			c-7.7-4.3-14.6-13.3-14.6-18.7c0-10.8,14.8-20.5,35.1-24.7l6.7,20.9c0.5,0,1-0.1,1.5-0.1l-8.4-27C52.4,163.1,36,175.3,36,189.5
			c0,5.9,5.1,13.7,11.3,19.6l9,35.4l0.1,0.1c7.7,8.6,15.7,10.3,27.9,10.3c21.1,0,29.5-10.1,29.9-10.5l0.1-0.1l13.4-35.9
			c0.8-0.7,1.6-1.3,2.3-2c5.2-4.7,8.3-10.3,8.3-16.3C138.2,181.7,133.4,173.7,123.4,167.3z M113,243.5c-0.8,1-9.3,9.9-28.7,9.9
			c-11.9,0-19.4-1.5-26.7-9.6l-8.4-33c2.4,2.1,5,3.8,7.4,4.9l7.4,19.7c0,0,7.4,6.2,16.8,6.2c0,0,0.1,0,0.1,0c0,0,0,0,0,0
			c3.3,0,6.5-0.7,9.5-2.2l0.2-0.1l9.9-19.7c2.8-0.5,5.5-1.1,8.1-1.9c6.5-1.8,12.3-4.5,16.9-7.7L113,243.5z"/>
		<g>
			<path fill="none" stroke="#0C0C0C" stroke-miterlimit="10" d="M73.3,3.8c0.6-2.1,3-3.8,5.2-3.8h395.9c2.2,0,4.5,1.7,5.2,3.8
				l71.5,234.2c0.6,2.1-0.6,3.8-2.8,3.8H4c-2.2,0-3.5-1.7-2.8-3.8L73.3,3.8z"/>
		</g>
	</g>
</g>
</svg>
