<?xml version="1.0" encoding="utf-8"?>
<!DOCTYPE svg PUBLIC "-//W3C//DTD SVG 1.1//EN" "http://www.w3.org/Graphics/SVG/1.1/DTD/svg11.dtd">
<svg version="1.1" xmlns="http://www.w3.org/2000/svg" xmlns:xlink="http://www.w3.org/1999/xlink" x="0px" y="0px" width="476px"
	 height="252px" viewBox="0 0 476 252" enable-background="new 0 0 476 252" xml:space="preserve">
<g>
	<g>
		<line fill="none" stroke="#0F0F0F" stroke-width="1.3997" stroke-miterlimit="10" x1="112.4" y1="133.6" x2="116.9" y2="141.4"/>
		<line fill="none" stroke="#0F0F0F" stroke-width="1.3997" stroke-miterlimit="10" x1="103.5" y1="117.9" x2="108" y2="125.8"/>
		<line fill="none" stroke="#0F0F0F" stroke-width="1.3997" stroke-miterlimit="10" x1="108" y1="125.8" x2="112.4" y2="133.6"/>
		<line fill="none" stroke="#0F0F0F" stroke-width="1.3997" stroke-miterlimit="10" x1="99.1" y1="110.1" x2="103.5" y2="117.9"/>
		<line fill="none" stroke="#0F0F0F" stroke-width="1.3997" stroke-miterlimit="10" x1="16.6" y1="133.6" x2="16.6" y2="125.8"/>
		<line fill="none" stroke="#0F0F0F" stroke-width="1.3997" stroke-miterlimit="10" x1="16.6" y1="117.9" x2="16.6" y2="110.1"/>
		<line fill="none" stroke="#0F0F0F" stroke-width="1.3997" stroke-miterlimit="10" x1="94.7" y1="102.3" x2="99.1" y2="110.1"/>
		<line fill="none" stroke="#0F0F0F" stroke-width="1.3997" stroke-miterlimit="10" x1="116.9" y1="141.4" x2="121.3" y2="149.2"/>
		<line fill="none" stroke="#0F0F0F" stroke-width="1.3997" stroke-miterlimit="10" x1="343.1" y1="164.8" x2="347.6" y2="157"/>
		<line fill="none" stroke="#0F0F0F" stroke-width="1.3997" stroke-miterlimit="10" x1="347.6" y1="157" x2="352.1" y2="149.2"/>
		<line fill="none" stroke="#0F0F0F" stroke-width="1.3997" stroke-miterlimit="10" x1="352.1" y1="149.2" x2="356.7" y2="141.4"/>
		<line fill="none" stroke="#0F0F0F" stroke-width="1.3997" stroke-miterlimit="10" x1="125.8" y1="157" x2="130.2" y2="164.8"/>
		<line fill="none" stroke="#0F0F0F" stroke-width="1.3997" stroke-miterlimit="10" x1="121.3" y1="149.2" x2="125.8" y2="157"/>
		<line fill="none" stroke="#0F0F0F" stroke-width="1.3997" stroke-miterlimit="10" x1="16.6" y1="149.2" x2="16.6" y2="141.4"/>
		<polyline fill="none" stroke="#0F0F0F" stroke-width="1.3997" stroke-miterlimit="10" points="130.2,164.8 132.8,169.5 
			340.4,169.5 343.1,164.8 		"/>
		<line fill="none" stroke="#0F0F0F" stroke-width="1.3997" stroke-miterlimit="10" x1="458.2" y1="125.8" x2="458.2" y2="133.6"/>
		<line fill="none" stroke="#0F0F0F" stroke-width="1.3997" stroke-miterlimit="10" x1="458.2" y1="141.4" x2="458.2" y2="149.2"/>
		<line fill="none" stroke="#0F0F0F" stroke-width="1.3997" stroke-miterlimit="10" x1="458.2" y1="157" x2="458.1" y2="164.8"/>
		<line fill="none" stroke="#0F0F0F" stroke-width="1.3997" stroke-miterlimit="10" x1="458.1" y1="172.7" x2="458.1" y2="180.5"/>
		<line fill="none" stroke="#0F0F0F" stroke-width="1.3997" stroke-miterlimit="10" x1="356.7" y1="141.4" x2="361.2" y2="133.6"/>
		<line fill="none" stroke="#0F0F0F" stroke-width="1.3997" stroke-miterlimit="10" x1="458.3" y1="94.5" x2="458.3" y2="102.3"/>
		<line fill="none" stroke="#0F0F0F" stroke-width="1.3997" stroke-miterlimit="10" x1="16.6" y1="164.8" x2="16.6" y2="157"/>
		<line fill="none" stroke="#0F0F0F" stroke-width="1.3997" stroke-miterlimit="10" x1="458.3" y1="110.1" x2="458.2" y2="117.9"/>
		<line fill="none" stroke="#0F0F0F" stroke-width="1.3997" stroke-miterlimit="10" x1="458.1" y1="188.3" x2="458.1" y2="196.1"/>
		<line fill="none" stroke="#0F0F0F" stroke-width="1.3997" stroke-miterlimit="10" x1="16.6" y1="196.1" x2="16.6" y2="188.3"/>
		<line fill="none" stroke="#0F0F0F" stroke-width="1.3997" stroke-miterlimit="10" x1="16.6" y1="211.7" x2="16.6" y2="203.9"/>
		<line fill="none" stroke="#0F0F0F" stroke-width="1.3997" stroke-miterlimit="10" x1="16.6" y1="180.5" x2="16.6" y2="172.7"/>
		<line fill="none" stroke="#0F0F0F" stroke-width="1.3997" stroke-miterlimit="10" x1="458" y1="219.6" x2="458" y2="227.4"/>
		<line fill="none" stroke="#0F0F0F" stroke-width="1.3997" stroke-miterlimit="10" x1="458" y1="203.9" x2="458" y2="211.7"/>
		<line fill="none" stroke="#0F0F0F" stroke-width="1.3997" stroke-miterlimit="10" x1="16.6" y1="227.4" x2="16.6" y2="219.6"/>
		<line fill="none" stroke="#0F0F0F" stroke-width="1.3997" stroke-miterlimit="10" x1="16.6" y1="180.5" x2="16.6" y2="188.3"/>
		<line fill="none" stroke="#0F0F0F" stroke-width="1.3997" stroke-miterlimit="10" x1="16.6" y1="164.8" x2="16.6" y2="172.7"/>
		<line fill="none" stroke="#0F0F0F" stroke-width="1.3997" stroke-miterlimit="10" x1="16.6" y1="211.7" x2="16.6" y2="219.6"/>
		<line fill="none" stroke="#0F0F0F" stroke-width="1.3997" stroke-miterlimit="10" x1="16.6" y1="94.5" x2="16.6" y2="102.3"/>
		<line fill="none" stroke="#0F0F0F" stroke-width="1.3997" stroke-miterlimit="10" x1="374.8" y1="110.1" x2="379.3" y2="102.3"/>
		<line fill="none" stroke="#0F0F0F" stroke-width="1.3997" stroke-miterlimit="10" x1="383.8" y1="94.5" x2="379.3" y2="102.3"/>
		<line fill="none" stroke="#0F0F0F" stroke-width="1.3997" stroke-miterlimit="10" x1="458" y1="219.6" x2="458" y2="211.7"/>
		<polyline fill="none" stroke="#0F0F0F" stroke-width="1.3997" stroke-miterlimit="10" points="16.6,227.4 16.6,234.1 458,234.1 
			458,227.4 		"/>
		<line fill="none" stroke="#0F0F0F" stroke-width="1.3997" stroke-miterlimit="10" x1="16.6" y1="149.2" x2="16.6" y2="157"/>
		<line fill="none" stroke="#0F0F0F" stroke-width="1.3997" stroke-miterlimit="10" x1="16.6" y1="133.6" x2="16.6" y2="141.4"/>
		<line fill="none" stroke="#0F0F0F" stroke-width="1.3997" stroke-miterlimit="10" x1="16.6" y1="117.9" x2="16.6" y2="125.8"/>
		<line fill="none" stroke="#0F0F0F" stroke-width="1.3997" stroke-miterlimit="10" x1="16.6" y1="196.1" x2="16.6" y2="203.9"/>
		<line fill="none" stroke="#0F0F0F" stroke-width="1.3997" stroke-miterlimit="10" x1="16.6" y1="102.3" x2="16.6" y2="110.1"/>
		<line fill="none" stroke="#0F0F0F" stroke-width="1.3997" stroke-miterlimit="10" x1="90.2" y1="94.5" x2="94.7" y2="102.3"/>
		<line fill="none" stroke="#0F0F0F" stroke-width="1.3997" stroke-miterlimit="10" x1="458.3" y1="110.1" x2="458.3" y2="102.3"/>
		<line fill="none" stroke="#0F0F0F" stroke-width="1.3997" stroke-miterlimit="10" x1="458.2" y1="157" x2="458.2" y2="149.2"/>
		<line fill="none" stroke="#0F0F0F" stroke-width="1.3997" stroke-miterlimit="10" x1="458.2" y1="141.4" x2="458.2" y2="133.6"/>
		<polyline fill="none" stroke="#0F0F0F" stroke-width="1.3997" stroke-miterlimit="10" points="90.2,94.5 44.5,14 16.6,14 
			16.6,94.5 		"/>
		<line fill="none" stroke="#0F0F0F" stroke-width="1.3997" stroke-miterlimit="10" x1="458.2" y1="125.8" x2="458.2" y2="117.9"/>
		<line fill="none" stroke="#0F0F0F" stroke-width="1.3997" stroke-miterlimit="10" x1="365.7" y1="125.8" x2="370.2" y2="117.9"/>
		<polyline fill="none" stroke="#0F0F0F" stroke-width="1.3997" stroke-miterlimit="10" points="458.3,94.5 458.5,14 430.3,14 
			383.8,94.5 		"/>
		<line fill="none" stroke="#0F0F0F" stroke-width="1.3997" stroke-miterlimit="10" x1="458" y1="203.9" x2="458.1" y2="196.1"/>
		<line fill="none" stroke="#0F0F0F" stroke-width="1.3997" stroke-miterlimit="10" x1="458.1" y1="188.3" x2="458.1" y2="180.5"/>
		<line fill="none" stroke="#0F0F0F" stroke-width="1.3997" stroke-miterlimit="10" x1="370.2" y1="117.9" x2="374.8" y2="110.1"/>
		<line fill="none" stroke="#0F0F0F" stroke-width="1.3997" stroke-miterlimit="10" x1="458.1" y1="172.7" x2="458.1" y2="164.8"/>
		<line fill="none" stroke="#0F0F0F" stroke-width="1.3997" stroke-miterlimit="10" x1="361.2" y1="133.6" x2="365.7" y2="125.8"/>
		<line fill="none" stroke="#0F0F0F" stroke-width="1.3997" stroke-miterlimit="10" x1="458" y1="227.4" x2="16.6" y2="227.4"/>
		<line fill="none" stroke="#0F0F0F" stroke-width="1.3997" stroke-miterlimit="10" x1="458" y1="219.6" x2="16.6" y2="219.6"/>
		<line fill="none" stroke="#0F0F0F" stroke-width="1.3997" stroke-miterlimit="10" x1="458" y1="211.7" x2="16.6" y2="211.7"/>
		<line fill="none" stroke="#0F0F0F" stroke-width="1.3997" stroke-miterlimit="10" x1="458" y1="203.9" x2="16.6" y2="203.9"/>
		<line fill="none" stroke="#0F0F0F" stroke-width="1.3997" stroke-miterlimit="10" x1="458.1" y1="196.1" x2="16.6" y2="196.1"/>
		<line fill="none" stroke="#0F0F0F" stroke-width="1.3997" stroke-miterlimit="10" x1="458.1" y1="188.3" x2="16.6" y2="188.3"/>
		<line fill="none" stroke="#0F0F0F" stroke-width="1.3997" stroke-miterlimit="10" x1="458.1" y1="180.5" x2="16.6" y2="180.5"/>
		<line fill="none" stroke="#0F0F0F" stroke-width="1.3997" stroke-miterlimit="10" x1="458.1" y1="172.7" x2="16.6" y2="172.7"/>
		<line fill="none" stroke="#0F0F0F" stroke-width="1.3997" stroke-miterlimit="10" x1="16.6" y1="164.8" x2="130.2" y2="164.8"/>
		<line fill="none" stroke="#0F0F0F" stroke-width="1.3997" stroke-miterlimit="10" x1="458.1" y1="164.8" x2="343.1" y2="164.8"/>
	</g>
	<g>
		<path fill="none" stroke="#0F0F0F" stroke-width="1.263" stroke-miterlimit="10" d="M159.3,152.6c0,4.3-3.5,7.8-7.8,7.8
			c-4.3,0-7.8-3.5-7.8-7.8c0-4.3,3.5-7.8,7.8-7.8C155.8,144.8,159.3,148.3,159.3,152.6z"/>
		<path fill="none" stroke="#0F0F0F" stroke-width="1.263" stroke-miterlimit="10" d="M162.2,152.6c0,5.9-4.8,10.7-10.7,10.7
			c-5.9,0-10.7-4.8-10.7-10.7c0-5.9,4.8-10.7,10.7-10.7C157.4,141.9,162.2,146.7,162.2,152.6z"/>
		<path fill="#0F0F0F" stroke="#0F0F0F" stroke-width="1.263" stroke-miterlimit="10" d="M154.5,152.6c0,1.7-1.4,3-3,3
			c-1.7,0-3-1.4-3-3c0-1.7,1.4-3,3-3C153.1,149.6,154.5,150.9,154.5,152.6z"/>
	</g>
	<g>
		<path fill="none" stroke="#0F0F0F" stroke-width="1.263" stroke-miterlimit="10" d="M180.7,152.6c0,4.3-3.5,7.8-7.8,7.8
			c-4.3,0-7.8-3.5-7.8-7.8c0-4.3,3.5-7.8,7.8-7.8C177.2,144.8,180.7,148.3,180.7,152.6z"/>
		<path fill="none" stroke="#0F0F0F" stroke-width="1.263" stroke-miterlimit="10" d="M183.6,152.6c0,5.9-4.8,10.7-10.7,10.7
			c-5.9,0-10.7-4.8-10.7-10.7c0-5.9,4.8-10.7,10.7-10.7C178.8,141.9,183.6,146.7,183.6,152.6z"/>
		<path fill="#0F0F0F" stroke="#0F0F0F" stroke-width="1.263" stroke-miterlimit="10" d="M175.9,152.6c0,1.7-1.4,3-3,3
			c-1.7,0-3-1.4-3-3c0-1.7,1.4-3,3-3C174.6,149.6,175.9,150.9,175.9,152.6z"/>
	</g>
	<g>
		<path fill="none" stroke="#0F0F0F" stroke-width="1.263" stroke-miterlimit="10" d="M202.2,152.6c0,4.3-3.5,7.8-7.8,7.8
			s-7.8-3.5-7.8-7.8c0-4.3,3.5-7.8,7.8-7.8S202.2,148.3,202.2,152.6z"/>
		<path fill="none" stroke="#0F0F0F" stroke-width="1.263" stroke-miterlimit="10" d="M205,152.6c0,5.9-4.8,10.7-10.7,10.7
			c-5.9,0-10.7-4.8-10.7-10.7c0-5.9,4.8-10.7,10.7-10.7C200.2,141.9,205,146.7,205,152.6z"/>
		<path fill="#0F0F0F" stroke="#0F0F0F" stroke-width="1.263" stroke-miterlimit="10" d="M197.4,152.6c0,1.7-1.4,3-3,3
			c-1.7,0-3-1.4-3-3c0-1.7,1.4-3,3-3C196,149.6,197.4,150.9,197.4,152.6z"/>
	</g>
	<g>
		<path fill="none" stroke="#0F0F0F" stroke-width="1.263" stroke-miterlimit="10" d="M223.6,152.6c0,4.3-3.5,7.8-7.8,7.8
			c-4.3,0-7.8-3.5-7.8-7.8c0-4.3,3.5-7.8,7.8-7.8C220.1,144.8,223.6,148.3,223.6,152.6z"/>
		<path fill="none" stroke="#0F0F0F" stroke-width="1.263" stroke-miterlimit="10" d="M226.5,152.6c0,5.9-4.8,10.7-10.7,10.7
			c-5.9,0-10.7-4.8-10.7-10.7c0-5.9,4.8-10.7,10.7-10.7C221.7,141.9,226.5,146.7,226.5,152.6z"/>
		<path fill="#0F0F0F" stroke="#0F0F0F" stroke-width="1.263" stroke-miterlimit="10" d="M218.8,152.6c0,1.7-1.4,3-3,3s-3-1.4-3-3
			c0-1.7,1.4-3,3-3S218.8,150.9,218.8,152.6z"/>
	</g>
	<g>
		<path fill="none" stroke="#0F0F0F" stroke-width="1.263" stroke-miterlimit="10" d="M245,152.6c0,4.3-3.5,7.8-7.8,7.8
			c-4.3,0-7.8-3.5-7.8-7.8c0-4.3,3.5-7.8,7.8-7.8C241.5,144.8,245,148.3,245,152.6z"/>
		<path fill="none" stroke="#0F0F0F" stroke-width="1.263" stroke-miterlimit="10" d="M247.9,152.6c0,5.9-4.8,10.7-10.7,10.7
			c-5.9,0-10.7-4.8-10.7-10.7c0-5.9,4.8-10.7,10.7-10.7C243.1,141.9,247.9,146.7,247.9,152.6z"/>
		<path fill="#0F0F0F" stroke="#0F0F0F" stroke-width="1.263" stroke-miterlimit="10" d="M240.2,152.6c0,1.7-1.4,3-3,3s-3-1.4-3-3
			c0-1.7,1.4-3,3-3S240.2,150.9,240.2,152.6z"/>
	</g>
	<g>
		<path fill="none" stroke="#0F0F0F" stroke-width="1.263" stroke-miterlimit="10" d="M266.5,152.6c0,4.3-3.5,7.8-7.8,7.8
			s-7.8-3.5-7.8-7.8c0-4.3,3.5-7.8,7.8-7.8S266.5,148.3,266.5,152.6z"/>
		<path fill="none" stroke="#0F0F0F" stroke-width="1.263" stroke-miterlimit="10" d="M269.4,152.6c0,5.9-4.8,10.7-10.7,10.7
			c-5.9,0-10.7-4.8-10.7-10.7c0-5.9,4.8-10.7,10.7-10.7C264.6,141.9,269.4,146.7,269.4,152.6z"/>
		<path fill="#0F0F0F" stroke="#0F0F0F" stroke-width="1.263" stroke-miterlimit="10" d="M261.7,152.6c0,1.7-1.4,3-3,3
			c-1.7,0-3-1.4-3-3c0-1.7,1.4-3,3-3C260.3,149.6,261.7,150.9,261.7,152.6z"/>
	</g>
	<g>
		<path fill="none" stroke="#0F0F0F" stroke-width="1.263" stroke-miterlimit="10" d="M287.9,152.6c0,4.3-3.5,7.8-7.8,7.8
			c-4.3,0-7.8-3.5-7.8-7.8c0-4.3,3.5-7.8,7.8-7.8C284.4,144.8,287.9,148.3,287.9,152.6z"/>
		<path fill="none" stroke="#0F0F0F" stroke-width="1.263" stroke-miterlimit="10" d="M290.8,152.6c0,5.9-4.8,10.7-10.7,10.7
			c-5.9,0-10.7-4.8-10.7-10.7c0-5.9,4.8-10.7,10.7-10.7C286,141.9,290.8,146.7,290.8,152.6z"/>
		<path fill="#0F0F0F" stroke="#0F0F0F" stroke-width="1.263" stroke-miterlimit="10" d="M283.1,152.6c0,1.7-1.4,3-3,3s-3-1.4-3-3
			c0-1.7,1.4-3,3-3S283.1,150.9,283.1,152.6z"/>
	</g>
	<g>
		<path fill="none" stroke="#0F0F0F" stroke-width="1.263" stroke-miterlimit="10" d="M309.4,152.6c0,4.3-3.5,7.8-7.8,7.8
			s-7.8-3.5-7.8-7.8c0-4.3,3.5-7.8,7.8-7.8S309.4,148.3,309.4,152.6z"/>
		<path fill="none" stroke="#0F0F0F" stroke-width="1.263" stroke-miterlimit="10" d="M312.3,152.6c0,5.9-4.8,10.7-10.7,10.7
			c-5.9,0-10.7-4.8-10.7-10.7c0-5.9,4.8-10.7,10.7-10.7C307.5,141.9,312.3,146.7,312.3,152.6z"/>
		<path fill="#0F0F0F" stroke="#0F0F0F" stroke-width="1.263" stroke-miterlimit="10" d="M304.6,152.6c0,1.7-1.4,3-3,3
			c-1.7,0-3-1.4-3-3c0-1.7,1.4-3,3-3C303.2,149.6,304.6,150.9,304.6,152.6z"/>
	</g>
	<g>
		<path fill="none" stroke="#0F0F0F" stroke-width="1.263" stroke-miterlimit="10" d="M330.8,152.6c0,4.3-3.5,7.8-7.8,7.8
			c-4.3,0-7.8-3.5-7.8-7.8c0-4.3,3.5-7.8,7.8-7.8C327.3,144.8,330.8,148.3,330.8,152.6z"/>
		<path fill="none" stroke="#0F0F0F" stroke-width="1.263" stroke-miterlimit="10" d="M333.7,152.6c0,5.9-4.8,10.7-10.7,10.7
			c-5.9,0-10.7-4.8-10.7-10.7c0-5.9,4.8-10.7,10.7-10.7C328.9,141.9,333.7,146.7,333.7,152.6z"/>
		<path fill="#0F0F0F" stroke="#0F0F0F" stroke-width="1.263" stroke-miterlimit="10" d="M326,152.6c0,1.7-1.4,3-3,3
			c-1.7,0-3-1.4-3-3c0-1.7,1.4-3,3-3C324.7,149.6,326,150.9,326,152.6z"/>
	</g>
	<g>
		<circle fill="none" stroke="#0F0F0F" stroke-width="1.263" stroke-miterlimit="10" cx="140.7" cy="134.1" r="7.8"/>
		<path fill="none" stroke="#0F0F0F" stroke-width="1.263" stroke-miterlimit="10" d="M151.4,134.1c0,5.9-4.8,10.7-10.7,10.7
			c-5.9,0-10.7-4.8-10.7-10.7c0-5.9,4.8-10.7,10.7-10.7C146.6,123.3,151.4,128.1,151.4,134.1z"/>
		<path fill="#0F0F0F" stroke="#0F0F0F" stroke-width="1.263" stroke-miterlimit="10" d="M143.8,134.1c0,1.7-1.4,3-3,3
			c-1.7,0-3-1.4-3-3c0-1.7,1.4-3,3-3C142.4,131,143.8,132.4,143.8,134.1z"/>
	</g>
	<g>
		<path fill="none" stroke="#0F0F0F" stroke-width="1.263" stroke-miterlimit="10" d="M170,134.1c0,4.3-3.5,7.8-7.8,7.8
			c-4.3,0-7.8-3.5-7.8-7.8c0-4.3,3.5-7.8,7.8-7.8C166.5,126.2,170,129.7,170,134.1z"/>
		<path fill="none" stroke="#0F0F0F" stroke-width="1.263" stroke-miterlimit="10" d="M172.9,134.1c0,5.9-4.8,10.7-10.7,10.7
			c-5.9,0-10.7-4.8-10.7-10.7c0-5.9,4.8-10.7,10.7-10.7C168.1,123.3,172.9,128.1,172.9,134.1z"/>
		<path fill="#0F0F0F" stroke="#0F0F0F" stroke-width="1.263" stroke-miterlimit="10" d="M165.2,134.1c0,1.7-1.4,3-3,3
			c-1.7,0-3-1.4-3-3c0-1.7,1.4-3,3-3C163.8,131,165.2,132.4,165.2,134.1z"/>
	</g>
	<g>
		<circle fill="none" stroke="#0F0F0F" stroke-width="1.263" stroke-miterlimit="10" cx="183.6" cy="134.1" r="7.8"/>
		<path fill="none" stroke="#0F0F0F" stroke-width="1.263" stroke-miterlimit="10" d="M194.3,134.1c0,5.9-4.8,10.7-10.7,10.7
			c-5.9,0-10.7-4.8-10.7-10.7c0-5.9,4.8-10.7,10.7-10.7C189.5,123.3,194.3,128.1,194.3,134.1z"/>
		<path fill="#0F0F0F" stroke="#0F0F0F" stroke-width="1.263" stroke-miterlimit="10" d="M186.6,134.1c0,1.7-1.4,3-3,3
			c-1.7,0-3-1.4-3-3c0-1.7,1.4-3,3-3C185.3,131,186.6,132.4,186.6,134.1z"/>
	</g>
	<g>
		<circle fill="none" stroke="#0F0F0F" stroke-width="1.263" stroke-miterlimit="10" cx="205" cy="134.1" r="7.8"/>
		<path fill="none" stroke="#0F0F0F" stroke-width="1.263" stroke-miterlimit="10" d="M215.8,134.1c0,5.9-4.8,10.7-10.7,10.7
			c-5.9,0-10.7-4.8-10.7-10.7c0-5.9,4.8-10.7,10.7-10.7C211,123.3,215.8,128.1,215.8,134.1z"/>
		<path fill="#0F0F0F" stroke="#0F0F0F" stroke-width="1.263" stroke-miterlimit="10" d="M208.1,134.1c0,1.7-1.4,3-3,3s-3-1.4-3-3
			c0-1.7,1.4-3,3-3S208.1,132.4,208.1,134.1z"/>
	</g>
	<g>
		<circle fill="none" stroke="#0F0F0F" stroke-width="1.263" stroke-miterlimit="10" cx="226.5" cy="134.1" r="7.8"/>
		<path fill="none" stroke="#0F0F0F" stroke-width="1.263" stroke-miterlimit="10" d="M237.2,134.1c0,5.9-4.8,10.7-10.7,10.7
			c-5.9,0-10.7-4.8-10.7-10.7c0-5.9,4.8-10.7,10.7-10.7C232.4,123.3,237.2,128.1,237.2,134.1z"/>
		<path fill="#0F0F0F" stroke="#0F0F0F" stroke-width="1.263" stroke-miterlimit="10" d="M229.5,134.1c0,1.7-1.4,3-3,3
			c-1.7,0-3-1.4-3-3c0-1.7,1.4-3,3-3C228.2,131,229.5,132.4,229.5,134.1z"/>
	</g>
	<g>
		<path fill="none" stroke="#0F0F0F" stroke-width="1.263" stroke-miterlimit="10" d="M255.8,134.1c0,4.3-3.5,7.8-7.8,7.8
			c-4.3,0-7.8-3.5-7.8-7.8c0-4.3,3.5-7.8,7.8-7.8C252.3,126.2,255.8,129.7,255.8,134.1z"/>
		<path fill="none" stroke="#0F0F0F" stroke-width="1.263" stroke-miterlimit="10" d="M258.6,134.1c0,5.9-4.8,10.7-10.7,10.7
			c-5.9,0-10.7-4.8-10.7-10.7c0-5.9,4.8-10.7,10.7-10.7C253.8,123.3,258.6,128.1,258.6,134.1z"/>
		<path fill="#0F0F0F" stroke="#0F0F0F" stroke-width="1.263" stroke-miterlimit="10" d="M251,134.1c0,1.7-1.4,3-3,3s-3-1.4-3-3
			c0-1.7,1.4-3,3-3S251,132.4,251,134.1z"/>
	</g>
	<g>
		<circle fill="none" stroke="#0F0F0F" stroke-width="1.263" stroke-miterlimit="10" cx="269.4" cy="134.1" r="7.8"/>
		<path fill="none" stroke="#0F0F0F" stroke-width="1.263" stroke-miterlimit="10" d="M280.1,134.1c0,5.9-4.8,10.7-10.7,10.7
			c-5.9,0-10.7-4.8-10.7-10.7c0-5.9,4.8-10.7,10.7-10.7C275.3,123.3,280.1,128.1,280.1,134.1z"/>
		<path fill="#0F0F0F" stroke="#0F0F0F" stroke-width="1.263" stroke-miterlimit="10" d="M272.4,134.1c0,1.7-1.4,3-3,3
			c-1.7,0-3-1.4-3-3c0-1.7,1.4-3,3-3C271,131,272.4,132.4,272.4,134.1z"/>
	</g>
	<g>
		<circle fill="none" stroke="#0F0F0F" stroke-width="1.263" stroke-miterlimit="10" cx="290.8" cy="134.1" r="7.8"/>
		<path fill="none" stroke="#0F0F0F" stroke-width="1.263" stroke-miterlimit="10" d="M301.5,134.1c0,5.9-4.8,10.7-10.7,10.7
			c-5.9,0-10.7-4.8-10.7-10.7c0-5.9,4.8-10.7,10.7-10.7C296.7,123.3,301.5,128.1,301.5,134.1z"/>
		<path fill="#0F0F0F" stroke="#0F0F0F" stroke-width="1.263" stroke-miterlimit="10" d="M293.8,134.1c0,1.7-1.4,3-3,3
			c-1.7,0-3-1.4-3-3c0-1.7,1.4-3,3-3C292.5,131,293.8,132.4,293.8,134.1z"/>
	</g>
	<g>
		<circle fill="none" stroke="#0F0F0F" stroke-width="1.263" stroke-miterlimit="10" cx="312.3" cy="134.1" r="7.8"/>
		<path fill="none" stroke="#0F0F0F" stroke-width="1.263" stroke-miterlimit="10" d="M323,134.1c0,5.9-4.8,10.7-10.7,10.7
			s-10.7-4.8-10.7-10.7c0-5.9,4.8-10.7,10.7-10.7S323,128.1,323,134.1z"/>
		<path fill="#0F0F0F" stroke="#0F0F0F" stroke-width="1.263" stroke-miterlimit="10" d="M315.3,134.1c0,1.7-1.4,3-3,3
			c-1.7,0-3-1.4-3-3c0-1.7,1.4-3,3-3C313.9,131,315.3,132.4,315.3,134.1z"/>
	</g>
	<g>
		<path fill="none" stroke="#0F0F0F" stroke-width="1.263" stroke-miterlimit="10" d="M341.5,134.1c0,4.3-3.5,7.8-7.8,7.8
			c-4.3,0-7.8-3.5-7.8-7.8c0-4.3,3.5-7.8,7.8-7.8C338,126.2,341.5,129.7,341.5,134.1z"/>
		<path fill="none" stroke="#0F0F0F" stroke-width="1.263" stroke-miterlimit="10" d="M344.4,134.1c0,5.9-4.8,10.7-10.7,10.7
			c-5.9,0-10.7-4.8-10.7-10.7c0-5.9,4.8-10.7,10.7-10.7C339.6,123.3,344.4,128.1,344.4,134.1z"/>
		<path fill="#0F0F0F" stroke="#0F0F0F" stroke-width="1.263" stroke-miterlimit="10" d="M336.7,134.1c0,1.7-1.4,3-3,3s-3-1.4-3-3
			c0-1.7,1.4-3,3-3S336.7,132.4,336.7,134.1z"/>
	</g>
	<polyline fill="none" stroke="#000000" stroke-width="6" points="145.3,169.5 51.5,4 4,4 4,247.1 471,247.1 471,4 423.2,4 
		329.1,169.5 	"/>
	<polygon fill="#8A7F81" stroke="#0F0F0F" stroke-width="3" stroke-miterlimit="10" points="130,164.8 344.4,164.8 344.4,196.1 
		130.1,196.1 	"/>
	<line fill="none" stroke="#0F0F0F" stroke-width="3" stroke-miterlimit="10" x1="130" y1="172.7" x2="343.9" y2="172.7"/>
	<line fill="none" stroke="#0F0F0F" stroke-width="3" stroke-miterlimit="10" x1="130" y1="180.5" x2="343.9" y2="180.5"/>
	<line fill="none" stroke="#0F0F0F" stroke-width="3" stroke-miterlimit="10" x1="130" y1="188.1" x2="343.9" y2="188.1"/>
	<line fill="none" stroke="#0F0F0F" stroke-width="2.9658" stroke-miterlimit="10" x1="150.4" y1="164.8" x2="150.4" y2="196.1"/>
	<line fill="none" stroke="#0F0F0F" stroke-width="2.9658" stroke-miterlimit="10" x1="145.3" y1="164.8" x2="145.3" y2="196.1"/>
	<line fill="none" stroke="#0F0F0F" stroke-width="2.9658" stroke-miterlimit="10" x1="140.2" y1="164.8" x2="140.2" y2="196.1"/>
	<line fill="none" stroke="#0F0F0F" stroke-width="2.9658" stroke-miterlimit="10" x1="135.1" y1="164.8" x2="135.1" y2="196.1"/>
	<line fill="none" stroke="#0F0F0F" stroke-width="2.9658" stroke-miterlimit="10" x1="155.5" y1="164.8" x2="155.5" y2="196.1"/>
	<line fill="none" stroke="#0F0F0F" stroke-width="2.9658" stroke-miterlimit="10" x1="165.7" y1="164.8" x2="165.7" y2="196.1"/>
	<line fill="none" stroke="#0F0F0F" stroke-width="2.9658" stroke-miterlimit="10" x1="175.9" y1="164.8" x2="175.9" y2="196.1"/>
	<line fill="none" stroke="#0F0F0F" stroke-width="2.9658" stroke-miterlimit="10" x1="186.2" y1="164.8" x2="186.2" y2="196.1"/>
	<line fill="none" stroke="#0F0F0F" stroke-width="2.9658" stroke-miterlimit="10" x1="196.4" y1="164.8" x2="196.4" y2="196.1"/>
	<line fill="none" stroke="#0F0F0F" stroke-width="2.9658" stroke-miterlimit="10" x1="206.6" y1="164.8" x2="206.6" y2="196.1"/>
	<line fill="none" stroke="#0F0F0F" stroke-width="2.9658" stroke-miterlimit="10" x1="216.8" y1="164.8" x2="216.8" y2="196.1"/>
	<line fill="none" stroke="#0F0F0F" stroke-width="2.9658" stroke-miterlimit="10" x1="227" y1="164.8" x2="227" y2="196.1"/>
	<line fill="none" stroke="#0F0F0F" stroke-width="2.9658" stroke-miterlimit="10" x1="237.2" y1="164.8" x2="237.2" y2="196.1"/>
	<line fill="none" stroke="#0F0F0F" stroke-width="2.9658" stroke-miterlimit="10" x1="247.4" y1="164.8" x2="247.4" y2="196.1"/>
	<line fill="none" stroke="#0F0F0F" stroke-width="2.9658" stroke-miterlimit="10" x1="257.6" y1="164.8" x2="257.6" y2="196.1"/>
	<line fill="none" stroke="#0F0F0F" stroke-width="2.9658" stroke-miterlimit="10" x1="267.8" y1="164.8" x2="267.8" y2="196.1"/>
	<line fill="none" stroke="#0F0F0F" stroke-width="2.9658" stroke-miterlimit="10" x1="278.1" y1="164.8" x2="278.1" y2="196.1"/>
	<line fill="none" stroke="#0F0F0F" stroke-width="2.9658" stroke-miterlimit="10" x1="288.3" y1="164.8" x2="288.3" y2="196.1"/>
	<line fill="none" stroke="#0F0F0F" stroke-width="2.9658" stroke-miterlimit="10" x1="298.5" y1="164.8" x2="298.5" y2="196.1"/>
	<line fill="none" stroke="#0F0F0F" stroke-width="2.9658" stroke-miterlimit="10" x1="308.7" y1="164.8" x2="308.7" y2="196.1"/>
	<line fill="none" stroke="#0F0F0F" stroke-width="2.9658" stroke-miterlimit="10" x1="318.9" y1="164.8" x2="318.9" y2="196.1"/>
	<line fill="none" stroke="#0F0F0F" stroke-width="2.9658" stroke-miterlimit="10" x1="160.6" y1="164.8" x2="160.6" y2="196.1"/>
	<line fill="none" stroke="#0F0F0F" stroke-width="2.9658" stroke-miterlimit="10" x1="170.8" y1="164.8" x2="170.8" y2="196.1"/>
	<line fill="none" stroke="#0F0F0F" stroke-width="2.9658" stroke-miterlimit="10" x1="181.1" y1="164.8" x2="181.1" y2="196.1"/>
	<line fill="none" stroke="#0F0F0F" stroke-width="2.9658" stroke-miterlimit="10" x1="191.3" y1="164.8" x2="191.3" y2="196.1"/>
	<line fill="none" stroke="#0F0F0F" stroke-width="2.9658" stroke-miterlimit="10" x1="201.5" y1="164.8" x2="201.5" y2="196.1"/>
	<line fill="none" stroke="#0F0F0F" stroke-width="2.9658" stroke-miterlimit="10" x1="211.7" y1="164.8" x2="211.7" y2="196.1"/>
	<line fill="none" stroke="#0F0F0F" stroke-width="2.9658" stroke-miterlimit="10" x1="221.9" y1="164.8" x2="221.9" y2="196.1"/>
	<line fill="none" stroke="#0F0F0F" stroke-width="2.9658" stroke-miterlimit="10" x1="232.1" y1="164.8" x2="232.1" y2="196.1"/>
	<line fill="none" stroke="#0F0F0F" stroke-width="2.9658" stroke-miterlimit="10" x1="242.3" y1="164.8" x2="242.3" y2="196.1"/>
	<line fill="none" stroke="#0F0F0F" stroke-width="2.9658" stroke-miterlimit="10" x1="252.5" y1="164.8" x2="252.5" y2="196.1"/>
	<line fill="none" stroke="#0F0F0F" stroke-width="2.9658" stroke-miterlimit="10" x1="262.7" y1="164.8" x2="262.7" y2="196.1"/>
	<line fill="none" stroke="#0F0F0F" stroke-width="2.9658" stroke-miterlimit="10" x1="272.9" y1="164.8" x2="272.9" y2="196.1"/>
	<line fill="none" stroke="#0F0F0F" stroke-width="2.9658" stroke-miterlimit="10" x1="283.2" y1="164.8" x2="283.2" y2="196.1"/>
	<line fill="none" stroke="#0F0F0F" stroke-width="2.9658" stroke-miterlimit="10" x1="293.4" y1="164.8" x2="293.4" y2="196.1"/>
	<line fill="none" stroke="#0F0F0F" stroke-width="2.9658" stroke-miterlimit="10" x1="303.6" y1="164.8" x2="303.6" y2="196.1"/>
	<line fill="none" stroke="#0F0F0F" stroke-width="2.9658" stroke-miterlimit="10" x1="313.8" y1="164.8" x2="313.8" y2="196.1"/>
	<line fill="none" stroke="#0F0F0F" stroke-width="2.9658" stroke-miterlimit="10" x1="324" y1="164.8" x2="324" y2="196.1"/>
	<line fill="none" stroke="#0F0F0F" stroke-width="2.9658" stroke-miterlimit="10" x1="329.1" y1="164.8" x2="329.1" y2="196.1"/>
	<line fill="none" stroke="#0F0F0F" stroke-width="2.9658" stroke-miterlimit="10" x1="334.2" y1="164.8" x2="334.2" y2="196.1"/>
	<line fill="none" stroke="#0F0F0F" stroke-width="2.9658" stroke-miterlimit="10" x1="339.3" y1="164.8" x2="339.3" y2="196.1"/>
	<g>
		<path fill="none" stroke="#0F0F0F" stroke-width="1.263" stroke-miterlimit="10" d="M159.3,114.4c0,4.3-3.5,7.8-7.8,7.8
			c-4.3,0-7.8-3.5-7.8-7.8c0-4.3,3.5-7.8,7.8-7.8C155.8,106.6,159.3,110.1,159.3,114.4z"/>
		<path fill="none" stroke="#0F0F0F" stroke-width="1.263" stroke-miterlimit="10" d="M162.2,114.4c0,5.9-4.8,10.7-10.7,10.7
			c-5.9,0-10.7-4.8-10.7-10.7c0-5.9,4.8-10.7,10.7-10.7C157.4,103.7,162.2,108.5,162.2,114.4z"/>
		<path fill="#0F0F0F" stroke="#0F0F0F" stroke-width="1.263" stroke-miterlimit="10" d="M154.5,114.4c0,1.7-1.4,3-3,3
			c-1.7,0-3-1.4-3-3c0-1.7,1.4-3,3-3C153.1,111.4,154.5,112.8,154.5,114.4z"/>
	</g>
	<g>
		<path fill="none" stroke="#0F0F0F" stroke-width="1.263" stroke-miterlimit="10" d="M137.8,114.4c0,4.3-3.5,7.8-7.8,7.8
			c-4.3,0-7.8-3.5-7.8-7.8c0-4.3,3.5-7.8,7.8-7.8C134.3,106.6,137.8,110.1,137.8,114.4z"/>
		<path fill="none" stroke="#0F0F0F" stroke-width="1.263" stroke-miterlimit="10" d="M140.7,114.4c0,5.9-4.8,10.7-10.7,10.7
			c-5.9,0-10.7-4.8-10.7-10.7c0-5.9,4.8-10.7,10.7-10.7C135.9,103.7,140.7,108.5,140.7,114.4z"/>
		<path fill="#0F0F0F" stroke="#0F0F0F" stroke-width="1.263" stroke-miterlimit="10" d="M133,114.4c0,1.7-1.4,3-3,3
			c-1.7,0-3-1.4-3-3c0-1.7,1.4-3,3-3C131.7,111.4,133,112.8,133,114.4z"/>
	</g>
	<g>
		<path fill="none" stroke="#0F0F0F" stroke-width="1.263" stroke-miterlimit="10" d="M180.7,114.4c0,4.3-3.5,7.8-7.8,7.8
			c-4.3,0-7.8-3.5-7.8-7.8c0-4.3,3.5-7.8,7.8-7.8C177.2,106.6,180.7,110.1,180.7,114.4z"/>
		<path fill="none" stroke="#0F0F0F" stroke-width="1.263" stroke-miterlimit="10" d="M183.6,114.4c0,5.9-4.8,10.7-10.7,10.7
			c-5.9,0-10.7-4.8-10.7-10.7c0-5.9,4.8-10.7,10.7-10.7C178.8,103.7,183.6,108.5,183.6,114.4z"/>
		<path fill="#0F0F0F" stroke="#0F0F0F" stroke-width="1.263" stroke-miterlimit="10" d="M175.9,114.4c0,1.7-1.4,3-3,3
			c-1.7,0-3-1.4-3-3c0-1.7,1.4-3,3-3C174.6,111.4,175.9,112.8,175.9,114.4z"/>
	</g>
	<g>
		<path fill="none" stroke="#0F0F0F" stroke-width="1.263" stroke-miterlimit="10" d="M202.2,114.4c0,4.3-3.5,7.8-7.8,7.8
			s-7.8-3.5-7.8-7.8c0-4.3,3.5-7.8,7.8-7.8S202.2,110.1,202.2,114.4z"/>
		<path fill="none" stroke="#0F0F0F" stroke-width="1.263" stroke-miterlimit="10" d="M205,114.4c0,5.9-4.8,10.7-10.7,10.7
			c-5.9,0-10.7-4.8-10.7-10.7c0-5.9,4.8-10.7,10.7-10.7C200.2,103.7,205,108.5,205,114.4z"/>
		<path fill="#0F0F0F" stroke="#0F0F0F" stroke-width="1.263" stroke-miterlimit="10" d="M197.4,114.4c0,1.7-1.4,3-3,3
			c-1.7,0-3-1.4-3-3c0-1.7,1.4-3,3-3C196,111.4,197.4,112.8,197.4,114.4z"/>
	</g>
	<g>
		<path fill="none" stroke="#0F0F0F" stroke-width="1.263" stroke-miterlimit="10" d="M223.6,114.4c0,4.3-3.5,7.8-7.8,7.8
			c-4.3,0-7.8-3.5-7.8-7.8c0-4.3,3.5-7.8,7.8-7.8C220.1,106.6,223.6,110.1,223.6,114.4z"/>
		<path fill="none" stroke="#0F0F0F" stroke-width="1.263" stroke-miterlimit="10" d="M226.5,114.4c0,5.9-4.8,10.7-10.7,10.7
			c-5.9,0-10.7-4.8-10.7-10.7c0-5.9,4.8-10.7,10.7-10.7C221.7,103.7,226.5,108.5,226.5,114.4z"/>
		<path fill="#0F0F0F" stroke="#0F0F0F" stroke-width="1.263" stroke-miterlimit="10" d="M218.8,114.4c0,1.7-1.4,3-3,3s-3-1.4-3-3
			c0-1.7,1.4-3,3-3S218.8,112.8,218.8,114.4z"/>
	</g>
	<g>
		<path fill="none" stroke="#0F0F0F" stroke-width="1.263" stroke-miterlimit="10" d="M245,114.4c0,4.3-3.5,7.8-7.8,7.8
			c-4.3,0-7.8-3.5-7.8-7.8c0-4.3,3.5-7.8,7.8-7.8C241.5,106.6,245,110.1,245,114.4z"/>
		<path fill="none" stroke="#0F0F0F" stroke-width="1.263" stroke-miterlimit="10" d="M247.9,114.4c0,5.9-4.8,10.7-10.7,10.7
			c-5.9,0-10.7-4.8-10.7-10.7c0-5.9,4.8-10.7,10.7-10.7C243.1,103.7,247.9,108.5,247.9,114.4z"/>
		<path fill="#0F0F0F" stroke="#0F0F0F" stroke-width="1.263" stroke-miterlimit="10" d="M240.2,114.4c0,1.7-1.4,3-3,3s-3-1.4-3-3
			c0-1.7,1.4-3,3-3S240.2,112.8,240.2,114.4z"/>
	</g>
	<g>
		<path fill="none" stroke="#0F0F0F" stroke-width="1.263" stroke-miterlimit="10" d="M266.5,114.4c0,4.3-3.5,7.8-7.8,7.8
			s-7.8-3.5-7.8-7.8c0-4.3,3.5-7.8,7.8-7.8S266.5,110.1,266.5,114.4z"/>
		<path fill="none" stroke="#0F0F0F" stroke-width="1.263" stroke-miterlimit="10" d="M269.4,114.4c0,5.9-4.8,10.7-10.7,10.7
			c-5.9,0-10.7-4.8-10.7-10.7c0-5.9,4.8-10.7,10.7-10.7C264.6,103.7,269.4,108.5,269.4,114.4z"/>
		<path fill="#0F0F0F" stroke="#0F0F0F" stroke-width="1.263" stroke-miterlimit="10" d="M261.7,114.4c0,1.7-1.4,3-3,3
			c-1.7,0-3-1.4-3-3c0-1.7,1.4-3,3-3C260.3,111.4,261.7,112.8,261.7,114.4z"/>
	</g>
	<g>
		<path fill="none" stroke="#0F0F0F" stroke-width="1.263" stroke-miterlimit="10" d="M287.9,114.4c0,4.3-3.5,7.8-7.8,7.8
			c-4.3,0-7.8-3.5-7.8-7.8c0-4.3,3.5-7.8,7.8-7.8C284.4,106.6,287.9,110.1,287.9,114.4z"/>
		<path fill="none" stroke="#0F0F0F" stroke-width="1.263" stroke-miterlimit="10" d="M290.8,114.4c0,5.9-4.8,10.7-10.7,10.7
			c-5.9,0-10.7-4.8-10.7-10.7c0-5.9,4.8-10.7,10.7-10.7C286,103.7,290.8,108.5,290.8,114.4z"/>
		<path fill="#0F0F0F" stroke="#0F0F0F" stroke-width="1.263" stroke-miterlimit="10" d="M283.1,114.4c0,1.7-1.4,3-3,3s-3-1.4-3-3
			c0-1.7,1.4-3,3-3S283.1,112.8,283.1,114.4z"/>
	</g>
	<g>
		<path fill="none" stroke="#0F0F0F" stroke-width="1.263" stroke-miterlimit="10" d="M309.4,114.4c0,4.3-3.5,7.8-7.8,7.8
			s-7.8-3.5-7.8-7.8c0-4.3,3.5-7.8,7.8-7.8S309.4,110.1,309.4,114.4z"/>
		<path fill="none" stroke="#0F0F0F" stroke-width="1.263" stroke-miterlimit="10" d="M312.2,114.4c0,5.9-4.8,10.7-10.7,10.7
			c-5.9,0-10.7-4.8-10.7-10.7c0-5.9,4.8-10.7,10.7-10.7C307.4,103.7,312.2,108.5,312.2,114.4z"/>
		<path fill="#0F0F0F" stroke="#0F0F0F" stroke-width="1.263" stroke-miterlimit="10" d="M304.6,114.4c0,1.7-1.4,3-3,3
			c-1.7,0-3-1.4-3-3c0-1.7,1.4-3,3-3C303.2,111.4,304.6,112.8,304.6,114.4z"/>
	</g>
	<g>
		<path fill="none" stroke="#0F0F0F" stroke-width="1.263" stroke-miterlimit="10" d="M330.8,114.4c0,4.3-3.5,7.8-7.8,7.8
			c-4.3,0-7.8-3.5-7.8-7.8c0-4.3,3.5-7.8,7.8-7.8C327.3,106.6,330.8,110.1,330.8,114.4z"/>
		<path fill="none" stroke="#0F0F0F" stroke-width="1.263" stroke-miterlimit="10" d="M333.7,114.4c0,5.9-4.8,10.7-10.7,10.7
			c-5.9,0-10.7-4.8-10.7-10.7c0-5.9,4.8-10.7,10.7-10.7C328.9,103.7,333.7,108.5,333.7,114.4z"/>
		<path fill="#0F0F0F" stroke="#0F0F0F" stroke-width="1.263" stroke-miterlimit="10" d="M326,114.4c0,1.7-1.4,3-3,3
			c-1.7,0-3-1.4-3-3c0-1.7,1.4-3,3-3C324.6,111.4,326,112.8,326,114.4z"/>
	</g>
	<g>
		<path fill="none" stroke="#0F0F0F" stroke-width="1.263" stroke-miterlimit="10" d="M352.3,114.4c0,4.3-3.5,7.8-7.8,7.8
			c-4.3,0-7.8-3.5-7.8-7.8c0-4.3,3.5-7.8,7.8-7.8C348.7,106.6,352.3,110.1,352.3,114.4z"/>
		<path fill="none" stroke="#0F0F0F" stroke-width="1.263" stroke-miterlimit="10" d="M355.1,114.4c0,5.9-4.8,10.7-10.7,10.7
			c-5.9,0-10.7-4.8-10.7-10.7c0-5.9,4.8-10.7,10.7-10.7C350.3,103.7,355.1,108.5,355.1,114.4z"/>
		<path fill="#0F0F0F" stroke="#0F0F0F" stroke-width="1.263" stroke-miterlimit="10" d="M347.5,114.4c0,1.7-1.4,3-3,3
			c-1.7,0-3-1.4-3-3c0-1.7,1.4-3,3-3C346.1,111.4,347.5,112.8,347.5,114.4z"/>
	</g>
	<g>
		<path fill="none" stroke="#0F0F0F" stroke-width="1.263" stroke-miterlimit="10" d="M159.3,77.3c0,4.3-3.5,7.8-7.8,7.8
			c-4.3,0-7.8-3.5-7.8-7.8c0-4.3,3.5-7.8,7.8-7.8C155.8,69.5,159.3,73,159.3,77.3z"/>
		<path fill="none" stroke="#0F0F0F" stroke-width="1.263" stroke-miterlimit="10" d="M162.2,77.3c0,5.9-4.8,10.7-10.7,10.7
			c-5.9,0-10.7-4.8-10.7-10.7c0-5.9,4.8-10.7,10.7-10.7C157.4,66.6,162.2,71.4,162.2,77.3z"/>
		<path fill="#0F0F0F" stroke="#0F0F0F" stroke-width="1.263" stroke-miterlimit="10" d="M154.5,77.3c0,1.7-1.4,3-3,3
			c-1.7,0-3-1.4-3-3c0-1.7,1.4-3,3-3C153.1,74.3,154.5,75.6,154.5,77.3z"/>
	</g>
	<g>
		<path fill="none" stroke="#0F0F0F" stroke-width="1.263" stroke-miterlimit="10" d="M137.8,77.3c0,4.3-3.5,7.8-7.8,7.8
			c-4.3,0-7.8-3.5-7.8-7.8c0-4.3,3.5-7.8,7.8-7.8C134.3,69.5,137.8,73,137.8,77.3z"/>
		<path fill="none" stroke="#0F0F0F" stroke-width="1.263" stroke-miterlimit="10" d="M140.7,77.3c0,5.9-4.8,10.7-10.7,10.7
			c-5.9,0-10.7-4.8-10.7-10.7c0-5.9,4.8-10.7,10.7-10.7C135.9,66.6,140.7,71.4,140.7,77.3z"/>
		<path fill="#0F0F0F" stroke="#0F0F0F" stroke-width="1.263" stroke-miterlimit="10" d="M133,77.3c0,1.7-1.4,3-3,3
			c-1.7,0-3-1.4-3-3c0-1.7,1.4-3,3-3C131.7,74.3,133,75.6,133,77.3z"/>
	</g>
	<g>
		<path fill="none" stroke="#0F0F0F" stroke-width="1.263" stroke-miterlimit="10" d="M116.4,77.3c0,4.3-3.5,7.8-7.8,7.8
			c-4.3,0-7.8-3.5-7.8-7.8c0-4.3,3.5-7.8,7.8-7.8C112.9,69.5,116.4,73,116.4,77.3z"/>
		<path fill="none" stroke="#0F0F0F" stroke-width="1.263" stroke-miterlimit="10" d="M119.3,77.3c0,5.9-4.8,10.7-10.7,10.7
			c-5.9,0-10.7-4.8-10.7-10.7c0-5.9,4.8-10.7,10.7-10.7C114.5,66.6,119.3,71.4,119.3,77.3z"/>
		<path fill="#0F0F0F" stroke="#0F0F0F" stroke-width="1.263" stroke-miterlimit="10" d="M111.6,77.3c0,1.7-1.4,3-3,3
			c-1.7,0-3-1.4-3-3c0-1.7,1.4-3,3-3C110.2,74.3,111.6,75.6,111.6,77.3z"/>
	</g>
	<g>
		<path fill="none" stroke="#0F0F0F" stroke-width="1.263" stroke-miterlimit="10" d="M180.7,77.3c0,4.3-3.5,7.8-7.8,7.8
			c-4.3,0-7.8-3.5-7.8-7.8c0-4.3,3.5-7.8,7.8-7.8C177.2,69.5,180.7,73,180.7,77.3z"/>
		<path fill="none" stroke="#0F0F0F" stroke-width="1.263" stroke-miterlimit="10" d="M183.6,77.3c0,5.9-4.8,10.7-10.7,10.7
			c-5.9,0-10.7-4.8-10.7-10.7c0-5.9,4.8-10.7,10.7-10.7C178.8,66.6,183.6,71.4,183.6,77.3z"/>
		<path fill="#0F0F0F" stroke="#0F0F0F" stroke-width="1.263" stroke-miterlimit="10" d="M175.9,77.3c0,1.7-1.4,3-3,3
			c-1.7,0-3-1.4-3-3c0-1.7,1.4-3,3-3C174.6,74.3,175.9,75.6,175.9,77.3z"/>
	</g>
	<g>
		<path fill="none" stroke="#0F0F0F" stroke-width="1.263" stroke-miterlimit="10" d="M202.2,77.3c0,4.3-3.5,7.8-7.8,7.8
			s-7.8-3.5-7.8-7.8c0-4.3,3.5-7.8,7.8-7.8S202.2,73,202.2,77.3z"/>
		<path fill="none" stroke="#0F0F0F" stroke-width="1.263" stroke-miterlimit="10" d="M205,77.3c0,5.9-4.8,10.7-10.7,10.7
			c-5.9,0-10.7-4.8-10.7-10.7c0-5.9,4.8-10.7,10.7-10.7C200.2,66.6,205,71.4,205,77.3z"/>
		<path fill="#0F0F0F" stroke="#0F0F0F" stroke-width="1.263" stroke-miterlimit="10" d="M197.4,77.3c0,1.7-1.4,3-3,3
			c-1.7,0-3-1.4-3-3c0-1.7,1.4-3,3-3C196,74.3,197.4,75.6,197.4,77.3z"/>
	</g>
	<g>
		<path fill="none" stroke="#0F0F0F" stroke-width="1.263" stroke-miterlimit="10" d="M223.6,77.3c0,4.3-3.5,7.8-7.8,7.8
			c-4.3,0-7.8-3.5-7.8-7.8c0-4.3,3.5-7.8,7.8-7.8C220.1,69.5,223.6,73,223.6,77.3z"/>
		<path fill="none" stroke="#0F0F0F" stroke-width="1.263" stroke-miterlimit="10" d="M226.5,77.3c0,5.9-4.8,10.7-10.7,10.7
			c-5.9,0-10.7-4.8-10.7-10.7c0-5.9,4.8-10.7,10.7-10.7C221.7,66.6,226.5,71.4,226.5,77.3z"/>
		<path fill="#0F0F0F" stroke="#0F0F0F" stroke-width="1.263" stroke-miterlimit="10" d="M218.8,77.3c0,1.7-1.4,3-3,3s-3-1.4-3-3
			c0-1.7,1.4-3,3-3S218.8,75.6,218.8,77.3z"/>
	</g>
	<g>
		<path fill="none" stroke="#0F0F0F" stroke-width="1.263" stroke-miterlimit="10" d="M245,77.3c0,4.3-3.5,7.8-7.8,7.8
			c-4.3,0-7.8-3.5-7.8-7.8c0-4.3,3.5-7.8,7.8-7.8C241.5,69.5,245,73,245,77.3z"/>
		<path fill="none" stroke="#0F0F0F" stroke-width="1.263" stroke-miterlimit="10" d="M247.9,77.3c0,5.9-4.8,10.7-10.7,10.7
			c-5.9,0-10.7-4.8-10.7-10.7c0-5.9,4.8-10.7,10.7-10.7C243.1,66.6,247.9,71.4,247.9,77.3z"/>
		<path fill="#0F0F0F" stroke="#0F0F0F" stroke-width="1.263" stroke-miterlimit="10" d="M240.2,77.3c0,1.7-1.4,3-3,3s-3-1.4-3-3
			c0-1.7,1.4-3,3-3S240.2,75.6,240.2,77.3z"/>
	</g>
	<g>
		<path fill="none" stroke="#0F0F0F" stroke-width="1.263" stroke-miterlimit="10" d="M266.5,77.3c0,4.3-3.5,7.8-7.8,7.8
			s-7.8-3.5-7.8-7.8c0-4.3,3.5-7.8,7.8-7.8S266.5,73,266.5,77.3z"/>
		<path fill="none" stroke="#0F0F0F" stroke-width="1.263" stroke-miterlimit="10" d="M269.4,77.3c0,5.9-4.8,10.7-10.7,10.7
			c-5.9,0-10.7-4.8-10.7-10.7c0-5.9,4.8-10.7,10.7-10.7C264.6,66.6,269.4,71.4,269.4,77.3z"/>
		<path fill="#0F0F0F" stroke="#0F0F0F" stroke-width="1.263" stroke-miterlimit="10" d="M261.7,77.3c0,1.7-1.4,3-3,3
			c-1.7,0-3-1.4-3-3c0-1.7,1.4-3,3-3C260.3,74.3,261.7,75.6,261.7,77.3z"/>
	</g>
	<g>
		<path fill="none" stroke="#0F0F0F" stroke-width="1.263" stroke-miterlimit="10" d="M287.9,77.3c0,4.3-3.5,7.8-7.8,7.8
			c-4.3,0-7.8-3.5-7.8-7.8c0-4.3,3.5-7.8,7.8-7.8C284.4,69.5,287.9,73,287.9,77.3z"/>
		<path fill="none" stroke="#0F0F0F" stroke-width="1.263" stroke-miterlimit="10" d="M290.8,77.3c0,5.9-4.8,10.7-10.7,10.7
			c-5.9,0-10.7-4.8-10.7-10.7c0-5.9,4.8-10.7,10.7-10.7C286,66.6,290.8,71.4,290.8,77.3z"/>
		<path fill="#0F0F0F" stroke="#0F0F0F" stroke-width="1.263" stroke-miterlimit="10" d="M283.1,77.3c0,1.7-1.4,3-3,3s-3-1.4-3-3
			c0-1.7,1.4-3,3-3S283.1,75.6,283.1,77.3z"/>
	</g>
	<g>
		<path fill="none" stroke="#0F0F0F" stroke-width="1.263" stroke-miterlimit="10" d="M309.4,77.3c0,4.3-3.5,7.8-7.8,7.8
			s-7.8-3.5-7.8-7.8c0-4.3,3.5-7.8,7.8-7.8S309.4,73,309.4,77.3z"/>
		<path fill="none" stroke="#0F0F0F" stroke-width="1.263" stroke-miterlimit="10" d="M312.2,77.3c0,5.9-4.8,10.7-10.7,10.7
			c-5.9,0-10.7-4.8-10.7-10.7c0-5.9,4.8-10.7,10.7-10.7C307.4,66.6,312.2,71.4,312.2,77.3z"/>
		<path fill="#0F0F0F" stroke="#0F0F0F" stroke-width="1.263" stroke-miterlimit="10" d="M304.6,77.3c0,1.7-1.4,3-3,3
			c-1.7,0-3-1.4-3-3c0-1.7,1.4-3,3-3C303.2,74.3,304.6,75.6,304.6,77.3z"/>
	</g>
	<g>
		<path fill="none" stroke="#0F0F0F" stroke-width="1.263" stroke-miterlimit="10" d="M330.8,77.3c0,4.3-3.5,7.8-7.8,7.8
			c-4.3,0-7.8-3.5-7.8-7.8c0-4.3,3.5-7.8,7.8-7.8C327.3,69.5,330.8,73,330.8,77.3z"/>
		<path fill="none" stroke="#0F0F0F" stroke-width="1.263" stroke-miterlimit="10" d="M333.7,77.3c0,5.9-4.8,10.7-10.7,10.7
			c-5.9,0-10.7-4.8-10.7-10.7c0-5.9,4.8-10.7,10.7-10.7C328.9,66.6,333.7,71.4,333.7,77.3z"/>
		<path fill="#0F0F0F" stroke="#0F0F0F" stroke-width="1.263" stroke-miterlimit="10" d="M326,77.3c0,1.7-1.4,3-3,3
			c-1.7,0-3-1.4-3-3c0-1.7,1.4-3,3-3C324.6,74.3,326,75.6,326,77.3z"/>
	</g>
	<g>
		<path fill="none" stroke="#0F0F0F" stroke-width="1.263" stroke-miterlimit="10" d="M352.3,77.3c0,4.3-3.5,7.8-7.8,7.8
			c-4.3,0-7.8-3.5-7.8-7.8c0-4.3,3.5-7.8,7.8-7.8C348.7,69.5,352.3,73,352.3,77.3z"/>
		<path fill="none" stroke="#0F0F0F" stroke-width="1.263" stroke-miterlimit="10" d="M355.1,77.3c0,5.9-4.8,10.7-10.7,10.7
			c-5.9,0-10.7-4.8-10.7-10.7c0-5.9,4.8-10.7,10.7-10.7C350.3,66.6,355.1,71.4,355.1,77.3z"/>
		<path fill="#0F0F0F" stroke="#0F0F0F" stroke-width="1.263" stroke-miterlimit="10" d="M347.5,77.3c0,1.7-1.4,3-3,3
			c-1.7,0-3-1.4-3-3c0-1.7,1.4-3,3-3C346.1,74.3,347.5,75.6,347.5,77.3z"/>
	</g>
	<g>
		<path fill="none" stroke="#0F0F0F" stroke-width="1.263" stroke-miterlimit="10" d="M373.8,77.3c0,4.3-3.5,7.8-7.8,7.8
			s-7.8-3.5-7.8-7.8c0-4.3,3.5-7.8,7.8-7.8S373.8,73,373.8,77.3z"/>
		<path fill="none" stroke="#0F0F0F" stroke-width="1.263" stroke-miterlimit="10" d="M376.7,77.3c0,5.9-4.8,10.7-10.7,10.7
			c-5.9,0-10.7-4.8-10.7-10.7c0-5.9,4.8-10.7,10.7-10.7C371.8,66.6,376.7,71.4,376.7,77.3z"/>
		<path fill="#0F0F0F" stroke="#0F0F0F" stroke-width="1.263" stroke-miterlimit="10" d="M369,77.3c0,1.7-1.4,3-3,3
			c-1.7,0-3-1.4-3-3c0-1.7,1.4-3,3-3C367.6,74.3,369,75.6,369,77.3z"/>
	</g>
	<g>
		<circle fill="none" stroke="#0F0F0F" stroke-width="1.263" stroke-miterlimit="10" cx="140.7" cy="95.9" r="7.8"/>
		<path fill="none" stroke="#0F0F0F" stroke-width="1.263" stroke-miterlimit="10" d="M151.4,95.9c0,5.9-4.8,10.7-10.7,10.7
			c-5.9,0-10.7-4.8-10.7-10.7c0-5.9,4.8-10.7,10.7-10.7C146.6,85.2,151.4,90,151.4,95.9z"/>
		<path fill="#0F0F0F" stroke="#0F0F0F" stroke-width="1.263" stroke-miterlimit="10" d="M143.7,95.9c0,1.7-1.4,3-3,3
			c-1.7,0-3-1.4-3-3c0-1.7,1.4-3,3-3C142.4,92.8,143.7,94.2,143.7,95.9z"/>
	</g>
	<g>
		<circle fill="none" stroke="#0F0F0F" stroke-width="1.263" stroke-miterlimit="10" cx="119.3" cy="95.9" r="7.8"/>
		<path fill="none" stroke="#0F0F0F" stroke-width="1.263" stroke-miterlimit="10" d="M130,95.9c0,5.9-4.8,10.7-10.7,10.7
			c-5.9,0-10.7-4.8-10.7-10.7c0-5.9,4.8-10.7,10.7-10.7C125.2,85.2,130,90,130,95.9z"/>
		<path fill="#0F0F0F" stroke="#0F0F0F" stroke-width="1.263" stroke-miterlimit="10" d="M122.3,95.9c0,1.7-1.4,3-3,3
			c-1.7,0-3-1.4-3-3c0-1.7,1.4-3,3-3C120.9,92.8,122.3,94.2,122.3,95.9z"/>
	</g>
	<g>
		<path fill="none" stroke="#0F0F0F" stroke-width="1.263" stroke-miterlimit="10" d="M170,95.9c0,4.3-3.5,7.8-7.8,7.8
			c-4.3,0-7.8-3.5-7.8-7.8c0-4.3,3.5-7.8,7.8-7.8C166.5,88,170,91.5,170,95.9z"/>
		<path fill="none" stroke="#0F0F0F" stroke-width="1.263" stroke-miterlimit="10" d="M172.9,95.9c0,5.9-4.8,10.7-10.7,10.7
			c-5.9,0-10.7-4.8-10.7-10.7c0-5.9,4.8-10.7,10.7-10.7C168.1,85.2,172.9,90,172.9,95.9z"/>
		<path fill="#0F0F0F" stroke="#0F0F0F" stroke-width="1.263" stroke-miterlimit="10" d="M165.2,95.9c0,1.7-1.4,3-3,3
			c-1.7,0-3-1.4-3-3c0-1.7,1.4-3,3-3C163.8,92.8,165.2,94.2,165.2,95.9z"/>
	</g>
	<g>
		<circle fill="none" stroke="#0F0F0F" stroke-width="1.263" stroke-miterlimit="10" cx="183.6" cy="95.9" r="7.8"/>
		<path fill="none" stroke="#0F0F0F" stroke-width="1.263" stroke-miterlimit="10" d="M194.3,95.9c0,5.9-4.8,10.7-10.7,10.7
			c-5.9,0-10.7-4.8-10.7-10.7c0-5.9,4.8-10.7,10.7-10.7C189.5,85.2,194.3,90,194.3,95.9z"/>
		<path fill="#0F0F0F" stroke="#0F0F0F" stroke-width="1.263" stroke-miterlimit="10" d="M186.6,95.9c0,1.7-1.4,3-3,3
			c-1.7,0-3-1.4-3-3c0-1.7,1.4-3,3-3C185.3,92.8,186.6,94.2,186.6,95.9z"/>
	</g>
	<g>
		<circle fill="none" stroke="#0F0F0F" stroke-width="1.263" stroke-miterlimit="10" cx="205" cy="95.9" r="7.8"/>
		<path fill="none" stroke="#0F0F0F" stroke-width="1.263" stroke-miterlimit="10" d="M215.8,95.9c0,5.9-4.8,10.7-10.7,10.7
			c-5.9,0-10.7-4.8-10.7-10.7c0-5.9,4.8-10.7,10.7-10.7C211,85.2,215.8,90,215.8,95.9z"/>
		<path fill="#0F0F0F" stroke="#0F0F0F" stroke-width="1.263" stroke-miterlimit="10" d="M208.1,95.9c0,1.7-1.4,3-3,3s-3-1.4-3-3
			c0-1.7,1.4-3,3-3S208.1,94.2,208.1,95.9z"/>
	</g>
	<g>
		<circle fill="none" stroke="#0F0F0F" stroke-width="1.263" stroke-miterlimit="10" cx="226.5" cy="95.9" r="7.8"/>
		<path fill="none" stroke="#0F0F0F" stroke-width="1.263" stroke-miterlimit="10" d="M237.2,95.9c0,5.9-4.8,10.7-10.7,10.7
			c-5.9,0-10.7-4.8-10.7-10.7c0-5.9,4.8-10.7,10.7-10.7C232.4,85.2,237.2,90,237.2,95.9z"/>
		<path fill="#0F0F0F" stroke="#0F0F0F" stroke-width="1.263" stroke-miterlimit="10" d="M229.5,95.9c0,1.7-1.4,3-3,3
			c-1.7,0-3-1.4-3-3c0-1.7,1.4-3,3-3C228.2,92.8,229.5,94.2,229.5,95.9z"/>
	</g>
	<g>
		<path fill="none" stroke="#0F0F0F" stroke-width="1.263" stroke-miterlimit="10" d="M255.8,95.9c0,4.3-3.5,7.8-7.8,7.8
			c-4.3,0-7.8-3.5-7.8-7.8c0-4.3,3.5-7.8,7.8-7.8C252.3,88,255.8,91.5,255.8,95.9z"/>
		<path fill="none" stroke="#0F0F0F" stroke-width="1.263" stroke-miterlimit="10" d="M258.6,95.9c0,5.9-4.8,10.7-10.7,10.7
			c-5.9,0-10.7-4.8-10.7-10.7c0-5.9,4.8-10.7,10.7-10.7C253.8,85.2,258.6,90,258.6,95.9z"/>
		<path fill="#0F0F0F" stroke="#0F0F0F" stroke-width="1.263" stroke-miterlimit="10" d="M251,95.9c0,1.7-1.4,3-3,3
			c-1.7,0-3-1.4-3-3c0-1.7,1.4-3,3-3C249.6,92.8,251,94.2,251,95.9z"/>
	</g>
	<g>
		<circle fill="none" stroke="#0F0F0F" stroke-width="1.263" stroke-miterlimit="10" cx="269.4" cy="95.9" r="7.8"/>
		<path fill="none" stroke="#0F0F0F" stroke-width="1.263" stroke-miterlimit="10" d="M280.1,95.9c0,5.9-4.8,10.7-10.7,10.7
			c-5.9,0-10.7-4.8-10.7-10.7c0-5.9,4.8-10.7,10.7-10.7C275.3,85.2,280.1,90,280.1,95.9z"/>
		<path fill="#0F0F0F" stroke="#0F0F0F" stroke-width="1.263" stroke-miterlimit="10" d="M272.4,95.9c0,1.7-1.4,3-3,3
			c-1.7,0-3-1.4-3-3c0-1.7,1.4-3,3-3C271,92.8,272.4,94.2,272.4,95.9z"/>
	</g>
	<g>
		<circle fill="none" stroke="#0F0F0F" stroke-width="1.263" stroke-miterlimit="10" cx="290.8" cy="95.9" r="7.8"/>
		<path fill="none" stroke="#0F0F0F" stroke-width="1.263" stroke-miterlimit="10" d="M301.5,95.9c0,5.9-4.8,10.7-10.7,10.7
			c-5.9,0-10.7-4.8-10.7-10.7c0-5.9,4.8-10.7,10.7-10.7C296.7,85.2,301.5,90,301.5,95.9z"/>
		<path fill="#0F0F0F" stroke="#0F0F0F" stroke-width="1.263" stroke-miterlimit="10" d="M293.8,95.9c0,1.7-1.4,3-3,3
			c-1.7,0-3-1.4-3-3c0-1.7,1.4-3,3-3C292.5,92.8,293.8,94.2,293.8,95.9z"/>
	</g>
	<g>
		<circle fill="none" stroke="#0F0F0F" stroke-width="1.263" stroke-miterlimit="10" cx="312.2" cy="95.9" r="7.8"/>
		<path fill="none" stroke="#0F0F0F" stroke-width="1.263" stroke-miterlimit="10" d="M323,95.9c0,5.9-4.8,10.7-10.7,10.7
			s-10.7-4.8-10.7-10.7c0-5.9,4.8-10.7,10.7-10.7S323,90,323,95.9z"/>
		<path fill="#0F0F0F" stroke="#0F0F0F" stroke-width="1.263" stroke-miterlimit="10" d="M315.3,95.9c0,1.7-1.4,3-3,3
			c-1.7,0-3-1.4-3-3c0-1.7,1.4-3,3-3C313.9,92.8,315.3,94.2,315.3,95.9z"/>
	</g>
	<g>
		<path fill="none" stroke="#0F0F0F" stroke-width="1.263" stroke-miterlimit="10" d="M341.5,95.9c0,4.3-3.5,7.8-7.8,7.8
			c-4.3,0-7.8-3.5-7.8-7.8c0-4.3,3.5-7.8,7.8-7.8C338,88,341.5,91.5,341.5,95.9z"/>
		<path fill="none" stroke="#0F0F0F" stroke-width="1.263" stroke-miterlimit="10" d="M344.4,95.9c0,5.9-4.8,10.7-10.7,10.7
			c-5.9,0-10.7-4.8-10.7-10.7c0-5.9,4.8-10.7,10.7-10.7C339.6,85.2,344.4,90,344.4,95.9z"/>
		<path fill="#0F0F0F" stroke="#0F0F0F" stroke-width="1.263" stroke-miterlimit="10" d="M336.7,95.9c0,1.7-1.4,3-3,3s-3-1.4-3-3
			c0-1.7,1.4-3,3-3S336.7,94.2,336.7,95.9z"/>
	</g>
	<g>
		<path fill="none" stroke="#0F0F0F" stroke-width="1.263" stroke-miterlimit="10" d="M363,95.9c0,4.3-3.5,7.8-7.8,7.8
			c-4.3,0-7.8-3.5-7.8-7.8c0-4.3,3.5-7.8,7.8-7.8C359.5,88,363,91.5,363,95.9z"/>
		<path fill="none" stroke="#0F0F0F" stroke-width="1.263" stroke-miterlimit="10" d="M365.9,95.9c0,5.9-4.8,10.7-10.7,10.7
			c-5.9,0-10.7-4.8-10.7-10.7c0-5.9,4.8-10.7,10.7-10.7C361.1,85.2,365.9,90,365.9,95.9z"/>
		<path fill="#0F0F0F" stroke="#0F0F0F" stroke-width="1.263" stroke-miterlimit="10" d="M358.2,95.9c0,1.7-1.4,3-3,3s-3-1.4-3-3
			c0-1.7,1.4-3,3-3S358.2,94.2,358.2,95.9z"/>
	</g>
	<path d="M388.7,57.4C388.7,57.4,388.7,57.4,388.7,57.4C388.7,57.4,388.7,57.4,388.7,57.4c-1.6,0-3.2,0.4-4.8,1.1
		c-2,0.9-4,1.3-6,1.3c-2,0-4.1-0.4-6-1.3c-1.2-0.6-2.4-0.9-3.7-1c0,0-0.1,0-0.1,0v0c-0.3,0-0.6-0.1-0.9-0.1l0,0c0,0,0,0,0,0l-0.1,0
		c0,0,0,0,0,0c0,0,0,0,0,0c0,0,0,0,0,0c0,0,0,0,0,0c0,0,0,0,0,0c-1.6,0-3.2,0.4-4.7,1.1c-1.6,0.7-3.3,1.1-4.9,1.2v0
		c-0.4,0-0.7,0-1.1,0c-2,0-4.1-0.4-6-1.3c-1.5-0.7-3.2-1.1-4.8-1.1c0,0,0,0,0,0s0,0,0,0c-0.2,0-0.5,0-0.7,0v0c0,0,0,0-0.1,0
		c-0.3,0-0.5,0-0.8,0.1c-0.2,0-0.3,0.1-0.5,0.1c-0.2,0-0.3,0.1-0.5,0.1c-0.8,0.2-1.5,0.4-2.3,0.8c-2,0.9-4,1.3-6,1.3
		c-2,0-4.1-0.4-6-1.3c-0.4-0.2-0.7-0.3-1.1-0.4c-0.1,0-0.1,0-0.2-0.1c-0.3-0.1-0.6-0.2-0.9-0.3c-0.1,0-0.2,0-0.3-0.1
		c-0.3-0.1-0.6-0.1-0.9-0.2c-0.1,0-0.2,0-0.2,0c0,0-0.1,0-0.1,0v0c-0.3,0-0.7-0.1-1-0.1h0c0,0,0,0,0,0l-0.1,0h0c0,0-0.1,0-0.1,0
		c0,0,0,0,0,0h0c0,0,0,0,0,0c0,0,0,0,0,0c-0.2,0-0.4,0-0.6,0c-0.2,0-0.4,0-0.6,0c-0.1,0-0.2,0-0.3,0c-1.1,0.2-2.2,0.5-3.2,0.9
		c-0.9,0.4-1.8,0.7-2.7,0.9c-0.3,0.1-0.6,0.1-0.9,0.2c0,0,0,0,0,0c-0.4,0.1-0.8,0.1-1.2,0.1v0c-0.4,0-0.8,0.1-1.2,0.1
		c-2,0-4.1-0.4-6-1.3c-1.5-0.7-3.2-1.1-4.8-1.1h0c0,0,0,0,0,0c-1.6,0-3.2,0.4-4.8,1.1c-2,0.9-4,1.3-6,1.3c-2,0-4.1-0.4-6-1.3
		c-1.2-0.6-2.4-0.9-3.7-1c0,0-0.1,0-0.1,0v0c-0.3,0-0.6-0.1-0.9-0.1l0,0c0,0,0,0,0,0l-0.1,0c0,0,0,0,0,0c0,0,0,0,0,0c0,0,0,0,0,0
		c0,0,0,0,0,0c0,0,0,0,0,0c-1.6,0-3.2,0.4-4.7,1.1c-1.6,0.7-3.3,1.1-4.9,1.2v0c-0.4,0-0.7,0-1.1,0c-2,0-4.1-0.4-6-1.3
		c-1.5-0.7-3.2-1.1-4.8-1.1h0c0,0,0,0,0,0c-1.6,0-3.2,0.4-4.8,1.1c-2,0.9-4,1.3-6,1.3c-2,0-4.1-0.4-6-1.3c-0.4-0.2-0.7-0.3-1.1-0.4
		c-0.1,0-0.1,0-0.2-0.1c-0.3-0.1-0.6-0.2-0.9-0.3c-0.1,0-0.2,0-0.3-0.1c-0.3-0.1-0.6-0.1-0.9-0.2c-0.1,0-0.2,0-0.2,0
		c0,0-0.1,0-0.1,0v0c-0.3,0-0.7-0.1-1-0.1l-0.1,0h0c0,0-0.1,0-0.1,0c0,0,0,0,0,0c0,0,0,0,0,0c0,0,0,0,0,0c0,0,0,0,0,0
		c-1.6,0-3.2,0.4-4.8,1.1c-1,0.4-2,0.8-3,1c0,0,0,0,0,0c-0.4,0.1-0.8,0.1-1.1,0.2c-0.2,0-0.4,0.1-0.5,0.1c-0.4,0-0.9,0.1-1.3,0.1
		c-2,0-4.1-0.4-6-1.3c-1.2-0.6-2.4-0.9-3.7-1c0,0-0.1,0-0.1,0v0c-0.3,0-0.6-0.1-0.9-0.1l0,0c0,0,0,0,0,0l-0.1,0c0,0,0,0,0,0
		c0,0,0,0,0,0c0,0,0,0,0,0c0,0,0,0,0,0c0,0,0,0,0,0c-1.6,0-3.2,0.4-4.7,1.1c-1.6,0.7-3.3,1.1-4.9,1.2v0c-0.4,0-0.7,0-1.1,0
		c-2,0-4.1-0.4-6-1.3c-1.5-0.7-3.2-1.1-4.8-1.1c0,0,0,0,0,0s0,0,0,0c-0.2,0-0.5,0-0.7,0v0c0,0,0,0-0.1,0c-0.3,0-0.6,0-0.8,0.1
		c-0.2,0-0.3,0.1-0.5,0.1c-0.2,0-0.3,0.1-0.5,0.1c-0.8,0.2-1.5,0.4-2.3,0.8c-2,0.9-4,1.3-6,1.3c-2,0-4.1-0.4-6-1.3
		c-0.4-0.2-0.7-0.3-1.1-0.4c-0.1,0-0.1,0-0.2-0.1c-0.3-0.1-0.6-0.2-0.9-0.3c-0.1,0-0.2,0-0.3-0.1c-0.3-0.1-0.6-0.1-0.9-0.2
		c-0.1,0-0.2,0-0.2,0c0,0-0.1,0-0.1,0v0c-0.3,0-0.7-0.1-1-0.1h0c0,0,0,0,0,0l-0.1,0h0c0,0-0.1,0-0.1,0c0,0,0,0,0,0s0,0,0,0
		c0,0,0,0,0,0c0,0,0,0,0,0c-0.2,0-0.4,0-0.6,0c-0.2,0-0.4,0-0.6,0c-0.1,0-0.2,0-0.3,0c-1.1,0.2-2.2,0.5-3.2,0.9
		c-0.9,0.4-1.8,0.7-2.7,0.9c-0.3,0.1-0.6,0.1-0.9,0.2c0,0,0,0,0,0c-0.4,0.1-0.8,0.1-1.2,0.1v0c-0.4,0-0.8,0.1-1.2,0.1
		c-2,0-4.1-0.4-6-1.3c-1.5-0.7-3.2-1.1-4.8-1.1c0,0,0,0,0,0c0,0,0,0,0,0c-1.6,0-3.2,0.4-4.7,1.1c-2,0.9-4,1.3-6,1.3
		c-2,0-4.1-0.4-6-1.3c-1.2-0.6-2.4-0.9-3.7-1c0,0-0.1,0-0.1,0v0c-0.3,0-0.6-0.1-0.9-0.1l0,0c0,0,0,0,0,0l-0.1,0c0,0,0,0,0,0
		c0,0,0,0,0,0c0,0,0,0,0,0c0,0,0,0,0,0c0,0,0,0,0,0c-1.6,0-3.2,0.4-4.7,1.1c-1.6,0.7-3.3,1.1-4.9,1.2v0c-0.4,0-0.7,0-1.1,0
		c-2,0-4.1-0.4-6-1.3c-1.5-0.7-3.2-1.1-4.8-1.1c0,0,0,0,0,0s0,0,0,0c-1.6,0-3.2,0.4-4.7,1.1c-2,0.9-4,1.3-6,1.3c-2,0-4.1-0.4-6-1.3
		c-0.4-0.2-0.7-0.3-1.1-0.4c-0.1,0-0.1,0-0.2-0.1c-0.3-0.1-0.6-0.2-0.9-0.3c-0.1,0-0.2,0-0.3-0.1c-0.3-0.1-0.6-0.1-0.9-0.2
		c-0.1,0-0.2,0-0.2,0c0,0-0.1,0-0.1,0v0c-0.3,0-0.7-0.1-1-0.1l-0.1,0h0c0,0-0.1,0-0.1,0c-0.3,0-0.7,0-1,0.1l1.9,4.4
		c0.1,0,0.2,0,0.3,0v0c0.8,0.1,1.5,0.2,2.3,0.4c0.8,0.2,1.8,0.5,2.8,1c1.3,0.6,2.8,0.9,4.2,1l0.5,0c0,0,0,0,0,0c0,0,0,0,0,0h0
		c0.2,0,0.4,0,0.5,0c0.2,0,0.4,0,0.6,0c0.1,0,0.1,0,0.2,0c1.1-0.1,2.2-0.4,3.2-0.9c1.9-0.9,4.1-1.4,6.2-1.4c2.1,0,4.3,0.5,6.2,1.4
		c1.5,0.6,3,1,4.6,1c0.6,0,1.2-0.1,1.9-0.2c0,0,0.1,0,0.1,0c0.9-0.2,1.8-0.4,2.7-0.8c0.1-0.1,0.3-0.1,0.4-0.2
		c0.3-0.1,0.6-0.3,0.9-0.4c0.3-0.1,0.6-0.2,0.9-0.3c0.2,0,0.3-0.1,0.5-0.1c0.4-0.1,0.8-0.2,1.2-0.2c0.1,0,0.1,0,0.2,0
		c0.4-0.1,0.9-0.1,1.4-0.1c0.1,0,0.2,0,0.2,0l0.1,0c0.1,0,0.3,0,0.4,0c0,0,0,0,0,0c0.5,0,0.9,0,1.3,0.1c0.2,0,0.4,0,0.6,0.1
		c0.1,0,0.2,0,0.3,0c0.3,0.1,0.6,0.1,1,0.2c0.1,0,0.2,0,0.2,0.1c0.8,0.2,1.7,0.5,2.6,0.9c1.1,0.5,2.3,0.8,3.6,0.9c0,0,0.1,0,0.1,0
		c0.2,0,0.3,0,0.5,0l0.5,0c0,0,0,0,0,0c0,0,0,0,0,0h0c0,0,0,0,0,0l0.1,0c1.5,0,3.1-0.3,4.6-1c1.7-0.8,3.7-1.3,5.5-1.4v0
		c0.2,0,0.4,0,0.6,0c2.1,0,4.3,0.5,6.2,1.4c1.5,0.6,3,1,4.6,1c0.4,0,0.8,0,1.2-0.1v0c1.2-0.1,2.4-0.4,3.5-0.9
		c1.7-0.8,3.5-1.2,5.5-1.3l0.3,0c0.1,0,0.3,0,0.4,0c0,0,0,0,0,0c2.1,0,4.2,0.5,6.2,1.4c0.3,0.1,0.6,0.2,0.8,0.3
		c0.1,0,0.3,0.1,0.4,0.1c0.2,0.1,0.3,0.1,0.5,0.1c0.2,0,0.3,0.1,0.5,0.1c0.2,0,0.4,0.1,0.6,0.1v0c0.1,0,0.1,0,0.2,0
		c0.1,0,0.2,0,0.3,0c0.3,0,0.6,0.1,0.9,0.1l0.6,0c0,0,0,0,0,0s0,0,0,0c0,0,0,0,0,0h0c0.2,0,0.4,0,0.5,0c0.2,0,0.4,0,0.6,0
		c0.1,0,0.1,0,0.2,0c1.1-0.1,2.2-0.4,3.2-0.9c1-0.4,2-0.8,3-1c0.3-0.1,0.6-0.1,0.9-0.2c0.2,0,0.3,0,0.5-0.1c0.4,0,0.8-0.1,1.1-0.1
		c0.2,0,0.5,0,0.7,0c2.1,0,4.3,0.5,6.2,1.4c1.5,0.6,3,1,4.6,1c0.6,0,1.2-0.1,1.9-0.2c0,0,0.1,0,0.1,0c0.9-0.2,1.8-0.4,2.7-0.8
		c0.1-0.1,0.3-0.1,0.4-0.2c0.3-0.1,0.6-0.3,0.9-0.4c0.3-0.1,0.6-0.2,0.9-0.3c0.2,0,0.3-0.1,0.5-0.1c0.4-0.1,0.8-0.2,1.2-0.2
		c0.1,0,0.1,0,0.2,0c0.4-0.1,0.9-0.1,1.4-0.1c0.1,0,0.2,0,0.2,0l0.1,0c0.1,0,0.3,0,0.4,0c0,0,0,0,0,0c0.5,0,0.9,0,1.3,0.1
		c0.2,0,0.4,0,0.6,0.1c0.1,0,0.2,0,0.3,0c0.3,0.1,0.6,0.1,1,0.2c0.1,0,0.2,0,0.2,0.1c0.8,0.2,1.7,0.5,2.6,0.9
		c1.1,0.5,2.3,0.8,3.6,0.9c0,0,0.1,0,0.1,0c0.2,0,0.3,0,0.5,0l0.5,0c0,0,0,0,0,0c0,0,0,0,0,0h0c0,0,0,0,0,0l0.1,0
		c0.5,0,0.9,0,1.4-0.1c0.3,0,0.6-0.1,0.9-0.1c0,0,0,0,0.1,0c0.8-0.2,1.5-0.4,2.3-0.7c1.7-0.8,3.5-1.2,5.5-1.3l0.3,0
		c0.1,0,0.2,0,0.4,0c2.1,0,4.2,0.5,6.1,1.4c0.8,0.3,1.5,0.6,2.3,0.7v0c0.7,0.1,1.3,0.2,2,0.3l0.5,0c0,0,0,0,0,0c0,0,0,0,0,0h0
		c0.2,0,0.4,0,0.5,0c0.2,0,0.4,0,0.6,0c0.1,0,0.1,0,0.2,0c1.1-0.1,2.2-0.4,3.2-0.9c1.9-0.9,4.1-1.4,6.2-1.4c2.1,0,4.3,0.5,6.2,1.4
		c1.5,0.6,3,1,4.6,1c0.6,0,1.2-0.1,1.9-0.2c0,0,0.1,0,0.1,0c0.9-0.2,1.8-0.4,2.7-0.8c0.1-0.1,0.3-0.1,0.4-0.2
		c0.3-0.1,0.6-0.3,0.9-0.4c0.3-0.1,0.6-0.2,0.9-0.3c0.2,0,0.3-0.1,0.5-0.1c0.4-0.1,0.8-0.2,1.2-0.2c0.1,0,0.1,0,0.2,0
		c0.4-0.1,0.9-0.1,1.4-0.1c0.1,0,0.2,0,0.2,0l0.1,0c0.1,0,0.3,0,0.4,0c0,0,0,0,0,0c0.5,0,0.9,0,1.3,0.1c0.2,0,0.4,0,0.6,0.1
		c0.1,0,0.2,0,0.3,0c0.3,0.1,0.7,0.1,1,0.2c0.1,0,0.2,0,0.2,0.1c0.8,0.2,1.7,0.5,2.6,0.9c1.1,0.5,2.3,0.8,3.6,0.9c0,0,0.1,0,0.1,0
		c0.2,0,0.3,0,0.5,0l0.5,0c0,0,0,0,0,0c0,0,0,0,0,0h0c0,0,0,0,0,0l0.1,0c1.5,0,3.1-0.3,4.6-1c1.7-0.8,3.7-1.3,5.5-1.4v0
		c0.2,0,0.4,0,0.6,0c2.1,0,4.3,0.5,6.2,1.4c1.5,0.6,3,1,4.6,1c0.4,0,0.8,0,1.2-0.1v0c1.2-0.1,2.4-0.4,3.5-0.9
		c1.7-0.8,3.5-1.2,5.5-1.3l0.3,0c0.1,0,0.3,0,0.4,0c0,0,0,0,0,0c2.1,0,4.2,0.5,6.2,1.4c0.3,0.1,0.6,0.2,0.8,0.3
		c0.1,0,0.3,0.1,0.4,0.1c0.2,0.1,0.3,0.1,0.5,0.1c0.2,0,0.3,0.1,0.5,0.1c0.2,0,0.4,0.1,0.6,0.1v0c0.1,0,0.1,0,0.2,0
		c0.1,0,0.2,0,0.3,0c0.3,0,0.6,0.1,0.9,0.1l0.6,0c0,0,0,0,0,0s0,0,0,0s0,0,0,0h0c0.2,0,0.4,0,0.5,0c0.2,0,0.4,0,0.6,0
		c0.1,0,0.1,0,0.2,0c1.1-0.1,2.2-0.4,3.2-0.9c1-0.4,2-0.8,3-1c0.3-0.1,0.6-0.1,0.9-0.2c0.2,0,0.3,0,0.5-0.1c0.4,0,0.8-0.1,1.1-0.1
		c0.2,0,0.5,0,0.7,0c2.1,0,4.3,0.5,6.2,1.4c1.5,0.6,3,1,4.6,1c0.6,0,1.2-0.1,1.9-0.2c0,0,0.1,0,0.1,0c0.9-0.2,1.8-0.4,2.7-0.8
		c0.1-0.1,0.3-0.1,0.4-0.2c0.3-0.1,0.6-0.3,0.9-0.4c0.3-0.1,0.6-0.2,0.9-0.3c0.2,0,0.3-0.1,0.5-0.1c0.4-0.1,0.8-0.2,1.2-0.2
		c0.1,0,0.1,0,0.2,0c0.4-0.1,0.9-0.1,1.4-0.1c0.1,0,0.2,0,0.2,0l0.1,0c0.1,0,0.3,0,0.4,0c0,0,0,0,0,0c0.4,0,0.9,0,1.3,0.1
		c0.2,0,0.4,0,0.6,0.1c0.1,0,0.2,0,0.3,0c0.3,0.1,0.7,0.1,1,0.2c0.1,0,0.2,0,0.2,0.1c0.8,0.2,1.7,0.5,2.6,0.9
		c1.1,0.5,2.3,0.8,3.6,0.9c0,0,0.1,0,0.1,0c0.2,0,0.3,0,0.5,0l0.5,0c0,0,0,0,0,0c0,0,0,0,0,0h0c0,0,0,0,0,0l0.1,0
		c1.5,0,3.1-0.3,4.6-1c1.7-0.8,3.7-1.3,5.5-1.4v0c0.2,0,0.4,0,0.6,0c0.4,0,0.8,0,1.2,0.1l2.2-4C391,57.5,389.8,57.4,388.7,57.4z"/>
</g>
</svg>
