<?xml version="1.0" encoding="utf-8"?>
<!DOCTYPE svg PUBLIC "-//W3C//DTD SVG 1.1//EN" "http://www.w3.org/Graphics/SVG/1.1/DTD/svg11.dtd">
<svg version="1.1" xmlns="http://www.w3.org/2000/svg" xmlns:xlink="http://www.w3.org/1999/xlink" x="0px" y="0px" width="465px"
	 height="22px" enable-background="new 0 0 465 22" xml:space="preserve">
<g>
	<g>
		<path fill="#8A7F81" stroke="#0F0F0F" stroke-width="1.0635" stroke-miterlimit="10" d="M451.4,7.3c3.1-2.4,7.6-1.9,10.1,1.3
			c2.4,3.1,1.8,7.6-1.3,10.1c-3.1,2.4-7.6,1.9-10.1-1.3C447.7,14.2,448.3,9.7,451.4,7.3z"/>
		<path fill="none" stroke="#0F0F0F" stroke-width="1.0635" stroke-miterlimit="10" d="M452.6,8.8c2.3-1.8,5.6-1.4,7.4,0.9
			c1.8,2.3,1.4,5.6-0.9,7.4c-2.3,1.8-5.6,1.3-7.4-0.9C449.9,13.9,450.3,10.6,452.6,8.8z"/>
		<path fill="#0F0F0F" stroke="#0F0F0F" stroke-width="1.3432" stroke-miterlimit="10" d="M454.6,11.4c0.9-0.7,2.2-0.5,2.9,0.4
			c0.7,0.9,0.5,2.2-0.4,2.9c-0.9,0.7-2.2,0.5-2.9-0.4C453.5,13.3,453.7,12,454.6,11.4z"/>
		<path fill="#8A7F81" stroke="#0F0F0F" stroke-width="1.0635" stroke-miterlimit="10" d="M422.7,7.3c3.1-2.4,7.6-1.9,10.1,1.3
			c2.4,3.1,1.8,7.6-1.3,10.1c-3.1,2.4-7.6,1.9-10.1-1.3C419,14.2,419.6,9.7,422.7,7.3z"/>
		<path fill="none" stroke="#0F0F0F" stroke-width="1.0635" stroke-miterlimit="10" d="M423.9,8.8c2.3-1.8,5.6-1.4,7.4,0.9
			c1.8,2.3,1.4,5.6-0.9,7.4c-2.3,1.8-5.6,1.3-7.4-0.9C421.2,13.9,421.6,10.6,423.9,8.8z"/>
		<path fill="#0F0F0F" stroke="#0F0F0F" stroke-width="1.3432" stroke-miterlimit="10" d="M425.9,11.4c0.9-0.7,2.2-0.5,2.9,0.4
			c0.7,0.9,0.5,2.2-0.4,2.9c-0.9,0.7-2.2,0.5-2.9-0.4C424.8,13.3,425,12,425.9,11.4z"/>
		<path fill="#8A7F81" stroke="#0F0F0F" stroke-width="1.0635" stroke-miterlimit="10" d="M437.1,7.3c3.1-2.4,7.6-1.9,10.1,1.3
			c2.4,3.1,1.8,7.6-1.3,10.1c-3.1,2.4-7.6,1.9-10.1-1.3C433.4,14.2,434,9.7,437.1,7.3z"/>
		<path fill="none" stroke="#0F0F0F" stroke-width="1.0635" stroke-miterlimit="10" d="M438.3,8.8c2.3-1.8,5.6-1.4,7.4,0.9
			c1.8,2.3,1.4,5.6-0.9,7.4c-2.3,1.8-5.6,1.3-7.4-0.9C435.6,13.9,436,10.6,438.3,8.8z"/>
		<path fill="#0F0F0F" stroke="#0F0F0F" stroke-width="1.3432" stroke-miterlimit="10" d="M440.2,11.4c0.9-0.7,2.2-0.5,2.9,0.4
			c0.7,0.9,0.5,2.2-0.4,2.9c-0.9,0.7-2.2,0.5-2.9-0.4C439.2,13.3,439.3,12,440.2,11.4z"/>
		<path fill="#8A7F81" stroke="#0F0F0F" stroke-width="1.0635" stroke-miterlimit="10" d="M408.4,7.3c3.1-2.4,7.6-1.9,10.1,1.3
			c2.4,3.1,1.8,7.6-1.3,10.1c-3.1,2.4-7.6,1.9-10.1-1.3C404.7,14.2,405.2,9.7,408.4,7.3z"/>
		<path fill="none" stroke="#0F0F0F" stroke-width="1.0635" stroke-miterlimit="10" d="M409.6,8.8c2.3-1.8,5.6-1.4,7.4,0.9
			c1.8,2.3,1.4,5.6-0.9,7.4c-2.3,1.8-5.6,1.3-7.4-0.9C406.8,13.9,407.3,10.6,409.6,8.8z"/>
		<path fill="#0F0F0F" stroke="#0F0F0F" stroke-width="1.3432" stroke-miterlimit="10" d="M411.5,11.4c0.9-0.7,2.2-0.5,2.9,0.4
			c0.7,0.9,0.5,2.2-0.4,2.9c-0.9,0.7-2.2,0.5-2.9-0.4C410.5,13.3,410.6,12,411.5,11.4z"/>
		<path fill="#8A7F81" stroke="#0F0F0F" stroke-width="1.0635" stroke-miterlimit="10" d="M394,7.3c3.1-2.4,7.6-1.9,10.1,1.3
			c2.4,3.1,1.8,7.6-1.3,10.1c-3.1,2.4-7.6,1.9-10.1-1.3C390.3,14.2,390.9,9.7,394,7.3z"/>
		<path fill="none" stroke="#0F0F0F" stroke-width="1.0635" stroke-miterlimit="10" d="M395.2,8.8c2.3-1.8,5.6-1.4,7.4,0.9
			c1.8,2.3,1.4,5.6-0.9,7.4c-2.3,1.8-5.6,1.3-7.4-0.9C392.5,13.9,392.9,10.6,395.2,8.8z"/>
		<path fill="#0F0F0F" stroke="#0F0F0F" stroke-width="1.3432" stroke-miterlimit="10" d="M397.2,11.4c0.9-0.7,2.2-0.5,2.9,0.4
			c0.7,0.9,0.5,2.2-0.4,2.9c-0.9,0.7-2.2,0.5-2.9-0.4C396.1,13.3,396.3,12,397.2,11.4z"/>
		<path fill="#8A7F81" stroke="#0F0F0F" stroke-width="1.0635" stroke-miterlimit="10" d="M379.7,7.3c3.1-2.4,7.6-1.9,10.1,1.3
			c2.4,3.1,1.8,7.6-1.3,10.1c-3.1,2.4-7.6,1.9-10.1-1.3C375.9,14.2,376.5,9.7,379.7,7.3z"/>
		<path fill="none" stroke="#0F0F0F" stroke-width="1.0635" stroke-miterlimit="10" d="M380.8,8.8c2.3-1.8,5.6-1.4,7.4,0.9
			c1.8,2.3,1.4,5.6-0.9,7.4c-2.3,1.8-5.6,1.3-7.4-0.9C378.1,13.9,378.5,10.6,380.8,8.8z"/>
		<path fill="#0F0F0F" stroke="#0F0F0F" stroke-width="1.3432" stroke-miterlimit="10" d="M382.8,11.4c0.9-0.7,2.2-0.5,2.9,0.4
			c0.7,0.9,0.5,2.2-0.4,2.9c-0.9,0.7-2.2,0.5-2.9-0.4C381.7,13.3,381.9,12,382.8,11.4z"/>
		<path fill="#8A7F81" stroke="#0F0F0F" stroke-width="1.0635" stroke-miterlimit="10" d="M365.3,7.3c3.1-2.4,7.6-1.9,10.1,1.3
			c2.4,3.1,1.8,7.6-1.3,10.1c-3.1,2.4-7.6,1.9-10.1-1.3C361.6,14.2,362.2,9.7,365.3,7.3z"/>
		<path fill="none" stroke="#0F0F0F" stroke-width="1.0635" stroke-miterlimit="10" d="M366.5,8.8c2.3-1.8,5.6-1.4,7.4,0.9
			c1.8,2.3,1.4,5.6-0.9,7.4c-2.3,1.8-5.6,1.3-7.4-0.9C363.8,13.9,364.2,10.6,366.5,8.8z"/>
		<path fill="#0F0F0F" stroke="#0F0F0F" stroke-width="1.3432" stroke-miterlimit="10" d="M368.4,11.4c0.9-0.7,2.2-0.5,2.9,0.4
			c0.7,0.9,0.5,2.2-0.4,2.9c-0.9,0.7-2.2,0.5-2.9-0.4C367.4,13.3,367.5,12,368.4,11.4z"/>
		<path fill="#8A7F81" stroke="#0F0F0F" stroke-width="1.0635" stroke-miterlimit="10" d="M350.9,7.3c3.1-2.4,7.6-1.9,10.1,1.3
			c2.4,3.1,1.8,7.6-1.3,10.1c-3.1,2.4-7.6,1.9-10.1-1.3C347.2,14.2,347.8,9.7,350.9,7.3z"/>
		<path fill="none" stroke="#0F0F0F" stroke-width="1.0635" stroke-miterlimit="10" d="M352.1,8.8c2.3-1.8,5.6-1.4,7.4,0.9
			c1.8,2.3,1.4,5.6-0.9,7.4c-2.3,1.8-5.6,1.3-7.4-0.9C349.4,13.9,349.8,10.6,352.1,8.8z"/>
		<path fill="#0F0F0F" stroke="#0F0F0F" stroke-width="1.3432" stroke-miterlimit="10" d="M354.1,11.4c0.9-0.7,2.2-0.5,2.9,0.4
			c0.7,0.9,0.5,2.2-0.4,2.9c-0.9,0.7-2.2,0.5-2.9-0.4C353,13.3,353.2,12,354.1,11.4z"/>
		<path fill="#8A7F81" stroke="#0F0F0F" stroke-width="1.0635" stroke-miterlimit="10" d="M336.6,7.3c3.1-2.4,7.6-1.9,10.1,1.3
			c2.4,3.1,1.8,7.6-1.3,10.1c-3.1,2.4-7.6,1.9-10.1-1.3C332.9,14.2,333.4,9.7,336.6,7.3z"/>
		<path fill="none" stroke="#0F0F0F" stroke-width="1.0635" stroke-miterlimit="10" d="M337.8,8.8c2.3-1.8,5.6-1.4,7.4,0.9
			c1.8,2.3,1.4,5.6-0.9,7.4c-2.3,1.8-5.6,1.3-7.4-0.9C335,13.9,335.5,10.6,337.8,8.8z"/>
		<path fill="#0F0F0F" stroke="#0F0F0F" stroke-width="1.3432" stroke-miterlimit="10" d="M339.7,11.4c0.9-0.7,2.2-0.5,2.9,0.4
			c0.7,0.9,0.5,2.2-0.4,2.9c-0.9,0.7-2.2,0.5-2.9-0.4C338.7,13.3,338.8,12,339.7,11.4z"/>
		<path fill="#8A7F81" stroke="#0F0F0F" stroke-width="1.0635" stroke-miterlimit="10" d="M322.2,7.3c3.1-2.4,7.6-1.9,10.1,1.3
			c2.4,3.1,1.8,7.6-1.3,10.1c-3.1,2.4-7.6,1.9-10.1-1.3C318.5,14.2,319.1,9.7,322.2,7.3z"/>
		<path fill="none" stroke="#0F0F0F" stroke-width="1.0635" stroke-miterlimit="10" d="M323.4,8.8c2.3-1.8,5.6-1.4,7.4,0.9
			c1.8,2.3,1.4,5.6-0.9,7.4c-2.3,1.8-5.6,1.3-7.4-0.9C320.7,13.9,321.1,10.6,323.4,8.8z"/>
		<path fill="#0F0F0F" stroke="#0F0F0F" stroke-width="1.3432" stroke-miterlimit="10" d="M325.4,11.4c0.9-0.7,2.2-0.5,2.9,0.4
			c0.7,0.9,0.5,2.2-0.4,2.9c-0.9,0.7-2.2,0.5-2.9-0.4C324.3,13.3,324.5,12,325.4,11.4z"/>
		<path fill="#8A7F81" stroke="#0F0F0F" stroke-width="1.0635" stroke-miterlimit="10" d="M307.9,7.3c3.1-2.4,7.6-1.9,10.1,1.3
			c2.4,3.1,1.8,7.6-1.3,10.1c-3.1,2.4-7.6,1.9-10.1-1.3C304.1,14.2,304.7,9.7,307.9,7.3z"/>
		<path fill="none" stroke="#0F0F0F" stroke-width="1.0635" stroke-miterlimit="10" d="M309,8.8c2.3-1.8,5.6-1.4,7.4,0.9
			c1.8,2.3,1.4,5.6-0.9,7.4c-2.3,1.8-5.6,1.3-7.4-0.9C306.3,13.9,306.7,10.6,309,8.8z"/>
		<path fill="#0F0F0F" stroke="#0F0F0F" stroke-width="1.3432" stroke-miterlimit="10" d="M311,11.4c0.9-0.7,2.2-0.5,2.9,0.4
			c0.7,0.9,0.5,2.2-0.4,2.9c-0.9,0.7-2.2,0.5-2.9-0.4C310,13.3,310.1,12,311,11.4z"/>
		<path fill="#8A7F81" stroke="#0F0F0F" stroke-width="1.0635" stroke-miterlimit="10" d="M293.5,7.3c3.1-2.4,7.7-1.9,10.1,1.3
			c2.4,3.1,1.8,7.6-1.3,10.1c-3.1,2.4-7.6,1.9-10.1-1.3C289.8,14.2,290.4,9.7,293.5,7.3z"/>
		<path fill="none" stroke="#0F0F0F" stroke-width="1.0635" stroke-miterlimit="10" d="M294.7,8.8c2.3-1.8,5.6-1.4,7.4,0.9
			c1.8,2.3,1.4,5.6-0.9,7.4c-2.3,1.8-5.6,1.3-7.4-0.9C292,13.9,292.4,10.6,294.7,8.8z"/>
		<path fill="#0F0F0F" stroke="#0F0F0F" stroke-width="1.3432" stroke-miterlimit="10" d="M296.6,11.4c0.9-0.7,2.2-0.5,2.9,0.4
			c0.7,0.9,0.5,2.2-0.4,2.9c-0.9,0.7-2.2,0.5-2.9-0.4C295.6,13.3,295.8,12,296.6,11.4z"/>
		<path fill="#8A7F81" stroke="#0F0F0F" stroke-width="1.0635" stroke-miterlimit="10" d="M279.1,7.3c3.1-2.4,7.6-1.9,10.1,1.3
			c2.4,3.1,1.8,7.6-1.3,10.1c-3.1,2.4-7.6,1.9-10.1-1.3C275.4,14.2,276,9.7,279.1,7.3z"/>
		<path fill="none" stroke="#0F0F0F" stroke-width="1.0635" stroke-miterlimit="10" d="M280.3,8.8c2.3-1.8,5.6-1.4,7.4,0.9
			c1.8,2.3,1.4,5.6-0.9,7.4c-2.3,1.8-5.6,1.3-7.4-0.9C277.6,13.9,278,10.6,280.3,8.8z"/>
		<path fill="#0F0F0F" stroke="#0F0F0F" stroke-width="1.3432" stroke-miterlimit="10" d="M282.3,11.4c0.9-0.7,2.2-0.5,2.9,0.4
			c0.7,0.9,0.5,2.2-0.4,2.9c-0.9,0.7-2.2,0.5-2.9-0.4C281.2,13.3,281.4,12,282.3,11.4z"/>
		<path fill="#8A7F81" stroke="#0F0F0F" stroke-width="1.0635" stroke-miterlimit="10" d="M264.8,7.3c3.1-2.4,7.6-1.9,10.1,1.3
			c2.4,3.1,1.8,7.6-1.3,10.1c-3.1,2.4-7.6,1.9-10.1-1.3C261.1,14.2,261.6,9.7,264.8,7.3z"/>
		<path fill="none" stroke="#0F0F0F" stroke-width="1.0635" stroke-miterlimit="10" d="M266,8.8c2.3-1.8,5.6-1.4,7.4,0.9
			c1.8,2.3,1.4,5.6-0.9,7.4c-2.3,1.8-5.6,1.3-7.4-0.9C263.2,13.9,263.7,10.6,266,8.8z"/>
		<path fill="#0F0F0F" stroke="#0F0F0F" stroke-width="1.3432" stroke-miterlimit="10" d="M267.9,11.4c0.9-0.7,2.2-0.5,2.9,0.4
			c0.7,0.9,0.5,2.2-0.4,2.9c-0.9,0.7-2.2,0.5-2.9-0.4C266.9,13.3,267,12,267.9,11.4z"/>
		<path fill="#8A7F81" stroke="#0F0F0F" stroke-width="1.0635" stroke-miterlimit="10" d="M250.4,7.3c3.1-2.4,7.6-1.9,10.1,1.3
			c2.4,3.1,1.8,7.6-1.3,10.1c-3.1,2.4-7.6,1.9-10.1-1.3C246.7,14.2,247.3,9.7,250.4,7.3z"/>
		<path fill="none" stroke="#0F0F0F" stroke-width="1.0635" stroke-miterlimit="10" d="M251.6,8.8c2.3-1.8,5.6-1.4,7.4,0.9
			c1.8,2.3,1.4,5.6-0.9,7.4c-2.3,1.8-5.6,1.3-7.4-0.9C248.9,13.9,249.3,10.6,251.6,8.8z"/>
		<path fill="#0F0F0F" stroke="#0F0F0F" stroke-width="1.3432" stroke-miterlimit="10" d="M253.6,11.4c0.9-0.7,2.2-0.5,2.9,0.4
			c0.7,0.9,0.5,2.2-0.4,2.9c-0.9,0.7-2.2,0.5-2.9-0.4C252.5,13.3,252.7,12,253.6,11.4z"/>
		<path fill="#8A7F81" stroke="#0F0F0F" stroke-width="1.0635" stroke-miterlimit="10" d="M236.1,7.3c3.1-2.4,7.6-1.9,10.1,1.3
			c2.4,3.1,1.8,7.6-1.3,10.1c-3.1,2.4-7.6,1.9-10.1-1.3C232.3,14.2,232.9,9.7,236.1,7.3z"/>
		<path fill="none" stroke="#0F0F0F" stroke-width="1.0635" stroke-miterlimit="10" d="M237.2,8.8c2.3-1.8,5.6-1.4,7.4,0.9
			c1.8,2.3,1.4,5.6-0.9,7.4c-2.3,1.8-5.6,1.3-7.4-0.9C234.5,13.9,234.9,10.6,237.2,8.8z"/>
		<path fill="#0F0F0F" stroke="#0F0F0F" stroke-width="1.3432" stroke-miterlimit="10" d="M239.2,11.4c0.9-0.7,2.2-0.5,2.9,0.4
			c0.7,0.9,0.5,2.2-0.4,2.9c-0.9,0.7-2.2,0.5-2.9-0.4C238.2,13.3,238.3,12,239.2,11.4z"/>
		<path fill="#8A7F81" stroke="#0F0F0F" stroke-width="1.0635" stroke-miterlimit="10" d="M221.7,7.3c3.1-2.4,7.6-1.9,10.1,1.3
			c2.4,3.1,1.8,7.6-1.3,10.1c-3.1,2.4-7.6,1.9-10.1-1.3C218,14.2,218.6,9.7,221.7,7.3z"/>
		<path fill="none" stroke="#0F0F0F" stroke-width="1.0635" stroke-miterlimit="10" d="M222.9,8.8c2.3-1.8,5.6-1.4,7.4,0.9
			c1.8,2.3,1.4,5.6-0.9,7.4c-2.3,1.8-5.6,1.3-7.4-0.9C220.2,13.9,220.6,10.6,222.9,8.8z"/>
		<path fill="#0F0F0F" stroke="#0F0F0F" stroke-width="1.3432" stroke-miterlimit="10" d="M224.8,11.4c0.9-0.7,2.2-0.5,2.9,0.4
			c0.7,0.9,0.5,2.2-0.4,2.9c-0.9,0.7-2.2,0.5-2.9-0.4C223.8,13.3,224,12,224.8,11.4z"/>
		<path fill="#8A7F81" stroke="#0F0F0F" stroke-width="1.0635" stroke-miterlimit="10" d="M207.3,7.3c3.1-2.4,7.6-1.9,10.1,1.3
			c2.4,3.1,1.8,7.6-1.3,10.1c-3.1,2.4-7.6,1.9-10.1-1.3C203.6,14.2,204.2,9.7,207.3,7.3z"/>
		<path fill="none" stroke="#0F0F0F" stroke-width="1.0635" stroke-miterlimit="10" d="M208.5,8.8c2.3-1.8,5.6-1.4,7.4,0.9
			c1.8,2.3,1.4,5.6-0.9,7.4c-2.3,1.8-5.6,1.3-7.4-0.9C205.8,13.9,206.2,10.6,208.5,8.8z"/>
		<path fill="#0F0F0F" stroke="#0F0F0F" stroke-width="1.3432" stroke-miterlimit="10" d="M210.5,11.4c0.9-0.7,2.2-0.5,2.9,0.4
			c0.7,0.9,0.5,2.2-0.4,2.9c-0.9,0.7-2.2,0.5-2.9-0.4C209.4,13.3,209.6,12,210.5,11.4z"/>
		<path fill="#8A7F81" stroke="#0F0F0F" stroke-width="1.0635" stroke-miterlimit="10" d="M193,7.3c3.1-2.4,7.6-1.9,10.1,1.3
			c2.4,3.1,1.8,7.6-1.3,10.1c-3.1,2.4-7.6,1.9-10.1-1.3C189.3,14.2,189.8,9.7,193,7.3z"/>
		<path fill="none" stroke="#0F0F0F" stroke-width="1.0635" stroke-miterlimit="10" d="M194.2,8.8c2.3-1.8,5.6-1.4,7.4,0.9
			c1.8,2.3,1.4,5.6-0.9,7.4c-2.3,1.8-5.6,1.3-7.4-0.9C191.4,13.9,191.9,10.6,194.2,8.8z"/>
		<path fill="#0F0F0F" stroke="#0F0F0F" stroke-width="1.3432" stroke-miterlimit="10" d="M196.1,11.4c0.9-0.7,2.2-0.5,2.9,0.4
			c0.7,0.9,0.5,2.2-0.4,2.9c-0.9,0.7-2.2,0.5-2.9-0.4C195.1,13.3,195.2,12,196.1,11.4z"/>
		<path fill="#8A7F81" stroke="#0F0F0F" stroke-width="1.0635" stroke-miterlimit="10" d="M178.6,7.3c3.1-2.4,7.6-1.9,10.1,1.3
			c2.4,3.1,1.8,7.6-1.3,10.1c-3.1,2.4-7.6,1.9-10.1-1.3C174.9,14.2,175.5,9.7,178.6,7.3z"/>
		<path fill="none" stroke="#0F0F0F" stroke-width="1.0635" stroke-miterlimit="10" d="M179.8,8.8c2.3-1.8,5.6-1.4,7.4,0.9
			c1.8,2.3,1.4,5.6-0.9,7.4c-2.3,1.8-5.6,1.3-7.4-0.9C177.1,13.9,177.5,10.6,179.8,8.8z"/>
		<path fill="#0F0F0F" stroke="#0F0F0F" stroke-width="1.3432" stroke-miterlimit="10" d="M181.8,11.4c0.9-0.7,2.2-0.5,2.9,0.4
			c0.7,0.9,0.5,2.2-0.4,2.9c-0.9,0.7-2.2,0.5-2.9-0.4C180.7,13.3,180.9,12,181.8,11.4z"/>
		<path fill="#8A7F81" stroke="#0F0F0F" stroke-width="1.0635" stroke-miterlimit="10" d="M164.3,7.3c3.1-2.4,7.6-1.9,10.1,1.3
			c2.4,3.1,1.8,7.6-1.3,10.1c-3.1,2.4-7.6,1.9-10.1-1.3C160.6,14.2,161.1,9.7,164.3,7.3z"/>
		<path fill="none" stroke="#0F0F0F" stroke-width="1.0635" stroke-miterlimit="10" d="M165.4,8.8c2.3-1.8,5.6-1.4,7.4,0.9
			c1.8,2.3,1.4,5.6-0.9,7.4c-2.3,1.8-5.6,1.3-7.4-0.9C162.7,13.9,163.2,10.6,165.4,8.8z"/>
		<path fill="#0F0F0F" stroke="#0F0F0F" stroke-width="1.3432" stroke-miterlimit="10" d="M167.4,11.4c0.9-0.7,2.2-0.5,2.9,0.4
			c0.7,0.9,0.5,2.2-0.4,2.9c-0.9,0.7-2.2,0.5-2.9-0.4C166.4,13.3,166.5,12,167.4,11.4z"/>
		<path fill="#8A7F81" stroke="#0F0F0F" stroke-width="1.0635" stroke-miterlimit="10" d="M149.9,7.3c3.1-2.4,7.6-1.9,10.1,1.3
			c2.4,3.1,1.8,7.6-1.3,10.1c-3.1,2.4-7.6,1.9-10.1-1.3C146.2,14.2,146.8,9.7,149.9,7.3z"/>
		<path fill="none" stroke="#0F0F0F" stroke-width="1.0635" stroke-miterlimit="10" d="M151.1,8.8c2.3-1.8,5.6-1.4,7.4,0.9
			c1.8,2.3,1.4,5.6-0.9,7.4c-2.3,1.8-5.6,1.3-7.4-0.9C148.4,13.9,148.8,10.6,151.1,8.8z"/>
		<path fill="#0F0F0F" stroke="#0F0F0F" stroke-width="1.3432" stroke-miterlimit="10" d="M153,11.4c0.9-0.7,2.2-0.5,2.9,0.4
			c0.7,0.9,0.5,2.2-0.4,2.9c-0.9,0.7-2.2,0.5-2.9-0.4C152,13.3,152.2,12,153,11.4z"/>
		<path fill="#8A7F81" stroke="#0F0F0F" stroke-width="1.0635" stroke-miterlimit="10" d="M135.5,7.3c3.1-2.4,7.6-1.9,10.1,1.3
			c2.4,3.1,1.8,7.6-1.3,10.1c-3.1,2.4-7.6,1.9-10.1-1.3C131.8,14.2,132.4,9.7,135.5,7.3z"/>
		<path fill="none" stroke="#0F0F0F" stroke-width="1.0635" stroke-miterlimit="10" d="M136.7,8.8c2.3-1.8,5.6-1.4,7.4,0.9
			c1.8,2.3,1.4,5.6-0.9,7.4c-2.3,1.8-5.6,1.3-7.4-0.9C134,13.9,134.4,10.6,136.7,8.8z"/>
		<path fill="#0F0F0F" stroke="#0F0F0F" stroke-width="1.3432" stroke-miterlimit="10" d="M138.7,11.4c0.9-0.7,2.2-0.5,2.9,0.4
			c0.7,0.9,0.5,2.2-0.4,2.9c-0.9,0.7-2.2,0.5-2.9-0.4C137.6,13.3,137.8,12,138.7,11.4z"/>
		<path fill="#8A7F81" stroke="#0F0F0F" stroke-width="1.0635" stroke-miterlimit="10" d="M121.2,7.3c3.1-2.4,7.6-1.9,10.1,1.3
			c2.4,3.1,1.8,7.6-1.3,10.1c-3.1,2.4-7.6,1.9-10.1-1.3C117.5,14.2,118,9.7,121.2,7.3z"/>
		<path fill="none" stroke="#0F0F0F" stroke-width="1.0635" stroke-miterlimit="10" d="M122.4,8.8c2.3-1.8,5.6-1.4,7.4,0.9
			c1.8,2.3,1.4,5.6-0.9,7.4c-2.3,1.8-5.6,1.3-7.4-0.9C119.7,13.9,120.1,10.6,122.4,8.8z"/>
		<path fill="#0F0F0F" stroke="#0F0F0F" stroke-width="1.3432" stroke-miterlimit="10" d="M124.3,11.4c0.9-0.7,2.2-0.5,2.9,0.4
			c0.7,0.9,0.5,2.2-0.4,2.9c-0.9,0.7-2.2,0.5-2.9-0.4C123.3,13.3,123.4,12,124.3,11.4z"/>
		<path fill="#8A7F81" stroke="#0F0F0F" stroke-width="1.0635" stroke-miterlimit="10" d="M106.8,7.3c3.1-2.4,7.6-1.9,10.1,1.3
			c2.4,3.1,1.8,7.6-1.3,10.1c-3.1,2.4-7.6,1.9-10.1-1.3C103.1,14.2,103.7,9.7,106.8,7.3z"/>
		<path fill="none" stroke="#0F0F0F" stroke-width="1.0635" stroke-miterlimit="10" d="M108,8.8c2.3-1.8,5.6-1.4,7.4,0.9
			c1.8,2.3,1.4,5.6-0.9,7.4c-2.3,1.8-5.6,1.3-7.4-0.9C105.3,13.9,105.7,10.6,108,8.8z"/>
		<path fill="#0F0F0F" stroke="#0F0F0F" stroke-width="1.3432" stroke-miterlimit="10" d="M110,11.4c0.9-0.7,2.2-0.5,2.9,0.4
			c0.7,0.9,0.5,2.2-0.4,2.9c-0.9,0.7-2.2,0.5-2.9-0.4C108.9,13.3,109.1,12,110,11.4z"/>
		<path fill="#8A7F81" stroke="#0F0F0F" stroke-width="1.0635" stroke-miterlimit="10" d="M92.5,7.3c3.1-2.4,7.6-1.9,10.1,1.3
			c2.4,3.1,1.8,7.6-1.3,10.1c-3.1,2.4-7.6,1.9-10.1-1.3C88.8,14.2,89.3,9.7,92.5,7.3z"/>
		<path fill="none" stroke="#0F0F0F" stroke-width="1.0635" stroke-miterlimit="10" d="M93.6,8.8c2.3-1.8,5.6-1.4,7.4,0.9
			c1.8,2.3,1.4,5.6-0.9,7.4c-2.3,1.8-5.6,1.3-7.4-0.9C90.9,13.9,91.4,10.6,93.6,8.8z"/>
		<path fill="#0F0F0F" stroke="#0F0F0F" stroke-width="1.3432" stroke-miterlimit="10" d="M95.6,11.4c0.9-0.7,2.2-0.5,2.9,0.4
			c0.7,0.9,0.5,2.2-0.4,2.9c-0.9,0.7-2.2,0.5-2.9-0.4C94.6,13.3,94.7,12,95.6,11.4z"/>
		<path fill="#8A7F81" stroke="#0F0F0F" stroke-width="1.0635" stroke-miterlimit="10" d="M78.1,7.3c3.1-2.4,7.6-1.9,10.1,1.3
			c2.4,3.1,1.8,7.6-1.3,10.1c-3.1,2.4-7.6,1.9-10.1-1.3C74.4,14.2,75,9.7,78.1,7.3z"/>
		<path fill="none" stroke="#0F0F0F" stroke-width="1.0635" stroke-miterlimit="10" d="M79.3,8.8c2.3-1.8,5.6-1.4,7.4,0.9
			c1.8,2.3,1.4,5.6-0.9,7.4c-2.3,1.8-5.6,1.3-7.4-0.9C76.6,13.9,77,10.6,79.3,8.8z"/>
		<path fill="#0F0F0F" stroke="#0F0F0F" stroke-width="1.3432" stroke-miterlimit="10" d="M81.3,11.4c0.9-0.7,2.2-0.5,2.9,0.4
			c0.7,0.9,0.5,2.2-0.4,2.9c-0.9,0.7-2.2,0.5-2.9-0.4C80.2,13.3,80.4,12,81.3,11.4z"/>
		<path fill="#8A7F81" stroke="#0F0F0F" stroke-width="1.0635" stroke-miterlimit="10" d="M64,6c3.1-2.4,7.6-1.9,10.1,1.3
			c2.4,3.1,1.8,7.6-1.3,10.1c-3.1,2.4-7.6,1.9-10.1-1.3C60.3,12.9,60.9,8.4,64,6z"/>
		<path fill="none" stroke="#0F0F0F" stroke-width="1.0635" stroke-miterlimit="10" d="M65.2,7.5c2.3-1.8,5.6-1.4,7.4,0.9
			c1.8,2.3,1.4,5.6-0.9,7.4c-2.3,1.8-5.6,1.3-7.4-0.9C62.5,12.5,62.9,9.3,65.2,7.5z"/>
		<path fill="#0F0F0F" stroke="#0F0F0F" stroke-width="1.3432" stroke-miterlimit="10" d="M67.2,10c0.9-0.7,2.2-0.5,2.9,0.4
			c0.7,0.9,0.5,2.2-0.4,2.9c-0.9,0.7-2.2,0.5-2.9-0.4C66.1,12,66.3,10.7,67.2,10z"/>
		<path fill="#8A7F81" stroke="#0F0F0F" stroke-width="1.0635" stroke-miterlimit="10" d="M49.7,4.8c3.1-2.4,7.6-1.9,10.1,1.3
			c2.4,3.1,1.8,7.6-1.3,10.1c-3.1,2.4-7.6,1.9-10.1-1.3C46,11.7,46.5,7.2,49.7,4.8z"/>
		<path fill="none" stroke="#0F0F0F" stroke-width="1.0635" stroke-miterlimit="10" d="M50.8,6.3c2.3-1.8,5.6-1.4,7.4,0.9
			c1.8,2.3,1.4,5.6-0.9,7.4c-2.3,1.8-5.6,1.3-7.4-0.9C48.1,11.4,48.6,8.1,50.8,6.3z"/>
		<path fill="#0F0F0F" stroke="#0F0F0F" stroke-width="1.3432" stroke-miterlimit="10" d="M52.8,8.8c0.9-0.7,2.2-0.5,2.9,0.4
			c0.7,0.9,0.5,2.2-0.4,2.9c-0.9,0.7-2.2,0.5-2.9-0.4C51.8,10.8,51.9,9.5,52.8,8.8z"/>
		<path fill="#8A7F81" stroke="#0F0F0F" stroke-width="1.0635" stroke-miterlimit="10" d="M35.3,3.9c3.1-2.4,7.6-1.9,10.1,1.3
			c2.4,3.1,1.8,7.6-1.3,10.1C41,17.7,36.4,17.1,34,14C31.6,10.9,32.2,6.3,35.3,3.9z"/>
		<path fill="none" stroke="#0F0F0F" stroke-width="1.0635" stroke-miterlimit="10" d="M36.5,5.4c2.3-1.8,5.6-1.4,7.4,0.9
			c1.8,2.3,1.4,5.6-0.9,7.4c-2.3,1.8-5.6,1.3-7.4-0.9C33.8,10.5,34.2,7.2,36.5,5.4z"/>
		<path fill="#0F0F0F" stroke="#0F0F0F" stroke-width="1.3432" stroke-miterlimit="10" d="M38.5,8c0.9-0.7,2.2-0.5,2.9,0.4
			c0.7,0.9,0.5,2.2-0.4,2.9c-0.9,0.7-2.2,0.5-2.9-0.4C37.4,10,37.6,8.7,38.5,8z"/>
		<path fill="#8A7F81" stroke="#0F0F0F" stroke-width="1.0635" stroke-miterlimit="10" d="M19.9,2.7C23,0.3,27.5,0.9,29.9,4
			c2.4,3.1,1.8,7.6-1.3,10.1c-3.1,2.4-7.6,1.9-10.1-1.3C16.2,9.7,16.7,5.2,19.9,2.7z"/>
		<path fill="none" stroke="#0F0F0F" stroke-width="1.0635" stroke-miterlimit="10" d="M21.1,4.3c2.3-1.8,5.6-1.4,7.4,0.9
			c1.8,2.3,1.4,5.6-0.9,7.4c-2.3,1.8-5.6,1.3-7.4-0.9C18.3,9.3,18.8,6,21.1,4.3z"/>
		<path fill="#0F0F0F" stroke="#0F0F0F" stroke-width="1.3432" stroke-miterlimit="10" d="M23,6.8c0.9-0.7,2.2-0.5,2.9,0.4
			c0.7,0.9,0.5,2.2-0.4,2.9c-0.9,0.7-2.2,0.5-2.9-0.4C22,8.8,22.1,7.5,23,6.8z"/>
		<path fill="#8A7F81" stroke="#0F0F0F" stroke-width="1.0635" stroke-miterlimit="10" d="M4.8,2.7C7.9,0.3,12.4,0.9,14.9,4
			c2.4,3.1,1.8,7.6-1.3,10.1c-3.1,2.4-7.6,1.9-10.1-1.3C1.1,9.7,1.6,5.2,4.8,2.7z"/>
		<path fill="none" stroke="#0F0F0F" stroke-width="1.0635" stroke-miterlimit="10" d="M6,4.3c2.3-1.8,5.6-1.4,7.4,0.9
			c1.8,2.3,1.4,5.6-0.9,7.4c-2.3,1.8-5.6,1.3-7.4-0.9C3.3,9.3,3.7,6,6,4.3z"/>
		<path fill="#0F0F0F" stroke="#0F0F0F" stroke-width="1.3432" stroke-miterlimit="10" d="M7.9,6.8c0.9-0.7,2.2-0.5,2.9,0.4
			c0.7,0.9,0.5,2.2-0.4,2.9c-0.9,0.7-2.2,0.5-2.9-0.4C6.9,8.8,7,7.5,7.9,6.8z"/>
	</g>
</g>
</svg>
