<?xml version="1.0" encoding="utf-8"?>
<!DOCTYPE svg PUBLIC "-//W3C//DTD SVG 1.1//EN" "http://www.w3.org/Graphics/SVG/1.1/DTD/svg11.dtd">
<svg version="1.1" xmlns="http://www.w3.org/2000/svg" xmlns:xlink="http://www.w3.org/1999/xlink" x="0px" y="0px" width="65px"
	 height="45px" viewBox="0 0 65 45" enable-background="new 0 0 65 45" xml:space="preserve">
<g>
	<g>
		<g>
			<path fill="#8A7F81" stroke="#0F0F0F" stroke-width="0.5668" stroke-miterlimit="10" d="M39.5,24.1c0,2.6-2.1,4.7-4.7,4.7
				c-2.6,0-4.7-2.1-4.7-4.7c0-2.6,2.1-4.7,4.7-4.7C37.4,19.4,39.5,21.5,39.5,24.1z"/>
			<path fill="none" stroke="#0F0F0F" stroke-width="0.5668" stroke-miterlimit="10" d="M38.3,24.1c0,1.9-1.5,3.5-3.4,3.5
				c-1.9,0-3.5-1.5-3.5-3.5c0-1.9,1.5-3.5,3.5-3.5C36.7,20.6,38.3,22.2,38.3,24.1z"/>
			<path fill="#0F0F0F" stroke="#0F0F0F" stroke-width="0.7158" stroke-miterlimit="10" d="M36.2,24.1c0,0.7-0.6,1.3-1.3,1.3
				c-0.7,0-1.3-0.6-1.3-1.3c0-0.7,0.6-1.3,1.3-1.3C35.6,22.7,36.2,23.3,36.2,24.1z"/>
		</g>
		<g>
			<circle fill="#8A7F81" stroke="#0F0F0F" stroke-width="0.5668" stroke-miterlimit="10" cx="44.4" cy="25.4" r="4.7"/>
			<circle fill="none" stroke="#0F0F0F" stroke-width="0.5668" stroke-miterlimit="10" cx="44.4" cy="25.4" r="3.5"/>
			<circle fill="#0F0F0F" stroke="#0F0F0F" stroke-width="0.7158" stroke-miterlimit="10" cx="44.4" cy="25.4" r="1.3"/>
		</g>
		<g>
			<path fill="#8A7F81" stroke="#0F0F0F" stroke-width="0.5668" stroke-miterlimit="10" d="M42.5,11.8c2.4,1,3.5,3.8,2.5,6.2
				c-1,2.4-3.8,3.5-6.2,2.5c-2.4-1-3.5-3.8-2.5-6.2C37.3,11.9,40.1,10.8,42.5,11.8z"/>
			<path fill="none" stroke="#0F0F0F" stroke-width="0.5668" stroke-miterlimit="10" d="M42,13c1.8,0.8,2.6,2.8,1.8,4.5
				c-0.8,1.8-2.8,2.6-4.5,1.8c-1.8-0.8-2.6-2.8-1.8-4.5C38.2,13.1,40.2,12.2,42,13z"/>
			<path fill="#0F0F0F" stroke="#0F0F0F" stroke-width="0.7158" stroke-miterlimit="10" d="M41.2,14.9c0.7,0.3,1,1.1,0.7,1.8
				c-0.3,0.7-1.1,1-1.8,0.7c-0.7-0.3-1-1.1-0.7-1.8C39.7,15,40.5,14.6,41.2,14.9z"/>
		</g>
		<g>
			<circle fill="#8A7F81" stroke="#0F0F0F" stroke-width="0.5668" stroke-miterlimit="10" cx="50.1" cy="17.5" r="4.7"/>
			<path fill="none" stroke="#0F0F0F" stroke-width="0.5668" stroke-miterlimit="10" d="M51.4,14.3c1.8,0.8,2.6,2.8,1.8,4.5
				c-0.8,1.8-2.8,2.6-4.5,1.8c-1.8-0.8-2.6-2.8-1.8-4.5C47.7,14.4,49.7,13.6,51.4,14.3z"/>
			<path fill="#0F0F0F" stroke="#0F0F0F" stroke-width="0.7158" stroke-miterlimit="10" d="M50.6,16.3c0.7,0.3,1,1.1,0.7,1.8
				c-0.3,0.7-1.1,1-1.8,0.7c-0.7-0.3-1-1.1-0.7-1.8C49.1,16.3,49.9,16,50.6,16.3z"/>
		</g>
		<g>
			<path fill="#8A7F81" stroke="#0F0F0F" stroke-width="0.5668" stroke-miterlimit="10" d="M8,9.2c2.1-1.6,5-1.2,6.6,0.8
				c1.6,2.1,1.2,5-0.8,6.6c-2.1,1.6-5,1.2-6.6-0.8C5.6,13.7,5.9,10.8,8,9.2z"/>
			<path fill="none" stroke="#0F0F0F" stroke-width="0.5668" stroke-miterlimit="10" d="M8.8,10.2c1.5-1.2,3.7-0.9,4.8,0.6
				c1.2,1.5,0.9,3.7-0.6,4.8c-1.5,1.2-3.7,0.9-4.8-0.6C7,13.5,7.3,11.3,8.8,10.2z"/>
			<path fill="#0F0F0F" stroke="#0F0F0F" stroke-width="0.7158" stroke-miterlimit="10" d="M10.1,11.9c0.6-0.5,1.4-0.3,1.9,0.2
				c0.5,0.6,0.3,1.4-0.2,1.9c-0.6,0.4-1.4,0.3-1.9-0.2C9.4,13.1,9.5,12.3,10.1,11.9z"/>
		</g>
		<g>
			<path fill="#8A7F81" stroke="#0F0F0F" stroke-width="0.5668" stroke-miterlimit="10" d="M2.8,17.2c2.1-1.6,5-1.2,6.6,0.8
				c1.6,2.1,1.2,5-0.8,6.6c-2.1,1.6-5,1.2-6.6-0.8C0.4,21.7,0.8,18.8,2.8,17.2z"/>
			<path fill="none" stroke="#0F0F0F" stroke-width="0.5668" stroke-miterlimit="10" d="M3.6,18.2c1.5-1.2,3.7-0.9,4.8,0.6
				c1.2,1.5,0.9,3.7-0.6,4.8C6.3,24.8,4.2,24.5,3,23C1.8,21.5,2.1,19.3,3.6,18.2z"/>
			<path fill="#0F0F0F" stroke="#0F0F0F" stroke-width="0.7158" stroke-miterlimit="10" d="M4.9,19.8c0.6-0.5,1.4-0.3,1.9,0.2
				c0.5,0.6,0.3,1.4-0.2,1.9c-0.6,0.4-1.4,0.3-1.9-0.2C4.2,21.1,4.3,20.3,4.9,19.8z"/>
		</g>
		<g>
			<path fill="#8A7F81" stroke="#0F0F0F" stroke-width="0.5668" stroke-miterlimit="10" d="M57.1,14.6c2.1-1.6,5-1.2,6.6,0.8
				c1.6,2.1,1.2,5-0.8,6.6c-2.1,1.6-5,1.2-6.6-0.8C54.6,19.1,55,16.1,57.1,14.6z"/>
			<path fill="none" stroke="#0F0F0F" stroke-width="0.5668" stroke-miterlimit="10" d="M57.8,15.6c1.5-1.2,3.7-0.9,4.8,0.6
				c1.2,1.5,0.9,3.7-0.6,4.8c-1.5,1.2-3.7,0.9-4.8-0.6C56.1,18.9,56.3,16.7,57.8,15.6z"/>
			<path fill="#0F0F0F" stroke="#0F0F0F" stroke-width="0.7158" stroke-miterlimit="10" d="M59.1,17.2c0.6-0.5,1.4-0.3,1.9,0.2
				c0.5,0.6,0.3,1.4-0.2,1.9c-0.6,0.5-1.4,0.3-1.9-0.2C58.4,18.5,58.6,17.7,59.1,17.2z"/>
		</g>
		<g>
			<path fill="#8A7F81" stroke="#0F0F0F" stroke-width="0.5668" stroke-miterlimit="10" d="M9.7,22.2c-0.4-2.6,1.3-5,3.9-5.4
				c2.6-0.4,5,1.3,5.4,3.9c0.4,2.6-1.3,5-3.9,5.4C12.5,26.6,10.1,24.8,9.7,22.2z"/>
			<path fill="none" stroke="#0F0F0F" stroke-width="0.5668" stroke-miterlimit="10" d="M10.9,22c-0.3-1.9,1-3.7,2.9-4
				c1.9-0.3,3.7,1,4,2.9c0.3,1.9-1,3.7-2.9,4C13,25.2,11.2,23.9,10.9,22z"/>
			<circle fill="#0F0F0F" stroke="#0F0F0F" stroke-width="0.7158" stroke-miterlimit="10" cx="14.3" cy="21.5" r="1.3"/>
		</g>
		<g>
			<path fill="#8A7F81" stroke="#0F0F0F" stroke-width="0.5668" stroke-miterlimit="10" d="M21.2,43.7c-2.5-0.9-3.8-3.6-2.9-6
				c0.9-2.5,3.6-3.8,6-2.9c2.5,0.9,3.8,3.6,2.9,6C26.4,43.3,23.7,44.6,21.2,43.7z"/>
			<path fill="none" stroke="#0F0F0F" stroke-width="0.5668" stroke-miterlimit="10" d="M21.6,42.5c-1.8-0.6-2.7-2.6-2.1-4.4
				c0.6-1.8,2.6-2.7,4.4-2.1c1.8,0.6,2.7,2.6,2.1,4.4C25.4,42.2,23.4,43.2,21.6,42.5z"/>
			<path fill="#0F0F0F" stroke="#0F0F0F" stroke-width="0.7158" stroke-miterlimit="10" d="M22.3,40.5c-0.7-0.2-1.1-1-0.8-1.7
				c0.2-0.7,1-1.1,1.7-0.8c0.7,0.2,1.1,1,0.8,1.7C23.8,40.4,23,40.8,22.3,40.5z"/>
		</g>
		<g>
			<path fill="#8A7F81" stroke="#0F0F0F" stroke-width="0.5668" stroke-miterlimit="10" d="M16.9,34.4c-2.3-1.2-3.2-4-2.1-6.4
				c1.2-2.3,4-3.2,6.4-2.1c2.3,1.2,3.2,4,2.1,6.4C22.1,34.6,19.2,35.5,16.9,34.4z"/>
			<circle fill="none" stroke="#0F0F0F" stroke-width="0.5668" stroke-miterlimit="10" cx="19.1" cy="30.1" r="3.5"/>
			<path fill="#0F0F0F" stroke="#0F0F0F" stroke-width="0.7158" stroke-miterlimit="10" d="M18.5,31.3c-0.7-0.3-0.9-1.1-0.6-1.8
				c0.3-0.7,1.1-0.9,1.8-0.6c0.7,0.3,0.9,1.1,0.6,1.8C19.9,31.4,19.1,31.7,18.5,31.3z"/>
		</g>
		<g>
			<path fill="#8A7F81" stroke="#0F0F0F" stroke-width="0.5668" stroke-miterlimit="10" d="M7.4,33.6c-2.3-1.2-3.2-4-2.1-6.4
				c1.2-2.3,4-3.2,6.4-2.1c2.3,1.2,3.2,4,2.1,6.4C12.6,33.9,9.7,34.8,7.4,33.6z"/>
			<path fill="none" stroke="#0F0F0F" stroke-width="0.5668" stroke-miterlimit="10" d="M8,32.5c-1.7-0.9-2.4-2.9-1.5-4.6
				c0.9-1.7,2.9-2.4,4.6-1.5c1.7,0.9,2.4,2.9,1.5,4.6C11.8,32.7,9.7,33.4,8,32.5z"/>
			<path fill="#0F0F0F" stroke="#0F0F0F" stroke-width="0.7158" stroke-miterlimit="10" d="M8.9,30.6c-0.7-0.3-0.9-1.1-0.6-1.8
				c0.3-0.7,1.1-0.9,1.8-0.6c0.7,0.3,0.9,1.1,0.6,1.8C10.4,30.7,9.6,31,8.9,30.6z"/>
		</g>
		<g>
			<path fill="#8A7F81" stroke="#0F0F0F" stroke-width="0.5668" stroke-miterlimit="10" d="M16.3,14.4c-0.1-2.6,2-4.8,4.6-4.9
				c2.6-0.1,4.8,2,4.9,4.6c0.1,2.6-2,4.8-4.6,4.9C18.5,19,16.4,17,16.3,14.4z"/>
			<path fill="none" stroke="#0F0F0F" stroke-width="0.5668" stroke-miterlimit="10" d="M17.6,14.3c-0.1-1.9,1.4-3.5,3.3-3.6
				c1.9-0.1,3.5,1.4,3.6,3.3c0.1,1.9-1.4,3.5-3.4,3.6C19.2,17.7,17.6,16.2,17.6,14.3z"/>
			<path fill="#0F0F0F" stroke="#0F0F0F" stroke-width="0.7158" stroke-miterlimit="10" d="M19.7,14.3c0-0.7,0.6-1.4,1.3-1.4
				c0.7,0,1.4,0.6,1.4,1.3c0,0.7-0.6,1.4-1.3,1.4C20.3,15.6,19.7,15,19.7,14.3z"/>
		</g>
		<g>
			<path fill="#8A7F81" stroke="#0F0F0F" stroke-width="0.5668" stroke-miterlimit="10" d="M27.6,11.4c1.9-1.8,4.9-1.7,6.7,0.2
				c1.8,1.9,1.7,4.9-0.2,6.7c-1.9,1.8-4.9,1.7-6.7-0.2C25.6,16.2,25.7,13.2,27.6,11.4z"/>
			<path fill="none" stroke="#0F0F0F" stroke-width="0.5668" stroke-miterlimit="10" d="M28.4,12.3c1.4-1.3,3.6-1.3,4.9,0.1
				c1.3,1.4,1.3,3.6-0.1,4.9c-1.4,1.3-3.6,1.3-4.9-0.1C27,15.8,27.1,13.6,28.4,12.3z"/>
			<path fill="#0F0F0F" stroke="#0F0F0F" stroke-width="0.7158" stroke-miterlimit="10" d="M29.9,13.9c0.5-0.5,1.4-0.5,1.9,0
				c0.5,0.5,0.5,1.4,0,1.9c-0.5,0.5-1.4,0.5-1.9,0C29.3,15.2,29.4,14.4,29.9,13.9z"/>
		</g>
		<g>
			<path fill="#8A7F81" stroke="#0F0F0F" stroke-width="0.5668" stroke-miterlimit="10" d="M20.5,23.7c-0.5-2.6,1.1-5.1,3.7-5.6
				c2.6-0.5,5,1.1,5.6,3.7c0.5,2.6-1.1,5-3.7,5.6C23.5,27.9,21,26.2,20.5,23.7z"/>
			<circle fill="none" stroke="#0F0F0F" stroke-width="0.5668" stroke-miterlimit="10" cx="25.1" cy="22.7" r="3.5"/>
			<circle fill="#0F0F0F" stroke="#0F0F0F" stroke-width="0.7158" stroke-miterlimit="10" cx="25.1" cy="22.7" r="1.3"/>
		</g>
		<g>
			<path fill="#8A7F81" stroke="#0F0F0F" stroke-width="0.5668" stroke-miterlimit="10" d="M27.2,36.1c-2.4-0.9-3.7-3.7-2.7-6.1
				c0.9-2.4,3.6-3.7,6.1-2.7c2.4,0.9,3.7,3.6,2.7,6.1C32.3,35.8,29.6,37,27.2,36.1z"/>
			<path fill="none" stroke="#0F0F0F" stroke-width="0.5668" stroke-miterlimit="10" d="M27.6,34.9c-1.8-0.7-2.7-2.7-2-4.4
				c0.7-1.8,2.7-2.7,4.5-2c1.8,0.7,2.7,2.7,2,4.5C31.4,34.7,29.4,35.6,27.6,34.9z"/>
			<path fill="#0F0F0F" stroke="#0F0F0F" stroke-width="0.7158" stroke-miterlimit="10" d="M28.4,32.9c-0.7-0.3-1-1-0.8-1.7
				c0.3-0.7,1-1,1.7-0.8c0.7,0.3,1,1,0.8,1.7C29.8,32.9,29,33.2,28.4,32.9z"/>
		</g>
		<g>
			<path fill="#8A7F81" stroke="#0F0F0F" stroke-width="0.5668" stroke-miterlimit="10" d="M41.1,36.8c-2.1,1.6-5,1.2-6.6-0.9
				c-1.6-2.1-1.2-5,0.9-6.6c2.1-1.6,5-1.2,6.6,0.9C43.6,32.3,43.2,35.2,41.1,36.8z"/>
			<path fill="none" stroke="#0F0F0F" stroke-width="0.5668" stroke-miterlimit="10" d="M40.4,35.8c-1.5,1.2-3.7,0.9-4.8-0.7
				c-1.2-1.5-0.9-3.7,0.7-4.8c1.5-1.2,3.7-0.8,4.8,0.7C42.2,32.5,41.9,34.6,40.4,35.8z"/>
			<path fill="#0F0F0F" stroke="#0F0F0F" stroke-width="0.7158" stroke-miterlimit="10" d="M39.1,34.1c-0.6,0.4-1.4,0.3-1.9-0.3
				c-0.4-0.6-0.3-1.4,0.3-1.9c0.6-0.4,1.4-0.3,1.9,0.3C39.8,32.8,39.7,33.6,39.1,34.1z"/>
		</g>
		<g>
			<path fill="#8A7F81" stroke="#0F0F0F" stroke-width="0.5668" stroke-miterlimit="10" d="M23.6,2.3c2.1-1.6,5-1.2,6.6,0.8
				c1.6,2.1,1.2,5-0.8,6.6c-2.1,1.6-5,1.2-6.6-0.8C21.1,6.9,21.5,3.9,23.6,2.3z"/>
			<path fill="none" stroke="#0F0F0F" stroke-width="0.5668" stroke-miterlimit="10" d="M24.3,3.3c1.5-1.2,3.7-0.9,4.8,0.6
				c1.2,1.5,0.9,3.7-0.6,4.8s-3.7,0.9-4.8-0.6C22.6,6.6,22.8,4.5,24.3,3.3z"/>
			<path fill="#0F0F0F" stroke="#0F0F0F" stroke-width="0.7158" stroke-miterlimit="10" d="M25.6,5c0.6-0.5,1.4-0.3,1.9,0.2
				c0.5,0.6,0.3,1.4-0.2,1.9c-0.6,0.5-1.4,0.3-1.9-0.2C24.9,6.3,25.1,5.4,25.6,5z"/>
		</g>
		<g>
			<path fill="#8A7F81" stroke="#0F0F0F" stroke-width="0.5668" stroke-miterlimit="10" d="M14.1,2c2.1-1.6,5-1.2,6.6,0.8
				c1.6,2.1,1.2,5-0.8,6.6c-2.1,1.6-5,1.2-6.6-0.8C11.6,6.6,12,3.6,14.1,2z"/>
			<circle fill="none" stroke="#0F0F0F" stroke-width="0.5668" stroke-miterlimit="10" cx="16.9" cy="5.7" r="3.5"/>
			<circle fill="#0F0F0F" stroke="#0F0F0F" stroke-width="0.7158" stroke-miterlimit="10" cx="16.9" cy="5.7" r="1.3"/>
		</g>
		<g>
			<path fill="#8A7F81" stroke="#0F0F0F" stroke-width="0.5668" stroke-miterlimit="10" d="M52.3,5.9c2.1-1.6,5-1.2,6.6,0.8
				c1.6,2.1,1.2,5-0.9,6.6c-2.1,1.6-5,1.2-6.6-0.8C49.9,10.5,50.3,7.5,52.3,5.9z"/>
			<path fill="none" stroke="#0F0F0F" stroke-width="0.5668" stroke-miterlimit="10" d="M53.1,6.9c1.5-1.2,3.7-0.9,4.8,0.6
				c1.2,1.5,0.9,3.7-0.6,4.8c-1.5,1.2-3.7,0.9-4.8-0.6C51.3,10.3,51.6,8.1,53.1,6.9z"/>
			<path fill="#0F0F0F" stroke="#0F0F0F" stroke-width="0.7158" stroke-miterlimit="10" d="M54.4,8.6c0.6-0.5,1.4-0.3,1.9,0.2
				c0.5,0.6,0.3,1.4-0.2,1.9c-0.6,0.5-1.4,0.3-1.9-0.2C53.7,9.9,53.8,9.1,54.4,8.6z"/>
		</g>
		<g>
			<path fill="#8A7F81" stroke="#0F0F0F" stroke-width="0.5668" stroke-miterlimit="10" d="M48.1,4c2.4,1,3.5,3.8,2.4,6.2
				c-1.1,2.4-3.8,3.5-6.2,2.4c-2.4-1.1-3.5-3.8-2.4-6.2C43,4,45.8,3,48.1,4z"/>
			<path fill="none" stroke="#0F0F0F" stroke-width="0.5668" stroke-miterlimit="10" d="M47.6,5.2c1.7,0.8,2.5,2.8,1.8,4.5
				c-0.8,1.7-2.8,2.5-4.6,1.8c-1.7-0.8-2.5-2.8-1.8-4.6C43.8,5.2,45.9,4.4,47.6,5.2z"/>
			<path fill="#0F0F0F" stroke="#0F0F0F" stroke-width="0.7158" stroke-miterlimit="10" d="M46.8,7.1c0.7,0.3,1,1.1,0.7,1.8
				c-0.3,0.7-1.1,1-1.8,0.7c-0.7-0.3-1-1.1-0.7-1.8C45.3,7.1,46.1,6.8,46.8,7.1z"/>
		</g>
		<g>
			<path fill="#8A7F81" stroke="#0F0F0F" stroke-width="0.5668" stroke-miterlimit="10" d="M34.1,3.3c2.2-1.3,5.1-0.6,6.5,1.7
				c1.3,2.2,0.6,5.1-1.7,6.5c-2.2,1.3-5.1,0.6-6.5-1.7C31.1,7.5,31.8,4.6,34.1,3.3z"/>
			<path fill="none" stroke="#0F0F0F" stroke-width="0.5668" stroke-miterlimit="10" d="M34.7,4.4c1.6-1,3.8-0.4,4.7,1.2
				c1,1.6,0.4,3.8-1.2,4.7c-1.6,1-3.8,0.4-4.7-1.2C32.5,7.4,33.1,5.3,34.7,4.4z"/>
			<path fill="#0F0F0F" stroke="#0F0F0F" stroke-width="0.7158" stroke-miterlimit="10" d="M35.8,6.2c0.6-0.4,1.5-0.2,1.8,0.5
				c0.4,0.6,0.2,1.5-0.5,1.8S35.7,8.7,35.3,8C34.9,7.4,35.1,6.6,35.8,6.2z"/>
		</g>
	</g>
</g>
</svg>
