<?xml version="1.0" encoding="utf-8"?>
<!DOCTYPE svg PUBLIC "-//W3C//DTD SVG 1.1//EN" "http://www.w3.org/Graphics/SVG/1.1/DTD/svg11.dtd">
<svg version="1.1" xmlns="http://www.w3.org/2000/svg" xmlns:xlink="http://www.w3.org/1999/xlink" x="0px" y="0px" width="580px"
	 height="170px" viewBox="0 0 580 170" enable-background="new 0 0 580 170" xml:space="preserve">
<g>
	<g>
		<g>
			<line fill="none" stroke="#000000" stroke-width="3" stroke-miterlimit="10" x1="4" y1="51.8" x2="58" y2="51.8"/>
			<line fill="none" stroke="#000000" stroke-width="3" stroke-miterlimit="10" x1="4" y1="61.8" x2="58" y2="61.8"/>
			<rect x="4" y="42.7" fill="none" stroke="#000000" stroke-width="3" stroke-miterlimit="10" width="54" height="78.9"/>
			<line fill="none" stroke="#000000" stroke-width="3" stroke-miterlimit="10" x1="4" y1="71.7" x2="58" y2="71.7"/>
			<line fill="none" stroke="#000000" stroke-width="3" stroke-miterlimit="10" x1="4" y1="81.7" x2="58" y2="81.7"/>
			<line fill="none" stroke="#000000" stroke-width="3" stroke-miterlimit="10" x1="4" y1="91.6" x2="58" y2="91.6"/>
			<line fill="none" stroke="#000000" stroke-width="3" stroke-miterlimit="10" x1="4" y1="101.6" x2="58" y2="101.6"/>
			<line fill="none" stroke="#000000" stroke-width="3" stroke-miterlimit="10" x1="4" y1="111.5" x2="58" y2="111.5"/>
		</g>
		<rect x="68.6" y="50.8" width="31.4" height="62.7"/>
		<g>
			<path fill="#8A7F81" stroke="#0F0F0F" stroke-width="1.0635" stroke-miterlimit="10" d="M533.7,150.5c3.1-2.4,7.6-1.9,10.1,1.3
				c2.4,3.1,1.8,7.6-1.3,10.1c-3.1,2.4-7.6,1.9-10.1-1.3C530,157.4,530.6,152.9,533.7,150.5z"/>
			<path fill="none" stroke="#0F0F0F" stroke-width="1.0635" stroke-miterlimit="10" d="M534.9,152c2.3-1.8,5.6-1.4,7.4,0.9
				c1.8,2.3,1.4,5.6-0.9,7.4c-2.3,1.8-5.6,1.3-7.4-0.9C532.2,157,532.6,153.8,534.9,152z"/>
			<path fill="#0F0F0F" stroke="#0F0F0F" stroke-width="1.3432" stroke-miterlimit="10" d="M536.8,154.5c0.9-0.7,2.2-0.5,2.9,0.4
				c0.7,0.9,0.5,2.2-0.4,2.9c-0.9,0.7-2.2,0.5-2.9-0.4C535.8,156.5,536,155.2,536.8,154.5z"/>
		</g>
		<g>
			<path fill="#8A7F81" stroke="#0F0F0F" stroke-width="1.0635" stroke-miterlimit="10" d="M548.1,150.5c3.1-2.4,7.6-1.9,10.1,1.3
				c2.4,3.1,1.8,7.6-1.3,10.1c-3.1,2.4-7.6,1.9-10.1-1.3C544.3,157.4,544.9,152.9,548.1,150.5z"/>
			<path fill="none" stroke="#0F0F0F" stroke-width="1.0635" stroke-miterlimit="10" d="M549.2,152c2.3-1.8,5.6-1.4,7.4,0.9
				c1.8,2.3,1.4,5.6-0.9,7.4c-2.3,1.8-5.6,1.3-7.4-0.9C546.5,157,546.9,153.8,549.2,152z"/>
			<path fill="#0F0F0F" stroke="#0F0F0F" stroke-width="1.3432" stroke-miterlimit="10" d="M551.2,154.5c0.9-0.7,2.2-0.5,2.9,0.4
				c0.7,0.9,0.5,2.2-0.4,2.9c-0.9,0.7-2.2,0.5-2.9-0.4C550.2,156.5,550.3,155.2,551.2,154.5z"/>
		</g>
		<g>
			<path fill="#8A7F81" stroke="#0F0F0F" stroke-width="1.0635" stroke-miterlimit="10" d="M562.4,150.5c3.1-2.4,7.6-1.9,10.1,1.3
				c2.4,3.1,1.8,7.6-1.3,10.1c-3.1,2.4-7.6,1.9-10.1-1.3C558.7,157.4,559.3,152.9,562.4,150.5z"/>
			<path fill="none" stroke="#0F0F0F" stroke-width="1.0635" stroke-miterlimit="10" d="M563.6,152c2.3-1.8,5.6-1.4,7.4,0.9
				c1.8,2.3,1.4,5.6-0.9,7.4c-2.3,1.8-5.6,1.3-7.4-0.9C560.9,157,561.3,153.8,563.6,152z"/>
			<path fill="#0F0F0F" stroke="#0F0F0F" stroke-width="1.3432" stroke-miterlimit="10" d="M565.6,154.5c0.9-0.7,2.2-0.5,2.9,0.4
				c0.7,0.9,0.5,2.2-0.4,2.9c-0.9,0.7-2.2,0.5-2.9-0.4C564.5,156.5,564.7,155.2,565.6,154.5z"/>
		</g>
		<g>
			<path fill="#8A7F81" stroke="#0F0F0F" stroke-width="1.0635" stroke-miterlimit="10" d="M519.3,150.5c3.1-2.4,7.6-1.9,10.1,1.3
				c2.4,3.1,1.8,7.6-1.3,10.1c-3.1,2.4-7.6,1.9-10.1-1.3C515.6,157.4,516.2,152.9,519.3,150.5z"/>
			<path fill="none" stroke="#0F0F0F" stroke-width="1.0635" stroke-miterlimit="10" d="M520.5,152c2.3-1.8,5.6-1.4,7.4,0.9
				c1.8,2.3,1.4,5.6-0.9,7.4c-2.3,1.8-5.6,1.3-7.4-0.9C517.8,157,518.2,153.8,520.5,152z"/>
			<path fill="#0F0F0F" stroke="#0F0F0F" stroke-width="1.3432" stroke-miterlimit="10" d="M522.5,154.5c0.9-0.7,2.2-0.5,2.9,0.4
				c0.7,0.9,0.5,2.2-0.4,2.9c-0.9,0.7-2.2,0.5-2.9-0.4C521.4,156.5,521.6,155.2,522.5,154.5z"/>
		</g>
		<g>
			<path fill="#8A7F81" stroke="#0F0F0F" stroke-width="1.0635" stroke-miterlimit="10" d="M505,150.5c3.1-2.4,7.6-1.9,10.1,1.3
				c2.4,3.1,1.8,7.6-1.3,10.1c-3.1,2.4-7.6,1.9-10.1-1.3C501.3,157.4,501.8,152.9,505,150.5z"/>
			<path fill="none" stroke="#0F0F0F" stroke-width="1.0635" stroke-miterlimit="10" d="M506.2,152c2.3-1.8,5.6-1.4,7.4,0.9
				c1.8,2.3,1.4,5.6-0.9,7.4c-2.3,1.8-5.6,1.3-7.4-0.9C503.4,157,503.9,153.8,506.2,152z"/>
			<path fill="#0F0F0F" stroke="#0F0F0F" stroke-width="1.3432" stroke-miterlimit="10" d="M508.1,154.5c0.9-0.7,2.2-0.5,2.9,0.4
				c0.7,0.9,0.5,2.2-0.4,2.9c-0.9,0.7-2.2,0.5-2.9-0.4C507.1,156.5,507.2,155.2,508.1,154.5z"/>
		</g>
		<g>
			<path fill="#8A7F81" stroke="#0F0F0F" stroke-width="1.0635" stroke-miterlimit="10" d="M490.6,150.5c3.1-2.4,7.6-1.9,10.1,1.3
				c2.4,3.1,1.8,7.6-1.3,10.1c-3.1,2.4-7.6,1.9-10.1-1.3C486.9,157.4,487.5,152.9,490.6,150.5z"/>
			<path fill="none" stroke="#0F0F0F" stroke-width="1.0635" stroke-miterlimit="10" d="M491.8,152c2.3-1.8,5.6-1.4,7.4,0.9
				c1.8,2.3,1.4,5.6-0.9,7.4c-2.3,1.8-5.6,1.3-7.4-0.9C489.1,157,489.5,153.8,491.8,152z"/>
			<path fill="#0F0F0F" stroke="#0F0F0F" stroke-width="1.3432" stroke-miterlimit="10" d="M493.8,154.5c0.9-0.7,2.2-0.5,2.9,0.4
				c0.7,0.9,0.5,2.2-0.4,2.9c-0.9,0.7-2.2,0.5-2.9-0.4C492.7,156.5,492.9,155.2,493.8,154.5z"/>
		</g>
		<g>
			<path fill="#8A7F81" stroke="#0F0F0F" stroke-width="1.0635" stroke-miterlimit="10" d="M476.3,150.5c3.1-2.4,7.6-1.9,10.1,1.3
				c2.4,3.1,1.8,7.6-1.3,10.1c-3.1,2.4-7.6,1.9-10.1-1.3C472.5,157.4,473.1,152.9,476.3,150.5z"/>
			<path fill="none" stroke="#0F0F0F" stroke-width="1.0635" stroke-miterlimit="10" d="M477.4,152c2.3-1.8,5.6-1.4,7.4,0.9
				c1.8,2.3,1.4,5.6-0.9,7.4c-2.3,1.8-5.6,1.3-7.4-0.9C474.7,157,475.1,153.8,477.4,152z"/>
			<path fill="#0F0F0F" stroke="#0F0F0F" stroke-width="1.3432" stroke-miterlimit="10" d="M479.4,154.5c0.9-0.7,2.2-0.5,2.9,0.4
				c0.7,0.9,0.5,2.2-0.4,2.9c-0.9,0.7-2.2,0.5-2.9-0.4C478.4,156.5,478.5,155.2,479.4,154.5z"/>
		</g>
		<g>
			<path fill="#8A7F81" stroke="#0F0F0F" stroke-width="1.0635" stroke-miterlimit="10" d="M461.9,150.5c3.1-2.4,7.6-1.9,10.1,1.3
				c2.4,3.1,1.8,7.6-1.3,10.1c-3.1,2.4-7.6,1.9-10.1-1.3C458.2,157.4,458.8,152.9,461.9,150.5z"/>
			<path fill="none" stroke="#0F0F0F" stroke-width="1.0635" stroke-miterlimit="10" d="M463.1,152c2.3-1.8,5.6-1.4,7.4,0.9
				c1.8,2.3,1.4,5.6-0.9,7.4c-2.3,1.8-5.6,1.3-7.4-0.9C460.4,157,460.8,153.8,463.1,152z"/>
			<path fill="#0F0F0F" stroke="#0F0F0F" stroke-width="1.3432" stroke-miterlimit="10" d="M465,154.5c0.9-0.7,2.2-0.5,2.9,0.4
				c0.7,0.9,0.5,2.2-0.4,2.9c-0.9,0.7-2.2,0.5-2.9-0.4C464,156.5,464.2,155.2,465,154.5z"/>
		</g>
		<g>
			<path fill="#8A7F81" stroke="#0F0F0F" stroke-width="1.0635" stroke-miterlimit="10" d="M447.5,150.5c3.1-2.4,7.6-1.9,10.1,1.3
				c2.4,3.1,1.8,7.6-1.3,10.1c-3.1,2.4-7.6,1.9-10.1-1.3C443.8,157.4,444.4,152.9,447.5,150.5z"/>
			<path fill="none" stroke="#0F0F0F" stroke-width="1.0635" stroke-miterlimit="10" d="M448.7,152c2.3-1.8,5.6-1.4,7.4,0.9
				c1.8,2.3,1.4,5.6-0.9,7.4c-2.3,1.8-5.6,1.3-7.4-0.9C446,157,446.4,153.8,448.7,152z"/>
			<path fill="#0F0F0F" stroke="#0F0F0F" stroke-width="1.3432" stroke-miterlimit="10" d="M450.7,154.5c0.9-0.7,2.2-0.5,2.9,0.4
				c0.7,0.9,0.5,2.2-0.4,2.9c-0.9,0.7-2.2,0.5-2.9-0.4C449.6,156.5,449.8,155.2,450.7,154.5z"/>
		</g>
		<g>
			<path fill="#8A7F81" stroke="#0F0F0F" stroke-width="1.0635" stroke-miterlimit="10" d="M433.2,150.5c3.1-2.4,7.6-1.9,10.1,1.3
				c2.4,3.1,1.8,7.6-1.3,10.1c-3.1,2.4-7.6,1.9-10.1-1.3C429.5,157.4,430,152.9,433.2,150.5z"/>
			<path fill="none" stroke="#0F0F0F" stroke-width="1.0635" stroke-miterlimit="10" d="M434.4,152c2.3-1.8,5.6-1.4,7.4,0.9
				c1.8,2.3,1.4,5.6-0.9,7.4c-2.3,1.8-5.6,1.3-7.4-0.9C431.6,157,432.1,153.8,434.4,152z"/>
			<path fill="#0F0F0F" stroke="#0F0F0F" stroke-width="1.3432" stroke-miterlimit="10" d="M436.3,154.5c0.9-0.7,2.2-0.5,2.9,0.4
				c0.7,0.9,0.5,2.2-0.4,2.9c-0.9,0.7-2.2,0.5-2.9-0.4C435.3,156.5,435.4,155.2,436.3,154.5z"/>
		</g>
		<g>
			<path fill="#8A7F81" stroke="#0F0F0F" stroke-width="1.0635" stroke-miterlimit="10" d="M418.8,150.5c3.1-2.4,7.6-1.9,10.1,1.3
				c2.4,3.1,1.8,7.6-1.3,10.1c-3.1,2.4-7.6,1.9-10.1-1.3C415.1,157.4,415.7,152.9,418.8,150.5z"/>
			<path fill="none" stroke="#0F0F0F" stroke-width="1.0635" stroke-miterlimit="10" d="M420,152c2.3-1.8,5.6-1.4,7.4,0.9
				c1.8,2.3,1.4,5.6-0.9,7.4c-2.3,1.8-5.6,1.3-7.4-0.9C417.3,157,417.7,153.8,420,152z"/>
			<path fill="#0F0F0F" stroke="#0F0F0F" stroke-width="1.3432" stroke-miterlimit="10" d="M422,154.5c0.9-0.7,2.2-0.5,2.9,0.4
				c0.7,0.9,0.5,2.2-0.4,2.9c-0.9,0.7-2.2,0.5-2.9-0.4C420.9,156.5,421.1,155.2,422,154.5z"/>
		</g>
		<g>
			<path fill="#8A7F81" stroke="#0F0F0F" stroke-width="1.0635" stroke-miterlimit="10" d="M404.5,150.5c3.1-2.4,7.7-1.9,10.1,1.3
				c2.4,3.1,1.8,7.6-1.3,10.1c-3.1,2.4-7.6,1.9-10.1-1.3C400.7,157.4,401.3,152.9,404.5,150.5z"/>
			<path fill="none" stroke="#0F0F0F" stroke-width="1.0635" stroke-miterlimit="10" d="M405.6,152c2.3-1.8,5.6-1.4,7.4,0.9
				c1.8,2.3,1.4,5.6-0.9,7.4c-2.3,1.8-5.6,1.3-7.4-0.9C402.9,157,403.3,153.8,405.6,152z"/>
			<path fill="#0F0F0F" stroke="#0F0F0F" stroke-width="1.3432" stroke-miterlimit="10" d="M407.6,154.5c0.9-0.7,2.2-0.5,2.9,0.4
				c0.7,0.9,0.5,2.2-0.4,2.9c-0.9,0.7-2.2,0.5-2.9-0.4C406.6,156.5,406.7,155.2,407.6,154.5z"/>
		</g>
		<g>
			<path fill="#8A7F81" stroke="#0F0F0F" stroke-width="1.0635" stroke-miterlimit="10" d="M390.1,150.5c3.1-2.4,7.6-1.9,10.1,1.3
				c2.4,3.1,1.8,7.6-1.3,10.1c-3.1,2.4-7.6,1.9-10.1-1.3C386.4,157.4,387,152.9,390.1,150.5z"/>
			<path fill="none" stroke="#0F0F0F" stroke-width="1.0635" stroke-miterlimit="10" d="M391.3,152c2.3-1.8,5.6-1.4,7.4,0.9
				c1.8,2.3,1.4,5.6-0.9,7.4c-2.3,1.8-5.6,1.3-7.4-0.9C388.6,157,389,153.8,391.3,152z"/>
			<path fill="#0F0F0F" stroke="#0F0F0F" stroke-width="1.3432" stroke-miterlimit="10" d="M393.2,154.5c0.9-0.7,2.2-0.5,2.9,0.4
				c0.7,0.9,0.5,2.2-0.4,2.9c-0.9,0.7-2.2,0.5-2.9-0.4C392.2,156.5,392.4,155.2,393.2,154.5z"/>
		</g>
		<g>
			<path fill="#8A7F81" stroke="#0F0F0F" stroke-width="1.0635" stroke-miterlimit="10" d="M375.7,150.5c3.1-2.4,7.6-1.9,10.1,1.3
				c2.4,3.1,1.8,7.6-1.3,10.1c-3.1,2.4-7.6,1.9-10.1-1.3C372,157.4,372.6,152.9,375.7,150.5z"/>
			<path fill="none" stroke="#0F0F0F" stroke-width="1.0635" stroke-miterlimit="10" d="M376.9,152c2.3-1.8,5.6-1.4,7.4,0.9
				c1.8,2.3,1.4,5.6-0.9,7.4c-2.3,1.8-5.6,1.3-7.4-0.9C374.2,157,374.6,153.8,376.9,152z"/>
			<path fill="#0F0F0F" stroke="#0F0F0F" stroke-width="1.3432" stroke-miterlimit="10" d="M378.9,154.5c0.9-0.7,2.2-0.5,2.9,0.4
				c0.7,0.9,0.5,2.2-0.4,2.9c-0.9,0.7-2.2,0.5-2.9-0.4C377.8,156.5,378,155.2,378.9,154.5z"/>
		</g>
		<g>
			<path fill="#8A7F81" stroke="#0F0F0F" stroke-width="1.0635" stroke-miterlimit="10" d="M361.4,150.5c3.1-2.4,7.6-1.9,10.1,1.3
				c2.4,3.1,1.8,7.6-1.3,10.1c-3.1,2.4-7.6,1.9-10.1-1.3C357.7,157.4,358.2,152.9,361.4,150.5z"/>
			<path fill="none" stroke="#0F0F0F" stroke-width="1.0635" stroke-miterlimit="10" d="M362.6,152c2.3-1.8,5.6-1.4,7.4,0.9
				c1.8,2.3,1.4,5.6-0.9,7.4c-2.3,1.8-5.6,1.3-7.4-0.9C359.8,157,360.3,153.8,362.6,152z"/>
			<path fill="#0F0F0F" stroke="#0F0F0F" stroke-width="1.3432" stroke-miterlimit="10" d="M364.5,154.5c0.9-0.7,2.2-0.5,2.9,0.4
				c0.7,0.9,0.5,2.2-0.4,2.9c-0.9,0.7-2.2,0.5-2.9-0.4C363.5,156.5,363.6,155.2,364.5,154.5z"/>
		</g>
		<g>
			<path fill="#8A7F81" stroke="#0F0F0F" stroke-width="1.0635" stroke-miterlimit="10" d="M347,150.5c3.1-2.4,7.6-1.9,10.1,1.3
				c2.4,3.1,1.8,7.6-1.3,10.1c-3.1,2.4-7.6,1.9-10.1-1.3C343.3,157.4,343.9,152.9,347,150.5z"/>
			<path fill="none" stroke="#0F0F0F" stroke-width="1.0635" stroke-miterlimit="10" d="M348.2,152c2.3-1.8,5.6-1.4,7.4,0.9
				c1.8,2.3,1.4,5.6-0.9,7.4c-2.3,1.8-5.6,1.3-7.4-0.9C345.5,157,345.9,153.8,348.2,152z"/>
			<path fill="#0F0F0F" stroke="#0F0F0F" stroke-width="1.3432" stroke-miterlimit="10" d="M350.2,154.5c0.9-0.7,2.2-0.5,2.9,0.4
				c0.7,0.9,0.5,2.2-0.4,2.9c-0.9,0.7-2.2,0.5-2.9-0.4C349.1,156.5,349.3,155.2,350.2,154.5z"/>
		</g>
		<g>
			<path fill="#8A7F81" stroke="#0F0F0F" stroke-width="1.0635" stroke-miterlimit="10" d="M332.7,150.5c3.1-2.4,7.6-1.9,10.1,1.3
				c2.4,3.1,1.8,7.6-1.3,10.1c-3.1,2.4-7.6,1.9-10.1-1.3C329,157.4,329.5,152.9,332.7,150.5z"/>
			<path fill="none" stroke="#0F0F0F" stroke-width="1.0635" stroke-miterlimit="10" d="M333.8,152c2.3-1.8,5.6-1.4,7.4,0.9
				c1.8,2.3,1.4,5.6-0.9,7.4c-2.3,1.8-5.6,1.3-7.4-0.9C331.1,157,331.6,153.8,333.8,152z"/>
			<path fill="#0F0F0F" stroke="#0F0F0F" stroke-width="1.3432" stroke-miterlimit="10" d="M335.8,154.5c0.9-0.7,2.2-0.5,2.9,0.4
				c0.7,0.9,0.5,2.2-0.4,2.9c-0.9,0.7-2.2,0.5-2.9-0.4C334.8,156.5,334.9,155.2,335.8,154.5z"/>
		</g>
		<g>
			<path fill="#8A7F81" stroke="#0F0F0F" stroke-width="1.0635" stroke-miterlimit="10" d="M318.3,150.5c3.1-2.4,7.6-1.9,10.1,1.3
				c2.4,3.1,1.8,7.6-1.3,10.1c-3.1,2.4-7.6,1.9-10.1-1.3C314.6,157.4,315.2,152.9,318.3,150.5z"/>
			<path fill="none" stroke="#0F0F0F" stroke-width="1.0635" stroke-miterlimit="10" d="M319.5,152c2.3-1.8,5.6-1.4,7.4,0.9
				c1.8,2.3,1.4,5.6-0.9,7.4c-2.3,1.8-5.6,1.3-7.4-0.9C316.8,157,317.2,153.8,319.5,152z"/>
			<path fill="#0F0F0F" stroke="#0F0F0F" stroke-width="1.3432" stroke-miterlimit="10" d="M321.5,154.5c0.9-0.7,2.2-0.5,2.9,0.4
				c0.7,0.9,0.5,2.2-0.4,2.9c-0.9,0.7-2.2,0.5-2.9-0.4C320.4,156.5,320.6,155.2,321.5,154.5z"/>
		</g>
		<g>
			<path fill="#8A7F81" stroke="#0F0F0F" stroke-width="1.0635" stroke-miterlimit="10" d="M303.9,150.5c3.1-2.4,7.6-1.9,10.1,1.3
				c2.4,3.1,1.8,7.6-1.3,10.1c-3.1,2.4-7.6,1.9-10.1-1.3C300.2,157.4,300.8,152.9,303.9,150.5z"/>
			<path fill="none" stroke="#0F0F0F" stroke-width="1.0635" stroke-miterlimit="10" d="M305.1,152c2.3-1.8,5.6-1.4,7.4,0.9
				c1.8,2.3,1.4,5.6-0.9,7.4c-2.3,1.8-5.6,1.3-7.4-0.9C302.4,157,302.8,153.8,305.1,152z"/>
			<path fill="#0F0F0F" stroke="#0F0F0F" stroke-width="1.3432" stroke-miterlimit="10" d="M307.1,154.5c0.9-0.7,2.2-0.5,2.9,0.4
				c0.7,0.9,0.5,2.2-0.4,2.9c-0.9,0.7-2.2,0.5-2.9-0.4C306,156.5,306.2,155.2,307.1,154.5z"/>
		</g>
		<g>
			<path fill="#8A7F81" stroke="#0F0F0F" stroke-width="1.0635" stroke-miterlimit="10" d="M289.6,150.5c3.1-2.4,7.6-1.9,10.1,1.3
				c2.4,3.1,1.8,7.6-1.3,10.1c-3.1,2.4-7.6,1.9-10.1-1.3C285.9,157.4,286.4,152.9,289.6,150.5z"/>
			<path fill="none" stroke="#0F0F0F" stroke-width="1.0635" stroke-miterlimit="10" d="M290.8,152c2.3-1.8,5.6-1.4,7.4,0.9
				c1.8,2.3,1.4,5.6-0.9,7.4c-2.3,1.8-5.6,1.3-7.4-0.9C288.1,157,288.5,153.8,290.8,152z"/>
			<path fill="#0F0F0F" stroke="#0F0F0F" stroke-width="1.3432" stroke-miterlimit="10" d="M292.7,154.5c0.9-0.7,2.2-0.5,2.9,0.4
				c0.7,0.9,0.5,2.2-0.4,2.9c-0.9,0.7-2.2,0.5-2.9-0.4C291.7,156.5,291.8,155.2,292.7,154.5z"/>
		</g>
		<g>
			<path fill="#8A7F81" stroke="#0F0F0F" stroke-width="1.0635" stroke-miterlimit="10" d="M275.2,150.5c3.1-2.4,7.6-1.9,10.1,1.3
				c2.4,3.1,1.8,7.6-1.3,10.1c-3.1,2.4-7.6,1.9-10.1-1.3C271.5,157.4,272.1,152.9,275.2,150.5z"/>
			<path fill="none" stroke="#0F0F0F" stroke-width="1.0635" stroke-miterlimit="10" d="M276.4,152c2.3-1.8,5.6-1.4,7.4,0.9
				c1.8,2.3,1.4,5.6-0.9,7.4c-2.3,1.8-5.6,1.3-7.4-0.9C273.7,157,274.1,153.8,276.4,152z"/>
			<path fill="#0F0F0F" stroke="#0F0F0F" stroke-width="1.3432" stroke-miterlimit="10" d="M278.4,154.5c0.9-0.7,2.2-0.5,2.9,0.4
				c0.7,0.9,0.5,2.2-0.4,2.9c-0.9,0.7-2.2,0.5-2.9-0.4C277.3,156.5,277.5,155.2,278.4,154.5z"/>
		</g>
		<g>
			<path fill="#8A7F81" stroke="#0F0F0F" stroke-width="1.0635" stroke-miterlimit="10" d="M260.9,150.5c3.1-2.4,7.6-1.9,10.1,1.3
				c2.4,3.1,1.8,7.6-1.3,10.1c-3.1,2.4-7.6,1.9-10.1-1.3C257.2,157.4,257.7,152.9,260.9,150.5z"/>
			<path fill="none" stroke="#0F0F0F" stroke-width="1.0635" stroke-miterlimit="10" d="M262,152c2.3-1.8,5.6-1.4,7.4,0.9
				c1.8,2.3,1.4,5.6-0.9,7.4c-2.3,1.8-5.6,1.3-7.4-0.9C259.3,157,259.8,153.8,262,152z"/>
			<path fill="#0F0F0F" stroke="#0F0F0F" stroke-width="1.3432" stroke-miterlimit="10" d="M264,154.5c0.9-0.7,2.2-0.5,2.9,0.4
				c0.7,0.9,0.5,2.2-0.4,2.9c-0.9,0.7-2.2,0.5-2.9-0.4C263,156.5,263.1,155.2,264,154.5z"/>
		</g>
		<g>
			<path fill="#8A7F81" stroke="#0F0F0F" stroke-width="1.0635" stroke-miterlimit="10" d="M246.5,150.5c3.1-2.4,7.6-1.9,10.1,1.3
				c2.4,3.1,1.8,7.6-1.3,10.1c-3.1,2.4-7.6,1.9-10.1-1.3C242.8,157.4,243.4,152.9,246.5,150.5z"/>
			<path fill="none" stroke="#0F0F0F" stroke-width="1.0635" stroke-miterlimit="10" d="M247.7,152c2.3-1.8,5.6-1.4,7.4,0.9
				c1.8,2.3,1.4,5.6-0.9,7.4c-2.3,1.8-5.6,1.3-7.4-0.9C245,157,245.4,153.8,247.7,152z"/>
			<path fill="#0F0F0F" stroke="#0F0F0F" stroke-width="1.3432" stroke-miterlimit="10" d="M249.7,154.5c0.9-0.7,2.2-0.5,2.9,0.4
				c0.7,0.9,0.5,2.2-0.4,2.9c-0.9,0.7-2.2,0.5-2.9-0.4C248.6,156.5,248.8,155.2,249.7,154.5z"/>
		</g>
		<g>
			<path fill="#8A7F81" stroke="#0F0F0F" stroke-width="1.0635" stroke-miterlimit="10" d="M232.1,150.5c3.1-2.4,7.6-1.9,10.1,1.3
				c2.4,3.1,1.8,7.6-1.3,10.1c-3.1,2.4-7.6,1.9-10.1-1.3C228.4,157.4,229,152.9,232.1,150.5z"/>
			<path fill="none" stroke="#0F0F0F" stroke-width="1.0635" stroke-miterlimit="10" d="M233.3,152c2.3-1.8,5.6-1.4,7.4,0.9
				c1.8,2.3,1.4,5.6-0.9,7.4c-2.3,1.8-5.6,1.3-7.4-0.9C230.6,157,231,153.8,233.3,152z"/>
			<path fill="#0F0F0F" stroke="#0F0F0F" stroke-width="1.3432" stroke-miterlimit="10" d="M235.3,154.5c0.9-0.7,2.2-0.5,2.9,0.4
				c0.7,0.9,0.5,2.2-0.4,2.9c-0.9,0.7-2.2,0.5-2.9-0.4C234.2,156.5,234.4,155.2,235.3,154.5z"/>
		</g>
		<g>
			<path fill="#8A7F81" stroke="#0F0F0F" stroke-width="1.0635" stroke-miterlimit="10" d="M217.8,150.5c3.1-2.4,7.6-1.9,10.1,1.3
				c2.4,3.1,1.8,7.6-1.3,10.1c-3.1,2.4-7.6,1.9-10.1-1.3C214.1,157.4,214.7,152.9,217.8,150.5z"/>
			<path fill="none" stroke="#0F0F0F" stroke-width="1.0635" stroke-miterlimit="10" d="M219,152c2.3-1.8,5.6-1.4,7.4,0.9
				c1.8,2.3,1.4,5.6-0.9,7.4c-2.3,1.8-5.6,1.3-7.4-0.9C216.3,157,216.7,153.8,219,152z"/>
			<path fill="#0F0F0F" stroke="#0F0F0F" stroke-width="1.3432" stroke-miterlimit="10" d="M220.9,154.5c0.9-0.7,2.2-0.5,2.9,0.4
				c0.7,0.9,0.5,2.2-0.4,2.9c-0.9,0.7-2.2,0.5-2.9-0.4C219.9,156.5,220,155.2,220.9,154.5z"/>
		</g>
		<g>
			<path fill="#8A7F81" stroke="#0F0F0F" stroke-width="1.0635" stroke-miterlimit="10" d="M203.4,150.5c3.1-2.4,7.6-1.9,10.1,1.3
				c2.4,3.1,1.8,7.6-1.3,10.1c-3.1,2.4-7.6,1.9-10.1-1.3C199.7,157.4,200.3,152.9,203.4,150.5z"/>
			<path fill="none" stroke="#0F0F0F" stroke-width="1.0635" stroke-miterlimit="10" d="M204.6,152c2.3-1.8,5.6-1.4,7.4,0.9
				c1.8,2.3,1.4,5.6-0.9,7.4c-2.3,1.8-5.6,1.3-7.4-0.9C201.9,157,202.3,153.8,204.6,152z"/>
			<path fill="#0F0F0F" stroke="#0F0F0F" stroke-width="1.3432" stroke-miterlimit="10" d="M206.6,154.5c0.9-0.7,2.2-0.5,2.9,0.4
				c0.7,0.9,0.5,2.2-0.4,2.9c-0.9,0.7-2.2,0.5-2.9-0.4C205.5,156.5,205.7,155.2,206.6,154.5z"/>
		</g>
		<g>
			<path fill="#8A7F81" stroke="#0F0F0F" stroke-width="1.0635" stroke-miterlimit="10" d="M189.1,150.5c3.1-2.4,7.6-1.9,10.1,1.3
				c2.4,3.1,1.8,7.6-1.3,10.1c-3.1,2.4-7.6,1.9-10.1-1.3C185.4,157.4,185.9,152.9,189.1,150.5z"/>
			<path fill="none" stroke="#0F0F0F" stroke-width="1.0635" stroke-miterlimit="10" d="M190.3,152c2.3-1.8,5.6-1.4,7.4,0.9
				c1.8,2.3,1.4,5.6-0.9,7.4c-2.3,1.8-5.6,1.3-7.4-0.9C187.5,157,188,153.8,190.3,152z"/>
			<path fill="#0F0F0F" stroke="#0F0F0F" stroke-width="1.3432" stroke-miterlimit="10" d="M192.2,154.5c0.9-0.7,2.2-0.5,2.9,0.4
				c0.7,0.9,0.5,2.2-0.4,2.9c-0.9,0.7-2.2,0.5-2.9-0.4C191.2,156.5,191.3,155.2,192.2,154.5z"/>
		</g>
		<g>
			<path fill="#8A7F81" stroke="#0F0F0F" stroke-width="1.0635" stroke-miterlimit="10" d="M173.9,149.5c3.1-2.4,7.6-1.9,10.1,1.3
				c2.4,3.1,1.8,7.6-1.3,10.1c-3.1,2.4-7.6,1.9-10.1-1.3C170.2,156.4,170.8,151.9,173.9,149.5z"/>
			<path fill="none" stroke="#0F0F0F" stroke-width="1.0635" stroke-miterlimit="10" d="M175.1,151c2.3-1.8,5.6-1.4,7.4,0.9
				c1.8,2.3,1.4,5.6-0.9,7.4c-2.3,1.8-5.6,1.3-7.4-0.9C172.4,156.1,172.8,152.8,175.1,151z"/>
			<path fill="#0F0F0F" stroke="#0F0F0F" stroke-width="1.3432" stroke-miterlimit="10" d="M177.1,153.6c0.9-0.7,2.2-0.5,2.9,0.4
				c0.7,0.9,0.5,2.2-0.4,2.9c-0.9,0.7-2.2,0.5-2.9-0.4C176,155.5,176.2,154.2,177.1,153.6z"/>
		</g>
		<g>
			<path fill="#8A7F81" stroke="#0F0F0F" stroke-width="1.0635" stroke-miterlimit="10" d="M159.6,148.4c3.1-2.4,7.6-1.9,10.1,1.3
				c2.4,3.1,1.8,7.6-1.3,10.1c-3.1,2.4-7.6,1.9-10.1-1.3C155.8,155.4,156.4,150.8,159.6,148.4z"/>
			<path fill="none" stroke="#0F0F0F" stroke-width="1.0635" stroke-miterlimit="10" d="M160.7,149.9c2.3-1.8,5.6-1.4,7.4,0.9
				c1.8,2.3,1.4,5.6-0.9,7.4c-2.3,1.8-5.6,1.3-7.4-0.9C158,155,158.4,151.7,160.7,149.9z"/>
			<path fill="#0F0F0F" stroke="#0F0F0F" stroke-width="1.3432" stroke-miterlimit="10" d="M162.7,152.5c0.9-0.7,2.2-0.5,2.9,0.4
				c0.7,0.9,0.5,2.2-0.4,2.9c-0.9,0.7-2.2,0.5-2.9-0.4C161.7,154.5,161.8,153.2,162.7,152.5z"/>
		</g>
		<g>
			<path fill="#8A7F81" stroke="#0F0F0F" stroke-width="1.0635" stroke-miterlimit="10" d="M145.2,147.4c3.1-2.4,7.6-1.9,10.1,1.3
				c2.4,3.1,1.8,7.6-1.3,10.1c-3.1,2.4-7.6,1.9-10.1-1.3C141.5,154.3,142.1,149.8,145.2,147.4z"/>
			<path fill="none" stroke="#0F0F0F" stroke-width="1.0635" stroke-miterlimit="10" d="M146.4,148.9c2.3-1.8,5.6-1.4,7.4,0.9
				c1.8,2.3,1.4,5.6-0.9,7.4c-2.3,1.8-5.6,1.3-7.4-0.9C143.7,154,144.1,150.7,146.4,148.9z"/>
			<path fill="#0F0F0F" stroke="#0F0F0F" stroke-width="1.3432" stroke-miterlimit="10" d="M148.3,151.5c0.9-0.7,2.2-0.5,2.9,0.4
				c0.7,0.9,0.5,2.2-0.4,2.9c-0.9,0.7-2.2,0.5-2.9-0.4C147.3,153.4,147.5,152.1,148.3,151.5z"/>
		</g>
		<g>
			<path fill="#8A7F81" stroke="#0F0F0F" stroke-width="1.0635" stroke-miterlimit="10" d="M130.8,146.2c3.1-2.4,7.6-1.9,10.1,1.3
				c2.4,3.1,1.8,7.6-1.3,10.1c-3.1,2.4-7.6,1.9-10.1-1.3C127.1,153.1,127.7,148.6,130.8,146.2z"/>
			<path fill="none" stroke="#0F0F0F" stroke-width="1.0635" stroke-miterlimit="10" d="M132,147.7c2.3-1.8,5.6-1.4,7.4,0.9
				c1.8,2.3,1.4,5.6-0.9,7.4c-2.3,1.8-5.6,1.3-7.4-0.9C129.3,152.8,129.7,149.5,132,147.7z"/>
			<path fill="#0F0F0F" stroke="#0F0F0F" stroke-width="1.3432" stroke-miterlimit="10" d="M134,150.3c0.9-0.7,2.2-0.5,2.9,0.4
				c0.7,0.9,0.5,2.2-0.4,2.9c-0.9,0.7-2.2,0.5-2.9-0.4C132.9,152.2,133.1,151,134,150.3z"/>
		</g>
		<g>
			<path fill="#8A7F81" stroke="#0F0F0F" stroke-width="1.0635" stroke-miterlimit="10" d="M116.5,145.3c3.1-2.4,7.6-1.9,10.1,1.3
				c2.4,3.1,1.8,7.6-1.3,10.1c-3.1,2.4-7.6,1.9-10.1-1.3C112.8,152.3,113.3,147.8,116.5,145.3z"/>
			<path fill="none" stroke="#0F0F0F" stroke-width="1.0635" stroke-miterlimit="10" d="M117.7,146.9c2.3-1.8,5.6-1.4,7.4,0.9
				c1.8,2.3,1.4,5.6-0.9,7.4c-2.3,1.8-5.6,1.3-7.4-0.9C114.9,151.9,115.4,148.7,117.7,146.9z"/>
			<path fill="#0F0F0F" stroke="#0F0F0F" stroke-width="1.3432" stroke-miterlimit="10" d="M119.6,149.4c0.9-0.7,2.2-0.5,2.9,0.4
				c0.7,0.9,0.5,2.2-0.4,2.9c-0.9,0.7-2.2,0.5-2.9-0.4C118.6,151.4,118.7,150.1,119.6,149.4z"/>
		</g>
		<line fill="none" stroke="#000000" stroke-width="3" stroke-miterlimit="10" x1="182.5" y1="5" x2="182.5" y2="164.4"/>
		<g>
			<line fill="none" stroke="#000000" stroke-miterlimit="10" x1="575.6" y1="148.7" x2="112" y2="148.7"/>
			<line fill="none" stroke="#000000" stroke-miterlimit="10" x1="575.6" y1="156.2" x2="112" y2="156.2"/>
			<line fill="none" stroke="#000000" stroke-miterlimit="10" x1="575.6" y1="141.2" x2="111.6" y2="141.2"/>
			<line fill="none" stroke="#000000" stroke-miterlimit="10" x1="575.6" y1="133.7" x2="111.6" y2="133.7"/>
			<line fill="none" stroke="#000000" stroke-miterlimit="10" x1="575.6" y1="118.6" x2="111.6" y2="118.6"/>
			<line fill="none" stroke="#000000" stroke-miterlimit="10" x1="575.6" y1="126.1" x2="111.6" y2="126.1"/>
		</g>
		<polygon fill="none" stroke="#000000" stroke-width="3" stroke-miterlimit="10" points="111.6,159.3 111.6,10.8 181.2,5 575.6,5 
			575.6,81.8 575.6,87.5 575.6,164.4 181.2,164.4 		"/>
	</g>
</g>
</svg>
