<?xml version="1.0" encoding="utf-8"?>
<!DOCTYPE svg PUBLIC "-//W3C//DTD SVG 1.1//EN" "http://www.w3.org/Graphics/SVG/1.1/DTD/svg11.dtd">
<svg version="1.1" xmlns="http://www.w3.org/2000/svg" xmlns:xlink="http://www.w3.org/1999/xlink" x="0px" y="0px" width="476px"
	 height="312px" viewBox="0 0 476 312" enable-background="new 0 0 476 312" xml:space="preserve">
<g>
	<g>
		<g>
			<path fill="none" stroke="#0F0F0F" stroke-width="1.263" stroke-miterlimit="10" d="M159.3,152.6c0,4.3-3.5,7.8-7.8,7.8
				c-4.3,0-7.8-3.5-7.8-7.8c0-4.3,3.5-7.8,7.8-7.8C155.8,144.8,159.3,148.3,159.3,152.6z"/>
			<path fill="none" stroke="#0F0F0F" stroke-width="1.263" stroke-miterlimit="10" d="M162.2,152.6c0,5.9-4.8,10.7-10.7,10.7
				c-5.9,0-10.7-4.8-10.7-10.7c0-5.9,4.8-10.7,10.7-10.7C157.4,141.9,162.2,146.7,162.2,152.6z"/>
			<path fill="#0F0F0F" stroke="#0F0F0F" stroke-width="1.263" stroke-miterlimit="10" d="M154.5,152.6c0,1.7-1.4,3-3,3
				c-1.7,0-3-1.4-3-3c0-1.7,1.4-3,3-3C153.1,149.6,154.5,150.9,154.5,152.6z"/>
		</g>
		<g>
			<path fill="none" stroke="#0F0F0F" stroke-width="1.263" stroke-miterlimit="10" d="M180.7,152.6c0,4.3-3.5,7.8-7.8,7.8
				c-4.3,0-7.8-3.5-7.8-7.8c0-4.3,3.5-7.8,7.8-7.8C177.2,144.8,180.7,148.3,180.7,152.6z"/>
			<path fill="none" stroke="#0F0F0F" stroke-width="1.263" stroke-miterlimit="10" d="M183.6,152.6c0,5.9-4.8,10.7-10.7,10.7
				c-5.9,0-10.7-4.8-10.7-10.7c0-5.9,4.8-10.7,10.7-10.7C178.8,141.9,183.6,146.7,183.6,152.6z"/>
			<path fill="#0F0F0F" stroke="#0F0F0F" stroke-width="1.263" stroke-miterlimit="10" d="M175.9,152.6c0,1.7-1.4,3-3,3
				c-1.7,0-3-1.4-3-3c0-1.7,1.4-3,3-3C174.6,149.6,175.9,150.9,175.9,152.6z"/>
		</g>
		<g>
			<path fill="none" stroke="#0F0F0F" stroke-width="1.263" stroke-miterlimit="10" d="M202.2,152.6c0,4.3-3.5,7.8-7.8,7.8
				s-7.8-3.5-7.8-7.8c0-4.3,3.5-7.8,7.8-7.8S202.2,148.3,202.2,152.6z"/>
			<path fill="none" stroke="#0F0F0F" stroke-width="1.263" stroke-miterlimit="10" d="M205,152.6c0,5.9-4.8,10.7-10.7,10.7
				c-5.9,0-10.7-4.8-10.7-10.7c0-5.9,4.8-10.7,10.7-10.7C200.2,141.9,205,146.7,205,152.6z"/>
			<path fill="#0F0F0F" stroke="#0F0F0F" stroke-width="1.263" stroke-miterlimit="10" d="M197.4,152.6c0,1.7-1.4,3-3,3
				c-1.7,0-3-1.4-3-3c0-1.7,1.4-3,3-3C196,149.6,197.4,150.9,197.4,152.6z"/>
		</g>
		<g>
			<path fill="none" stroke="#0F0F0F" stroke-width="1.263" stroke-miterlimit="10" d="M223.6,152.6c0,4.3-3.5,7.8-7.8,7.8
				c-4.3,0-7.8-3.5-7.8-7.8c0-4.3,3.5-7.8,7.8-7.8C220.1,144.8,223.6,148.3,223.6,152.6z"/>
			<path fill="none" stroke="#0F0F0F" stroke-width="1.263" stroke-miterlimit="10" d="M226.5,152.6c0,5.9-4.8,10.7-10.7,10.7
				c-5.9,0-10.7-4.8-10.7-10.7c0-5.9,4.8-10.7,10.7-10.7C221.7,141.9,226.5,146.7,226.5,152.6z"/>
			<path fill="#0F0F0F" stroke="#0F0F0F" stroke-width="1.263" stroke-miterlimit="10" d="M218.8,152.6c0,1.7-1.4,3-3,3s-3-1.4-3-3
				c0-1.7,1.4-3,3-3S218.8,150.9,218.8,152.6z"/>
		</g>
		<g>
			<path fill="none" stroke="#0F0F0F" stroke-width="1.263" stroke-miterlimit="10" d="M245,152.6c0,4.3-3.5,7.8-7.8,7.8
				c-4.3,0-7.8-3.5-7.8-7.8c0-4.3,3.5-7.8,7.8-7.8C241.5,144.8,245,148.3,245,152.6z"/>
			<path fill="none" stroke="#0F0F0F" stroke-width="1.263" stroke-miterlimit="10" d="M247.9,152.6c0,5.9-4.8,10.7-10.7,10.7
				c-5.9,0-10.7-4.8-10.7-10.7c0-5.9,4.8-10.7,10.7-10.7C243.1,141.9,247.9,146.7,247.9,152.6z"/>
			<path fill="#0F0F0F" stroke="#0F0F0F" stroke-width="1.263" stroke-miterlimit="10" d="M240.2,152.6c0,1.7-1.4,3-3,3s-3-1.4-3-3
				c0-1.7,1.4-3,3-3S240.2,150.9,240.2,152.6z"/>
		</g>
		<g>
			<path fill="none" stroke="#0F0F0F" stroke-width="1.263" stroke-miterlimit="10" d="M266.5,152.6c0,4.3-3.5,7.8-7.8,7.8
				s-7.8-3.5-7.8-7.8c0-4.3,3.5-7.8,7.8-7.8S266.5,148.3,266.5,152.6z"/>
			<path fill="none" stroke="#0F0F0F" stroke-width="1.263" stroke-miterlimit="10" d="M269.4,152.6c0,5.9-4.8,10.7-10.7,10.7
				c-5.9,0-10.7-4.8-10.7-10.7c0-5.9,4.8-10.7,10.7-10.7C264.6,141.9,269.4,146.7,269.4,152.6z"/>
			<path fill="#0F0F0F" stroke="#0F0F0F" stroke-width="1.263" stroke-miterlimit="10" d="M261.7,152.6c0,1.7-1.4,3-3,3
				c-1.7,0-3-1.4-3-3c0-1.7,1.4-3,3-3C260.3,149.6,261.7,150.9,261.7,152.6z"/>
		</g>
		<g>
			<path fill="none" stroke="#0F0F0F" stroke-width="1.263" stroke-miterlimit="10" d="M287.9,152.6c0,4.3-3.5,7.8-7.8,7.8
				c-4.3,0-7.8-3.5-7.8-7.8c0-4.3,3.5-7.8,7.8-7.8C284.4,144.8,287.9,148.3,287.9,152.6z"/>
			<path fill="none" stroke="#0F0F0F" stroke-width="1.263" stroke-miterlimit="10" d="M290.8,152.6c0,5.9-4.8,10.7-10.7,10.7
				c-5.9,0-10.7-4.8-10.7-10.7c0-5.9,4.8-10.7,10.7-10.7C286,141.9,290.8,146.7,290.8,152.6z"/>
			<path fill="#0F0F0F" stroke="#0F0F0F" stroke-width="1.263" stroke-miterlimit="10" d="M283.1,152.6c0,1.7-1.4,3-3,3s-3-1.4-3-3
				c0-1.7,1.4-3,3-3S283.1,150.9,283.1,152.6z"/>
		</g>
		<g>
			<path fill="none" stroke="#0F0F0F" stroke-width="1.263" stroke-miterlimit="10" d="M309.4,152.6c0,4.3-3.5,7.8-7.8,7.8
				s-7.8-3.5-7.8-7.8c0-4.3,3.5-7.8,7.8-7.8S309.4,148.3,309.4,152.6z"/>
			<path fill="none" stroke="#0F0F0F" stroke-width="1.263" stroke-miterlimit="10" d="M312.3,152.6c0,5.9-4.8,10.7-10.7,10.7
				c-5.9,0-10.7-4.8-10.7-10.7c0-5.9,4.8-10.7,10.7-10.7C307.5,141.9,312.3,146.7,312.3,152.6z"/>
			<path fill="#0F0F0F" stroke="#0F0F0F" stroke-width="1.263" stroke-miterlimit="10" d="M304.6,152.6c0,1.7-1.4,3-3,3
				c-1.7,0-3-1.4-3-3c0-1.7,1.4-3,3-3C303.2,149.6,304.6,150.9,304.6,152.6z"/>
		</g>
		<g>
			<path fill="none" stroke="#0F0F0F" stroke-width="1.263" stroke-miterlimit="10" d="M330.8,152.6c0,4.3-3.5,7.8-7.8,7.8
				c-4.3,0-7.8-3.5-7.8-7.8c0-4.3,3.5-7.8,7.8-7.8C327.3,144.8,330.8,148.3,330.8,152.6z"/>
			<path fill="none" stroke="#0F0F0F" stroke-width="1.263" stroke-miterlimit="10" d="M333.7,152.6c0,5.9-4.8,10.7-10.7,10.7
				c-5.9,0-10.7-4.8-10.7-10.7c0-5.9,4.8-10.7,10.7-10.7C328.9,141.9,333.7,146.7,333.7,152.6z"/>
			<path fill="#0F0F0F" stroke="#0F0F0F" stroke-width="1.263" stroke-miterlimit="10" d="M326,152.6c0,1.7-1.4,3-3,3
				c-1.7,0-3-1.4-3-3c0-1.7,1.4-3,3-3C324.7,149.6,326,150.9,326,152.6z"/>
		</g>
		<g>
			<circle fill="none" stroke="#0F0F0F" stroke-width="1.263" stroke-miterlimit="10" cx="140.7" cy="134.1" r="7.8"/>
			<path fill="none" stroke="#0F0F0F" stroke-width="1.263" stroke-miterlimit="10" d="M151.4,134.1c0,5.9-4.8,10.7-10.7,10.7
				c-5.9,0-10.7-4.8-10.7-10.7c0-5.9,4.8-10.7,10.7-10.7C146.6,123.3,151.4,128.1,151.4,134.1z"/>
			<path fill="#0F0F0F" stroke="#0F0F0F" stroke-width="1.263" stroke-miterlimit="10" d="M143.8,134.1c0,1.7-1.4,3-3,3
				c-1.7,0-3-1.4-3-3c0-1.7,1.4-3,3-3C142.4,131,143.8,132.4,143.8,134.1z"/>
		</g>
		<g>
			<path fill="none" stroke="#0F0F0F" stroke-width="1.263" stroke-miterlimit="10" d="M170,134.1c0,4.3-3.5,7.8-7.8,7.8
				c-4.3,0-7.8-3.5-7.8-7.8c0-4.3,3.5-7.8,7.8-7.8C166.5,126.2,170,129.7,170,134.1z"/>
			<path fill="none" stroke="#0F0F0F" stroke-width="1.263" stroke-miterlimit="10" d="M172.9,134.1c0,5.9-4.8,10.7-10.7,10.7
				c-5.9,0-10.7-4.8-10.7-10.7c0-5.9,4.8-10.7,10.7-10.7C168.1,123.3,172.9,128.1,172.9,134.1z"/>
			<path fill="#0F0F0F" stroke="#0F0F0F" stroke-width="1.263" stroke-miterlimit="10" d="M165.2,134.1c0,1.7-1.4,3-3,3
				c-1.7,0-3-1.4-3-3c0-1.7,1.4-3,3-3C163.8,131,165.2,132.4,165.2,134.1z"/>
		</g>
		<g>
			<circle fill="none" stroke="#0F0F0F" stroke-width="1.263" stroke-miterlimit="10" cx="183.6" cy="134.1" r="7.8"/>
			<path fill="none" stroke="#0F0F0F" stroke-width="1.263" stroke-miterlimit="10" d="M194.3,134.1c0,5.9-4.8,10.7-10.7,10.7
				c-5.9,0-10.7-4.8-10.7-10.7c0-5.9,4.8-10.7,10.7-10.7C189.5,123.3,194.3,128.1,194.3,134.1z"/>
			<path fill="#0F0F0F" stroke="#0F0F0F" stroke-width="1.263" stroke-miterlimit="10" d="M186.6,134.1c0,1.7-1.4,3-3,3
				c-1.7,0-3-1.4-3-3c0-1.7,1.4-3,3-3C185.3,131,186.6,132.4,186.6,134.1z"/>
		</g>
		<g>
			<circle fill="none" stroke="#0F0F0F" stroke-width="1.263" stroke-miterlimit="10" cx="205" cy="134.1" r="7.8"/>
			<path fill="none" stroke="#0F0F0F" stroke-width="1.263" stroke-miterlimit="10" d="M215.8,134.1c0,5.9-4.8,10.7-10.7,10.7
				c-5.9,0-10.7-4.8-10.7-10.7c0-5.9,4.8-10.7,10.7-10.7C211,123.3,215.8,128.1,215.8,134.1z"/>
			<path fill="#0F0F0F" stroke="#0F0F0F" stroke-width="1.263" stroke-miterlimit="10" d="M208.1,134.1c0,1.7-1.4,3-3,3s-3-1.4-3-3
				c0-1.7,1.4-3,3-3S208.1,132.4,208.1,134.1z"/>
		</g>
		<g>
			<circle fill="none" stroke="#0F0F0F" stroke-width="1.263" stroke-miterlimit="10" cx="226.5" cy="134.1" r="7.8"/>
			<path fill="none" stroke="#0F0F0F" stroke-width="1.263" stroke-miterlimit="10" d="M237.2,134.1c0,5.9-4.8,10.7-10.7,10.7
				c-5.9,0-10.7-4.8-10.7-10.7c0-5.9,4.8-10.7,10.7-10.7C232.4,123.3,237.2,128.1,237.2,134.1z"/>
			<path fill="#0F0F0F" stroke="#0F0F0F" stroke-width="1.263" stroke-miterlimit="10" d="M229.5,134.1c0,1.7-1.4,3-3,3
				c-1.7,0-3-1.4-3-3c0-1.7,1.4-3,3-3C228.2,131,229.5,132.4,229.5,134.1z"/>
		</g>
		<g>
			<path fill="none" stroke="#0F0F0F" stroke-width="1.263" stroke-miterlimit="10" d="M255.8,134.1c0,4.3-3.5,7.8-7.8,7.8
				c-4.3,0-7.8-3.5-7.8-7.8c0-4.3,3.5-7.8,7.8-7.8C252.3,126.2,255.8,129.7,255.8,134.1z"/>
			<path fill="none" stroke="#0F0F0F" stroke-width="1.263" stroke-miterlimit="10" d="M258.6,134.1c0,5.9-4.8,10.7-10.7,10.7
				c-5.9,0-10.7-4.8-10.7-10.7c0-5.9,4.8-10.7,10.7-10.7C253.8,123.3,258.6,128.1,258.6,134.1z"/>
			<path fill="#0F0F0F" stroke="#0F0F0F" stroke-width="1.263" stroke-miterlimit="10" d="M251,134.1c0,1.7-1.4,3-3,3s-3-1.4-3-3
				c0-1.7,1.4-3,3-3S251,132.4,251,134.1z"/>
		</g>
		<g>
			<circle fill="none" stroke="#0F0F0F" stroke-width="1.263" stroke-miterlimit="10" cx="269.4" cy="134.1" r="7.8"/>
			<path fill="none" stroke="#0F0F0F" stroke-width="1.263" stroke-miterlimit="10" d="M280.1,134.1c0,5.9-4.8,10.7-10.7,10.7
				c-5.9,0-10.7-4.8-10.7-10.7c0-5.9,4.8-10.7,10.7-10.7C275.3,123.3,280.1,128.1,280.1,134.1z"/>
			<path fill="#0F0F0F" stroke="#0F0F0F" stroke-width="1.263" stroke-miterlimit="10" d="M272.4,134.1c0,1.7-1.4,3-3,3
				c-1.7,0-3-1.4-3-3c0-1.7,1.4-3,3-3C271,131,272.4,132.4,272.4,134.1z"/>
		</g>
		<g>
			<circle fill="none" stroke="#0F0F0F" stroke-width="1.263" stroke-miterlimit="10" cx="290.8" cy="134.1" r="7.8"/>
			<path fill="none" stroke="#0F0F0F" stroke-width="1.263" stroke-miterlimit="10" d="M301.5,134.1c0,5.9-4.8,10.7-10.7,10.7
				c-5.9,0-10.7-4.8-10.7-10.7c0-5.9,4.8-10.7,10.7-10.7C296.7,123.3,301.5,128.1,301.5,134.1z"/>
			<path fill="#0F0F0F" stroke="#0F0F0F" stroke-width="1.263" stroke-miterlimit="10" d="M293.8,134.1c0,1.7-1.4,3-3,3
				c-1.7,0-3-1.4-3-3c0-1.7,1.4-3,3-3C292.5,131,293.8,132.4,293.8,134.1z"/>
		</g>
		<g>
			<circle fill="none" stroke="#0F0F0F" stroke-width="1.263" stroke-miterlimit="10" cx="312.3" cy="134.1" r="7.8"/>
			<path fill="none" stroke="#0F0F0F" stroke-width="1.263" stroke-miterlimit="10" d="M323,134.1c0,5.9-4.8,10.7-10.7,10.7
				s-10.7-4.8-10.7-10.7c0-5.9,4.8-10.7,10.7-10.7S323,128.1,323,134.1z"/>
			<path fill="#0F0F0F" stroke="#0F0F0F" stroke-width="1.263" stroke-miterlimit="10" d="M315.3,134.1c0,1.7-1.4,3-3,3
				c-1.7,0-3-1.4-3-3c0-1.7,1.4-3,3-3C313.9,131,315.3,132.4,315.3,134.1z"/>
		</g>
		<g>
			<path fill="none" stroke="#0F0F0F" stroke-width="1.263" stroke-miterlimit="10" d="M341.5,134.1c0,4.3-3.5,7.8-7.8,7.8
				c-4.3,0-7.8-3.5-7.8-7.8c0-4.3,3.5-7.8,7.8-7.8C338,126.2,341.5,129.7,341.5,134.1z"/>
			<path fill="none" stroke="#0F0F0F" stroke-width="1.263" stroke-miterlimit="10" d="M344.4,134.1c0,5.9-4.8,10.7-10.7,10.7
				c-5.9,0-10.7-4.8-10.7-10.7c0-5.9,4.8-10.7,10.7-10.7C339.6,123.3,344.4,128.1,344.4,134.1z"/>
			<path fill="#0F0F0F" stroke="#0F0F0F" stroke-width="1.263" stroke-miterlimit="10" d="M336.7,134.1c0,1.7-1.4,3-3,3s-3-1.4-3-3
				c0-1.7,1.4-3,3-3S336.7,132.4,336.7,134.1z"/>
		</g>
	</g>
</g>
</svg>
