<?xml version="1.0" encoding="utf-8"?>
<!DOCTYPE svg PUBLIC "-//W3C//DTD SVG 1.1//EN" "http://www.w3.org/Graphics/SVG/1.1/DTD/svg11.dtd">
<svg version="1.1" xmlns="http://www.w3.org/2000/svg" xmlns:xlink="http://www.w3.org/1999/xlink" x="0px" y="0px" width="313px"
	 height="12px" viewBox="0 0 313 12" enable-background="new 0 0 313 12" xml:space="preserve">
<g>
	<g>
		<path fill="#FFFFFF" d="M311.9,9.4c-0.1,0-0.2,0-0.3,0l-0.1,0c-0.5-0.2-0.8-0.7-0.6-1.3c0.2-0.5,0.7-0.8,1.3-0.6l0.1,0
			c0.5,0.2,0.8,0.7,0.6,1.3C312.7,9.1,312.3,9.4,311.9,9.4z"/>
		<path fill="#FFFFFF" d="M299.1,11.1c-0.5,0-0.9-0.4-1-0.9c-0.1-0.5,0.3-1,0.9-1.1l0.2,0c0.5-0.1,1,0.3,1.1,0.9
			c0.1,0.5-0.3,1-0.9,1.1l-0.2,0C299.2,11.1,299.1,11.1,299.1,11.1z M296.1,11.1c0,0-0.1,0-0.1,0l-0.2,0c-0.5-0.1-0.9-0.6-0.9-1.1
			c0.1-0.5,0.6-0.9,1.1-0.9l0.2,0c0.5,0.1,0.9,0.6,0.9,1.1C297,10.7,296.6,11.1,296.1,11.1z M280.2,10.6c-0.4,0-0.8-0.3-1-0.7
			c-0.2-0.5,0.2-1.1,0.7-1.2l0.2-0.1c0.5-0.2,1.1,0.1,1.2,0.7c0.2,0.5-0.1,1.1-0.7,1.2l-0.2,0.1C280.3,10.6,280.2,10.6,280.2,10.6z
			 M302.3,10.4c-0.4,0-0.8-0.3-1-0.7c-0.2-0.5,0.1-1.1,0.6-1.3l0.2-0.1c0.5-0.2,1.1,0.1,1.3,0.6s-0.1,1.1-0.6,1.3l-0.2,0.1
			C302.5,10.4,302.4,10.4,302.3,10.4z M292.9,10.4c-0.1,0-0.2,0-0.3-0.1l-0.2-0.1c-0.5-0.2-0.8-0.8-0.6-1.3c0.2-0.5,0.8-0.8,1.3-0.6
			l0.2,0.1c0.5,0.2,0.8,0.7,0.6,1.3C293.7,10.1,293.3,10.4,292.9,10.4z M283.2,9.4c-0.4,0-0.8-0.3-1-0.7c-0.2-0.5,0.2-1.1,0.7-1.2
			l0.2-0.1c0.5-0.1,1.1,0.2,1.2,0.7c0.1,0.5-0.2,1.1-0.7,1.2l-0.2,0C283.4,9.4,283.3,9.4,283.2,9.4z M305.3,9.3
			c-0.4,0-0.8-0.3-1-0.7c-0.2-0.5,0.1-1.1,0.7-1.2l0.2-0.1c0.5-0.1,1.1,0.2,1.2,0.7c0.1,0.5-0.2,1.1-0.7,1.2l-0.2,0
			C305.5,9.3,305.4,9.3,305.3,9.3z M289.8,9.2c-0.1,0-0.2,0-0.3,0l-0.2,0c-0.5-0.1-0.9-0.7-0.7-1.2c0.1-0.5,0.7-0.9,1.2-0.7l0.2,0.1
			c0.5,0.1,0.8,0.7,0.7,1.2C290.7,8.9,290.3,9.2,289.8,9.2z M286.4,8.9c-0.5,0-1-0.4-1-0.9c0-0.6,0.4-1,0.9-1.1l0.2,0
			c0.5,0,1,0.4,1.1,0.9c0,0.6-0.4,1-0.9,1.1L286.4,8.9C286.5,8.9,286.4,8.9,286.4,8.9z M308.7,8.8C308.7,8.8,308.7,8.8,308.7,8.8
			l-0.2,0c-0.6,0-1-0.5-1-1s0.5-1,1-1l0.2,0c0.6,0,1,0.5,1,1C309.7,8.4,309.3,8.8,308.7,8.8z"/>
		<path fill="#FFFFFF" d="M233.8,11.1c-0.5,0-1-0.4-1-0.9c0-0.5,0.3-1,0.9-1.1c0,0,0.1,0,0.1,0c0.6,0,1.1,0.4,1.1,0.9
			c0,0.5-0.3,1-0.9,1.1C233.9,11.1,233.9,11.1,233.8,11.1C233.8,11.1,233.8,11.1,233.8,11.1z"/>
		<path fill="#FFFFFF" d="M212,11.2c-0.5,0-1-0.4-1-0.9c0-0.6,0.4-1,0.9-1.1l0.2,0c0.5-0.1,1,0.4,1.1,0.9c0,0.6-0.4,1-0.9,1.1
			L212,11.2C212,11.2,212,11.2,212,11.2z M230.7,11.1c0,0-0.1,0-0.1,0l-0.2,0c-0.5-0.1-0.9-0.6-0.8-1.1s0.6-0.9,1.1-0.8l0.2,0
			c0.5,0.1,0.9,0.6,0.9,1.1C231.6,10.7,231.2,11.1,230.7,11.1z M209,11c0,0-0.1,0-0.1,0l-0.2,0c-0.5-0.1-0.9-0.6-0.8-1.1
			c0.1-0.5,0.6-0.9,1.1-0.8l0.2,0c0.5,0.1,0.9,0.6,0.9,1.1C209.9,10.7,209.5,11,209,11z M193.4,10.7c-0.4,0-0.8-0.3-1-0.7
			c-0.1-0.5,0.2-1.1,0.7-1.2l0.2-0.1c0.5-0.2,1.1,0.1,1.2,0.7c0.2,0.5-0.1,1.1-0.7,1.2l-0.2,0.1C193.6,10.6,193.5,10.7,193.4,10.7z
			 M215.1,10.6c-0.4,0-0.8-0.3-1-0.7c-0.2-0.5,0.1-1.1,0.6-1.2l0.2-0.1c0.5-0.2,1.1,0.1,1.2,0.7c0.2,0.5-0.1,1.1-0.7,1.2l-0.2,0
			C215.3,10.6,215.2,10.6,215.1,10.6z M227.6,10.3c-0.1,0-0.2,0-0.3-0.1l-0.1-0.1c-0.5-0.2-0.8-0.8-0.6-1.3c0.2-0.5,0.7-0.8,1.3-0.6
			l0.2,0.1c0.5,0.2,0.8,0.8,0.6,1.3C228.4,10.1,228,10.3,227.6,10.3z M205.9,10.3c-0.1,0-0.2,0-0.3-0.1l-0.2-0.1
			c-0.5-0.2-0.8-0.8-0.6-1.3c0.2-0.5,0.8-0.8,1.3-0.6l0.2,0.1c0.5,0.2,0.8,0.8,0.6,1.3C206.7,10,206.3,10.3,205.9,10.3z M218.1,9.5
			c-0.4,0-0.8-0.3-0.9-0.7c-0.2-0.5,0.1-1.1,0.6-1.3l0.2-0.1c0.5-0.2,1.1,0.1,1.3,0.6c0.2,0.5-0.1,1.1-0.6,1.3l-0.2,0.1
			C218.3,9.4,218.2,9.5,218.1,9.5z M196.4,9.4c-0.4,0-0.8-0.3-0.9-0.7c-0.2-0.5,0.1-1.1,0.6-1.3l0.2-0.1c0.5-0.2,1.1,0.1,1.3,0.6
			c0.2,0.5-0.1,1.1-0.6,1.3l-0.2,0.1C196.6,9.4,196.5,9.4,196.4,9.4z M224.6,9.2c-0.1,0-0.2,0-0.3,0l-0.2,0
			c-0.5-0.1-0.9-0.7-0.7-1.2c0.1-0.5,0.7-0.9,1.2-0.7l0.2,0.1c0.5,0.1,0.9,0.7,0.7,1.2C225.4,8.9,225,9.2,224.6,9.2z M202.9,9.2
			c-0.1,0-0.2,0-0.2,0l-0.2,0c-0.5-0.1-0.9-0.7-0.8-1.2c0.1-0.5,0.7-0.9,1.2-0.8l0.2,0.1c0.5,0.1,0.9,0.7,0.7,1.2
			C203.7,8.9,203.3,9.2,202.9,9.2z M199.5,8.8c-0.5,0-1-0.4-1-1c0-0.6,0.4-1,1-1l0.2,0c0.5,0,1,0.4,1,1c0,0.6-0.4,1-1,1L199.5,8.8
			C199.5,8.8,199.5,8.8,199.5,8.8z M221.2,8.8c-0.5,0-1-0.4-1-0.9c0-0.6,0.4-1,0.9-1l0.2,0c0.5,0,1,0.4,1,1c0,0.6-0.4,1-1,1
			L221.2,8.8C221.2,8.8,221.2,8.8,221.2,8.8z"/>
		<path fill="#FFFFFF" d="M190.2,11.2c-0.5,0-1-0.4-1-0.9c0-0.5,0.3-1,0.8-1.1c0.1,0,0.1,0,0.2,0c0.6,0,1.1,0.4,1.1,0.9
			c0,0.5-0.3,1-0.8,1.1c-0.1,0-0.1,0-0.2,0L190.2,11.2C190.3,11.2,190.3,11.2,190.2,11.2z"/>
		<path fill="#FFFFFF" d="M168.6,11.2c-0.5,0-1-0.4-1-0.9c0-0.6,0.4-1,0.9-1.1l0.2,0c0.6,0,1,0.4,1.1,0.9s-0.4,1-0.9,1.1L168.6,11.2
			C168.6,11.2,168.6,11.2,168.6,11.2z M146.8,11.1c-0.5,0-1-0.4-1-0.9c0-0.6,0.4-1,0.9-1.1l0.2,0c0.6,0,1,0.4,1.1,0.9
			c0,0.6-0.4,1-0.9,1.1L146.8,11.1C146.9,11.1,146.9,11.1,146.8,11.1z M187.3,11.1c0,0-0.1,0-0.1,0l-0.2,0c-0.5-0.1-0.9-0.6-0.8-1.1
			c0.1-0.5,0.6-0.9,1.1-0.8l0.2,0c0.5,0.1,0.9,0.6,0.9,1.1C188.2,10.7,187.8,11.1,187.3,11.1z M143.8,11c0,0-0.1,0-0.1,0l-0.2,0
			c-0.5-0.1-0.9-0.6-0.8-1.1c0.1-0.5,0.6-0.9,1.1-0.8l0.2,0c0.5,0.1,0.9,0.6,0.9,1.1C144.8,10.7,144.3,11,143.8,11z M165.6,11
			c0,0-0.1,0-0.1,0l-0.2,0c-0.5-0.1-0.9-0.6-0.8-1.1c0.1-0.5,0.6-0.9,1.1-0.8l0.2,0c0.5,0.1,0.9,0.6,0.8,1.1
			C166.5,10.7,166.1,11,165.6,11z M171.7,10.6c-0.4,0-0.8-0.3-1-0.7c-0.2-0.5,0.2-1.1,0.7-1.2l0.2-0.1c0.5-0.2,1.1,0.1,1.2,0.7
			c0.2,0.5-0.1,1.1-0.7,1.2l-0.2,0.1C171.9,10.6,171.8,10.6,171.7,10.6z M150,10.6c-0.4,0-0.8-0.3-1-0.7c-0.2-0.5,0.1-1.1,0.7-1.2
			l0.2-0.1c0.5-0.2,1.1,0.1,1.3,0.6c0.2,0.5-0.1,1.1-0.6,1.3l-0.2,0.1C150.2,10.6,150.1,10.6,150,10.6z M128.3,10.6
			c-0.4,0-0.8-0.3-1-0.7c-0.2-0.5,0.1-1.1,0.7-1.2l0.2-0.1c0.5-0.2,1.1,0.1,1.2,0.7c0.2,0.5-0.1,1.1-0.7,1.2l-0.2,0.1
			C128.4,10.6,128.4,10.6,128.3,10.6z M184.2,10.3c-0.1,0-0.2,0-0.3-0.1l-0.2-0.1c-0.5-0.2-0.8-0.8-0.6-1.3c0.2-0.5,0.8-0.8,1.3-0.6
			l0.2,0.1c0.5,0.2,0.8,0.8,0.6,1.3C185,10,184.6,10.3,184.2,10.3z M140.7,10.3c-0.1,0-0.2,0-0.3-0.1l-0.2-0.1
			c-0.5-0.2-0.8-0.8-0.6-1.3c0.2-0.5,0.8-0.8,1.3-0.6l0.2,0.1c0.5,0.2,0.8,0.8,0.6,1.3C141.5,10,141.1,10.3,140.7,10.3z M162.5,10.2
			c-0.1,0-0.2,0-0.3-0.1l-0.2-0.1c-0.5-0.2-0.8-0.8-0.6-1.3c0.2-0.5,0.8-0.8,1.3-0.6l0.2,0.1c0.5,0.2,0.8,0.8,0.6,1.3
			C163.3,10,162.9,10.2,162.5,10.2z M153,9.5c-0.4,0-0.8-0.3-1-0.7c-0.2-0.5,0.2-1.1,0.7-1.2l0.2-0.1c0.5-0.1,1.1,0.2,1.2,0.7
			c0.1,0.5-0.2,1.1-0.7,1.2l-0.2,0C153.2,9.5,153.1,9.5,153,9.5z M174.7,9.5c-0.4,0-0.8-0.3-0.9-0.7c-0.2-0.5,0.1-1.1,0.6-1.3
			l0.2-0.1c0.5-0.2,1.1,0.1,1.3,0.6c0.2,0.5-0.1,1.1-0.6,1.3L175,9.4C174.9,9.5,174.8,9.5,174.7,9.5z M131.2,9.4
			c-0.4,0-0.8-0.3-0.9-0.7c-0.2-0.5,0.1-1.1,0.6-1.3l0.2-0.1c0.5-0.2,1.1,0.1,1.3,0.6c0.2,0.5-0.1,1.1-0.6,1.3l-0.2,0.1
			C131.5,9.4,131.4,9.4,131.2,9.4z M137.7,9.2c-0.1,0-0.2,0-0.2,0l-0.2,0c-0.5-0.1-0.9-0.7-0.8-1.2c0.1-0.5,0.7-0.9,1.2-0.8l0.2,0.1
			c0.5,0.1,0.9,0.7,0.7,1.2C138.6,8.9,138.2,9.2,137.7,9.2z M181.2,9.2c-0.1,0-0.2,0-0.2,0l-0.2,0c-0.5-0.1-0.9-0.7-0.7-1.2
			c0.1-0.5,0.7-0.9,1.2-0.7l0.2,0.1c0.5,0.1,0.9,0.7,0.7,1.2C182,8.9,181.6,9.2,181.2,9.2z M159.5,9.2c-0.1,0-0.2,0-0.3,0l0.2-1
			l-0.3,1l-0.1,0c-0.5-0.1-0.9-0.7-0.7-1.2c0.1-0.5,0.7-0.9,1.2-0.7l0.1,0c0,0,0.1,0,0.1,0c0.5,0.1,0.9,0.7,0.7,1.2
			C160.3,8.9,159.9,9.2,159.5,9.2z M156.1,9c-0.5,0-0.9-0.4-1-0.9c-0.1-0.5,0.4-1,0.9-1.1l0.2,0c0.6,0,1,0.4,1.1,0.9
			c0,0.6-0.4,1-0.9,1.1l0,0L156.1,9C156.2,9,156.1,9,156.1,9z M177.8,8.8c-0.5,0-1-0.4-1-0.9c0-0.6,0.4-1,0.9-1.1l0.2,0
			c0.5,0,1,0.4,1,1c0,0.6-0.4,1-1,1L177.8,8.8C177.8,8.8,177.8,8.8,177.8,8.8z M134.4,8.8c-0.5,0-1-0.4-1-1c0-0.6,0.4-1,1-1l0.2,0
			c0.5,0,1,0.4,1,1c0,0.6-0.4,1-1,1L134.4,8.8C134.4,8.8,134.4,8.8,134.4,8.8z"/>
		<path fill="#FFFFFF" d="M125.1,11.2c-0.5,0-1-0.4-1-0.9c0-0.5,0.3-1,0.8-1.1c0.1,0,0.1,0,0.2,0c0.5,0,1.1,0.4,1.1,0.9
			c0,0.5-0.3,1-0.8,1.1c-0.1,0-0.1,0-0.2,0L125.1,11.2C125.1,11.2,125.1,11.2,125.1,11.2z"/>
		<path fill="#FFFFFF" d="M81.8,11.1c-0.5,0-1-0.4-1-0.9c0-0.5,0.4-1,0.9-1.1c0,0,0.1,0,0.1,0c0.6,0,1.1,0.4,1.1,0.9s-0.3,1-0.9,1.1
			c0,0-0.1,0-0.1,0C82,11.1,81.9,11.1,81.8,11.1C81.9,11.1,81.8,11.1,81.8,11.1z"/>
		<path fill="#FFFFFF" d="M60.1,11.2c-0.5,0-1-0.4-1-0.9c0-0.6,0.4-1,0.9-1.1l0.2,0c0.5-0.1,1,0.4,1.1,0.9c0,0.6-0.4,1-0.9,1.1
			L60.1,11.2C60.1,11.2,60.1,11.2,60.1,11.2z M78.8,11.1c0,0-0.1,0-0.1,0l-0.2,0c-0.5-0.1-0.9-0.6-0.8-1.1C77.7,9.3,78.2,9,78.8,9
			l0.2,0c0.5,0.1,0.9,0.6,0.9,1.1C79.7,10.7,79.3,11.1,78.8,11.1z M57.1,11c0,0-0.1,0-0.1,0l-0.2,0c-0.5-0.1-0.9-0.6-0.8-1.1
			C56,9.3,56.5,8.9,57.1,9l0.2,0c0.5,0.1,0.9,0.6,0.9,1.1C58,10.7,57.6,11,57.1,11z M41.6,10.7c-0.4,0-0.8-0.3-1-0.7
			c-0.1-0.5,0.2-1.1,0.7-1.2l0.2,0c0.5-0.2,1.1,0.1,1.2,0.7c0.2,0.5-0.1,1.1-0.7,1.2l-0.2,0.1C41.8,10.7,41.7,10.7,41.6,10.7z
			 M63.3,10.6c-0.4,0-0.8-0.3-1-0.7c-0.2-0.5,0.1-1.1,0.6-1.2l0.2-0.1c0.5-0.2,1.1,0.1,1.2,0.7c0.2,0.5-0.1,1.1-0.7,1.2l-0.2,0
			C63.5,10.6,63.4,10.6,63.3,10.6z M75.7,10.3c-0.1,0-0.2,0-0.3-0.1l-0.1-0.1c-0.5-0.2-0.8-0.8-0.6-1.3c0.2-0.5,0.7-0.8,1.3-0.6
			l0.2,0.1c0.5,0.2,0.8,0.8,0.6,1.3C76.5,10.1,76.1,10.3,75.7,10.3z M54,10.3c-0.1,0-0.2,0-0.3-0.1l-0.2-0.1
			c-0.5-0.2-0.8-0.8-0.6-1.3c0.2-0.5,0.8-0.8,1.3-0.6l0.2,0.1c0.5,0.2,0.8,0.8,0.6,1.3C54.8,10,54.4,10.3,54,10.3z M66.2,9.5
			c-0.4,0-0.8-0.3-0.9-0.7c-0.2-0.5,0.1-1.1,0.6-1.3l0.2-0.1c0.5-0.2,1.1,0.1,1.3,0.6c0.2,0.5-0.1,1.1-0.6,1.3l-0.2,0.1
			C66.4,9.4,66.3,9.5,66.2,9.5z M44.5,9.4c-0.4,0-0.8-0.2-0.9-0.6c-0.2-0.5,0.1-1.1,0.6-1.3l0.2-0.1c0.5-0.2,1.1,0.1,1.3,0.6
			c0.2,0.5-0.1,1.1-0.6,1.3l-0.2,0.1C44.7,9.4,44.6,9.4,44.5,9.4z M72.7,9.2c-0.1,0-0.2,0-0.3,0l-0.2,0c-0.5-0.1-0.9-0.7-0.7-1.2
			c0.1-0.5,0.7-0.9,1.2-0.7L73,7.2c0.5,0.1,0.9,0.7,0.7,1.2C73.6,8.9,73.2,9.2,72.7,9.2z M51,9.2c-0.1,0-0.2,0-0.2,0l-0.2,0
			c-0.5-0.1-0.9-0.7-0.8-1.2C50,7.4,50.5,7,51,7.1l0.2,0c0.5,0.1,0.9,0.7,0.7,1.2C51.9,8.9,51.5,9.2,51,9.2z M69.4,8.8
			c-0.5,0-1-0.4-1-0.9c0-0.6,0.4-1,0.9-1l0.2,0c0.6,0,1,0.4,1,1s-0.4,1-1,1L69.4,8.8C69.4,8.8,69.4,8.8,69.4,8.8z M47.6,8.8
			c-0.5,0-1-0.4-1-1c0-0.6,0.4-1,1-1l0.2,0c0.5,0,1,0.4,1,1c0,0.6-0.4,1-1,1L47.6,8.8C47.7,8.8,47.7,8.8,47.6,8.8z"/>
		<path fill="#FFFFFF" d="M38.4,11.2c-0.5,0-1-0.4-1-0.9c0-0.5,0.3-1,0.8-1.1c0.1,0,0.1,0,0.2,0c0.5,0,1.1,0.4,1.1,0.9
			c0,0.5-0.3,1-0.8,1.1c-0.1,0-0.1,0-0.2,0L38.4,11.2C38.5,11.2,38.4,11.2,38.4,11.2z"/>
		<path fill="#FFFFFF" d="M16.4,11.2c-0.5,0-1-0.4-1-1c0-0.6,0.4-1,1-1l0.2,0c0.6,0,1,0.4,1,0.9c0,0.6-0.4,1-0.9,1L16.4,11.2
			C16.4,11.2,16.4,11.2,16.4,11.2z M35.4,11c0,0-0.1,0-0.1,0L35,11c-0.5-0.1-0.9-0.6-0.8-1.1c0.1-0.5,0.6-0.9,1.1-0.8l0.2,0
			c0.5,0.1,0.9,0.6,0.8,1.1C36.3,10.7,35.9,11,35.4,11z M13.4,11c-0.1,0-0.1,0-0.2,0l-0.2,0c-0.5-0.1-0.9-0.6-0.8-1.2
			c0.1-0.5,0.6-0.9,1.2-0.8l0.2,0c0.5,0.1,0.9,0.6,0.8,1.2C14.3,10.6,13.8,11,13.4,11z M19.6,10.7c-0.4,0-0.8-0.3-1-0.7
			c-0.1-0.5,0.2-1.1,0.7-1.2l0.2,0c0.5-0.2,1.1,0.2,1.2,0.7c0.2,0.5-0.2,1.1-0.7,1.2l-0.2,0.1C19.8,10.7,19.7,10.7,19.6,10.7z
			 M32.2,10.2c-0.1,0-0.2,0-0.3-0.1l-0.2-0.1c-0.5-0.2-0.8-0.8-0.6-1.3s0.8-0.8,1.3-0.6l0.2,0.1c0.5,0.2,0.8,0.8,0.6,1.3
			C33,10,32.6,10.2,32.2,10.2z M10.2,10.1c-0.1,0-0.3,0-0.4-0.1L9.7,9.9C9.2,9.7,8.9,9.1,9.1,8.6c0.2-0.5,0.8-0.7,1.3-0.5l0.2,0.1
			c0.5,0.2,0.8,0.8,0.5,1.3C11,9.9,10.6,10.1,10.2,10.1z M22.6,9.6c-0.4,0-0.8-0.2-0.9-0.7c-0.2-0.5,0.1-1.1,0.6-1.3l0.2-0.1
			c0.5-0.2,1.1,0.1,1.3,0.6c0.2,0.5-0.1,1.1-0.6,1.3L23,9.5C22.9,9.5,22.7,9.6,22.6,9.6z M29.2,9.1c-0.1,0-0.2,0-0.2,0l-0.2,0
			c-0.5-0.1-0.9-0.7-0.8-1.2c0.1-0.5,0.7-0.9,1.2-0.8l0.2,0c0.5,0.1,0.9,0.7,0.7,1.2C30.1,8.8,29.7,9.1,29.2,9.1z M7.2,9.1
			C7.1,9.1,7.1,9,7,9L6.8,9C6.3,8.9,5.9,8.4,6,7.8C6.1,7.3,6.6,6.9,7.2,7l0.2,0c0.5,0.1,0.9,0.6,0.8,1.2C8.1,8.7,7.7,9.1,7.2,9.1z
			 M25.8,8.9c-0.5,0-1-0.4-1-0.9c0-0.6,0.4-1,0.9-1.1l0.2,0c0.6,0,1,0.4,1.1,0.9c0,0.6-0.4,1-0.9,1.1L25.8,8.9
			C25.8,8.9,25.8,8.9,25.8,8.9z"/>
		<path fill="#FFFFFF" d="M3.9,8.9c-0.5,0-1-0.4-1-0.9c0-0.5,0.3-1,0.9-1.1c0,0,0.1,0,0.2,0c0.6,0,1,0.4,1,1c0,0.6-0.4,1-1,1l0-1
			L3.9,8.9C3.9,8.9,3.9,8.9,3.9,8.9z"/>
		<path fill="#FFFFFF" d="M311.9,6.1c-0.1,0-0.2,0-0.3,0l-0.1,0c-0.5-0.2-0.8-0.7-0.6-1.3c0.2-0.5,0.7-0.8,1.3-0.6l0.1,0
			c0.5,0.2,0.8,0.7,0.6,1.3C312.7,5.8,312.3,6.1,311.9,6.1z"/>
		<path fill="#FFFFFF" d="M299.1,7.8c-0.5,0-0.9-0.4-1-0.9c-0.1-0.5,0.3-1,0.9-1.1l0.2,0c0.5-0.1,1,0.3,1.1,0.9
			c0.1,0.5-0.3,1-0.9,1.1l-0.2,0C299.2,7.8,299.1,7.8,299.1,7.8z M296.1,7.8c0,0-0.1,0-0.1,0l-0.2,0c-0.5-0.1-0.9-0.6-0.9-1.1
			c0.1-0.5,0.6-0.9,1.1-0.9l0.2,0c0.5,0.1,0.9,0.6,0.9,1.1C297,7.4,296.6,7.8,296.1,7.8z M280.2,7.3c-0.4,0-0.8-0.3-1-0.7
			c-0.2-0.5,0.2-1.1,0.7-1.2l0.2-0.1c0.5-0.2,1.1,0.1,1.2,0.7c0.2,0.5-0.1,1.1-0.7,1.2l-0.2,0.1C280.3,7.3,280.2,7.3,280.2,7.3z
			 M302.3,7.1c-0.4,0-0.8-0.3-1-0.7c-0.2-0.5,0.1-1.1,0.6-1.3l0.2-0.1c0.5-0.2,1.1,0.1,1.3,0.6s-0.1,1.1-0.6,1.3l-0.2,0.1
			C302.5,7.1,302.4,7.1,302.3,7.1z M292.9,7.1c-0.1,0-0.2,0-0.3-0.1l-0.2-0.1c-0.5-0.2-0.8-0.8-0.6-1.3s0.8-0.8,1.3-0.6l0.2,0.1
			c0.5,0.2,0.8,0.7,0.6,1.3C293.7,6.8,293.3,7.1,292.9,7.1z M283.2,6.1c-0.4,0-0.8-0.3-1-0.7c-0.2-0.5,0.2-1.1,0.7-1.2l0.2-0.1
			c0.5-0.1,1.1,0.2,1.2,0.7c0.1,0.5-0.2,1.1-0.7,1.2l-0.2,0C283.4,6.1,283.3,6.1,283.2,6.1z M305.3,6c-0.4,0-0.8-0.3-1-0.7
			c-0.2-0.5,0.1-1.1,0.7-1.2l0.2-0.1c0.5-0.1,1.1,0.2,1.2,0.7c0.1,0.5-0.2,1.1-0.7,1.2l-0.2,0C305.5,6,305.4,6,305.3,6z M289.8,5.9
			c-0.1,0-0.2,0-0.3,0l-0.2,0c-0.5-0.1-0.9-0.7-0.7-1.2c0.1-0.5,0.7-0.9,1.2-0.7l0.2,0.1c0.5,0.1,0.8,0.7,0.7,1.2
			C290.7,5.6,290.3,5.9,289.8,5.9z M286.4,5.6c-0.5,0-1-0.4-1-0.9c0-0.6,0.4-1,0.9-1.1l0.2,0c0.5,0,1,0.4,1.1,0.9
			c0,0.6-0.4,1-0.9,1.1L286.4,5.6C286.5,5.6,286.4,5.6,286.4,5.6z M308.7,5.5C308.7,5.5,308.7,5.5,308.7,5.5l-0.2,0
			c-0.6,0-1-0.5-1-1s0.5-1,1-1l0.2,0c0.6,0,1,0.5,1,1C309.7,5.1,309.3,5.5,308.7,5.5z"/>
		<path fill="#FFFFFF" d="M233.8,7.8c-0.5,0-1-0.4-1-0.9c0-0.5,0.3-1,0.9-1.1c0,0,0.1,0,0.1,0c0.6,0,1.1,0.4,1.1,0.9
			c0,0.5-0.3,1-0.9,1.1C233.9,7.8,233.9,7.8,233.8,7.8C233.8,7.8,233.8,7.8,233.8,7.8z"/>
		<path fill="#FFFFFF" d="M212,7.8c-0.5,0-1-0.4-1-0.9c0-0.6,0.4-1,0.9-1.1l0.2,0c0.5-0.1,1,0.4,1.1,0.9c0,0.6-0.4,1-0.9,1.1
			L212,7.8C212,7.8,212,7.8,212,7.8z M230.7,7.8c0,0-0.1,0-0.1,0l-0.2,0c-0.5-0.1-0.9-0.6-0.8-1.1s0.6-0.9,1.1-0.8l0.2,0
			c0.5,0.1,0.9,0.6,0.9,1.1C231.6,7.4,231.2,7.8,230.7,7.8z M209,7.7c0,0-0.1,0-0.1,0l-0.2,0c-0.5-0.1-0.9-0.6-0.8-1.1
			c0.1-0.5,0.6-0.9,1.1-0.8l0.2,0c0.5,0.1,0.9,0.6,0.9,1.1C209.9,7.4,209.5,7.7,209,7.7z M193.4,7.3c-0.4,0-0.8-0.3-1-0.7
			c-0.1-0.5,0.2-1.1,0.7-1.2l0.2-0.1c0.5-0.2,1.1,0.1,1.2,0.7c0.2,0.5-0.1,1.1-0.7,1.2l-0.2,0.1C193.6,7.3,193.5,7.3,193.4,7.3z
			 M215.1,7.3c-0.4,0-0.8-0.3-1-0.7c-0.2-0.5,0.1-1.1,0.6-1.2l0.2-0.1c0.5-0.2,1.1,0.1,1.2,0.7c0.2,0.5-0.1,1.1-0.7,1.2l-0.2,0
			C215.3,7.3,215.2,7.3,215.1,7.3z M227.6,7c-0.1,0-0.2,0-0.3-0.1l-0.1-0.1c-0.5-0.2-0.8-0.8-0.6-1.3c0.2-0.5,0.7-0.8,1.3-0.6
			l0.2,0.1c0.5,0.2,0.8,0.8,0.6,1.3C228.4,6.7,228,7,227.6,7z M205.9,7c-0.1,0-0.2,0-0.3-0.1l-0.2-0.1c-0.5-0.2-0.8-0.8-0.6-1.3
			c0.2-0.5,0.8-0.8,1.3-0.6l0.2,0.1c0.5,0.2,0.8,0.8,0.6,1.3C206.7,6.7,206.3,7,205.9,7z M218.1,6.1c-0.4,0-0.8-0.3-0.9-0.7
			c-0.2-0.5,0.1-1.1,0.6-1.3l0.2-0.1c0.5-0.2,1.1,0.1,1.3,0.6c0.2,0.5-0.1,1.1-0.6,1.3l-0.2,0.1C218.3,6.1,218.2,6.1,218.1,6.1z
			 M196.4,6.1c-0.4,0-0.8-0.3-0.9-0.7c-0.2-0.5,0.1-1.1,0.6-1.3l0.2-0.1c0.5-0.2,1.1,0.1,1.3,0.6c0.2,0.5-0.1,1.1-0.6,1.3L196.7,6
			C196.6,6.1,196.5,6.1,196.4,6.1z M224.6,5.9c-0.1,0-0.2,0-0.3,0l-0.2,0c-0.5-0.1-0.9-0.7-0.7-1.2c0.1-0.5,0.7-0.9,1.2-0.7l0.2,0.1
			c0.5,0.1,0.9,0.7,0.7,1.2C225.4,5.6,225,5.9,224.6,5.9z M202.9,5.9c-0.1,0-0.2,0-0.2,0l-0.2,0c-0.5-0.1-0.9-0.7-0.8-1.2
			c0.1-0.5,0.7-0.9,1.2-0.8l0.2,0.1c0.5,0.1,0.9,0.7,0.7,1.2C203.7,5.5,203.3,5.9,202.9,5.9z M199.5,5.5c-0.5,0-1-0.4-1-1
			c0-0.6,0.4-1,1-1l0.2,0c0.5,0,1,0.4,1,1c0,0.6-0.4,1-1,1L199.5,5.5C199.5,5.5,199.5,5.5,199.5,5.5z M221.2,5.5c-0.5,0-1-0.4-1-0.9
			c0-0.6,0.4-1,0.9-1l0.2,0c0.5,0,1,0.4,1,1c0,0.6-0.4,1-1,1L221.2,5.5C221.2,5.5,221.2,5.5,221.2,5.5z"/>
		<path fill="#FFFFFF" d="M190.2,7.8c-0.5,0-1-0.4-1-0.9c0-0.5,0.3-1,0.8-1.1c0.1,0,0.1,0,0.2,0c0.6,0,1.1,0.4,1.1,0.9
			c0,0.5-0.3,1-0.8,1.1c-0.1,0-0.1,0-0.2,0L190.2,7.8C190.3,7.8,190.3,7.8,190.2,7.8z"/>
		<path fill="#FFFFFF" d="M168.6,7.9c-0.5,0-1-0.4-1-0.9c0-0.6,0.4-1,0.9-1.1l0.2,0c0.6-0.1,1,0.4,1.1,0.9s-0.4,1-0.9,1.1L168.6,7.9
			C168.6,7.9,168.6,7.9,168.6,7.9z M146.8,7.8c-0.5,0-1-0.4-1-0.9c0-0.6,0.4-1,0.9-1.1l0.2,0c0.6,0,1,0.4,1.1,0.9
			c0,0.6-0.4,1-0.9,1.1L146.8,7.8C146.9,7.8,146.9,7.8,146.8,7.8z M187.3,7.7c0,0-0.1,0-0.1,0l-0.2,0c-0.5-0.1-0.9-0.6-0.8-1.1
			c0.1-0.5,0.6-0.9,1.1-0.8l0.2,0c0.5,0.1,0.9,0.6,0.9,1.1C188.2,7.4,187.8,7.7,187.3,7.7z M143.8,7.7c0,0-0.1,0-0.1,0l-0.2,0
			c-0.5-0.1-0.9-0.6-0.8-1.1c0.1-0.5,0.6-0.9,1.1-0.8l0.2,0c0.5,0.1,0.9,0.6,0.9,1.1C144.8,7.4,144.3,7.7,143.8,7.7z M165.6,7.7
			c0,0-0.1,0-0.1,0l-0.2,0c-0.5-0.1-0.9-0.6-0.8-1.1c0.1-0.5,0.6-0.9,1.1-0.8l0.2,0c0.5,0.1,0.9,0.6,0.8,1.1
			C166.5,7.4,166.1,7.7,165.6,7.7z M171.7,7.3c-0.4,0-0.8-0.3-1-0.7c-0.2-0.5,0.2-1.1,0.7-1.2l0.2-0.1c0.5-0.2,1.1,0.1,1.2,0.7
			c0.2,0.5-0.1,1.1-0.7,1.2L172,7.3C171.9,7.3,171.8,7.3,171.7,7.3z M150,7.3c-0.4,0-0.8-0.3-1-0.7c-0.2-0.5,0.1-1.1,0.7-1.2
			l0.2-0.1c0.5-0.2,1.1,0.1,1.3,0.6c0.2,0.5-0.1,1.1-0.6,1.3l-0.2,0.1C150.2,7.3,150.1,7.3,150,7.3z M128.3,7.3
			c-0.4,0-0.8-0.3-1-0.7c-0.2-0.5,0.1-1.1,0.7-1.2l0.2-0.1c0.5-0.2,1.1,0.1,1.2,0.7c0.2,0.5-0.1,1.1-0.7,1.2l-0.2,0.1
			C128.4,7.2,128.4,7.3,128.3,7.3z M184.2,7c-0.1,0-0.2,0-0.3-0.1l-0.2-0.1c-0.5-0.2-0.8-0.8-0.6-1.3c0.2-0.5,0.8-0.8,1.3-0.6
			l0.2,0.1c0.5,0.2,0.8,0.8,0.6,1.3C185,6.7,184.6,7,184.2,7z M140.7,7c-0.1,0-0.2,0-0.3-0.1l-0.2-0.1c-0.5-0.2-0.8-0.8-0.6-1.3
			c0.2-0.5,0.8-0.8,1.3-0.6l0.2,0.1c0.5,0.2,0.8,0.8,0.6,1.3C141.5,6.7,141.1,7,140.7,7z M162.5,6.9c-0.1,0-0.2,0-0.3-0.1l-0.2-0.1
			c-0.5-0.2-0.8-0.8-0.6-1.3c0.2-0.5,0.8-0.8,1.3-0.6l0.2,0.1c0.5,0.2,0.8,0.8,0.6,1.3C163.3,6.7,162.9,6.9,162.5,6.9z M153,6.2
			c-0.4,0-0.8-0.3-1-0.7c-0.2-0.5,0.2-1.1,0.7-1.2l0.2-0.1c0.5-0.1,1.1,0.2,1.2,0.7c0.1,0.5-0.2,1.1-0.7,1.2l-0.2,0
			C153.2,6.2,153.1,6.2,153,6.2z M174.7,6.2c-0.4,0-0.8-0.3-0.9-0.7c-0.2-0.5,0.1-1.1,0.6-1.3l0.2-0.1c0.5-0.2,1.1,0.1,1.3,0.6
			c0.2,0.5-0.1,1.1-0.6,1.3L175,6.1C174.9,6.2,174.8,6.2,174.7,6.2z M131.2,6.1c-0.4,0-0.8-0.3-0.9-0.7c-0.2-0.5,0.1-1.1,0.6-1.3
			l0.2-0.1c0.5-0.2,1.1,0.1,1.3,0.6c0.2,0.5-0.1,1.1-0.6,1.3l-0.2,0.1C131.5,6.1,131.4,6.1,131.2,6.1z M137.7,5.9
			c-0.1,0-0.2,0-0.2,0l-0.2,0c-0.5-0.1-0.9-0.7-0.8-1.2c0.1-0.5,0.7-0.9,1.2-0.8l0.2,0.1c0.5,0.1,0.9,0.7,0.7,1.2
			C138.6,5.6,138.2,5.9,137.7,5.9z M181.2,5.9c-0.1,0-0.2,0-0.2,0l-0.2,0c-0.5-0.1-0.9-0.7-0.7-1.2c0.1-0.5,0.7-0.9,1.2-0.7l0.2,0.1
			c0.5,0.1,0.9,0.7,0.7,1.2C182,5.6,181.6,5.9,181.2,5.9z M159.5,5.8c-0.1,0-0.2,0-0.3,0l0.2-1l-0.3,1l-0.1,0
			c-0.5-0.1-0.9-0.7-0.7-1.2c0.1-0.5,0.7-0.9,1.2-0.7l0.1,0c0,0,0.1,0,0.1,0c0.5,0.1,0.9,0.7,0.7,1.2C160.3,5.5,159.9,5.8,159.5,5.8
			z M156.1,5.6c-0.5,0-0.9-0.4-1-0.9c-0.1-0.5,0.4-1,0.9-1.1l0.2,0c0.6,0,1,0.4,1.1,0.9c0,0.6-0.4,1-0.9,1.1l0,0L156.1,5.6
			C156.2,5.6,156.1,5.6,156.1,5.6z M177.8,5.5c-0.5,0-1-0.4-1-0.9c0-0.6,0.4-1,0.9-1.1l0.2,0c0.5,0,1,0.4,1,1c0,0.6-0.4,1-1,1
			L177.8,5.5C177.8,5.5,177.8,5.5,177.8,5.5z M134.4,5.5c-0.5,0-1-0.4-1-1c0-0.6,0.4-1,1-1l0.2,0c0.5,0,1,0.4,1,1c0,0.6-0.4,1-1,1
			L134.4,5.5C134.4,5.5,134.4,5.5,134.4,5.5z"/>
		<path fill="#FFFFFF" d="M125.1,7.8c-0.5,0-1-0.4-1-0.9c0-0.5,0.3-1,0.8-1.1c0.1,0,0.1,0,0.2,0c0.5,0,1.1,0.4,1.1,0.9
			c0,0.5-0.3,1-0.8,1.1c-0.1,0-0.1,0-0.2,0L125.1,7.8C125.1,7.8,125.1,7.8,125.1,7.8z"/>
		<path fill="#FFFFFF" d="M81.8,7.8c-0.5,0-1-0.4-1-0.9c0-0.5,0.4-1,0.9-1.1c0,0,0.1,0,0.1,0c0.6,0,1.1,0.4,1.1,0.9
			c0,0.5-0.3,1-0.9,1.1c0,0-0.1,0-0.1,0C82,7.8,81.9,7.8,81.8,7.8C81.9,7.8,81.8,7.8,81.8,7.8z"/>
		<path fill="#FFFFFF" d="M60.1,7.8c-0.5,0-1-0.4-1-0.9c0-0.6,0.4-1,0.9-1.1l0.2,0c0.5-0.1,1,0.4,1.1,0.9c0,0.6-0.4,1-0.9,1.1
			L60.1,7.8C60.1,7.8,60.1,7.8,60.1,7.8z M78.8,7.8c0,0-0.1,0-0.1,0l-0.2,0c-0.5-0.1-0.9-0.6-0.8-1.1c0.1-0.5,0.6-0.9,1.1-0.8l0.2,0
			c0.5,0.1,0.9,0.6,0.9,1.1C79.7,7.4,79.3,7.8,78.8,7.8z M57.1,7.7c0,0-0.1,0-0.1,0l-0.2,0c-0.5-0.1-0.9-0.6-0.8-1.1
			C56,6,56.5,5.6,57.1,5.7l0.2,0c0.5,0.1,0.9,0.6,0.9,1.1C58,7.4,57.6,7.7,57.1,7.7z M41.6,7.4c-0.4,0-0.8-0.3-1-0.7
			c-0.1-0.5,0.2-1.1,0.7-1.2l0.2,0C42,5.2,42.6,5.5,42.7,6c0.2,0.5-0.1,1.1-0.7,1.2l-0.2,0.1C41.8,7.3,41.7,7.4,41.6,7.4z M63.3,7.3
			c-0.4,0-0.8-0.3-1-0.7C62.1,6,62.4,5.5,63,5.3l0.2-0.1c0.5-0.2,1.1,0.1,1.2,0.7c0.2,0.5-0.1,1.1-0.7,1.2l-0.2,0
			C63.5,7.3,63.4,7.3,63.3,7.3z M75.7,7c-0.1,0-0.2,0-0.3-0.1l-0.1-0.1c-0.5-0.2-0.8-0.8-0.6-1.3c0.2-0.5,0.7-0.8,1.3-0.6l0.2,0.1
			c0.5,0.2,0.8,0.8,0.6,1.3C76.5,6.7,76.1,7,75.7,7z M54,6.9c-0.1,0-0.2,0-0.3-0.1l-0.2-0.1C53,6.6,52.7,6,52.9,5.5
			c0.2-0.5,0.8-0.8,1.3-0.6L54.4,5c0.5,0.2,0.8,0.8,0.6,1.3C54.8,6.7,54.4,6.9,54,6.9z M66.2,6.1c-0.4,0-0.8-0.3-0.9-0.7
			c-0.2-0.5,0.1-1.1,0.6-1.3l0.2-0.1c0.5-0.2,1.1,0.1,1.3,0.6c0.2,0.5-0.1,1.1-0.6,1.3l-0.2,0.1C66.4,6.1,66.3,6.1,66.2,6.1z
			 M44.5,6.1c-0.4,0-0.8-0.2-0.9-0.6c-0.2-0.5,0.1-1.1,0.6-1.3l0.2-0.1c0.5-0.2,1.1,0.1,1.3,0.6c0.2,0.5-0.1,1.1-0.6,1.3L44.9,6
			C44.7,6,44.6,6.1,44.5,6.1z M72.7,5.9c-0.1,0-0.2,0-0.3,0l-0.2,0c-0.5-0.1-0.9-0.7-0.7-1.2c0.1-0.5,0.7-0.9,1.2-0.7L73,3.9
			c0.5,0.1,0.9,0.7,0.7,1.2C73.6,5.6,73.2,5.9,72.7,5.9z M51,5.9c-0.1,0-0.2,0-0.2,0l-0.2,0c-0.5-0.1-0.9-0.7-0.8-1.2
			C50,4,50.5,3.7,51,3.8l0.2,0C51.8,4,52.1,4.5,52,5.1C51.9,5.5,51.5,5.9,51,5.9z M69.4,5.5c-0.5,0-1-0.4-1-0.9c0-0.6,0.4-1,0.9-1
			l0.2,0c0.6,0,1,0.4,1,1s-0.4,1-1,1L69.4,5.5C69.4,5.5,69.4,5.5,69.4,5.5z M47.6,5.5c-0.5,0-1-0.4-1-1c0-0.6,0.4-1,1-1l0.2,0
			c0.5,0,1,0.4,1,1c0,0.6-0.4,1-1,1L47.6,5.5C47.7,5.5,47.7,5.5,47.6,5.5z"/>
		<path fill="#FFFFFF" d="M38.4,7.8c-0.5,0-1-0.4-1-0.9c0-0.5,0.3-1,0.8-1.1c0.1,0,0.1,0,0.2,0c0.5,0,1.1,0.4,1.1,0.9
			c0,0.5-0.3,1-0.8,1.1c-0.1,0-0.1,0-0.2,0L38.4,7.8C38.5,7.8,38.4,7.8,38.4,7.8z"/>
		<path fill="#FFFFFF" d="M16.9,7.8c-0.5,0-1-0.4-1-0.9c0-0.6,0.4-1,0.9-1.1l0.2,0c0.6,0,1,0.4,1.1,0.9c0,0.5-0.4,1-0.9,1.1
			L16.9,7.8C16.9,7.8,16.9,7.8,16.9,7.8z M13.9,7.8c0,0-0.1,0-0.1,0l-0.2,0c-0.5-0.1-0.9-0.6-0.8-1.1s0.6-0.9,1.1-0.8l0.2,0
			c0.5,0.1,0.9,0.6,0.9,1.1C14.8,7.4,14.4,7.8,13.9,7.8z M35.4,7.7c0,0-0.1,0-0.1,0l-0.2,0c-0.5-0.1-0.9-0.6-0.8-1.1
			s0.6-0.9,1.1-0.8l0.2,0c0.5,0.1,0.9,0.6,0.8,1.1C36.4,7.4,35.9,7.7,35.4,7.7z M20,7.3c-0.4,0-0.8-0.3-1-0.7
			c-0.2-0.5,0.1-1.1,0.7-1.2l0.2-0.1c0.5-0.2,1.1,0.1,1.3,0.7C21.3,6.4,21,7,20.5,7.2l-0.2,0.1C20.2,7.3,20.1,7.3,20,7.3z M10.8,7
			c-0.1,0-0.2,0-0.3-0.1l-0.2-0.1C9.8,6.7,9.5,6.1,9.7,5.6C9.9,5.1,10.5,4.8,11,5l0.2,0.1c0.5,0.2,0.8,0.8,0.6,1.3
			C11.6,6.8,11.3,7,10.8,7z M32.4,7c-0.1,0-0.2,0-0.3-0.1l-0.2-0.1c-0.5-0.2-0.8-0.8-0.6-1.3C31.4,5,32,4.8,32.5,5L32.7,5
			c0.5,0.2,0.8,0.8,0.6,1.3C33.2,6.7,32.8,7,32.4,7z M23,6.1c-0.4,0-0.8-0.3-0.9-0.7c-0.2-0.5,0.1-1.1,0.6-1.3l0.2-0.1
			c0.5-0.2,1.1,0.1,1.3,0.6C24.3,5.3,24,5.9,23.5,6l-0.2,0.1C23.2,6.1,23.1,6.1,23,6.1z M7.9,5.9c-0.1,0-0.2,0-0.3,0l-0.1,0l0.5-1.9
			l0.2,0.1C8.7,4.1,9,4.6,8.8,5.2C8.7,5.6,8.3,5.9,7.9,5.9z M29.4,5.9c-0.1,0-0.2,0-0.3,0l-0.2,0c-0.5-0.1-0.9-0.7-0.7-1.2
			c0.1-0.5,0.7-0.9,1.2-0.7l0.2,0.1c0.5,0.1,0.9,0.7,0.7,1.2C30.3,5.6,29.8,5.9,29.4,5.9z M4.7,5.6C4.7,5.6,4.7,5.6,4.7,5.6l-0.2,0
			c0,0,0,0,0,0c-0.5,0-1-0.4-1-1c0-0.6,0.4-1,1-1l0.2,0c0.6,0,1,0.5,1,1C5.7,5.1,5.3,5.6,4.7,5.6z M26.1,5.5c-0.5,0-1-0.4-1-0.9
			c0-0.6,0.4-1,0.9-1.1l0.2,0c0.6,0,1,0.4,1,1c0,0.6-0.4,1-1,1L26.1,5.5C26.1,5.5,26.1,5.5,26.1,5.5z"/>
		<path fill="#FFFFFF" d="M1.5,6C1,6,0.6,5.7,0.5,5.2C0.4,4.7,0.8,4.1,1.3,4c0.5-0.1,1.1,0.2,1.2,0.8C2.6,5.4,2.3,5.9,1.8,6L1.7,6
			C1.6,6,1.6,6,1.5,6z"/>
		<path fill="#FFFFFF" d="M311.4,2.6c-0.1,0-0.2,0-0.3,0l-0.1,0c-0.5-0.2-0.8-0.7-0.6-1.3c0.2-0.5,0.7-0.8,1.3-0.6l0.1,0
			c0.5,0.2,0.8,0.7,0.6,1.3C312.2,2.3,311.8,2.6,311.4,2.6z"/>
		<path fill="#FFFFFF" d="M298.6,4.3c-0.5,0-0.9-0.4-1-0.9c-0.1-0.5,0.3-1,0.9-1.1l0.2,0c0.5-0.1,1,0.3,1.1,0.9
			c0.1,0.5-0.3,1-0.9,1.1l-0.2,0C298.7,4.3,298.6,4.3,298.6,4.3z M295.6,4.3c0,0-0.1,0-0.1,0l-0.2,0c-0.5-0.1-0.9-0.6-0.9-1.1
			c0.1-0.5,0.6-0.9,1.1-0.9l0.2,0c0.5,0.1,0.9,0.6,0.9,1.1C296.5,3.9,296.1,4.3,295.6,4.3z M279.7,3.8c-0.4,0-0.8-0.3-1-0.7
			c-0.2-0.5,0.2-1.1,0.7-1.2l0.2-0.1c0.5-0.2,1.1,0.1,1.2,0.7c0.2,0.5-0.1,1.1-0.7,1.2l-0.2,0.1C279.8,3.8,279.7,3.8,279.7,3.8z
			 M301.8,3.6c-0.4,0-0.8-0.3-1-0.7c-0.2-0.5,0.1-1.1,0.6-1.3l0.2-0.1c0.5-0.2,1.1,0.1,1.3,0.6c0.2,0.5-0.1,1.1-0.6,1.3l-0.2,0.1
			C302,3.6,301.9,3.6,301.8,3.6z M292.4,3.6c-0.1,0-0.2,0-0.3-0.1l-0.2-0.1c-0.5-0.2-0.8-0.8-0.6-1.3s0.8-0.8,1.3-0.6l0.2,0.1
			c0.5,0.2,0.8,0.7,0.6,1.3C293.2,3.3,292.8,3.6,292.4,3.6z M282.7,2.6c-0.4,0-0.8-0.3-1-0.7c-0.2-0.5,0.2-1.1,0.7-1.2l0.2-0.1
			c0.5-0.1,1.1,0.2,1.2,0.7c0.1,0.5-0.2,1.1-0.7,1.2l-0.2,0C282.9,2.6,282.8,2.6,282.7,2.6z M304.8,2.5c-0.4,0-0.8-0.3-1-0.7
			c-0.2-0.5,0.1-1.1,0.7-1.2l0.2-0.1c0.5-0.1,1.1,0.2,1.2,0.7c0.1,0.5-0.2,1.1-0.7,1.2l-0.2,0C305,2.5,304.9,2.5,304.8,2.5z
			 M289.3,2.4c-0.1,0-0.2,0-0.3,0l-0.2,0c-0.5-0.1-0.9-0.7-0.7-1.2c0.1-0.5,0.7-0.9,1.2-0.7l0.2,0.1c0.5,0.1,0.8,0.7,0.7,1.2
			C290.2,2.1,289.8,2.4,289.3,2.4z M285.9,2.1c-0.5,0-1-0.4-1-0.9c0-0.6,0.4-1,0.9-1.1l0.2,0c0.5,0,1,0.4,1.1,0.9
			c0,0.6-0.4,1-0.9,1.1L285.9,2.1C286,2.1,285.9,2.1,285.9,2.1z M308.2,2C308.2,2,308.2,2,308.2,2L308,2c-0.6,0-1-0.5-1-1
			c0-0.5,0.5-1,1-1c0,0,0,0,0,0l0.2,0c0.6,0,1,0.5,1,1C309.2,1.6,308.8,2,308.2,2z"/>
		<path fill="#FFFFFF" d="M233.3,4.3c-0.5,0-1-0.4-1-0.9c0-0.5,0.3-1,0.9-1.1c0,0,0.1,0,0.1,0c0.5,0,1.1,0.4,1.1,0.9
			c0,0.5-0.3,1-0.9,1.1C233.4,4.3,233.4,4.3,233.3,4.3C233.3,4.3,233.3,4.3,233.3,4.3z"/>
		<path fill="#FFFFFF" d="M211.5,4.3c-0.5,0-1-0.4-1-0.9c0-0.6,0.4-1,0.9-1.1l0.2,0c0.5,0,1,0.4,1.1,0.9c0,0.6-0.4,1-0.9,1.1
			L211.5,4.3C211.5,4.3,211.5,4.3,211.5,4.3z M230.2,4.3c0,0-0.1,0-0.1,0l-0.2,0c-0.5-0.1-0.9-0.6-0.8-1.1c0.1-0.5,0.6-0.9,1.1-0.8
			l0.2,0c0.5,0.1,0.9,0.6,0.9,1.1C231.1,3.9,230.7,4.3,230.2,4.3z M208.5,4.2c0,0-0.1,0-0.1,0l-0.2,0c-0.5-0.1-0.9-0.6-0.8-1.1
			c0.1-0.5,0.6-0.9,1.1-0.8l0.2,0c0.5,0.1,0.9,0.6,0.9,1.1C209.4,3.9,209,4.2,208.5,4.2z M192.9,3.8c-0.4,0-0.8-0.3-1-0.7
			c-0.1-0.5,0.2-1.1,0.7-1.2l0.2-0.1c0.5-0.2,1.1,0.1,1.2,0.7c0.2,0.5-0.1,1.1-0.7,1.2l-0.2,0.1C193.1,3.8,193,3.8,192.9,3.8z
			 M214.6,3.8c-0.4,0-0.8-0.3-1-0.7c-0.2-0.5,0.1-1.1,0.6-1.2l0.2-0.1c0.5-0.2,1.1,0.1,1.2,0.7c0.2,0.5-0.1,1.1-0.7,1.2l-0.2,0
			C214.8,3.8,214.7,3.8,214.6,3.8z M227.1,3.5c-0.1,0-0.2,0-0.3-0.1l-0.1-0.1c-0.5-0.2-0.8-0.8-0.6-1.3c0.2-0.5,0.7-0.8,1.3-0.6
			l0.2,0.1c0.5,0.2,0.8,0.8,0.6,1.3C227.9,3.2,227.5,3.5,227.1,3.5z M205.4,3.5c-0.1,0-0.2,0-0.3-0.1l-0.2-0.1
			c-0.5-0.2-0.8-0.8-0.6-1.3c0.2-0.5,0.8-0.8,1.3-0.6l0.2,0.1c0.5,0.2,0.8,0.8,0.6,1.3C206.2,3.2,205.8,3.5,205.4,3.5z M217.6,2.6
			c-0.4,0-0.8-0.3-0.9-0.7c-0.2-0.5,0.1-1.1,0.6-1.3l0.2-0.1c0.5-0.2,1.1,0.1,1.3,0.6c0.2,0.5-0.1,1.1-0.6,1.3l-0.2,0.1
			C217.8,2.6,217.7,2.6,217.6,2.6z M195.9,2.6c-0.4,0-0.8-0.3-0.9-0.7c-0.2-0.5,0.1-1.1,0.6-1.3l0.2-0.1c0.5-0.2,1.1,0.1,1.3,0.6
			c0.2,0.5-0.1,1.1-0.6,1.3l-0.2,0.1C196.1,2.6,196,2.6,195.9,2.6z M224.1,2.4c-0.1,0-0.2,0-0.3,0l-0.2,0c-0.5-0.1-0.9-0.7-0.7-1.2
			c0.1-0.5,0.7-0.9,1.2-0.7l0.2,0.1c0.5,0.1,0.9,0.7,0.7,1.2C224.9,2.1,224.5,2.4,224.1,2.4z M202.4,2.4c-0.1,0-0.2,0-0.2,0l-0.2,0
			c-0.5-0.1-0.9-0.7-0.8-1.2c0.1-0.5,0.7-0.9,1.2-0.8l0.2,0.1c0.5,0.1,0.9,0.7,0.7,1.2C203.2,2,202.8,2.4,202.4,2.4z M199,2
			c-0.5,0-1-0.4-1-1c0-0.6,0.4-1,1-1l0.2,0c0.6,0,1,0.4,1,1s-0.4,1-1,1L199,2C199,2,199,2,199,2z M220.7,2c-0.5,0-1-0.4-1-0.9
			c0-0.6,0.4-1,0.9-1l0.2,0c0.6,0,1,0.4,1,1s-0.4,1-1,1L220.7,2C220.7,2,220.7,2,220.7,2z"/>
		<path fill="#FFFFFF" d="M277.1,11.1c-0.5,0-1-0.4-1-0.9c0-0.5,0.3-1,0.9-1.1c0,0,0.1,0,0.1,0c0.6,0,1.1,0.4,1.1,0.9
			c0,0.5-0.3,1-0.9,1.1C277.3,11.1,277.2,11.1,277.1,11.1C277.2,11.1,277.2,11.1,277.1,11.1z"/>
		<path fill="#FFFFFF" d="M255.3,11.2c-0.5,0-1-0.4-1-0.9c0-0.6,0.4-1,0.9-1.1l0.2,0c0.5-0.1,1,0.4,1.1,0.9c0,0.6-0.4,1-0.9,1.1
			L255.3,11.2C255.4,11.2,255.4,11.2,255.3,11.2z M274,11.1c0,0-0.1,0-0.1,0l-0.2,0c-0.5-0.1-0.9-0.6-0.8-1.1S273.4,9,274,9l0.2,0
			c0.5,0.1,0.9,0.6,0.9,1.1C275,10.7,274.5,11.1,274,11.1z M252.3,11c0,0-0.1,0-0.1,0l-0.2,0c-0.5-0.1-0.9-0.6-0.8-1.1
			c0.1-0.5,0.6-0.9,1.1-0.8l0.2,0c0.5,0.1,0.9,0.6,0.9,1.1C253.3,10.7,252.8,11,252.3,11z M236.8,10.7c-0.4,0-0.8-0.3-1-0.7
			c-0.1-0.5,0.2-1.1,0.7-1.2l0.2-0.1c0.5-0.2,1.1,0.1,1.2,0.7c0.2,0.5-0.1,1.1-0.7,1.2l-0.2,0.1C237,10.6,236.9,10.7,236.8,10.7z
			 M258.5,10.6c-0.4,0-0.8-0.3-1-0.7c-0.2-0.5,0.1-1.1,0.6-1.2l0.2-0.1c0.5-0.2,1.1,0.1,1.2,0.7c0.2,0.5-0.1,1.1-0.7,1.2l-0.2,0
			C258.7,10.6,258.6,10.6,258.5,10.6z M270.9,10.3c-0.1,0-0.2,0-0.3-0.1l-0.1-0.1c-0.5-0.2-0.8-0.8-0.6-1.3c0.2-0.5,0.7-0.8,1.3-0.6
			l0.2,0.1c0.5,0.2,0.8,0.8,0.6,1.3C271.7,10.1,271.3,10.3,270.9,10.3z M249.2,10.3c-0.1,0-0.2,0-0.3-0.1l-0.2-0.1
			c-0.5-0.2-0.8-0.8-0.6-1.3c0.2-0.5,0.8-0.8,1.3-0.6l0.2,0.1c0.5,0.2,0.8,0.8,0.6,1.3C250,10,249.7,10.3,249.2,10.3z M261.5,9.5
			c-0.4,0-0.8-0.3-0.9-0.7c-0.2-0.5,0.1-1.1,0.6-1.3l0.2-0.1c0.5-0.2,1.1,0.1,1.3,0.6c0.2,0.5-0.1,1.1-0.6,1.3l-0.2,0.1
			C261.7,9.4,261.6,9.5,261.5,9.5z M239.7,9.4c-0.4,0-0.8-0.3-0.9-0.7c-0.2-0.5,0.1-1.1,0.6-1.3l0.2-0.1c0.5-0.2,1.1,0.1,1.3,0.6
			c0.2,0.5-0.1,1.1-0.6,1.3l-0.2,0.1C240,9.4,239.8,9.4,239.7,9.4z M267.9,9.2c-0.1,0-0.2,0-0.3,0l-0.2,0c-0.5-0.1-0.9-0.7-0.7-1.2
			c0.1-0.5,0.7-0.9,1.2-0.7l0.2,0.1c0.5,0.1,0.9,0.7,0.7,1.2C268.8,8.9,268.4,9.2,267.9,9.2z M246.2,9.2c-0.1,0-0.2,0-0.2,0l-0.2,0
			c-0.5-0.1-0.9-0.7-0.8-1.2c0.1-0.5,0.7-0.9,1.2-0.8l0.2,0.1c0.5,0.1,0.9,0.7,0.7,1.2C247.1,8.9,246.7,9.2,246.2,9.2z M242.9,8.8
			c-0.5,0-1-0.4-1-1c0-0.6,0.4-1,1-1l0.2,0c0.5,0,1,0.4,1,1c0,0.6-0.4,1-1,1L242.9,8.8C242.9,8.8,242.9,8.8,242.9,8.8z M264.6,8.8
			c-0.5,0-1-0.4-1-0.9c0-0.6,0.4-1,0.9-1l0.2,0c0.5,0,1,0.4,1,1c0,0.6-0.4,1-1,1L264.6,8.8C264.6,8.8,264.6,8.8,264.6,8.8z"/>
		<path fill="#FFFFFF" d="M277.1,7.8c-0.5,0-1-0.4-1-0.9c0-0.5,0.3-1,0.9-1.1c0,0,0.1,0,0.1,0c0.6,0,1.1,0.4,1.1,0.9
			c0,0.5-0.3,1-0.9,1.1C277.3,7.8,277.2,7.8,277.1,7.8C277.2,7.8,277.2,7.8,277.1,7.8z"/>
		<path fill="#FFFFFF" d="M255.3,7.8c-0.5,0-1-0.4-1-0.9c0-0.6,0.4-1,0.9-1.1l0.2,0c0.5-0.1,1,0.4,1.1,0.9c0,0.6-0.4,1-0.9,1.1
			L255.3,7.8C255.4,7.8,255.4,7.8,255.3,7.8z M274,7.8c0,0-0.1,0-0.1,0l-0.2,0c-0.5-0.1-0.9-0.6-0.8-1.1s0.6-0.9,1.1-0.8l0.2,0
			c0.5,0.1,0.9,0.6,0.9,1.1C275,7.4,274.5,7.8,274,7.8z M252.3,7.7c0,0-0.1,0-0.1,0l-0.2,0c-0.5-0.1-0.9-0.6-0.8-1.1
			c0.1-0.5,0.6-0.9,1.1-0.8l0.2,0c0.5,0.1,0.9,0.6,0.9,1.1C253.3,7.4,252.8,7.7,252.3,7.7z M236.8,7.3c-0.4,0-0.8-0.3-1-0.7
			c-0.1-0.5,0.2-1.1,0.7-1.2l0.2-0.1c0.5-0.2,1.1,0.1,1.2,0.7c0.2,0.5-0.1,1.1-0.7,1.2l-0.2,0.1C237,7.3,236.9,7.3,236.8,7.3z
			 M258.5,7.3c-0.4,0-0.8-0.3-1-0.7c-0.2-0.5,0.1-1.1,0.6-1.2l0.2-0.1c0.5-0.2,1.1,0.1,1.2,0.7c0.2,0.5-0.1,1.1-0.7,1.2l-0.2,0
			C258.7,7.3,258.6,7.3,258.5,7.3z M270.9,7c-0.1,0-0.2,0-0.3-0.1l-0.1-0.1c-0.5-0.2-0.8-0.8-0.6-1.3c0.2-0.5,0.7-0.8,1.3-0.6
			l0.2,0.1c0.5,0.2,0.8,0.8,0.6,1.3C271.7,6.7,271.3,7,270.9,7z M249.2,7c-0.1,0-0.2,0-0.3-0.1l-0.2-0.1c-0.5-0.2-0.8-0.8-0.6-1.3
			c0.2-0.5,0.8-0.8,1.3-0.6l0.2,0.1c0.5,0.2,0.8,0.8,0.6,1.3C250,6.7,249.7,7,249.2,7z M261.5,6.1c-0.4,0-0.8-0.3-0.9-0.7
			c-0.2-0.5,0.1-1.1,0.6-1.3l0.2-0.1c0.5-0.2,1.1,0.1,1.3,0.6c0.2,0.5-0.1,1.1-0.6,1.3l-0.2,0.1C261.7,6.1,261.6,6.1,261.5,6.1z
			 M239.7,6.1c-0.4,0-0.8-0.3-0.9-0.7c-0.2-0.5,0.1-1.1,0.6-1.3l0.2-0.1c0.5-0.2,1.1,0.1,1.3,0.6c0.2,0.5-0.1,1.1-0.6,1.3L240.1,6
			C240,6.1,239.8,6.1,239.7,6.1z M267.9,5.9c-0.1,0-0.2,0-0.3,0l-0.2,0c-0.5-0.1-0.9-0.7-0.7-1.2c0.1-0.5,0.7-0.9,1.2-0.7l0.2,0.1
			c0.5,0.1,0.9,0.7,0.7,1.2C268.8,5.6,268.4,5.9,267.9,5.9z M246.2,5.9c-0.1,0-0.2,0-0.2,0l-0.2,0c-0.5-0.1-0.9-0.7-0.8-1.2
			c0.1-0.5,0.7-0.9,1.2-0.8l0.2,0.1c0.5,0.1,0.9,0.7,0.7,1.2C247.1,5.5,246.7,5.9,246.2,5.9z M242.9,5.5c-0.5,0-1-0.4-1-1
			c0-0.6,0.4-1,1-1l0.2,0c0.5,0,1,0.4,1,1c0,0.6-0.4,1-1,1L242.9,5.5C242.9,5.5,242.9,5.5,242.9,5.5z M264.6,5.5c-0.5,0-1-0.4-1-0.9
			c0-0.6,0.4-1,0.9-1l0.2,0c0.5,0,1,0.4,1,1c0,0.6-0.4,1-1,1L264.6,5.5C264.6,5.5,264.6,5.5,264.6,5.5z"/>
		<path fill="#FFFFFF" d="M276.6,4.3c-0.5,0-1-0.4-1-0.9c0-0.5,0.3-1,0.9-1.1c0,0,0.1,0,0.1,0c0.5,0,1.1,0.4,1.1,0.9
			c0,0.5-0.3,1-0.9,1.1C276.8,4.3,276.7,4.3,276.6,4.3C276.7,4.3,276.7,4.3,276.6,4.3z"/>
		<path fill="#FFFFFF" d="M254.8,4.3c-0.5,0-1-0.4-1-0.9c0-0.6,0.4-1,0.9-1.1l0.2,0c0.5,0,1,0.4,1.1,0.9c0,0.6-0.4,1-0.9,1.1
			L254.8,4.3C254.9,4.3,254.9,4.3,254.8,4.3z M273.5,4.3c0,0-0.1,0-0.1,0l-0.2,0c-0.5-0.1-0.9-0.6-0.8-1.1c0.1-0.5,0.6-0.9,1.1-0.8
			l0.2,0c0.5,0.1,0.9,0.6,0.9,1.1C274.5,3.9,274,4.3,273.5,4.3z M251.8,4.2c0,0-0.1,0-0.1,0l-0.2,0c-0.5-0.1-0.9-0.6-0.8-1.1
			c0.1-0.5,0.6-0.9,1.1-0.8l0.2,0c0.5,0.1,0.9,0.6,0.9,1.1C252.8,3.9,252.3,4.2,251.8,4.2z M236.3,3.8c-0.4,0-0.8-0.3-1-0.7
			c-0.1-0.5,0.2-1.1,0.7-1.2l0.2-0.1c0.5-0.2,1.1,0.1,1.2,0.7c0.2,0.5-0.1,1.1-0.7,1.2l-0.2,0.1C236.5,3.8,236.4,3.8,236.3,3.8z
			 M258,3.8c-0.4,0-0.8-0.3-1-0.7c-0.2-0.5,0.1-1.1,0.6-1.2l0.2-0.1c0.5-0.2,1.1,0.1,1.2,0.7c0.2,0.5-0.1,1.1-0.7,1.2l-0.2,0
			C258.2,3.8,258.1,3.8,258,3.8z M270.4,3.5c-0.1,0-0.2,0-0.3-0.1L270,3.4c-0.5-0.2-0.8-0.8-0.6-1.3c0.2-0.5,0.7-0.8,1.3-0.6
			l0.2,0.1c0.5,0.2,0.8,0.8,0.6,1.3C271.2,3.2,270.8,3.5,270.4,3.5z M248.7,3.5c-0.1,0-0.2,0-0.3-0.1l-0.2-0.1
			c-0.5-0.2-0.8-0.8-0.6-1.3c0.2-0.5,0.8-0.8,1.3-0.6l0.2,0.1c0.5,0.2,0.8,0.8,0.6,1.3C249.5,3.2,249.2,3.5,248.7,3.5z M261,2.6
			c-0.4,0-0.8-0.3-0.9-0.7c-0.2-0.5,0.1-1.1,0.6-1.3l0.2-0.1c0.5-0.2,1.1,0.1,1.3,0.6c0.2,0.5-0.1,1.1-0.6,1.3l-0.2,0.1
			C261.2,2.6,261.1,2.6,261,2.6z M239.2,2.6c-0.4,0-0.8-0.3-0.9-0.7c-0.2-0.5,0.1-1.1,0.6-1.3l0.2-0.1c0.5-0.2,1.1,0.1,1.3,0.6
			c0.2,0.5-0.1,1.1-0.6,1.3l-0.2,0.1C239.5,2.6,239.3,2.6,239.2,2.6z M267.4,2.4c-0.1,0-0.2,0-0.3,0l-0.2,0
			c-0.5-0.1-0.9-0.7-0.7-1.2c0.1-0.5,0.7-0.9,1.2-0.7l0.2,0.1c0.5,0.1,0.9,0.7,0.7,1.2C268.3,2.1,267.9,2.4,267.4,2.4z M245.7,2.4
			c-0.1,0-0.2,0-0.2,0l-0.2,0c-0.5-0.1-0.9-0.7-0.8-1.2c0.1-0.5,0.7-0.9,1.2-0.8l0.2,0.1c0.5,0.1,0.9,0.7,0.7,1.2
			C246.6,2,246.2,2.4,245.7,2.4z M242.4,2c-0.5,0-1-0.4-1-1c0-0.6,0.4-1,1-1l0.2,0c0.6,0,1,0.4,1,1s-0.4,1-1,1L242.4,2
			C242.4,2,242.4,2,242.4,2z M264.1,2c-0.5,0-1-0.4-1-0.9c0-0.6,0.4-1,0.9-1l0.2,0c0.6,0,1,0.4,1,1s-0.4,1-1,1L264.1,2
			C264.1,2,264.1,2,264.1,2z"/>
		<path fill="#FFFFFF" d="M189.7,4.3c-0.5,0-1-0.4-1-0.9c0-0.5,0.3-1,0.8-1.1c0.1,0,0.1,0,0.2,0c0.5,0,1.1,0.4,1.1,0.9
			c0,0.5-0.3,1-0.8,1.1c-0.1,0-0.1,0-0.2,0L189.7,4.3C189.8,4.3,189.8,4.3,189.7,4.3z"/>
		<path fill="#FFFFFF" d="M168.1,4.4c-0.5,0-1-0.4-1-0.9c0-0.6,0.4-1,0.9-1.1l0.2,0c0.6-0.1,1,0.4,1.1,0.9s-0.4,1-0.9,1.1L168.1,4.4
			C168.1,4.4,168.1,4.4,168.1,4.4z M146.3,4.3c-0.5,0-1-0.4-1-0.9c0-0.6,0.4-1,0.9-1.1l0.2,0c0.6,0,1,0.4,1.1,0.9
			c0,0.6-0.4,1-0.9,1.1L146.3,4.3C146.4,4.3,146.4,4.3,146.3,4.3z M186.8,4.2c0,0-0.1,0-0.1,0l-0.2,0c-0.5-0.1-0.9-0.6-0.8-1.1
			c0.1-0.5,0.6-0.9,1.1-0.8l0.2,0c0.5,0.1,0.9,0.6,0.9,1.1C187.7,3.9,187.3,4.2,186.8,4.2z M143.3,4.2c0,0-0.1,0-0.1,0l-0.2,0
			c-0.5-0.1-0.9-0.6-0.8-1.1c0.1-0.5,0.6-0.9,1.1-0.8l0.2,0c0.5,0.1,0.9,0.6,0.9,1.1C144.3,3.9,143.8,4.2,143.3,4.2z M165.1,4.2
			c0,0-0.1,0-0.1,0l-0.2,0c-0.5-0.1-0.9-0.6-0.8-1.1c0.1-0.5,0.6-0.9,1.1-0.8l0.2,0c0.5,0.1,0.9,0.6,0.8,1.1
			C166,3.9,165.6,4.2,165.1,4.2z M171.2,3.8c-0.4,0-0.8-0.3-1-0.7c-0.2-0.5,0.2-1.1,0.7-1.2l0.2-0.1c0.5-0.2,1.1,0.1,1.2,0.7
			c0.2,0.5-0.1,1.1-0.7,1.2l-0.2,0.1C171.4,3.8,171.3,3.8,171.2,3.8z M149.5,3.8c-0.4,0-0.8-0.3-1-0.7c-0.2-0.5,0.1-1.1,0.7-1.2
			l0.2-0.1c0.5-0.2,1.1,0.1,1.3,0.6c0.2,0.5-0.1,1.1-0.6,1.3l-0.2,0.1C149.7,3.8,149.6,3.8,149.5,3.8z M127.8,3.8
			c-0.4,0-0.8-0.3-1-0.7c-0.2-0.5,0.1-1.1,0.7-1.2l0.2-0.1c0.5-0.2,1.1,0.1,1.2,0.7c0.2,0.5-0.1,1.1-0.7,1.2L128,3.7
			C127.9,3.7,127.9,3.8,127.8,3.8z M183.7,3.5c-0.1,0-0.2,0-0.3-0.1l-0.2-0.1c-0.5-0.2-0.8-0.8-0.6-1.3c0.2-0.5,0.8-0.8,1.3-0.6
			l0.2,0.1c0.5,0.2,0.8,0.8,0.6,1.3C184.5,3.2,184.1,3.5,183.7,3.5z M140.2,3.5c-0.1,0-0.2,0-0.3-0.1l-0.2-0.1
			c-0.5-0.2-0.8-0.8-0.6-1.3c0.2-0.5,0.8-0.8,1.3-0.6l0.2,0.1c0.5,0.2,0.8,0.8,0.6,1.3C141,3.2,140.6,3.5,140.2,3.5z M162,3.4
			c-0.1,0-0.2,0-0.3-0.1l-0.2-0.1c-0.5-0.2-0.8-0.8-0.6-1.3c0.2-0.5,0.8-0.8,1.3-0.6l0.2,0.1c0.5,0.2,0.8,0.8,0.6,1.3
			C162.8,3.2,162.4,3.4,162,3.4z M152.5,2.7c-0.4,0-0.8-0.3-1-0.7c-0.2-0.5,0.2-1.1,0.7-1.2l0.2-0.1c0.5-0.1,1.1,0.2,1.2,0.7
			c0.1,0.5-0.2,1.1-0.7,1.2l-0.2,0C152.7,2.7,152.6,2.7,152.5,2.7z M174.2,2.7c-0.4,0-0.8-0.3-0.9-0.7c-0.2-0.5,0.1-1.1,0.6-1.3
			l0.2-0.1c0.5-0.2,1.1,0.1,1.3,0.6c0.2,0.5-0.1,1.1-0.6,1.3l-0.2,0.1C174.4,2.7,174.3,2.7,174.2,2.7z M130.7,2.6
			c-0.4,0-0.8-0.3-0.9-0.7c-0.2-0.5,0.1-1.1,0.6-1.3l0.2-0.1c0.5-0.2,1.1,0.1,1.3,0.6c0.2,0.5-0.1,1.1-0.6,1.3l-0.2,0.1
			C131,2.6,130.9,2.6,130.7,2.6z M137.2,2.4c-0.1,0-0.2,0-0.2,0l-0.2,0c-0.5-0.1-0.9-0.7-0.8-1.2s0.7-0.9,1.2-0.8l0.2,0.1
			c0.5,0.1,0.9,0.7,0.7,1.2C138.1,2.1,137.7,2.4,137.2,2.4z M180.7,2.4c-0.1,0-0.2,0-0.2,0l-0.2,0c-0.5-0.1-0.9-0.7-0.7-1.2
			c0.1-0.5,0.7-0.9,1.2-0.7l0.2,0.1c0.5,0.1,0.9,0.7,0.7,1.2C181.5,2.1,181.1,2.4,180.7,2.4z M159,2.3c-0.1,0-0.2,0-0.3,0l0.2-1
			l-0.3,1l-0.1,0c-0.5-0.1-0.9-0.7-0.7-1.2c0.1-0.5,0.7-0.9,1.2-0.7l0.1,0c0,0,0.1,0,0.1,0c0.5,0.1,0.9,0.7,0.7,1.2
			C159.8,2,159.4,2.3,159,2.3z M155.6,2.1c-0.5,0-0.9-0.4-1-0.9c-0.1-0.5,0.4-1,0.9-1.1l0.2,0c0.6,0,1,0.4,1.1,0.9
			c0,0.6-0.4,1-0.9,1.1l0,0L155.6,2.1C155.7,2.1,155.6,2.1,155.6,2.1z M177.3,2c-0.5,0-1-0.4-1-0.9c0-0.6,0.4-1,0.9-1.1l0.2,0
			c0.5,0,1,0.4,1,1c0,0.6-0.4,1-1,1L177.3,2C177.3,2,177.3,2,177.3,2z M133.9,2c-0.5,0-1-0.4-1-1c0-0.6,0.4-1,1-1l0.2,0
			c0.6,0,1,0.4,1,1s-0.4,1-1,1L133.9,2C133.9,2,133.9,2,133.9,2z"/>
		<path fill="#FFFFFF" d="M124.6,4.3c-0.5,0-1-0.4-1-0.9c0-0.5,0.3-1,0.8-1.1c0.1,0,0.1,0,0.2,0c0.5,0,1.1,0.4,1.1,0.9
			c0,0.5-0.3,1-0.8,1.1c-0.1,0-0.1,0-0.2,0L124.6,4.3C124.6,4.3,124.6,4.3,124.6,4.3z"/>
		<path fill="#FFFFFF" d="M81.3,4.3c-0.5,0-1-0.4-1-0.9c0-0.5,0.4-1,0.9-1.1c0,0,0.1,0,0.1,0c0.5,0,1.1,0.4,1.1,0.9
			c0,0.5-0.3,1-0.9,1.1c0,0-0.1,0-0.1,0C81.5,4.3,81.4,4.3,81.3,4.3C81.4,4.3,81.3,4.3,81.3,4.3z"/>
		<path fill="#FFFFFF" d="M59.6,4.3c-0.5,0-1-0.4-1-0.9c0-0.6,0.4-1,0.9-1.1l0.2,0c0.5,0,1,0.4,1.1,0.9c0,0.6-0.4,1-0.9,1.1
			L59.6,4.3C59.6,4.3,59.6,4.3,59.6,4.3z M78.3,4.3c0,0-0.1,0-0.1,0l-0.2,0c-0.5-0.1-0.9-0.6-0.8-1.1c0.1-0.5,0.6-0.9,1.1-0.8l0.2,0
			c0.5,0.1,0.9,0.6,0.9,1.1C79.2,3.9,78.8,4.3,78.3,4.3z M56.6,4.2c0,0-0.1,0-0.1,0l-0.2,0c-0.5-0.1-0.9-0.6-0.8-1.1
			c0.1-0.5,0.6-0.9,1.1-0.8l0.2,0c0.5,0.1,0.9,0.6,0.9,1.1C57.5,3.9,57.1,4.2,56.6,4.2z M41.1,3.9c-0.4,0-0.8-0.3-1-0.7
			C40,2.6,40.3,2,40.8,1.9l0.2,0c0.5-0.2,1.1,0.1,1.2,0.7c0.2,0.5-0.1,1.1-0.7,1.2l-0.2,0.1C41.3,3.8,41.2,3.9,41.1,3.9z M62.8,3.8
			c-0.4,0-0.8-0.3-1-0.7c-0.2-0.5,0.1-1.1,0.6-1.2l0.2-0.1c0.5-0.2,1.1,0.1,1.2,0.7C64,3,63.8,3.5,63.2,3.7l-0.2,0
			C63,3.8,62.9,3.8,62.8,3.8z M75.2,3.5c-0.1,0-0.2,0-0.3-0.1l-0.1-0.1c-0.5-0.2-0.8-0.8-0.6-1.3c0.2-0.5,0.7-0.8,1.3-0.6l0.2,0.1
			c0.5,0.2,0.8,0.8,0.6,1.3C76,3.2,75.6,3.5,75.2,3.5z M53.5,3.4c-0.1,0-0.2,0-0.3-0.1L53,3.3c-0.5-0.2-0.8-0.8-0.6-1.3
			c0.2-0.5,0.8-0.8,1.3-0.6l0.2,0.1c0.5,0.2,0.8,0.8,0.6,1.3C54.3,3.2,53.9,3.4,53.5,3.4z M65.7,2.6c-0.4,0-0.8-0.3-0.9-0.7
			c-0.2-0.5,0.1-1.1,0.6-1.3l0.2-0.1c0.5-0.2,1.1,0.1,1.3,0.6c0.2,0.5-0.1,1.1-0.6,1.3l-0.2,0.1C65.9,2.6,65.8,2.6,65.7,2.6z
			 M44,2.6c-0.4,0-0.8-0.2-0.9-0.6c-0.2-0.5,0.1-1.1,0.6-1.3l0.2-0.1c0.5-0.2,1.1,0.1,1.3,0.6c0.2,0.5-0.1,1.1-0.6,1.3l-0.2,0.1
			C44.2,2.5,44.1,2.6,44,2.6z M72.2,2.4c-0.1,0-0.2,0-0.3,0l-0.2,0c-0.5-0.1-0.9-0.7-0.7-1.2c0.1-0.5,0.7-0.9,1.2-0.7l0.2,0.1
			c0.5,0.1,0.9,0.7,0.7,1.2C73.1,2.1,72.7,2.4,72.2,2.4z M50.5,2.4c-0.1,0-0.2,0-0.2,0l-0.2,0c-0.5-0.1-0.9-0.7-0.8-1.2
			c0.1-0.5,0.7-0.9,1.2-0.8l0.2,0c0.5,0.1,0.9,0.7,0.7,1.2C51.4,2,51,2.4,50.5,2.4z M68.9,2c-0.5,0-1-0.4-1-0.9c0-0.6,0.4-1,0.9-1
			L69,0c0.6,0,1,0.4,1,1c0,0.6-0.4,1-1,1L68.9,2C68.9,2,68.9,2,68.9,2z M47.1,2c-0.5,0-1-0.4-1-1c0-0.6,0.4-1,1-1l0.2,0
			c0.5,0,1,0.4,1,1c0,0.6-0.4,1-1,1L47.1,2C47.2,2,47.2,2,47.1,2z"/>
		<path fill="#FFFFFF" d="M125.3,11.1c-0.5,0-1-0.4-1-0.9c0-0.5,0.4-1,0.9-1.1c0,0,0.1,0,0.1,0c0.6,0,1.1,0.4,1.1,0.9
			s-0.3,1-0.9,1.1c0,0-0.1,0-0.1,0C125.5,11.1,125.4,11.1,125.3,11.1C125.4,11.1,125.3,11.1,125.3,11.1z"/>
		<path fill="#FFFFFF" d="M103.6,11.2c-0.5,0-1-0.4-1-0.9c0-0.6,0.4-1,0.9-1.1l0.2,0c0.5-0.1,1,0.4,1.1,0.9c0,0.6-0.4,1-0.9,1.1
			L103.6,11.2C103.6,11.2,103.6,11.2,103.6,11.2z M122.3,11.1c0,0-0.1,0-0.1,0l-0.2,0c-0.5-0.1-0.9-0.6-0.8-1.1
			c0.1-0.5,0.6-0.9,1.1-0.8l0.2,0c0.5,0.1,0.9,0.6,0.9,1.1C123.2,10.7,122.8,11.1,122.3,11.1z M100.6,11c0,0-0.1,0-0.1,0l-0.2,0
			c-0.5-0.1-0.9-0.6-0.8-1.1c0.1-0.5,0.6-0.9,1.1-0.8l0.2,0c0.5,0.1,0.9,0.6,0.9,1.1C101.5,10.7,101.1,11,100.6,11z M85.1,10.7
			c-0.4,0-0.8-0.3-1-0.7c-0.1-0.5,0.2-1.1,0.7-1.2l0.2,0c0.5-0.2,1.1,0.1,1.2,0.7c0.2,0.5-0.1,1.1-0.7,1.2l-0.2,0.1
			C85.3,10.7,85.2,10.7,85.1,10.7z M106.8,10.6c-0.4,0-0.8-0.3-1-0.7c-0.2-0.5,0.1-1.1,0.6-1.2l0.2-0.1c0.5-0.2,1.1,0.1,1.2,0.7
			c0.2,0.5-0.1,1.1-0.7,1.2l-0.2,0C107,10.6,106.9,10.6,106.8,10.6z M119.2,10.3c-0.1,0-0.2,0-0.3-0.1l-0.1-0.1
			c-0.5-0.2-0.8-0.8-0.6-1.3c0.2-0.5,0.7-0.8,1.3-0.6l0.2,0.1c0.5,0.2,0.8,0.8,0.6,1.3C120,10.1,119.6,10.3,119.2,10.3z M97.5,10.3
			c-0.1,0-0.2,0-0.3-0.1L97,10.1c-0.5-0.2-0.8-0.8-0.6-1.3c0.2-0.5,0.8-0.8,1.3-0.6l0.2,0.1c0.5,0.2,0.8,0.8,0.6,1.3
			C98.3,10,97.9,10.3,97.5,10.3z M109.7,9.5c-0.4,0-0.8-0.3-0.9-0.7c-0.2-0.5,0.1-1.1,0.6-1.3l0.2-0.1c0.5-0.2,1.1,0.1,1.3,0.6
			c0.2,0.5-0.1,1.1-0.6,1.3l-0.2,0.1C109.9,9.4,109.8,9.5,109.7,9.5z M88,9.4c-0.4,0-0.8-0.2-0.9-0.6c-0.2-0.5,0.1-1.1,0.6-1.3
			l0.2-0.1C88.4,7.2,89,7.5,89.1,8c0.2,0.5-0.1,1.1-0.6,1.3l-0.2,0.1C88.2,9.4,88.1,9.4,88,9.4z M116.2,9.2c-0.1,0-0.2,0-0.3,0
			l-0.2,0c-0.5-0.1-0.9-0.7-0.7-1.2c0.1-0.5,0.7-0.9,1.2-0.7l0.2,0.1c0.5,0.1,0.9,0.7,0.7,1.2C117.1,8.9,116.7,9.2,116.2,9.2z
			 M94.5,9.2c-0.1,0-0.2,0-0.2,0l-0.2,0c-0.5-0.1-0.9-0.7-0.8-1.2C93.5,7.4,94,7,94.5,7.1l0.2,0c0.5,0.1,0.9,0.7,0.7,1.2
			C95.4,8.9,95,9.2,94.5,9.2z M112.9,8.8c-0.5,0-1-0.4-1-0.9c0-0.6,0.4-1,0.9-1l0.2,0c0.6,0,1,0.4,1,1s-0.4,1-1,1L112.9,8.8
			C112.9,8.8,112.9,8.8,112.9,8.8z M91.1,8.8c-0.5,0-1-0.4-1-1c0-0.6,0.4-1,1-1l0.2,0c0.5,0,1,0.4,1,1c0,0.6-0.4,1-1,1L91.1,8.8
			C91.2,8.8,91.2,8.8,91.1,8.8z"/>
		<path fill="#FFFFFF" d="M125.3,7.8c-0.5,0-1-0.4-1-0.9c0-0.5,0.4-1,0.9-1.1c0,0,0.1,0,0.1,0c0.6,0,1.1,0.4,1.1,0.9
			c0,0.5-0.3,1-0.9,1.1c0,0-0.1,0-0.1,0C125.5,7.8,125.4,7.8,125.3,7.8C125.4,7.8,125.3,7.8,125.3,7.8z"/>
		<path fill="#FFFFFF" d="M103.6,7.8c-0.5,0-1-0.4-1-0.9c0-0.6,0.4-1,0.9-1.1l0.2,0c0.5-0.1,1,0.4,1.1,0.9c0,0.6-0.4,1-0.9,1.1
			L103.6,7.8C103.6,7.8,103.6,7.8,103.6,7.8z M122.3,7.8c0,0-0.1,0-0.1,0l-0.2,0c-0.5-0.1-0.9-0.6-0.8-1.1c0.1-0.5,0.6-0.9,1.1-0.8
			l0.2,0c0.5,0.1,0.9,0.6,0.9,1.1C123.2,7.4,122.8,7.8,122.3,7.8z M100.6,7.7c0,0-0.1,0-0.1,0l-0.2,0c-0.5-0.1-0.9-0.6-0.8-1.1
			c0.1-0.5,0.6-0.9,1.1-0.8l0.2,0c0.5,0.1,0.9,0.6,0.9,1.1C101.5,7.4,101.1,7.7,100.6,7.7z M85.1,7.4c-0.4,0-0.8-0.3-1-0.7
			c-0.1-0.5,0.2-1.1,0.7-1.2l0.2,0c0.5-0.2,1.1,0.1,1.2,0.7c0.2,0.5-0.1,1.1-0.7,1.2l-0.2,0.1C85.3,7.3,85.2,7.4,85.1,7.4z
			 M106.8,7.3c-0.4,0-0.8-0.3-1-0.7c-0.2-0.5,0.1-1.1,0.6-1.2l0.2-0.1c0.5-0.2,1.1,0.1,1.2,0.7c0.2,0.5-0.1,1.1-0.7,1.2l-0.2,0
			C107,7.3,106.9,7.3,106.8,7.3z M119.2,7c-0.1,0-0.2,0-0.3-0.1l-0.1-0.1c-0.5-0.2-0.8-0.8-0.6-1.3c0.2-0.5,0.7-0.8,1.3-0.6l0.2,0.1
			c0.5,0.2,0.8,0.8,0.6,1.3C120,6.7,119.6,7,119.2,7z M97.5,6.9c-0.1,0-0.2,0-0.3-0.1L97,6.8c-0.5-0.2-0.8-0.8-0.6-1.3
			c0.2-0.5,0.8-0.8,1.3-0.6L97.9,5c0.5,0.2,0.8,0.8,0.6,1.3C98.3,6.7,97.9,6.9,97.5,6.9z M109.7,6.1c-0.4,0-0.8-0.3-0.9-0.7
			c-0.2-0.5,0.1-1.1,0.6-1.3l0.2-0.1c0.5-0.2,1.1,0.1,1.3,0.6c0.2,0.5-0.1,1.1-0.6,1.3l-0.2,0.1C109.9,6.1,109.8,6.1,109.7,6.1z
			 M88,6.1c-0.4,0-0.8-0.2-0.9-0.6c-0.2-0.5,0.1-1.1,0.6-1.3l0.2-0.1c0.5-0.2,1.1,0.1,1.3,0.6c0.2,0.5-0.1,1.1-0.6,1.3L88.4,6
			C88.2,6,88.1,6.1,88,6.1z M116.2,5.9c-0.1,0-0.2,0-0.3,0l-0.2,0c-0.5-0.1-0.9-0.7-0.7-1.2c0.1-0.5,0.7-0.9,1.2-0.7l0.2,0.1
			c0.5,0.1,0.9,0.7,0.7,1.2C117.1,5.6,116.7,5.9,116.2,5.9z M94.5,5.9c-0.1,0-0.2,0-0.2,0l-0.2,0c-0.5-0.1-0.9-0.7-0.8-1.2
			C93.5,4,94,3.7,94.5,3.8l0.2,0c0.5,0.1,0.9,0.7,0.7,1.2C95.4,5.5,95,5.9,94.5,5.9z M112.9,5.5c-0.5,0-1-0.4-1-0.9
			c0-0.6,0.4-1,0.9-1l0.2,0c0.6,0,1,0.4,1,1s-0.4,1-1,1L112.9,5.5C112.9,5.5,112.9,5.5,112.9,5.5z M91.1,5.5c-0.5,0-1-0.4-1-1
			c0-0.6,0.4-1,1-1l0.2,0c0.5,0,1,0.4,1,1c0,0.6-0.4,1-1,1L91.1,5.5C91.2,5.5,91.2,5.5,91.1,5.5z"/>
		<path fill="#FFFFFF" d="M124.8,4.3c-0.5,0-1-0.4-1-0.9c0-0.5,0.4-1,0.9-1.1c0,0,0.1,0,0.1,0c0.5,0,1.1,0.4,1.1,0.9
			c0,0.5-0.3,1-0.9,1.1c0,0-0.1,0-0.1,0C125,4.3,124.9,4.3,124.8,4.3C124.9,4.3,124.8,4.3,124.8,4.3z"/>
		<path fill="#FFFFFF" d="M103.1,4.3c-0.5,0-1-0.4-1-0.9c0-0.6,0.4-1,0.9-1.1l0.2,0c0.5,0,1,0.4,1.1,0.9c0,0.6-0.4,1-0.9,1.1
			L103.1,4.3C103.1,4.3,103.1,4.3,103.1,4.3z M121.8,4.3c0,0-0.1,0-0.1,0l-0.2,0c-0.5-0.1-0.9-0.6-0.8-1.1c0.1-0.5,0.6-0.9,1.1-0.8
			l0.2,0c0.5,0.1,0.9,0.6,0.9,1.1C122.7,3.9,122.3,4.3,121.8,4.3z M100.1,4.2c0,0-0.1,0-0.1,0l-0.2,0c-0.5-0.1-0.9-0.6-0.8-1.1
			c0.1-0.5,0.6-0.9,1.1-0.8l0.2,0c0.5,0.1,0.9,0.6,0.9,1.1C101,3.9,100.6,4.2,100.1,4.2z M84.6,3.9c-0.4,0-0.8-0.3-1-0.7
			c-0.1-0.5,0.2-1.1,0.7-1.2l0.2,0C85,1.7,85.6,2,85.7,2.5c0.2,0.5-0.1,1.1-0.7,1.2l-0.2,0.1C84.8,3.8,84.7,3.9,84.6,3.9z
			 M106.3,3.8c-0.4,0-0.8-0.3-1-0.7c-0.2-0.5,0.1-1.1,0.6-1.2l0.2-0.1c0.5-0.2,1.1,0.1,1.2,0.7c0.2,0.5-0.1,1.1-0.7,1.2l-0.2,0
			C106.5,3.8,106.4,3.8,106.3,3.8z M118.7,3.5c-0.1,0-0.2,0-0.3-0.1l-0.1-0.1c-0.5-0.2-0.8-0.8-0.6-1.3c0.2-0.5,0.7-0.8,1.3-0.6
			l0.2,0.1c0.5,0.2,0.8,0.8,0.6,1.3C119.5,3.2,119.1,3.5,118.7,3.5z M97,3.4c-0.1,0-0.2,0-0.3-0.1l-0.2-0.1C96,3.1,95.7,2.5,95.9,2
			c0.2-0.5,0.8-0.8,1.3-0.6l0.2,0.1c0.5,0.2,0.8,0.8,0.6,1.3C97.8,3.2,97.4,3.4,97,3.4z M109.2,2.6c-0.4,0-0.8-0.3-0.9-0.7
			c-0.2-0.5,0.1-1.1,0.6-1.3l0.2-0.1c0.5-0.2,1.1,0.1,1.3,0.6c0.2,0.5-0.1,1.1-0.6,1.3l-0.2,0.1C109.4,2.6,109.3,2.6,109.2,2.6z
			 M87.5,2.6c-0.4,0-0.8-0.2-0.9-0.6c-0.2-0.5,0.1-1.1,0.6-1.3l0.2-0.1c0.5-0.2,1.1,0.1,1.3,0.6c0.2,0.5-0.1,1.1-0.6,1.3l-0.2,0.1
			C87.7,2.5,87.6,2.6,87.5,2.6z M115.7,2.4c-0.1,0-0.2,0-0.3,0l-0.2,0c-0.5-0.1-0.9-0.7-0.7-1.2c0.1-0.5,0.7-0.9,1.2-0.7l0.2,0.1
			c0.5,0.1,0.9,0.7,0.7,1.2C116.6,2.1,116.2,2.4,115.7,2.4z M94,2.4c-0.1,0-0.2,0-0.2,0l-0.2,0c-0.5-0.1-0.9-0.7-0.8-1.2
			C93,0.5,93.5,0.2,94,0.3l0.2,0C94.8,0.5,95.1,1,95,1.6C94.9,2,94.5,2.4,94,2.4z M112.4,2c-0.5,0-1-0.4-1-0.9c0-0.6,0.4-1,0.9-1
			l0.2,0c0.6,0,1,0.4,1,1c0,0.6-0.4,1-1,1L112.4,2C112.4,2,112.4,2,112.4,2z M90.6,2c-0.5,0-1-0.4-1-1c0-0.6,0.4-1,1-1l0.2,0
			c0.5,0,1,0.4,1,1c0,0.6-0.4,1-1,1L90.6,2C90.7,2,90.7,2,90.6,2z"/>
		<path fill="#FFFFFF" d="M37.9,4.3c-0.5,0-1-0.4-1-0.9c0-0.5,0.3-1,0.8-1.1c0.1,0,0.1,0,0.2,0c0.6,0,1.1,0.4,1.1,0.9
			c0,0.5-0.3,1-0.8,1.1c-0.1,0-0.1,0-0.2,0L37.9,4.3C38,4.3,37.9,4.3,37.9,4.3z"/>
		<path fill="#FFFFFF" d="M16.4,4.3c-0.5,0-1-0.4-1-0.9c0-0.6,0.4-1,0.9-1.1l0.2,0c0.6,0,1,0.4,1.1,0.9c0,0.5-0.4,1-0.9,1.1
			L16.4,4.3C16.4,4.3,16.4,4.3,16.4,4.3z M13.4,4.3c0,0-0.1,0-0.1,0l-0.2,0c-0.5-0.1-0.9-0.6-0.8-1.1c0.1-0.5,0.6-0.9,1.1-0.8l0.2,0
			c0.5,0.1,0.9,0.6,0.9,1.1C14.3,3.9,13.9,4.3,13.4,4.3z M34.9,4.2c0,0-0.1,0-0.1,0l-0.2,0c-0.5-0.1-0.9-0.6-0.8-1.1
			s0.6-0.9,1.1-0.8l0.2,0c0.5,0.1,0.9,0.6,0.8,1.1C35.9,3.9,35.4,4.2,34.9,4.2z M19.5,3.8c-0.4,0-0.8-0.3-1-0.7
			c-0.2-0.5,0.1-1.1,0.7-1.2l0.2-0.1c0.5-0.2,1.1,0.1,1.3,0.7c0.2,0.5-0.1,1.1-0.7,1.3l-0.2,0.1C19.7,3.8,19.6,3.8,19.5,3.8z
			 M10.3,3.5c-0.1,0-0.2,0-0.3-0.1L9.8,3.4C9.3,3.2,9,2.6,9.2,2.1c0.2-0.5,0.8-0.8,1.3-0.6l0.2,0.1c0.5,0.2,0.8,0.8,0.6,1.3
			C11.1,3.3,10.8,3.5,10.3,3.5z M31.9,3.5c-0.1,0-0.2,0-0.3-0.1l-0.2-0.1c-0.5-0.2-0.8-0.8-0.6-1.3c0.2-0.5,0.8-0.8,1.3-0.6l0.2,0.1
			c0.5,0.2,0.8,0.8,0.6,1.3C32.7,3.2,32.3,3.5,31.9,3.5z M22.5,2.6c-0.4,0-0.8-0.3-0.9-0.7c-0.2-0.5,0.1-1.1,0.6-1.3l0.2-0.1
			c0.5-0.2,1.1,0.1,1.3,0.6c0.2,0.5-0.1,1.1-0.6,1.3l-0.2,0.1C22.7,2.6,22.6,2.6,22.5,2.6z M7.4,2.4c-0.1,0-0.2,0-0.3,0L7,2.3
			l0.5-1.9l0.2,0.1c0.5,0.1,0.9,0.7,0.7,1.2C8.2,2.1,7.8,2.4,7.4,2.4z M28.9,2.4c-0.1,0-0.2,0-0.3,0l-0.2,0
			c-0.5-0.1-0.9-0.7-0.7-1.2c0.1-0.5,0.7-0.9,1.2-0.7l0.2,0.1c0.5,0.1,0.9,0.7,0.7,1.2C29.8,2.1,29.3,2.4,28.9,2.4z M4.2,2.1
			C4.2,2.1,4.2,2.1,4.2,2.1L4,2.1c0,0,0,0,0,0c-0.5,0-1-0.4-1-1c0-0.6,0.4-1,1-1l0.2,0c0.6,0,1,0.5,1,1C5.2,1.6,4.8,2.1,4.2,2.1z
			 M25.6,2c-0.5,0-1-0.4-1-0.9c0-0.6,0.4-1,0.9-1.1l0.2,0c0.6,0,1,0.4,1,1c0,0.6-0.4,1-1,1L25.6,2C25.6,2,25.6,2,25.6,2z"/>
		<path fill="#FFFFFF" d="M1,2.5c-0.5,0-0.9-0.3-1-0.8c-0.1-0.5,0.3-1.1,0.8-1.2S1.9,0.8,2,1.3c0.1,0.5-0.2,1.1-0.7,1.2l-0.1,0
			C1.1,2.5,1.1,2.5,1,2.5z"/>
	</g>
</g>
</svg>
