<?xml version="1.0" encoding="utf-8"?>
<!DOCTYPE svg PUBLIC "-//W3C//DTD SVG 1.1//EN" "http://www.w3.org/Graphics/SVG/1.1/DTD/svg11.dtd">
<svg version="1.1" xmlns="http://www.w3.org/2000/svg" xmlns:xlink="http://www.w3.org/1999/xlink" x="0px" y="0px" width="400px"
	 height="124px" viewBox="0 0 400 124" enable-background="new 0 0 400 124" xml:space="preserve">
<g>
	<line fill="none" stroke="#F5EEED" stroke-width="0.75" stroke-miterlimit="10" x1="4" y1="113.7" x2="198.6" y2="113.7"/>
	<line fill="none" stroke="#F5EEED" stroke-width="0.75" stroke-miterlimit="10" x1="4" y1="107.4" x2="218.2" y2="107.4"/>
	<line fill="none" stroke="#F5EEED" stroke-width="0.75" stroke-miterlimit="10" x1="4" y1="101.1" x2="233.6" y2="101.1"/>
	<line fill="none" stroke="#F5EEED" stroke-width="0.75" stroke-miterlimit="10" x1="4" y1="94.7" x2="247.5" y2="94.7"/>
	<line fill="none" stroke="#F5EEED" stroke-width="0.75" stroke-miterlimit="10" x1="4" y1="88.4" x2="261.4" y2="88.4"/>
	<line fill="none" stroke="#F5EEED" stroke-width="0.75" stroke-miterlimit="10" x1="4" y1="82.1" x2="290.3" y2="82.1"/>
	<line fill="none" stroke="#F5EEED" stroke-width="0.75" stroke-miterlimit="10" x1="4" y1="75.8" x2="290.3" y2="75.8"/>
	<line fill="none" stroke="#F5EEED" stroke-width="0.75" stroke-miterlimit="10" x1="4" y1="69.5" x2="290.3" y2="69.5"/>
	<line fill="none" stroke="#F5EEED" stroke-width="0.75" stroke-miterlimit="10" x1="4" y1="63.2" x2="290.3" y2="63.2"/>
	<line fill="none" stroke="#F5EEED" stroke-width="0.75" stroke-miterlimit="10" x1="4" y1="56.9" x2="290.3" y2="56.9"/>
	<line fill="none" stroke="#F5EEED" stroke-width="0.75" stroke-miterlimit="10" x1="4" y1="50.6" x2="290.3" y2="50.6"/>
	<line fill="#0F0F0F" x1="316.7" y1="64" x2="316.7" y2="59.8"/>
	<path fill="none" stroke="#000000" stroke-width="3" stroke-miterlimit="10" d="M283.5,83.7l-14.3,0c0,0-54,36.5-120.3,36.5H4V3
		h144.9C215.2,3,269,39.6,269,39.6h14.8"/>
	<line fill="none" stroke="#000000" stroke-width="3" stroke-miterlimit="10" x1="267.7" y1="46" x2="267.7" y2="77.2"/>
	<path fill="#0F0F0F" stroke="#0F0F0F" stroke-miterlimit="10" d="M290.8,78h12.6c2.4,0,4.4-2,4.4-4.4V49.8c0-2.4-2-4.4-4.4-4.4
		h-12.6V78z"/>
	<path fill="#0F0F0F" stroke="#0F0F0F" stroke-miterlimit="10" d="M301,66.8h14.9c3.4,0,6.1-2.8,6.1-6.1c0-3.4-2.7-6.1-6.1-6.1H301
		V66.8z"/>
	<rect x="280.7" y="39.6" fill="none" stroke="#000000" stroke-width="3" stroke-miterlimit="10" width="9.2" height="44.2"/>
	
		<path fill="#0F0F0F" stroke="#0F0F0F" stroke-width="2" stroke-linecap="round" stroke-linejoin="round" stroke-miterlimit="10" d="
		M396.5,107.9l-4-6.1v-29c0-3.3-0.9-5.7-2.7-7.2c-3.3-2.8-9.3-2.9-9.3-2.9h-74.3v-4h74.2c1.2-0.2,7.6,0.1,12,3.8
		c2.8,2.3,4.2,5.8,4.2,10.3V107.9z"/>
</g>
</svg>
