<?xml version="1.0" encoding="utf-8"?>
<!DOCTYPE svg PUBLIC "-//W3C//DTD SVG 1.1//EN" "http://www.w3.org/Graphics/SVG/1.1/DTD/svg11.dtd">
<svg version="1.1" xmlns="http://www.w3.org/2000/svg" xmlns:xlink="http://www.w3.org/1999/xlink" x="0px" y="0px" width="477px"
	 height="300px" viewBox="0 0 477 300" enable-background="new 0 0 477 300" xml:space="preserve">
<g>
	<g>
		<defs>
			<polygon id="SVGID_1_" points="436.3,14.1 436.5,221.8 42.1,221.8 41.5,14.1 17.6,14.1 17.6,249.9 460.5,245.3 461,14.1 			"/>
		</defs>
		<clipPath id="SVGID_2_">
			<use xlink:href="#SVGID_1_"  overflow="visible"/>
		</clipPath>
		
			<line clip-path="url(#SVGID_2_)" fill="none" stroke="#0F0F0F" stroke-miterlimit="10" x1="17.5" y1="238.5" x2="460.6" y2="238.5"/>
		
			<line clip-path="url(#SVGID_2_)" fill="none" stroke="#0F0F0F" stroke-miterlimit="10" x1="17.5" y1="230.7" x2="460.6" y2="230.7"/>
		
			<line clip-path="url(#SVGID_2_)" fill="none" stroke="#0F0F0F" stroke-miterlimit="10" x1="17.5" y1="222.9" x2="460.6" y2="222.9"/>
		
			<line clip-path="url(#SVGID_2_)" fill="none" stroke="#0F0F0F" stroke-miterlimit="10" x1="17.5" y1="215.1" x2="460.6" y2="215.1"/>
		
			<line clip-path="url(#SVGID_2_)" fill="none" stroke="#0F0F0F" stroke-miterlimit="10" x1="17.5" y1="207.3" x2="460.6" y2="207.3"/>
		
			<line clip-path="url(#SVGID_2_)" fill="none" stroke="#0F0F0F" stroke-miterlimit="10" x1="17.5" y1="199.5" x2="460.6" y2="199.5"/>
		
			<line clip-path="url(#SVGID_2_)" fill="none" stroke="#0F0F0F" stroke-miterlimit="10" x1="17.5" y1="191.7" x2="460.6" y2="191.7"/>
		<path clip-path="url(#SVGID_2_)" fill="none" stroke="#0F0F0F" stroke-miterlimit="10" d="M460.6,135.2"/>
		<path clip-path="url(#SVGID_2_)" fill="none" stroke="#0F0F0F" stroke-miterlimit="10" d="M17.5,135.2"/>
	</g>
	<polyline fill="none" stroke="#0F0F0F" stroke-miterlimit="10" points="436.5,222.8 436.3,14.1 460.5,14.1 460.5,245.3 17.6,245.3 
		17.6,14.1 41.7,14.1 42.2,222.8 	"/>
	<polygon fill="none" stroke="#000000" stroke-width="6" points="423.8,188.1 53.2,189.1 53.5,4 5,4 5,258.3 472,258.3 472,4 
		423.9,4 	"/>
	<g>
		<circle fill="none" stroke="#0F0F0F" stroke-width="1.2928" stroke-miterlimit="10" cx="89.3" cy="87" r="8"/>
		<path fill="none" stroke="#0F0F0F" stroke-width="1.2928" stroke-miterlimit="10" d="M100.3,87c0,6.1-4.9,11-11,11
			c-6.1,0-11-4.9-11-11c0-6.1,4.9-11,11-11C95.4,76.1,100.3,81,100.3,87z"/>
		<path fill="#0F0F0F" stroke="#0F0F0F" stroke-width="1.2928" stroke-miterlimit="10" d="M92.4,87c0,1.7-1.4,3.1-3.1,3.1
			c-1.7,0-3.1-1.4-3.1-3.1c0-1.7,1.4-3.1,3.1-3.1C91.1,83.9,92.4,85.3,92.4,87z"/>
	</g>
	<g>
		<path fill="none" stroke="#0F0F0F" stroke-width="1.2928" stroke-miterlimit="10" d="M119.3,87c0,4.4-3.6,8-8,8c-4.4,0-8-3.6-8-8
			c0-4.4,3.6-8,8-8C115.7,79,119.3,82.6,119.3,87z"/>
		<path fill="none" stroke="#0F0F0F" stroke-width="1.2928" stroke-miterlimit="10" d="M122.3,87c0,6.1-4.9,11-11,11
			c-6.1,0-11-4.9-11-11c0-6.1,4.9-11,11-11C117.3,76.1,122.3,81,122.3,87z"/>
		<circle fill="#0F0F0F" stroke="#0F0F0F" stroke-width="1.2928" stroke-miterlimit="10" cx="111.3" cy="87" r="3.1"/>
	</g>
	<g>
		<circle fill="none" stroke="#0F0F0F" stroke-width="1.2928" stroke-miterlimit="10" cx="133.2" cy="87" r="8"/>
		<path fill="none" stroke="#0F0F0F" stroke-width="1.2928" stroke-miterlimit="10" d="M144.2,87c0,6.1-4.9,11-11,11
			c-6.1,0-11-4.9-11-11c0-6.1,4.9-11,11-11C139.3,76.1,144.2,81,144.2,87z"/>
		<circle fill="#0F0F0F" stroke="#0F0F0F" stroke-width="1.2928" stroke-miterlimit="10" cx="133.2" cy="87" r="3.1"/>
	</g>
	<g>
		<circle fill="none" stroke="#0F0F0F" stroke-width="1.2928" stroke-miterlimit="10" cx="155.2" cy="87" r="8"/>
		<path fill="none" stroke="#0F0F0F" stroke-width="1.2928" stroke-miterlimit="10" d="M166.2,87c0,6.1-4.9,11-11,11
			c-6.1,0-11-4.9-11-11c0-6.1,4.9-11,11-11C161.2,76.1,166.2,81,166.2,87z"/>
		<circle fill="#0F0F0F" stroke="#0F0F0F" stroke-width="1.2928" stroke-miterlimit="10" cx="155.2" cy="87" r="3.1"/>
	</g>
	<g>
		<circle fill="none" stroke="#0F0F0F" stroke-width="1.2928" stroke-miterlimit="10" cx="177.1" cy="87" r="8"/>
		<path fill="none" stroke="#0F0F0F" stroke-width="1.2928" stroke-miterlimit="10" d="M188.1,87c0,6.1-4.9,11-11,11s-11-4.9-11-11
			c0-6.1,4.9-11,11-11S188.1,81,188.1,87z"/>
		<circle fill="#0F0F0F" stroke="#0F0F0F" stroke-width="1.2928" stroke-miterlimit="10" cx="177.1" cy="87" r="3.1"/>
	</g>
	<g>
		<path fill="none" stroke="#0F0F0F" stroke-width="1.2928" stroke-miterlimit="10" d="M207.1,87c0,4.4-3.6,8-8,8c-4.4,0-8-3.6-8-8
			c0-4.4,3.6-8,8-8C203.5,79,207.1,82.6,207.1,87z"/>
		<path fill="none" stroke="#0F0F0F" stroke-width="1.2928" stroke-miterlimit="10" d="M210.1,87c0,6.1-4.9,11-11,11
			c-6.1,0-11-4.9-11-11c0-6.1,4.9-11,11-11C205.1,76.1,210.1,81,210.1,87z"/>
		<circle fill="#0F0F0F" stroke="#0F0F0F" stroke-width="1.2928" stroke-miterlimit="10" cx="199.1" cy="87" r="3.1"/>
	</g>
	<g>
		<circle fill="none" stroke="#0F0F0F" stroke-width="1.2928" stroke-miterlimit="10" cx="221" cy="87" r="8"/>
		<path fill="none" stroke="#0F0F0F" stroke-width="1.2928" stroke-miterlimit="10" d="M232,87c0,6.1-4.9,11-11,11
			c-6.1,0-11-4.9-11-11c0-6.1,4.9-11,11-11C227.1,76.1,232,81,232,87z"/>
		<circle fill="#0F0F0F" stroke="#0F0F0F" stroke-width="1.2928" stroke-miterlimit="10" cx="221" cy="87" r="3.1"/>
	</g>
	<g>
		<path fill="none" stroke="#0F0F0F" stroke-width="1.2928" stroke-miterlimit="10" d="M251,87c0,4.4-3.6,8-8,8c-4.4,0-8-3.6-8-8
			c0-4.4,3.6-8,8-8C247.4,79,251,82.6,251,87z"/>
		<path fill="none" stroke="#0F0F0F" stroke-width="1.2928" stroke-miterlimit="10" d="M254,87c0,6.1-4.9,11-11,11
			c-6.1,0-11-4.9-11-11c0-6.1,4.9-11,11-11C249,76.1,254,81,254,87z"/>
		<path fill="#0F0F0F" stroke="#0F0F0F" stroke-width="1.2928" stroke-miterlimit="10" d="M246.1,87c0,1.7-1.4,3.1-3.1,3.1
			c-1.7,0-3.1-1.4-3.1-3.1c0-1.7,1.4-3.1,3.1-3.1C244.7,83.9,246.1,85.3,246.1,87z"/>
	</g>
	<g>
		<path fill="none" stroke="#0F0F0F" stroke-width="1.2928" stroke-miterlimit="10" d="M273,87c0,4.4-3.6,8-8,8c-4.4,0-8-3.6-8-8
			c0-4.4,3.6-8,8-8C269.4,79,273,82.6,273,87z"/>
		<path fill="none" stroke="#0F0F0F" stroke-width="1.2928" stroke-miterlimit="10" d="M275.9,87c0,6.1-4.9,11-11,11
			c-6.1,0-11-4.9-11-11c0-6.1,4.9-11,11-11C271,76.1,275.9,81,275.9,87z"/>
		<path fill="#0F0F0F" stroke="#0F0F0F" stroke-width="1.2928" stroke-miterlimit="10" d="M268,87c0,1.7-1.4,3.1-3.1,3.1
			c-1.7,0-3.1-1.4-3.1-3.1c0-1.7,1.4-3.1,3.1-3.1C266.6,83.9,268,85.3,268,87z"/>
	</g>
	<g>
		<path fill="none" stroke="#0F0F0F" stroke-width="1.2928" stroke-miterlimit="10" d="M295.3,87c0,4.4-3.6,8-8,8s-8-3.6-8-8
			c0-4.4,3.6-8,8-8S295.3,82.6,295.3,87z"/>
		<path fill="none" stroke="#0F0F0F" stroke-width="1.2928" stroke-miterlimit="10" d="M298.3,87c0,6.1-4.9,11-11,11
			c-6.1,0-11-4.9-11-11c0-6.1,4.9-11,11-11C293.3,76.1,298.3,81,298.3,87z"/>
		<circle fill="#0F0F0F" stroke="#0F0F0F" stroke-width="1.2928" stroke-miterlimit="10" cx="287.3" cy="87" r="3.1"/>
	</g>
	<g>
		<path fill="none" stroke="#0F0F0F" stroke-width="1.2928" stroke-miterlimit="10" d="M317.7,87c0,4.4-3.6,8-8,8s-8-3.6-8-8
			c0-4.4,3.6-8,8-8S317.7,82.6,317.7,87z"/>
		<path fill="none" stroke="#0F0F0F" stroke-width="1.2928" stroke-miterlimit="10" d="M320.6,87c0,6.1-4.9,11-11,11
			c-6.1,0-11-4.9-11-11c0-6.1,4.9-11,11-11C315.7,76.1,320.6,81,320.6,87z"/>
		<circle fill="#0F0F0F" stroke="#0F0F0F" stroke-width="1.2928" stroke-miterlimit="10" cx="309.6" cy="87" r="3.1"/>
	</g>
	<g>
		<path fill="none" stroke="#0F0F0F" stroke-width="1.2928" stroke-miterlimit="10" d="M340,87c0,4.4-3.6,8-8,8c-4.4,0-8-3.6-8-8
			c0-4.4,3.6-8,8-8C336.4,79,340,82.6,340,87z"/>
		<path fill="none" stroke="#0F0F0F" stroke-width="1.2928" stroke-miterlimit="10" d="M343,87c0,6.1-4.9,11-11,11
			c-6.1,0-11-4.9-11-11c0-6.1,4.9-11,11-11C338,76.1,343,81,343,87z"/>
		<circle fill="#0F0F0F" stroke="#0F0F0F" stroke-width="1.2928" stroke-miterlimit="10" cx="332" cy="87" r="3.1"/>
	</g>
	<g>
		<path fill="none" stroke="#0F0F0F" stroke-width="1.2928" stroke-miterlimit="10" d="M362.4,87c0,4.4-3.6,8-8,8s-8-3.6-8-8
			c0-4.4,3.6-8,8-8S362.4,82.6,362.4,87z"/>
		<path fill="none" stroke="#0F0F0F" stroke-width="1.2928" stroke-miterlimit="10" d="M365.3,87c0,6.1-4.9,11-11,11
			c-6.1,0-11-4.9-11-11c0-6.1,4.9-11,11-11C360.4,76.1,365.3,81,365.3,87z"/>
		<circle fill="#0F0F0F" stroke="#0F0F0F" stroke-width="1.2928" stroke-miterlimit="10" cx="354.3" cy="87" r="3.1"/>
	</g>
	<g>
		<circle fill="none" stroke="#0F0F0F" stroke-width="1.2928" stroke-miterlimit="10" cx="376.7" cy="87" r="8"/>
		<path fill="none" stroke="#0F0F0F" stroke-width="1.2928" stroke-miterlimit="10" d="M387.7,87c0,6.1-4.9,11-11,11s-11-4.9-11-11
			c0-6.1,4.9-11,11-11S387.7,81,387.7,87z"/>
		<circle fill="#0F0F0F" stroke="#0F0F0F" stroke-width="1.2928" stroke-miterlimit="10" cx="376.7" cy="87" r="3.1"/>
	</g>
	<g>
		<path fill="none" stroke="#0F0F0F" stroke-width="1.2928" stroke-miterlimit="10" d="M407.1,87c0,4.4-3.6,8-8,8c-4.4,0-8-3.6-8-8
			c0-4.4,3.6-8,8-8C403.5,79,407.1,82.6,407.1,87z"/>
		<path fill="none" stroke="#0F0F0F" stroke-width="1.2928" stroke-miterlimit="10" d="M410,87c0,6.1-4.9,11-11,11
			c-6.1,0-11-4.9-11-11c0-6.1,4.9-11,11-11C405.1,76.1,410,81,410,87z"/>
		<circle fill="#0F0F0F" stroke="#0F0F0F" stroke-width="1.2928" stroke-miterlimit="10" cx="399" cy="87" r="3.1"/>
	</g>
	<g>
		<circle fill="none" stroke="#0F0F0F" stroke-width="1.2928" stroke-miterlimit="10" cx="78.4" cy="68" r="8"/>
		<path fill="none" stroke="#0F0F0F" stroke-width="1.2928" stroke-miterlimit="10" d="M89.3,68c0,6.1-4.9,11-11,11
			c-6.1,0-11-4.9-11-11c0-6.1,4.9-11,11-11C84.4,57.1,89.3,62,89.3,68z"/>
		<path fill="#0F0F0F" stroke="#0F0F0F" stroke-width="1.2928" stroke-miterlimit="10" d="M81.5,68c0,1.7-1.4,3.1-3.1,3.1
			c-1.7,0-3.1-1.4-3.1-3.1c0-1.7,1.4-3.1,3.1-3.1C80.1,64.9,81.5,66.3,81.5,68z"/>
	</g>
	<g>
		<path fill="none" stroke="#0F0F0F" stroke-width="1.2928" stroke-miterlimit="10" d="M108.3,68c0,4.4-3.6,8-8,8c-4.4,0-8-3.6-8-8
			c0-4.4,3.6-8,8-8C104.7,60,108.3,63.6,108.3,68z"/>
		<path fill="none" stroke="#0F0F0F" stroke-width="1.2928" stroke-miterlimit="10" d="M111.3,68c0,6.1-4.9,11-11,11
			c-6.1,0-11-4.9-11-11c0-6.1,4.9-11,11-11C106.4,57.1,111.3,62,111.3,68z"/>
		<path fill="#0F0F0F" stroke="#0F0F0F" stroke-width="1.2928" stroke-miterlimit="10" d="M103.4,68c0,1.7-1.4,3.1-3.1,3.1
			c-1.7,0-3.1-1.4-3.1-3.1c0-1.7,1.4-3.1,3.1-3.1C102,64.9,103.4,66.3,103.4,68z"/>
	</g>
	<g>
		<circle fill="none" stroke="#0F0F0F" stroke-width="1.2928" stroke-miterlimit="10" cx="122.3" cy="68" r="8"/>
		<path fill="none" stroke="#0F0F0F" stroke-width="1.2928" stroke-miterlimit="10" d="M133.2,68c0,6.1-4.9,11-11,11
			c-6.1,0-11-4.9-11-11c0-6.1,4.9-11,11-11C128.3,57.1,133.2,62,133.2,68z"/>
		<path fill="#0F0F0F" stroke="#0F0F0F" stroke-width="1.2928" stroke-miterlimit="10" d="M125.4,68c0,1.7-1.4,3.1-3.1,3.1
			c-1.7,0-3.1-1.4-3.1-3.1c0-1.7,1.4-3.1,3.1-3.1C124,64.9,125.4,66.3,125.4,68z"/>
	</g>
	<g>
		<circle fill="none" stroke="#0F0F0F" stroke-width="1.2928" stroke-miterlimit="10" cx="144.2" cy="68" r="8"/>
		<path fill="none" stroke="#0F0F0F" stroke-width="1.2928" stroke-miterlimit="10" d="M155.2,68c0,6.1-4.9,11-11,11
			c-6.1,0-11-4.9-11-11c0-6.1,4.9-11,11-11C150.3,57.1,155.2,62,155.2,68z"/>
		<path fill="#0F0F0F" stroke="#0F0F0F" stroke-width="1.2928" stroke-miterlimit="10" d="M147.3,68c0,1.7-1.4,3.1-3.1,3.1
			c-1.7,0-3.1-1.4-3.1-3.1c0-1.7,1.4-3.1,3.1-3.1C145.9,64.9,147.3,66.3,147.3,68z"/>
	</g>
	<g>
		<circle fill="none" stroke="#0F0F0F" stroke-width="1.2928" stroke-miterlimit="10" cx="166.2" cy="68" r="8"/>
		<path fill="none" stroke="#0F0F0F" stroke-width="1.2928" stroke-miterlimit="10" d="M177.1,68c0,6.1-4.9,11-11,11
			c-6.1,0-11-4.9-11-11c0-6.1,4.9-11,11-11C172.2,57.1,177.1,62,177.1,68z"/>
		<path fill="#0F0F0F" stroke="#0F0F0F" stroke-width="1.2928" stroke-miterlimit="10" d="M169.3,68c0,1.7-1.4,3.1-3.1,3.1
			c-1.7,0-3.1-1.4-3.1-3.1c0-1.7,1.4-3.1,3.1-3.1C167.9,64.9,169.3,66.3,169.3,68z"/>
	</g>
	<g>
		<path fill="none" stroke="#0F0F0F" stroke-width="1.2928" stroke-miterlimit="10" d="M196.1,68c0,4.4-3.6,8-8,8s-8-3.6-8-8
			c0-4.4,3.6-8,8-8S196.1,63.6,196.1,68z"/>
		<path fill="none" stroke="#0F0F0F" stroke-width="1.2928" stroke-miterlimit="10" d="M199.1,68c0,6.1-4.9,11-11,11
			c-6.1,0-11-4.9-11-11c0-6.1,4.9-11,11-11C194.2,57.1,199.1,62,199.1,68z"/>
		<path fill="#0F0F0F" stroke="#0F0F0F" stroke-width="1.2928" stroke-miterlimit="10" d="M191.2,68c0,1.7-1.4,3.1-3.1,3.1
			S185,69.8,185,68c0-1.7,1.4-3.1,3.1-3.1S191.2,66.3,191.2,68z"/>
	</g>
	<g>
		<circle fill="none" stroke="#0F0F0F" stroke-width="1.2928" stroke-miterlimit="10" cx="210.1" cy="68" r="8"/>
		<path fill="none" stroke="#0F0F0F" stroke-width="1.2928" stroke-miterlimit="10" d="M221,68c0,6.1-4.9,11-11,11
			c-6.1,0-11-4.9-11-11c0-6.1,4.9-11,11-11C216.1,57.1,221,62,221,68z"/>
		<path fill="#0F0F0F" stroke="#0F0F0F" stroke-width="1.2928" stroke-miterlimit="10" d="M213.2,68c0,1.7-1.4,3.1-3.1,3.1
			c-1.7,0-3.1-1.4-3.1-3.1c0-1.7,1.4-3.1,3.1-3.1C211.8,64.9,213.2,66.3,213.2,68z"/>
	</g>
	<g>
		<path fill="none" stroke="#0F0F0F" stroke-width="1.2928" stroke-miterlimit="10" d="M240,68c0,4.4-3.6,8-8,8c-4.4,0-8-3.6-8-8
			c0-4.4,3.6-8,8-8C236.4,60,240,63.6,240,68z"/>
		<path fill="none" stroke="#0F0F0F" stroke-width="1.2928" stroke-miterlimit="10" d="M243,68c0,6.1-4.9,11-11,11
			c-6.1,0-11-4.9-11-11c0-6.1,4.9-11,11-11C238.1,57.1,243,62,243,68z"/>
		<path fill="#0F0F0F" stroke="#0F0F0F" stroke-width="1.2928" stroke-miterlimit="10" d="M235.1,68c0,1.7-1.4,3.1-3.1,3.1
			c-1.7,0-3.1-1.4-3.1-3.1c0-1.7,1.4-3.1,3.1-3.1C233.7,64.9,235.1,66.3,235.1,68z"/>
	</g>
	<g>
		<path fill="none" stroke="#0F0F0F" stroke-width="1.2928" stroke-miterlimit="10" d="M262,68c0,4.4-3.6,8-8,8c-4.4,0-8-3.6-8-8
			c0-4.4,3.6-8,8-8C258.4,60,262,63.6,262,68z"/>
		<path fill="none" stroke="#0F0F0F" stroke-width="1.2928" stroke-miterlimit="10" d="M264.9,68c0,6.1-4.9,11-11,11
			c-6.1,0-11-4.9-11-11c0-6.1,4.9-11,11-11C260,57.1,264.9,62,264.9,68z"/>
		<path fill="#0F0F0F" stroke="#0F0F0F" stroke-width="1.2928" stroke-miterlimit="10" d="M257.1,68c0,1.7-1.4,3.1-3.1,3.1
			c-1.7,0-3.1-1.4-3.1-3.1c0-1.7,1.4-3.1,3.1-3.1C255.7,64.9,257.1,66.3,257.1,68z"/>
	</g>
	<g>
		<path fill="none" stroke="#0F0F0F" stroke-width="1.2928" stroke-miterlimit="10" d="M283.9,68c0,4.4-3.6,8-8,8c-4.4,0-8-3.6-8-8
			c0-4.4,3.6-8,8-8C280.3,60,283.9,63.6,283.9,68z"/>
		<path fill="none" stroke="#0F0F0F" stroke-width="1.2928" stroke-miterlimit="10" d="M286.9,68c0,6.1-4.9,11-11,11
			c-6.1,0-11-4.9-11-11c0-6.1,4.9-11,11-11C282,57.1,286.9,62,286.9,68z"/>
		<path fill="#0F0F0F" stroke="#0F0F0F" stroke-width="1.2928" stroke-miterlimit="10" d="M279,68c0,1.7-1.4,3.1-3.1,3.1
			s-3.1-1.4-3.1-3.1c0-1.7,1.4-3.1,3.1-3.1S279,66.3,279,68z"/>
	</g>
	<g>
		<circle fill="none" stroke="#0F0F0F" stroke-width="1.2928" stroke-miterlimit="10" cx="298.3" cy="68" r="8"/>
		<path fill="none" stroke="#0F0F0F" stroke-width="1.2928" stroke-miterlimit="10" d="M309.2,68c0,6.1-4.9,11-11,11
			c-6.1,0-11-4.9-11-11c0-6.1,4.9-11,11-11C304.3,57.1,309.2,62,309.2,68z"/>
		<path fill="#0F0F0F" stroke="#0F0F0F" stroke-width="1.2928" stroke-miterlimit="10" d="M301.4,68c0,1.7-1.4,3.1-3.1,3.1
			s-3.1-1.4-3.1-3.1c0-1.7,1.4-3.1,3.1-3.1S301.4,66.3,301.4,68z"/>
	</g>
	<g>
		<path fill="none" stroke="#0F0F0F" stroke-width="1.2928" stroke-miterlimit="10" d="M328.6,68c0,4.4-3.6,8-8,8c-4.4,0-8-3.6-8-8
			c0-4.4,3.6-8,8-8C325,60,328.6,63.6,328.6,68z"/>
		<path fill="none" stroke="#0F0F0F" stroke-width="1.2928" stroke-miterlimit="10" d="M331.6,68c0,6.1-4.9,11-11,11
			c-6.1,0-11-4.9-11-11c0-6.1,4.9-11,11-11C326.7,57.1,331.6,62,331.6,68z"/>
		<path fill="#0F0F0F" stroke="#0F0F0F" stroke-width="1.2928" stroke-miterlimit="10" d="M323.7,68c0,1.7-1.4,3.1-3.1,3.1
			c-1.7,0-3.1-1.4-3.1-3.1c0-1.7,1.4-3.1,3.1-3.1C322.3,64.9,323.7,66.3,323.7,68z"/>
	</g>
	<g>
		<path fill="none" stroke="#0F0F0F" stroke-width="1.2928" stroke-miterlimit="10" d="M351,68c0,4.4-3.6,8-8,8c-4.4,0-8-3.6-8-8
			c0-4.4,3.6-8,8-8C347.4,60,351,63.6,351,68z"/>
		<path fill="none" stroke="#0F0F0F" stroke-width="1.2928" stroke-miterlimit="10" d="M353.9,68c0,6.1-4.9,11-11,11
			c-6.1,0-11-4.9-11-11c0-6.1,4.9-11,11-11C349,57.1,353.9,62,353.9,68z"/>
		<path fill="#0F0F0F" stroke="#0F0F0F" stroke-width="1.2928" stroke-miterlimit="10" d="M346.1,68c0,1.7-1.4,3.1-3.1,3.1
			s-3.1-1.4-3.1-3.1c0-1.7,1.4-3.1,3.1-3.1S346.1,66.3,346.1,68z"/>
	</g>
	<g>
		<circle fill="none" stroke="#0F0F0F" stroke-width="1.2928" stroke-miterlimit="10" cx="365.3" cy="68" r="8"/>
		<path fill="none" stroke="#0F0F0F" stroke-width="1.2928" stroke-miterlimit="10" d="M376.3,68c0,6.1-4.9,11-11,11
			c-6.1,0-11-4.9-11-11c0-6.1,4.9-11,11-11C371.4,57.1,376.3,62,376.3,68z"/>
		<path fill="#0F0F0F" stroke="#0F0F0F" stroke-width="1.2928" stroke-miterlimit="10" d="M368.4,68c0,1.7-1.4,3.1-3.1,3.1
			s-3.1-1.4-3.1-3.1c0-1.7,1.4-3.1,3.1-3.1S368.4,66.3,368.4,68z"/>
	</g>
	<g>
		<path fill="none" stroke="#0F0F0F" stroke-width="1.2928" stroke-miterlimit="10" d="M395.7,68c0,4.4-3.6,8-8,8s-8-3.6-8-8
			c0-4.4,3.6-8,8-8S395.7,63.6,395.7,68z"/>
		<path fill="none" stroke="#0F0F0F" stroke-width="1.2928" stroke-miterlimit="10" d="M398.6,68c0,6.1-4.9,11-11,11
			c-6.1,0-11-4.9-11-11c0-6.1,4.9-11,11-11C393.7,57.1,398.6,62,398.6,68z"/>
		<path fill="#0F0F0F" stroke="#0F0F0F" stroke-width="1.2928" stroke-miterlimit="10" d="M390.8,68c0,1.7-1.4,3.1-3.1,3.1
			c-1.7,0-3.1-1.4-3.1-3.1c0-1.7,1.4-3.1,3.1-3.1C389.4,64.9,390.8,66.3,390.8,68z"/>
	</g>
	<g>
		<path fill="none" stroke="#0F0F0F" stroke-width="1.2928" stroke-miterlimit="10" d="M418,68c0,4.4-3.6,8-8,8c-4.4,0-8-3.6-8-8
			c0-4.4,3.6-8,8-8C414.4,60,418,63.6,418,68z"/>
		<path fill="none" stroke="#0F0F0F" stroke-width="1.2928" stroke-miterlimit="10" d="M421,68c0,6.1-4.9,11-11,11
			c-6.1,0-11-4.9-11-11c0-6.1,4.9-11,11-11C416.1,57.1,421,62,421,68z"/>
		<path fill="#0F0F0F" stroke="#0F0F0F" stroke-width="1.2928" stroke-miterlimit="10" d="M413.1,68c0,1.7-1.4,3.1-3.1,3.1
			c-1.7,0-3.1-1.4-3.1-3.1c0-1.7,1.4-3.1,3.1-3.1C411.7,64.9,413.1,66.3,413.1,68z"/>
	</g>
	<g>
		<circle fill="none" stroke="#0F0F0F" stroke-width="1.2928" stroke-miterlimit="10" cx="89.3" cy="49.2" r="8"/>
		<path fill="none" stroke="#0F0F0F" stroke-width="1.2928" stroke-miterlimit="10" d="M100.3,49.2c0,6.1-4.9,11-11,11
			c-6.1,0-11-4.9-11-11c0-6.1,4.9-11,11-11C95.4,38.2,100.3,43.1,100.3,49.2z"/>
		<path fill="#0F0F0F" stroke="#0F0F0F" stroke-width="1.2928" stroke-miterlimit="10" d="M92.4,49.2c0,1.7-1.4,3.1-3.1,3.1
			c-1.7,0-3.1-1.4-3.1-3.1c0-1.7,1.4-3.1,3.1-3.1C91.1,46.1,92.4,47.5,92.4,49.2z"/>
	</g>
	<g>
		<circle fill="none" stroke="#0F0F0F" stroke-width="1.2928" stroke-miterlimit="10" cx="67.4" cy="49.2" r="8"/>
		<path fill="none" stroke="#0F0F0F" stroke-width="1.2928" stroke-miterlimit="10" d="M78.4,49.2c0,6.1-4.9,11-11,11
			c-6.1,0-11-4.9-11-11c0-6.1,4.9-11,11-11C73.4,38.2,78.4,43.1,78.4,49.2z"/>
		<path fill="#0F0F0F" stroke="#0F0F0F" stroke-width="1.2928" stroke-miterlimit="10" d="M70.5,49.2c0,1.7-1.4,3.1-3.1,3.1
			c-1.7,0-3.1-1.4-3.1-3.1c0-1.7,1.4-3.1,3.1-3.1C69.1,46.1,70.5,47.5,70.5,49.2z"/>
	</g>
	<g>
		<path fill="none" stroke="#0F0F0F" stroke-width="1.2928" stroke-miterlimit="10" d="M119.3,49.2c0,4.4-3.6,8-8,8
			c-4.4,0-8-3.6-8-8c0-4.4,3.6-8,8-8C115.7,41.2,119.3,44.8,119.3,49.2z"/>
		<path fill="none" stroke="#0F0F0F" stroke-width="1.2928" stroke-miterlimit="10" d="M122.3,49.2c0,6.1-4.9,11-11,11
			c-6.1,0-11-4.9-11-11c0-6.1,4.9-11,11-11C117.3,38.2,122.3,43.1,122.3,49.2z"/>
		<path fill="#0F0F0F" stroke="#0F0F0F" stroke-width="1.2928" stroke-miterlimit="10" d="M114.4,49.2c0,1.7-1.4,3.1-3.1,3.1
			c-1.7,0-3.1-1.4-3.1-3.1c0-1.7,1.4-3.1,3.1-3.1C113,46.1,114.4,47.5,114.4,49.2z"/>
	</g>
	<g>
		<circle fill="none" stroke="#0F0F0F" stroke-width="1.2928" stroke-miterlimit="10" cx="133.2" cy="49.2" r="8"/>
		<path fill="none" stroke="#0F0F0F" stroke-width="1.2928" stroke-miterlimit="10" d="M144.2,49.2c0,6.1-4.9,11-11,11
			c-6.1,0-11-4.9-11-11c0-6.1,4.9-11,11-11C139.3,38.2,144.2,43.1,144.2,49.2z"/>
		<path fill="#0F0F0F" stroke="#0F0F0F" stroke-width="1.2928" stroke-miterlimit="10" d="M136.3,49.2c0,1.7-1.4,3.1-3.1,3.1
			c-1.7,0-3.1-1.4-3.1-3.1c0-1.7,1.4-3.1,3.1-3.1C135,46.1,136.3,47.5,136.3,49.2z"/>
	</g>
	<g>
		<circle fill="none" stroke="#0F0F0F" stroke-width="1.2928" stroke-miterlimit="10" cx="155.2" cy="49.2" r="8"/>
		<path fill="none" stroke="#0F0F0F" stroke-width="1.2928" stroke-miterlimit="10" d="M166.2,49.2c0,6.1-4.9,11-11,11
			c-6.1,0-11-4.9-11-11c0-6.1,4.9-11,11-11C161.2,38.2,166.2,43.1,166.2,49.2z"/>
		<path fill="#0F0F0F" stroke="#0F0F0F" stroke-width="1.2928" stroke-miterlimit="10" d="M158.3,49.2c0,1.7-1.4,3.1-3.1,3.1
			c-1.7,0-3.1-1.4-3.1-3.1c0-1.7,1.4-3.1,3.1-3.1C156.9,46.1,158.3,47.5,158.3,49.2z"/>
	</g>
	<g>
		<circle fill="none" stroke="#0F0F0F" stroke-width="1.2928" stroke-miterlimit="10" cx="177.1" cy="49.2" r="8"/>
		<path fill="none" stroke="#0F0F0F" stroke-width="1.2928" stroke-miterlimit="10" d="M188.1,49.2c0,6.1-4.9,11-11,11
			s-11-4.9-11-11c0-6.1,4.9-11,11-11S188.1,43.1,188.1,49.2z"/>
		<path fill="#0F0F0F" stroke="#0F0F0F" stroke-width="1.2928" stroke-miterlimit="10" d="M180.2,49.2c0,1.7-1.4,3.1-3.1,3.1
			c-1.7,0-3.1-1.4-3.1-3.1c0-1.7,1.4-3.1,3.1-3.1C178.9,46.1,180.2,47.5,180.2,49.2z"/>
	</g>
	<g>
		<path fill="none" stroke="#0F0F0F" stroke-width="1.2928" stroke-miterlimit="10" d="M207.1,49.2c0,4.4-3.6,8-8,8
			c-4.4,0-8-3.6-8-8c0-4.4,3.6-8,8-8C203.5,41.2,207.1,44.8,207.1,49.2z"/>
		<path fill="none" stroke="#0F0F0F" stroke-width="1.2928" stroke-miterlimit="10" d="M210.1,49.2c0,6.1-4.9,11-11,11
			c-6.1,0-11-4.9-11-11c0-6.1,4.9-11,11-11C205.1,38.2,210.1,43.1,210.1,49.2z"/>
		<path fill="#0F0F0F" stroke="#0F0F0F" stroke-width="1.2928" stroke-miterlimit="10" d="M202.2,49.2c0,1.7-1.4,3.1-3.1,3.1
			c-1.7,0-3.1-1.4-3.1-3.1c0-1.7,1.4-3.1,3.1-3.1C200.8,46.1,202.2,47.5,202.2,49.2z"/>
	</g>
	<g>
		<circle fill="none" stroke="#0F0F0F" stroke-width="1.2928" stroke-miterlimit="10" cx="221" cy="49.2" r="8"/>
		<path fill="none" stroke="#0F0F0F" stroke-width="1.2928" stroke-miterlimit="10" d="M232,49.2c0,6.1-4.9,11-11,11
			c-6.1,0-11-4.9-11-11c0-6.1,4.9-11,11-11C227.1,38.2,232,43.1,232,49.2z"/>
		<path fill="#0F0F0F" stroke="#0F0F0F" stroke-width="1.2928" stroke-miterlimit="10" d="M224.1,49.2c0,1.7-1.4,3.1-3.1,3.1
			c-1.7,0-3.1-1.4-3.1-3.1c0-1.7,1.4-3.1,3.1-3.1C222.7,46.1,224.1,47.5,224.1,49.2z"/>
	</g>
	<g>
		<path fill="none" stroke="#0F0F0F" stroke-width="1.2928" stroke-miterlimit="10" d="M251,49.2c0,4.4-3.6,8-8,8c-4.4,0-8-3.6-8-8
			c0-4.4,3.6-8,8-8C247.4,41.2,251,44.8,251,49.2z"/>
		<path fill="none" stroke="#0F0F0F" stroke-width="1.2928" stroke-miterlimit="10" d="M254,49.2c0,6.1-4.9,11-11,11
			c-6.1,0-11-4.9-11-11c0-6.1,4.9-11,11-11C249,38.2,254,43.1,254,49.2z"/>
		<path fill="#0F0F0F" stroke="#0F0F0F" stroke-width="1.2928" stroke-miterlimit="10" d="M246.1,49.2c0,1.7-1.4,3.1-3.1,3.1
			c-1.7,0-3.1-1.4-3.1-3.1c0-1.7,1.4-3.1,3.1-3.1C244.7,46.1,246.1,47.5,246.1,49.2z"/>
	</g>
	<g>
		<path fill="none" stroke="#0F0F0F" stroke-width="1.2928" stroke-miterlimit="10" d="M273,49.2c0,4.4-3.6,8-8,8c-4.4,0-8-3.6-8-8
			c0-4.4,3.6-8,8-8C269.4,41.2,273,44.8,273,49.2z"/>
		<path fill="none" stroke="#0F0F0F" stroke-width="1.2928" stroke-miterlimit="10" d="M275.9,49.2c0,6.1-4.9,11-11,11
			c-6.1,0-11-4.9-11-11c0-6.1,4.9-11,11-11C271,38.2,275.9,43.1,275.9,49.2z"/>
		<path fill="#0F0F0F" stroke="#0F0F0F" stroke-width="1.2928" stroke-miterlimit="10" d="M268,49.2c0,1.7-1.4,3.1-3.1,3.1
			c-1.7,0-3.1-1.4-3.1-3.1c0-1.7,1.4-3.1,3.1-3.1C266.6,46.1,268,47.5,268,49.2z"/>
	</g>
	<g>
		<path fill="none" stroke="#0F0F0F" stroke-width="1.2928" stroke-miterlimit="10" d="M294.9,49.2c0,4.4-3.6,8-8,8s-8-3.6-8-8
			c0-4.4,3.6-8,8-8S294.9,44.8,294.9,49.2z"/>
		<path fill="none" stroke="#0F0F0F" stroke-width="1.2928" stroke-miterlimit="10" d="M297.9,49.2c0,6.1-4.9,11-11,11
			c-6.1,0-11-4.9-11-11c0-6.1,4.9-11,11-11C292.9,38.2,297.9,43.1,297.9,49.2z"/>
		<path fill="#0F0F0F" stroke="#0F0F0F" stroke-width="1.2928" stroke-miterlimit="10" d="M290,49.2c0,1.7-1.4,3.1-3.1,3.1
			c-1.7,0-3.1-1.4-3.1-3.1c0-1.7,1.4-3.1,3.1-3.1C288.6,46.1,290,47.5,290,49.2z"/>
	</g>
	<g>
		<path fill="none" stroke="#0F0F0F" stroke-width="1.2928" stroke-miterlimit="10" d="M317.3,49.2c0,4.4-3.6,8-8,8s-8-3.6-8-8
			c0-4.4,3.6-8,8-8S317.3,44.8,317.3,49.2z"/>
		<path fill="none" stroke="#0F0F0F" stroke-width="1.2928" stroke-miterlimit="10" d="M320.2,49.2c0,6.1-4.9,11-11,11
			c-6.1,0-11-4.9-11-11c0-6.1,4.9-11,11-11C315.3,38.2,320.2,43.1,320.2,49.2z"/>
		<path fill="#0F0F0F" stroke="#0F0F0F" stroke-width="1.2928" stroke-miterlimit="10" d="M312.3,49.2c0,1.7-1.4,3.1-3.1,3.1
			c-1.7,0-3.1-1.4-3.1-3.1c0-1.7,1.4-3.1,3.1-3.1C310.9,46.1,312.3,47.5,312.3,49.2z"/>
	</g>
	<g>
		<path fill="none" stroke="#0F0F0F" stroke-width="1.2928" stroke-miterlimit="10" d="M339.6,49.2c0,4.4-3.6,8-8,8
			c-4.4,0-8-3.6-8-8c0-4.4,3.6-8,8-8C336,41.2,339.6,44.8,339.6,49.2z"/>
		<path fill="none" stroke="#0F0F0F" stroke-width="1.2928" stroke-miterlimit="10" d="M342.6,49.2c0,6.1-4.9,11-11,11
			c-6.1,0-11-4.9-11-11c0-6.1,4.9-11,11-11C337.6,38.2,342.6,43.1,342.6,49.2z"/>
		<path fill="#0F0F0F" stroke="#0F0F0F" stroke-width="1.2928" stroke-miterlimit="10" d="M334.7,49.2c0,1.7-1.4,3.1-3.1,3.1
			c-1.7,0-3.1-1.4-3.1-3.1c0-1.7,1.4-3.1,3.1-3.1C333.3,46.1,334.7,47.5,334.7,49.2z"/>
	</g>
	<g>
		<path fill="none" stroke="#0F0F0F" stroke-width="1.2928" stroke-miterlimit="10" d="M362,49.2c0,4.4-3.6,8-8,8c-4.4,0-8-3.6-8-8
			c0-4.4,3.6-8,8-8C358.4,41.2,362,44.8,362,49.2z"/>
		<path fill="none" stroke="#0F0F0F" stroke-width="1.2928" stroke-miterlimit="10" d="M364.9,49.2c0,6.1-4.9,11-11,11
			c-6.1,0-11-4.9-11-11c0-6.1,4.9-11,11-11C360,38.2,364.9,43.1,364.9,49.2z"/>
		<path fill="#0F0F0F" stroke="#0F0F0F" stroke-width="1.2928" stroke-miterlimit="10" d="M357,49.2c0,1.7-1.4,3.1-3.1,3.1
			c-1.7,0-3.1-1.4-3.1-3.1c0-1.7,1.4-3.1,3.1-3.1C355.6,46.1,357,47.5,357,49.2z"/>
	</g>
	<g>
		<path fill="none" stroke="#0F0F0F" stroke-width="1.2928" stroke-miterlimit="10" d="M384.3,49.2c0,4.4-3.6,8-8,8s-8-3.6-8-8
			c0-4.4,3.6-8,8-8S384.3,44.8,384.3,49.2z"/>
		<path fill="none" stroke="#0F0F0F" stroke-width="1.2928" stroke-miterlimit="10" d="M387.3,49.2c0,6.1-4.9,11-11,11
			c-6.1,0-11-4.9-11-11c0-6.1,4.9-11,11-11C382.3,38.2,387.3,43.1,387.3,49.2z"/>
		<path fill="#0F0F0F" stroke="#0F0F0F" stroke-width="1.2928" stroke-miterlimit="10" d="M379.4,49.2c0,1.7-1.4,3.1-3.1,3.1
			c-1.7,0-3.1-1.4-3.1-3.1c0-1.7,1.4-3.1,3.1-3.1C378,46.1,379.4,47.5,379.4,49.2z"/>
	</g>
	<g>
		<path fill="none" stroke="#0F0F0F" stroke-width="1.2928" stroke-miterlimit="10" d="M406.7,49.2c0,4.4-3.6,8-8,8
			c-4.4,0-8-3.6-8-8c0-4.4,3.6-8,8-8C403.1,41.2,406.7,44.8,406.7,49.2z"/>
		<path fill="none" stroke="#0F0F0F" stroke-width="1.2928" stroke-miterlimit="10" d="M409.6,49.2c0,6.1-4.9,11-11,11
			c-6.1,0-11-4.9-11-11c0-6.1,4.9-11,11-11C404.7,38.2,409.6,43.1,409.6,49.2z"/>
		<path fill="#0F0F0F" stroke="#0F0F0F" stroke-width="1.2928" stroke-miterlimit="10" d="M401.7,49.2c0,1.7-1.4,3.1-3.1,3.1
			c-1.7,0-3.1-1.4-3.1-3.1c0-1.7,1.4-3.1,3.1-3.1C400.3,46.1,401.7,47.5,401.7,49.2z"/>
	</g>
	<g>
		<line fill="none" stroke="#0F0F0F" stroke-width="3" stroke-miterlimit="10" x1="54.8" y1="124.8" x2="423.9" y2="124.8"/>
		<line fill="none" stroke="#0F0F0F" stroke-width="3" stroke-miterlimit="10" x1="54.9" y1="132.8" x2="423.9" y2="132.8"/>
		<line fill="none" stroke="#0F0F0F" stroke-width="3" stroke-miterlimit="10" x1="54.9" y1="140.8" x2="423.9" y2="140.8"/>
		<line fill="none" stroke="#0F0F0F" stroke-width="3" stroke-miterlimit="10" x1="54.9" y1="148.6" x2="423.9" y2="148.6"/>
		<line fill="none" stroke="#0F0F0F" stroke-width="3" stroke-miterlimit="10" x1="54.9" y1="156.3" x2="423.9" y2="156.3"/>
		<line fill="none" stroke="#0F0F0F" stroke-width="3" stroke-miterlimit="10" x1="54.9" y1="164.1" x2="423.9" y2="164.1"/>
		<line fill="none" stroke="#0F0F0F" stroke-width="3" stroke-miterlimit="10" x1="54.9" y1="171.9" x2="423.9" y2="171.9"/>
		<line fill="none" stroke="#0F0F0F" stroke-width="3" stroke-miterlimit="10" x1="54.9" y1="179.7" x2="423.9" y2="179.7"/>
		<line fill="none" stroke="#0F0F0F" stroke-width="3.3225" stroke-miterlimit="10" x1="75.3" y1="100.9" x2="75.3" y2="186.8"/>
		<line fill="none" stroke="#0F0F0F" stroke-width="3.3225" stroke-miterlimit="10" x1="70.1" y1="100.9" x2="70.1" y2="186.8"/>
		<line fill="none" stroke="#0F0F0F" stroke-width="3.3225" stroke-miterlimit="10" x1="65" y1="100.9" x2="65" y2="186.8"/>
		<line fill="none" stroke="#0F0F0F" stroke-width="3.3225" stroke-miterlimit="10" x1="59.9" y1="100.9" x2="59.9" y2="186.8"/>
		<line fill="none" stroke="#0F0F0F" stroke-width="3.3225" stroke-miterlimit="10" x1="80.4" y1="100.9" x2="80.4" y2="186.8"/>
		<line fill="none" stroke="#0F0F0F" stroke-width="3.3225" stroke-miterlimit="10" x1="90.6" y1="100.9" x2="90.6" y2="186.8"/>
		<line fill="none" stroke="#0F0F0F" stroke-width="3.3225" stroke-miterlimit="10" x1="100.8" y1="100.9" x2="100.8" y2="186.8"/>
		<line fill="none" stroke="#0F0F0F" stroke-width="3.3225" stroke-miterlimit="10" x1="111" y1="100.9" x2="111" y2="186.8"/>
		<line fill="none" stroke="#0F0F0F" stroke-width="3.3225" stroke-miterlimit="10" x1="121.2" y1="100.9" x2="121.2" y2="186.8"/>
		<line fill="none" stroke="#0F0F0F" stroke-width="3.3225" stroke-miterlimit="10" x1="131.4" y1="100.9" x2="131.4" y2="186.8"/>
		<line fill="none" stroke="#0F0F0F" stroke-width="3.3225" stroke-miterlimit="10" x1="141.6" y1="100.9" x2="141.6" y2="186.8"/>
		<line fill="none" stroke="#0F0F0F" stroke-width="3.3225" stroke-miterlimit="10" x1="151.8" y1="100.9" x2="151.8" y2="186.8"/>
		<line fill="none" stroke="#0F0F0F" stroke-width="3.3225" stroke-miterlimit="10" x1="162" y1="100.9" x2="162" y2="186.8"/>
		<line fill="none" stroke="#0F0F0F" stroke-width="3.3225" stroke-miterlimit="10" x1="172.3" y1="100.9" x2="172.3" y2="186.8"/>
		<line fill="none" stroke="#0F0F0F" stroke-width="3.3225" stroke-miterlimit="10" x1="182.5" y1="100.9" x2="182.5" y2="186.8"/>
		<line fill="none" stroke="#0F0F0F" stroke-width="3.3225" stroke-miterlimit="10" x1="192.7" y1="100.9" x2="192.7" y2="186.8"/>
		<line fill="none" stroke="#0F0F0F" stroke-width="3.3225" stroke-miterlimit="10" x1="202.9" y1="100.9" x2="202.9" y2="186.8"/>
		<line fill="none" stroke="#0F0F0F" stroke-width="3.3225" stroke-miterlimit="10" x1="213.1" y1="100.9" x2="213.1" y2="186.8"/>
		<line fill="none" stroke="#0F0F0F" stroke-width="3.3225" stroke-miterlimit="10" x1="223.3" y1="100.9" x2="223.3" y2="186.8"/>
		<line fill="none" stroke="#0F0F0F" stroke-width="3.3225" stroke-miterlimit="10" x1="233.5" y1="100.9" x2="233.5" y2="186.8"/>
		<line fill="none" stroke="#0F0F0F" stroke-width="3.3225" stroke-miterlimit="10" x1="243.7" y1="100.9" x2="243.7" y2="186.8"/>
		<line fill="none" stroke="#0F0F0F" stroke-width="3.3225" stroke-miterlimit="10" x1="85.5" y1="100.9" x2="85.5" y2="186.8"/>
		<line fill="none" stroke="#0F0F0F" stroke-width="3.3225" stroke-miterlimit="10" x1="95.7" y1="100.9" x2="95.7" y2="186.8"/>
		<line fill="none" stroke="#0F0F0F" stroke-width="3.3225" stroke-miterlimit="10" x1="105.9" y1="100.9" x2="105.9" y2="186.8"/>
		<line fill="none" stroke="#0F0F0F" stroke-width="3.3225" stroke-miterlimit="10" x1="116.1" y1="100.9" x2="116.1" y2="186.8"/>
		<line fill="none" stroke="#0F0F0F" stroke-width="3.3225" stroke-miterlimit="10" x1="126.3" y1="100.9" x2="126.3" y2="186.8"/>
		<line fill="none" stroke="#0F0F0F" stroke-width="3.3225" stroke-miterlimit="10" x1="136.5" y1="100.9" x2="136.5" y2="186.8"/>
		<line fill="none" stroke="#0F0F0F" stroke-width="3.3225" stroke-miterlimit="10" x1="146.7" y1="100.9" x2="146.7" y2="186.8"/>
		<line fill="none" stroke="#0F0F0F" stroke-width="3.3225" stroke-miterlimit="10" x1="156.9" y1="100.9" x2="156.9" y2="186.8"/>
		<line fill="none" stroke="#0F0F0F" stroke-width="3.3225" stroke-miterlimit="10" x1="167.1" y1="100.9" x2="167.1" y2="186.8"/>
		<line fill="none" stroke="#0F0F0F" stroke-width="3.3225" stroke-miterlimit="10" x1="177.4" y1="100.9" x2="177.4" y2="186.8"/>
		<line fill="none" stroke="#0F0F0F" stroke-width="3.3225" stroke-miterlimit="10" x1="187.6" y1="100.9" x2="187.6" y2="186.8"/>
		<line fill="none" stroke="#0F0F0F" stroke-width="3.3225" stroke-miterlimit="10" x1="197.8" y1="100.9" x2="197.8" y2="186.8"/>
		<line fill="none" stroke="#0F0F0F" stroke-width="3.3225" stroke-miterlimit="10" x1="208" y1="100.9" x2="208" y2="186.8"/>
		<line fill="none" stroke="#0F0F0F" stroke-width="3.3225" stroke-miterlimit="10" x1="218.2" y1="100.9" x2="218.2" y2="186.8"/>
		<line fill="none" stroke="#0F0F0F" stroke-width="3.3225" stroke-miterlimit="10" x1="228.4" y1="100.9" x2="228.4" y2="186.8"/>
		<line fill="none" stroke="#0F0F0F" stroke-width="3.3225" stroke-miterlimit="10" x1="238.6" y1="100.9" x2="238.6" y2="186.8"/>
		<line fill="none" stroke="#0F0F0F" stroke-width="3.3225" stroke-miterlimit="10" x1="248.8" y1="100.9" x2="248.8" y2="186.8"/>
		<line fill="none" stroke="#0F0F0F" stroke-width="3.3225" stroke-miterlimit="10" x1="253.9" y1="100.9" x2="253.9" y2="186.8"/>
		<line fill="none" stroke="#0F0F0F" stroke-width="3.3225" stroke-miterlimit="10" x1="259" y1="100.9" x2="259" y2="186.8"/>
		<line fill="none" stroke="#0F0F0F" stroke-width="3.3225" stroke-miterlimit="10" x1="264.1" y1="100.9" x2="264.1" y2="186.8"/>
		<g>
			<path fill="#8A7F81" stroke="#0F0F0F" stroke-width="0.95" stroke-miterlimit="10" d="M206.4,155c3-6.9,2.2-15.1-2.9-21.4
				c-5.1-6.2-13-8.7-20.3-7.1c-3,6.9-2.2,15.1,2.9,21.4S199.1,156.6,206.4,155z"/>
			<path fill="#0D0D0D" stroke="#0D0D0D" stroke-width="0.81" stroke-miterlimit="10" d="M192.2,142.9c-1.2-1.4-1-3.6,0.5-4.7
				c1.4-1.2,3.6-1,4.7,0.5c1.2,1.4,1,3.6-0.5,4.7C195.4,144.6,193.3,144.4,192.2,142.9z"/>
			<path fill="none" stroke="#0F0F0F" stroke-miterlimit="10" d="M203.7,151.8c2.3-5.3,1.7-11.7-2.2-16.4c-3.9-4.8-10-6.7-15.7-5.5
				c-2.3,5.3-1.7,11.7,2.2,16.4S198.1,153,203.7,151.8z"/>
		</g>
		<g>
			<path fill="#8A7F81" stroke="#0F0F0F" stroke-width="0.95" stroke-miterlimit="10" d="M178.8,177.5c3-6.9,2.2-15.1-2.9-21.4
				c-5.1-6.2-13-8.7-20.3-7.1c-3,6.9-2.2,15.1,2.9,21.4S171.4,179.1,178.8,177.5z"/>
			<path fill="#0D0D0D" stroke="#0D0D0D" stroke-width="0.81" stroke-miterlimit="10" d="M164.5,165.4c-1.2-1.4-1-3.6,0.5-4.7
				c1.4-1.2,3.6-1,4.7,0.5c1.2,1.4,1,3.6-0.5,4.7C167.8,167.1,165.7,166.8,164.5,165.4z"/>
			<path fill="none" stroke="#0F0F0F" stroke-miterlimit="10" d="M176.1,174.2c2.3-5.3,1.7-11.7-2.2-16.4c-3.9-4.8-10-6.7-15.7-5.5
				c-2.3,5.3-1.7,11.7,2.2,16.4S170.4,175.5,176.1,174.2z"/>
		</g>
		<g>
			<path fill="#8A7F81" stroke="#0F0F0F" stroke-width="0.95" stroke-miterlimit="10" d="M129.7,153.7c3-6.9,2.2-15.1-2.9-21.4
				c-5.1-6.2-13-8.7-20.3-7.1c-3,6.9-2.2,15.1,2.9,21.4S122.3,155.3,129.7,153.7z"/>
			<path fill="#0D0D0D" stroke="#0D0D0D" stroke-width="0.81" stroke-miterlimit="10" d="M115.4,141.6c-1.2-1.4-1-3.6,0.5-4.7
				c1.4-1.2,3.6-1,4.7,0.5c1.2,1.4,1,3.6-0.5,4.7C118.7,143.3,116.6,143.1,115.4,141.6z"/>
			<path fill="none" stroke="#0F0F0F" stroke-miterlimit="10" d="M127,150.5c2.3-5.3,1.7-11.7-2.2-16.4c-3.9-4.8-10-6.7-15.7-5.5
				c-2.3,5.3-1.7,11.7,2.2,16.4S121.3,151.7,127,150.5z"/>
		</g>
		<g>
			<path fill="#8A7F81" stroke="#0F0F0F" stroke-width="0.95" stroke-miterlimit="10" d="M77.3,171.9c6.9,3,15.1,2.2,21.4-2.9
				c6.2-5.1,8.7-13,7.1-20.3c-6.9-3-15.1-2.2-21.4,2.9S75.7,164.6,77.3,171.9z"/>
			<path fill="#0D0D0D" stroke="#0D0D0D" stroke-width="0.81" stroke-miterlimit="10" d="M89.4,157.7c1.4-1.2,3.6-1,4.7,0.5
				c1.2,1.4,1,3.6-0.5,4.7c-1.4,1.2-3.6,1-4.7-0.5C87.7,160.9,87.9,158.8,89.4,157.7z"/>
			<path fill="none" stroke="#0F0F0F" stroke-miterlimit="10" d="M80.5,169.2c5.3,2.3,11.7,1.7,16.4-2.2c4.8-3.9,6.7-10,5.5-15.7
				c-5.3-2.3-11.7-1.7-16.4,2.2S79.3,163.6,80.5,169.2z"/>
		</g>
		<line fill="none" stroke="#0F0F0F" stroke-width="3.3225" stroke-miterlimit="10" x1="264.1" y1="100.9" x2="264.1" y2="186.8"/>
		<line fill="none" stroke="#0F0F0F" stroke-width="3.3225" stroke-miterlimit="10" x1="269.2" y1="100.9" x2="269.2" y2="186.8"/>
		<line fill="none" stroke="#0F0F0F" stroke-width="3.3225" stroke-miterlimit="10" x1="274.4" y1="100.9" x2="274.4" y2="186.8"/>
		<line fill="none" stroke="#0F0F0F" stroke-width="3.3225" stroke-miterlimit="10" x1="279.5" y1="100.9" x2="279.5" y2="186.8"/>
		<line fill="none" stroke="#0F0F0F" stroke-width="3.3225" stroke-miterlimit="10" x1="284.6" y1="100.9" x2="284.6" y2="186.8"/>
		<line fill="none" stroke="#0F0F0F" stroke-width="3.3225" stroke-miterlimit="10" x1="289.7" y1="100.9" x2="289.7" y2="186.8"/>
		<line fill="none" stroke="#0F0F0F" stroke-width="3.3225" stroke-miterlimit="10" x1="294.8" y1="100.9" x2="294.8" y2="186.8"/>
		<line fill="none" stroke="#0F0F0F" stroke-width="3.3225" stroke-miterlimit="10" x1="299.9" y1="100.9" x2="299.9" y2="186.8"/>
		<line fill="none" stroke="#0F0F0F" stroke-width="3.3225" stroke-miterlimit="10" x1="305" y1="100.9" x2="305" y2="186.8"/>
		<line fill="none" stroke="#0F0F0F" stroke-width="3.3225" stroke-miterlimit="10" x1="310.1" y1="100.9" x2="310.1" y2="186.8"/>
		<line fill="none" stroke="#0F0F0F" stroke-width="3.3225" stroke-miterlimit="10" x1="315.2" y1="100.9" x2="315.2" y2="186.8"/>
		<line fill="none" stroke="#0F0F0F" stroke-width="3.3225" stroke-miterlimit="10" x1="320.3" y1="100.9" x2="320.3" y2="186.8"/>
		<line fill="none" stroke="#0F0F0F" stroke-width="3.3225" stroke-miterlimit="10" x1="325.4" y1="100.9" x2="325.4" y2="186.8"/>
		<line fill="none" stroke="#0F0F0F" stroke-width="3.3225" stroke-miterlimit="10" x1="330.5" y1="100.9" x2="330.5" y2="186.8"/>
		<line fill="none" stroke="#0F0F0F" stroke-width="3.3225" stroke-miterlimit="10" x1="335.6" y1="100.9" x2="335.6" y2="186.8"/>
		<line fill="none" stroke="#0F0F0F" stroke-width="3.3225" stroke-miterlimit="10" x1="340.7" y1="100.9" x2="340.7" y2="186.8"/>
		<line fill="none" stroke="#0F0F0F" stroke-width="3.3225" stroke-miterlimit="10" x1="345.8" y1="100.9" x2="345.8" y2="186.8"/>
		<line fill="none" stroke="#0F0F0F" stroke-width="3.3225" stroke-miterlimit="10" x1="350.9" y1="100.9" x2="350.9" y2="186.8"/>
		<line fill="none" stroke="#0F0F0F" stroke-width="3.3225" stroke-miterlimit="10" x1="356" y1="100.9" x2="356" y2="186.8"/>
		<line fill="none" stroke="#0F0F0F" stroke-width="3.3225" stroke-miterlimit="10" x1="361.1" y1="100.9" x2="361.1" y2="186.8"/>
		<line fill="none" stroke="#0F0F0F" stroke-width="3.3225" stroke-miterlimit="10" x1="366.3" y1="100.9" x2="366.3" y2="186.8"/>
		<line fill="none" stroke="#0F0F0F" stroke-width="3.3225" stroke-miterlimit="10" x1="371.4" y1="100.9" x2="371.4" y2="186.8"/>
		<line fill="none" stroke="#0F0F0F" stroke-width="3.3225" stroke-miterlimit="10" x1="376.5" y1="100.9" x2="376.5" y2="186.8"/>
		<line fill="none" stroke="#0F0F0F" stroke-width="3.3225" stroke-miterlimit="10" x1="381.6" y1="100.9" x2="381.6" y2="186.8"/>
		<line fill="none" stroke="#0F0F0F" stroke-width="3.3225" stroke-miterlimit="10" x1="386.7" y1="100.1" x2="386.7" y2="186.8"/>
		<line fill="none" stroke="#0F0F0F" stroke-width="3.3225" stroke-miterlimit="10" x1="391.8" y1="100.9" x2="391.8" y2="186.8"/>
		<line fill="none" stroke="#0F0F0F" stroke-width="3.3225" stroke-miterlimit="10" x1="396.9" y1="100.9" x2="396.9" y2="186.8"/>
		<line fill="none" stroke="#0F0F0F" stroke-width="3.3225" stroke-miterlimit="10" x1="402" y1="100.9" x2="402" y2="186.8"/>
		<line fill="none" stroke="#0F0F0F" stroke-width="3.3225" stroke-miterlimit="10" x1="407.1" y1="100.9" x2="407.1" y2="186.8"/>
		<line fill="none" stroke="#0F0F0F" stroke-width="3.3225" stroke-miterlimit="10" x1="412.2" y1="100.9" x2="412.2" y2="186.8"/>
		<line fill="none" stroke="#0F0F0F" stroke-width="3.3225" stroke-miterlimit="10" x1="417.3" y1="100.9" x2="417.3" y2="186.8"/>
		<g>
			<path fill="#8A7F81" stroke="#0F0F0F" stroke-width="0.95" stroke-miterlimit="10" d="M257,140.8c-3.4-6.7-10.4-11.3-18.4-11.3
				s-15,4.6-18.4,11.3c3.4,6.7,10.4,11.3,18.4,11.3S253.6,147.5,257,140.8z"/>
			<path fill="#0D0D0D" stroke="#0D0D0D" stroke-width="0.81" stroke-miterlimit="10" d="M238.6,144.2c-1.9,0-3.4-1.5-3.4-3.4
				c0-1.9,1.5-3.4,3.4-3.4c1.9,0,3.4,1.5,3.4,3.4C242,142.7,240.5,144.2,238.6,144.2z"/>
			<path fill="none" stroke="#0F0F0F" stroke-miterlimit="10" d="M252.8,140.8c-2.6-5.1-8-8.7-14.1-8.7c-6.2,0-11.5,3.5-14.1,8.7
				c2.6,5.1,8,8.7,14.1,8.7S250.1,146,252.8,140.8z"/>
		</g>
		<g>
			<path fill="#8A7F81" stroke="#0F0F0F" stroke-width="0.95" stroke-miterlimit="10" d="M377.5,152.1c-3.4-6.7-10.4-11.3-18.4-11.3
				c-8,0-15,4.6-18.4,11.3c3.4,6.7,10.4,11.3,18.4,11.3C367.1,163.4,374.1,158.8,377.5,152.1z"/>
			<path fill="#0D0D0D" stroke="#0D0D0D" stroke-width="0.81" stroke-miterlimit="10" d="M359.1,155.5c-1.9,0-3.4-1.5-3.4-3.4
				c0-1.9,1.5-3.4,3.4-3.4c1.9,0,3.4,1.5,3.4,3.4C362.5,154,361,155.5,359.1,155.5z"/>
			<path fill="none" stroke="#0F0F0F" stroke-miterlimit="10" d="M373.2,152.1c-2.6-5.1-8-8.7-14.1-8.7c-6.2,0-11.5,3.5-14.1,8.7
				c2.6,5.1,8,8.7,14.1,8.7S370.6,157.3,373.2,152.1z"/>
		</g>
		<g>
			<path fill="#8A7F81" stroke="#0F0F0F" stroke-width="0.95" stroke-miterlimit="10" d="M410.2,134.1c-3.4-6.7-10.4-11.3-18.4-11.3
				c-8,0-15,4.6-18.4,11.3c3.4,6.7,10.4,11.3,18.4,11.3C399.8,145.4,406.7,140.8,410.2,134.1z"/>
			<path fill="#0D0D0D" stroke="#0D0D0D" stroke-width="0.81" stroke-miterlimit="10" d="M391.8,137.5c-1.9,0-3.4-1.5-3.4-3.4
				c0-1.9,1.5-3.4,3.4-3.4c1.9,0,3.4,1.5,3.4,3.4C395.1,136,393.6,137.5,391.8,137.5z"/>
			<path fill="none" stroke="#0F0F0F" stroke-miterlimit="10" d="M405.9,134.1c-2.6-5.1-8-8.7-14.1-8.7c-6.2,0-11.5,3.5-14.1,8.7
				c2.6,5.1,8,8.7,14.1,8.7S403.3,139.3,405.9,134.1z"/>
		</g>
		<line fill="none" stroke="#0F0F0F" stroke-width="3" stroke-miterlimit="10" x1="54.9" y1="116.8" x2="423.9" y2="116.8"/>
		<line fill="none" stroke="#0F0F0F" stroke-width="3" stroke-miterlimit="10" x1="54.9" y1="108.8" x2="423.9" y2="108.8"/>
		<line fill="none" stroke="#0F0F0F" stroke-width="3" stroke-miterlimit="10" x1="54.9" y1="100.8" x2="423.9" y2="100.8"/>
		<g>
			<path fill="#8A7F81" stroke="#0F0F0F" stroke-width="0.95" stroke-miterlimit="10" d="M370.9,105.1c-6.6-3.6-14.9-3.5-21.5,1.1
				c-6.6,4.5-9.8,12.2-8.8,19.7c6.6,3.6,14.9,3.5,21.5-1.1C368.7,120.3,371.9,112.6,370.9,105.1z"/>
			<path fill="#0D0D0D" stroke="#0D0D0D" stroke-width="0.81" stroke-miterlimit="10" d="M357.6,118.3c-1.5,1-3.6,0.7-4.7-0.9
				c-1-1.5-0.7-3.6,0.9-4.7c1.5-1,3.6-0.7,4.7,0.9C359.6,115.1,359.2,117.2,357.6,118.3z"/>
			<path fill="none" stroke="#0F0F0F" stroke-miterlimit="10" d="M367.4,107.5c-5.1-2.8-11.5-2.7-16.6,0.8
				c-5.1,3.5-7.5,9.4-6.8,15.1c5.1,2.8,11.5,2.7,16.6-0.8C365.7,119.2,368.2,113.3,367.4,107.5z"/>
		</g>
		<g>
			<path fill="#8A7F81" stroke="#0F0F0F" stroke-width="0.95" stroke-miterlimit="10" d="M313.1,142.5c6.7-3.4,11.3-10.4,11.3-18.4
				s-4.6-15-11.3-18.4c-6.7,3.4-11.3,10.4-11.3,18.4S306.4,139.1,313.1,142.5z"/>
			<circle fill="#0D0D0D" stroke="#0D0D0D" stroke-width="0.81" stroke-miterlimit="10" cx="313.1" cy="124.1" r="3.4"/>
			<path fill="none" stroke="#0F0F0F" stroke-miterlimit="10" d="M313.1,138.3c5.1-2.6,8.7-8,8.7-14.1c0-6.2-3.5-11.5-8.7-14.1
				c-5.1,2.6-8.7,8-8.7,14.1S308,135.7,313.1,138.3z"/>
		</g>
		<g>
			<path fill="#8A7F81" stroke="#0F0F0F" stroke-width="0.95" stroke-miterlimit="10" d="M235.4,179.5c6.9,3,15.1,2.2,21.4-2.9
				c6.2-5.1,8.7-13,7.1-20.3c-6.9-3-15.1-2.2-21.4,2.9C236.3,164.2,233.9,172.2,235.4,179.5z"/>
			<path fill="#0D0D0D" stroke="#0D0D0D" stroke-width="0.81" stroke-miterlimit="10" d="M247.6,165.3c1.4-1.2,3.6-1,4.7,0.5
				c1.2,1.4,1,3.6-0.5,4.7c-1.4,1.2-3.6,1-4.7-0.5C245.9,168.5,246.1,166.4,247.6,165.3z"/>
			<path fill="none" stroke="#0F0F0F" stroke-miterlimit="10" d="M238.7,176.8c5.3,2.3,11.7,1.7,16.4-2.2c4.8-3.9,6.7-10,5.5-15.7
				c-5.3-2.3-11.7-1.7-16.4,2.2S237.5,171.2,238.7,176.8z"/>
		</g>
	</g>
	<g>
		<g>
			<polygon fill="#8A7F81" stroke="#0F0F0F" stroke-width="2.9999" stroke-miterlimit="10" points="52.1,191 267,191 267,222 
				52.2,222 			"/>
			<line fill="none" stroke="#0F0F0F" stroke-width="2.9999" stroke-miterlimit="10" x1="52.1" y1="199" x2="266.5" y2="199"/>
			<line fill="none" stroke="#0F0F0F" stroke-width="2.9999" stroke-miterlimit="10" x1="52.2" y1="207" x2="266.5" y2="207"/>
			<line fill="none" stroke="#0F0F0F" stroke-width="2.9999" stroke-miterlimit="10" x1="52.2" y1="214.9" x2="266.5" y2="214.9"/>
			<line fill="none" stroke="#0F0F0F" stroke-width="2.9999" stroke-miterlimit="10" x1="72.6" y1="191" x2="72.6" y2="222.9"/>
			<line fill="none" stroke="#0F0F0F" stroke-width="2.9999" stroke-miterlimit="10" x1="67.5" y1="191" x2="67.5" y2="222.9"/>
			<line fill="none" stroke="#0F0F0F" stroke-width="2.9999" stroke-miterlimit="10" x1="62.4" y1="191" x2="62.4" y2="222.9"/>
			<line fill="none" stroke="#0F0F0F" stroke-width="2.9999" stroke-miterlimit="10" x1="57.2" y1="191" x2="57.2" y2="222.9"/>
			<line fill="none" stroke="#0F0F0F" stroke-width="2.9999" stroke-miterlimit="10" x1="77.7" y1="191" x2="77.7" y2="222.9"/>
			<line fill="none" stroke="#0F0F0F" stroke-width="2.9999" stroke-miterlimit="10" x1="87.9" y1="191" x2="87.9" y2="222.9"/>
			<line fill="none" stroke="#0F0F0F" stroke-width="2.9999" stroke-miterlimit="10" x1="98.2" y1="191" x2="98.2" y2="222.9"/>
			<line fill="none" stroke="#0F0F0F" stroke-width="2.9999" stroke-miterlimit="10" x1="108.4" y1="191" x2="108.4" y2="222.9"/>
			<line fill="none" stroke="#0F0F0F" stroke-width="2.9999" stroke-miterlimit="10" x1="118.6" y1="191" x2="118.6" y2="222.9"/>
			<line fill="none" stroke="#0F0F0F" stroke-width="2.9999" stroke-miterlimit="10" x1="128.9" y1="191" x2="128.9" y2="222.9"/>
			<line fill="none" stroke="#0F0F0F" stroke-width="2.9999" stroke-miterlimit="10" x1="139.1" y1="191" x2="139.1" y2="222.9"/>
			<line fill="none" stroke="#0F0F0F" stroke-width="2.9999" stroke-miterlimit="10" x1="149.3" y1="191" x2="149.3" y2="222.9"/>
			<line fill="none" stroke="#0F0F0F" stroke-width="2.9999" stroke-miterlimit="10" x1="159.6" y1="191" x2="159.6" y2="222.9"/>
			<line fill="none" stroke="#0F0F0F" stroke-width="2.9999" stroke-miterlimit="10" x1="169.8" y1="191" x2="169.8" y2="222.9"/>
			<line fill="none" stroke="#0F0F0F" stroke-width="2.9999" stroke-miterlimit="10" x1="180" y1="191" x2="180" y2="222.9"/>
			<line fill="none" stroke="#0F0F0F" stroke-width="2.9999" stroke-miterlimit="10" x1="190.3" y1="191" x2="190.3" y2="222.9"/>
			<line fill="none" stroke="#0F0F0F" stroke-width="2.9999" stroke-miterlimit="10" x1="200.5" y1="191" x2="200.5" y2="222.9"/>
			<line fill="none" stroke="#0F0F0F" stroke-width="2.9999" stroke-miterlimit="10" x1="210.7" y1="191" x2="210.7" y2="222.9"/>
			<line fill="none" stroke="#0F0F0F" stroke-width="2.9999" stroke-miterlimit="10" x1="221" y1="191" x2="221" y2="222.9"/>
			<line fill="none" stroke="#0F0F0F" stroke-width="2.9999" stroke-miterlimit="10" x1="231.2" y1="191" x2="231.2" y2="222.9"/>
			<line fill="none" stroke="#0F0F0F" stroke-width="2.9999" stroke-miterlimit="10" x1="241.4" y1="191" x2="241.4" y2="222.9"/>
			<line fill="none" stroke="#0F0F0F" stroke-width="2.9999" stroke-miterlimit="10" x1="82.8" y1="191" x2="82.8" y2="222.9"/>
			<line fill="none" stroke="#0F0F0F" stroke-width="2.9999" stroke-miterlimit="10" x1="93.1" y1="191" x2="93.1" y2="222.9"/>
			<line fill="none" stroke="#0F0F0F" stroke-width="2.9999" stroke-miterlimit="10" x1="103.3" y1="191" x2="103.3" y2="222.9"/>
			<line fill="none" stroke="#0F0F0F" stroke-width="2.9999" stroke-miterlimit="10" x1="113.5" y1="191" x2="113.5" y2="222.9"/>
			<line fill="none" stroke="#0F0F0F" stroke-width="2.9999" stroke-miterlimit="10" x1="123.8" y1="191" x2="123.8" y2="222.9"/>
			<line fill="none" stroke="#0F0F0F" stroke-width="2.9999" stroke-miterlimit="10" x1="134" y1="191" x2="134" y2="222.9"/>
			<line fill="none" stroke="#0F0F0F" stroke-width="2.9999" stroke-miterlimit="10" x1="144.2" y1="191" x2="144.2" y2="222.9"/>
			<line fill="none" stroke="#0F0F0F" stroke-width="2.9999" stroke-miterlimit="10" x1="154.5" y1="191" x2="154.5" y2="222.9"/>
			<line fill="none" stroke="#0F0F0F" stroke-width="2.9999" stroke-miterlimit="10" x1="164.7" y1="191" x2="164.7" y2="222.9"/>
			<line fill="none" stroke="#0F0F0F" stroke-width="2.9999" stroke-miterlimit="10" x1="174.9" y1="191" x2="174.9" y2="222.9"/>
			<line fill="none" stroke="#0F0F0F" stroke-width="2.9999" stroke-miterlimit="10" x1="185.2" y1="191" x2="185.2" y2="222.9"/>
			<line fill="none" stroke="#0F0F0F" stroke-width="2.9999" stroke-miterlimit="10" x1="195.4" y1="191" x2="195.4" y2="222.9"/>
			<line fill="none" stroke="#0F0F0F" stroke-width="2.9999" stroke-miterlimit="10" x1="205.6" y1="191" x2="205.6" y2="222.9"/>
			<line fill="none" stroke="#0F0F0F" stroke-width="2.9999" stroke-miterlimit="10" x1="215.8" y1="191" x2="215.8" y2="222.9"/>
			<line fill="none" stroke="#0F0F0F" stroke-width="2.9999" stroke-miterlimit="10" x1="226.1" y1="191" x2="226.1" y2="222.9"/>
			<line fill="none" stroke="#0F0F0F" stroke-width="2.9999" stroke-miterlimit="10" x1="236.3" y1="191" x2="236.3" y2="222.9"/>
			<line fill="none" stroke="#0F0F0F" stroke-width="2.9999" stroke-miterlimit="10" x1="246.5" y1="191" x2="246.5" y2="222.9"/>
			<line fill="none" stroke="#0F0F0F" stroke-width="2.9999" stroke-miterlimit="10" x1="251.7" y1="191" x2="251.7" y2="222.9"/>
			<line fill="none" stroke="#0F0F0F" stroke-width="2.9999" stroke-miterlimit="10" x1="256.8" y1="191" x2="256.8" y2="222.9"/>
			<line fill="none" stroke="#0F0F0F" stroke-width="2.9999" stroke-miterlimit="10" x1="261.9" y1="191" x2="261.9" y2="222.9"/>
		</g>
		<g>
			<polygon fill="#8A7F81" stroke="#0F0F0F" stroke-width="2.9999" stroke-miterlimit="10" points="210.5,191 425.4,191 425.4,222 
				210.6,222 			"/>
			<line fill="none" stroke="#0F0F0F" stroke-width="2.9999" stroke-miterlimit="10" x1="210.6" y1="199" x2="425" y2="199"/>
			<line fill="none" stroke="#0F0F0F" stroke-width="2.9999" stroke-miterlimit="10" x1="210.6" y1="207" x2="425" y2="207"/>
			<line fill="none" stroke="#0F0F0F" stroke-width="2.9999" stroke-miterlimit="10" x1="210.6" y1="214.9" x2="425" y2="214.9"/>
			<line fill="none" stroke="#0F0F0F" stroke-width="2.9999" stroke-miterlimit="10" x1="231" y1="191" x2="231" y2="222.9"/>
			<line fill="none" stroke="#0F0F0F" stroke-width="2.9999" stroke-miterlimit="10" x1="225.9" y1="191" x2="225.9" y2="222.9"/>
			<line fill="none" stroke="#0F0F0F" stroke-width="2.9999" stroke-miterlimit="10" x1="220.8" y1="191" x2="220.8" y2="222.9"/>
			<line fill="none" stroke="#0F0F0F" stroke-width="2.9999" stroke-miterlimit="10" x1="215.7" y1="191" x2="215.7" y2="222.9"/>
			<line fill="none" stroke="#0F0F0F" stroke-width="2.9999" stroke-miterlimit="10" x1="236.2" y1="191" x2="236.2" y2="222.9"/>
			<line fill="none" stroke="#0F0F0F" stroke-width="2.9999" stroke-miterlimit="10" x1="246.4" y1="191" x2="246.4" y2="222.9"/>
			<line fill="none" stroke="#0F0F0F" stroke-width="2.9999" stroke-miterlimit="10" x1="256.6" y1="191" x2="256.6" y2="222.9"/>
			<line fill="none" stroke="#0F0F0F" stroke-width="2.9999" stroke-miterlimit="10" x1="266.8" y1="191" x2="266.8" y2="222.9"/>
			<line fill="none" stroke="#0F0F0F" stroke-width="2.9999" stroke-miterlimit="10" x1="277.1" y1="191" x2="277.1" y2="222.9"/>
			<line fill="none" stroke="#0F0F0F" stroke-width="2.9999" stroke-miterlimit="10" x1="287.3" y1="191" x2="287.3" y2="222.9"/>
			<line fill="none" stroke="#0F0F0F" stroke-width="2.9999" stroke-miterlimit="10" x1="297.5" y1="191" x2="297.5" y2="222.9"/>
			<line fill="none" stroke="#0F0F0F" stroke-width="2.9999" stroke-miterlimit="10" x1="307.8" y1="191" x2="307.8" y2="222.9"/>
			<line fill="none" stroke="#0F0F0F" stroke-width="2.9999" stroke-miterlimit="10" x1="318" y1="191" x2="318" y2="222.9"/>
			<line fill="none" stroke="#0F0F0F" stroke-width="2.9999" stroke-miterlimit="10" x1="328.2" y1="191" x2="328.2" y2="222.9"/>
			<line fill="none" stroke="#0F0F0F" stroke-width="2.9999" stroke-miterlimit="10" x1="338.5" y1="191" x2="338.5" y2="222.9"/>
			<line fill="none" stroke="#0F0F0F" stroke-width="2.9999" stroke-miterlimit="10" x1="348.7" y1="191" x2="348.7" y2="222.9"/>
			<line fill="none" stroke="#0F0F0F" stroke-width="2.9999" stroke-miterlimit="10" x1="358.9" y1="191" x2="358.9" y2="222.9"/>
			<line fill="none" stroke="#0F0F0F" stroke-width="2.9999" stroke-miterlimit="10" x1="369.2" y1="191" x2="369.2" y2="222.9"/>
			<line fill="none" stroke="#0F0F0F" stroke-width="2.9999" stroke-miterlimit="10" x1="379.4" y1="191" x2="379.4" y2="222.9"/>
			<line fill="none" stroke="#0F0F0F" stroke-width="2.9999" stroke-miterlimit="10" x1="389.6" y1="191" x2="389.6" y2="222.9"/>
			<line fill="none" stroke="#0F0F0F" stroke-width="2.9999" stroke-miterlimit="10" x1="399.9" y1="191" x2="399.9" y2="222.9"/>
			<line fill="none" stroke="#0F0F0F" stroke-width="2.9999" stroke-miterlimit="10" x1="241.3" y1="191" x2="241.3" y2="222.9"/>
			<line fill="none" stroke="#0F0F0F" stroke-width="2.9999" stroke-miterlimit="10" x1="251.5" y1="191" x2="251.5" y2="222.9"/>
			<line fill="none" stroke="#0F0F0F" stroke-width="2.9999" stroke-miterlimit="10" x1="261.7" y1="191" x2="261.7" y2="222.9"/>
			<line fill="none" stroke="#0F0F0F" stroke-width="2.9999" stroke-miterlimit="10" x1="272" y1="191" x2="272" y2="222.9"/>
			<line fill="none" stroke="#0F0F0F" stroke-width="2.9999" stroke-miterlimit="10" x1="282.2" y1="191" x2="282.2" y2="222.9"/>
			<line fill="none" stroke="#0F0F0F" stroke-width="2.9999" stroke-miterlimit="10" x1="292.4" y1="191" x2="292.4" y2="222.9"/>
			<line fill="none" stroke="#0F0F0F" stroke-width="2.9999" stroke-miterlimit="10" x1="302.7" y1="191" x2="302.7" y2="222.9"/>
			<line fill="none" stroke="#0F0F0F" stroke-width="2.9999" stroke-miterlimit="10" x1="312.9" y1="191" x2="312.9" y2="222.9"/>
			<line fill="none" stroke="#0F0F0F" stroke-width="2.9999" stroke-miterlimit="10" x1="323.1" y1="191" x2="323.1" y2="222.9"/>
			<line fill="none" stroke="#0F0F0F" stroke-width="2.9999" stroke-miterlimit="10" x1="333.4" y1="191" x2="333.4" y2="222.9"/>
			<line fill="none" stroke="#0F0F0F" stroke-width="2.9999" stroke-miterlimit="10" x1="343.6" y1="191" x2="343.6" y2="222.9"/>
			<line fill="none" stroke="#0F0F0F" stroke-width="2.9999" stroke-miterlimit="10" x1="353.8" y1="191" x2="353.8" y2="222.9"/>
			<line fill="none" stroke="#0F0F0F" stroke-width="2.9999" stroke-miterlimit="10" x1="364.1" y1="191" x2="364.1" y2="222.9"/>
			<line fill="none" stroke="#0F0F0F" stroke-width="2.9999" stroke-miterlimit="10" x1="374.3" y1="191" x2="374.3" y2="222.9"/>
			<line fill="none" stroke="#0F0F0F" stroke-width="2.9999" stroke-miterlimit="10" x1="384.5" y1="191" x2="384.5" y2="222.9"/>
			<line fill="none" stroke="#0F0F0F" stroke-width="2.9999" stroke-miterlimit="10" x1="394.8" y1="191" x2="394.8" y2="222.9"/>
			<line fill="none" stroke="#0F0F0F" stroke-width="2.9999" stroke-miterlimit="10" x1="405" y1="191" x2="405" y2="222.9"/>
			<line fill="none" stroke="#0F0F0F" stroke-width="2.9999" stroke-miterlimit="10" x1="410.1" y1="191" x2="410.1" y2="222.9"/>
			<line fill="none" stroke="#0F0F0F" stroke-width="2.9999" stroke-miterlimit="10" x1="415.2" y1="191" x2="415.2" y2="222.9"/>
			<line fill="none" stroke="#0F0F0F" stroke-width="2.9999" stroke-miterlimit="10" x1="420.3" y1="191" x2="420.3" y2="222.9"/>
		</g>
	</g>
	<g>
		<defs>
			<rect id="SVGID_3_" x="406.9" y="34.6" width="16.3" height="26.8"/>
		</defs>
		<clipPath id="SVGID_4_">
			<use xlink:href="#SVGID_3_"  overflow="visible"/>
		</clipPath>
		<g clip-path="url(#SVGID_4_)">
			<path fill="none" stroke="#0F0F0F" stroke-width="1.2928" stroke-miterlimit="10" d="M429,49.2c0,4.4-3.6,8-8,8s-8-3.6-8-8
				c0-4.4,3.6-8,8-8S429,44.8,429,49.2z"/>
			<path fill="none" stroke="#0F0F0F" stroke-width="1.2928" stroke-miterlimit="10" d="M432,49.2c0,6.1-4.9,11-11,11
				c-6.1,0-11-4.9-11-11c0-6.1,4.9-11,11-11C427,38.2,432,43.1,432,49.2z"/>
			<path fill="#0F0F0F" stroke="#0F0F0F" stroke-width="1.2928" stroke-miterlimit="10" d="M424.1,49.2c0,1.7-1.4,3.1-3.1,3.1
				c-1.7,0-3.1-1.4-3.1-3.1c0-1.7,1.4-3.1,3.1-3.1C422.7,46.1,424.1,47.5,424.1,49.2z"/>
		</g>
	</g>
	<g>
		<defs>
			<rect id="SVGID_5_" x="406.9" y="72.6" width="16.3" height="26.8"/>
		</defs>
		<clipPath id="SVGID_6_">
			<use xlink:href="#SVGID_5_"  overflow="visible"/>
		</clipPath>
		<g clip-path="url(#SVGID_6_)">
			<path fill="none" stroke="#0F0F0F" stroke-width="1.2928" stroke-miterlimit="10" d="M429,87.2c0,4.4-3.6,8-8,8s-8-3.6-8-8
				c0-4.4,3.6-8,8-8S429,82.8,429,87.2z"/>
			<path fill="none" stroke="#0F0F0F" stroke-width="1.2928" stroke-miterlimit="10" d="M432,87.2c0,6.1-4.9,11-11,11
				c-6.1,0-11-4.9-11-11c0-6.1,4.9-11,11-11C427,76.3,432,81.2,432,87.2z"/>
			<path fill="#0F0F0F" stroke="#0F0F0F" stroke-width="1.2928" stroke-miterlimit="10" d="M424.1,87.2c0,1.7-1.4,3.1-3.1,3.1
				c-1.7,0-3.1-1.4-3.1-3.1c0-1.7,1.4-3.1,3.1-3.1C422.7,84.1,424.1,85.5,424.1,87.2z"/>
		</g>
	</g>
	<g>
		<path fill="none" stroke="#0F0F0F" stroke-width="1.2928" stroke-miterlimit="10" d="M59,88.4c0-4.4,3.6-8,8-8c4.4,0,8,3.6,8,8
			c0,4.4-3.6,8-8,8C62.6,96.4,59,92.8,59,88.4z"/>
		<path fill="none" stroke="#0F0F0F" stroke-width="1.2928" stroke-miterlimit="10" d="M56.1,88.4c0-6.1,4.9-11,11-11
			c6.1,0,11,4.9,11,11c0,6.1-4.9,11-11,11C61,99.3,56.1,94.4,56.1,88.4z"/>
		<path fill="#0F0F0F" stroke="#0F0F0F" stroke-width="1.2928" stroke-miterlimit="10" d="M63.9,88.4c0-1.7,1.4-3.1,3.1-3.1
			c1.7,0,3.1,1.4,3.1,3.1c0,1.7-1.4,3.1-3.1,3.1C65.3,91.5,63.9,90.1,63.9,88.4z"/>
	</g>
	<g>
		<defs>
			<rect id="SVGID_7_" x="53.4" y="56.4" width="16.3" height="26.8"/>
		</defs>
		<clipPath id="SVGID_8_">
			<use xlink:href="#SVGID_7_"  overflow="visible"/>
		</clipPath>
		<g clip-path="url(#SVGID_8_)">
			<path fill="none" stroke="#0F0F0F" stroke-width="1.2928" stroke-miterlimit="10" d="M47.6,68.6c0-4.4,3.6-8,8-8c4.4,0,8,3.6,8,8
				c0,4.4-3.6,8-8,8C51.1,76.6,47.6,73,47.6,68.6z"/>
			<path fill="none" stroke="#0F0F0F" stroke-width="1.2928" stroke-miterlimit="10" d="M44.6,68.6c0-6.1,4.9-11,11-11
				c6.1,0,11,4.9,11,11c0,6.1-4.9,11-11,11C49.5,79.6,44.6,74.6,44.6,68.6z"/>
			<path fill="#0F0F0F" stroke="#0F0F0F" stroke-width="1.2928" stroke-miterlimit="10" d="M52.5,68.6c0-1.7,1.4-3.1,3.1-3.1
				c1.7,0,3.1,1.4,3.1,3.1c0,1.7-1.4,3.1-3.1,3.1C53.9,71.7,52.5,70.3,52.5,68.6z"/>
		</g>
	</g>
	<path d="M424.4,30.5c-1.2-0.6-2.5-0.9-3.7-1c0,0-0.1,0-0.1,0v0c-0.3,0-0.6-0.1-0.9-0.1l0,0c0,0,0,0,0,0l-0.1,0c0,0,0,0,0,0
		c0,0,0,0,0,0c0,0,0,0,0,0c0,0,0,0,0,0c0,0,0,0,0,0c-1.6,0-3.3,0.4-4.7,1.1c-1.7,0.7-3.3,1.1-5,1.3v0c-0.4,0-0.7,0-1.1,0
		c-2.1,0-4.1-0.4-6.1-1.3c-1.5-0.7-3.2-1.1-4.8-1.1c0,0,0,0,0,0s0,0,0,0c-0.2,0-0.5,0-0.7,0v0c0,0,0,0-0.1,0c-0.3,0-0.6,0-0.8,0.1
		c-0.2,0-0.3,0.1-0.5,0.1s-0.3,0.1-0.5,0.1c-0.8,0.2-1.5,0.4-2.3,0.8c-2,0.9-4,1.3-6.1,1.3c-2,0-4.1-0.5-6.1-1.3
		c-0.4-0.2-0.7-0.3-1.1-0.4c-0.1,0-0.1,0-0.2-0.1c-0.3-0.1-0.6-0.2-0.9-0.3c-0.1,0-0.2,0-0.3-0.1c-0.3-0.1-0.6-0.1-0.9-0.2
		c-0.1,0-0.2,0-0.3,0c0,0-0.1,0-0.1,0v0c-0.3,0-0.7-0.1-1-0.1h0c0,0,0,0,0,0l-0.1,0h0c0,0-0.1,0-0.1,0c0,0,0,0,0,0h0c0,0,0,0,0,0
		c0,0,0,0,0,0c-0.2,0-0.4,0-0.6,0c-0.2,0-0.4,0-0.6,0c-0.1,0-0.2,0-0.3,0c-1.1,0.2-2.2,0.5-3.3,1c-0.9,0.4-1.8,0.7-2.7,0.9
		c-0.3,0.1-0.6,0.1-0.9,0.2c0,0,0,0,0,0c-0.4,0.1-0.8,0.1-1.2,0.2v0c-0.4,0-0.8,0.1-1.2,0.1c-2.1,0-4.1-0.4-6.1-1.3
		c-1.5-0.7-3.2-1.1-4.8-1.1h0c0,0,0,0,0,0c-1.6,0-3.3,0.4-4.8,1.1c-2,0.9-4,1.3-6.1,1.3c-2.1,0-4.1-0.5-6.1-1.3
		c-1.2-0.6-2.5-0.9-3.7-1c0,0-0.1,0-0.1,0v0c-0.3,0-0.6-0.1-0.9-0.1l0,0c0,0,0,0,0,0l-0.1,0c0,0,0,0,0,0c0,0,0,0,0,0c0,0,0,0,0,0
		c0,0,0,0,0,0c0,0,0,0,0,0c-1.6,0-3.3,0.4-4.7,1.1c-1.7,0.7-3.3,1.1-5,1.3v0c-0.4,0-0.7,0-1.1,0c-1.7,0-3.5-0.3-5.1-0.9l0,0
		c-0.3-0.1-0.6-0.2-0.9-0.3c-1.2-0.5-2.4-0.9-3.6-1c0,0-0.1,0-0.1,0c0,0,0,0,0,0c0,0-0.1,0-0.1,0v0c-0.3,0-0.6-0.1-0.9-0.1l0,0
		c0,0,0,0,0,0l-0.1,0c0,0,0,0,0,0h0c0,0,0,0,0,0c0,0,0,0,0,0s0,0,0,0c0,0,0,0,0,0c0,0,0,0,0,0c0,0,0,0,0,0c0,0,0,0,0,0
		c-1.6,0-3.3,0.4-4.7,1.1c-1.6,0.7-3.3,1.1-5,1.3v0c-0.3,0-0.5,0-0.8,0c-0.1,0-0.2,0-0.3,0c-2,0-4.1-0.5-6.1-1.3
		c-0.4-0.2-0.7-0.3-1.1-0.4c-0.1,0-0.1,0-0.2-0.1c-0.3-0.1-0.6-0.2-0.9-0.3c-0.1,0-0.2,0-0.3-0.1c-0.3-0.1-0.6-0.1-0.9-0.2
		c-0.1,0-0.2,0-0.3,0c0,0-0.1,0-0.1,0v0c-0.3,0-0.7-0.1-1-0.1l-0.1,0c0,0,0,0,0,0c0,0,0,0,0,0s0,0,0,0c0,0,0,0,0,0c0,0-0.1,0-0.1,0
		c0,0,0,0,0,0s0,0,0,0c0,0,0,0,0,0c0,0,0,0,0,0c-1.6,0-3.3,0.4-4.8,1.1c-1,0.4-2,0.8-3,1c0,0,0,0,0,0c-0.4,0.1-0.8,0.1-1.2,0.2
		c-0.2,0-0.4,0.1-0.6,0.1c-0.4,0-0.8,0.1-1.3,0.1c-2,0-4.1-0.5-6-1.3c-0.4-0.2-0.7-0.3-1.1-0.4c-0.1,0-0.1,0-0.2-0.1
		c-0.3-0.1-0.6-0.2-0.9-0.3c-0.1,0-0.2,0-0.3-0.1c-0.3-0.1-0.6-0.1-0.9-0.2c-0.1,0-0.2,0-0.3,0c0,0-0.1,0-0.1,0v0
		c-0.1,0-0.1,0-0.2,0c0,0,0,0,0,0v0c-0.3,0-0.5,0-0.8,0h0c0,0,0,0,0,0l-0.1,0c0,0,0,0,0,0l0,0c0,0,0,0,0,0c0,0,0,0,0,0h0
		c0,0,0,0,0,0c0,0,0,0,0,0h0c0,0,0,0,0,0c0,0,0,0,0,0c0,0,0,0,0,0s0,0,0,0c0,0,0,0,0,0s0,0,0,0c0,0,0,0,0,0c0,0,0,0,0,0
		c-1.6,0-3.3,0.4-4.7,1.1c-1.7,0.7-3.3,1.1-5,1.3v0c-0.4,0-0.7,0-1,0c-2,0-4.1-0.4-6-1.3c-1.5-0.7-3.2-1.1-4.8-1.1h0c0,0,0,0,0,0
		c0,0,0,0,0,0s0,0,0,0c0,0,0,0,0,0s0,0,0,0c-0.2,0-0.5,0-0.7,0v0c0,0,0,0-0.1,0c0,0-0.1,0-0.1,0c-0.2,0-0.3,0-0.5,0
		c-0.1,0-0.2,0-0.2,0c-0.2,0-0.3,0.1-0.5,0.1c-0.2,0-0.3,0.1-0.5,0.1c-0.8,0.2-1.5,0.4-2.3,0.8c-2,0.9-4,1.3-6,1.3
		c-2,0-4.1-0.5-6-1.3c-1.2-0.6-2.5-0.9-3.7-1c0,0-0.1,0-0.1,0v0c0,0,0,0,0,0c0,0,0,0-0.1,0v0c-0.3,0-0.6,0-0.8-0.1l0,0c0,0,0,0,0,0
		l-0.1,0c0,0,0,0,0,0h0h0c0,0,0,0,0,0c0,0,0,0,0,0c0,0,0,0,0,0c0,0,0,0,0,0c0,0,0,0,0,0c0,0,0,0,0,0c0,0,0,0-0.1,0c0,0,0,0,0,0
		c0,0,0,0,0,0c0,0,0,0,0,0c0,0,0,0,0,0c-0.2,0-0.4,0-0.6,0c-0.2,0-0.4,0-0.6,0c-0.1,0-0.2,0-0.3,0c-1.1,0.2-2.2,0.5-3.3,1
		c-0.9,0.4-1.8,0.7-2.7,0.9c-0.3,0.1-0.6,0.1-0.9,0.2c0,0,0,0,0,0c-0.4,0.1-0.8,0.1-1.2,0.2v0c-0.4,0-0.7,0-1.1,0.1
		c-2,0-4-0.4-6-1.3c-1.5-0.7-3.2-1.1-4.8-1.1h0c0,0,0,0,0,0c0,0-0.1,0-0.1,0c0,0-0.1,0-0.1,0c0,0,0,0,0,0c0,0,0,0,0,0
		c-1.6,0-3.3,0.4-4.8,1.1c-2,0.9-4,1.3-6,1.3c-2,0-4.1-0.5-6-1.3c-0.4-0.2-0.7-0.3-1.1-0.4c-0.1,0-0.1,0-0.2-0.1
		c-0.3-0.1-0.6-0.2-0.9-0.3c-0.1,0-0.2,0-0.3-0.1c-0.3-0.1-0.6-0.1-0.9-0.2c-0.1,0-0.2,0-0.3,0c0,0-0.1,0-0.2,0v0
		c-0.1,0-0.1,0-0.2,0c0,0,0,0,0,0v0c-0.3,0-0.5,0-0.8,0l-0.1,0c0,0,0,0,0,0l0,0c0,0,0,0,0,0c0,0,0,0,0,0h0c0,0,0,0,0,0c0,0,0,0,0,0
		l0,0c0,0,0,0,0,0c0,0,0,0,0,0c0,0,0,0,0,0s0,0,0,0c0,0,0,0,0,0c0,0,0,0,0,0c0,0,0,0,0,0c0,0,0,0,0,0c0,0,0,0,0,0
		c-1.6,0-3.3,0.4-4.7,1.1c-1.7,0.7-3.3,1.1-5,1.3v0c-0.3,0-0.5,0-0.8,0c-0.1,0-0.2,0-0.3,0c-2,0-4.1-0.5-6-1.3
		c-1.2-0.5-2.4-0.9-3.6-1c0,0,0,0-0.1,0c0,0,0,0,0,0c0,0-0.1,0-0.1,0v0c-0.3,0-0.6-0.1-0.9-0.1l0,0c0,0,0,0,0,0l-0.1,0c0,0,0,0,0,0
		c0,0,0,0,0,0s0,0,0,0c0,0,0,0,0,0c0,0,0,0,0,0s0,0,0,0s0,0,0,0c0,0,0,0,0,0c0,0,0,0,0,0c-1.6,0-3.3,0.4-4.7,1.1
		c-1.7,0.7-3.3,1.1-5,1.3v0c-0.4,0-0.7,0-1.1,0c-2.1,0-4.1-0.4-6.1-1.3c-1.5-0.7-3.2-1.1-4.8-1.1c0,0,0,0,0,0s0,0,0,0
		c-0.2,0-0.5,0-0.7,0v0c0,0,0,0-0.1,0c-0.3,0-0.6,0-0.8,0.1c-0.2,0-0.3,0.1-0.5,0.1c-0.2,0-0.3,0.1-0.5,0.1
		c-0.8,0.2-1.5,0.4-2.3,0.8c-2,0.9-4,1.3-6.1,1.3c-2,0-4.1-0.5-6.1-1.3c-0.4-0.2-0.7-0.3-1.1-0.4c-0.1,0-0.1,0-0.2-0.1
		c-0.3-0.1-0.6-0.2-0.9-0.3c-0.1,0-0.2,0-0.3-0.1c-0.3-0.1-0.6-0.1-0.9-0.2c-0.1,0-0.2,0-0.3,0c0,0-0.1,0-0.2,0v0
		c-0.3,0-0.7-0.1-1-0.1h0c0,0,0,0,0,0l-0.1,0h0c0,0-0.1,0-0.1,0c0,0,0,0,0,0c0,0,0,0,0,0c0,0,0,0,0,0c0,0,0,0,0,0
		c-0.2,0-0.4,0-0.6,0c-0.2,0-0.4,0-0.6,0c-0.1,0-0.2,0-0.3,0c-1.1,0.2-2.2,0.5-3.3,1c-0.9,0.4-1.8,0.7-2.7,0.9
		c-0.3,0.1-0.6,0.1-0.9,0.2c0,0,0,0,0,0c-0.4,0.1-0.8,0.1-1.2,0.2v0c-0.4,0-0.8,0.1-1.2,0.1c-2.1,0-4.1-0.4-6.1-1.3
		c-1.5-0.7-3.2-1.1-4.8-1.1c0,0,0,0,0,0c0,0,0,0,0,0c-1.6,0-3.3,0.4-4.8,1.1c-2,0.9-4,1.3-6.1,1.3c-2.1,0-4.1-0.5-6.1-1.3
		c-1.2-0.6-2.5-0.9-3.7-1c0,0-0.1,0-0.1,0v0c-0.3,0-0.6-0.1-0.9-0.1l0,0c0,0,0,0,0,0l-0.1,0c0,0,0,0,0,0c0,0,0,0,0,0c0,0,0,0,0,0
		c0,0,0,0,0,0c0,0,0,0,0,0c-1.6,0-3.3,0.4-4.7,1.1c-1.7,0.7-3.3,1.1-5,1.3v0c-0.4,0-0.7,0-1.1,0c-1.5,0-3.1-0.2-4.6-0.7v4.3
		c1.5,0.6,3,1,4.6,1c0.6,0,1.3-0.1,1.9-0.2c0,0,0.1,0,0.1,0c0.9-0.2,1.8-0.4,2.7-0.8c0.1-0.1,0.3-0.1,0.4-0.2
		c0.3-0.1,0.6-0.3,0.9-0.4c0.3-0.1,0.6-0.2,0.9-0.3c0.2,0,0.3-0.1,0.5-0.1c0.4-0.1,0.8-0.2,1.2-0.2c0.1,0,0.1,0,0.2,0
		c0.4-0.1,0.9-0.1,1.4-0.1c0.1,0,0.2,0,0.2,0l0.1,0c0.1,0,0.3,0,0.4,0c0,0,0,0,0,0c0.5,0,0.9,0,1.4,0.1c0.2,0,0.4,0,0.6,0.1
		c0.1,0,0.2,0,0.3,0c0.3,0.1,0.7,0.1,1,0.2c0.1,0,0.2,0,0.2,0.1c0.8,0.2,1.7,0.5,2.7,1c1.1,0.5,2.4,0.8,3.6,0.9c0,0,0.1,0,0.1,0
		c0.2,0,0.3,0,0.5,0l0.5,0c0,0,0,0,0,0c0,0,0,0,0,0h0c0,0,0,0,0,0l0.1,0c1.6,0,3.1-0.3,4.6-1c1.8-0.8,3.7-1.3,5.6-1.4
		c0.2,0,0.4,0,0.6,0c2.1,0,4.3,0.5,6.3,1.4c1.5,0.6,3.1,1,4.6,1c0.4,0,0.8,0,1.2-0.1v0c1.2-0.1,2.4-0.4,3.5-0.9
		c1.7-0.8,3.6-1.3,5.5-1.3l0.3,0c0.1,0,0.3,0,0.4,0c0,0,0,0,0,0c2.1,0,4.2,0.5,6.2,1.4c0.3,0.1,0.6,0.2,0.9,0.3
		c0.1,0,0.3,0.1,0.4,0.1c0.2,0.1,0.3,0.1,0.5,0.1c0.2,0,0.3,0.1,0.5,0.1c0.2,0,0.4,0.1,0.6,0.1v0c0.1,0,0.1,0,0.2,0
		c0.1,0,0.2,0,0.3,0c0.3,0,0.6,0.1,0.9,0.1l0.6,0c0,0,0,0,0,0s0,0,0,0c0,0,0,0,0,0h0c0.2,0,0.4,0,0.6,0c0.2,0,0.4,0,0.6,0
		c0.1,0,0.1,0,0.2,0c1.1-0.1,2.2-0.4,3.3-0.9c1-0.4,2-0.8,3-1c0.3-0.1,0.6-0.1,0.9-0.2c0.2,0,0.3,0,0.5-0.1c0.4-0.1,0.8-0.1,1.1-0.1
		c0.2,0,0.5,0,0.7,0c2.1,0,4.3,0.5,6.3,1.4c1.5,0.6,3.1,1,4.6,1c0.6,0,1.3-0.1,1.9-0.2c0,0,0.1,0,0.1,0c0.9-0.2,1.8-0.4,2.7-0.8
		c0.1-0.1,0.3-0.1,0.5-0.2c0.3-0.1,0.6-0.3,0.9-0.4c0.3-0.1,0.6-0.2,0.9-0.3c0.2,0,0.3-0.1,0.5-0.1c0.2,0,0.4-0.1,0.6-0.1
		c0.3-0.1,0.6-0.1,0.9-0.2c0.4,0,0.7-0.1,1.1-0.1c0.2,0,0.4,0,0.7,0c0.1,0,0.1,0,0.2,0c0,0,0,0,0,0c0,0,0,0,0,0c0,0,0.1,0,0.1,0
		c0.5,0,0.9,0,1.4,0.1c0.1,0,0.2,0,0.3,0c0.4,0,0.7,0.1,1.1,0.2c0.1,0,0.3,0,0.4,0.1c0,0,0.1,0,0.1,0c0.1,0,0.2,0.1,0.3,0.1
		c0.8,0.2,1.6,0.5,2.5,0.9c1.1,0.5,2.4,0.8,3.6,0.9c0,0,0.1,0,0.1,0c0.2,0,0.3,0,0.5,0l0.5,0c0,0,0,0,0,0c0,0,0,0,0,0h0c0,0,0,0,0,0
		l0.1,0c0.5,0,0.9,0,1.4-0.1c0.3,0,0.6-0.1,0.9-0.1c0,0,0,0,0.1,0c0.8-0.2,1.6-0.4,2.3-0.7c1.7-0.8,3.6-1.3,5.5-1.3l0.3,0
		c0.1,0,0.2,0,0.4,0c0.5,0,1,0,1.5,0.1c0,0,0.1,0,0.1,0c0.5,0.1,1,0.1,1.5,0.3c0,0,0,0,0,0c0.2,0.1,0.5,0.1,0.7,0.2
		c0.7,0.2,1.4,0.5,2.2,0.8c1.1,0.5,2.4,0.8,3.6,0.9c0,0,0.1,0,0.1,0c0.2,0,0.3,0,0.5,0l0.5,0c0,0,0,0,0,0c0,0,0,0,0,0h0c0,0,0,0,0,0
		l0.1,0c0,0,0,0,0,0l0,0c0,0,0,0,0,0c0,0,0,0,0,0h0c0.2,0,0.4,0,0.6,0c0.2,0,0.4,0,0.6,0c0.1,0,0.1,0,0.2,0c1.1-0.1,2.2-0.4,3.3-0.9
		c1.4-0.7,3-1.1,4.6-1.3c0.1,0,0.1,0,0.2,0c0.5,0,0.9-0.1,1.4-0.1c2.1,0,4.3,0.5,6.2,1.4c1.5,0.6,3.1,1,4.6,1c0,0,0.1,0,0.1,0
		c0,0,0.1,0,0.1,0c0.6,0,1.3-0.1,1.9-0.2c0,0,0.1,0,0.1,0c0.9-0.2,1.8-0.4,2.7-0.8c0.1-0.1,0.3-0.1,0.4-0.2c0.3-0.1,0.6-0.3,0.9-0.4
		c0.3-0.1,0.6-0.2,0.9-0.3c0.2,0,0.3-0.1,0.5-0.1c0.4-0.1,0.8-0.2,1.2-0.2c0.1,0,0.1,0,0.2,0c0.4-0.1,0.9-0.1,1.4-0.1
		c0.1,0,0.2,0,0.2,0l0.1,0c0.1,0,0.2,0,0.3,0c2.1,0,4.2,0.5,6.1,1.4c0.3,0.1,0.6,0.2,0.9,0.3c0.1,0,0.3,0.1,0.4,0.1
		c0.2,0.1,0.3,0.1,0.5,0.1c0.2,0,0.3,0.1,0.5,0.1c0.2,0,0.4,0.1,0.6,0.1v0c0.1,0,0.1,0,0.2,0c0.1,0,0.2,0,0.3,0
		c0.3,0,0.6,0.1,0.9,0.1l0.6,0c0,0,0,0,0,0s0,0,0,0c0,0,0,0,0,0h0c0,0,0,0,0,0c0,0,0,0,0,0c0,0,0,0,0,0h0c0,0,0,0,0,0l0.1,0
		c1.6,0,3.1-0.3,4.6-1c1.8-0.8,3.7-1.3,5.6-1.4c0.2,0,0.4,0,0.5,0c2.1,0,4.3,0.5,6.3,1.4c1.5,0.6,3.1,1,4.6,1c0,0,0,0,0,0
		c0,0,0,0,0,0c0.3,0,0.5,0,0.8,0c0,0,0.1,0,0.1,0c0.1,0,0.2,0,0.4,0v0c1.2-0.1,2.4-0.4,3.5-0.9c1.7-0.8,3.6-1.3,5.5-1.3l0.3,0
		c0.1,0,0.3,0,0.4,0c0.3,0,0.5,0,0.8,0c0.2,0,0.3,0,0.5,0c0.2,0,0.4,0,0.6,0.1c0,0,0.1,0,0.1,0c0.1,0,0.3,0,0.4,0.1
		c0.3,0,0.5,0.1,0.8,0.2c0.1,0,0.2,0,0.2,0.1c0.8,0.2,1.7,0.5,2.7,1c1.1,0.5,2.4,0.8,3.6,0.9c0,0,0.1,0,0.1,0c0.2,0,0.3,0,0.5,0
		l0.5,0c0,0,0,0,0,0c0,0,0,0,0,0h0c0,0,0,0,0,0l0.1,0c0,0,0,0,0,0l0.1,0c0,0,0,0,0,0s0,0,0,0s0,0,0,0h0c0.2,0,0.3,0,0.4,0
		c0,0,0.1,0,0.1,0c0.2,0,0.4,0,0.6,0c0.1,0,0.1,0,0.2,0c1.1-0.1,2.2-0.4,3.3-0.9c1-0.4,2-0.8,3-1c0.3-0.1,0.7-0.1,1-0.2
		c0,0,0.1,0,0.1,0c0.5-0.1,0.9-0.1,1.4-0.1l0.3,0c0.1,0,0.2,0,0.4,0c2.1,0,4.3,0.5,6.2,1.4c0.8,0.3,1.5,0.6,2.3,0.7v0
		c0.7,0.1,1.4,0.2,2,0.3l0.5,0c0,0,0,0,0,0c0,0,0,0,0,0h0c0.2,0,0.4,0,0.6,0c0.2,0,0.4,0,0.6,0c0.1,0,0.1,0,0.2,0
		c1.1-0.1,2.2-0.4,3.3-0.9c0.9-0.4,1.9-0.8,2.9-1c0.2-0.1,0.5-0.1,0.7-0.1c0.2,0,0.4-0.1,0.6-0.1c0.4-0.1,0.8-0.1,1.2-0.1
		c0.2,0,0.4,0,0.5,0c0.1,0,0.2,0,0.2,0c0,0,0,0,0,0c0,0,0,0,0,0c0,0,0.1,0,0.1,0c0.5,0,0.9,0,1.4,0.1c0.1,0,0.2,0,0.4,0
		c0.4,0,0.7,0.1,1.1,0.2c0.1,0,0.3,0,0.4,0.1c0,0,0.1,0,0.1,0c1,0.2,2,0.6,2.9,1c1.5,0.6,3.1,1,4.6,1c0.6,0,1.3-0.1,1.9-0.2
		c0,0,0.1,0,0.1,0c0.9-0.2,1.8-0.4,2.7-0.8c0.1-0.1,0.3-0.1,0.4-0.2c0.3-0.1,0.6-0.3,0.9-0.4c0.3-0.1,0.6-0.2,0.9-0.3
		c0.2,0,0.3-0.1,0.5-0.1c0.4-0.1,0.8-0.2,1.2-0.2c0.1,0,0.1,0,0.2,0c0.4-0.1,0.9-0.1,1.4-0.1c0.1,0,0.2,0,0.2,0l0.1,0
		c0.1,0,0.3,0,0.4,0c0,0,0,0,0,0c0.5,0,0.9,0,1.4,0.1c0.2,0,0.4,0,0.6,0.1c0.1,0,0.2,0,0.3,0c0.3,0.1,0.7,0.1,1,0.2
		c0.1,0,0.2,0,0.2,0.1c0.8,0.2,1.7,0.5,2.7,1c1.1,0.5,2.4,0.8,3.6,0.9c0,0,0.1,0,0.1,0c0.2,0,0.3,0,0.5,0l0.5,0c0,0,0,0,0,0
		c0,0,0,0,0,0h0c0,0,0,0,0,0l0.1,0c1.6,0,3.1-0.3,4.6-1c1.8-0.8,3.7-1.3,5.6-1.4c0.2,0,0.4,0,0.6,0c2.1,0,4.3,0.5,6.3,1.4
		c1.5,0.6,3.1,1,4.6,1c0.4,0,0.8,0,1.2-0.1v0c1.2-0.1,2.4-0.4,3.5-0.9c1.7-0.8,3.6-1.3,5.5-1.3l0.3,0c0.1,0,0.3,0,0.4,0c0,0,0,0,0,0
		c2.1,0,4.2,0.5,6.2,1.4c0.3,0.1,0.6,0.2,0.9,0.3c0.1,0,0.3,0.1,0.4,0.1c0.2,0.1,0.3,0.1,0.5,0.1c0.2,0,0.3,0.1,0.5,0.1
		c0.2,0,0.4,0.1,0.6,0.1v0c0.1,0,0.1,0,0.2,0c0.1,0,0.2,0,0.3,0c0.3,0,0.6,0.1,0.9,0.1l0.6,0c0,0,0,0,0,0s0,0,0,0s0,0,0,0h0
		c0.2,0,0.4,0,0.6,0c0.2,0,0.4,0,0.6,0c0.1,0,0.1,0,0.2,0c1.1-0.1,2.2-0.4,3.3-0.9c1-0.4,2-0.8,3-1c0.3-0.1,0.6-0.1,0.9-0.2
		c0.2,0,0.3,0,0.5-0.1c0.4-0.1,0.8-0.1,1.1-0.1c0.2,0,0.5,0,0.7,0c2.1,0,4.3,0.5,6.3,1.4c1.5,0.6,3.1,1,4.6,1c0.6,0,1.3-0.1,1.9-0.2
		c0,0,0.1,0,0.1,0c0.9-0.2,1.8-0.4,2.7-0.8c0.1-0.1,0.3-0.1,0.4-0.2c0.3-0.1,0.6-0.3,0.9-0.4c0.3-0.1,0.6-0.2,0.9-0.3
		c0.2,0,0.3-0.1,0.5-0.1c0.4-0.1,0.8-0.2,1.2-0.2c0.1,0,0.1,0,0.2,0c0.5-0.1,0.9-0.1,1.4-0.1c0.1,0,0.2,0,0.2,0l0.1,0
		c0.1,0,0.3,0,0.4,0c0,0,0,0,0,0c0.5,0,0.9,0,1.4,0.1c0.2,0,0.4,0,0.6,0.1c0.1,0,0.2,0,0.3,0c0.3,0.1,0.7,0.1,1,0.2
		c0.1,0,0.2,0,0.2,0.1c0.1,0,0.1,0,0.2,0l2.1-3.6C424.9,30.7,424.6,30.6,424.4,30.5z"/>
</g>
</svg>
