<?xml version="1.0" encoding="utf-8"?>
<!DOCTYPE svg PUBLIC "-//W3C//DTD SVG 1.1//EN" "http://www.w3.org/Graphics/SVG/1.1/DTD/svg11.dtd">
<svg version="1.1" xmlns="http://www.w3.org/2000/svg" xmlns:xlink="http://www.w3.org/1999/xlink" x="0px" y="0px" width="476px"
	 height="312px" viewBox="0 0 476 312" enable-background="new 0 0 476 312" xml:space="preserve">
<g>
	<g>
		<rect x="4" y="233.5" fill="#8C8083" width="466.5" height="80.1"/>
		<polygon fill="#8C8083" points="423.2,4 329.5,167 341.5,166.5 433.5,10 		"/>
		<polygon fill="#8C8083" points="52.1,3.3 143.2,167.8 131.2,167.1 41.7,9.2 		"/>
		<g>
			<line fill="none" stroke="#0F0F0F" stroke-width="1.3997" stroke-miterlimit="10" x1="112.4" y1="133.6" x2="116.9" y2="141.4"/>
			<line fill="none" stroke="#0F0F0F" stroke-width="1.3997" stroke-miterlimit="10" x1="103.5" y1="117.9" x2="108" y2="125.8"/>
			<line fill="none" stroke="#0F0F0F" stroke-width="1.3997" stroke-miterlimit="10" x1="108" y1="125.8" x2="112.4" y2="133.6"/>
			<line fill="none" stroke="#0F0F0F" stroke-width="1.3997" stroke-miterlimit="10" x1="99.1" y1="110.1" x2="103.5" y2="117.9"/>
			<line fill="none" stroke="#0F0F0F" stroke-width="1.3997" stroke-miterlimit="10" x1="16.6" y1="133.6" x2="16.6" y2="125.8"/>
			<line fill="none" stroke="#0F0F0F" stroke-width="1.3997" stroke-miterlimit="10" x1="16.6" y1="117.9" x2="16.6" y2="110.1"/>
			<line fill="none" stroke="#0F0F0F" stroke-width="1.3997" stroke-miterlimit="10" x1="94.7" y1="102.3" x2="99.1" y2="110.1"/>
			<line fill="none" stroke="#0F0F0F" stroke-width="1.3997" stroke-miterlimit="10" x1="116.9" y1="141.4" x2="121.3" y2="149.2"/>
			<line fill="none" stroke="#0F0F0F" stroke-width="1.3997" stroke-miterlimit="10" x1="343.1" y1="164.8" x2="347.6" y2="157"/>
			<line fill="none" stroke="#0F0F0F" stroke-width="1.3997" stroke-miterlimit="10" x1="347.6" y1="157" x2="352.1" y2="149.2"/>
			<line fill="none" stroke="#0F0F0F" stroke-width="1.3997" stroke-miterlimit="10" x1="352.1" y1="149.2" x2="356.7" y2="141.4"/>
			<line fill="none" stroke="#0F0F0F" stroke-width="1.3997" stroke-miterlimit="10" x1="125.8" y1="157" x2="130.2" y2="164.8"/>
			<line fill="none" stroke="#0F0F0F" stroke-width="1.3997" stroke-miterlimit="10" x1="121.3" y1="149.2" x2="125.8" y2="157"/>
			<line fill="none" stroke="#0F0F0F" stroke-width="1.3997" stroke-miterlimit="10" x1="16.6" y1="149.2" x2="16.6" y2="141.4"/>
			<polyline fill="none" stroke="#0F0F0F" stroke-width="1.3997" stroke-miterlimit="10" points="130.2,164.8 132.8,169.5 
				340.4,169.5 343.1,164.8 			"/>
			<line fill="none" stroke="#0F0F0F" stroke-width="1.3997" stroke-miterlimit="10" x1="458.2" y1="125.8" x2="458.2" y2="133.6"/>
			<line fill="none" stroke="#0F0F0F" stroke-width="1.3997" stroke-miterlimit="10" x1="458.2" y1="141.4" x2="458.2" y2="149.2"/>
			<line fill="none" stroke="#0F0F0F" stroke-width="1.3997" stroke-miterlimit="10" x1="458.2" y1="157" x2="458.1" y2="164.8"/>
			<line fill="none" stroke="#0F0F0F" stroke-width="1.3997" stroke-miterlimit="10" x1="458.1" y1="172.7" x2="458.1" y2="180.5"/>
			<line fill="none" stroke="#0F0F0F" stroke-width="1.3997" stroke-miterlimit="10" x1="356.7" y1="141.4" x2="361.2" y2="133.6"/>
			<line fill="none" stroke="#0F0F0F" stroke-width="1.3997" stroke-miterlimit="10" x1="458.3" y1="94.5" x2="458.3" y2="102.3"/>
			<line fill="none" stroke="#0F0F0F" stroke-width="1.3997" stroke-miterlimit="10" x1="16.6" y1="164.8" x2="16.6" y2="157"/>
			<line fill="none" stroke="#0F0F0F" stroke-width="1.3997" stroke-miterlimit="10" x1="458.3" y1="110.1" x2="458.2" y2="117.9"/>
			<line fill="none" stroke="#0F0F0F" stroke-width="1.3997" stroke-miterlimit="10" x1="458.1" y1="188.3" x2="458.1" y2="196.1"/>
			<line fill="none" stroke="#0F0F0F" stroke-width="1.3997" stroke-miterlimit="10" x1="16.6" y1="196.1" x2="16.6" y2="188.3"/>
			<line fill="none" stroke="#0F0F0F" stroke-width="1.3997" stroke-miterlimit="10" x1="16.6" y1="211.7" x2="16.6" y2="203.9"/>
			<line fill="none" stroke="#0F0F0F" stroke-width="1.3997" stroke-miterlimit="10" x1="16.6" y1="180.5" x2="16.6" y2="172.7"/>
			<line fill="none" stroke="#0F0F0F" stroke-width="1.3997" stroke-miterlimit="10" x1="458" y1="219.6" x2="458" y2="227.4"/>
			<line fill="none" stroke="#0F0F0F" stroke-width="1.3997" stroke-miterlimit="10" x1="458" y1="203.9" x2="458" y2="211.7"/>
			<line fill="none" stroke="#0F0F0F" stroke-width="1.3997" stroke-miterlimit="10" x1="16.6" y1="227.4" x2="16.6" y2="219.6"/>
			<line fill="none" stroke="#0F0F0F" stroke-width="1.3997" stroke-miterlimit="10" x1="16.6" y1="180.5" x2="16.6" y2="188.3"/>
			<line fill="none" stroke="#0F0F0F" stroke-width="1.3997" stroke-miterlimit="10" x1="16.6" y1="164.8" x2="16.6" y2="172.7"/>
			<line fill="none" stroke="#0F0F0F" stroke-width="1.3997" stroke-miterlimit="10" x1="16.6" y1="211.7" x2="16.6" y2="219.6"/>
			<line fill="none" stroke="#0F0F0F" stroke-width="1.3997" stroke-miterlimit="10" x1="16.6" y1="94.5" x2="16.6" y2="102.3"/>
			<line fill="none" stroke="#0F0F0F" stroke-width="1.3997" stroke-miterlimit="10" x1="374.8" y1="110.1" x2="379.3" y2="102.3"/>
			<line fill="none" stroke="#0F0F0F" stroke-width="1.3997" stroke-miterlimit="10" x1="383.8" y1="94.5" x2="379.3" y2="102.3"/>
			<line fill="none" stroke="#0F0F0F" stroke-width="1.3997" stroke-miterlimit="10" x1="458" y1="219.6" x2="458" y2="211.7"/>
			<polyline fill="none" stroke="#0F0F0F" stroke-width="1.3997" stroke-miterlimit="10" points="16.6,227.4 16.6,234.1 458,234.1 
				458,227.4 			"/>
			<line fill="none" stroke="#0F0F0F" stroke-width="1.3997" stroke-miterlimit="10" x1="16.6" y1="149.2" x2="16.6" y2="157"/>
			<line fill="none" stroke="#0F0F0F" stroke-width="1.3997" stroke-miterlimit="10" x1="16.6" y1="133.6" x2="16.6" y2="141.4"/>
			<line fill="none" stroke="#0F0F0F" stroke-width="1.3997" stroke-miterlimit="10" x1="16.6" y1="117.9" x2="16.6" y2="125.8"/>
			<line fill="none" stroke="#0F0F0F" stroke-width="1.3997" stroke-miterlimit="10" x1="16.6" y1="196.1" x2="16.6" y2="203.9"/>
			<line fill="none" stroke="#0F0F0F" stroke-width="1.3997" stroke-miterlimit="10" x1="16.6" y1="102.3" x2="16.6" y2="110.1"/>
			<line fill="none" stroke="#0F0F0F" stroke-width="1.3997" stroke-miterlimit="10" x1="90.2" y1="94.5" x2="94.7" y2="102.3"/>
			<line fill="none" stroke="#0F0F0F" stroke-width="1.3997" stroke-miterlimit="10" x1="458.3" y1="110.1" x2="458.3" y2="102.3"/>
			<line fill="none" stroke="#0F0F0F" stroke-width="1.3997" stroke-miterlimit="10" x1="458.2" y1="157" x2="458.2" y2="149.2"/>
			<line fill="none" stroke="#0F0F0F" stroke-width="1.3997" stroke-miterlimit="10" x1="458.2" y1="141.4" x2="458.2" y2="133.6"/>
			<polyline fill="none" stroke="#0F0F0F" stroke-width="1.3997" stroke-miterlimit="10" points="90.2,94.5 44.5,14 16.6,14 
				16.6,94.5 			"/>
			<line fill="none" stroke="#0F0F0F" stroke-width="1.3997" stroke-miterlimit="10" x1="458.2" y1="125.8" x2="458.2" y2="117.9"/>
			<line fill="none" stroke="#0F0F0F" stroke-width="1.3997" stroke-miterlimit="10" x1="365.7" y1="125.8" x2="370.2" y2="117.9"/>
			<polyline fill="none" stroke="#0F0F0F" stroke-width="1.3997" stroke-miterlimit="10" points="458.3,94.5 458.5,14 430.3,14 
				383.8,94.5 			"/>
			<line fill="none" stroke="#0F0F0F" stroke-width="1.3997" stroke-miterlimit="10" x1="458" y1="203.9" x2="458.1" y2="196.1"/>
			<line fill="none" stroke="#0F0F0F" stroke-width="1.3997" stroke-miterlimit="10" x1="458.1" y1="188.3" x2="458.1" y2="180.5"/>
			<line fill="none" stroke="#0F0F0F" stroke-width="1.3997" stroke-miterlimit="10" x1="370.2" y1="117.9" x2="374.8" y2="110.1"/>
			<line fill="none" stroke="#0F0F0F" stroke-width="1.3997" stroke-miterlimit="10" x1="458.1" y1="172.7" x2="458.1" y2="164.8"/>
			<line fill="none" stroke="#0F0F0F" stroke-width="1.3997" stroke-miterlimit="10" x1="361.2" y1="133.6" x2="365.7" y2="125.8"/>
		</g>
		<polyline fill="none" stroke="#000000" stroke-width="6" points="145.3,169.5 51.5,4 4,4 4,247.1 471,247.1 471,4 423.2,4 
			329.1,169.5 		"/>
		<g>
			<polygon fill="#8C8083" stroke="#0F0F0F" stroke-width="3" stroke-miterlimit="10" points="130,164.8 344.4,164.8 344.4,196.1 
				130.1,196.1 			"/>
			<line fill="none" stroke="#0F0F0F" stroke-width="3" stroke-miterlimit="10" x1="130" y1="172.7" x2="343.9" y2="172.7"/>
			<line fill="none" stroke="#0F0F0F" stroke-width="3" stroke-miterlimit="10" x1="130" y1="180.5" x2="343.9" y2="180.5"/>
			<line fill="none" stroke="#0F0F0F" stroke-width="3" stroke-miterlimit="10" x1="130" y1="188.1" x2="343.9" y2="188.1"/>
			<line fill="none" stroke="#0F0F0F" stroke-width="2.9658" stroke-miterlimit="10" x1="150.4" y1="164.8" x2="150.4" y2="196.1"/>
			<line fill="none" stroke="#0F0F0F" stroke-width="2.9658" stroke-miterlimit="10" x1="145.3" y1="164.8" x2="145.3" y2="196.1"/>
			<line fill="none" stroke="#0F0F0F" stroke-width="2.9658" stroke-miterlimit="10" x1="140.2" y1="164.8" x2="140.2" y2="196.1"/>
			<line fill="none" stroke="#0F0F0F" stroke-width="2.9658" stroke-miterlimit="10" x1="135.1" y1="164.8" x2="135.1" y2="196.1"/>
			<line fill="none" stroke="#0F0F0F" stroke-width="2.9658" stroke-miterlimit="10" x1="155.5" y1="164.8" x2="155.5" y2="196.1"/>
			<line fill="none" stroke="#0F0F0F" stroke-width="2.9658" stroke-miterlimit="10" x1="165.7" y1="164.8" x2="165.7" y2="196.1"/>
			<line fill="none" stroke="#0F0F0F" stroke-width="2.9658" stroke-miterlimit="10" x1="175.9" y1="164.8" x2="175.9" y2="196.1"/>
			<line fill="none" stroke="#0F0F0F" stroke-width="2.9658" stroke-miterlimit="10" x1="186.2" y1="164.8" x2="186.2" y2="196.1"/>
			<line fill="none" stroke="#0F0F0F" stroke-width="2.9658" stroke-miterlimit="10" x1="196.4" y1="164.8" x2="196.4" y2="196.1"/>
			<line fill="none" stroke="#0F0F0F" stroke-width="2.9658" stroke-miterlimit="10" x1="206.6" y1="164.8" x2="206.6" y2="196.1"/>
			<line fill="none" stroke="#0F0F0F" stroke-width="2.9658" stroke-miterlimit="10" x1="216.8" y1="164.8" x2="216.8" y2="196.1"/>
			<line fill="none" stroke="#0F0F0F" stroke-width="2.9658" stroke-miterlimit="10" x1="227" y1="164.8" x2="227" y2="196.1"/>
			<line fill="none" stroke="#0F0F0F" stroke-width="2.9658" stroke-miterlimit="10" x1="237.2" y1="164.8" x2="237.2" y2="196.1"/>
			<line fill="none" stroke="#0F0F0F" stroke-width="2.9658" stroke-miterlimit="10" x1="247.4" y1="164.8" x2="247.4" y2="196.1"/>
			<line fill="none" stroke="#0F0F0F" stroke-width="2.9658" stroke-miterlimit="10" x1="257.6" y1="164.8" x2="257.6" y2="196.1"/>
			<line fill="none" stroke="#0F0F0F" stroke-width="2.9658" stroke-miterlimit="10" x1="267.8" y1="164.8" x2="267.8" y2="196.1"/>
			<line fill="none" stroke="#0F0F0F" stroke-width="2.9658" stroke-miterlimit="10" x1="278.1" y1="164.8" x2="278.1" y2="196.1"/>
			<line fill="none" stroke="#0F0F0F" stroke-width="2.9658" stroke-miterlimit="10" x1="288.3" y1="164.8" x2="288.3" y2="196.1"/>
			<line fill="none" stroke="#0F0F0F" stroke-width="2.9658" stroke-miterlimit="10" x1="298.5" y1="164.8" x2="298.5" y2="196.1"/>
			<line fill="none" stroke="#0F0F0F" stroke-width="2.9658" stroke-miterlimit="10" x1="308.7" y1="164.8" x2="308.7" y2="196.1"/>
			<line fill="none" stroke="#0F0F0F" stroke-width="2.9658" stroke-miterlimit="10" x1="318.9" y1="164.8" x2="318.9" y2="196.1"/>
			<line fill="none" stroke="#0F0F0F" stroke-width="2.9658" stroke-miterlimit="10" x1="160.6" y1="164.8" x2="160.6" y2="196.1"/>
			<line fill="none" stroke="#0F0F0F" stroke-width="2.9658" stroke-miterlimit="10" x1="170.8" y1="164.8" x2="170.8" y2="196.1"/>
			<line fill="none" stroke="#0F0F0F" stroke-width="2.9658" stroke-miterlimit="10" x1="181.1" y1="164.8" x2="181.1" y2="196.1"/>
			<line fill="none" stroke="#0F0F0F" stroke-width="2.9658" stroke-miterlimit="10" x1="191.3" y1="164.8" x2="191.3" y2="196.1"/>
			<line fill="none" stroke="#0F0F0F" stroke-width="2.9658" stroke-miterlimit="10" x1="201.5" y1="164.8" x2="201.5" y2="196.1"/>
			<line fill="none" stroke="#0F0F0F" stroke-width="2.9658" stroke-miterlimit="10" x1="211.7" y1="164.8" x2="211.7" y2="196.1"/>
			<line fill="none" stroke="#0F0F0F" stroke-width="2.9658" stroke-miterlimit="10" x1="221.9" y1="164.8" x2="221.9" y2="196.1"/>
			<line fill="none" stroke="#0F0F0F" stroke-width="2.9658" stroke-miterlimit="10" x1="232.1" y1="164.8" x2="232.1" y2="196.1"/>
			<line fill="none" stroke="#0F0F0F" stroke-width="2.9658" stroke-miterlimit="10" x1="242.3" y1="164.8" x2="242.3" y2="196.1"/>
			<line fill="none" stroke="#0F0F0F" stroke-width="2.9658" stroke-miterlimit="10" x1="252.5" y1="164.8" x2="252.5" y2="196.1"/>
			<line fill="none" stroke="#0F0F0F" stroke-width="2.9658" stroke-miterlimit="10" x1="262.7" y1="164.8" x2="262.7" y2="196.1"/>
			<line fill="none" stroke="#0F0F0F" stroke-width="2.9658" stroke-miterlimit="10" x1="272.9" y1="164.8" x2="272.9" y2="196.1"/>
			<line fill="none" stroke="#0F0F0F" stroke-width="2.9658" stroke-miterlimit="10" x1="283.2" y1="164.8" x2="283.2" y2="196.1"/>
			<line fill="none" stroke="#0F0F0F" stroke-width="2.9658" stroke-miterlimit="10" x1="293.4" y1="164.8" x2="293.4" y2="196.1"/>
			<line fill="none" stroke="#0F0F0F" stroke-width="2.9658" stroke-miterlimit="10" x1="303.6" y1="164.8" x2="303.6" y2="196.1"/>
			<line fill="none" stroke="#0F0F0F" stroke-width="2.9658" stroke-miterlimit="10" x1="313.8" y1="164.8" x2="313.8" y2="196.1"/>
			<line fill="none" stroke="#0F0F0F" stroke-width="2.9658" stroke-miterlimit="10" x1="324" y1="164.8" x2="324" y2="196.1"/>
			<line fill="none" stroke="#0F0F0F" stroke-width="2.9658" stroke-miterlimit="10" x1="329.1" y1="196.1" x2="329.1" y2="164.8"/>
			<line fill="none" stroke="#0F0F0F" stroke-width="2.9658" stroke-miterlimit="10" x1="334.2" y1="164.8" x2="334.2" y2="196.1"/>
			<line fill="none" stroke="#0F0F0F" stroke-width="2.9658" stroke-miterlimit="10" x1="339.3" y1="164.8" x2="339.3" y2="196.1"/>
		</g>
	</g>
</g>
</svg>
