<?xml version="1.0" encoding="utf-8"?>
<!DOCTYPE svg PUBLIC "-//W3C//DTD SVG 1.1//EN" "http://www.w3.org/Graphics/SVG/1.1/DTD/svg11.dtd">
<svg version="1.1" xmlns="http://www.w3.org/2000/svg" xmlns:xlink="http://www.w3.org/1999/xlink" x="0px" y="0px" width="451px"
	 height="202px" viewBox="0 0 451 202" enable-background="new 0 0 451 202" xml:space="preserve">
<g>
	<g>
		<path fill="#000000" d="M418.6,18.1l-33,49.2c0.8,0.5,1.7,1.1,2.5,1.6L414,30.4c15.7,10.6,23.1,22.3,23.1,34.8
			c0,22-26.7,42.8-63.3,49.3l-25.4,50.8c-5.7,2.7-11.8,3.9-18,4c-18,0.3-33-11.8-33-11.8l-14.5-39.6l-3.4-15
			c-15.9-8.9-30.2-27.7-30.2-38.9c0-22.4,30.6-42.6,72.9-51.2L336,56.3c1-0.1,2-0.2,3.1-0.2L321.6,0C271.2,9.3,237,34.6,237,64.1
			c0,12.2,10.6,28.5,23.5,40.6l18.7,73.5l0.2,0.3c16,17.9,32.7,21.3,57.9,21.3c43.8,0,61.3-20.9,62-21.8l0.2-0.2l27.8-74.5
			c1.7-1.4,3.3-2.8,4.8-4.2c10.7-9.9,17.2-21.5,17.2-33.8C449.3,47.9,439.3,31.3,418.6,18.1z M396.9,176.3
			c-1.8,2-19.3,20.5-59.6,20.5c-24.8,0-40.2-3.1-55.4-20l-17.4-68.6c5.1,4.3,10.4,7.9,15.4,10.3l15.3,40.9c0,0,15.5,12.8,34.9,12.9
			c0.1,0,0.1,0,0.2,0c0,0,0,0,0,0c6.8,0,13.5-1.5,19.7-4.5l0.5-0.2l20.6-41c5.8-1,11.4-2.4,16.8-4c13.6-3.8,25.4-9.3,35-16
			L396.9,176.3z"/>
		<path fill="#000000" d="M181.6,18.1l-33,49.2c0.8,0.5,1.7,1.1,2.5,1.6L177,30.4c15.7,10.6,23.1,22.3,23.1,34.8
			c0,22-26.7,42.8-63.3,49.3l-25.4,50.8c-5.7,2.7-11.8,3.9-18,4c-18,0.3-33-11.8-33-11.8l-14.5-39.6l-3.4-15
			c-15.9-8.9-30.2-27.7-30.2-38.9c0-22.4,30.6-42.6,72.9-51.2L99,56.3c1-0.1,2-0.2,3.1-0.2L84.6,0C34.2,9.3,0,34.6,0,64.1
			c0,12.2,10.6,28.5,23.5,40.6l18.7,73.5l0.2,0.3c16,17.9,32.6,21.3,57.9,21.3c43.8,0,61.3-20.9,62-21.8l0.2-0.2l27.9-74.5
			c1.7-1.4,3.3-2.8,4.8-4.2c10.7-9.9,17.2-21.5,17.2-33.8C212.3,47.9,202.2,31.3,181.6,18.1z M159.9,176.3
			c-1.8,2-19.3,20.5-59.6,20.5c-24.8,0-40.2-3.1-55.4-20l-17.4-68.6c5.1,4.3,10.4,7.9,15.4,10.3l15.3,40.9c0,0,15.5,12.8,34.9,12.9
			c0.1,0,0.1,0,0.2,0c0,0,0,0,0,0c6.8,0,13.5-1.5,19.7-4.5l0.5-0.2l20.6-41c5.8-1,11.4-2.4,16.8-4c13.6-3.8,25.4-9.3,35-16
			L159.9,176.3z"/>
	</g>
</g>
</svg>
