<?xml version="1.0" encoding="utf-8"?>
<!DOCTYPE svg PUBLIC "-//W3C//DTD SVG 1.1//EN" "http://www.w3.org/Graphics/SVG/1.1/DTD/svg11.dtd">
<svg version="1.1" xmlns="http://www.w3.org/2000/svg" xmlns:xlink="http://www.w3.org/1999/xlink" x="0px" y="0px" width="595px"
	 height="90px" viewBox="0 0 595 90" enable-background="new 0 0 595 90" xml:space="preserve">
<g>
	<g>
		<g>
			<path fill="#8A7F81" stroke="#0F0F0F" stroke-width="0.5672" stroke-miterlimit="10" d="M568.4,77.6c1.7-1.3,4.1-1,5.4,0.7
				c1.3,1.7,1,4.1-0.7,5.4c-1.7,1.3-4.1,1-5.4-0.7C566.5,81.3,566.8,78.9,568.4,77.6z"/>
			<path fill="none" stroke="#0F0F0F" stroke-width="0.5672" stroke-miterlimit="10" d="M569.1,78.4c1.2-0.9,3-0.7,3.9,0.5
				c0.9,1.2,0.7,3-0.5,3.9c-1.2,0.9-3,0.7-3.9-0.5C567.6,81.1,567.8,79.3,569.1,78.4z"/>
			<circle fill="#0F0F0F" stroke="#0F0F0F" stroke-width="0.7164" stroke-miterlimit="10" cx="570.8" cy="80.6" r="1.1"/>
		</g>
		<g>
			<path fill="#8A7F81" stroke="#0F0F0F" stroke-width="0.5672" stroke-miterlimit="10" d="M576.1,77.6c1.7-1.3,4.1-1,5.4,0.7
				c1.3,1.7,1,4.1-0.7,5.4c-1.7,1.3-4.1,1-5.4-0.7C574.1,81.3,574.4,78.9,576.1,77.6z"/>
			<path fill="none" stroke="#0F0F0F" stroke-width="0.5672" stroke-miterlimit="10" d="M576.7,78.4c1.2-0.9,3-0.7,3.9,0.5
				c0.9,1.2,0.7,3-0.5,3.9c-1.2,0.9-3,0.7-3.9-0.5C575.3,81.1,575.5,79.3,576.7,78.4z"/>
			<circle fill="#0F0F0F" stroke="#0F0F0F" stroke-width="0.7164" stroke-miterlimit="10" cx="578.4" cy="80.6" r="1.1"/>
		</g>
		<g>
			<path fill="#8A7F81" stroke="#0F0F0F" stroke-width="0.5672" stroke-miterlimit="10" d="M583.7,77.6c1.7-1.3,4.1-1,5.4,0.7
				c1.3,1.7,1,4.1-0.7,5.4c-1.7,1.3-4.1,1-5.4-0.7C581.8,81.3,582.1,78.9,583.7,77.6z"/>
			<path fill="none" stroke="#0F0F0F" stroke-width="0.5672" stroke-miterlimit="10" d="M584.4,78.4c1.2-0.9,3-0.7,3.9,0.5
				c0.9,1.2,0.7,3-0.5,3.9c-1.2,0.9-3,0.7-3.9-0.5C582.9,81.1,583.2,79.3,584.4,78.4z"/>
			<circle fill="#0F0F0F" stroke="#0F0F0F" stroke-width="0.7164" stroke-miterlimit="10" cx="586.1" cy="80.6" r="1.1"/>
		</g>
		<g>
			<path fill="#8A7F81" stroke="#0F0F0F" stroke-width="0.5672" stroke-miterlimit="10" d="M560.8,77.6c1.7-1.3,4.1-1,5.4,0.7
				c1.3,1.7,1,4.1-0.7,5.4c-1.7,1.3-4.1,1-5.4-0.7C558.8,81.3,559.1,78.9,560.8,77.6z"/>
			<path fill="none" stroke="#0F0F0F" stroke-width="0.5672" stroke-miterlimit="10" d="M561.4,78.4c1.2-0.9,3-0.7,3.9,0.5
				c0.9,1.2,0.7,3-0.5,3.9c-1.2,0.9-3,0.7-3.9-0.5C560,81.1,560.2,79.3,561.4,78.4z"/>
			<circle fill="#0F0F0F" stroke="#0F0F0F" stroke-width="0.7164" stroke-miterlimit="10" cx="563.1" cy="80.6" r="1.1"/>
		</g>
		<g>
			<path fill="#8A7F81" stroke="#0F0F0F" stroke-width="0.5672" stroke-miterlimit="10" d="M554.1,77.6c1.7-1.3,4.1-1,5.4,0.7
				c1.3,1.7,1,4.1-0.7,5.4c-1.7,1.3-4.1,1-5.4-0.7C552.1,81.3,552.4,78.9,554.1,77.6z"/>
			<path fill="none" stroke="#0F0F0F" stroke-width="0.5672" stroke-miterlimit="10" d="M554.7,78.4c1.2-0.9,3-0.7,3.9,0.5
				c0.9,1.2,0.7,3-0.5,3.9c-1.2,0.9-3,0.7-3.9-0.5C553.3,81.1,553.5,79.3,554.7,78.4z"/>
			<circle fill="#0F0F0F" stroke="#0F0F0F" stroke-width="0.7164" stroke-miterlimit="10" cx="556.5" cy="80.6" r="1.1"/>
		</g>
		<g>
			<path fill="#8A7F81" stroke="#0F0F0F" stroke-width="0.5672" stroke-miterlimit="10" d="M546.5,77.6c1.7-1.3,4.1-1,5.4,0.7
				c1.3,1.7,1,4.1-0.7,5.4c-1.7,1.3-4.1,1-5.4-0.7C544.5,81.3,544.8,78.9,546.5,77.6z"/>
			<path fill="none" stroke="#0F0F0F" stroke-width="0.5672" stroke-miterlimit="10" d="M547.1,78.4c1.2-0.9,3-0.7,3.9,0.5
				c0.9,1.2,0.7,3-0.5,3.9c-1.2,0.9-3,0.7-3.9-0.5C545.6,81.1,545.9,79.3,547.1,78.4z"/>
			<circle fill="#0F0F0F" stroke="#0F0F0F" stroke-width="0.7164" stroke-miterlimit="10" cx="548.8" cy="80.6" r="1.1"/>
		</g>
		<g>
			<path fill="#8A7F81" stroke="#0F0F0F" stroke-width="0.5672" stroke-miterlimit="10" d="M538.8,77.6c1.7-1.3,4.1-1,5.4,0.7
				c1.3,1.7,1,4.1-0.7,5.4c-1.7,1.3-4.1,1-5.4-0.7C536.8,81.3,537.1,78.9,538.8,77.6z"/>
			<path fill="none" stroke="#0F0F0F" stroke-width="0.5672" stroke-miterlimit="10" d="M539.4,78.4c1.2-0.9,3-0.7,3.9,0.5
				c0.9,1.2,0.7,3-0.5,3.9c-1.2,0.9-3,0.7-3.9-0.5C538,81.1,538.2,79.3,539.4,78.4z"/>
			<circle fill="#0F0F0F" stroke="#0F0F0F" stroke-width="0.7164" stroke-miterlimit="10" cx="541.1" cy="80.6" r="1.1"/>
		</g>
		<g>
			<path fill="#8A7F81" stroke="#0F0F0F" stroke-width="0.5672" stroke-miterlimit="10" d="M531.1,77.6c1.7-1.3,4.1-1,5.4,0.7
				c1.3,1.7,1,4.1-0.7,5.4c-1.7,1.3-4.1,1-5.4-0.7C529.2,81.3,529.5,78.9,531.1,77.6z"/>
			<path fill="none" stroke="#0F0F0F" stroke-width="0.5672" stroke-miterlimit="10" d="M531.8,78.4c1.2-0.9,3-0.7,3.9,0.5
				c0.9,1.2,0.7,3-0.5,3.9c-1.2,0.9-3,0.7-3.9-0.5C530.3,81.1,530.5,79.3,531.8,78.4z"/>
			<circle fill="#0F0F0F" stroke="#0F0F0F" stroke-width="0.7164" stroke-miterlimit="10" cx="533.5" cy="80.6" r="1.1"/>
		</g>
		<g>
			<path fill="#8A7F81" stroke="#0F0F0F" stroke-width="0.5672" stroke-miterlimit="10" d="M523.5,78.6c1.7-1.3,4.1-1,5.4,0.7
				c1.3,1.7,1,4.1-0.7,5.4c-1.7,1.3-4.1,1-5.4-0.7C521.5,82.3,521.8,79.9,523.5,78.6z"/>
			<path fill="none" stroke="#0F0F0F" stroke-width="0.5672" stroke-miterlimit="10" d="M524.1,79.4c1.2-0.9,3-0.7,3.9,0.5
				c0.9,1.2,0.7,3-0.5,3.9c-1.2,0.9-3,0.7-3.9-0.5C522.7,82.1,522.9,80.3,524.1,79.4z"/>
			<circle fill="#0F0F0F" stroke="#0F0F0F" stroke-width="0.7164" stroke-miterlimit="10" cx="525.8" cy="81.6" r="1.1"/>
		</g>
		<g>
			<path fill="#8A7F81" stroke="#0F0F0F" stroke-width="0.5672" stroke-miterlimit="10" d="M515.8,78.6c1.7-1.3,4.1-1,5.4,0.7
				c1.3,1.7,1,4.1-0.7,5.4c-1.7,1.3-4.1,1-5.4-0.7C513.8,82.3,514.1,79.9,515.8,78.6z"/>
			<path fill="none" stroke="#0F0F0F" stroke-width="0.5672" stroke-miterlimit="10" d="M516.5,79.4c1.2-0.9,3-0.7,3.9,0.5
				c0.9,1.2,0.7,3-0.5,3.9c-1.2,0.9-3,0.7-3.9-0.5C515,82.1,515.2,80.3,516.5,79.4z"/>
			<circle fill="#0F0F0F" stroke="#0F0F0F" stroke-width="0.7164" stroke-miterlimit="10" cx="518.2" cy="81.6" r="1.1"/>
		</g>
		<g>
			<path fill="#8A7F81" stroke="#0F0F0F" stroke-width="0.5672" stroke-miterlimit="10" d="M508.2,78.6c1.7-1.3,4.1-1,5.4,0.7
				c1.3,1.7,1,4.1-0.7,5.4c-1.7,1.3-4.1,1-5.4-0.7C506.2,82.3,506.5,79.9,508.2,78.6z"/>
			<path fill="none" stroke="#0F0F0F" stroke-width="0.5672" stroke-miterlimit="10" d="M508.8,79.4c1.2-0.9,3-0.7,3.9,0.5
				c0.9,1.2,0.7,3-0.5,3.9c-1.2,0.9-3,0.7-3.9-0.5C507.3,82.1,507.6,80.3,508.8,79.4z"/>
			<circle fill="#0F0F0F" stroke="#0F0F0F" stroke-width="0.7164" stroke-miterlimit="10" cx="510.5" cy="81.6" r="1.1"/>
		</g>
		<g>
			<path fill="#8A7F81" stroke="#0F0F0F" stroke-width="0.5672" stroke-miterlimit="10" d="M500.5,78.6c1.7-1.3,4.1-1,5.4,0.7
				c1.3,1.7,1,4.1-0.7,5.4c-1.7,1.3-4.1,1-5.4-0.7C498.5,82.3,498.8,79.9,500.5,78.6z"/>
			<path fill="none" stroke="#0F0F0F" stroke-width="0.5672" stroke-miterlimit="10" d="M501.1,79.4c1.2-0.9,3-0.7,3.9,0.5
				c0.9,1.2,0.7,3-0.5,3.9c-1.2,0.9-3,0.7-3.9-0.5C499.7,82.1,499.9,80.3,501.1,79.4z"/>
			<circle fill="#0F0F0F" stroke="#0F0F0F" stroke-width="0.7164" stroke-miterlimit="10" cx="502.8" cy="81.6" r="1.1"/>
		</g>
		<g>
			<path fill="#8A7F81" stroke="#0F0F0F" stroke-width="0.5672" stroke-miterlimit="10" d="M492.8,78.6c1.7-1.3,4.1-1,5.4,0.7
				c1.3,1.7,1,4.1-0.7,5.4c-1.7,1.3-4.1,1-5.4-0.7C490.9,82.3,491.2,79.9,492.8,78.6z"/>
			<path fill="none" stroke="#0F0F0F" stroke-width="0.5672" stroke-miterlimit="10" d="M493.5,79.4c1.2-0.9,3-0.7,3.9,0.5
				c0.9,1.2,0.7,3-0.5,3.9c-1.2,0.9-3,0.7-3.9-0.5C492,82.1,492.3,80.3,493.5,79.4z"/>
			<circle fill="#0F0F0F" stroke="#0F0F0F" stroke-width="0.7164" stroke-miterlimit="10" cx="495.2" cy="81.6" r="1.1"/>
		</g>
		<g>
			<path fill="#8A7F81" stroke="#0F0F0F" stroke-width="0.5672" stroke-miterlimit="10" d="M485.2,78.6c1.7-1.3,4.1-1,5.4,0.7
				c1.3,1.7,1,4.1-0.7,5.4c-1.7,1.3-4.1,1-5.4-0.7C483.2,82.3,483.5,79.9,485.2,78.6z"/>
			<path fill="none" stroke="#0F0F0F" stroke-width="0.5672" stroke-miterlimit="10" d="M485.8,79.4c1.2-0.9,3-0.7,3.9,0.5
				c0.9,1.2,0.7,3-0.5,3.9c-1.2,0.9-3,0.7-3.9-0.5C484.4,82.1,484.6,80.3,485.8,79.4z"/>
			<circle fill="#0F0F0F" stroke="#0F0F0F" stroke-width="0.7164" stroke-miterlimit="10" cx="487.5" cy="81.6" r="1.1"/>
		</g>
		<g>
			<path fill="#8A7F81" stroke="#0F0F0F" stroke-width="0.5672" stroke-miterlimit="10" d="M477.5,78.6c1.7-1.3,4.1-1,5.4,0.7
				c1.3,1.7,1,4.1-0.7,5.4c-1.7,1.3-4.1,1-5.4-0.7C475.5,82.3,475.9,79.9,477.5,78.6z"/>
			<path fill="none" stroke="#0F0F0F" stroke-width="0.5672" stroke-miterlimit="10" d="M478.2,79.4c1.2-0.9,3-0.7,3.9,0.5
				c0.9,1.2,0.7,3-0.5,3.9c-1.2,0.9-3,0.7-3.9-0.5C476.7,82.1,476.9,80.3,478.2,79.4z"/>
			<circle fill="#0F0F0F" stroke="#0F0F0F" stroke-width="0.7164" stroke-miterlimit="10" cx="479.9" cy="81.6" r="1.1"/>
		</g>
		<g>
			<path fill="#8A7F81" stroke="#0F0F0F" stroke-width="0.5672" stroke-miterlimit="10" d="M469.9,78.6c1.7-1.3,4.1-1,5.4,0.7
				c1.3,1.7,1,4.1-0.7,5.4c-1.7,1.3-4.1,1-5.4-0.7C467.9,82.3,468.2,79.9,469.9,78.6z"/>
			<path fill="none" stroke="#0F0F0F" stroke-width="0.5672" stroke-miterlimit="10" d="M470.5,79.4c1.2-0.9,3-0.7,3.9,0.5
				c0.9,1.2,0.7,3-0.5,3.9c-1.2,0.9-3,0.7-3.9-0.5C469.1,82.1,469.3,80.3,470.5,79.4z"/>
			<circle fill="#0F0F0F" stroke="#0F0F0F" stroke-width="0.7164" stroke-miterlimit="10" cx="472.2" cy="81.6" r="1.1"/>
		</g>
		<g>
			<path fill="#8A7F81" stroke="#0F0F0F" stroke-width="0.5672" stroke-miterlimit="10" d="M462.2,78.6c1.7-1.3,4.1-1,5.4,0.7
				c1.3,1.7,1,4.1-0.7,5.4c-1.7,1.3-4.1,1-5.4-0.7C460.2,82.3,460.5,79.9,462.2,78.6z"/>
			<path fill="none" stroke="#0F0F0F" stroke-width="0.5672" stroke-miterlimit="10" d="M462.8,79.4c1.2-0.9,3-0.7,3.9,0.5
				c0.9,1.2,0.7,3-0.5,3.9c-1.2,0.9-3,0.7-3.9-0.5C461.4,82.1,461.6,80.3,462.8,79.4z"/>
			<circle fill="#0F0F0F" stroke="#0F0F0F" stroke-width="0.7164" stroke-miterlimit="10" cx="464.6" cy="81.6" r="1.1"/>
		</g>
		<g>
			<path fill="#8A7F81" stroke="#0F0F0F" stroke-width="0.5672" stroke-miterlimit="10" d="M454.6,78.6c1.7-1.3,4.1-1,5.4,0.7
				c1.3,1.7,1,4.1-0.7,5.4c-1.7,1.3-4.1,1-5.4-0.7C452.6,82.3,452.9,79.9,454.6,78.6z"/>
			<path fill="none" stroke="#0F0F0F" stroke-width="0.5672" stroke-miterlimit="10" d="M455.2,79.4c1.2-0.9,3-0.7,3.9,0.5
				c0.9,1.2,0.7,3-0.5,3.9c-1.2,0.9-3,0.7-3.9-0.5C453.7,82.1,454,80.3,455.2,79.4z"/>
			<circle fill="#0F0F0F" stroke="#0F0F0F" stroke-width="0.7164" stroke-miterlimit="10" cx="456.9" cy="81.6" r="1.1"/>
		</g>
		<g>
			<path fill="#8A7F81" stroke="#0F0F0F" stroke-width="0.5672" stroke-miterlimit="10" d="M446.9,78.6c1.7-1.3,4.1-1,5.4,0.7
				c1.3,1.7,1,4.1-0.7,5.4c-1.7,1.3-4.1,1-5.4-0.7C444.9,82.3,445.2,79.9,446.9,78.6z"/>
			<path fill="none" stroke="#0F0F0F" stroke-width="0.5672" stroke-miterlimit="10" d="M447.5,79.4c1.2-0.9,3-0.7,3.9,0.5
				c0.9,1.2,0.7,3-0.5,3.9c-1.2,0.9-3,0.7-3.9-0.5C446.1,82.1,446.3,80.3,447.5,79.4z"/>
			<circle fill="#0F0F0F" stroke="#0F0F0F" stroke-width="0.7164" stroke-miterlimit="10" cx="449.2" cy="81.6" r="1.1"/>
		</g>
		<g>
			<path fill="#8A7F81" stroke="#0F0F0F" stroke-width="0.5672" stroke-miterlimit="10" d="M439.2,78.6c1.7-1.3,4.1-1,5.4,0.7
				c1.3,1.7,1,4.1-0.7,5.4c-1.7,1.3-4.1,1-5.4-0.7C437.3,82.3,437.6,79.9,439.2,78.6z"/>
			<path fill="none" stroke="#0F0F0F" stroke-width="0.5672" stroke-miterlimit="10" d="M439.9,79.4c1.2-0.9,3-0.7,3.9,0.5
				c0.9,1.2,0.7,3-0.5,3.9c-1.2,0.9-3,0.7-3.9-0.5C438.4,82.1,438.6,80.3,439.9,79.4z"/>
			<circle fill="#0F0F0F" stroke="#0F0F0F" stroke-width="0.7164" stroke-miterlimit="10" cx="441.6" cy="81.6" r="1.1"/>
		</g>
		<g>
			<path fill="#8A7F81" stroke="#0F0F0F" stroke-width="0.5672" stroke-miterlimit="10" d="M431.6,78.6c1.7-1.3,4.1-1,5.4,0.7
				c1.3,1.7,1,4.1-0.7,5.4c-1.7,1.3-4.1,1-5.4-0.7C429.6,82.3,429.9,79.9,431.6,78.6z"/>
			<path fill="none" stroke="#0F0F0F" stroke-width="0.5672" stroke-miterlimit="10" d="M432.2,79.4c1.2-0.9,3-0.7,3.9,0.5
				c0.9,1.2,0.7,3-0.5,3.9c-1.2,0.9-3,0.7-3.9-0.5C430.8,82.1,431,80.3,432.2,79.4z"/>
			<circle fill="#0F0F0F" stroke="#0F0F0F" stroke-width="0.7164" stroke-miterlimit="10" cx="433.9" cy="81.6" r="1.1"/>
		</g>
		<g>
			<path fill="#8A7F81" stroke="#0F0F0F" stroke-width="0.5672" stroke-miterlimit="10" d="M423.9,78.6c1.7-1.3,4.1-1,5.4,0.7
				c1.3,1.7,1,4.1-0.7,5.4c-1.7,1.3-4.1,1-5.4-0.7C421.9,82.3,422.2,79.9,423.9,78.6z"/>
			<path fill="none" stroke="#0F0F0F" stroke-width="0.5672" stroke-miterlimit="10" d="M424.5,79.4c1.2-0.9,3-0.7,3.9,0.5
				c0.9,1.2,0.7,3-0.5,3.9c-1.2,0.9-3,0.7-3.9-0.5C423.1,82.1,423.3,80.3,424.5,79.4z"/>
			<circle fill="#0F0F0F" stroke="#0F0F0F" stroke-width="0.7164" stroke-miterlimit="10" cx="426.3" cy="81.6" r="1.1"/>
		</g>
		<g>
			<path fill="#8A7F81" stroke="#0F0F0F" stroke-width="0.5672" stroke-miterlimit="10" d="M416.3,78.6c1.7-1.3,4.1-1,5.4,0.7
				c1.3,1.7,1,4.1-0.7,5.4c-1.7,1.3-4.1,1-5.4-0.7C414.3,82.3,414.6,79.9,416.3,78.6z"/>
			<path fill="none" stroke="#0F0F0F" stroke-width="0.5672" stroke-miterlimit="10" d="M416.9,79.4c1.2-0.9,3-0.7,3.9,0.5
				c0.9,1.2,0.7,3-0.5,3.9c-1.2,0.9-3,0.7-3.9-0.5C415.4,82.1,415.7,80.3,416.9,79.4z"/>
			<circle fill="#0F0F0F" stroke="#0F0F0F" stroke-width="0.7164" stroke-miterlimit="10" cx="418.6" cy="81.6" r="1.1"/>
		</g>
		<g>
			<path fill="#8A7F81" stroke="#0F0F0F" stroke-width="0.5672" stroke-miterlimit="10" d="M408.6,78.6c1.7-1.3,4.1-1,5.4,0.7
				c1.3,1.7,1,4.1-0.7,5.4c-1.7,1.3-4.1,1-5.4-0.7C406.6,82.3,406.9,79.9,408.6,78.6z"/>
			<path fill="none" stroke="#0F0F0F" stroke-width="0.5672" stroke-miterlimit="10" d="M409.2,79.4c1.2-0.9,3-0.7,3.9,0.5
				c0.9,1.2,0.7,3-0.5,3.9c-1.2,0.9-3,0.7-3.9-0.5C407.8,82.1,408,80.3,409.2,79.4z"/>
			<circle fill="#0F0F0F" stroke="#0F0F0F" stroke-width="0.7164" stroke-miterlimit="10" cx="410.9" cy="81.6" r="1.1"/>
		</g>
		<g>
			<path fill="#8A7F81" stroke="#0F0F0F" stroke-width="0.5672" stroke-miterlimit="10" d="M400.9,78.6c1.7-1.3,4.1-1,5.4,0.7
				c1.3,1.7,1,4.1-0.7,5.4c-1.7,1.3-4.1,1-5.4-0.7C399,82.3,399.3,79.9,400.9,78.6z"/>
			<path fill="none" stroke="#0F0F0F" stroke-width="0.5672" stroke-miterlimit="10" d="M401.6,79.4c1.2-0.9,3-0.7,3.9,0.5
				c0.9,1.2,0.7,3-0.5,3.9c-1.2,0.9-3,0.7-3.9-0.5C400.1,82.1,400.4,80.3,401.6,79.4z"/>
			<circle fill="#0F0F0F" stroke="#0F0F0F" stroke-width="0.7164" stroke-miterlimit="10" cx="403.3" cy="81.6" r="1.1"/>
		</g>
		<g>
			<path fill="#8A7F81" stroke="#0F0F0F" stroke-width="0.5672" stroke-miterlimit="10" d="M393.3,78.6c1.7-1.3,4.1-1,5.4,0.7
				c1.3,1.7,1,4.1-0.7,5.4c-1.7,1.3-4.1,1-5.4-0.7C391.3,82.3,391.6,79.9,393.3,78.6z"/>
			<path fill="none" stroke="#0F0F0F" stroke-width="0.5672" stroke-miterlimit="10" d="M393.9,79.4c1.2-0.9,3-0.7,3.9,0.5
				c0.9,1.2,0.7,3-0.5,3.9c-1.2,0.9-3,0.7-3.9-0.5C392.5,82.1,392.7,80.3,393.9,79.4z"/>
			<circle fill="#0F0F0F" stroke="#0F0F0F" stroke-width="0.7164" stroke-miterlimit="10" cx="395.6" cy="81.6" r="1.1"/>
		</g>
		<g>
			<path fill="#8A7F81" stroke="#0F0F0F" stroke-width="0.5672" stroke-miterlimit="10" d="M385.6,78.6c1.7-1.3,4.1-1,5.4,0.7
				c1.3,1.7,1,4.1-0.7,5.4c-1.7,1.3-4.1,1-5.4-0.7C383.6,82.3,384,79.9,385.6,78.6z"/>
			<path fill="none" stroke="#0F0F0F" stroke-width="0.5672" stroke-miterlimit="10" d="M386.3,79.4c1.2-0.9,3-0.7,3.9,0.5
				c0.9,1.2,0.7,3-0.5,3.9c-1.2,0.9-3,0.7-3.9-0.5C384.8,82.1,385,80.3,386.3,79.4z"/>
			<circle fill="#0F0F0F" stroke="#0F0F0F" stroke-width="0.7164" stroke-miterlimit="10" cx="388" cy="81.6" r="1.1"/>
		</g>
		<g>
			<path fill="#8A7F81" stroke="#0F0F0F" stroke-width="0.5672" stroke-miterlimit="10" d="M572.3,70.7c1.7-1.3,4.1-1,5.4,0.7
				c1.3,1.7,1,4.1-0.7,5.4c-1.7,1.3-4.1,1-5.4-0.7C570.3,74.4,570.6,72,572.3,70.7z"/>
			<path fill="none" stroke="#0F0F0F" stroke-width="0.5672" stroke-miterlimit="10" d="M572.9,71.5c1.2-0.9,3-0.7,3.9,0.5
				c0.9,1.2,0.7,3-0.5,3.9c-1.2,0.9-3,0.7-3.9-0.5C571.4,74.2,571.7,72.5,572.9,71.5z"/>
			<circle fill="#0F0F0F" stroke="#0F0F0F" stroke-width="0.7164" stroke-miterlimit="10" cx="574.6" cy="73.7" r="1.1"/>
		</g>
		<g>
			<path fill="#8A7F81" stroke="#0F0F0F" stroke-width="0.5672" stroke-miterlimit="10" d="M579.9,70.7c1.7-1.3,4.1-1,5.4,0.7
				c1.3,1.7,1,4.1-0.7,5.4c-1.7,1.3-4.1,1-5.4-0.7C577.9,74.4,578.2,72,579.9,70.7z"/>
			<path fill="none" stroke="#0F0F0F" stroke-width="0.5672" stroke-miterlimit="10" d="M580.5,71.5c1.2-0.9,3-0.7,3.9,0.5
				c0.9,1.2,0.7,3-0.5,3.9c-1.2,0.9-3,0.7-3.9-0.5C579.1,74.2,579.3,72.5,580.5,71.5z"/>
			<circle fill="#0F0F0F" stroke="#0F0F0F" stroke-width="0.7164" stroke-miterlimit="10" cx="582.3" cy="73.7" r="1.1"/>
		</g>
		<g>
			<path fill="#8A7F81" stroke="#0F0F0F" stroke-width="0.5672" stroke-miterlimit="10" d="M583.7,63.9c1.7-1.3,4.1-1,5.4,0.7
				c1.3,1.7,1,4.1-0.7,5.4c-1.7,1.3-4.1,1-5.4-0.7C581.8,67.6,582.1,65.2,583.7,63.9z"/>
			<path fill="none" stroke="#0F0F0F" stroke-width="0.5672" stroke-miterlimit="10" d="M584.4,64.8c1.2-0.9,3-0.7,3.9,0.5
				c0.9,1.2,0.7,3-0.5,3.9c-1.2,0.9-3,0.7-3.9-0.5C582.9,67.5,583.2,65.7,584.4,64.8z"/>
			<circle fill="#0F0F0F" stroke="#0F0F0F" stroke-width="0.7164" stroke-miterlimit="10" cx="586.1" cy="67" r="1.1"/>
		</g>
		<g>
			<path fill="#8A7F81" stroke="#0F0F0F" stroke-width="0.5672" stroke-miterlimit="10" d="M564.6,70.7c1.7-1.3,4.1-1,5.4,0.7
				c1.3,1.7,1,4.1-0.7,5.4c-1.7,1.3-4.1,1-5.4-0.7C562.6,74.4,562.9,72,564.6,70.7z"/>
			<path fill="none" stroke="#0F0F0F" stroke-width="0.5672" stroke-miterlimit="10" d="M565.2,71.5c1.2-0.9,3-0.7,3.9,0.5
				c0.9,1.2,0.7,3-0.5,3.9c-1.2,0.9-3,0.7-3.9-0.5C563.8,74.2,564,72.5,565.2,71.5z"/>
			<circle fill="#0F0F0F" stroke="#0F0F0F" stroke-width="0.7164" stroke-miterlimit="10" cx="566.9" cy="73.7" r="1.1"/>
		</g>
		<g>
			<path fill="#8A7F81" stroke="#0F0F0F" stroke-width="0.5672" stroke-miterlimit="10" d="M557.9,70.7c1.7-1.3,4.1-1,5.4,0.7
				c1.3,1.7,1,4.1-0.7,5.4c-1.7,1.3-4.1,1-5.4-0.7C556,74.4,556.3,72,557.9,70.7z"/>
			<path fill="none" stroke="#0F0F0F" stroke-width="0.5672" stroke-miterlimit="10" d="M558.6,71.5c1.2-0.9,3-0.7,3.9,0.5
				c0.9,1.2,0.7,3-0.5,3.9c-1.2,0.9-3,0.7-3.9-0.5C557.1,74.2,557.3,72.5,558.6,71.5z"/>
			<circle fill="#0F0F0F" stroke="#0F0F0F" stroke-width="0.7164" stroke-miterlimit="10" cx="560.3" cy="73.7" r="1.1"/>
		</g>
		<g>
			<path fill="#8A7F81" stroke="#0F0F0F" stroke-width="0.5672" stroke-miterlimit="10" d="M550.3,70.7c1.7-1.3,4.1-1,5.4,0.7
				c1.3,1.7,1,4.1-0.7,5.4c-1.7,1.3-4.1,1-5.4-0.7C548.3,74.4,548.6,72,550.3,70.7z"/>
			<path fill="none" stroke="#0F0F0F" stroke-width="0.5672" stroke-miterlimit="10" d="M550.9,71.5c1.2-0.9,3-0.7,3.9,0.5
				c0.9,1.2,0.7,3-0.5,3.9c-1.2,0.9-3,0.7-3.9-0.5C549.5,74.2,549.7,72.5,550.9,71.5z"/>
			<circle fill="#0F0F0F" stroke="#0F0F0F" stroke-width="0.7164" stroke-miterlimit="10" cx="552.6" cy="73.7" r="1.1"/>
		</g>
		<g>
			<path fill="#8A7F81" stroke="#0F0F0F" stroke-width="0.5672" stroke-miterlimit="10" d="M542.6,70.7c1.7-1.3,4.1-1,5.4,0.7
				c1.3,1.7,1,4.1-0.7,5.4c-1.7,1.3-4.1,1-5.4-0.7C540.6,74.4,541,72,542.6,70.7z"/>
			<path fill="none" stroke="#0F0F0F" stroke-width="0.5672" stroke-miterlimit="10" d="M543.3,71.5c1.2-0.9,3-0.7,3.9,0.5
				c0.9,1.2,0.7,3-0.5,3.9c-1.2,0.9-3,0.7-3.9-0.5C541.8,74.2,542,72.5,543.3,71.5z"/>
			<circle fill="#0F0F0F" stroke="#0F0F0F" stroke-width="0.7164" stroke-miterlimit="10" cx="545" cy="73.7" r="1.1"/>
		</g>
		<g>
			<path fill="#8A7F81" stroke="#0F0F0F" stroke-width="0.5672" stroke-miterlimit="10" d="M535,70.7c1.7-1.3,4.1-1,5.4,0.7
				c1.3,1.7,1,4.1-0.7,5.4c-1.7,1.3-4.1,1-5.4-0.7C533,74.4,533.3,72,535,70.7z"/>
			<path fill="none" stroke="#0F0F0F" stroke-width="0.5672" stroke-miterlimit="10" d="M535.6,71.5c1.2-0.9,3-0.7,3.9,0.5
				c0.9,1.2,0.7,3-0.5,3.9c-1.2,0.9-3,0.7-3.9-0.5C534.1,74.2,534.4,72.5,535.6,71.5z"/>
			<circle fill="#0F0F0F" stroke="#0F0F0F" stroke-width="0.7164" stroke-miterlimit="10" cx="537.3" cy="73.7" r="1.1"/>
		</g>
		<g>
			<path fill="#8A7F81" stroke="#0F0F0F" stroke-width="0.5672" stroke-miterlimit="10" d="M527.3,71.7c1.7-1.3,4.1-1,5.4,0.7
				c1.3,1.7,1,4.1-0.7,5.4c-1.7,1.3-4.1,1-5.4-0.7C525.3,75.4,525.6,73,527.3,71.7z"/>
			<path fill="none" stroke="#0F0F0F" stroke-width="0.5672" stroke-miterlimit="10" d="M527.9,72.5c1.2-0.9,3-0.7,3.9,0.5
				c0.9,1.2,0.7,3-0.5,3.9c-1.2,0.9-3,0.7-3.9-0.5C526.5,75.2,526.7,73.5,527.9,72.5z"/>
			<circle fill="#0F0F0F" stroke="#0F0F0F" stroke-width="0.7164" stroke-miterlimit="10" cx="529.6" cy="74.7" r="1.1"/>
		</g>
		<g>
			<path fill="#8A7F81" stroke="#0F0F0F" stroke-width="0.5672" stroke-miterlimit="10" d="M519.6,71.7c1.7-1.3,4.1-1,5.4,0.7
				c1.3,1.7,1,4.1-0.7,5.4c-1.7,1.3-4.1,1-5.4-0.7C517.7,75.4,518,73,519.6,71.7z"/>
			<path fill="none" stroke="#0F0F0F" stroke-width="0.5672" stroke-miterlimit="10" d="M520.3,72.5c1.2-0.9,3-0.7,3.9,0.5
				c0.9,1.2,0.7,3-0.5,3.9c-1.2,0.9-3,0.7-3.9-0.5C518.8,75.2,519.1,73.5,520.3,72.5z"/>
			<circle fill="#0F0F0F" stroke="#0F0F0F" stroke-width="0.7164" stroke-miterlimit="10" cx="522" cy="74.7" r="1.1"/>
		</g>
		<g>
			<path fill="#8A7F81" stroke="#0F0F0F" stroke-width="0.5672" stroke-miterlimit="10" d="M512,71.7c1.7-1.3,4.1-1,5.4,0.7
				c1.3,1.7,1,4.1-0.7,5.4c-1.7,1.3-4.1,1-5.4-0.7C510,75.4,510.3,73,512,71.7z"/>
			<path fill="none" stroke="#0F0F0F" stroke-width="0.5672" stroke-miterlimit="10" d="M512.6,72.5c1.2-0.9,3-0.7,3.9,0.5
				c0.9,1.2,0.7,3-0.5,3.9c-1.2,0.9-3,0.7-3.9-0.5C511.2,75.2,511.4,73.5,512.6,72.5z"/>
			<circle fill="#0F0F0F" stroke="#0F0F0F" stroke-width="0.7164" stroke-miterlimit="10" cx="514.3" cy="74.7" r="1.1"/>
		</g>
		<g>
			<path fill="#8A7F81" stroke="#0F0F0F" stroke-width="0.5672" stroke-miterlimit="10" d="M504.3,71.7c1.7-1.3,4.1-1,5.4,0.7
				c1.3,1.7,1,4.1-0.7,5.4c-1.7,1.3-4.1,1-5.4-0.7C502.4,75.4,502.7,73,504.3,71.7z"/>
			<path fill="none" stroke="#0F0F0F" stroke-width="0.5672" stroke-miterlimit="10" d="M505,72.5c1.2-0.9,3-0.7,3.9,0.5
				c0.9,1.2,0.7,3-0.5,3.9c-1.2,0.9-3,0.7-3.9-0.5C503.5,75.2,503.7,73.5,505,72.5z"/>
			<circle fill="#0F0F0F" stroke="#0F0F0F" stroke-width="0.7164" stroke-miterlimit="10" cx="506.7" cy="74.7" r="1.1"/>
		</g>
		<g>
			<path fill="#8A7F81" stroke="#0F0F0F" stroke-width="0.5672" stroke-miterlimit="10" d="M496.7,71.7c1.7-1.3,4.1-1,5.4,0.7
				c1.3,1.7,1,4.1-0.7,5.4c-1.7,1.3-4.1,1-5.4-0.7C494.7,75.4,495,73,496.7,71.7z"/>
			<path fill="none" stroke="#0F0F0F" stroke-width="0.5672" stroke-miterlimit="10" d="M497.3,72.5c1.2-0.9,3-0.7,3.9,0.5
				c0.9,1.2,0.7,3-0.5,3.9c-1.2,0.9-3,0.7-3.9-0.5C495.9,75.2,496.1,73.5,497.3,72.5z"/>
			<circle fill="#0F0F0F" stroke="#0F0F0F" stroke-width="0.7164" stroke-miterlimit="10" cx="499" cy="74.7" r="1.1"/>
		</g>
		<g>
			<path fill="#8A7F81" stroke="#0F0F0F" stroke-width="0.5672" stroke-miterlimit="10" d="M489,71.7c1.7-1.3,4.1-1,5.4,0.7
				c1.3,1.7,1,4.1-0.7,5.4c-1.7,1.3-4.1,1-5.4-0.7C487,75.4,487.3,73,489,71.7z"/>
			<path fill="none" stroke="#0F0F0F" stroke-width="0.5672" stroke-miterlimit="10" d="M489.6,72.5c1.2-0.9,3-0.7,3.9,0.5
				c0.9,1.2,0.7,3-0.5,3.9c-1.2,0.9-3,0.7-3.9-0.5C488.2,75.2,488.4,73.5,489.6,72.5z"/>
			<circle fill="#0F0F0F" stroke="#0F0F0F" stroke-width="0.7164" stroke-miterlimit="10" cx="491.4" cy="74.7" r="1.1"/>
		</g>
		<g>
			<path fill="#8A7F81" stroke="#0F0F0F" stroke-width="0.5672" stroke-miterlimit="10" d="M481.4,71.7c1.7-1.3,4.1-1,5.4,0.7
				c1.3,1.7,1,4.1-0.7,5.4c-1.7,1.3-4.1,1-5.4-0.7C479.4,75.4,479.7,73,481.4,71.7z"/>
			<path fill="none" stroke="#0F0F0F" stroke-width="0.5672" stroke-miterlimit="10" d="M482,72.5c1.2-0.9,3-0.7,3.9,0.5
				c0.9,1.2,0.7,3-0.5,3.9c-1.2,0.9-3,0.7-3.9-0.5C480.5,75.2,480.8,73.5,482,72.5z"/>
			<circle fill="#0F0F0F" stroke="#0F0F0F" stroke-width="0.7164" stroke-miterlimit="10" cx="483.7" cy="74.7" r="1.1"/>
		</g>
		<g>
			<path fill="#8A7F81" stroke="#0F0F0F" stroke-width="0.5672" stroke-miterlimit="10" d="M473.7,71.7c1.7-1.3,4.1-1,5.4,0.7
				c1.3,1.7,1,4.1-0.7,5.4c-1.7,1.3-4.1,1-5.4-0.7C471.7,75.4,472,73,473.7,71.7z"/>
			<path fill="none" stroke="#0F0F0F" stroke-width="0.5672" stroke-miterlimit="10" d="M474.3,72.5c1.2-0.9,3-0.7,3.9,0.5
				c0.9,1.2,0.7,3-0.5,3.9c-1.2,0.9-3,0.7-3.9-0.5C472.9,75.2,473.1,73.5,474.3,72.5z"/>
			<circle fill="#0F0F0F" stroke="#0F0F0F" stroke-width="0.7164" stroke-miterlimit="10" cx="476" cy="74.7" r="1.1"/>
		</g>
		<g>
			<path fill="#8A7F81" stroke="#0F0F0F" stroke-width="0.5672" stroke-miterlimit="10" d="M466,71.7c1.7-1.3,4.1-1,5.4,0.7
				c1.3,1.7,1,4.1-0.7,5.4c-1.7,1.3-4.1,1-5.4-0.7C464.1,75.4,464.4,73,466,71.7z"/>
			<path fill="none" stroke="#0F0F0F" stroke-width="0.5672" stroke-miterlimit="10" d="M466.7,72.5c1.2-0.9,3-0.7,3.9,0.5
				c0.9,1.2,0.7,3-0.5,3.9c-1.2,0.9-3,0.7-3.9-0.5C465.2,75.2,465.4,73.5,466.7,72.5z"/>
			<circle fill="#0F0F0F" stroke="#0F0F0F" stroke-width="0.7164" stroke-miterlimit="10" cx="468.4" cy="74.7" r="1.1"/>
		</g>
		<g>
			<path fill="#8A7F81" stroke="#0F0F0F" stroke-width="0.5672" stroke-miterlimit="10" d="M458.4,71.7c1.7-1.3,4.1-1,5.4,0.7
				c1.3,1.7,1,4.1-0.7,5.4c-1.7,1.3-4.1,1-5.4-0.7C456.4,75.4,456.7,73,458.4,71.7z"/>
			<path fill="none" stroke="#0F0F0F" stroke-width="0.5672" stroke-miterlimit="10" d="M459,72.5c1.2-0.9,3-0.7,3.9,0.5
				c0.9,1.2,0.7,3-0.5,3.9c-1.2,0.9-3,0.7-3.9-0.5C457.6,75.2,457.8,73.5,459,72.5z"/>
			<circle fill="#0F0F0F" stroke="#0F0F0F" stroke-width="0.7164" stroke-miterlimit="10" cx="460.7" cy="74.7" r="1.1"/>
		</g>
		<g>
			<path fill="#8A7F81" stroke="#0F0F0F" stroke-width="0.5672" stroke-miterlimit="10" d="M450.7,71.7c1.7-1.3,4.1-1,5.4,0.7
				c1.3,1.7,1,4.1-0.7,5.4c-1.7,1.3-4.1,1-5.4-0.7C448.7,75.4,449,73,450.7,71.7z"/>
			<path fill="none" stroke="#0F0F0F" stroke-width="0.5672" stroke-miterlimit="10" d="M451.4,72.5c1.2-0.9,3-0.7,3.9,0.5
				c0.9,1.2,0.7,3-0.5,3.9c-1.2,0.9-3,0.7-3.9-0.5C449.9,75.2,450.1,73.5,451.4,72.5z"/>
			<circle fill="#0F0F0F" stroke="#0F0F0F" stroke-width="0.7164" stroke-miterlimit="10" cx="453.1" cy="74.7" r="1.1"/>
		</g>
		<g>
			<path fill="#8A7F81" stroke="#0F0F0F" stroke-width="0.5672" stroke-miterlimit="10" d="M443.1,71.7c1.7-1.3,4.1-1,5.4,0.7
				c1.3,1.7,1,4.1-0.7,5.4c-1.7,1.3-4.1,1-5.4-0.7C441.1,75.4,441.4,73,443.1,71.7z"/>
			<path fill="none" stroke="#0F0F0F" stroke-width="0.5672" stroke-miterlimit="10" d="M443.7,72.5c1.2-0.9,3-0.7,3.9,0.5
				c0.9,1.2,0.7,3-0.5,3.9c-1.2,0.9-3,0.7-3.9-0.5C442.2,75.2,442.5,73.5,443.7,72.5z"/>
			<circle fill="#0F0F0F" stroke="#0F0F0F" stroke-width="0.7164" stroke-miterlimit="10" cx="445.4" cy="74.7" r="1.1"/>
		</g>
		<g>
			<path fill="#8A7F81" stroke="#0F0F0F" stroke-width="0.5672" stroke-miterlimit="10" d="M435.4,71.7c1.7-1.3,4.1-1,5.4,0.7
				c1.3,1.7,1,4.1-0.7,5.4c-1.7,1.3-4.1,1-5.4-0.7C433.4,75.4,433.7,73,435.4,71.7z"/>
			<path fill="none" stroke="#0F0F0F" stroke-width="0.5672" stroke-miterlimit="10" d="M436,72.5c1.2-0.9,3-0.7,3.9,0.5
				c0.9,1.2,0.7,3-0.5,3.9c-1.2,0.9-3,0.7-3.9-0.5C434.6,75.2,434.8,73.5,436,72.5z"/>
			<circle fill="#0F0F0F" stroke="#0F0F0F" stroke-width="0.7164" stroke-miterlimit="10" cx="437.7" cy="74.7" r="1.1"/>
		</g>
		<g>
			<path fill="#8A7F81" stroke="#0F0F0F" stroke-width="0.5672" stroke-miterlimit="10" d="M427.7,71.7c1.7-1.3,4.1-1,5.4,0.7
				c1.3,1.7,1,4.1-0.7,5.4c-1.7,1.3-4.1,1-5.4-0.7C425.8,75.4,426.1,73,427.7,71.7z"/>
			<path fill="none" stroke="#0F0F0F" stroke-width="0.5672" stroke-miterlimit="10" d="M428.4,72.5c1.2-0.9,3-0.7,3.9,0.5
				c0.9,1.2,0.7,3-0.5,3.9c-1.2,0.9-3,0.7-3.9-0.5C426.9,75.2,427.2,73.5,428.4,72.5z"/>
			<circle fill="#0F0F0F" stroke="#0F0F0F" stroke-width="0.7164" stroke-miterlimit="10" cx="430.1" cy="74.7" r="1.1"/>
		</g>
		<g>
			<path fill="#8A7F81" stroke="#0F0F0F" stroke-width="0.5672" stroke-miterlimit="10" d="M420.1,71.7c1.7-1.3,4.1-1,5.4,0.7
				c1.3,1.7,1,4.1-0.7,5.4c-1.7,1.3-4.1,1-5.4-0.7C418.1,75.4,418.4,73,420.1,71.7z"/>
			<path fill="none" stroke="#0F0F0F" stroke-width="0.5672" stroke-miterlimit="10" d="M420.7,72.5c1.2-0.9,3-0.7,3.9,0.5
				c0.9,1.2,0.7,3-0.5,3.9c-1.2,0.9-3,0.7-3.9-0.5C419.3,75.2,419.5,73.5,420.7,72.5z"/>
			<circle fill="#0F0F0F" stroke="#0F0F0F" stroke-width="0.7164" stroke-miterlimit="10" cx="422.4" cy="74.7" r="1.1"/>
		</g>
		<g>
			<path fill="#8A7F81" stroke="#0F0F0F" stroke-width="0.5672" stroke-miterlimit="10" d="M412.4,71.7c1.7-1.3,4.1-1,5.4,0.7
				c1.3,1.7,1,4.1-0.7,5.4c-1.7,1.3-4.1,1-5.4-0.7C410.5,75.4,410.8,73,412.4,71.7z"/>
			<path fill="none" stroke="#0F0F0F" stroke-width="0.5672" stroke-miterlimit="10" d="M413.1,72.5c1.2-0.9,3-0.7,3.9,0.5
				c0.9,1.2,0.7,3-0.5,3.9c-1.2,0.9-3,0.7-3.9-0.5C411.6,75.2,411.8,73.5,413.1,72.5z"/>
			<circle fill="#0F0F0F" stroke="#0F0F0F" stroke-width="0.7164" stroke-miterlimit="10" cx="414.8" cy="74.7" r="1.1"/>
		</g>
		<g>
			<path fill="#8A7F81" stroke="#0F0F0F" stroke-width="0.5672" stroke-miterlimit="10" d="M404.8,71.7c1.7-1.3,4.1-1,5.4,0.7
				c1.3,1.7,1,4.1-0.7,5.4c-1.7,1.3-4.1,1-5.4-0.7C402.8,75.4,403.1,73,404.8,71.7z"/>
			<path fill="none" stroke="#0F0F0F" stroke-width="0.5672" stroke-miterlimit="10" d="M405.4,72.5c1.2-0.9,3-0.7,3.9,0.5
				c0.9,1.2,0.7,3-0.5,3.9c-1.2,0.9-3,0.7-3.9-0.5C404,75.2,404.2,73.5,405.4,72.5z"/>
			<circle fill="#0F0F0F" stroke="#0F0F0F" stroke-width="0.7164" stroke-miterlimit="10" cx="407.1" cy="74.7" r="1.1"/>
		</g>
		<g>
			<path fill="#8A7F81" stroke="#0F0F0F" stroke-width="0.5672" stroke-miterlimit="10" d="M397.1,71.7c1.7-1.3,4.1-1,5.4,0.7
				c1.3,1.7,1,4.1-0.7,5.4c-1.7,1.3-4.1,1-5.4-0.7C395.1,75.4,395.4,73,397.1,71.7z"/>
			<path fill="none" stroke="#0F0F0F" stroke-width="0.5672" stroke-miterlimit="10" d="M397.7,72.5c1.2-0.9,3-0.7,3.9,0.5
				c0.9,1.2,0.7,3-0.5,3.9c-1.2,0.9-3,0.7-3.9-0.5C396.3,75.2,396.5,73.5,397.7,72.5z"/>
			<circle fill="#0F0F0F" stroke="#0F0F0F" stroke-width="0.7164" stroke-miterlimit="10" cx="399.5" cy="74.7" r="1.1"/>
		</g>
		<g>
			<path fill="#8A7F81" stroke="#0F0F0F" stroke-width="0.5672" stroke-miterlimit="10" d="M389.5,71.7c1.7-1.3,4.1-1,5.4,0.7
				c1.3,1.7,1,4.1-0.7,5.4c-1.7,1.3-4.1,1-5.4-0.7C387.5,75.4,387.8,73,389.5,71.7z"/>
			<path fill="none" stroke="#0F0F0F" stroke-width="0.5672" stroke-miterlimit="10" d="M390.1,72.5c1.2-0.9,3-0.7,3.9,0.5
				c0.9,1.2,0.7,3-0.5,3.9c-1.2,0.9-3,0.7-3.9-0.5C388.6,75.2,388.9,73.5,390.1,72.5z"/>
			<circle fill="#0F0F0F" stroke="#0F0F0F" stroke-width="0.7164" stroke-miterlimit="10" cx="391.8" cy="74.7" r="1.1"/>
		</g>
		<g>
			<path fill="#8A7F81" stroke="#0F0F0F" stroke-width="0.5672" stroke-miterlimit="10" d="M568.4,63.9c1.7-1.3,4.1-1,5.4,0.7
				c1.3,1.7,1,4.1-0.7,5.4c-1.7,1.3-4.1,1-5.4-0.7C566.5,67.6,566.8,65.2,568.4,63.9z"/>
			<circle fill="none" stroke="#0F0F0F" stroke-width="0.5672" stroke-miterlimit="10" cx="570.8" cy="67" r="2.8"/>
			<circle fill="#0F0F0F" stroke="#0F0F0F" stroke-width="0.7164" stroke-miterlimit="10" cx="570.8" cy="67" r="1.1"/>
		</g>
		<g>
			<path fill="#8A7F81" stroke="#0F0F0F" stroke-width="0.5672" stroke-miterlimit="10" d="M576.1,63.9c1.7-1.3,4.1-1,5.4,0.7
				c1.3,1.7,1,4.1-0.7,5.4c-1.7,1.3-4.1,1-5.4-0.7C574.1,67.6,574.4,65.2,576.1,63.9z"/>
			<circle fill="none" stroke="#0F0F0F" stroke-width="0.5672" stroke-miterlimit="10" cx="578.4" cy="67" r="2.8"/>
			<circle fill="#0F0F0F" stroke="#0F0F0F" stroke-width="0.7164" stroke-miterlimit="10" cx="578.4" cy="67" r="1.1"/>
		</g>
		<g>
			<path fill="#8A7F81" stroke="#0F0F0F" stroke-width="0.5672" stroke-miterlimit="10" d="M560.8,63.9c1.7-1.3,4.1-1,5.4,0.7
				c1.3,1.7,1,4.1-0.7,5.4c-1.7,1.3-4.1,1-5.4-0.7C558.8,67.6,559.1,65.2,560.8,63.9z"/>
			<circle fill="none" stroke="#0F0F0F" stroke-width="0.5672" stroke-miterlimit="10" cx="563.1" cy="67" r="2.8"/>
			<circle fill="#0F0F0F" stroke="#0F0F0F" stroke-width="0.7164" stroke-miterlimit="10" cx="563.1" cy="67" r="1.1"/>
		</g>
		<g>
			<path fill="#8A7F81" stroke="#0F0F0F" stroke-width="0.5672" stroke-miterlimit="10" d="M554.1,63.9c1.7-1.3,4.1-1,5.4,0.7
				c1.3,1.7,1,4.1-0.7,5.4c-1.7,1.3-4.1,1-5.4-0.7C552.1,67.6,552.4,65.2,554.1,63.9z"/>
			<circle fill="none" stroke="#0F0F0F" stroke-width="0.5672" stroke-miterlimit="10" cx="556.5" cy="67" r="2.8"/>
			<circle fill="#0F0F0F" stroke="#0F0F0F" stroke-width="0.7164" stroke-miterlimit="10" cx="556.5" cy="67" r="1.1"/>
		</g>
		<g>
			<path fill="#8A7F81" stroke="#0F0F0F" stroke-width="0.5672" stroke-miterlimit="10" d="M546.5,63.9c1.7-1.3,4.1-1,5.4,0.7
				c1.3,1.7,1,4.1-0.7,5.4c-1.7,1.3-4.1,1-5.4-0.7C544.5,67.6,544.8,65.2,546.5,63.9z"/>
			<path fill="none" stroke="#0F0F0F" stroke-width="0.5672" stroke-miterlimit="10" d="M547.1,64.8c1.2-0.9,3-0.7,3.9,0.5
				c0.9,1.2,0.7,3-0.5,3.9c-1.2,0.9-3,0.7-3.9-0.5C545.6,67.5,545.9,65.7,547.1,64.8z"/>
			<circle fill="#0F0F0F" stroke="#0F0F0F" stroke-width="0.7164" stroke-miterlimit="10" cx="548.8" cy="67" r="1.1"/>
		</g>
		<g>
			<path fill="#8A7F81" stroke="#0F0F0F" stroke-width="0.5672" stroke-miterlimit="10" d="M538.8,63.9c1.7-1.3,4.1-1,5.4,0.7
				c1.3,1.7,1,4.1-0.7,5.4c-1.7,1.3-4.1,1-5.4-0.7C536.8,67.6,537.1,65.2,538.8,63.9z"/>
			<circle fill="none" stroke="#0F0F0F" stroke-width="0.5672" stroke-miterlimit="10" cx="541.1" cy="67" r="2.8"/>
			<circle fill="#0F0F0F" stroke="#0F0F0F" stroke-width="0.7164" stroke-miterlimit="10" cx="541.1" cy="67" r="1.1"/>
		</g>
		<g>
			<path fill="#8A7F81" stroke="#0F0F0F" stroke-width="0.5672" stroke-miterlimit="10" d="M531.1,64.3c1.7-1.3,4.1-1,5.4,0.7
				c1.3,1.7,1,4.1-0.7,5.4c-1.7,1.3-4.1,1-5.4-0.7C529.2,68,529.5,65.6,531.1,64.3z"/>
			<circle fill="none" stroke="#0F0F0F" stroke-width="0.5672" stroke-miterlimit="10" cx="533.5" cy="67.3" r="2.8"/>
			<circle fill="#0F0F0F" stroke="#0F0F0F" stroke-width="0.7164" stroke-miterlimit="10" cx="533.5" cy="67.3" r="1.1"/>
		</g>
		<g>
			<path fill="#8A7F81" stroke="#0F0F0F" stroke-width="0.5672" stroke-miterlimit="10" d="M523.5,64.9c1.7-1.3,4.1-1,5.4,0.7
				c1.3,1.7,1,4.1-0.7,5.4c-1.7,1.3-4.1,1-5.4-0.7C521.5,68.6,521.8,66.2,523.5,64.9z"/>
			<path fill="none" stroke="#0F0F0F" stroke-width="0.5672" stroke-miterlimit="10" d="M524.1,65.8c1.2-0.9,3-0.7,3.9,0.5
				c0.9,1.2,0.7,3-0.5,3.9c-1.2,0.9-3,0.7-3.9-0.5C522.7,68.5,522.9,66.7,524.1,65.8z"/>
			<circle fill="#0F0F0F" stroke="#0F0F0F" stroke-width="0.7164" stroke-miterlimit="10" cx="525.8" cy="68" r="1.1"/>
		</g>
		<g>
			<path fill="#8A7F81" stroke="#0F0F0F" stroke-width="0.5672" stroke-miterlimit="10" d="M515.8,64.9c1.7-1.3,4.1-1,5.4,0.7
				c1.3,1.7,1,4.1-0.7,5.4c-1.7,1.3-4.1,1-5.4-0.7C513.8,68.6,514.1,66.2,515.8,64.9z"/>
			<circle fill="none" stroke="#0F0F0F" stroke-width="0.5672" stroke-miterlimit="10" cx="518.2" cy="68" r="2.8"/>
			<circle fill="#0F0F0F" stroke="#0F0F0F" stroke-width="0.7164" stroke-miterlimit="10" cx="518.2" cy="68" r="1.1"/>
		</g>
		<g>
			<path fill="#8A7F81" stroke="#0F0F0F" stroke-width="0.5672" stroke-miterlimit="10" d="M508.2,64.9c1.7-1.3,4.1-1,5.4,0.7
				c1.3,1.7,1,4.1-0.7,5.4c-1.7,1.3-4.1,1-5.4-0.7C506.2,68.6,506.5,66.2,508.2,64.9z"/>
			<circle fill="none" stroke="#0F0F0F" stroke-width="0.5672" stroke-miterlimit="10" cx="510.5" cy="68" r="2.8"/>
			<circle fill="#0F0F0F" stroke="#0F0F0F" stroke-width="0.7164" stroke-miterlimit="10" cx="510.5" cy="68" r="1.1"/>
		</g>
		<g>
			<path fill="#8A7F81" stroke="#0F0F0F" stroke-width="0.5672" stroke-miterlimit="10" d="M500.5,64.9c1.7-1.3,4.1-1,5.4,0.7
				c1.3,1.7,1,4.1-0.7,5.4c-1.7,1.3-4.1,1-5.4-0.7C498.5,68.6,498.8,66.2,500.5,64.9z"/>
			<path fill="none" stroke="#0F0F0F" stroke-width="0.5672" stroke-miterlimit="10" d="M501.1,65.8c1.2-0.9,3-0.7,3.9,0.5
				c0.9,1.2,0.7,3-0.5,3.9c-1.2,0.9-3,0.7-3.9-0.5C499.7,68.5,499.9,66.7,501.1,65.8z"/>
			<circle fill="#0F0F0F" stroke="#0F0F0F" stroke-width="0.7164" stroke-miterlimit="10" cx="502.8" cy="68" r="1.1"/>
		</g>
		<g>
			<path fill="#8A7F81" stroke="#0F0F0F" stroke-width="0.5672" stroke-miterlimit="10" d="M492.8,64.9c1.7-1.3,4.1-1,5.4,0.7
				c1.3,1.7,1,4.1-0.7,5.4c-1.7,1.3-4.1,1-5.4-0.7C490.9,68.6,491.2,66.2,492.8,64.9z"/>
			<circle fill="none" stroke="#0F0F0F" stroke-width="0.5672" stroke-miterlimit="10" cx="495.2" cy="68" r="2.8"/>
			<circle fill="#0F0F0F" stroke="#0F0F0F" stroke-width="0.7164" stroke-miterlimit="10" cx="495.2" cy="68" r="1.1"/>
		</g>
		<g>
			<path fill="#8A7F81" stroke="#0F0F0F" stroke-width="0.5672" stroke-miterlimit="10" d="M485.2,64.9c1.7-1.3,4.1-1,5.4,0.7
				c1.3,1.7,1,4.1-0.7,5.4c-1.7,1.3-4.1,1-5.4-0.7C483.2,68.6,483.5,66.2,485.2,64.9z"/>
			<circle fill="none" stroke="#0F0F0F" stroke-width="0.5672" stroke-miterlimit="10" cx="487.5" cy="68" r="2.8"/>
			<circle fill="#0F0F0F" stroke="#0F0F0F" stroke-width="0.7164" stroke-miterlimit="10" cx="487.5" cy="68" r="1.1"/>
		</g>
		<g>
			<path fill="#8A7F81" stroke="#0F0F0F" stroke-width="0.5672" stroke-miterlimit="10" d="M477.5,64.9c1.7-1.3,4.1-1,5.4,0.7
				c1.3,1.7,1,4.1-0.7,5.4c-1.7,1.3-4.1,1-5.4-0.7C475.5,68.6,475.9,66.2,477.5,64.9z"/>
			<path fill="none" stroke="#0F0F0F" stroke-width="0.5672" stroke-miterlimit="10" d="M478.2,65.8c1.2-0.9,3-0.7,3.9,0.5
				c0.9,1.2,0.7,3-0.5,3.9c-1.2,0.9-3,0.7-3.9-0.5C476.7,68.5,476.9,66.7,478.2,65.8z"/>
			<circle fill="#0F0F0F" stroke="#0F0F0F" stroke-width="0.7164" stroke-miterlimit="10" cx="479.9" cy="68" r="1.1"/>
		</g>
		<g>
			<path fill="#8A7F81" stroke="#0F0F0F" stroke-width="0.5672" stroke-miterlimit="10" d="M469.9,64.9c1.7-1.3,4.1-1,5.4,0.7
				c1.3,1.7,1,4.1-0.7,5.4c-1.7,1.3-4.1,1-5.4-0.7C467.9,68.6,468.2,66.2,469.9,64.9z"/>
			<path fill="none" stroke="#0F0F0F" stroke-width="0.5672" stroke-miterlimit="10" d="M470.5,65.8c1.2-0.9,3-0.7,3.9,0.5
				c0.9,1.2,0.7,3-0.5,3.9c-1.2,0.9-3,0.7-3.9-0.5C469.1,68.5,469.3,66.7,470.5,65.8z"/>
			<circle fill="#0F0F0F" stroke="#0F0F0F" stroke-width="0.7164" stroke-miterlimit="10" cx="472.2" cy="68" r="1.1"/>
		</g>
		<g>
			<path fill="#8A7F81" stroke="#0F0F0F" stroke-width="0.5672" stroke-miterlimit="10" d="M462.2,64.9c1.7-1.3,4.1-1,5.4,0.7
				c1.3,1.7,1,4.1-0.7,5.4c-1.7,1.3-4.1,1-5.4-0.7C460.2,68.6,460.5,66.2,462.2,64.9z"/>
			<circle fill="none" stroke="#0F0F0F" stroke-width="0.5672" stroke-miterlimit="10" cx="464.6" cy="68" r="2.8"/>
			<circle fill="#0F0F0F" stroke="#0F0F0F" stroke-width="0.7164" stroke-miterlimit="10" cx="464.6" cy="68" r="1.1"/>
		</g>
		<g>
			<path fill="#8A7F81" stroke="#0F0F0F" stroke-width="0.5672" stroke-miterlimit="10" d="M454.6,64.9c1.7-1.3,4.1-1,5.4,0.7
				c1.3,1.7,1,4.1-0.7,5.4c-1.7,1.3-4.1,1-5.4-0.7C452.6,68.6,452.9,66.2,454.6,64.9z"/>
			<circle fill="none" stroke="#0F0F0F" stroke-width="0.5672" stroke-miterlimit="10" cx="456.9" cy="68" r="2.8"/>
			<circle fill="#0F0F0F" stroke="#0F0F0F" stroke-width="0.7164" stroke-miterlimit="10" cx="456.9" cy="68" r="1.1"/>
		</g>
		<g>
			<path fill="#8A7F81" stroke="#0F0F0F" stroke-width="0.5672" stroke-miterlimit="10" d="M446.9,64.9c1.7-1.3,4.1-1,5.4,0.7
				c1.3,1.7,1,4.1-0.7,5.4c-1.7,1.3-4.1,1-5.4-0.7C444.9,68.6,445.2,66.2,446.9,64.9z"/>
			<circle fill="none" stroke="#0F0F0F" stroke-width="0.5672" stroke-miterlimit="10" cx="449.2" cy="68" r="2.8"/>
			<circle fill="#0F0F0F" stroke="#0F0F0F" stroke-width="0.7164" stroke-miterlimit="10" cx="449.2" cy="68" r="1.1"/>
		</g>
		<g>
			<path fill="#8A7F81" stroke="#0F0F0F" stroke-width="0.5672" stroke-miterlimit="10" d="M439.2,64.9c1.7-1.3,4.1-1,5.4,0.7
				c1.3,1.7,1,4.1-0.7,5.4c-1.7,1.3-4.1,1-5.4-0.7C437.3,68.6,437.6,66.2,439.2,64.9z"/>
			<circle fill="none" stroke="#0F0F0F" stroke-width="0.5672" stroke-miterlimit="10" cx="441.6" cy="68" r="2.8"/>
			<circle fill="#0F0F0F" stroke="#0F0F0F" stroke-width="0.7164" stroke-miterlimit="10" cx="441.6" cy="68" r="1.1"/>
		</g>
		<g>
			<path fill="#8A7F81" stroke="#0F0F0F" stroke-width="0.5672" stroke-miterlimit="10" d="M431.6,64.9c1.7-1.3,4.1-1,5.4,0.7
				c1.3,1.7,1,4.1-0.7,5.4c-1.7,1.3-4.1,1-5.4-0.7C429.6,68.6,429.9,66.2,431.6,64.9z"/>
			<circle fill="none" stroke="#0F0F0F" stroke-width="0.5672" stroke-miterlimit="10" cx="433.9" cy="68" r="2.8"/>
			<circle fill="#0F0F0F" stroke="#0F0F0F" stroke-width="0.7164" stroke-miterlimit="10" cx="433.9" cy="68" r="1.1"/>
		</g>
		<g>
			<path fill="#8A7F81" stroke="#0F0F0F" stroke-width="0.5672" stroke-miterlimit="10" d="M423.9,64.9c1.7-1.3,4.1-1,5.4,0.7
				c1.3,1.7,1,4.1-0.7,5.4c-1.7,1.3-4.1,1-5.4-0.7C421.9,68.6,422.2,66.2,423.9,64.9z"/>
			<path fill="none" stroke="#0F0F0F" stroke-width="0.5672" stroke-miterlimit="10" d="M424.5,65.8c1.2-0.9,3-0.7,3.9,0.5
				c0.9,1.2,0.7,3-0.5,3.9c-1.2,0.9-3,0.7-3.9-0.5C423.1,68.5,423.3,66.7,424.5,65.8z"/>
			<circle fill="#0F0F0F" stroke="#0F0F0F" stroke-width="0.7164" stroke-miterlimit="10" cx="426.3" cy="68" r="1.1"/>
		</g>
		<g>
			<path fill="#8A7F81" stroke="#0F0F0F" stroke-width="0.5672" stroke-miterlimit="10" d="M416.3,64.9c1.7-1.3,4.1-1,5.4,0.7
				c1.3,1.7,1,4.1-0.7,5.4c-1.7,1.3-4.1,1-5.4-0.7C414.3,68.6,414.6,66.2,416.3,64.9z"/>
			<circle fill="none" stroke="#0F0F0F" stroke-width="0.5672" stroke-miterlimit="10" cx="418.6" cy="68" r="2.8"/>
			<circle fill="#0F0F0F" stroke="#0F0F0F" stroke-width="0.7164" stroke-miterlimit="10" cx="418.6" cy="68" r="1.1"/>
		</g>
		<g>
			<path fill="#8A7F81" stroke="#0F0F0F" stroke-width="0.5672" stroke-miterlimit="10" d="M408.6,64.9c1.7-1.3,4.1-1,5.4,0.7
				c1.3,1.7,1,4.1-0.7,5.4c-1.7,1.3-4.1,1-5.4-0.7C406.6,68.6,406.9,66.2,408.6,64.9z"/>
			<circle fill="none" stroke="#0F0F0F" stroke-width="0.5672" stroke-miterlimit="10" cx="410.9" cy="68" r="2.8"/>
			<circle fill="#0F0F0F" stroke="#0F0F0F" stroke-width="0.7164" stroke-miterlimit="10" cx="410.9" cy="68" r="1.1"/>
		</g>
		<g>
			<path fill="#8A7F81" stroke="#0F0F0F" stroke-width="0.5672" stroke-miterlimit="10" d="M381.8,71.7c1.7-1.3,4.1-1,5.4,0.7
				c1.3,1.7,1,4.1-0.7,5.4c-1.7,1.3-4.1,1-5.4-0.7C379.8,75.4,380.1,73,381.8,71.7z"/>
			<path fill="none" stroke="#0F0F0F" stroke-width="0.5672" stroke-miterlimit="10" d="M382.4,72.5c1.2-0.9,3-0.7,3.9,0.5
				c0.9,1.2,0.7,3-0.5,3.9c-1.2,0.9-3,0.7-3.9-0.5C381,75.2,381.2,73.5,382.4,72.5z"/>
			<path fill="#0F0F0F" stroke="#0F0F0F" stroke-width="0.7164" stroke-miterlimit="10" d="M383.5,73.9c0.5-0.4,1.2-0.3,1.5,0.2
				c0.4,0.5,0.3,1.2-0.2,1.5c-0.5,0.4-1.2,0.3-1.5-0.2C382.9,74.9,383,74.2,383.5,73.9z"/>
		</g>
		<g>
			<path fill="#8A7F81" stroke="#0F0F0F" stroke-width="0.5672" stroke-miterlimit="10" d="M377.5,78.1c1.7-1.3,4.1-1,5.4,0.7
				c1.3,1.7,1,4.1-0.7,5.4c-1.7,1.3-4.1,1-5.4-0.7C375.6,81.8,375.9,79.4,377.5,78.1z"/>
			<circle fill="none" stroke="#0F0F0F" stroke-width="0.5672" stroke-miterlimit="10" cx="379.9" cy="81.1" r="2.8"/>
			<circle fill="#0F0F0F" stroke="#0F0F0F" stroke-width="0.7164" stroke-miterlimit="10" cx="379.9" cy="81.1" r="1.1"/>
		</g>
		<g>
			<path fill="#8A7F81" stroke="#0F0F0F" stroke-width="0.5672" stroke-miterlimit="10" d="M369.9,77.5c1.7-1.3,4.1-1,5.4,0.7
				c1.3,1.7,1,4.1-0.7,5.4c-1.7,1.3-4.1,1-5.4-0.7C367.9,81.2,368.2,78.8,369.9,77.5z"/>
			<circle fill="none" stroke="#0F0F0F" stroke-width="0.5672" stroke-miterlimit="10" cx="372.2" cy="80.5" r="2.8"/>
			<circle fill="#0F0F0F" stroke="#0F0F0F" stroke-width="0.7164" stroke-miterlimit="10" cx="372.2" cy="80.5" r="1.1"/>
		</g>
		<g>
			<path fill="#8A7F81" stroke="#0F0F0F" stroke-width="0.5672" stroke-miterlimit="10" d="M362.2,76.9c1.7-1.3,4.1-1,5.4,0.7
				c1.3,1.7,1,4.1-0.7,5.4c-1.7,1.3-4.1,1-5.4-0.7C360.2,80.6,360.6,78.2,362.2,76.9z"/>
			<path fill="none" stroke="#0F0F0F" stroke-width="0.5672" stroke-miterlimit="10" d="M362.9,77.8c1.2-0.9,3-0.7,3.9,0.5
				c0.9,1.2,0.7,3-0.5,3.9c-1.2,0.9-3,0.7-3.9-0.5C361.4,80.5,361.6,78.7,362.9,77.8z"/>
			<circle fill="#0F0F0F" stroke="#0F0F0F" stroke-width="0.7164" stroke-miterlimit="10" cx="364.6" cy="80" r="1.1"/>
		</g>
		<g>
			<path fill="#8A7F81" stroke="#0F0F0F" stroke-width="0.5672" stroke-miterlimit="10" d="M354.6,76.3c1.7-1.3,4.1-1,5.4,0.7
				c1.3,1.7,1,4.1-0.7,5.4c-1.7,1.3-4.1,1-5.4-0.7C352.6,80,352.9,77.6,354.6,76.3z"/>
			<path fill="none" stroke="#0F0F0F" stroke-width="0.5672" stroke-miterlimit="10" d="M355.2,77.1c1.2-0.9,3-0.7,3.9,0.5
				c0.9,1.2,0.7,3-0.5,3.9c-1.2,0.9-3,0.7-3.9-0.5C353.8,79.8,354,78.1,355.2,77.1z"/>
			<circle fill="#0F0F0F" stroke="#0F0F0F" stroke-width="0.7164" stroke-miterlimit="10" cx="356.9" cy="79.3" r="1.1"/>
		</g>
		<g>
			<path fill="#8A7F81" stroke="#0F0F0F" stroke-width="0.5672" stroke-miterlimit="10" d="M587.3,76.1c0.7,0.8,1.6,1.3,2.6,1.5v-1
				c-0.7-0.1-1.3-0.5-1.8-1c-0.9-1.2-0.7-3,0.5-3.9c0.4-0.3,0.8-0.5,1.3-0.5v-1c-0.7,0.1-1.3,0.3-1.9,0.8
				C586.4,72,586,74.4,587.3,76.1z"/>
			<path fill="#8A7F81" stroke="#0F0F0F" stroke-width="0.5672" stroke-miterlimit="10" d="M589.5,74.4c-0.4-0.5-0.3-1.2,0.2-1.5
				c0.1-0.1,0.1-0.1,0.2-0.1V71c-0.4,0.1-0.9,0.2-1.3,0.5c-1.2,0.9-1.4,2.7-0.5,3.9c0.5,0.6,1.1,0.9,1.8,1v-1.8
				C589.8,74.6,589.6,74.5,589.5,74.4z"/>
			<path fill="#0F0F0F" stroke="#0F0F0F" stroke-width="0.5672" stroke-miterlimit="10" d="M589.5,74.4c0.1,0.1,0.3,0.2,0.4,0.3v-2
				c-0.1,0-0.1,0.1-0.2,0.1C589.2,73.2,589.1,73.9,589.5,74.4z"/>
		</g>
	</g>
</g>
</svg>
