<?xml version="1.0" encoding="utf-8"?>
<!DOCTYPE svg PUBLIC "-//W3C//DTD SVG 1.1//EN" "http://www.w3.org/Graphics/SVG/1.1/DTD/svg11.dtd">
<svg version="1.1" xmlns="http://www.w3.org/2000/svg" xmlns:xlink="http://www.w3.org/1999/xlink" x="0px" y="0px" width="127px"
	 height="127px" viewBox="0 0 127 127" enable-background="new 0 0 127 127" xml:space="preserve">
<g>
	<circle fill="#F9F0EF" cx="63.5" cy="63.5" r="63.5"/>
	<g>
		<g>
			<path d="M27.4,85.8c0.1,3,1.6,4.8,9.9,4.8h52.2c8.2,0,9.7-1.8,10.1-4.8H27.4z"/>
			<path fill="none" stroke="#000000" stroke-width="1.2902" stroke-miterlimit="10" d="M24,57.6c0-1.5,0,25.1,0,25.1
				c0,1.8,1.4,3.2,3.2,3.2h72.7c1.8,0,3.2-1.4,3.2-3.2c0,0,0-26.6,0-25.1H24z"/>
			<line fill="none" stroke="#000000" stroke-width="0.4301" stroke-miterlimit="10" x1="103.1" y1="71.7" x2="24" y2="71.7"/>
			<line fill="none" stroke="#000000" stroke-width="0.4301" stroke-miterlimit="10" x1="103.1" y1="67" x2="24" y2="67"/>
			<line fill="none" stroke="#000000" stroke-width="0.4301" stroke-miterlimit="10" x1="103.1" y1="76.4" x2="24" y2="76.4"/>
			<line fill="none" stroke="#000000" stroke-width="0.4301" stroke-miterlimit="10" x1="103.1" y1="81.1" x2="24" y2="81.1"/>
			<line fill="none" stroke="#000000" stroke-width="0.4301" stroke-miterlimit="10" x1="103.1" y1="62.3" x2="24" y2="62.3"/>
			<line fill="none" stroke="#000000" stroke-width="0.4301" stroke-miterlimit="10" x1="103.1" y1="78.8" x2="23.9" y2="78.8"/>
			<line fill="none" stroke="#000000" stroke-width="0.4301" stroke-miterlimit="10" x1="103.1" y1="74.1" x2="23.9" y2="74.1"/>
			<line fill="none" stroke="#000000" stroke-width="0.4301" stroke-miterlimit="10" x1="103.1" y1="83.5" x2="23.9" y2="83.5"/>
			<line fill="none" stroke="#000000" stroke-width="0.4301" stroke-miterlimit="10" x1="103.1" y1="69.3" x2="23.9" y2="69.3"/>
			<line fill="none" stroke="#000000" stroke-width="0.4301" stroke-miterlimit="10" x1="103.1" y1="64.6" x2="23.9" y2="64.6"/>
			<line fill="none" stroke="#000000" stroke-width="0.4301" stroke-miterlimit="10" x1="103.1" y1="59.9" x2="23.9" y2="59.9"/>
		</g>
		<path fill="#0D0D0D" d="M102.9,54.8v-8c0-2.3-2.1-3-2.1-3c-6.7-2.2-20.4-7.4-37.2-7.4v0c0,0-0.1,0-0.1,0c0,0-0.1,0-0.1,0v0
			c-16.7,0-37,7.4-37,7.4c-1.3,0.4-2.3,1.6-2.3,3v8H102.9z"/>
	</g>
</g>
</svg>
