<?xml version="1.0" encoding="utf-8"?>
<!DOCTYPE svg PUBLIC "-//W3C//DTD SVG 1.1//EN" "http://www.w3.org/Graphics/SVG/1.1/DTD/svg11.dtd">
<svg version="1.1" xmlns="http://www.w3.org/2000/svg" xmlns:xlink="http://www.w3.org/1999/xlink" x="0px" y="0px" width="465px"
	 height="22px" enable-background="new 0 0 465 22" xml:space="preserve">
<g>
	<g>
		<path fill="#8A7F81" stroke="#0F0F0F" stroke-width="1.0635" stroke-miterlimit="10" d="M429.9,7.9c3.1-2.4,7.6-1.9,10.1,1.3
			c2.4,3.1,1.8,7.6-1.3,10.1c-3.1,2.4-7.6,1.9-10.1-1.3C426.2,14.9,426.8,10.4,429.9,7.9z"/>
		<path fill="none" stroke="#0F0F0F" stroke-width="1.0635" stroke-miterlimit="10" d="M431.1,9.5c2.3-1.8,5.6-1.4,7.4,0.9
			c1.8,2.3,1.4,5.6-0.9,7.4c-2.3,1.8-5.6,1.3-7.4-0.9C428.4,14.5,428.8,11.2,431.1,9.5z"/>
		<path fill="#0F0F0F" stroke="#0F0F0F" stroke-width="1.3432" stroke-miterlimit="10" d="M433.1,12c0.9-0.7,2.2-0.5,2.9,0.4
			c0.7,0.9,0.5,2.2-0.4,2.9c-0.9,0.7-2.2,0.5-2.9-0.4C432,14,432.2,12.7,433.1,12z"/>
		<path fill="#8A7F81" stroke="#0F0F0F" stroke-width="1.0635" stroke-miterlimit="10" d="M444.3,7.9c3.1-2.4,7.6-1.9,10.1,1.3
			c2.4,3.1,1.8,7.6-1.3,10.1c-3.1,2.4-7.6,1.9-10.1-1.3C440.6,14.9,441.1,10.4,444.3,7.9z"/>
		<path fill="none" stroke="#0F0F0F" stroke-width="1.0635" stroke-miterlimit="10" d="M445.4,9.5c2.3-1.8,5.6-1.4,7.4,0.9
			c1.8,2.3,1.4,5.6-0.9,7.4c-2.3,1.8-5.6,1.3-7.4-0.9C442.7,14.5,443.2,11.2,445.4,9.5z"/>
		<path fill="#0F0F0F" stroke="#0F0F0F" stroke-width="1.3432" stroke-miterlimit="10" d="M447.4,12c0.9-0.7,2.2-0.5,2.9,0.4
			c0.7,0.9,0.5,2.2-0.4,2.9c-0.9,0.7-2.2,0.5-2.9-0.4C446.4,14,446.5,12.7,447.4,12z"/>
		<path fill="#8A7F81" stroke="#0F0F0F" stroke-width="1.0635" stroke-miterlimit="10" d="M415.5,7.9c3.1-2.4,7.6-1.9,10.1,1.3
			c2.4,3.1,1.8,7.6-1.3,10.1c-3.1,2.4-7.6,1.9-10.1-1.3C411.8,14.9,412.4,10.4,415.5,7.9z"/>
		<path fill="none" stroke="#0F0F0F" stroke-width="1.0635" stroke-miterlimit="10" d="M416.7,9.5c2.3-1.8,5.6-1.4,7.4,0.9
			c1.8,2.3,1.4,5.6-0.9,7.4c-2.3,1.8-5.6,1.3-7.4-0.9C414,14.5,414.4,11.2,416.7,9.5z"/>
		<path fill="#0F0F0F" stroke="#0F0F0F" stroke-width="1.3432" stroke-miterlimit="10" d="M418.7,12c0.9-0.7,2.2-0.5,2.9,0.4
			c0.7,0.9,0.5,2.2-0.4,2.9c-0.9,0.7-2.2,0.5-2.9-0.4C417.6,14,417.8,12.7,418.7,12z"/>
		<path fill="#8A7F81" stroke="#0F0F0F" stroke-width="1.0635" stroke-miterlimit="10" d="M401.2,7.9c3.1-2.4,7.6-1.9,10.1,1.3
			c2.4,3.1,1.8,7.6-1.3,10.1c-3.1,2.4-7.6,1.9-10.1-1.3C397.5,14.9,398.1,10.4,401.2,7.9z"/>
		<path fill="none" stroke="#0F0F0F" stroke-width="1.0635" stroke-miterlimit="10" d="M402.4,9.5c2.3-1.8,5.6-1.4,7.4,0.9
			c1.8,2.3,1.4,5.6-0.9,7.4c-2.3,1.8-5.6,1.3-7.4-0.9C399.7,14.5,400.1,11.2,402.4,9.5z"/>
		<path fill="#0F0F0F" stroke="#0F0F0F" stroke-width="1.3432" stroke-miterlimit="10" d="M404.3,12c0.9-0.7,2.2-0.5,2.9,0.4
			c0.7,0.9,0.5,2.2-0.4,2.9c-0.9,0.7-2.2,0.5-2.9-0.4C403.3,14,403.4,12.7,404.3,12z"/>
		<path fill="#8A7F81" stroke="#0F0F0F" stroke-width="1.0635" stroke-miterlimit="10" d="M386.8,7.9c3.1-2.4,7.6-1.9,10.1,1.3
			c2.4,3.1,1.8,7.6-1.3,10.1c-3.1,2.4-7.6,1.9-10.1-1.3C383.1,14.9,383.7,10.4,386.8,7.9z"/>
		<path fill="none" stroke="#0F0F0F" stroke-width="1.0635" stroke-miterlimit="10" d="M388,9.5c2.3-1.8,5.6-1.4,7.4,0.9
			c1.8,2.3,1.4,5.6-0.9,7.4c-2.3,1.8-5.6,1.3-7.4-0.9C385.3,14.5,385.7,11.2,388,9.5z"/>
		<path fill="#0F0F0F" stroke="#0F0F0F" stroke-width="1.3432" stroke-miterlimit="10" d="M390,12c0.9-0.7,2.2-0.5,2.9,0.4
			c0.7,0.9,0.5,2.2-0.4,2.9c-0.9,0.7-2.2,0.5-2.9-0.4C388.9,14,389.1,12.7,390,12z"/>
		<path fill="#8A7F81" stroke="#0F0F0F" stroke-width="1.0635" stroke-miterlimit="10" d="M372.5,7.9c3.1-2.4,7.6-1.9,10.1,1.3
			c2.4,3.1,1.8,7.6-1.3,10.1c-3.1,2.4-7.6,1.9-10.1-1.3C368.8,14.9,369.3,10.4,372.5,7.9z"/>
		<path fill="none" stroke="#0F0F0F" stroke-width="1.0635" stroke-miterlimit="10" d="M373.7,9.5c2.3-1.8,5.6-1.4,7.4,0.9
			c1.8,2.3,1.4,5.6-0.9,7.4c-2.3,1.8-5.6,1.3-7.4-0.9C370.9,14.5,371.4,11.2,373.7,9.5z"/>
		<path fill="#0F0F0F" stroke="#0F0F0F" stroke-width="1.3432" stroke-miterlimit="10" d="M375.6,12c0.9-0.7,2.2-0.5,2.9,0.4
			c0.7,0.9,0.5,2.2-0.4,2.9c-0.9,0.7-2.2,0.5-2.9-0.4C374.6,14,374.7,12.7,375.6,12z"/>
		<path fill="#8A7F81" stroke="#0F0F0F" stroke-width="1.0635" stroke-miterlimit="10" d="M358.1,7.9c3.1-2.4,7.6-1.9,10.1,1.3
			c2.4,3.1,1.8,7.6-1.3,10.1c-3.1,2.4-7.6,1.9-10.1-1.3C354.4,14.9,355,10.4,358.1,7.9z"/>
		<path fill="none" stroke="#0F0F0F" stroke-width="1.0635" stroke-miterlimit="10" d="M359.3,9.5c2.3-1.8,5.6-1.4,7.4,0.9
			c1.8,2.3,1.4,5.6-0.9,7.4c-2.3,1.8-5.6,1.3-7.4-0.9C356.6,14.5,357,11.2,359.3,9.5z"/>
		<path fill="#0F0F0F" stroke="#0F0F0F" stroke-width="1.3432" stroke-miterlimit="10" d="M361.3,12c0.9-0.7,2.2-0.5,2.9,0.4
			c0.7,0.9,0.5,2.2-0.4,2.9c-0.9,0.7-2.2,0.5-2.9-0.4C360.2,14,360.4,12.7,361.3,12z"/>
		<path fill="#8A7F81" stroke="#0F0F0F" stroke-width="1.0635" stroke-miterlimit="10" d="M343.8,7.9c3.1-2.4,7.6-1.9,10.1,1.3
			c2.4,3.1,1.8,7.6-1.3,10.1c-3.1,2.4-7.6,1.9-10.1-1.3C340,14.9,340.6,10.4,343.8,7.9z"/>
		<path fill="none" stroke="#0F0F0F" stroke-width="1.0635" stroke-miterlimit="10" d="M344.9,9.5c2.3-1.8,5.6-1.4,7.4,0.9
			c1.8,2.3,1.4,5.6-0.9,7.4c-2.3,1.8-5.6,1.3-7.4-0.9C342.2,14.5,342.6,11.2,344.9,9.5z"/>
		<path fill="#0F0F0F" stroke="#0F0F0F" stroke-width="1.3432" stroke-miterlimit="10" d="M346.9,12c0.9-0.7,2.2-0.5,2.9,0.4
			c0.7,0.9,0.5,2.2-0.4,2.9c-0.9,0.7-2.2,0.5-2.9-0.4C345.8,14,346,12.7,346.9,12z"/>
		<path fill="#8A7F81" stroke="#0F0F0F" stroke-width="1.0635" stroke-miterlimit="10" d="M329.4,7.9c3.1-2.4,7.6-1.9,10.1,1.3
			c2.4,3.1,1.8,7.6-1.3,10.1c-3.1,2.4-7.6,1.9-10.1-1.3C325.7,14.9,326.3,10.4,329.4,7.9z"/>
		<path fill="none" stroke="#0F0F0F" stroke-width="1.0635" stroke-miterlimit="10" d="M330.6,9.5c2.3-1.8,5.6-1.4,7.4,0.9
			c1.8,2.3,1.4,5.6-0.9,7.4c-2.3,1.8-5.6,1.3-7.4-0.9C327.9,14.5,328.3,11.2,330.6,9.5z"/>
		<path fill="#0F0F0F" stroke="#0F0F0F" stroke-width="1.3432" stroke-miterlimit="10" d="M332.5,12c0.9-0.7,2.2-0.5,2.9,0.4
			c0.7,0.9,0.5,2.2-0.4,2.9c-0.9,0.7-2.2,0.5-2.9-0.4C331.5,14,331.7,12.7,332.5,12z"/>
		<path fill="#8A7F81" stroke="#0F0F0F" stroke-width="1.0635" stroke-miterlimit="10" d="M315,7.9c3.1-2.4,7.6-1.9,10.1,1.3
			c2.4,3.1,1.8,7.6-1.3,10.1c-3.1,2.4-7.6,1.9-10.1-1.3C311.3,14.9,311.9,10.4,315,7.9z"/>
		<path fill="none" stroke="#0F0F0F" stroke-width="1.0635" stroke-miterlimit="10" d="M316.2,9.5c2.3-1.8,5.6-1.4,7.4,0.9
			c1.8,2.3,1.4,5.6-0.9,7.4c-2.3,1.8-5.6,1.3-7.4-0.9C313.5,14.5,313.9,11.2,316.2,9.5z"/>
		<path fill="#0F0F0F" stroke="#0F0F0F" stroke-width="1.3432" stroke-miterlimit="10" d="M318.2,12c0.9-0.7,2.2-0.5,2.9,0.4
			c0.7,0.9,0.5,2.2-0.4,2.9c-0.9,0.7-2.2,0.5-2.9-0.4C317.1,14,317.3,12.7,318.2,12z"/>
		<path fill="#8A7F81" stroke="#0F0F0F" stroke-width="1.0635" stroke-miterlimit="10" d="M300.7,7.9c3.1-2.4,7.7-1.9,10.1,1.3
			c2.4,3.1,1.8,7.6-1.3,10.1c-3.1,2.4-7.6,1.9-10.1-1.3C297,14.9,297.5,10.4,300.7,7.9z"/>
		<path fill="none" stroke="#0F0F0F" stroke-width="1.0635" stroke-miterlimit="10" d="M301.9,9.5c2.3-1.8,5.6-1.4,7.4,0.9
			c1.8,2.3,1.4,5.6-0.9,7.4c-2.3,1.8-5.6,1.3-7.4-0.9C299.1,14.5,299.6,11.2,301.9,9.5z"/>
		<path fill="#0F0F0F" stroke="#0F0F0F" stroke-width="1.3432" stroke-miterlimit="10" d="M303.8,12c0.9-0.7,2.2-0.5,2.9,0.4
			c0.7,0.9,0.5,2.2-0.4,2.9c-0.9,0.7-2.2,0.5-2.9-0.4C302.8,14,302.9,12.7,303.8,12z"/>
		<path fill="#8A7F81" stroke="#0F0F0F" stroke-width="1.0635" stroke-miterlimit="10" d="M286.3,7.9c3.1-2.4,7.6-1.9,10.1,1.3
			c2.4,3.1,1.8,7.6-1.3,10.1c-3.1,2.4-7.6,1.9-10.1-1.3C282.6,14.9,283.2,10.4,286.3,7.9z"/>
		<path fill="none" stroke="#0F0F0F" stroke-width="1.0635" stroke-miterlimit="10" d="M287.5,9.5c2.3-1.8,5.6-1.4,7.4,0.9
			c1.8,2.3,1.4,5.6-0.9,7.4c-2.3,1.8-5.6,1.3-7.4-0.9C284.8,14.5,285.2,11.2,287.5,9.5z"/>
		<path fill="#0F0F0F" stroke="#0F0F0F" stroke-width="1.3432" stroke-miterlimit="10" d="M289.5,12c0.9-0.7,2.2-0.5,2.9,0.4
			c0.7,0.9,0.5,2.2-0.4,2.9c-0.9,0.7-2.2,0.5-2.9-0.4C288.4,14,288.6,12.7,289.5,12z"/>
		<path fill="#8A7F81" stroke="#0F0F0F" stroke-width="1.0635" stroke-miterlimit="10" d="M272,7.9c3.1-2.4,7.6-1.9,10.1,1.3
			c2.4,3.1,1.8,7.6-1.3,10.1c-3.1,2.4-7.6,1.9-10.1-1.3C268.2,14.9,268.8,10.4,272,7.9z"/>
		<path fill="none" stroke="#0F0F0F" stroke-width="1.0635" stroke-miterlimit="10" d="M273.1,9.5c2.3-1.8,5.6-1.4,7.4,0.9
			c1.8,2.3,1.4,5.6-0.9,7.4c-2.3,1.8-5.6,1.3-7.4-0.9C270.4,14.5,270.8,11.2,273.1,9.5z"/>
		<path fill="#0F0F0F" stroke="#0F0F0F" stroke-width="1.3432" stroke-miterlimit="10" d="M275.1,12c0.9-0.7,2.2-0.5,2.9,0.4
			c0.7,0.9,0.5,2.2-0.4,2.9c-0.9,0.7-2.2,0.5-2.9-0.4C274.1,14,274.2,12.7,275.1,12z"/>
		<path fill="#8A7F81" stroke="#0F0F0F" stroke-width="1.0635" stroke-miterlimit="10" d="M257.6,7.9c3.1-2.4,7.6-1.9,10.1,1.3
			c2.4,3.1,1.8,7.6-1.3,10.1c-3.1,2.4-7.6,1.9-10.1-1.3C253.9,14.9,254.5,10.4,257.6,7.9z"/>
		<path fill="none" stroke="#0F0F0F" stroke-width="1.0635" stroke-miterlimit="10" d="M258.8,9.5c2.3-1.8,5.6-1.4,7.4,0.9
			c1.8,2.3,1.4,5.6-0.9,7.4c-2.3,1.8-5.6,1.3-7.4-0.9C256.1,14.5,256.5,11.2,258.8,9.5z"/>
		<path fill="#0F0F0F" stroke="#0F0F0F" stroke-width="1.3432" stroke-miterlimit="10" d="M260.7,12c0.9-0.7,2.2-0.5,2.9,0.4
			c0.7,0.9,0.5,2.2-0.4,2.9c-0.9,0.7-2.2,0.5-2.9-0.4C259.7,14,259.9,12.7,260.7,12z"/>
		<path fill="#8A7F81" stroke="#0F0F0F" stroke-width="1.0635" stroke-miterlimit="10" d="M243.2,7.9c3.1-2.4,7.6-1.9,10.1,1.3
			c2.4,3.1,1.8,7.6-1.3,10.1c-3.1,2.4-7.6,1.9-10.1-1.3C239.5,14.9,240.1,10.4,243.2,7.9z"/>
		<path fill="none" stroke="#0F0F0F" stroke-width="1.0635" stroke-miterlimit="10" d="M244.4,9.5c2.3-1.8,5.6-1.4,7.4,0.9
			c1.8,2.3,1.4,5.6-0.9,7.4c-2.3,1.8-5.6,1.3-7.4-0.9C241.7,14.5,242.1,11.2,244.4,9.5z"/>
		<path fill="#0F0F0F" stroke="#0F0F0F" stroke-width="1.3432" stroke-miterlimit="10" d="M246.4,12c0.9-0.7,2.2-0.5,2.9,0.4
			c0.7,0.9,0.5,2.2-0.4,2.9c-0.9,0.7-2.2,0.5-2.9-0.4C245.3,14,245.5,12.7,246.4,12z"/>
		<path fill="#8A7F81" stroke="#0F0F0F" stroke-width="1.0635" stroke-miterlimit="10" d="M228.9,7.9c3.1-2.4,7.6-1.9,10.1,1.3
			c2.4,3.1,1.8,7.6-1.3,10.1c-3.1,2.4-7.6,1.9-10.1-1.3C225.2,14.9,225.7,10.4,228.9,7.9z"/>
		<path fill="none" stroke="#0F0F0F" stroke-width="1.0635" stroke-miterlimit="10" d="M230.1,9.5c2.3-1.8,5.6-1.4,7.4,0.9
			c1.8,2.3,1.4,5.6-0.9,7.4c-2.3,1.8-5.6,1.3-7.4-0.9C227.3,14.5,227.8,11.2,230.1,9.5z"/>
		<path fill="#0F0F0F" stroke="#0F0F0F" stroke-width="1.3432" stroke-miterlimit="10" d="M232,12c0.9-0.7,2.2-0.5,2.9,0.4
			c0.7,0.9,0.5,2.2-0.4,2.9c-0.9,0.7-2.2,0.5-2.9-0.4C231,14,231.1,12.7,232,12z"/>
		<path fill="#8A7F81" stroke="#0F0F0F" stroke-width="1.0635" stroke-miterlimit="10" d="M214.5,7.9c3.1-2.4,7.6-1.9,10.1,1.3
			c2.4,3.1,1.8,7.6-1.3,10.1c-3.1,2.4-7.6,1.9-10.1-1.3C210.8,14.9,211.4,10.4,214.5,7.9z"/>
		<path fill="none" stroke="#0F0F0F" stroke-width="1.0635" stroke-miterlimit="10" d="M215.7,9.5c2.3-1.8,5.6-1.4,7.4,0.9
			c1.8,2.3,1.4,5.6-0.9,7.4c-2.3,1.8-5.6,1.3-7.4-0.9C213,14.5,213.4,11.2,215.7,9.5z"/>
		<path fill="#0F0F0F" stroke="#0F0F0F" stroke-width="1.3432" stroke-miterlimit="10" d="M217.7,12c0.9-0.7,2.2-0.5,2.9,0.4
			c0.7,0.9,0.5,2.2-0.4,2.9c-0.9,0.7-2.2,0.5-2.9-0.4C216.6,14,216.8,12.7,217.7,12z"/>
		<path fill="#8A7F81" stroke="#0F0F0F" stroke-width="1.0635" stroke-miterlimit="10" d="M200.2,7.9c3.1-2.4,7.6-1.9,10.1,1.3
			c2.4,3.1,1.8,7.6-1.3,10.1c-3.1,2.4-7.6,1.9-10.1-1.3C196.4,14.9,197,10.4,200.2,7.9z"/>
		<path fill="none" stroke="#0F0F0F" stroke-width="1.0635" stroke-miterlimit="10" d="M201.3,9.5c2.3-1.8,5.6-1.4,7.4,0.9
			c1.8,2.3,1.4,5.6-0.9,7.4c-2.3,1.8-5.6,1.3-7.4-0.9C198.6,14.5,199,11.2,201.3,9.5z"/>
		<path fill="#0F0F0F" stroke="#0F0F0F" stroke-width="1.3432" stroke-miterlimit="10" d="M203.3,12c0.9-0.7,2.2-0.5,2.9,0.4
			c0.7,0.9,0.5,2.2-0.4,2.9c-0.9,0.7-2.2,0.5-2.9-0.4C202.3,14,202.4,12.7,203.3,12z"/>
		<path fill="#8A7F81" stroke="#0F0F0F" stroke-width="1.0635" stroke-miterlimit="10" d="M185.8,7.9c3.1-2.4,7.6-1.9,10.1,1.3
			c2.4,3.1,1.8,7.6-1.3,10.1c-3.1,2.4-7.6,1.9-10.1-1.3C182.1,14.9,182.7,10.4,185.8,7.9z"/>
		<path fill="none" stroke="#0F0F0F" stroke-width="1.0635" stroke-miterlimit="10" d="M187,9.5c2.3-1.8,5.6-1.4,7.4,0.9
			c1.8,2.3,1.4,5.6-0.9,7.4c-2.3,1.8-5.6,1.3-7.4-0.9C184.3,14.5,184.7,11.2,187,9.5z"/>
		<path fill="#0F0F0F" stroke="#0F0F0F" stroke-width="1.3432" stroke-miterlimit="10" d="M188.9,12c0.9-0.7,2.2-0.5,2.9,0.4
			c0.7,0.9,0.5,2.2-0.4,2.9c-0.9,0.7-2.2,0.5-2.9-0.4C187.9,14,188.1,12.7,188.9,12z"/>
		<path fill="#8A7F81" stroke="#0F0F0F" stroke-width="1.0635" stroke-miterlimit="10" d="M171.4,7.9c3.1-2.4,7.6-1.9,10.1,1.3
			c2.4,3.1,1.8,7.6-1.3,10.1c-3.1,2.4-7.6,1.9-10.1-1.3C167.7,14.9,168.3,10.4,171.4,7.9z"/>
		<path fill="none" stroke="#0F0F0F" stroke-width="1.0635" stroke-miterlimit="10" d="M172.6,9.5c2.3-1.8,5.6-1.4,7.4,0.9
			c1.8,2.3,1.4,5.6-0.9,7.4c-2.3,1.8-5.6,1.3-7.4-0.9C169.9,14.5,170.3,11.2,172.6,9.5z"/>
		<path fill="#0F0F0F" stroke="#0F0F0F" stroke-width="1.3432" stroke-miterlimit="10" d="M174.6,12c0.9-0.7,2.2-0.5,2.9,0.4
			c0.7,0.9,0.5,2.2-0.4,2.9c-0.9,0.7-2.2,0.5-2.9-0.4C173.5,14,173.7,12.7,174.6,12z"/>
		<path fill="#8A7F81" stroke="#0F0F0F" stroke-width="1.0635" stroke-miterlimit="10" d="M157.1,7.9c3.1-2.4,7.6-1.9,10.1,1.3
			c2.4,3.1,1.8,7.6-1.3,10.1c-3.1,2.4-7.6,1.9-10.1-1.3C153.4,14.9,153.9,10.4,157.1,7.9z"/>
		<path fill="none" stroke="#0F0F0F" stroke-width="1.0635" stroke-miterlimit="10" d="M158.3,9.5c2.3-1.8,5.6-1.4,7.4,0.9
			c1.8,2.3,1.4,5.6-0.9,7.4c-2.3,1.8-5.6,1.3-7.4-0.9C155.5,14.5,156,11.2,158.3,9.5z"/>
		<path fill="#0F0F0F" stroke="#0F0F0F" stroke-width="1.3432" stroke-miterlimit="10" d="M160.2,12c0.9-0.7,2.2-0.5,2.9,0.4
			c0.7,0.9,0.5,2.2-0.4,2.9c-0.9,0.7-2.2,0.5-2.9-0.4C159.2,14,159.3,12.7,160.2,12z"/>
		<path fill="#8A7F81" stroke="#0F0F0F" stroke-width="1.0635" stroke-miterlimit="10" d="M142.7,7.9c3.1-2.4,7.6-1.9,10.1,1.3
			c2.4,3.1,1.8,7.6-1.3,10.1c-3.1,2.4-7.6,1.9-10.1-1.3C139,14.9,139.6,10.4,142.7,7.9z"/>
		<path fill="none" stroke="#0F0F0F" stroke-width="1.0635" stroke-miterlimit="10" d="M143.9,9.5c2.3-1.8,5.6-1.4,7.4,0.9
			c1.8,2.3,1.4,5.6-0.9,7.4c-2.3,1.8-5.6,1.3-7.4-0.9C141.2,14.5,141.6,11.2,143.9,9.5z"/>
		<path fill="#0F0F0F" stroke="#0F0F0F" stroke-width="1.3432" stroke-miterlimit="10" d="M145.9,12c0.9-0.7,2.2-0.5,2.9,0.4
			c0.7,0.9,0.5,2.2-0.4,2.9c-0.9,0.7-2.2,0.5-2.9-0.4C144.8,14,145,12.7,145.9,12z"/>
		<path fill="#8A7F81" stroke="#0F0F0F" stroke-width="1.0635" stroke-miterlimit="10" d="M128.4,7.9c3.1-2.4,7.6-1.9,10.1,1.3
			c2.4,3.1,1.8,7.6-1.3,10.1c-3.1,2.4-7.6,1.9-10.1-1.3C124.7,14.9,125.2,10.4,128.4,7.9z"/>
		<path fill="none" stroke="#0F0F0F" stroke-width="1.0635" stroke-miterlimit="10" d="M129.5,9.5c2.3-1.8,5.6-1.4,7.4,0.9
			c1.8,2.3,1.4,5.6-0.9,7.4c-2.3,1.8-5.6,1.3-7.4-0.9C126.8,14.5,127.3,11.2,129.5,9.5z"/>
		<path fill="#0F0F0F" stroke="#0F0F0F" stroke-width="1.3432" stroke-miterlimit="10" d="M131.5,12c0.9-0.7,2.2-0.5,2.9,0.4
			c0.7,0.9,0.5,2.2-0.4,2.9c-0.9,0.7-2.2,0.5-2.9-0.4C130.5,14,130.6,12.7,131.5,12z"/>
		<path fill="#8A7F81" stroke="#0F0F0F" stroke-width="1.0635" stroke-miterlimit="10" d="M114,7.9c3.1-2.4,7.6-1.9,10.1,1.3
			c2.4,3.1,1.8,7.6-1.3,10.1c-3.1,2.4-7.6,1.9-10.1-1.3C110.3,14.9,110.9,10.4,114,7.9z"/>
		<path fill="none" stroke="#0F0F0F" stroke-width="1.0635" stroke-miterlimit="10" d="M115.2,9.5c2.3-1.8,5.6-1.4,7.4,0.9
			c1.8,2.3,1.4,5.6-0.9,7.4c-2.3,1.8-5.6,1.3-7.4-0.9C112.5,14.5,112.9,11.2,115.2,9.5z"/>
		<path fill="#0F0F0F" stroke="#0F0F0F" stroke-width="1.3432" stroke-miterlimit="10" d="M117.1,12c0.9-0.7,2.2-0.5,2.9,0.4
			c0.7,0.9,0.5,2.2-0.4,2.9c-0.9,0.7-2.2,0.5-2.9-0.4C116.1,14,116.3,12.7,117.1,12z"/>
		<path fill="#8A7F81" stroke="#0F0F0F" stroke-width="1.0635" stroke-miterlimit="10" d="M99.6,7.9c3.1-2.4,7.6-1.9,10.1,1.3
			c2.4,3.1,1.8,7.6-1.3,10.1c-3.1,2.4-7.6,1.9-10.1-1.3C95.9,14.9,96.5,10.4,99.6,7.9z"/>
		<path fill="none" stroke="#0F0F0F" stroke-width="1.0635" stroke-miterlimit="10" d="M100.8,9.5c2.3-1.8,5.6-1.4,7.4,0.9
			c1.8,2.3,1.4,5.6-0.9,7.4c-2.3,1.8-5.6,1.3-7.4-0.9C98.1,14.5,98.5,11.2,100.8,9.5z"/>
		<path fill="#0F0F0F" stroke="#0F0F0F" stroke-width="1.3432" stroke-miterlimit="10" d="M102.8,12c0.9-0.7,2.2-0.5,2.9,0.4
			c0.7,0.9,0.5,2.2-0.4,2.9c-0.9,0.7-2.2,0.5-2.9-0.4C101.7,14,101.9,12.7,102.8,12z"/>
		<path fill="#8A7F81" stroke="#0F0F0F" stroke-width="1.0635" stroke-miterlimit="10" d="M85.3,7.9c3.1-2.4,7.6-1.9,10.1,1.3
			c2.4,3.1,1.8,7.6-1.3,10.1c-3.1,2.4-7.6,1.9-10.1-1.3C81.6,14.9,82.1,10.4,85.3,7.9z"/>
		<path fill="none" stroke="#0F0F0F" stroke-width="1.0635" stroke-miterlimit="10" d="M86.5,9.5c2.3-1.8,5.6-1.4,7.4,0.9
			c1.8,2.3,1.4,5.6-0.9,7.4c-2.3,1.8-5.6,1.3-7.4-0.9C83.8,14.5,84.2,11.2,86.5,9.5z"/>
		<path fill="#0F0F0F" stroke="#0F0F0F" stroke-width="1.3432" stroke-miterlimit="10" d="M88.4,12c0.9-0.7,2.2-0.5,2.9,0.4
			c0.7,0.9,0.5,2.2-0.4,2.9c-0.9,0.7-2.2,0.5-2.9-0.4C87.4,14,87.5,12.7,88.4,12z"/>
		<path fill="#8A7F81" stroke="#0F0F0F" stroke-width="1.0635" stroke-miterlimit="10" d="M70.9,7.9c3.1-2.4,7.6-1.9,10.1,1.3
			c2.4,3.1,1.8,7.6-1.3,10.1c-3.1,2.4-7.6,1.9-10.1-1.3C67.2,14.9,67.8,10.4,70.9,7.9z"/>
		<path fill="none" stroke="#0F0F0F" stroke-width="1.0635" stroke-miterlimit="10" d="M72.1,9.5c2.3-1.8,5.6-1.4,7.4,0.9
			c1.8,2.3,1.4,5.6-0.9,7.4c-2.3,1.8-5.6,1.3-7.4-0.9C69.4,14.5,69.8,11.2,72.1,9.5z"/>
		<path fill="#0F0F0F" stroke="#0F0F0F" stroke-width="1.3432" stroke-miterlimit="10" d="M74.1,12c0.9-0.7,2.2-0.5,2.9,0.4
			c0.7,0.9,0.5,2.2-0.4,2.9c-0.9,0.7-2.2,0.5-2.9-0.4C73,14,73.2,12.7,74.1,12z"/>
		<path fill="#8A7F81" stroke="#0F0F0F" stroke-width="1.0635" stroke-miterlimit="10" d="M56.2,6.4c3.1-2.4,7.6-1.9,10.1,1.3
			c2.4,3.1,1.8,7.6-1.3,10.1c-3.1,2.4-7.6,1.9-10.1-1.3C52.5,13.3,53.1,8.8,56.2,6.4z"/>
		<path fill="none" stroke="#0F0F0F" stroke-width="1.0635" stroke-miterlimit="10" d="M57.4,7.9c2.3-1.8,5.6-1.4,7.4,0.9
			c1.8,2.3,1.4,5.6-0.9,7.4c-2.3,1.8-5.6,1.3-7.4-0.9C54.7,13,55.1,9.7,57.4,7.9z"/>
		<path fill="#0F0F0F" stroke="#0F0F0F" stroke-width="1.3432" stroke-miterlimit="10" d="M59.4,10.5c0.9-0.7,2.2-0.5,2.9,0.4
			c0.7,0.9,0.5,2.2-0.4,2.9c-0.9,0.7-2.2,0.5-2.9-0.4C58.3,12.4,58.5,11.1,59.4,10.5z"/>
		<path fill="#8A7F81" stroke="#0F0F0F" stroke-width="1.0635" stroke-miterlimit="10" d="M41.4,5.2c3.1-2.4,7.6-1.9,10.1,1.3
			c2.4,3.1,1.8,7.6-1.3,10.1c-3.1,2.4-7.6,1.9-10.1-1.3C37.7,12.1,38.3,7.6,41.4,5.2z"/>
		<path fill="none" stroke="#0F0F0F" stroke-width="1.0635" stroke-miterlimit="10" d="M42.6,6.7C44.9,5,48.2,5.4,50,7.7
			c1.8,2.3,1.4,5.6-0.9,7.4c-2.3,1.8-5.6,1.3-7.4-0.9C39.9,11.8,40.3,8.5,42.6,6.7z"/>
		<path fill="#0F0F0F" stroke="#0F0F0F" stroke-width="1.3432" stroke-miterlimit="10" d="M44.6,9.3c0.9-0.7,2.2-0.5,2.9,0.4
			c0.7,0.9,0.5,2.2-0.4,2.9c-0.9,0.7-2.2,0.5-2.9-0.4C43.5,11.2,43.7,10,44.6,9.3z"/>
		<path fill="#8A7F81" stroke="#0F0F0F" stroke-width="1.0635" stroke-miterlimit="10" d="M27.1,3.9c3.1-2.4,7.6-1.9,10.1,1.3
			c2.4,3.1,1.8,7.6-1.3,10.1c-3.1,2.4-7.6,1.9-10.1-1.3C23.3,10.8,23.9,6.3,27.1,3.9z"/>
		<path fill="none" stroke="#0F0F0F" stroke-width="1.0635" stroke-miterlimit="10" d="M28.2,5.4c2.3-1.8,5.6-1.4,7.4,0.9
			c1.8,2.3,1.4,5.6-0.9,7.4c-2.3,1.8-5.6,1.3-7.4-0.9C25.5,10.5,25.9,7.2,28.2,5.4z"/>
		<path fill="#0F0F0F" stroke="#0F0F0F" stroke-width="1.3432" stroke-miterlimit="10" d="M30.2,7.9c0.9-0.7,2.2-0.5,2.9,0.4
			c0.7,0.9,0.5,2.2-0.4,2.9c-0.9,0.7-2.2,0.5-2.9-0.4C29.1,9.9,29.3,8.6,30.2,7.9z"/>
		<path fill="#8A7F81" stroke="#0F0F0F" stroke-width="1.0635" stroke-miterlimit="10" d="M12.2,3.2c3.1-2.4,7.6-1.9,10.1,1.3
			c2.4,3.1,1.8,7.6-1.3,10.1c-3.1,2.4-7.6,1.9-10.1-1.3C8.5,10.1,9.1,5.6,12.2,3.2z"/>
		<path fill="none" stroke="#0F0F0F" stroke-width="1.0635" stroke-miterlimit="10" d="M13.4,4.7c2.3-1.8,5.6-1.4,7.4,0.9
			c1.8,2.3,1.4,5.6-0.9,7.4c-2.3,1.8-5.6,1.3-7.4-0.9C10.7,9.8,11.1,6.5,13.4,4.7z"/>
		<path fill="#0F0F0F" stroke="#0F0F0F" stroke-width="1.3432" stroke-miterlimit="10" d="M15.3,7.2c0.9-0.7,2.2-0.5,2.9,0.4
			c0.7,0.9,0.5,2.2-0.4,2.9c-0.9,0.7-2.2,0.5-2.9-0.4C14.3,9.2,14.5,7.9,15.3,7.2z"/>
		<path fill="#8A7F81" stroke="#0F0F0F" stroke-width="1.0635" stroke-miterlimit="10" d="M458.2,18c1.2,1.6,3,2.5,4.8,2.7v-2
			c-1.3-0.2-2.5-0.9-3.3-2c-1.8-2.3-1.4-5.6,0.9-7.4c0.7-0.6,1.5-0.9,2.4-1v-2c-1.2,0.1-2.5,0.6-3.5,1.4
			C456.3,10.4,455.8,14.9,458.2,18z"/>
		<path fill="#8A7F81" stroke="#0F0F0F" stroke-width="1.0635" stroke-miterlimit="10" d="M462.3,14.8c-0.7-0.9-0.5-2.2,0.4-2.9
			c0.1-0.1,0.3-0.2,0.4-0.2V8.4c-0.8,0.1-1.6,0.4-2.4,1c-2.3,1.8-2.7,5.1-0.9,7.4c0.8,1.1,2,1.7,3.3,2v-3.3
			C462.7,15.3,462.5,15.1,462.3,14.8z"/>
		<path fill="#0F0F0F" stroke="#0F0F0F" stroke-width="1.0635" stroke-miterlimit="10" d="M462.3,14.8c0.2,0.3,0.5,0.5,0.8,0.6v-3.7
			c-0.1,0.1-0.3,0.1-0.4,0.2C461.7,12.7,461.6,14,462.3,14.8z"/>
		<path fill="#8A7F81" stroke="#0F0F0F" stroke-width="1.0635" stroke-miterlimit="10" d="M6.8,5.1C5.6,3.6,3.8,2.6,2,2.4v2
			c1.3,0.2,2.5,0.9,3.3,2c1.8,2.3,1.4,5.6-0.9,7.4c-0.7,0.6-1.5,0.9-2.4,1v2c1.2-0.1,2.5-0.6,3.5-1.4C8.7,12.8,9.3,8.3,6.8,5.1z"/>
		<path fill="#8A7F81" stroke="#0F0F0F" stroke-width="1.0635" stroke-miterlimit="10" d="M2.8,8.3c0.7,0.9,0.5,2.2-0.4,2.9
			c-0.1,0.1-0.3,0.2-0.4,0.2v3.3c0.8-0.1,1.6-0.4,2.4-1c2.3-1.8,2.7-5.1,0.9-7.4c-0.8-1.1-2-1.7-3.3-2v3.3C2.3,7.8,2.6,8,2.8,8.3z"
			/>
		<path fill="#0F0F0F" stroke="#0F0F0F" stroke-width="1.0635" stroke-miterlimit="10" d="M2.8,8.3C2.6,8,2.3,7.8,2,7.7v3.7
			c0.1-0.1,0.3-0.1,0.4-0.2C3.3,10.5,3.4,9.2,2.8,8.3z"/>
	</g>
</g>
</svg>
