<?xml version="1.0" encoding="utf-8"?>
<!DOCTYPE svg PUBLIC "-//W3C//DTD SVG 1.1//EN" "http://www.w3.org/Graphics/SVG/1.1/DTD/svg11.dtd">
<svg version="1.1" xmlns="http://www.w3.org/2000/svg" xmlns:xlink="http://www.w3.org/1999/xlink" x="0px" y="0px" width="446px"
	 height="497px" viewBox="0 0 446 497" enable-background="new 0 0 446 497" xml:space="preserve">
<g>
	<polygon fill="#121212" points="118.5,413.3 118.5,363.9 89.4,363.9 89.4,413.3 80.6,413.3 80.6,499 127.2,499 127.2,413.3 	"/>
	<path fill="#121212" d="M92.6,358.4c-0.1-7.1-0.1-18-0.1-18.7c0-7.4,3.8-20.6,10.6-25c0.5-0.3,1.1-0.3,1.5,0
		c6.8,4.4,10.6,17.6,10.6,25c0,0.8,0.1,12.2,0,18.7H92.6z"/>
	<polygon points="33.2,309.9 33.2,271.8 36.1,271.8 36.1,133.7 24.1,133.7 24.1,271.8 27,271.8 27,309.9 2,309.9 2,501.6 
		58.2,501.6 58.2,309.9 	"/>
	<line fill="none" stroke="#0F0F0F" stroke-width="3" stroke-miterlimit="10" x1="12.7" y1="101" x2="47.5" y2="101"/>
	<line fill="none" stroke="#0F0F0F" stroke-width="3" stroke-miterlimit="10" x1="12.7" y1="106.4" x2="47.5" y2="106.4"/>
	<line fill="none" stroke="#0F0F0F" stroke-width="3" stroke-miterlimit="10" x1="12.7" y1="111.9" x2="47.5" y2="111.9"/>
	<line fill="none" stroke="#0F0F0F" stroke-width="3" stroke-miterlimit="10" x1="12.7" y1="117.3" x2="47.5" y2="117.3"/>
	<line fill="none" stroke="#0F0F0F" stroke-width="3" stroke-miterlimit="10" x1="12.7" y1="122.8" x2="47.5" y2="122.8"/>
	<line fill="none" stroke="#0F0F0F" stroke-width="3" stroke-miterlimit="10" x1="12.7" y1="128.2" x2="47.5" y2="128.2"/>
	<line fill="none" stroke="#0F0F0F" stroke-width="3" stroke-miterlimit="10" x1="12.7" y1="95.5" x2="47.5" y2="95.5"/>
	<line fill="none" stroke="#0F0F0F" stroke-width="3" stroke-miterlimit="10" x1="12.7" y1="90.1" x2="47.5" y2="90.1"/>
	<line fill="none" stroke="#0F0F0F" stroke-width="3" stroke-miterlimit="10" x1="12.7" y1="84.7" x2="47.5" y2="84.7"/>
	<line fill="none" stroke="#0F0F0F" stroke-width="3" stroke-miterlimit="10" x1="12.7" y1="79.2" x2="47.5" y2="79.2"/>
	<line fill="none" stroke="#0F0F0F" stroke-width="3" stroke-miterlimit="10" x1="12.7" y1="73.8" x2="47.5" y2="73.8"/>
	<line fill="none" stroke="#0F0F0F" stroke-width="3" stroke-miterlimit="10" x1="12.7" y1="68.3" x2="47.5" y2="68.3"/>
	<line fill="none" stroke="#0F0F0F" stroke-width="3" stroke-miterlimit="10" x1="12.7" y1="62.9" x2="47.5" y2="62.9"/>
	<line fill="none" stroke="#0F0F0F" stroke-width="3" stroke-miterlimit="10" x1="12.7" y1="57.4" x2="47.5" y2="57.4"/>
	<line fill="none" stroke="#0F0F0F" stroke-width="3" stroke-miterlimit="10" x1="12.7" y1="52" x2="47.5" y2="52"/>
	<line fill="none" stroke="#0F0F0F" stroke-width="3" stroke-miterlimit="10" x1="12.7" y1="46.6" x2="47.5" y2="46.6"/>
	<line fill="none" stroke="#0F0F0F" stroke-width="3" stroke-miterlimit="10" x1="12.7" y1="41.1" x2="47.5" y2="41.1"/>
	<line fill="none" stroke="#0F0F0F" stroke-width="3" stroke-miterlimit="10" x1="12.7" y1="35.7" x2="47.5" y2="35.7"/>
	<line fill="none" stroke="#0F0F0F" stroke-width="3" stroke-miterlimit="10" x1="12.7" y1="30.2" x2="47.5" y2="30.2"/>
	<line fill="none" stroke="#0F0F0F" stroke-width="3" stroke-miterlimit="10" x1="12.7" y1="24.8" x2="47.5" y2="24.8"/>
	<line fill="none" stroke="#0F0F0F" stroke-width="3" stroke-miterlimit="10" x1="16.3" y1="19.3" x2="43.9" y2="19.3"/>
	<line fill="none" stroke="#0F0F0F" stroke-width="3" stroke-miterlimit="10" x1="18.3" y1="13.9" x2="41.9" y2="13.9"/>
	<line fill="none" stroke="#0F0F0F" stroke-width="3" stroke-miterlimit="10" x1="20" y1="8.4" x2="40.2" y2="8.4"/>
	<line fill="none" stroke="#0F0F0F" stroke-width="3" stroke-miterlimit="10" x1="23" y1="3" x2="37.1" y2="3"/>
	<path fill="none" stroke="#000000" stroke-width="3" stroke-miterlimit="10" d="M276.4,429.8h60.2c-3.2-58.3,10.4-165.6,13.9-197.2
		h-88C266,264.1,279.6,371.5,276.4,429.8z"/>
	<rect x="285.4" y="439.2" fill="#0F0F0F" width="42.2" height="8"/>
	<rect x="258.8" y="208.6" fill="#0F0F0F" width="95.4" height="16.3"/>
	<line fill="none" stroke="#000000" stroke-miterlimit="10" x1="303.3" y1="429.4" x2="315.1" y2="429.4"/>
	<line fill="none" stroke="#000000" stroke-miterlimit="10" x1="315.1" y1="429.4" x2="326.9" y2="429.4"/>
	<line fill="none" stroke="#000000" stroke-miterlimit="10" x1="291.4" y1="429.4" x2="303.3" y2="429.4"/>
	<line fill="none" stroke="#000000" stroke-miterlimit="10" x1="279.6" y1="429.4" x2="291.4" y2="429.4"/>
	<path fill="none" stroke="#000000" stroke-miterlimit="10" d="M276.9,408.6c0,4.1,0,8.1-0.1,12"/>
	<path fill="none" stroke="#000000" stroke-miterlimit="10" d="M326.9,429.4h9.6c0.1-0.3,0-0.4,0-0.4c-0.2-2.9-0.3-5.8-0.3-8.9"/>
	<path fill="none" stroke="#000000" stroke-miterlimit="10" d="M276.7,420.5c-0.1,2.9-0.2,5.7-0.3,8.5c0,0,0,0.2,0,0.4h3.2"/>
	<path fill="none" stroke="#000000" stroke-miterlimit="10" d="M276.9,408.6c0-3.8-0.1-7.7-0.1-11.7"/>
	<path fill="none" stroke="#000000" stroke-miterlimit="10" d="M337.9,359.3c0.3-4.2,0.6-8.4,0.9-12.7"/>
	<path fill="none" stroke="#000000" stroke-miterlimit="10" d="M337.2,371.9c0.2-4.1,0.5-8.3,0.7-12.5"/>
	<path fill="none" stroke="#000000" stroke-miterlimit="10" d="M276.4,385.4c0.1,3.9,0.3,7.7,0.3,11.5"/>
	<path fill="none" stroke="#000000" stroke-miterlimit="10" d="M336.2,420.1c-0.1-3.8-0.1-7.7-0.1-11.7"/>
	<path fill="none" stroke="#000000" stroke-miterlimit="10" d="M336.2,396.4c0.1-4,0.2-8,0.4-12.2"/>
	<path fill="none" stroke="#000000" stroke-miterlimit="10" d="M336.6,384.3c0.2-4.1,0.3-8.2,0.6-12.4"/>
	<path fill="none" stroke="#000000" stroke-miterlimit="10" d="M272.9,329.9c0.3,3.6,0.6,7.3,0.9,10.9"/>
	<path fill="none" stroke="#000000" stroke-miterlimit="10" d="M267.6,276.1c0.4,3.5,0.8,7,1.1,10.7"/>
	<path fill="none" stroke="#000000" stroke-miterlimit="10" d="M275.9,374.1c0.2,3.8,0.4,7.6,0.5,11.3"/>
	<path fill="none" stroke="#000000" stroke-miterlimit="10" d="M266.4,265.4c0.4,3.4,0.8,7,1.2,10.6"/>
	<path fill="none" stroke="#000000" stroke-miterlimit="10" d="M262.8,233.7c0.3,3,0.8,6.6,1.2,10.6"/>
	<path fill="none" stroke="#000000" stroke-miterlimit="10" d="M269.8,297.5c0.4,3.5,0.7,7.1,1.1,10.8"/>
	<path fill="none" stroke="#000000" stroke-miterlimit="10" d="M265.2,254.8c0.4,3.3,0.8,6.9,1.2,10.6"/>
	<path fill="none" stroke="#000000" stroke-miterlimit="10" d="M264,244.2c0.4,3.2,0.8,6.8,1.2,10.6"/>
	<path fill="none" stroke="#000000" stroke-miterlimit="10" d="M268.7,286.8c0.4,3.5,0.7,7.1,1.1,10.7"/>
	<path fill="none" stroke="#000000" stroke-miterlimit="10" d="M274.5,351.8c0.3,3.7,0.5,7.4,0.7,11.1"/>
	<path fill="none" stroke="#000000" stroke-miterlimit="10" d="M275.3,362.9c0.2,3.8,0.4,7.5,0.6,11.2"/>
	<path fill="none" stroke="#000000" stroke-miterlimit="10" d="M273.7,340.8c0.3,3.7,0.6,7.3,0.8,11"/>
	<path fill="none" stroke="#000000" stroke-miterlimit="10" d="M271.9,319c0.3,3.6,0.6,7.2,0.9,10.9"/>
	<path fill="none" stroke="#000000" stroke-miterlimit="10" d="M270.9,308.2c0.3,3.6,0.7,7.2,1,10.8"/>
	<path fill="none" stroke="#000000" stroke-miterlimit="10" d="M338.8,346.7c0.3-4.3,0.6-8.5,1-12.8"/>
	<path fill="none" stroke="#000000" stroke-miterlimit="10" d="M336.1,408.4c0-3.9,0.1-7.9,0.1-12"/>
	<line fill="none" stroke="#000000" stroke-miterlimit="10" x1="324.7" y1="230.8" x2="312.9" y2="230.8"/>
	<line fill="none" stroke="#000000" stroke-miterlimit="10" x1="336.5" y1="230.8" x2="324.7" y2="230.8"/>
	<path fill="none" stroke="#000000" stroke-miterlimit="10" d="M349.2,241.7c0.5-4.2,0.9-7.9,1.3-10.9h-2.2"/>
	<line fill="none" stroke="#000000" stroke-miterlimit="10" x1="348.3" y1="230.8" x2="336.5" y2="230.8"/>
	<path fill="none" stroke="#000000" stroke-miterlimit="10" d="M346.2,268.4c0.5-4.7,1-9.2,1.5-13.3"/>
	<path fill="none" stroke="#000000" stroke-miterlimit="10" d="M347.7,255.1c0.6-4.9,1.1-9.4,1.5-13.4"/>
	<line fill="none" stroke="#000000" stroke-miterlimit="10" x1="277.4" y1="230.8" x2="265.6" y2="230.8"/>
	<path fill="none" stroke="#000000" stroke-miterlimit="10" d="M262.8,233.7c-0.1-1-0.2-2-0.3-2.8h3.2"/>
	<path fill="none" stroke="#000000" stroke-miterlimit="10" d="M344.7,281.6c0.5-4.6,1-9,1.4-13.3"/>
	<line fill="none" stroke="#000000" stroke-miterlimit="10" x1="301.1" y1="230.8" x2="289.2" y2="230.8"/>
	<line fill="none" stroke="#000000" stroke-miterlimit="10" x1="289.2" y1="230.8" x2="277.4" y2="230.8"/>
	<line fill="none" stroke="#000000" stroke-miterlimit="10" x1="312.9" y1="230.8" x2="301.1" y2="230.8"/>
	<path fill="none" stroke="#000000" stroke-miterlimit="10" d="M342.1,307.9c0.4-4.4,0.9-8.8,1.3-13.1"/>
	<path fill="none" stroke="#000000" stroke-miterlimit="10" d="M343.4,294.8c0.5-4.5,0.9-8.9,1.4-13.2"/>
	<path fill="none" stroke="#000000" stroke-miterlimit="10" d="M340.9,320.9c0.4-4.4,0.8-8.7,1.2-13"/>
	<path fill="none" stroke="#000000" stroke-miterlimit="10" d="M339.8,333.9c0.4-4.3,0.7-8.6,1.1-12.9"/>
	<line fill="none" stroke="#000000" stroke-miterlimit="10" x1="273.7" y1="340.8" x2="346.2" y2="268.4"/>
	<line fill="none" stroke="#000000" stroke-miterlimit="10" x1="274.5" y1="351.8" x2="344.7" y2="281.6"/>
	<line fill="none" stroke="#000000" stroke-miterlimit="10" x1="275.3" y1="362.9" x2="343.4" y2="294.8"/>
	<line fill="none" stroke="#000000" stroke-miterlimit="10" x1="275.9" y1="374.1" x2="342.1" y2="307.9"/>
	<line fill="none" stroke="#000000" stroke-miterlimit="10" x1="276.4" y1="385.4" x2="340.9" y2="320.9"/>
	<line fill="none" stroke="#000000" stroke-miterlimit="10" x1="276.7" y1="396.9" x2="339.8" y2="333.9"/>
	<line fill="none" stroke="#000000" stroke-miterlimit="10" x1="338.8" y1="346.7" x2="276.9" y2="408.6"/>
	<line fill="none" stroke="#000000" stroke-miterlimit="10" x1="276.7" y1="420.5" x2="337.9" y2="359.3"/>
	<line fill="none" stroke="#000000" stroke-miterlimit="10" x1="279.6" y1="429.4" x2="337.2" y2="371.9"/>
	<line fill="none" stroke="#000000" stroke-miterlimit="10" x1="291.4" y1="429.4" x2="336.6" y2="384.3"/>
	<line fill="none" stroke="#000000" stroke-miterlimit="10" x1="303.3" y1="429.4" x2="336.2" y2="396.4"/>
	<line fill="none" stroke="#000000" stroke-miterlimit="10" x1="336.1" y1="408.4" x2="315.1" y2="429.4"/>
	<line fill="none" stroke="#000000" stroke-miterlimit="10" x1="326.9" y1="429.4" x2="336.2" y2="420.1"/>
	<line fill="none" stroke="#000000" stroke-miterlimit="10" x1="272.9" y1="329.9" x2="347.7" y2="255.1"/>
	<line fill="none" stroke="#000000" stroke-miterlimit="10" x1="271.9" y1="319" x2="349.2" y2="241.7"/>
	<line fill="none" stroke="#000000" stroke-miterlimit="10" x1="270.9" y1="308.2" x2="348.3" y2="230.8"/>
	<line fill="none" stroke="#000000" stroke-miterlimit="10" x1="269.8" y1="297.5" x2="336.5" y2="230.8"/>
	<line fill="none" stroke="#000000" stroke-miterlimit="10" x1="268.7" y1="286.8" x2="324.7" y2="230.8"/>
	<line fill="none" stroke="#000000" stroke-miterlimit="10" x1="267.6" y1="276.1" x2="312.9" y2="230.8"/>
	<line fill="none" stroke="#000000" stroke-miterlimit="10" x1="266.4" y1="265.4" x2="301.1" y2="230.8"/>
	<line fill="none" stroke="#000000" stroke-miterlimit="10" x1="265.2" y1="254.8" x2="289.2" y2="230.8"/>
	<line fill="none" stroke="#000000" stroke-miterlimit="10" x1="264" y1="244.2" x2="277.4" y2="230.8"/>
	<line fill="none" stroke="#000000" stroke-miterlimit="10" x1="262.8" y1="233.7" x2="265.6" y2="230.8"/>
	<rect x="285.6" y="454.7" fill="#0F0F0F" width="41.8" height="42.9"/>
	<path d="M400.4,269.1l17.5,0.2l-0.1,5.5h0V302h-18.8v-26.4c-19-2.1-28.9,3.4-29,3.5l-1.6-2.9l-1.7-2.9
		C367.2,273.1,378.6,266.6,400.4,269.1z"/>
	<path d="M427.4,334.8v-22.6c0-2.1-1.7-3.8-3.8-3.8h-32.1c-2.1,0-3.8,1.7-3.8,3.8v22.6c-10.1,4.6-16.7,15.6-16.7,28.1v136.2h73.1
		V362.9C444.1,350.4,437.5,339.4,427.4,334.8z"/>
	<circle cx="205.8" cy="447.9" r="50"/>
	<circle fill="#8C8083" cx="205.8" cy="447.9" r="32.9"/>
	<circle fill="none" stroke="#121212" stroke-width="3" stroke-miterlimit="10" cx="205.8" cy="447.9" r="26.6"/>
</g>
</svg>
