<?xml version="1.0" encoding="utf-8"?>
<!DOCTYPE svg PUBLIC "-//W3C//DTD SVG 1.1//EN" "http://www.w3.org/Graphics/SVG/1.1/DTD/svg11.dtd">
<svg version="1.1" xmlns="http://www.w3.org/2000/svg" xmlns:xlink="http://www.w3.org/1999/xlink" x="0px" y="0px" width="289px"
	 height="345px" viewBox="0 0 289 345" enable-background="new 0 0 289 345" xml:space="preserve">
<g>
	<g>
		<polyline fill="none" stroke="#000000" stroke-width="3" stroke-miterlimit="10" points="22.5,231.3 22.5,211.3 91.7,211.3 
			91.7,231.3 		"/>
		<line fill="none" stroke="#000000" stroke-width="3" stroke-miterlimit="10" x1="84" y1="245.6" x2="84" y2="262.6"/>
		<line fill="none" stroke="#000000" stroke-width="3" stroke-miterlimit="10" x1="75.4" y1="245.6" x2="75.4" y2="262.6"/>
		<rect x="3" y="262.6" fill="none" stroke="#000000" stroke-width="3" stroke-miterlimit="10" width="89.2" height="19.7"/>
		<polygon fill="none" stroke="#000000" stroke-width="3" stroke-miterlimit="10" points="92.2,318.1 3,318.1 3,299 92.2,299 		"/>
		<path fill="none" stroke="#000000" stroke-width="3" stroke-miterlimit="10" d="M3.8,230.7"/>
		<line fill="none" stroke="#000000" stroke-width="3" stroke-miterlimit="10" x1="66.8" y1="245.6" x2="66.8" y2="262.6"/>
		<line fill="none" stroke="#000000" stroke-width="3" stroke-miterlimit="10" x1="57.1" y1="257" x2="92.1" y2="257"/>
		<line fill="none" stroke="#000000" stroke-width="3" stroke-miterlimit="10" x1="57.1" y1="251.3" x2="92.1" y2="251.3"/>
		<line fill="none" stroke="#000000" stroke-miterlimit="10" x1="102.2" y1="195.3" x2="102.2" y2="343.5"/>
		<line fill="none" stroke="#000000" stroke-miterlimit="10" x1="84.2" y1="211.4" x2="84.2" y2="342.6"/>
		<line fill="none" stroke="#000000" stroke-miterlimit="10" x1="128.1" y1="254.8" x2="128.1" y2="342.6"/>
		<line fill="none" stroke="#000000" stroke-miterlimit="10" x1="146.1" y1="254.8" x2="146.1" y2="342.6"/>
		<line fill="none" stroke="#000000" stroke-miterlimit="10" x1="164" y1="254.8" x2="164" y2="342.6"/>
		<line fill="none" stroke="#000000" stroke-miterlimit="10" x1="181.9" y1="254.8" x2="181.9" y2="342.6"/>
		<line fill="none" stroke="#000000" stroke-miterlimit="10" x1="199.9" y1="254.8" x2="199.9" y2="342.6"/>
		<line fill="none" stroke="#000000" stroke-miterlimit="10" x1="66.3" y1="211.4" x2="66.3" y2="342.6"/>
		<line fill="none" stroke="#000000" stroke-miterlimit="10" x1="48.4" y1="211.4" x2="48.4" y2="342.6"/>
		<line fill="none" stroke="#000000" stroke-miterlimit="10" x1="30.4" y1="211.4" x2="30.4" y2="342.6"/>
		<line fill="none" stroke="#000000" stroke-miterlimit="10" x1="12.5" y1="195.4" x2="12.5" y2="262.6"/>
		<line fill="none" stroke="#000000" stroke-miterlimit="10" x1="3" y1="239.3" x2="111.8" y2="239.3"/>
		<path fill="none" stroke="#000000" stroke-width="1.6708" stroke-miterlimit="10" d="M86.4,230.2"/>
		<path fill="none" stroke="#000000" stroke-width="1.6708" stroke-miterlimit="10" d="M82.1,213.2"/>
		<line fill="none" stroke="#000000" stroke-miterlimit="10" x1="23.8" y1="221.2" x2="91.7" y2="221.2"/>
		<line fill="none" stroke="#000000" stroke-miterlimit="10" x1="12.5" y1="262.6" x2="12.5" y2="282.7"/>
		<line fill="none" stroke="#000000" stroke-miterlimit="10" x1="3" y1="272.3" x2="92.2" y2="272.3"/>
		<line fill="none" stroke="#000000" stroke-miterlimit="10" x1="3" y1="308.6" x2="92.2" y2="308.6"/>
		<line fill="none" stroke="#000000" stroke-miterlimit="10" x1="12.5" y1="298.6" x2="12.5" y2="318.6"/>
		<line fill="none" stroke="#000000" stroke-miterlimit="10" x1="92.1" y1="254.8" x2="111.8" y2="254.8"/>
		<line fill="none" stroke="#000000" stroke-miterlimit="10" x1="92.1" y1="270.3" x2="217.3" y2="270.3"/>
		<line fill="none" stroke="#000000" stroke-miterlimit="10" x1="92.1" y1="285.8" x2="217.3" y2="285.8"/>
		<line fill="none" stroke="#000000" stroke-miterlimit="10" x1="92.1" y1="301.2" x2="217.3" y2="301.2"/>
		<line fill="none" stroke="#000000" stroke-miterlimit="10" x1="92.1" y1="316.7" x2="217.3" y2="316.7"/>
		<line fill="none" stroke="#000000" stroke-miterlimit="10" x1="92.1" y1="332.2" x2="217.3" y2="332.2"/>
		<path d="M19.1,185.8c-1.1,0-2.1-0.2-3.1-0.6c-0.9-0.4-1.8-0.9-2.7-1.7l1-1.2c0.7,0.7,1.5,1.2,2.2,1.5c0.7,0.3,1.6,0.5,2.6,0.5
			c0.9,0,1.7-0.2,2.3-0.7c0.6-0.4,0.9-1,0.9-1.7v0c0-0.3-0.1-0.6-0.2-0.9c-0.1-0.3-0.3-0.5-0.6-0.7c-0.3-0.2-0.6-0.4-1.1-0.6
			c-0.5-0.2-1.1-0.3-1.8-0.5c-0.8-0.2-1.5-0.4-2.1-0.6c-0.6-0.2-1.1-0.5-1.5-0.8c-0.4-0.3-0.7-0.7-0.9-1.1c-0.2-0.4-0.3-0.9-0.3-1.5
			v0c0-0.5,0.1-1.1,0.3-1.5s0.5-0.9,1-1.2c0.4-0.3,0.9-0.6,1.5-0.8c0.6-0.2,1.2-0.3,1.8-0.3c1,0,1.9,0.1,2.7,0.4
			c0.8,0.3,1.5,0.7,2.2,1.3l-0.9,1.2c-0.7-0.5-1.3-0.9-2-1.2c-0.7-0.2-1.4-0.4-2.1-0.4c-0.9,0-1.7,0.2-2.2,0.7
			c-0.5,0.4-0.8,1-0.8,1.6v0c0,0.3,0.1,0.6,0.2,0.9c0.1,0.3,0.3,0.5,0.6,0.7c0.3,0.2,0.7,0.4,1.2,0.6c0.5,0.2,1.1,0.4,1.9,0.5
			c1.6,0.3,2.7,0.8,3.5,1.4c0.7,0.6,1.1,1.5,1.1,2.5v0c0,0.6-0.1,1.1-0.4,1.6s-0.6,0.9-1,1.3c-0.4,0.3-0.9,0.6-1.5,0.8
			C20.5,185.7,19.8,185.8,19.1,185.8z"/>
		<path d="M26.4,171h1.5v10.1l5.6-5.8h1.9l-4.3,4.4l4.5,5.9h-1.8l-3.7-4.8l-2.1,2.1v2.7h-1.5V171z"/>
		<path d="M37.4,171.3h1.8v1.7h-1.8V171.3z M37.5,175.3H39v10.4h-1.5V175.3z"/>
		<path d="M42.1,175.3h1.5v1.8c0.3-0.6,0.8-1,1.4-1.4c0.6-0.4,1.3-0.6,2.2-0.6c0.6,0,1.2,0.1,1.7,0.3c0.5,0.2,0.9,0.5,1.2,0.9
			c0.3,0.4,0.6,0.8,0.8,1.3c0.2,0.5,0.3,1.1,0.3,1.7v6.4h-1.5v-6c0-1-0.2-1.7-0.7-2.3c-0.5-0.6-1.2-0.8-2.1-0.8
			c-0.4,0-0.9,0.1-1.2,0.2c-0.4,0.2-0.7,0.4-1,0.7c-0.3,0.3-0.5,0.6-0.7,1c-0.2,0.4-0.2,0.8-0.2,1.3v5.9h-1.5V175.3z"/>
		<path d="M54.3,171.6h10.1v1.4h-8.6v4.8h7.7v1.4h-7.7v4.9h8.7v1.4H54.3V171.6z"/>
		<path d="M70.4,185.8c-0.4,0-0.8-0.1-1.2-0.2s-0.7-0.3-0.9-0.5c-0.3-0.2-0.5-0.5-0.6-0.9c-0.1-0.4-0.2-0.8-0.2-1.3v-6.3h-1.4v-1.4
			h1.4v-3.1H69v3.1h3.3v1.4H69v6c0,0.6,0.2,1.1,0.5,1.3s0.7,0.4,1.3,0.4c0.3,0,0.5,0,0.8-0.1c0.2-0.1,0.5-0.1,0.8-0.3v1.3
			c-0.3,0.1-0.6,0.3-0.9,0.3C71.1,185.8,70.8,185.8,70.4,185.8z"/>
		<path d="M74.6,171h1.5v6.1c0.3-0.6,0.8-1,1.4-1.4c0.6-0.4,1.3-0.6,2.2-0.6c0.6,0,1.2,0.1,1.7,0.3c0.5,0.2,0.9,0.5,1.2,0.9
			c0.3,0.4,0.6,0.8,0.8,1.3c0.2,0.5,0.3,1.1,0.3,1.7v6.4h-1.5v-6c0-1-0.2-1.7-0.7-2.3c-0.5-0.6-1.2-0.8-2.1-0.8
			c-0.4,0-0.9,0.1-1.2,0.2c-0.4,0.2-0.7,0.4-1,0.7c-0.3,0.3-0.5,0.6-0.7,1c-0.2,0.4-0.2,0.8-0.2,1.3v5.9h-1.5V171z"/>
		<path d="M86.5,171.3h1.8v1.7h-1.8V171.3z M86.6,175.3h1.5v10.4h-1.5V175.3z"/>
		<path d="M95.9,185.8c-0.8,0-1.5-0.1-2.1-0.4c-0.6-0.3-1.2-0.7-1.7-1.2c-0.5-0.5-0.8-1.1-1.1-1.7c-0.3-0.7-0.4-1.3-0.4-2.1v0
			c0-0.7,0.1-1.4,0.4-2.1c0.3-0.7,0.6-1.2,1.1-1.7c0.5-0.5,1-0.9,1.7-1.2c0.6-0.3,1.4-0.4,2.1-0.4c0.5,0,0.9,0,1.3,0.1
			c0.4,0.1,0.8,0.2,1.1,0.4c0.3,0.2,0.6,0.4,0.9,0.6c0.3,0.2,0.5,0.5,0.8,0.7l-1,1.1c-0.4-0.4-0.9-0.8-1.4-1.1
			c-0.5-0.3-1.1-0.5-1.8-0.5c-0.5,0-1,0.1-1.5,0.3c-0.5,0.2-0.8,0.5-1.2,0.9c-0.3,0.4-0.6,0.8-0.8,1.3c-0.2,0.5-0.3,1-0.3,1.6v0
			c0,0.6,0.1,1.1,0.3,1.6c0.2,0.5,0.5,0.9,0.8,1.3c0.3,0.4,0.7,0.7,1.2,0.9c0.5,0.2,1,0.3,1.5,0.3c0.7,0,1.3-0.1,1.8-0.4
			c0.5-0.3,1-0.7,1.4-1.1l1,0.9c-0.5,0.6-1.1,1.1-1.8,1.4C97.7,185.7,96.9,185.8,95.9,185.8z"/>
		<rect x="3.4" y="162.7" fill="none" stroke="#000000" stroke-width="3" stroke-miterlimit="10" width="108" height="31.5"/>
		<polyline fill="none" stroke="#000000" stroke-width="3" stroke-miterlimit="10" points="92.2,343.5 3,343.5 3,231.7 110.9,231.7 
			111,343.5 92.2,343.5 92.2,245.6 3.8,245.6 		"/>
		<rect x="3.8" y="245.6" width="55.9" height="17"/>
		<line fill="none" stroke="#000000" stroke-width="3" stroke-miterlimit="10" x1="192.1" y1="285" x2="192.1" y2="302"/>
		<line fill="none" stroke="#000000" stroke-width="3" stroke-miterlimit="10" x1="183.6" y1="285" x2="183.6" y2="302"/>
		<line fill="none" stroke="#000000" stroke-width="3" stroke-miterlimit="10" x1="175" y1="285" x2="175" y2="302"/>
		<line fill="none" stroke="#000000" stroke-width="3" stroke-miterlimit="10" x1="165.3" y1="296.4" x2="200.2" y2="296.4"/>
		<line fill="none" stroke="#000000" stroke-width="3" stroke-miterlimit="10" x1="165.3" y1="290.7" x2="200.2" y2="290.7"/>
		<rect x="112" y="285" width="55.9" height="17"/>
		<line fill="none" stroke="#000000" stroke-width="3" stroke-miterlimit="10" x1="84" y1="282.2" x2="84" y2="299.2"/>
		<line fill="none" stroke="#000000" stroke-width="3" stroke-miterlimit="10" x1="75.4" y1="282.2" x2="75.4" y2="299.2"/>
		<line fill="none" stroke="#000000" stroke-width="3" stroke-miterlimit="10" x1="66.8" y1="282.2" x2="66.8" y2="299.2"/>
		<line fill="none" stroke="#000000" stroke-width="3" stroke-miterlimit="10" x1="57.1" y1="293.5" x2="92.1" y2="293.5"/>
		<line fill="none" stroke="#000000" stroke-width="3" stroke-miterlimit="10" x1="57.1" y1="287.9" x2="92.1" y2="287.9"/>
		<line fill="none" stroke="#000000" stroke-miterlimit="10" x1="12.5" y1="231.9" x2="12.5" y2="299.2"/>
		<rect x="3.8" y="282.2" width="55.9" height="17"/>
		<line fill="none" stroke="#000000" stroke-width="3" stroke-miterlimit="10" x1="84" y1="318.8" x2="84" y2="335.8"/>
		<line fill="none" stroke="#000000" stroke-width="3" stroke-miterlimit="10" x1="75.4" y1="318.8" x2="75.4" y2="335.8"/>
		<line fill="none" stroke="#000000" stroke-width="3" stroke-miterlimit="10" x1="66.8" y1="318.8" x2="66.8" y2="335.8"/>
		<line fill="none" stroke="#000000" stroke-width="3" stroke-miterlimit="10" x1="57.1" y1="330.1" x2="92.1" y2="330.1"/>
		<line fill="none" stroke="#000000" stroke-width="3" stroke-miterlimit="10" x1="57.1" y1="324.4" x2="92.1" y2="324.4"/>
		<line fill="none" stroke="#000000" stroke-miterlimit="10" x1="12.5" y1="268.5" x2="12.5" y2="335.8"/>
		<rect x="3.8" y="318.8" width="55.9" height="17"/>
		<line fill="none" stroke="#000000" stroke-width="3" stroke-miterlimit="10" x1="92.2" y1="335.8" x2="3.8" y2="335.8"/>
		<rect x="111.8" y="254.8" fill="none" stroke="#000000" stroke-width="3" stroke-miterlimit="10" width="105.5" height="88.6"/>
		<line fill="none" stroke="#000000" stroke-width="3" stroke-miterlimit="10" x1="200.2" y1="285.8" x2="112" y2="285.8"/>
		<line fill="none" stroke="#000000" stroke-width="3" stroke-miterlimit="10" x1="200.2" y1="316.7" x2="112" y2="316.7"/>
		<line fill="none" stroke="#000000" stroke-width="3" stroke-miterlimit="10" x1="200.2" y1="301.2" x2="112" y2="301.2"/>
		<line fill="none" stroke="#000000" stroke-width="3" stroke-miterlimit="10" x1="200.2" y1="332.1" x2="112" y2="332.1"/>
		<line fill="none" stroke="#000000" stroke-width="3" stroke-miterlimit="10" x1="200.2" y1="285.8" x2="200.2" y2="301.2"/>
		<line fill="none" stroke="#000000" stroke-width="3" stroke-miterlimit="10" x1="192.1" y1="316" x2="192.1" y2="332.9"/>
		<line fill="none" stroke="#000000" stroke-width="3" stroke-miterlimit="10" x1="183.6" y1="316" x2="183.6" y2="332.9"/>
		<line fill="none" stroke="#000000" stroke-width="3" stroke-miterlimit="10" x1="175" y1="316" x2="175" y2="332.9"/>
		<line fill="none" stroke="#000000" stroke-width="3" stroke-miterlimit="10" x1="165.3" y1="327.3" x2="200.2" y2="327.3"/>
		<line fill="none" stroke="#000000" stroke-width="3" stroke-miterlimit="10" x1="165.3" y1="321.6" x2="200.2" y2="321.6"/>
		<rect x="112" y="316" width="55.9" height="17"/>
		<line fill="none" stroke="#000000" stroke-width="3" stroke-miterlimit="10" x1="200.2" y1="316.7" x2="200.2" y2="332.1"/>
	</g>
</g>
</svg>
