<?xml version="1.0" encoding="utf-8"?>
<!DOCTYPE svg PUBLIC "-//W3C//DTD SVG 1.1//EN" "http://www.w3.org/Graphics/SVG/1.1/DTD/svg11.dtd">
<svg version="1.1" xmlns="http://www.w3.org/2000/svg" xmlns:xlink="http://www.w3.org/1999/xlink" x="0px" y="0px" width="246px"
	 height="12px" viewBox="0 0 246 12" enable-background="new 0 0 246 12" xml:space="preserve">
<g>
	<g>
		<path d="M244.129,4.312c-1.793-0.287-3.572-0.782-5.318-1.538c-2.176-1.02-4.516-1.544-6.819-1.544c-0.001,0-0.005,0-0.005,0
			c-0.002,0-0.004,0-0.007,0c-2.271,0-4.613,0.526-6.767,1.519c-2.793,1.23-5.661,1.845-8.56,1.852
			c-2.891-0.006-5.846-0.64-8.563-1.834c-1.691-0.788-3.481-1.268-5.279-1.447c-0.046-0.007-0.092-0.015-0.138-0.019v0.01
			c-0.434-0.039-0.867-0.077-1.3-0.08l-0.064,0.002c-0.009,0-0.019-0.002-0.028-0.002l-0.097,0.003
			c-0.021-0.002-0.041-0.004-0.062-0.004c-0.007,0-0.014,0.001-0.022,0.001c-0.012,0-0.026,0-0.039-0.001
			c-0.011,0-0.023,0.002-0.034,0.002c-0.019,0-0.038,0-0.056-0.002c-2.281,0.011-4.583,0.535-6.681,1.513
			c-2.327,1.01-4.683,1.583-7.041,1.771v0.02c-0.515,0.04-1.03,0.066-1.544,0.066c-2.895-0.001-5.773-0.614-8.572-1.827
			c-2.176-1.02-4.515-1.544-6.819-1.544c-0.002,0-0.005,0-0.005,0c-0.002,0-0.004,0-0.007,0c-0.326,0-0.655,0.035-0.983,0.056V1.282
			c-0.025,0.001-0.05,0.006-0.075,0.008c-0.394,0.028-0.786,0.068-1.179,0.126c-0.234,0.032-0.467,0.075-0.7,0.118
			c-0.228,0.043-0.454,0.083-0.681,0.136c-1.099,0.249-2.183,0.6-3.222,1.079c-2.795,1.231-5.667,1.847-8.568,1.852
			c-2.887-0.007-5.845-0.641-8.559-1.835c-0.516-0.241-1.041-0.444-1.573-0.629c-0.085-0.029-0.17-0.054-0.257-0.082
			c-0.429-0.141-0.861-0.265-1.294-0.369c-0.133-0.033-0.268-0.062-0.4-0.092c-0.415-0.088-0.831-0.159-1.249-0.214
			c-0.119-0.016-0.236-0.037-0.355-0.051c-0.07-0.008-0.142-0.021-0.212-0.028v0.017c-0.465-0.045-0.929-0.083-1.393-0.086
			l-0.048,0.001c-0.007,0-0.014-0.001-0.021-0.001l-0.121,0.003l-0.012,0c-0.041,0-0.072-0.001-0.107-0.004
			c-0.001,0-0.003,0-0.005,0c-0.001,0-0.003,0-0.005,0c-0.007,0-0.014,0.001-0.023,0.001c-0.012,0-0.025,0-0.038-0.001
			c-0.271,0.001-0.544,0.034-0.817,0.049c-0.293,0.017-0.587,0.021-0.881,0.054c-0.139,0.016-0.275,0.049-0.412,0.069
			c-1.574,0.221-3.131,0.663-4.586,1.341c-1.276,0.555-2.563,0.978-3.855,1.283c-0.43,0.098-0.86,0.194-1.292,0.266
			c-0.017,0.003-0.034,0.006-0.051,0.009c-0.584,0.095-1.17,0.166-1.755,0.212v0.007c-0.569,0.047-1.139,0.079-1.707,0.079
			c-2.895-0.001-5.772-0.614-8.572-1.827c-2.176-1.02-4.515-1.544-6.819-1.544c-0.001,0-0.005,0-0.005,0c-0.001,0-0.003,0-0.007,0
			c-2.271,0-4.613,0.526-6.767,1.519c-2.793,1.23-5.66,1.845-8.56,1.852c-2.891-0.006-5.845-0.64-8.563-1.834
			c-1.691-0.788-3.481-1.268-5.28-1.447c-0.045-0.007-0.092-0.015-0.137-0.019v0.01c-0.434-0.039-0.868-0.077-1.301-0.08
			l-0.063,0.002c-0.009,0-0.019-0.002-0.029-0.002l-0.096,0.003c-0.021-0.002-0.042-0.004-0.062-0.004
			c-0.007,0-0.014,0.001-0.022,0.001c-0.013,0-0.026,0-0.039-0.001c-0.011,0-0.022,0.002-0.034,0.002c-0.019,0-0.038,0-0.056-0.002
			c-2.281,0.011-4.583,0.535-6.681,1.513c-2.327,1.01-4.683,1.583-7.04,1.771v0.02c-0.515,0.04-1.03,0.066-1.545,0.066
			c-2.896-0.001-5.772-0.614-8.571-1.827c-2.177-1.02-4.516-1.544-6.82-1.544c-0.001,0-0.005,0-0.005,0c-0.001,0-0.003,0-0.007,0
			c-2.271,0-4.613,0.526-6.767,1.519c-2.808,1.236-5.688,1.852-8.603,1.853c-2.899-0.001-5.871-0.637-8.597-1.836
			c-0.516-0.241-1.041-0.444-1.573-0.629c-0.085-0.029-0.171-0.054-0.257-0.082c-0.429-0.141-0.86-0.265-1.294-0.369
			c-0.133-0.033-0.268-0.062-0.401-0.092c-0.414-0.088-0.83-0.159-1.249-0.214c-0.119-0.016-0.236-0.037-0.355-0.051
			c-0.07-0.008-0.142-0.021-0.212-0.028v0.017c-0.465-0.045-0.929-0.083-1.393-0.086l-0.161,0.004l-0.042-0.001
			c-0.041,0-0.072-0.001-0.107-0.004c-2.281,0.011-4.583,0.535-6.681,1.513c-2.327,1.01-4.683,1.583-7.04,1.771v6.374
			c1.678-0.171,3.352-0.608,4.99-1.319c2.386-1.116,5.034-1.766,7.811-1.899l0.407-0.02c0.184-0.013,0.367-0.023,0.553-0.026
			c0,0,0.601-0.067,1.662,0.009v0.037c1.092,0.079,2.178,0.263,3.251,0.513c1.17,0.299,2.504,0.742,3.978,1.409
			c1.868,0.849,3.945,1.308,5.971,1.385l0.721,0.009c0.005,0,0.012,0.001,0.019,0.001c0.001,0,0.004,0,0.01,0h0.044
			c0.259-0.001,0.516-0.03,0.776-0.044c0.287-0.016,0.576-0.018,0.863-0.05c0.081-0.009,0.162-0.029,0.246-0.039
			c1.566-0.196,3.115-0.616,4.627-1.281c2.759-1.271,5.816-1.954,8.807-1.955c3.026,0.001,6.089,0.685,8.86,1.979
			c2.106,0.914,4.312,1.377,6.536,1.376c0.883,0,1.769-0.095,2.653-0.242c0.062-0.011,0.125-0.018,0.187-0.029
			c1.272-0.229,2.54-0.593,3.787-1.133c0.207-0.096,0.425-0.169,0.633-0.258c0.418-0.179,0.836-0.359,1.271-0.51
			c0.425-0.147,0.864-0.266,1.3-0.386c0.222-0.061,0.44-0.13,0.665-0.185c0.558-0.133,1.127-0.241,1.701-0.329
			c0.087-0.013,0.173-0.03,0.259-0.042c0.633-0.089,1.273-0.151,1.924-0.184c0.114-0.006,0.228-0.015,0.341-0.02l0.126-0.005
			c0.186-0.013,0.369-0.023,0.554-0.026c0,0,0.02-0.002,0.049-0.005c0.644,0.001,1.284,0.038,1.921,0.098
			c0.298,0.028,0.595,0.062,0.892,0.105c0.153,0.021,0.308,0.04,0.461,0.064c0.463,0.077,0.926,0.169,1.385,0.274
			c0.116,0.026,0.23,0.059,0.346,0.087c1.115,0.298,2.366,0.72,3.745,1.344c1.593,0.724,3.336,1.147,5.071,1.309
			c0.063,0.007,0.126,0.01,0.189,0.016c0.236,0.02,0.474,0.051,0.709,0.06l0.721,0.009c0.005,0,0.012,0.001,0.019,0.001
			c0.002,0,0.005,0,0.011,0h0.044c0.006,0,0.012-0.001,0.017-0.001l0.075,0.001c2.199-0.009,4.386-0.485,6.497-1.414
			c2.481-1.144,5.208-1.807,7.903-1.93V7.641c0.276-0.012,0.552-0.024,0.827-0.024c3.027,0.001,6.089,0.685,8.861,1.979
			c2.106,0.914,4.312,1.377,6.535,1.376c0.569,0,1.139-0.032,1.709-0.094v0.009c1.678-0.171,3.352-0.608,4.989-1.319
			c2.386-1.116,5.034-1.766,7.811-1.899l0.408-0.02c0.183-0.013,0.367-0.023,0.553-0.026c0,0,0.029-0.003,0.038-0.004
			c3.006,0.013,5.955,0.674,8.765,1.972c0.394,0.172,0.796,0.325,1.203,0.466c0.191,0.068,0.382,0.129,0.574,0.189
			c0.243,0.075,0.484,0.141,0.729,0.205c0.231,0.059,0.46,0.119,0.692,0.168c0.289,0.062,0.577,0.122,0.868,0.167v-0.012
			c0.09,0.014,0.181,0.023,0.271,0.037c0.126,0.018,0.251,0.035,0.377,0.05c0.425,0.054,0.849,0.098,1.271,0.114l0.796,0.01
			c0.002,0,0.005,0,0.007,0c0.003,0,0.005,0,0.008,0c0.001,0,0.004,0,0.01,0h0.043c0.26-0.001,0.517-0.03,0.777-0.044
			c0.287-0.016,0.576-0.018,0.863-0.05c0.082-0.009,0.163-0.029,0.247-0.039c1.566-0.196,3.116-0.616,4.626-1.281
			c1.361-0.627,2.796-1.109,4.258-1.439c0.416-0.091,0.832-0.176,1.25-0.243c0.213-0.034,0.427-0.061,0.641-0.089
			c0.539-0.069,1.078-0.128,1.617-0.155c0.348-0.018,0.694-0.03,1.04-0.03c3.026,0.001,6.089,0.685,8.86,1.979
			c2.106,0.914,4.312,1.377,6.536,1.376c0.883,0,1.769-0.095,2.652-0.242c0.062-0.011,0.125-0.018,0.188-0.029
			c1.272-0.229,2.54-0.593,3.786-1.133c0.207-0.096,0.425-0.169,0.633-0.258c0.418-0.179,0.836-0.359,1.27-0.51
			c0.425-0.147,0.864-0.266,1.3-0.386c0.222-0.061,0.441-0.13,0.665-0.185c0.558-0.133,1.126-0.241,1.7-0.329
			c0.087-0.013,0.173-0.03,0.259-0.042c0.633-0.089,1.274-0.151,1.924-0.184c0.114-0.006,0.228-0.015,0.341-0.02l0.126-0.005
			c0.186-0.013,0.369-0.023,0.554-0.026c0,0,0.02-0.002,0.049-0.005c0.644,0.001,1.284,0.038,1.921,0.098
			c0.298,0.028,0.595,0.062,0.892,0.105c0.154,0.021,0.308,0.04,0.461,0.064c0.463,0.077,0.926,0.169,1.386,0.274
			c0.115,0.026,0.23,0.059,0.345,0.087c1.115,0.298,2.367,0.72,3.745,1.344c1.593,0.724,3.337,1.147,5.072,1.309
			c0.063,0.007,0.125,0.01,0.189,0.016c0.236,0.02,0.474,0.051,0.71,0.06l0.721,0.009c0.005,0,0.012,0.001,0.019,0.001
			c0.001,0,0.005,0,0.011,0h0.043c0.006,0,0.012-0.001,0.018-0.001l0.075,0.001c2.199-0.009,4.385-0.485,6.497-1.414
			c2.481-1.144,5.208-1.807,7.903-1.93V7.641c0.276-0.012,0.552-0.024,0.827-0.024c3.026,0.001,6.089,0.685,8.86,1.979
			c1.072,0.465,2.171,0.811,3.284,1.04V4.312z"/>
	</g>
</g>
</svg>
