<?xml version="1.0" encoding="utf-8"?>
<!DOCTYPE svg PUBLIC "-//W3C//DTD SVG 1.1//EN" "http://www.w3.org/Graphics/SVG/1.1/DTD/svg11.dtd">
<svg version="1.1" xmlns="http://www.w3.org/2000/svg" xmlns:xlink="http://www.w3.org/1999/xlink" x="0px" y="0px" width="609px"
	 height="400px" viewBox="0 0 609 400" enable-background="new 0 0 609 400" xml:space="preserve">
<g>
	<g id="_x31__1_">
		<rect x="3" y="156.2" fill="#8C8083" stroke="#000000" stroke-width="3" stroke-miterlimit="10" width="246" height="183.9"/>
		<g>
			<path fill="#0F0F0F" d="M56.9,214.5c-1.5,1.2-3.6,1.8-6.3,1.8h-5.2v9h-5.2v-25.1H51c2.5,0,4.5,0.6,5.9,1.9c1.5,1.3,2.2,3.3,2.2,6
				C59.2,211.2,58.4,213.3,56.9,214.5z M52.9,205.5c-0.7-0.6-1.6-0.8-2.8-0.8h-4.7v7.4h4.7c1.2,0,2.1-0.3,2.8-0.9s1-1.6,1-2.9
				C53.9,206.9,53.6,206,52.9,205.5z"/>
			<path fill="#0F0F0F" d="M79.5,200.9c0.9,0.4,1.7,1,2.4,1.8c0.5,0.6,1,1.3,1.3,2.1c0.3,0.8,0.5,1.7,0.5,2.6c0,1.2-0.3,2.4-0.9,3.5
				c-0.6,1.2-1.6,2-3,2.4c1.2,0.5,2,1.1,2.5,2c0.5,0.9,0.7,2.2,0.7,3.9v1.7c0,1.1,0,1.9,0.1,2.3c0.1,0.6,0.5,1.1,1,1.4v0.6h-5.8
				c-0.2-0.6-0.3-1-0.3-1.3c-0.1-0.7-0.2-1.4-0.2-2.2l0-2.3c0-1.6-0.3-2.7-0.8-3.2c-0.5-0.5-1.5-0.8-3-0.8h-5.1v9.8h-5.1v-25.1h12
				C77.2,200.3,78.5,200.5,79.5,200.9z M68.6,204.6v6.7h5.6c1.1,0,2-0.1,2.5-0.4c1-0.5,1.5-1.4,1.5-2.8c0-1.5-0.5-2.5-1.4-3.1
				c-0.5-0.3-1.3-0.4-2.4-0.4H68.6z"/>
			<path fill="#0F0F0F" d="M107.9,223.1c-1.9,2-4.6,2.9-8.2,2.9s-6.3-1-8.2-2.9c-2.5-2.4-3.8-5.9-3.8-10.4c0-4.6,1.3-8.1,3.8-10.4
				c1.9-2,4.6-2.9,8.2-2.9s6.3,1,8.2,2.9c2.5,2.3,3.8,5.8,3.8,10.4C111.7,217.3,110.4,220.8,107.9,223.1z M104.6,219.3
				c1.2-1.5,1.8-3.7,1.8-6.5c0-2.8-0.6-5-1.8-6.5c-1.2-1.5-2.9-2.3-5-2.3c-2.1,0-3.7,0.8-5,2.3s-1.9,3.7-1.9,6.5
				c0,2.8,0.6,5,1.9,6.5s2.9,2.3,5,2.3C101.8,221.6,103.4,220.9,104.6,219.3z"/>
			<path fill="#0F0F0F" d="M130.4,200.8c1.8,0.6,3.2,1.6,4.3,3.2c0.9,1.2,1.5,2.6,1.8,4.1s0.5,2.8,0.5,4.2c0,3.3-0.7,6.2-2,8.5
				c-1.8,3.1-4.6,4.7-8.4,4.7h-10.8v-25.1h10.8C128.1,200.3,129.4,200.5,130.4,200.8z M120.8,204.6V221h4.8c2.5,0,4.2-1.2,5.2-3.7
				c0.5-1.3,0.8-2.9,0.8-4.8c0-2.6-0.4-4.5-1.2-5.9c-0.8-1.4-2.4-2.1-4.8-2.1H120.8z"/>
			<path fill="#0F0F0F" d="M140.9,200.3h5.3v15.4c0,1.7,0.2,3,0.6,3.8c0.6,1.4,2,2.1,4.1,2.1c2.1,0,3.5-0.7,4.1-2.1
				c0.4-0.8,0.6-2.1,0.6-3.8v-15.4h5.3v15.4c0,2.7-0.4,4.7-1.2,6.2c-1.5,2.7-4.5,4.1-8.8,4.1s-7.3-1.4-8.8-4.1
				c-0.8-1.5-1.2-3.6-1.2-6.2V200.3z"/>
			<path fill="#0F0F0F" d="M168.5,202.9c2-2.1,4.6-3.1,7.7-3.1c4.2,0,7.2,1.4,9.2,4.2c1.1,1.6,1.6,3.1,1.7,4.7h-5.2
				c-0.3-1.2-0.8-2.1-1.3-2.7c-0.9-1.1-2.3-1.6-4.2-1.6c-1.9,0-3.3,0.8-4.4,2.3c-1.1,1.5-1.6,3.7-1.6,6.5s0.6,4.9,1.7,6.3
				s2.6,2.1,4.3,2.1c1.8,0,3.2-0.6,4.1-1.8c0.5-0.6,1-1.6,1.3-2.9h5.2c-0.4,2.7-1.6,5-3.4,6.7c-1.8,1.7-4.2,2.6-7.1,2.6
				c-3.6,0-6.4-1.2-8.4-3.5c-2-2.3-3.1-5.5-3.1-9.6C165,208.6,166.2,205.3,168.5,202.9z"/>
			<path fill="#0F0F0F" d="M209.6,200.3v4.4h-7.5v20.7h-5.3v-20.7h-7.5v-4.4H209.6z"/>
			<path fill="#0F0F0F" d="M52.5,234.1v4.4H45v20.7h-5.3v-20.7h-7.5v-4.4H52.5z"/>
			<path fill="#0F0F0F" d="M74.2,238.6H60.9v5.3h12.2v4.4H60.9v6.5h13.9v4.5h-19v-25.1h18.4V238.6z"/>
			<path fill="#0F0F0F" d="M82.6,251.5c0.2,1.1,0.5,2,1,2.6c0.9,1,2.4,1.6,4.5,1.6c1.3,0,2.3-0.1,3.1-0.4c1.5-0.5,2.2-1.5,2.2-2.9
				c0-0.8-0.4-1.5-1.1-1.9c-0.7-0.4-1.9-0.8-3.5-1.2l-2.7-0.6c-2.7-0.6-4.5-1.2-5.5-1.9c-1.7-1.2-2.5-3-2.5-5.4
				c0-2.2,0.8-4.1,2.5-5.6s4.1-2.2,7.3-2.2c2.7,0,5,0.7,6.9,2.1c1.9,1.4,2.9,3.4,3,6.1h-5c-0.1-1.5-0.8-2.6-2-3.2
				c-0.8-0.4-1.9-0.6-3.1-0.6c-1.4,0-2.5,0.3-3.3,0.8c-0.8,0.5-1.2,1.3-1.2,2.3c0,0.9,0.4,1.6,1.2,2c0.5,0.3,1.6,0.6,3.3,1l4.4,1
				c1.9,0.5,3.4,1.1,4.3,1.8c1.5,1.2,2.2,2.9,2.2,5.1c0,2.3-0.9,4.2-2.7,5.7s-4.3,2.3-7.5,2.3c-3.3,0-5.9-0.7-7.8-2.2
				c-1.9-1.5-2.8-3.5-2.8-6.2H82.6z"/>
			<path fill="#0F0F0F" d="M120.4,234.1v4.4h-7.5v20.7h-5.3v-20.7H100v-4.4H120.4z"/>
			<path fill="#0F0F0F" d="M127.2,251.5c0.2,1.1,0.5,2,1,2.6c0.9,1,2.4,1.6,4.5,1.6c1.3,0,2.3-0.1,3.1-0.4c1.5-0.5,2.2-1.5,2.2-2.9
				c0-0.8-0.4-1.5-1.1-1.9c-0.7-0.4-1.9-0.8-3.5-1.2l-2.7-0.6c-2.7-0.6-4.5-1.2-5.5-1.9c-1.7-1.2-2.5-3-2.5-5.4
				c0-2.2,0.8-4.1,2.5-5.6s4.1-2.2,7.3-2.2c2.7,0,5,0.7,6.9,2.1c1.9,1.4,2.9,3.4,3,6.1h-5c-0.1-1.5-0.8-2.6-2-3.2
				c-0.8-0.4-1.9-0.6-3.1-0.6c-1.4,0-2.5,0.3-3.3,0.8c-0.8,0.5-1.2,1.3-1.2,2.3c0,0.9,0.4,1.6,1.2,2c0.5,0.3,1.6,0.6,3.3,1l4.4,1
				c1.9,0.5,3.4,1.1,4.3,1.8c1.5,1.2,2.2,2.9,2.2,5.1c0,2.3-0.9,4.2-2.7,5.7s-4.3,2.3-7.5,2.3c-3.3,0-5.9-0.7-7.8-2.2
				c-1.9-1.5-2.8-3.5-2.8-6.2H127.2z"/>
			<path fill="#0F0F0F" d="M175.8,257c-1.9,2-4.6,2.9-8.2,2.9s-6.3-1-8.2-2.9c-2.5-2.4-3.8-5.9-3.8-10.4c0-4.6,1.3-8.1,3.8-10.4
				c1.9-2,4.6-2.9,8.2-2.9s6.3,1,8.2,2.9c2.5,2.3,3.8,5.8,3.8,10.4C179.6,251.1,178.3,254.6,175.8,257z M172.5,253.2
				c1.2-1.5,1.8-3.7,1.8-6.5c0-2.8-0.6-5-1.8-6.5c-1.2-1.5-2.9-2.3-5-2.3c-2.1,0-3.7,0.8-5,2.3s-1.9,3.7-1.9,6.5
				c0,2.8,0.6,5,1.9,6.5s2.9,2.3,5,2.3C169.6,255.5,171.3,254.7,172.5,253.2z"/>
			<path fill="#0F0F0F" d="M183.5,234.1h5.5l10,17.5v-17.5h4.9v25.1h-5.2l-10.2-17.8v17.8h-4.9V234.1z"/>
			<path fill="#0F0F0F" d="M54.1,268H60l8.9,25.1h-5.7l-1.7-5.2h-9.2l-1.7,5.2h-5.5L54.1,268z M53.7,283.6h6.4l-3.2-9.9L53.7,283.6z
				"/>
			<path fill="#0F0F0F" d="M72,268h5.5l10,17.5V268h4.9v25.1h-5.2l-10.2-17.8v17.8H72V268z"/>
			<path fill="#0F0F0F" d="M102.1,293.1h-5.2V268h5.2V293.1z"/>
			<path fill="#0F0F0F" d="M123.6,268h7.6v25.1h-4.9v-17c0-0.5,0-1.2,0-2.1c0-0.9,0-1.6,0-2l-4.8,21.1h-5.1l-4.7-21.1
				c0,0.5,0,1.2,0,2c0,0.9,0,1.6,0,2.1v17h-4.9V268h7.6l4.6,19.8L123.6,268z"/>
			<path fill="#0F0F0F" d="M143.2,268h5.9l8.9,25.1h-5.7l-1.7-5.2h-9.2l-1.7,5.2h-5.5L143.2,268z M142.9,283.6h6.4l-3.2-9.9
				L142.9,283.6z"/>
			<path fill="#0F0F0F" d="M161.3,268h5.2v20.6H179v4.5h-17.8V268z"/>
			<path fill="#0F0F0F" d="M186.4,285.3c0.2,1.1,0.5,2,1,2.6c0.9,1,2.4,1.6,4.5,1.6c1.3,0,2.3-0.1,3.1-0.4c1.5-0.5,2.2-1.5,2.2-2.9
				c0-0.8-0.4-1.5-1.1-1.9c-0.7-0.4-1.9-0.8-3.5-1.2l-2.7-0.6c-2.7-0.6-4.5-1.2-5.5-1.9c-1.7-1.2-2.5-3-2.5-5.4
				c0-2.2,0.8-4.1,2.5-5.6s4.1-2.2,7.3-2.2c2.7,0,5,0.7,6.9,2.1c1.9,1.4,2.9,3.4,3,6.1h-5c-0.1-1.5-0.8-2.6-2-3.2
				c-0.8-0.4-1.9-0.6-3.1-0.6c-1.4,0-2.5,0.3-3.3,0.8c-0.8,0.5-1.2,1.3-1.2,2.3c0,0.9,0.4,1.6,1.2,2c0.5,0.3,1.6,0.6,3.3,1l4.4,1
				c1.9,0.5,3.4,1.1,4.3,1.8c1.5,1.2,2.2,2.9,2.2,5.1c0,2.3-0.9,4.2-2.7,5.7s-4.3,2.3-7.5,2.3c-3.3,0-5.9-0.7-7.8-2.2
				c-1.9-1.5-2.8-3.5-2.8-6.2H186.4z"/>
		</g>
	</g>
</g>
</svg>
