<?xml version="1.0" encoding="utf-8"?>
<!DOCTYPE svg PUBLIC "-//W3C//DTD SVG 1.1//EN" "http://www.w3.org/Graphics/SVG/1.1/DTD/svg11.dtd">
<svg version="1.1" xmlns="http://www.w3.org/2000/svg" xmlns:xlink="http://www.w3.org/1999/xlink" x="0px" y="0px" width="609px"
	 height="400px" viewBox="0 0 609 400" enable-background="new 0 0 609 400" xml:space="preserve">
<g>
	<g id="_x32_">
		<rect x="224.8" y="386.2" fill="#0F0F0F" width="353.1" height="14.3"/>
		<path d="M308.3,171.3h0.7c0-0.1,0-0.1,0.1-0.1C309,171.1,308.5,171.2,308.3,171.3z"/>
		<path d="M323.9,166.8h1.4c0,0.1,0,0.1,0,0.2c0.4,0,0.6-0.1,1-0.2h4.5h7.7H354c-0.3-0.4-0.6-0.7-0.9-1H340h-2.7h-0.5H335h-1.1h-7.7
			h-1.7h-0.7h-4.2c-0.1,0.1-0.2,0.2-0.3,0.4c-0.1,0.2-0.2,0.5-0.4,0.6h4.7C323.7,167,323.8,166.9,323.9,166.8z"/>
		<path d="M404.6,320.4c0.1,0,0.1-0.1,0.1-0.2h-0.4C404.4,320.4,404.5,320.5,404.6,320.4z"/>
		<path d="M425.2,172.3h3.6h1.3h7.8c0-0.1,0-0.2,0-0.4c0-0.2,0-0.4,0.1-0.6h-8.1h-1h-2.5h-0.6h-0.3h-1.1c0,0.1,0,0.1,0,0.2
			c0.1,0.2,0,0.5-0.1,0.8c0,0.1,0,0.1-0.1,0.2C424.1,172.7,425.1,173,425.2,172.3z"/>
		<path d="M448,116.5h0.6C448.2,116.3,447.9,116.2,448,116.5z"/>
		<path d="M285.8,291.8c0,0-0.1,0-0.1,0.1L285.8,291.8C285.8,291.8,285.8,291.8,285.8,291.8L285.8,291.8z"/>
		<path d="M516,352.1c0,0.4,0.1,0.7,0.8,0.7c0.9,0.1,2.6,0.3,3.4-0.1c0.5-0.2,1.5,0,2,0.1c0.7,0.1,1.3-0.1,2-0.3
			c0.4-0.1,0.7-0.2,0.7,0.2c0,0.1,0,0.2,0,0.3h4.3c0.3-0.4,0.7-0.5,1.1-0.8l0.2,0.1c0.8,0.6,1,0.5,2,0.2c0.4-0.1,0.6-0.3,0.9-0.5
			H516z"/>
		<path d="M500.8,341.1c0,0.6,1.3,0.9,1.8,0.9c0.3,0,0.1-0.5,0-0.9H500.8z"/>
		<path d="M510.8,341.4c-0.1-0.1-0.1-0.2-0.1-0.2h-1.9c0-0.1,0-0.1-0.1-0.2c-0.5-0.4-0.8-0.2-1.1,0.2h-2.1c0.2,0.3,0.4,0.6,0.5,1
			h1.3h2.5h1.9C511.5,341.9,511.1,341.7,510.8,341.4z"/>
		<path d="M452.7,341.1h-13.6c0.1,0.1,0.2,0.2,0.3,0.3c0.4,0.4,1.2,0.4,1.7,0.6c0.1,0,0.2,0,0.3,0.1h12.3c0-0.1,0-0.3-0.1-0.4
			C453.3,341.4,453,341.2,452.7,341.1z"/>
		<path d="M296,336.3c0,0.1,0.1,0.2,0.1,0.3h11.2h5h15.1c0.1-0.3,0.1-0.7,0.3-1h-32.3C295.8,335.9,295.9,336.2,296,336.3z"/>
		<path d="M530.6,336.6h0.9c0.2-0.2,0.3-0.4,0.4-0.6c0.1-0.1,0.2-0.2,0.4-0.4h-0.9h-19.9H511H508h-8.7c0.4,0.3,0.7,0.6,0.9,1h8.5
			H530.6z"/>
		<path d="M441.6,335.6h-8.1c-0.2,0.3-0.3,0.7-0.4,1h20.7l0.3-0.7l0.2-0.3h-8.6H441.6z"/>
		<path d="M457.9,331.2h4.7c0-0.2,0-0.6,0-1h-5.2C457.9,330.4,458.4,330.6,457.9,331.2z"/>
		<path d="M492.2,330.2H490c0,0.1,0,0.3,0,0.4c0,0.3,0.2,0.2,0.3,0c0.2-0.4,0.4-0.5,0.6-0.1c0.1,0.2,0.1,0.4,0.3,0.3
			c0.3-0.2,0.6,0.2,0.9,0.2c0.8,0.2,0.2-0.4,0-0.7L492.2,330.2z"/>
		<path d="M294.3,330.2c0.1,0.3,0.3,0.7,0.5,1h41.3c0-0.1-0.1-0.2-0.1-0.3c0-0.2,0.1-0.4,0.2-0.7H294.3z"/>
		<path d="M516.2,331.2h0.7c0.1-0.4,0.4-0.7,0.3-1h-1.7h-5h-2h-1h-11c-0.1,0.3-0.2,0.7-0.3,1h13.3H516.2z"/>
		<path d="M411.4,325.5c0.4,0,0.4-0.5,0.4-0.9h-1C411,324.9,411.3,325.6,411.4,325.5z"/>
		<path d="M403.5,324.7c0.1,0.2,0.3,0.3,0.6,0.4c0,0.1,0,0.2-0.1,0.2c-0.1,0.2-0.7-0.2-0.8-0.2c-0.6,0.1-0.3,0.1-0.2,0.4
			c0,0.1,0,0.1,0,0.2h4.8c0-0.1,0.1-0.3,0.2-0.5c0.1-0.1,0-0.3,0-0.5H403.5z"/>
		<path d="M458.5,324.7c0.1,0.2,0.2,0.3,0.4,0.5c0.3,0.2,0.6,0.4,0.7,0.5h4.1h1h1.2l0.3-0.3c0.1-0.1,0.1-0.4,0.1-0.7H458.5z"/>
		<path d="M276.2,325.4c0.4,0.2,2.1-0.4,2.6-0.5c0.8-0.2,1.3,0.2,2,0.6c0.1,0.1,0.2,0.1,0.4,0.2h61.1c0.3-0.3,0.5-0.7,0.9-1h-66.6
			C276.3,325,276.1,325.3,276.2,325.4z"/>
		<path d="M516.5,325.7h1.2c-0.3-0.3-0.6-0.6-0.8-1h-1.4c-0.3-0.3-0.8-0.1-1.3,0h-0.8H511h-17.8h-1.8H491c-0.1,0.1-0.1,0.2-0.2,0.3
			c-0.1,0.3-0.2,0.5-0.4,0.7h0.9h2.4h20.2H516.5z"/>
		<path d="M463.1,320c-0.8-0.1-1.3-0.3-1.6-0.7h-5.6c0,0.3-0.1,0.7,0.1,1h7.8C463.6,320.1,463.3,320,463.1,320z"/>
		<path d="M506.3,319.2h-18.2c0.1,0.1,0.3,0.2,0.4,0.3l0.7,0.7h17.5C506.5,319.9,506.8,319.5,506.3,319.2z"/>
		<path d="M404.7,319.6c0,0.2,0.1,0.4,0,0.6h7.5c0-0.2,0-0.4,0-0.6c0-0.1,0-0.3,0-0.4h-7.6C404.6,319.4,404.6,319.5,404.7,319.6z"/>
		<path d="M485,319.2L485,319.2c0.5,0.1,1.1,0.3,1.5,0.2c0,0,0-0.1-0.1-0.2H485z"/>
		<path d="M404,320c0,0.1,0,0.2-0.1,0.3h0.4C404.2,320.1,404.1,319.9,404,320z"/>
		<path d="M342,319.2h-63.1c-0.1,0.3-0.2,0.7-0.3,1h63.7c0-0.1-0.1-0.2-0.1-0.3C342.2,319.7,342.1,319.4,342,319.2z"/>
		<path d="M280.3,314.7h62.3c0.2-0.3,0.4-0.7,0.6-1h-62.9C280.4,314.1,280.4,314.4,280.3,314.7z"/>
		<path d="M403.2,314c0,0.2,0.5,0.3,0.7,0.7h8.4l0.3-0.7c0-0.1,0.1-0.2,0.2-0.3h-9.6C403.2,313.8,403.2,313.9,403.2,314z"/>
		<path d="M462.5,313.7h-13.4c0,0.3-0.1,0.5-0.3,0.7c-0.1,0.1-0.1,0.2-0.1,0.3H462h9.5h2.5c0.1-0.3,0.2-0.7,0.2-1h-3.1H462.5z"/>
		<path d="M526.9,314.7h1.1h0.9h2.9c-0.1-0.2-0.2-0.5-0.4-0.5c-0.3-0.1-0.7-0.2-1-0.5h-4h-21.2h-17.6c0.1,0.3,0.4,0.7,0.5,1h17.5
			H526.9z"/>
		<path d="M521.9,308.3h-6.8h-0.3h-3.7h-0.6c-0.1-0.1-0.2-0.1-0.2-0.1c-1-0.2-1.9-0.2-2.2,0.1h-2.9h-2.3H492c0,0.1,0,0.2,0,0.2
			c-0.1,0.3-0.1,0.5-0.1,0.8h10.9h4.7h0.9h3.1h1.2h7.7h1.3c0,0,0,0,0,0h0.8c0-0.1-0.1-0.2-0.1-0.4c0-0.2,0.1-0.4,0.1-0.6H521.9z"/>
		<path d="M412.2,308.5L412.2,308.5c-0.3,0-0.6,0.1-0.9,0c-0.1,0-0.2-0.1-0.2-0.3h-4.3c-0.2,0.2-0.4,0.4-0.6,0.5
			c-0.3,0.2-0.6,0.4-0.9,0.5h6.3C412,309.1,412.3,308.8,412.2,308.5z"/>
		<path d="M441.9,308.3C441.9,308.3,441.9,308.3,441.9,308.3c0.2,0.5,0.9,0.6,0.9,0.8c0,0,0,0.1,0,0.2h27.3
			c-0.4-0.2-0.7-0.3-1.2-0.5c-0.4-0.1-0.8-0.3-1.2-0.5H441.9z"/>
		<path d="M277.2,309.3h1.1h1.4h67l0.8-1h-71C276.5,308.8,276.7,309.1,277.2,309.3z"/>
		<path d="M407.7,303.8h2c0.1-0.1,0.2-0.2,0.2-0.4c0.1-0.3-0.1-0.5-0.2-0.6h-3.5C406.2,303.2,407.1,303.5,407.7,303.8z"/>
		<path d="M456,303c-0.1-0.1-0.2-0.2-0.3-0.2h-24.2l0.8,1h25.3C457,303.6,456.5,303.3,456,303z"/>
		<path d="M496,303.4c-0.1,0.1-0.2,0.3-0.3,0.4h14.7c-0.3-0.3-0.5-0.6-0.4-1h-13.5C496.3,303,496.2,303.2,496,303.4z"/>
		<path d="M278.3,303.6c0,0.1,0,0.1-0.1,0.1h73.1c0.1-0.1,0.1-0.1,0.2-0.2c0.4-0.5,2.5-0.7,4-0.8h-75.9
			C279.2,303.2,278.8,303.6,278.3,303.6z"/>
		<path d="M405.7,298c0.1,0,0.5,0.1,0.7,0.3h4.9c0.2-0.3,0.3-0.6,0.3-1h-6.4C405.2,297.7,405.2,297.9,405.7,298z"/>
		<path d="M505.4,297.7c-0.5,0.2-0.7,0.4-1,0.6h14.3h0.6h6.8c0.1-0.2,0.2-0.3,0.3-0.4c0.2-0.2,0.4-0.4,0.6-0.6h-18.5
			c-0.3,0.2-0.5,0.3-0.8,0.3C506.8,297.9,506.1,297.5,505.4,297.7z"/>
		<path d="M282.1,298.3h84.5c0.4-0.3,0.8-0.7,1.2-0.8c0.2,0,0.4-0.1,0.5-0.2h-85.7L282.1,298.3z"/>
		<path d="M446.6,297.3h-20.7c0.2,0.4,0.5,0.7,0.7,1h21.1C447.3,297.9,447,297.4,446.6,297.3z"/>
		<path d="M440.7,291.8h-21.1c0.1,0.2,0.2,0.4,0.4,0.6c0.2,0.1,0.5,0.3,0.7,0.4h20.4C440.9,292.5,440.8,292.2,440.7,291.8z"/>
		<path d="M368.4,292.4c0-0.2-0.1-0.4-0.1-0.6h-82.5c0,0.3-0.1,0.6-0.3,1h83c0,0,0,0,0,0C368.4,292.7,368.4,292.5,368.4,292.4z"/>
		<path d="M528.7,292.8c-0.2-0.3-0.5-0.6-0.6-0.8c0-0.1,0-0.2,0-0.2h-5c0.3,0.3,0.7,0.6,0.7,1H528.7z"/>
		<path d="M284.9,292.2c0,0,0.5-0.3,0.7-0.4H285C284.9,292,284.9,292.1,284.9,292.2z"/>
		<path d="M409.2,292.6c-0.5-0.2-1.1,0-1.7,0.2h3.2c0-0.2,0-0.5,0.1-0.6c0,0,0-0.2,0.1-0.4h-1c0.1,0.1,0.2,0.2,0.2,0.4
			C410.1,292.7,409.4,292.7,409.2,292.6z"/>
		<path d="M384.9,287.2c0.1,0,0.2,0.1,0.3,0.1h6.2c-0.1-0.3-0.4-0.7,0-1c0,0,0,0,0,0h-8.5C383.4,287.3,384,287.1,384.9,287.2z"/>
		<path d="M439.2,286.6c0-0.1,0-0.2,0-0.2h-22.7c0.2,0.3,0.5,0.7,0.7,1h22.4C439.4,287.1,439.3,286.8,439.2,286.6z"/>
		<path d="M286,287.3h82.5c0.3-0.4,0.4-0.7,0.6-1h-83L286,287.3z"/>
		<path d="M431.5,280.9h-17c0.2,0.3,0.3,0.6,0.5,1h17.8C432.3,281.6,431.9,281.2,431.5,280.9z"/>
		<path d="M286.5,281.9h115c0.1-0.1,0.2-0.1,0.3-0.2c0.3-0.2,0.4-0.5,0.5-0.8H286.6C286.5,281.2,286.5,281.5,286.5,281.9z"/>
		<path d="M287,276.4h1h36.3c0.1-0.1,0.2-0.2,0.3-0.4c0.2-0.2-1.2-0.8-1.8-0.3c-0.3,0.2-0.9-0.3-1.5-0.2c-1.1,0.2-2,0.1-2.8-0.1
			h-29.7c0.2-0.3,0.4-0.5-0.1-0.4c-0.3,0-0.6,0.2-0.9,0.4h-1.1c0,0.1-0.1,0.1-0.1,0.2c0,0.4,0,0.7,0.1,0.8H287z"/>
		<path d="M338.9,276.4h90.3c-0.1-0.3-0.1-0.7-0.2-1h-89.7C339.2,275.7,339.1,276.1,338.9,276.4z"/>
		<path d="M340.6,270.9h89.6c-0.1-0.1-0.3-0.2-0.5-0.3c-0.2-0.1-0.6-0.4-0.9-0.7h-87.9C340.7,270.2,340.6,270.6,340.6,270.9z"/>
		<path d="M293.6,270.9L293.6,270.9h11.8c0,0,0,0-0.1,0c-1.4-0.3-2.8-0.1-4.1-0.3c-0.2,0-0.5-0.3-0.8-0.6H294h-2.3H289h-1h-0.6
			c-0.1,0-0.2,0-0.2,0c-0.3,0.1,0.3,0.7,0.4,0.8c-0.1,0.1-0.6,0.1-0.9,0.1H293.6z"/>
		<path d="M341.5,265.4h3.7h0.6h88.4h1.9h0.4h1.7h10.5c0.1-0.1,0.2-0.2,0.3-0.3c0.4-0.3,0.9-0.5,1.3-0.7H345.6H345h-3.2
			C341.7,264.8,341.6,265.1,341.5,265.4z"/>
		<path d="M474.1,258.9h-15.9h-4.7H343.1c0.4,0.2,0.9,0.5,1,0.8l0.1,0.2h106.7h8.6h12.8C473.1,259.7,473.8,259.5,474.1,258.9z"/>
		<path d="M343.7,254.5h140.8c0.1-0.3,0.3-0.7,0.4-1H343.8C343.7,253.8,343.7,254.2,343.7,254.5z"/>
		<path d="M338.5,248c0.1,0.3,0.3,0.7,0.5,0.9c0,0,0,0,0,0.1h148c0.3-0.3,0.5-0.7,0.7-1H338.5z"/>
		<path d="M336.9,243.5h1.6h1.5h148.9c0.1,0,0.1,0,0.2-0.1c0.3-0.1,0.5-0.5,0.6-0.9H336.9c0,0.1,0.1,0.2,0,0.3
			C336.8,243.1,336.8,243.4,336.9,243.5z"/>
		<path d="M493.8,237.9c-0.2-0.4-0.5-0.6-0.9-0.9H331c0.1,0.2,0.1,0.4,0.2,0.5c0.4,0.6,1-0.1,1.5,0c0.2,0.1-0.1,0.5,0.6,0.4
			c0.4,0,0.5,0,0.5,0h160.1C493.8,238,493.8,238,493.8,237.9z"/>
		<path d="M342.2,231.6h-0.7h-3.8h-0.8h-9.6h-0.8h-0.9c-0.2,0.1-0.3,0.2-0.3,0.3c0.2,0.1,0.9,0.4,1.1,0.7h162.6c0-0.1,0-0.1,0.1-0.2
			c0.1-0.3,0.2-0.5,0.3-0.8H345.3h-2.2H342.2z"/>
		<path d="M351.4,226.1h-7.3c0.1,0.4,0.4,0.5,0.5,1h7.9c0.1,0.2,0.2,0.3,0.3,0.3l1.7-0.3h137.2c-0.1-0.1-0.2-0.3-0.3-0.5
			c-0.1-0.2-0.1-0.3-0.2-0.5H357.1H351.4z"/>
		<path d="M364.5,220.7c-0.3,0.4-1,0.6-1.5,0.9h128.7c0.1-0.2,0.2-0.3,0.3-0.5l0.3-0.5H364.6C364.6,220.6,364.6,220.7,364.5,220.7z"
			/>
		<path d="M365.8,216.1h129.4c0.4-0.4,0.9-0.7,1.2-1H366.1C366.1,215.4,365.9,215.7,365.8,216.1z"/>
		<path d="M328.7,209.6c-0.6,0.4-1.2,0.7-1.7,1h37.9h13.5h117.4c-0.4-0.2-0.5-0.6-0.7-1H381.4h-1.1h-3.5H365H328.7z"/>
		<path d="M492.7,204.6l0-0.4H383.2c-0.3,0.3-0.5,0.7-0.8,1h110.3C492.6,205,492.6,204.8,492.7,204.6z"/>
		<path d="M365.7,204.2h-22.6c-0.5,0.3-1,0.7-1.6,1h22c0.1,0,0.3,0,0.4,0C364.7,205.1,365.3,204.7,365.7,204.2z"/>
		<path d="M389.1,199.7h2h99.8c-0.3-0.2-0.6-0.3-1-0.5c-0.3-0.1-0.3-0.3-0.2-0.5H391h-2.4h-3.2c0,0.2,0,0.3,0,0.5c0,0.2,0,0.4,0,0.5
			H389.1z"/>
		<path d="M328.2,199.3c0.1,0.1,0.2,0.2,0.3,0.3h39.8c0-0.3,0-0.6,0-1h-39.6C328.6,199,327.7,199.1,328.2,199.3z"/>
		<path d="M405,194.2c0.1,0.1,0.3,0.2,0.5,0.3c0.7,0.1,0.7,0,0.6-0.3h1.2h0.3h84.5c0.1-0.3,0.1-0.6,0.1-1c0,0,0,0,0,0h-51h-0.4
			h-33.2h-0.4H406H405h-5.1c0,0.1-0.2,0.1-0.7,0.2c0,0.2,0,0.5,0,0.8H405z"/>
		<path d="M336.8,194.2h23.3c0.2-0.3,0.5-0.5,0.6-0.6c0.1-0.1,0.4-0.2,0.7-0.4h-24.9C336.5,193.8,337.5,193.9,336.8,194.2z"/>
		<path d="M304,194.2c-0.1,0-0.2,0-0.3,0.1H314c0.1-0.2,0.3-0.4,0.5-0.5c0.6,0,0.5,0.6,1.4,0.1c0.4-0.2,0.4-0.4,0.4-0.7h-13.9
			c-0.2,0.1-0.6,0.1-0.7,0.1c-0.2,0.1-0.5,0.2-0.1,0.3c0.7,0.1,1.5,0,2.2-0.1c0.3-0.1,0.9-0.4,1.1-0.1
			C305.3,193.9,304.4,194.1,304,194.2z"/>
		<path d="M490.4,187.7h-48.8c0,0-0.1,0-0.1,0c-0.4,0.3-1.3,0.5-1.7,1H491C490.9,188.4,490.6,188.1,490.4,187.7z"/>
		<path d="M419.4,188.7c0.2,0.4,1.2,0.7,1.8,0.3c1-0.5,0.6-0.3,1.6,0c0.9,0.3,1.1,0,1.2-0.3h12.1h0.7h1.5c0,0,0,0,0,0
			c-0.1-0.2-0.2-0.4-0.3-0.5l-0.2-0.5h-0.5h-1.5h-11h-3.7h-11.4c0,0.2-0.5,0.6-0.3,1H419.4z"/>
		<path d="M300.7,188.1c0.8,0.3,1.8,0.4,2.6,0.6h22.8c0.2-0.2,0.5-0.5,0.8-0.8c0.1-0.1,0.1-0.1,0.1-0.2h-22h-2.2h-2
			C300.5,187.8,300.3,187.9,300.7,188.1z"/>
		<path d="M344.6,187.7h-1h-0.9h-1h-5.8c0.2,0.2,0.5,0.3,0.7,0.3c0,0,0,0,0,0c0,0.2-0.2,0.5-0.4,0.7h24.2c-0.2-0.4-0.4-0.7-0.6-1
			H344.6z"/>
		<path d="M492.4,182.2h-26h-5h-9.2c-0.2,0.1-0.3,0.1-0.5,0.2c-0.9,0.1-1.1,0-1.7,0.7c0,0-0.1,0.1-0.1,0.1h12.3
			c0.4,0.2,0.9,0.3,1.8,0.3c0.5,0,0.9-0.1,1.2-0.3h23.3c0.8-0.3,0.8-0.6,1.9-0.5C491.5,182.8,491.9,182.6,492.4,182.2z"/>
		<path d="M345.6,182.8c-0.3,0-0.9,0.2-1,0.5h15.7c-0.1-0.3-0.3-0.6-0.5-1h-13.3C346.4,182.7,346.4,182.7,345.6,182.8z"/>
		<path d="M309.3,182.2c-0.3,0.3-0.6,0.7-0.8,1h19.1c0-0.4,0-0.7,0.1-1H309.3z"/>
		<path d="M409.4,183.2h6.5c0-0.4-0.2-0.7-0.5-1h-6.6C408.9,182.5,409.1,182.8,409.4,183.2C409.3,183.2,409.3,183.2,409.4,183.2z"/>
		<path d="M327.4,177.8h0.8h0.2c0.2-0.1,0.2-0.7,0.2-0.9l0,0c0.4,0.5,0.9,0.5,1.5,0.4c0.3,0,0.4-0.3,0.6-0.5h-23.9
			c0,0.3-0.3,0.7-0.2,1H327.4z"/>
		<path d="M498.5,176.8h-15.5c0,0.3,0,0.7-0.1,1h15.5C498.5,177.4,498.5,177.1,498.5,176.8z"/>
		<path d="M422.5,177.5c0.4,0.1,0.7,0,1.1,0c0.2,0,0.4,0.1,0.7,0.1c0.2,0,0.8-0.3,0.9,0c0,0.1,0,0.1,0,0.2h1.7c0-0.1,0-0.2,0.2-0.3
			c0.4-0.4,1.2-0.3,1.7-0.7h-6.8C422.1,177.1,422.3,177.4,422.5,177.5z"/>
		<path d="M339.2,176.8C339.2,176.8,339.2,176.8,339.2,176.8c-0.5,0.4-0.2,0.6-0.1,1h4.6h11.9c-0.2-0.3-0.2-0.7-0.3-1h-12.2H339.2z"
			/>
		<path d="M413.9,176.8h-5.7c0.1,0.4,0.1,0.8,0.1,1c0,0,0,0,0,0h4.6h2.8h3.9c0-0.4,0-0.7,0-1h-4.3H413.9z"/>
		<path d="M473.8,171.5c0.1,0.3,0.2,0.5,0.3,0.8h26c0.1,0,0.1-0.1,0.2-0.2c0.2-0.2,0.3-0.5,0.4-0.8h-26.9
			C473.8,171.4,473.8,171.4,473.8,171.5z"/>
		<path d="M415.5,171.3c0,0,0.1,0,0.1,0h-10.2c0,0.4,0,0.7,0,1h10.1C415.5,171.9,415.2,171.4,415.5,171.3z"/>
		<path d="M415.9,171.3c0.3,0,0.6,0.2,0.9,0H415.9z"/>
		<path d="M419.6,171.8c0-0.1,0-0.3,0-0.5h-0.6c0,0.2-0.1,0.4,0,0.6c0,0.1,0,0.1,0,0.1l0.3,0.1C419.4,172.1,419.6,171.9,419.6,171.8
			z"/>
		<path d="M336.4,172.3h0.6h0.4h2.1h1h2.4h1.9h9.8c0-0.3,0-0.7,0.1-1h-18.6C336.4,171.6,336.4,171.9,336.4,172.3z"/>
		<path d="M308.2,171.3C308.2,171.3,308.3,171.3,308.2,171.3l-0.2,0C308.1,171.3,308.1,171.3,308.2,171.3z"/>
		<path d="M316.1,172.3c0.1,0.2,0.1,0.4,0.3,0.3c0.2-0.1,1.1-0.1,1.1-0.3h15.6c0-0.1,0-0.2-0.1-0.2c-0.3,0-1.4,0.3-1.4-0.1
			c0-0.3,0.2-0.4,0.4-0.6h-15.4h-3.5H309c-0.1,0.3-0.1,0.8-0.7,0.7c-0.3,0-1.4-0.2-1.2,0.3H316.1z"/>
		<path d="M472,165.8C472,165.8,472,165.8,472,165.8c0.1,0.3,0.2,0.7,0.4,1h28c0.1-0.3,0.2-0.6,0.2-1H472z"/>
		<path d="M421.6,166.4c0-0.3-0.1-0.5-0.3-0.6h-14.9c0,0,0,0,0,0c0.7,0.7,0.2,0.6-0.2,0.7c-0.1,0-0.2,0.1-0.2,0.3h15.4
			C421.5,166.7,421.5,166.6,421.6,166.4z"/>
		<path d="M448.3,166.8h0.4c0.2-0.3,0.3-0.6,0.4-1h-0.7h-1.2h-17.7c0.1,0.1,0.3,0.3,0.4,0.4c0.1,0.1,0.1,0.3,0.2,0.6h16.8H448.3z"/>
		<path d="M506.2,160.7l0.3-0.4h-35.4c-0.1,0.3-0.1,0.7-0.1,1h35C506.1,161.1,506.1,160.9,506.2,160.7z"/>
		<path d="M349,160.3h-9.2h-0.6h-0.6h-3.4h-0.7c0,0,0,0.1,0,0.1c-0.2,0.3-0.3,0.5-0.6,0.6l-0.2,0.3h0.8h1.5h0.5h1.1h1.5h1.4h10.9
			c-0.8-0.9-0.2-0.9-1.7-1C349.3,160.4,349.2,160.4,349,160.3z"/>
		<path d="M427.9,161.3h20.2h0.8h1.2c0.1-0.3,0.2-0.7,0.2-1h-1h-1.3h-20.7l0.3,0.7C427.8,161.1,427.8,161.2,427.9,161.3z"/>
		<path d="M331.5,160.9c-0.2-0.1-0.3,0.2-0.4,0.5h1.4c-0.1-0.1-0.3-0.3-0.5-0.3C331.8,161.1,331.7,161,331.5,160.9z"/>
		<path d="M418,160.3h-9.3c-0.4,0.2-0.7,0.5-1,1h10.1C417.8,161,417.9,160.7,418,160.3z"/>
		<path d="M485.7,154.9h-2.9h-10.6c0,0.3,0,0.7,0,1h34.9c-0.1-0.4-0.3-0.7-0.5-1H485.7z"/>
		<path d="M355.4,154.9h-15.5H339h-2.4h-1.2h-1.5c-0.1,0.1-0.2,0.3-0.2,0.3c-0.1,0.4,0.6,0.4,0.9,0.5c0.2,0.1,0.3,0.1,0.3,0.2h1.1h3
			h15.9C355.1,155.5,355.2,155.2,355.4,154.9z"/>
		<path d="M418.6,155c0,0,0.1-0.1,0.1-0.1h-3c-0.3,0.1-0.3,0.4-0.5,1h3.7C418.6,155.6,418.5,155.3,418.6,155z"/>
		<path d="M448.9,154.9h-23.3c0,0.3,0,0.7,0,1h23.5C449.1,155.5,449,155.2,448.9,154.9z"/>
		<path d="M425.7,149.4h-0.6h-0.6c0,0,0,0,0,0c-0.1,0.2-0.7,0.4-0.7,0.5c0,0.1,0.1,0.2,0.1,0.4c0,0,0.1,0.1,0.1,0.1h0.3h1.5h23.8
			c-0.1-0.3-0.3-0.7-0.4-1H425.7z"/>
		<path d="M345.6,149.4h-6.1H337h-2c0,0.4,0,0.5,0.7,0.6c0.3,0,1.1,0,1.2,0.4c0,0,0,0,0,0h0.8h1.6h18.2c0.1-0.3,0.2-0.5,0.2-0.8
			c0-0.2-1.5,0-1.9-0.1c-0.1,0-0.1,0-0.2,0h-9.1H345.6z"/>
		<path d="M486.6,150.4h16.6c0-0.4-0.1-0.7-0.1-1h-16.7h-8.5h-0.2c-0.5,0.1-1.5,0.6-2.2,1h2.7H486.6z"/>
		<path d="M486,144.9h14.9c0.2-0.2,0.3-0.3,0.5-0.5c0.1-0.1,0.2-0.3,0.2-0.5h-15.5C486,144.2,486,144.6,486,144.9z"/>
		<path d="M447.3,144.9c0.6-0.1,1.6,0.1,2.1-0.3c0.3-0.2,0.5-0.5,0.7-0.7h-27.4c0,0.3,0.1,0.7,0.1,1H447.3z"/>
		<path d="M484.9,143.9H484C484.3,144.3,484.7,144.3,484.9,143.9z"/>
		<path d="M330.9,144.7c0.1,0.1,0.1,0.1,0.2,0.2h1h4.2h0.5h2.4c0-0.1,0.1-0.2,0.1-0.3c0,0.1,0.1,0.2,0.1,0.3h0.9h1.2
			c0.3,0.1,0.6,0.2,0.7,0h6.6c0.2-0.1,0.3-0.2,0.5-0.5c0.2-0.2,0.4-0.3,0.7-0.5h-7.9h-10.2h-1.6
			C330.2,144.2,330.8,144.6,330.9,144.7z"/>
		<path d="M480,138.4c-0.1,0.4-0.1,0.8,0.1,1h0.9h0.6H500c0-0.1,0-0.1,0-0.2c0-0.3,0-0.5,0.1-0.8H480z"/>
		<path d="M455.2,138.9c-0.3-0.2-0.4-0.4-0.4-0.5h-30c-0.1,0.3-0.1,0.7-0.2,1h30.8C455.5,139.2,455.5,139.1,455.2,138.9z"/>
		<path d="M344.2,139.4c0.1-0.4,0.2-0.7,0.4-1h-5.7h-2c-0.2,0.1-0.4,0.3-0.6,0.4c-0.2,0.1-0.3,0.4-0.4,0.6h2.5H344.2z"/>
		<path d="M456.5,133.9c-0.1,0,0.4-0.5,0.8-1h-29.9c-0.2,0.3-0.5,0.7-0.8,1h30C456.6,133.9,456.5,133.9,456.5,133.9z"/>
		<path d="M482.3,133.9h17c0,0,0.1-0.1,0.1-0.1c0.2-0.3,0.5-0.5,0.6-0.9h-16.2C483.4,133.4,482.6,133.6,482.3,133.9z"/>
		<path d="M483.9,127.5h-6.6c0.1,0.2,0.2,0.4,0.4,0.6c0.1,0.1,0.2,0.2,0.2,0.4h4.4C483,128.1,483.5,127.9,483.9,127.5z"/>
		<path d="M450,128.5c0-0.3,0-0.6,0.2-1c0,0,0,0,0,0h-21.5c0.1,0.3,0.1,0.6-0.1,1H450z"/>
		<path d="M489.5,122.2c0.2,0,0.9,0.6,1.5,0.5c0.8-0.1,1.4-0.4,2.1-0.8h-25.5c0,0.1,0,0.3,0.1,0.5c0.1,0.2,0.2,0.4,0.3,0.5h21.4
			C489.4,122.7,489.4,122.5,489.5,122.2z"/>
		<path d="M448.6,122h-19.8c0,0,0,0-0.1,0.1c-0.4,0.3-1.2,0.5-1.4,0.9h21.1C448.5,122.7,448.6,122.3,448.6,122z"/>
		<path d="M427.2,117.5h21.3c0-0.3-0.2-0.4-0.4-0.8c0-0.1-0.1-0.1-0.1-0.2h-21.5C426.7,117,426.9,117.3,427.2,117.5z"/>
		<path d="M496.7,117.5c0.1-0.3,0.2-0.7,0.3-1h-30.4c0.1,0.3,0.3,0.6,0.4,1H496.7z"/>
		<path d="M465.1,112h34.1c0.2-0.3,0.4-0.7,0.6-1H465c0,0.3,0,0.5,0,0.6C465.1,111.6,465.1,111.8,465.1,112z"/>
		<path d="M448.4,111.2c0,0,0-0.1-0.1-0.2h-21.6c0.1,0.3,0.2,0.7,0.2,1h23C449.5,111.7,448.5,111.3,448.4,111.2z"/>
		<path d="M464.1,106.1c0,0.1,0.1,0.2,0.1,0.4h38c0.2-0.3,0.4-0.7,0.6-1h-39C463.9,105.7,463.9,105.9,464.1,106.1z"/>
		<path d="M426.2,106.6h24.3c-0.2-0.3-0.5-0.6-0.8-1h-23.6c0,0.2,0.1,0.4,0.1,0.7C426.2,106.3,426.2,106.4,426.2,106.6z"/>
		<path d="M456.1,100.1h-29c-0.1,0.3-0.2,0.7-0.3,1h29.2C456,100.7,456.1,100.4,456.1,100.1z"/>
		<path d="M505.4,100.1h-37.5c0,0,0,0,0,0.1c-0.3,1.6-1.1,0.7-1.5-0.1h-0.2c-0.1,0.1-0.2,0.2-0.3,0.3c-0.4,0.2-1.5,0.1-1.3,0.7h40.6
			C505.2,100.7,505.3,100.4,505.4,100.1z"/>
		<path d="M461.7,94.6h-27.6c0,0.4,0,0.7-0.2,1h27.7C461.7,95.3,461.7,94.9,461.7,94.6z"/>
		<path d="M468.6,95.6h38.3c0-0.4,0-0.7-0.1-1h-37.6C468.9,94.9,468.7,95.2,468.6,95.6z"/>
		<path d="M463.5,89.1h-30.2c0,0.1-0.1,0.1-0.1,0.2c-0.1,0.3-0.1,0.5-0.1,0.8h30.8C464,89.7,463.8,89.4,463.5,89.1z"/>
		<path d="M472.5,90.1h28.8c-0.1,0-0.2-0.1-0.3-0.2c-0.2-0.3-0.4-0.5-0.7-0.8h-27.5C472.7,89.4,472.6,89.8,472.5,90.1z"/>
		<path d="M461.9,84.6c0.2-0.3,0.4-0.7,0.7-1H435c0,0.3,0,0.7-0.1,1H461.9z"/>
		<path d="M474.2,84.5c0,0-0.1,0.1-0.1,0.2h24.6c0-0.3-0.1-0.7-0.1-1h-22.5C475.8,84,474.5,84,474.2,84.5z"/>
		<path d="M463.6,78.4c0-0.1,0-0.2,0-0.2H435c-0.1,0.3-0.1,0.7-0.1,1h28.9C463.6,78.9,463.5,78.7,463.6,78.4z"/>
		<path d="M476.4,78.6c0,0.2,0,0.4-0.1,0.5h20.1c-0.2-0.4-0.7-0.7-1.1-1h-19C476.4,78.3,476.4,78.5,476.4,78.6z"/>
		<path d="M492.8,72.7h-54.6c0,0.2,0,0.4,0,0.6c0,0.2,0,0.3,0,0.4h55C492.9,73.4,492.8,73.1,492.8,72.7z"/>
		<path d="M491.5,67.2H441c0,0.3-0.1,0.7-0.2,1h51.4C492.1,67.9,491.8,67.5,491.5,67.2z"/>
		<path d="M486.9,61.9c0,0,0-0.1,0-0.1H442c-0.3,0.4-0.5,0.7-0.7,1h46C487.2,62.5,487,62.2,486.9,61.9z"/>
		<path d="M487.9,56.2h-40.7c-0.1,0.3-0.1,0.7-0.2,1h40.7C487.9,56.9,487.9,56.6,487.9,56.2z"/>
		<path d="M485,51.3c-0.3-0.2-0.5-0.4-0.8-0.6h-29.1l-0.1,1h30.2C485.1,51.6,485.1,51.5,485,51.3z"/>
		<path d="M472.3,46.2C472.3,46.2,472.3,46.3,472.3,46.2l8.8,0.1c0-0.2,0-0.4-0.1-0.6c-0.3-0.1-0.7-0.2-0.9-0.4h-7.7
			C472.4,45.6,472.4,45.9,472.3,46.2z"/>
		<path d="M479.8,40.8c0-0.3-0.1-0.6-0.2-1h-7.8c-0.2,0.4-0.3,0.7-0.2,1H479.8z"/>
		<polyline fill="none" stroke="#000000" stroke-width="3" stroke-miterlimit="10" points="199,153.7 199,3 605.7,3 605.7,378.3 
			199,378.3 199,337.7 		"/>
	</g>
</g>
</svg>
