<?xml version="1.0" encoding="utf-8"?>
<!DOCTYPE svg PUBLIC "-//W3C//DTD SVG 1.1//EN" "http://www.w3.org/Graphics/SVG/1.1/DTD/svg11.dtd">
<svg version="1.1" id="Calque_1" xmlns="http://www.w3.org/2000/svg" xmlns:xlink="http://www.w3.org/1999/xlink" x="0px" y="0px"
	 width="300px" height="262px" viewBox="0 0 300 262" enable-background="new 0 0 300 262" xml:space="preserve">
<g>
	<rect x="3.4" y="28.2" width="46.2" height="10.1"/>
	<line fill="none" stroke="#000000" stroke-width="3" stroke-miterlimit="10" x1="43.8" y1="3" x2="43.8" y2="24.6"/>
	<line fill="none" stroke="#000000" stroke-width="3" stroke-miterlimit="10" x1="37.9" y1="3" x2="37.9" y2="24.6"/>
	<rect x="3" y="3" fill="none" stroke="#000000" stroke-width="3" stroke-miterlimit="10" width="46.1" height="21.6"/>
	<line fill="none" stroke="#000000" stroke-width="3" stroke-miterlimit="10" x1="32.1" y1="3" x2="32.1" y2="24.6"/>
	<line fill="none" stroke="#000000" stroke-width="3" stroke-miterlimit="10" x1="26.3" y1="3" x2="26.3" y2="24.6"/>
	<line fill="none" stroke="#000000" stroke-width="3" stroke-miterlimit="10" x1="20.5" y1="3" x2="20.5" y2="24.6"/>
	<line fill="none" stroke="#000000" stroke-width="3" stroke-miterlimit="10" x1="14.7" y1="3" x2="14.7" y2="24.6"/>
	<line fill="none" stroke="#000000" stroke-width="3" stroke-miterlimit="10" x1="8.9" y1="3" x2="8.9" y2="24.6"/>
	<circle fill="none" stroke="#000000" stroke-miterlimit="10" cx="10.8" cy="255.6" r="2.2"/>
	<circle fill="none" stroke="#000000" stroke-miterlimit="10" cx="18.2" cy="255.6" r="2.2"/>
	<circle fill="none" stroke="#000000" stroke-miterlimit="10" cx="25.6" cy="255.6" r="2.2"/>
	<circle fill="none" stroke="#000000" stroke-miterlimit="10" cx="33" cy="255.6" r="2.2"/>
	<circle fill="none" stroke="#000000" stroke-miterlimit="10" cx="40.4" cy="255.6" r="2.2"/>
	<circle fill="none" stroke="#000000" stroke-miterlimit="10" cx="15.2" cy="249.1" r="2.2"/>
	<circle fill="none" stroke="#000000" stroke-miterlimit="10" cx="22.6" cy="249.1" r="2.2"/>
	<circle fill="none" stroke="#000000" stroke-miterlimit="10" cx="29.9" cy="249.1" r="2.2"/>
	<circle fill="none" stroke="#000000" stroke-miterlimit="10" cx="37.3" cy="249.1" r="2.2"/>
	<circle fill="none" stroke="#000000" stroke-miterlimit="10" cx="44.7" cy="249.1" r="2.2"/>
	<circle fill="none" stroke="#000000" stroke-miterlimit="10" cx="7.2" cy="249.1" r="2.2"/>
	<circle fill="none" stroke="#000000" stroke-miterlimit="10" cx="10.8" cy="242.7" r="2.2"/>
	<circle fill="none" stroke="#000000" stroke-miterlimit="10" cx="18.2" cy="242.7" r="2.2"/>
	<circle fill="none" stroke="#000000" stroke-miterlimit="10" cx="25.6" cy="242.7" r="2.2"/>
	<circle fill="none" stroke="#000000" stroke-miterlimit="10" cx="33" cy="242.7" r="2.2"/>
	<circle fill="none" stroke="#000000" stroke-miterlimit="10" cx="40.4" cy="242.7" r="2.2"/>
	<circle fill="none" stroke="#000000" stroke-miterlimit="10" cx="15.2" cy="236.2" r="2.2"/>
	<circle fill="none" stroke="#000000" stroke-miterlimit="10" cx="22.6" cy="236.2" r="2.2"/>
	<circle fill="none" stroke="#000000" stroke-miterlimit="10" cx="29.9" cy="236.2" r="2.2"/>
	<circle fill="none" stroke="#000000" stroke-miterlimit="10" cx="37.3" cy="236.2" r="2.2"/>
	<circle fill="none" stroke="#000000" stroke-miterlimit="10" cx="44.7" cy="236.2" r="2.2"/>
	<circle fill="none" stroke="#000000" stroke-miterlimit="10" cx="7.2" cy="236.2" r="2.2"/>
	<circle fill="none" stroke="#000000" stroke-miterlimit="10" cx="10.8" cy="229.8" r="2.2"/>
	<circle fill="none" stroke="#000000" stroke-miterlimit="10" cx="18.2" cy="229.8" r="2.2"/>
	<circle fill="none" stroke="#000000" stroke-miterlimit="10" cx="25.6" cy="229.8" r="2.2"/>
	<circle fill="none" stroke="#000000" stroke-miterlimit="10" cx="33" cy="229.8" r="2.2"/>
	<circle fill="none" stroke="#000000" stroke-miterlimit="10" cx="15.2" cy="223.3" r="2.2"/>
	<circle fill="none" stroke="#000000" stroke-miterlimit="10" cx="22.6" cy="223.3" r="2.2"/>
	<circle fill="none" stroke="#000000" stroke-miterlimit="10" cx="29.9" cy="223.3" r="2.2"/>
	<circle fill="none" stroke="#000000" stroke-miterlimit="10" cx="7.2" cy="223.3" r="2.2"/>
	<circle fill="none" stroke="#000000" stroke-miterlimit="10" cx="10.8" cy="216.9" r="2.2"/>
	<circle fill="none" stroke="#000000" stroke-miterlimit="10" cx="18.2" cy="216.9" r="2.2"/>
	<circle fill="none" stroke="#000000" stroke-miterlimit="10" cx="25.6" cy="216.9" r="2.2"/>
	<circle fill="none" stroke="#000000" stroke-miterlimit="10" cx="33" cy="216.9" r="2.2"/>
	<circle fill="none" stroke="#000000" stroke-miterlimit="10" cx="15.2" cy="210.4" r="2.2"/>
	<circle fill="none" stroke="#000000" stroke-miterlimit="10" cx="22.6" cy="210.4" r="2.2"/>
	<circle fill="none" stroke="#000000" stroke-miterlimit="10" cx="29.9" cy="210.4" r="2.2"/>
	<circle fill="none" stroke="#000000" stroke-miterlimit="10" cx="7.2" cy="210.4" r="2.2"/>
	<circle fill="none" stroke="#000000" stroke-miterlimit="10" cx="10.8" cy="203.9" r="2.2"/>
	<circle fill="none" stroke="#000000" stroke-miterlimit="10" cx="18.2" cy="203.9" r="2.2"/>
	<circle fill="none" stroke="#000000" stroke-miterlimit="10" cx="25.6" cy="203.9" r="2.2"/>
	<circle fill="none" stroke="#000000" stroke-miterlimit="10" cx="33" cy="203.9" r="2.2"/>
	<circle fill="none" stroke="#000000" stroke-miterlimit="10" cx="15.2" cy="197.4" r="2.2"/>
	<circle fill="none" stroke="#000000" stroke-miterlimit="10" cx="22.6" cy="197.4" r="2.2"/>
	<circle fill="none" stroke="#000000" stroke-miterlimit="10" cx="29.9" cy="197.4" r="2.2"/>
	<circle fill="none" stroke="#000000" stroke-miterlimit="10" cx="7.2" cy="197.4" r="2.2"/>
	<circle fill="none" stroke="#000000" stroke-miterlimit="10" cx="10.8" cy="191" r="2.2"/>
	<circle fill="none" stroke="#000000" stroke-miterlimit="10" cx="18.2" cy="191" r="2.2"/>
	<circle fill="none" stroke="#000000" stroke-miterlimit="10" cx="25.6" cy="191" r="2.2"/>
	<circle fill="none" stroke="#000000" stroke-miterlimit="10" cx="33" cy="191" r="2.2"/>
	<circle fill="none" stroke="#000000" stroke-miterlimit="10" cx="15.2" cy="184.5" r="2.2"/>
	<circle fill="none" stroke="#000000" stroke-miterlimit="10" cx="22.6" cy="184.5" r="2.2"/>
	<circle fill="none" stroke="#000000" stroke-miterlimit="10" cx="29.9" cy="184.5" r="2.2"/>
	<circle fill="none" stroke="#000000" stroke-miterlimit="10" cx="7.2" cy="184.5" r="2.2"/>
	<circle fill="none" stroke="#000000" stroke-miterlimit="10" cx="10.8" cy="178.1" r="2.2"/>
	<circle fill="none" stroke="#000000" stroke-miterlimit="10" cx="18.2" cy="178.1" r="2.2"/>
	<circle fill="none" stroke="#000000" stroke-miterlimit="10" cx="25.6" cy="178.1" r="2.2"/>
	<circle fill="none" stroke="#000000" stroke-miterlimit="10" cx="33" cy="178.1" r="2.2"/>
	<circle fill="none" stroke="#000000" stroke-miterlimit="10" cx="15.2" cy="171.6" r="2.2"/>
	<circle fill="none" stroke="#000000" stroke-miterlimit="10" cx="22.6" cy="171.6" r="2.2"/>
	<circle fill="none" stroke="#000000" stroke-miterlimit="10" cx="29.9" cy="171.6" r="2.2"/>
	<circle fill="none" stroke="#000000" stroke-miterlimit="10" cx="7.2" cy="171.6" r="2.2"/>
	<circle fill="none" stroke="#000000" stroke-miterlimit="10" cx="10.8" cy="165.2" r="2.2"/>
	<circle fill="none" stroke="#000000" stroke-miterlimit="10" cx="18.2" cy="165.2" r="2.2"/>
	<circle fill="none" stroke="#000000" stroke-miterlimit="10" cx="25.6" cy="165.2" r="2.2"/>
	<circle fill="none" stroke="#000000" stroke-miterlimit="10" cx="33" cy="165.2" r="2.2"/>
	<circle fill="none" stroke="#000000" stroke-miterlimit="10" cx="15.2" cy="158.7" r="2.2"/>
	<circle fill="none" stroke="#000000" stroke-miterlimit="10" cx="22.6" cy="158.7" r="2.2"/>
	<circle fill="none" stroke="#000000" stroke-miterlimit="10" cx="29.9" cy="158.7" r="2.2"/>
	<circle fill="none" stroke="#000000" stroke-miterlimit="10" cx="7.2" cy="158.7" r="2.2"/>
	<circle fill="none" stroke="#000000" stroke-miterlimit="10" cx="10.8" cy="152.2" r="2.2"/>
	<circle fill="none" stroke="#000000" stroke-miterlimit="10" cx="18.2" cy="152.2" r="2.2"/>
	<circle fill="none" stroke="#000000" stroke-miterlimit="10" cx="25.6" cy="152.2" r="2.2"/>
	<circle fill="none" stroke="#000000" stroke-miterlimit="10" cx="33" cy="152.2" r="2.2"/>
	<circle fill="none" stroke="#000000" stroke-miterlimit="10" cx="15.2" cy="145.7" r="2.2"/>
	<circle fill="none" stroke="#000000" stroke-miterlimit="10" cx="22.6" cy="145.7" r="2.2"/>
	<circle fill="none" stroke="#000000" stroke-miterlimit="10" cx="29.9" cy="145.7" r="2.2"/>
	<circle fill="none" stroke="#000000" stroke-miterlimit="10" cx="7.2" cy="145.7" r="2.2"/>
	<circle fill="none" stroke="#000000" stroke-miterlimit="10" cx="10.8" cy="139.3" r="2.2"/>
	<circle fill="none" stroke="#000000" stroke-miterlimit="10" cx="18.2" cy="139.3" r="2.2"/>
	<circle fill="none" stroke="#000000" stroke-miterlimit="10" cx="25.6" cy="139.3" r="2.2"/>
	<circle fill="none" stroke="#000000" stroke-miterlimit="10" cx="33" cy="139.3" r="2.2"/>
	<circle fill="none" stroke="#000000" stroke-miterlimit="10" cx="15.2" cy="132.8" r="2.2"/>
	<circle fill="none" stroke="#000000" stroke-miterlimit="10" cx="22.6" cy="132.8" r="2.2"/>
	<circle fill="none" stroke="#000000" stroke-miterlimit="10" cx="29.9" cy="132.8" r="2.2"/>
	<circle fill="none" stroke="#000000" stroke-miterlimit="10" cx="7.2" cy="132.8" r="2.2"/>
	<circle fill="none" stroke="#000000" stroke-miterlimit="10" cx="10.8" cy="126.4" r="2.2"/>
	<circle fill="none" stroke="#000000" stroke-miterlimit="10" cx="18.2" cy="126.4" r="2.2"/>
	<circle fill="none" stroke="#000000" stroke-miterlimit="10" cx="25.6" cy="126.4" r="2.2"/>
	<circle fill="none" stroke="#000000" stroke-miterlimit="10" cx="33" cy="126.4" r="2.2"/>
	<circle fill="none" stroke="#000000" stroke-miterlimit="10" cx="15.2" cy="119.9" r="2.2"/>
	<circle fill="none" stroke="#000000" stroke-miterlimit="10" cx="22.6" cy="119.9" r="2.2"/>
	<circle fill="none" stroke="#000000" stroke-miterlimit="10" cx="29.9" cy="119.9" r="2.2"/>
	<circle fill="none" stroke="#000000" stroke-miterlimit="10" cx="7.2" cy="119.9" r="2.2"/>
	<circle fill="none" stroke="#000000" stroke-miterlimit="10" cx="10.8" cy="113.5" r="2.2"/>
	<circle fill="none" stroke="#000000" stroke-miterlimit="10" cx="18.2" cy="113.5" r="2.2"/>
	<circle fill="none" stroke="#000000" stroke-miterlimit="10" cx="25.6" cy="113.5" r="2.2"/>
	<circle fill="none" stroke="#000000" stroke-miterlimit="10" cx="33" cy="113.5" r="2.2"/>
	<circle fill="none" stroke="#000000" stroke-miterlimit="10" cx="15.2" cy="107" r="2.2"/>
	<circle fill="none" stroke="#000000" stroke-miterlimit="10" cx="22.6" cy="107" r="2.2"/>
	<circle fill="none" stroke="#000000" stroke-miterlimit="10" cx="29.9" cy="107" r="2.2"/>
	<circle fill="none" stroke="#000000" stroke-miterlimit="10" cx="7.2" cy="107" r="2.2"/>
	<circle fill="none" stroke="#000000" stroke-miterlimit="10" cx="10.8" cy="100.5" r="2.2"/>
	<circle fill="none" stroke="#000000" stroke-miterlimit="10" cx="18.2" cy="100.5" r="2.2"/>
	<circle fill="none" stroke="#000000" stroke-miterlimit="10" cx="25.6" cy="100.5" r="2.2"/>
	<circle fill="none" stroke="#000000" stroke-miterlimit="10" cx="33" cy="100.5" r="2.2"/>
	<circle fill="none" stroke="#000000" stroke-miterlimit="10" cx="15.2" cy="94" r="2.2"/>
	<circle fill="none" stroke="#000000" stroke-miterlimit="10" cx="22.6" cy="94" r="2.2"/>
	<circle fill="none" stroke="#000000" stroke-miterlimit="10" cx="29.9" cy="94" r="2.2"/>
	<circle fill="none" stroke="#000000" stroke-miterlimit="10" cx="7.2" cy="94" r="2.2"/>
	<circle fill="none" stroke="#000000" stroke-miterlimit="10" cx="10.8" cy="87.6" r="2.2"/>
	<circle fill="none" stroke="#000000" stroke-miterlimit="10" cx="18.2" cy="87.6" r="2.2"/>
	<circle fill="none" stroke="#000000" stroke-miterlimit="10" cx="25.6" cy="87.6" r="2.2"/>
	<circle fill="none" stroke="#000000" stroke-miterlimit="10" cx="33" cy="87.6" r="2.2"/>
	<path fill="none" stroke="#000000" stroke-miterlimit="10" d="M48.2,72.6c-7.1,0.2-12.8,6-12.8,13.1v135.2
		c0,7.1,5.7,12.9,12.8,13.1"/>
	<path fill="#746367" stroke="#000000" stroke-miterlimit="10" d="M38.3,229.2c-0.1,0.2-0.1,0.4-0.1,0.6c0,1.2,1,2.2,2.2,2.2
		c0.3,0,0.5-0.1,0.8-0.2C40.1,231.1,39.1,230.2,38.3,229.2z"/>
	<rect x="4" y="45.3" fill="none" stroke="#0F0F0F" stroke-width="3" stroke-miterlimit="10" width="44" height="216.1"/>
</g>
</svg>
