<?xml version="1.0" encoding="utf-8"?>
<!DOCTYPE svg PUBLIC "-//W3C//DTD SVG 1.1//EN" "http://www.w3.org/Graphics/SVG/1.1/DTD/svg11.dtd">
<svg version="1.1" xmlns="http://www.w3.org/2000/svg" xmlns:xlink="http://www.w3.org/1999/xlink" x="0px" y="0px" width="289px"
	 height="345px" viewBox="0 0 289 345" enable-background="new 0 0 289 345" xml:space="preserve">
<g>
	<g>
		<rect x="2" y="240.5" width="66.7" height="4.5"/>
		<polygon points="286.9,244.9 220.2,244.9 217.2,239.5 286.9,239.5 		"/>
		<rect x="79.9" y="247.6" width="59.2" height="17"/>
		<rect x="79.9" y="240.5" width="59.2" height="4.5"/>
		<rect x="150.2" y="247.6" width="58.5" height="17"/>
		<rect x="150.2" y="240.5" width="58.5" height="4.5"/>
		<line fill="none" stroke="#000000" stroke-width="3" stroke-miterlimit="10" x1="92" y1="322.5" x2="197" y2="322.5"/>
		<line fill="none" stroke="#000000" stroke-width="3" stroke-miterlimit="10" x1="92" y1="311.5" x2="197" y2="311.5"/>
		<line fill="none" stroke="#000000" stroke-width="3" stroke-miterlimit="10" x1="92" y1="300.5" x2="197" y2="300.5"/>
		<line fill="none" stroke="#000000" stroke-width="3" stroke-miterlimit="10" x1="90.7" y1="333.5" x2="197" y2="333.5"/>
		<line fill="none" stroke="#000000" stroke-width="3" stroke-miterlimit="10" x1="90.7" y1="289.6" x2="197" y2="289.6"/>
		<line fill="none" stroke="#000000" stroke-width="3" stroke-miterlimit="10" x1="90.7" y1="343.5" x2="197" y2="343.5"/>
		<line fill="none" stroke="#000000" stroke-miterlimit="10" x1="39" y1="275.5" x2="39" y2="343"/>
		<line fill="none" stroke="#000000" stroke-miterlimit="10" x1="21.4" y1="275.5" x2="21.4" y2="343"/>
		<line fill="none" stroke="#000000" stroke-miterlimit="10" x1="56.6" y1="275.5" x2="56.6" y2="343"/>
		<line fill="none" stroke="#000000" stroke-miterlimit="10" x1="74.3" y1="275.5" x2="74.3" y2="343"/>
		<line fill="none" stroke="#000000" stroke-miterlimit="10" x1="232.5" y1="275.5" x2="232.5" y2="343"/>
		<line fill="none" stroke="#000000" stroke-miterlimit="10" x1="214.9" y1="275.5" x2="214.9" y2="343"/>
		<line fill="none" stroke="#000000" stroke-miterlimit="10" x1="250.1" y1="275.5" x2="250.1" y2="343"/>
		<line fill="none" stroke="#000000" stroke-miterlimit="10" x1="267.7" y1="275.5" x2="267.7" y2="343"/>
		<line fill="none" stroke="#000000" stroke-width="3" stroke-miterlimit="10" x1="56.4" y1="211.3" x2="56.4" y2="231.7"/>
		<line fill="none" stroke="#000000" stroke-width="3" stroke-miterlimit="10" x1="91.8" y1="211.3" x2="91.8" y2="231.7"/>
		<line fill="none" stroke="#000000" stroke-width="3" stroke-miterlimit="10" x1="38.7" y1="211.3" x2="38.7" y2="231.7"/>
		<line fill="none" stroke="#000000" stroke-width="3" stroke-miterlimit="10" x1="21" y1="211.3" x2="21" y2="231.7"/>
		<line fill="none" stroke="#000000" stroke-width="3" stroke-miterlimit="10" x1="127" y1="211.3" x2="127" y2="231.7"/>
		<line fill="none" stroke="#000000" stroke-width="3" stroke-miterlimit="10" x1="162" y1="211.3" x2="162" y2="231.7"/>
		<line fill="none" stroke="#000000" stroke-width="3" stroke-miterlimit="10" x1="179.3" y1="211.3" x2="179.3" y2="231.7"/>
		<line fill="none" stroke="#000000" stroke-width="3" stroke-miterlimit="10" x1="197.6" y1="211.3" x2="197.6" y2="231.7"/>
		<line fill="none" stroke="#000000" stroke-width="3" stroke-miterlimit="10" x1="109.3" y1="211.3" x2="109.3" y2="231.7"/>
		<polygon fill="none" stroke="#000000" stroke-width="3" stroke-miterlimit="10" points="3.3,335.7 3.3,275.1 91.8,275.1 
			91.8,343.5 3.3,343.5 		"/>
		<polygon fill="none" stroke="#000000" stroke-width="3" stroke-miterlimit="10" points="197,335.7 197,275.1 285.5,275.1 
			285.5,343.5 197,343.5 		"/>
		<line fill="none" stroke="#000000" stroke-width="3" stroke-miterlimit="10" x1="267.8" y1="211.3" x2="267.8" y2="231.7"/>
		<line fill="none" stroke="#000000" stroke-width="3" stroke-miterlimit="10" x1="250.1" y1="211.3" x2="250.1" y2="231.5"/>
		<line fill="none" stroke="#000000" stroke-width="3" stroke-miterlimit="10" x1="231.4" y1="211.3" x2="231.4" y2="231.5"/>
		<rect x="3.3" y="211.3" fill="none" stroke="#000000" stroke-width="3" stroke-miterlimit="10" width="282.3" height="20"/>
		<rect x="2" y="178.7" width="66.7" height="17"/>
		<rect x="2" y="171.5" width="66.7" height="4.5"/>
		<rect x="220.2" y="178.7" width="66.7" height="17"/>
		<rect x="2" y="247.9" width="66.7" height="16"/>
		<polygon points="68.7,245.2 2,245.2 2,239.7 70.7,239.7 		"/>
		<rect x="220.2" y="247.9" width="66.7" height="16"/>
		<rect x="220.2" y="171.5" width="66.7" height="4.5"/>
		<rect x="79.9" y="178.7" width="59.2" height="17"/>
		<rect x="79.9" y="171.5" width="59.2" height="4.5"/>
		<rect x="150.2" y="178.7" width="58.5" height="17"/>
		<rect x="150.2" y="171.5" width="58.5" height="4.5"/>
		<line fill="none" stroke="#000000" stroke-width="3" stroke-miterlimit="10" x1="56.4" y1="141.9" x2="56.4" y2="162.3"/>
		<line fill="none" stroke="#000000" stroke-width="3" stroke-miterlimit="10" x1="91.8" y1="141.9" x2="91.8" y2="162.3"/>
		<line fill="none" stroke="#000000" stroke-width="3" stroke-miterlimit="10" x1="38.7" y1="141.9" x2="38.7" y2="162.3"/>
		<line fill="none" stroke="#000000" stroke-width="3" stroke-miterlimit="10" x1="21" y1="141.9" x2="21" y2="162.3"/>
		<line fill="none" stroke="#000000" stroke-width="3" stroke-miterlimit="10" x1="127" y1="141.9" x2="127" y2="162.3"/>
		<line fill="none" stroke="#000000" stroke-width="3" stroke-miterlimit="10" x1="162" y1="141.9" x2="162" y2="162.3"/>
		<line fill="none" stroke="#000000" stroke-width="3" stroke-miterlimit="10" x1="179.3" y1="141.9" x2="179.3" y2="162.3"/>
		<line fill="none" stroke="#000000" stroke-width="3" stroke-miterlimit="10" x1="197.6" y1="141.9" x2="197.6" y2="162.3"/>
		<line fill="none" stroke="#000000" stroke-width="3" stroke-miterlimit="10" x1="109.3" y1="141.9" x2="109.3" y2="162.3"/>
		<line fill="none" stroke="#000000" stroke-width="3" stroke-miterlimit="10" x1="267.8" y1="141.9" x2="267.8" y2="162.3"/>
		<line fill="none" stroke="#000000" stroke-width="3" stroke-miterlimit="10" x1="250.1" y1="141.9" x2="250.1" y2="162"/>
		<line fill="none" stroke="#000000" stroke-width="3" stroke-miterlimit="10" x1="231.4" y1="141.9" x2="231.4" y2="162"/>
		<rect x="3.3" y="141.9" fill="none" stroke="#000000" stroke-width="3" stroke-miterlimit="10" width="282.3" height="20.4"/>
		<rect x="2" y="109.2" width="66.7" height="17"/>
		<rect x="2" y="102.1" width="66.7" height="4.5"/>
		<rect x="220.2" y="109.2" width="66.7" height="17"/>
		<rect x="220.2" y="102.1" width="66.7" height="4.5"/>
		<rect x="79.9" y="109.2" width="59.2" height="17"/>
		<rect x="79.9" y="102.1" width="59.2" height="4.5"/>
		<rect x="150.2" y="109.2" width="58.5" height="17"/>
		<rect x="150.2" y="102.1" width="58.5" height="4.5"/>
		<line fill="none" stroke="#000000" stroke-width="3" stroke-miterlimit="10" x1="56.4" y1="72.4" x2="56.4" y2="92.8"/>
		<line fill="none" stroke="#000000" stroke-width="3" stroke-miterlimit="10" x1="91.8" y1="72.4" x2="91.8" y2="92.8"/>
		<line fill="none" stroke="#000000" stroke-width="3" stroke-miterlimit="10" x1="38.7" y1="72.4" x2="38.7" y2="92.8"/>
		<line fill="none" stroke="#000000" stroke-width="3" stroke-miterlimit="10" x1="21" y1="72.4" x2="21" y2="92.8"/>
		<line fill="none" stroke="#000000" stroke-width="3" stroke-miterlimit="10" x1="127" y1="72.4" x2="127" y2="92.8"/>
		<line fill="none" stroke="#000000" stroke-width="3" stroke-miterlimit="10" x1="162" y1="72.4" x2="162" y2="92.8"/>
		<line fill="none" stroke="#000000" stroke-width="3" stroke-miterlimit="10" x1="179.3" y1="72.4" x2="179.3" y2="92.8"/>
		<line fill="none" stroke="#000000" stroke-width="3" stroke-miterlimit="10" x1="197.6" y1="72.4" x2="197.6" y2="92.8"/>
		<line fill="none" stroke="#000000" stroke-width="3" stroke-miterlimit="10" x1="109.3" y1="72.4" x2="109.3" y2="92.8"/>
		<line fill="none" stroke="#000000" stroke-width="3" stroke-miterlimit="10" x1="267.8" y1="72.4" x2="267.8" y2="92.8"/>
		<line fill="none" stroke="#000000" stroke-width="3" stroke-miterlimit="10" x1="250.1" y1="72.4" x2="250.1" y2="92.6"/>
		<line fill="none" stroke="#000000" stroke-width="3" stroke-miterlimit="10" x1="231.4" y1="72.4" x2="231.4" y2="92.6"/>
		<rect x="3.3" y="72.4" fill="none" stroke="#000000" stroke-width="3" stroke-miterlimit="10" width="282.3" height="20.4"/>
		<rect x="2" y="39.8" width="66.7" height="17"/>
		<rect x="2" y="32.6" width="66.7" height="4.5"/>
		<rect x="220.2" y="39.8" width="66.7" height="17"/>
		<rect x="220.2" y="32.6" width="66.7" height="4.5"/>
		<rect x="79.9" y="39.8" width="59.2" height="17"/>
		<rect x="79.9" y="32.6" width="59.2" height="4.5"/>
		<rect x="150.2" y="39.8" width="58.5" height="17"/>
		<rect x="150.2" y="32.6" width="58.5" height="4.5"/>
		<line fill="none" stroke="#000000" stroke-width="3" stroke-miterlimit="10" x1="56.4" y1="3" x2="56.4" y2="23.4"/>
		<line fill="none" stroke="#000000" stroke-width="3" stroke-miterlimit="10" x1="91.8" y1="3" x2="91.8" y2="23.4"/>
		<line fill="none" stroke="#000000" stroke-width="3" stroke-miterlimit="10" x1="38.7" y1="3" x2="38.7" y2="23.4"/>
		<line fill="none" stroke="#000000" stroke-width="3" stroke-miterlimit="10" x1="21" y1="3" x2="21" y2="23.4"/>
		<line fill="none" stroke="#000000" stroke-width="3" stroke-miterlimit="10" x1="127" y1="3" x2="127" y2="23.4"/>
		<line fill="none" stroke="#000000" stroke-width="3" stroke-miterlimit="10" x1="162" y1="3" x2="162" y2="23.4"/>
		<line fill="none" stroke="#000000" stroke-width="3" stroke-miterlimit="10" x1="179.3" y1="3" x2="179.3" y2="23.4"/>
		<line fill="none" stroke="#000000" stroke-width="3" stroke-miterlimit="10" x1="197.6" y1="3" x2="197.6" y2="23.4"/>
		<line fill="none" stroke="#000000" stroke-width="3" stroke-miterlimit="10" x1="109.3" y1="3" x2="109.3" y2="23.4"/>
		<line fill="none" stroke="#000000" stroke-width="3" stroke-miterlimit="10" x1="267.8" y1="3" x2="267.8" y2="23.4"/>
		<line fill="none" stroke="#000000" stroke-width="3" stroke-miterlimit="10" x1="250.1" y1="3" x2="250.1" y2="23.1"/>
		<line fill="none" stroke="#000000" stroke-width="3" stroke-miterlimit="10" x1="231.4" y1="3" x2="231.4" y2="23.1"/>
		<rect x="3.3" y="3" fill="none" stroke="#000000" stroke-width="3" stroke-miterlimit="10" width="282.3" height="20.4"/>
		<rect x="72.2" y="3" width="4.4" height="262.1"/>
		<rect x="142.3" y="3" width="4.4" height="262.1"/>
		<rect x="212.2" y="3" width="4.4" height="262.1"/>
		<path fill="#8C8083" stroke="#000000" stroke-width="5" stroke-miterlimit="10" d="M144.3,230.5C93,230.4,69,243.2,36,256.5
			c33,13.3,56.9,25.8,108.1,25.9c51.3,0.1,75.3-12.8,108.3-26C219.5,243,195.6,230.6,144.3,230.5z"/>
		<polygon stroke="#000000" stroke-width="0.5" stroke-miterlimit="10" points="150.5,265.6 168,265.7 168,263.5 153.5,263.5 
			153.5,256.7 164.4,256.7 164.4,254.5 153.5,254.5 153.5,248.2 168,248.3 168,246.1 150.6,246 		"/>
		<polygon stroke="#000000" stroke-width="0.5" stroke-miterlimit="10" points="159.6,243 157.2,245.6 164.7,243 		"/>
		<polygon stroke="#000000" stroke-width="0.5" stroke-miterlimit="10" points="197.3,263.5 197.3,246.1 194.6,246.1 194.6,265.7 
			212.2,265.7 212.2,263.6 		"/>
		<path stroke="#000000" stroke-width="0.5" stroke-miterlimit="10" d="M176.5,258.1l4.7-9.3l4.7,9.3L176.5,258.1z M179.3,246.1
			l-9.9,19.6l3.4,0l2.5-5.1l11.9,0l2.6,5.1l3.3,0l-9.9-19.6L179.3,246.1z"/>
		<path stroke="#000000" stroke-width="0.5" stroke-miterlimit="10" d="M138.7,255.1l-9.1,0l0-6.7l9.4,0c2.1,0,3.4,1,3.8,2.3
			c0.3,0.9,0.1,2.1-0.4,2.9C141.7,254.8,140.2,255.1,138.7,255.1 M141.1,257.5c4.5-1.2,4.9-4.5,4.9-5.7c-0.3-3.5-2.6-5.7-6.8-5.7
			l-12.3,0l0,19.6l2.8,0l0-8.2l8,0l5.9,8.2l3.5,0C147,265.6,142.8,260.1,141.1,257.5"/>
		<path stroke="#000000" stroke-width="0.5" stroke-miterlimit="10" d="M109.8,264.8c-5.4,0-9.9-4.4-9.9-9.7c0-5.3,4.3-9.9,10.2-9.9
			c5.8,0,10,4.6,10,9.9C120.1,260.4,115.3,264.8,109.8,264.8 M110,242.8c-7.9,0-13.3,5.6-13.3,12.3c0,7.1,5.9,12.1,13.3,12.1
			c7.4,0,13.3-4.9,13.3-12.1C123.3,248.4,117.8,242.8,110,242.8"/>
		<polygon stroke="#000000" stroke-width="0.5" stroke-miterlimit="10" points="89.6,253 91.6,253 95.3,246 92.4,246 		"/>
		<polygon stroke="#000000" stroke-width="0.5" stroke-miterlimit="10" points="79.7,263.4 79.7,246 77,246 77,265.5 94.6,265.6 
			94.6,263.4 		"/>
	</g>
</g>
</svg>
