<?xml version="1.0" encoding="utf-8"?>
<!DOCTYPE svg PUBLIC "-//W3C//DTD SVG 1.1//EN" "http://www.w3.org/Graphics/SVG/1.1/DTD/svg11.dtd">
<svg version="1.1" xmlns="http://www.w3.org/2000/svg" xmlns:xlink="http://www.w3.org/1999/xlink" x="0px" y="0px" width="478px"
	 height="450px" viewBox="0 0 478 450" enable-background="new 0 0 478 450" xml:space="preserve">
<g>
	<g>
		<line fill="none" stroke="#000000" stroke-miterlimit="10" x1="281.3" y1="449.2" x2="267.3" y2="449.2"/>
		<line fill="none" stroke="#000000" stroke-miterlimit="10" x1="284.3" y1="442.6" x2="271.8" y2="442.6"/>
		<line fill="none" stroke="#000000" stroke-miterlimit="10" x1="279.9" y1="435.9" x2="276" y2="435.9"/>
		<line fill="none" stroke="#000000" stroke-miterlimit="10" x1="276.6" y1="429.3" x2="279.7" y2="429.3"/>
		<line fill="none" stroke="#000000" stroke-miterlimit="10" x1="214.2" y1="429.3" x2="210.3" y2="429.3"/>
		<line fill="none" stroke="#000000" stroke-miterlimit="10" x1="195.5" y1="422.7" x2="213.6" y2="422.7"/>
		<line fill="none" stroke="#000000" stroke-miterlimit="10" x1="251.7" y1="422.7" x2="299.7" y2="422.7"/>
		<line fill="none" stroke="#000000" stroke-miterlimit="10" x1="326.6" y1="416" x2="304.2" y2="416"/>
		<line fill="none" stroke="#000000" stroke-miterlimit="10" x1="243.9" y1="416" x2="304.1" y2="416"/>
		<line fill="none" stroke="#000000" stroke-miterlimit="10" x1="196.6" y1="416" x2="237.8" y2="416"/>
		<line fill="none" stroke="#000000" stroke-miterlimit="10" x1="333.3" y1="409.4" x2="191.5" y2="409.4"/>
		<line fill="none" stroke="#000000" stroke-miterlimit="10" x1="182.7" y1="402.8" x2="340.9" y2="402.8"/>
		<line fill="none" stroke="#000000" stroke-miterlimit="10" x1="186.8" y1="396.1" x2="347.2" y2="396.1"/>
		<line fill="none" stroke="#000000" stroke-miterlimit="10" x1="350.3" y1="389.5" x2="190.3" y2="389.5"/>
		<line fill="none" stroke="#000000" stroke-miterlimit="10" x1="149.2" y1="382.9" x2="140.9" y2="382.9"/>
		<line fill="none" stroke="#000000" stroke-miterlimit="10" x1="354.4" y1="382.9" x2="191.6" y2="382.9"/>
		<line fill="none" stroke="#000000" stroke-miterlimit="10" x1="136.2" y1="376.2" x2="161.3" y2="376.2"/>
		<line fill="none" stroke="#000000" stroke-miterlimit="10" x1="358" y1="376.2" x2="187.8" y2="376.2"/>
		<line fill="none" stroke="#000000" stroke-miterlimit="10" x1="87.1" y1="369.6" x2="364.4" y2="369.6"/>
		<line fill="none" stroke="#000000" stroke-miterlimit="10" x1="80.3" y1="363" x2="367.8" y2="363"/>
		<line fill="none" stroke="#000000" stroke-miterlimit="10" x1="365.1" y1="349.7" x2="48.7" y2="349.7"/>
		<line fill="none" stroke="#000000" stroke-miterlimit="10" x1="362.6" y1="343" x2="39.6" y2="343"/>
		<line fill="none" stroke="#000000" stroke-miterlimit="10" x1="374.6" y1="336.4" x2="37.5" y2="336.4"/>
		<line fill="none" stroke="#000000" stroke-miterlimit="10" x1="368.9" y1="329.8" x2="42.6" y2="329.8"/>
		<line fill="none" stroke="#000000" stroke-miterlimit="10" x1="362.8" y1="323.1" x2="39.5" y2="323.1"/>
		<line fill="none" stroke="#000000" stroke-miterlimit="10" x1="353.6" y1="316.5" x2="36.5" y2="316.5"/>
		<line fill="none" stroke="#000000" stroke-miterlimit="10" x1="33.2" y1="309.9" x2="348" y2="309.9"/>
		<line fill="none" stroke="#000000" stroke-miterlimit="10" x1="354.1" y1="303.2" x2="22.7" y2="303.2"/>
		<line fill="none" stroke="#000000" stroke-miterlimit="10" x1="359.6" y1="296.6" x2="17.2" y2="296.6"/>
		<line fill="none" stroke="#000000" stroke-miterlimit="10" x1="345" y1="290" x2="9.8" y2="290"/>
		<line fill="none" stroke="#000000" stroke-miterlimit="10" x1="353.2" y1="290" x2="372.9" y2="290"/>
		<line fill="none" stroke="#000000" stroke-miterlimit="10" x1="346.7" y1="283.3" x2="9.8" y2="283.3"/>
		<line fill="none" stroke="#000000" stroke-miterlimit="10" x1="0" y1="270.1" x2="347" y2="270.1"/>
		<line fill="none" stroke="#000000" stroke-miterlimit="10" x1="370.2" y1="270.1" x2="366.3" y2="270.1"/>
		<line fill="none" stroke="#000000" stroke-miterlimit="10" x1="386.7" y1="263.4" x2="367.7" y2="263.4"/>
		<line fill="none" stroke="#000000" stroke-miterlimit="10" x1="3.5" y1="263.4" x2="351.9" y2="263.4"/>
		<line fill="none" stroke="#000000" stroke-miterlimit="10" x1="23.3" y1="256.8" x2="359.9" y2="256.8"/>
		<line fill="none" stroke="#000000" stroke-miterlimit="10" x1="369.3" y1="256.8" x2="394.3" y2="256.8"/>
		<line fill="none" stroke="#000000" stroke-miterlimit="10" x1="402.1" y1="250.1" x2="37.1" y2="250.1"/>
		<line fill="none" stroke="#000000" stroke-miterlimit="10" x1="224.6" y1="243.5" x2="47.3" y2="243.5"/>
		<line fill="none" stroke="#000000" stroke-miterlimit="10" x1="415.8" y1="243.5" x2="245.4" y2="243.5"/>
		<line fill="none" stroke="#000000" stroke-miterlimit="10" x1="278.5" y1="236.9" x2="427.7" y2="236.9"/>
		<line fill="none" stroke="#000000" stroke-miterlimit="10" x1="49.7" y1="236.9" x2="192.1" y2="236.9"/>
		<line fill="none" stroke="#000000" stroke-miterlimit="10" x1="54.9" y1="230.2" x2="169.6" y2="230.2"/>
		<line fill="none" stroke="#000000" stroke-miterlimit="10" x1="284.8" y1="230.2" x2="438.6" y2="230.2"/>
		<line fill="none" stroke="#000000" stroke-miterlimit="10" x1="52.1" y1="223.6" x2="167.1" y2="223.6"/>
		<line fill="none" stroke="#000000" stroke-miterlimit="10" x1="292" y1="223.6" x2="439" y2="223.6"/>
		<line fill="none" stroke="#000000" stroke-miterlimit="10" x1="438.1" y1="217" x2="288.5" y2="217"/>
		<line fill="none" stroke="#000000" stroke-miterlimit="10" x1="158.4" y1="217" x2="51.4" y2="217"/>
		<line fill="none" stroke="#000000" stroke-miterlimit="10" x1="67.5" y1="210.3" x2="53" y2="210.3"/>
		<line fill="none" stroke="#000000" stroke-miterlimit="10" x1="132.2" y1="210.3" x2="68.3" y2="210.3"/>
		<line fill="none" stroke="#000000" stroke-miterlimit="10" x1="310.5" y1="210.3" x2="442.5" y2="210.3"/>
		<line fill="none" stroke="#000000" stroke-miterlimit="10" x1="325.6" y1="203.7" x2="456" y2="203.7"/>
		<line fill="none" stroke="#000000" stroke-miterlimit="10" x1="66.4" y1="203.7" x2="130.9" y2="203.7"/>
		<line fill="none" stroke="#000000" stroke-miterlimit="10" x1="69.3" y1="197.1" x2="132.2" y2="197.1"/>
		<line fill="none" stroke="#000000" stroke-miterlimit="10" x1="459.4" y1="197.1" x2="332.9" y2="197.1"/>
		<line fill="none" stroke="#000000" stroke-miterlimit="10" x1="460.5" y1="190.4" x2="352" y2="190.4"/>
		<line fill="none" stroke="#000000" stroke-miterlimit="10" x1="131.3" y1="190.4" x2="86.8" y2="190.4"/>
		<line fill="none" stroke="#000000" stroke-miterlimit="10" x1="85.1" y1="190.4" x2="71.4" y2="190.4"/>
		<line fill="none" stroke="#000000" stroke-miterlimit="10" x1="346.5" y1="183.8" x2="464.6" y2="183.8"/>
		<line fill="none" stroke="#000000" stroke-miterlimit="10" x1="91.7" y1="183.8" x2="127.5" y2="183.8"/>
		<line fill="none" stroke="#000000" stroke-miterlimit="10" x1="454.5" y1="177.2" x2="464.6" y2="177.2"/>
		<line fill="none" stroke="#000000" stroke-miterlimit="10" x1="435.3" y1="177.2" x2="319.4" y2="177.2"/>
		<line fill="none" stroke="#000000" stroke-miterlimit="10" x1="91.5" y1="177.2" x2="116.6" y2="177.2"/>
		<line fill="none" stroke="#000000" stroke-miterlimit="10" x1="99.7" y1="170.5" x2="109.9" y2="170.5"/>
		<line fill="none" stroke="#000000" stroke-miterlimit="10" x1="433.9" y1="170.5" x2="322.8" y2="170.5"/>
		<line fill="none" stroke="#000000" stroke-miterlimit="10" x1="427.3" y1="163.9" x2="325" y2="163.9"/>
		<line fill="none" stroke="#000000" stroke-miterlimit="10" x1="411" y1="157.2" x2="341.6" y2="157.2"/>
		<line fill="none" stroke="#000000" stroke-miterlimit="10" x1="410" y1="150.6" x2="347.3" y2="150.6"/>
		<line fill="none" stroke="#000000" stroke-miterlimit="10" x1="406.6" y1="144" x2="350.5" y2="144"/>
		<line fill="none" stroke="#000000" stroke-miterlimit="10" x1="404.6" y1="137.3" x2="352.8" y2="137.3"/>
		<line fill="none" stroke="#000000" stroke-miterlimit="10" x1="402.5" y1="130.7" x2="358.9" y2="130.7"/>
		<line fill="none" stroke="#000000" stroke-miterlimit="10" x1="400.1" y1="124.1" x2="356.1" y2="124.1"/>
		<line fill="none" stroke="#000000" stroke-miterlimit="10" x1="357.4" y1="117.4" x2="394.9" y2="117.4"/>
		<line fill="none" stroke="#000000" stroke-miterlimit="10" x1="365.7" y1="356.3" x2="67.2" y2="356.3"/>
		<line fill="none" stroke="#000000" stroke-miterlimit="10" x1="0.7" y1="277.1" x2="347.7" y2="277.1"/>
	</g>
</g>
</svg>
