<?xml version="1.0" encoding="utf-8"?>
<!DOCTYPE svg PUBLIC "-//W3C//DTD SVG 1.1//EN" "http://www.w3.org/Graphics/SVG/1.1/DTD/svg11.dtd">
<svg version="1.1" xmlns="http://www.w3.org/2000/svg" xmlns:xlink="http://www.w3.org/1999/xlink" x="0px" y="0px" width="331px"
	 height="164px" viewBox="0 0 331 164" enable-background="new 0 0 331 164" xml:space="preserve">
<g>
	<g>
		<line fill="none" stroke="#000000" stroke-miterlimit="10" x1="266" y1="156.6" x2="3.6" y2="156.6"/>
		<line fill="none" stroke="#000000" stroke-miterlimit="10" x1="270.7" y1="151.1" x2="3.6" y2="151.1"/>
		<line fill="none" stroke="#000000" stroke-miterlimit="10" x1="270.7" y1="145.7" x2="3.6" y2="145.7"/>
		<line fill="none" stroke="#000000" stroke-miterlimit="10" x1="270.7" y1="140.2" x2="3.6" y2="140.2"/>
		<line fill="none" stroke="#000000" stroke-miterlimit="10" x1="202.6" y1="61" x2="3.4" y2="61"/>
		<line fill="none" stroke="#000000" stroke-miterlimit="10" x1="202.6" y1="55.5" x2="3.4" y2="55.5"/>
		<line fill="none" stroke="#000000" stroke-miterlimit="10" x1="202.6" y1="50" x2="3.4" y2="50"/>
		<polygon fill="none" stroke="#000000" stroke-width="3" stroke-miterlimit="10" points="202.6,62.6 202.6,6.4 169.9,2 3.4,2 
			3.4,33.6 3.4,36 3.4,67.6 169.9,67.6 		"/>
		<rect x="206.6" y="21.5" width="12.9" height="25.8"/>
		<line fill="none" stroke="#000000" stroke-width="3" stroke-miterlimit="10" x1="246" y1="22.7" x2="223.5" y2="22.7"/>
		<rect x="223.5" y="18.4" fill="none" stroke="#000000" stroke-width="3" stroke-miterlimit="10" width="22.5" height="32.9"/>
		<line fill="none" stroke="#000000" stroke-width="3" stroke-miterlimit="10" x1="246" y1="27.5" x2="223.5" y2="27.5"/>
		<line fill="none" stroke="#000000" stroke-width="3" stroke-miterlimit="10" x1="246" y1="32.3" x2="223.5" y2="32.3"/>
		<line fill="none" stroke="#000000" stroke-width="3" stroke-miterlimit="10" x1="246" y1="37.1" x2="223.5" y2="37.1"/>
		<line fill="none" stroke="#000000" stroke-width="3" stroke-miterlimit="10" x1="246" y1="41.9" x2="223.5" y2="41.9"/>
		<line fill="none" stroke="#000000" stroke-width="3" stroke-miterlimit="10" x1="246" y1="46.8" x2="223.5" y2="46.8"/>
		<line fill="none" stroke="#000000" stroke-width="3" stroke-miterlimit="10" x1="169.9" y1="2" x2="169.9" y2="68.3"/>
		<polygon fill="none" stroke="#000000" stroke-width="3" stroke-miterlimit="10" points="270.7,155.9 270.7,80.5 226.8,74.5 
			3.4,74.5 3.4,117 3.4,120.1 3.4,162.6 226.8,162.6 		"/>
		<rect x="276.1" y="100.7" width="17.3" height="34.7"/>
		<line fill="none" stroke="#000000" stroke-width="3" stroke-miterlimit="10" x1="329" y1="101.6" x2="298.8" y2="101.6"/>
		<line fill="none" stroke="#000000" stroke-width="3" stroke-miterlimit="10" x1="329" y1="107.2" x2="298.8" y2="107.2"/>
		<rect x="298.8" y="96.5" fill="none" stroke="#000000" stroke-width="3" stroke-miterlimit="10" width="30.2" height="44.1"/>
		<line fill="none" stroke="#000000" stroke-width="3" stroke-miterlimit="10" x1="329" y1="112.7" x2="298.8" y2="112.7"/>
		<line fill="none" stroke="#000000" stroke-width="3" stroke-miterlimit="10" x1="329" y1="118.3" x2="298.8" y2="118.3"/>
		<line fill="none" stroke="#000000" stroke-width="3" stroke-miterlimit="10" x1="329" y1="123.9" x2="298.8" y2="123.9"/>
		<line fill="none" stroke="#000000" stroke-width="3" stroke-miterlimit="10" x1="329" y1="129.4" x2="298.8" y2="129.4"/>
		<line fill="none" stroke="#000000" stroke-width="3" stroke-miterlimit="10" x1="329" y1="135" x2="298.8" y2="135"/>
		<line fill="none" stroke="#000000" stroke-width="3" stroke-miterlimit="10" x1="226.8" y1="74.5" x2="226.8" y2="163.5"/>
	</g>
</g>
</svg>
