<?xml version="1.0" encoding="utf-8"?>
<!DOCTYPE svg PUBLIC "-//W3C//DTD SVG 1.1//EN" "http://www.w3.org/Graphics/SVG/1.1/DTD/svg11.dtd">
<svg version="1.1" id="Calque_1" xmlns="http://www.w3.org/2000/svg" xmlns:xlink="http://www.w3.org/1999/xlink" x="0px" y="0px"
	 width="300px" height="262px" viewBox="0 0 300 262" enable-background="new 0 0 300 262" xml:space="preserve">
<g>
	<rect x="252.2" y="28.2" width="46.2" height="10.1"/>
	<line fill="none" stroke="#000000" stroke-width="3" stroke-miterlimit="10" x1="292.5" y1="3" x2="292.5" y2="24.6"/>
	<line fill="none" stroke="#000000" stroke-width="3" stroke-miterlimit="10" x1="286.7" y1="3" x2="286.7" y2="24.6"/>
	<rect x="251.7" y="3" fill="none" stroke="#000000" stroke-width="3" stroke-miterlimit="10" width="46.1" height="21.6"/>
	<line fill="none" stroke="#000000" stroke-width="3" stroke-miterlimit="10" x1="280.8" y1="3" x2="280.8" y2="24.6"/>
	<line fill="none" stroke="#000000" stroke-width="3" stroke-miterlimit="10" x1="275" y1="3" x2="275" y2="24.6"/>
	<line fill="none" stroke="#000000" stroke-width="3" stroke-miterlimit="10" x1="269.2" y1="3" x2="269.2" y2="24.6"/>
	<line fill="none" stroke="#000000" stroke-width="3" stroke-miterlimit="10" x1="263.4" y1="3" x2="263.4" y2="24.6"/>
	<line fill="none" stroke="#000000" stroke-width="3" stroke-miterlimit="10" x1="257.6" y1="3" x2="257.6" y2="24.6"/>
	<path fill="none" stroke="#000000" stroke-miterlimit="10" d="M296.9,72.6c-7.1,0.2-12.8,6-12.8,13.1v135.2
		c0,7.1,5.7,12.9,12.8,13.1"/>
	<rect x="252.8" y="45.3" fill="none" stroke="#0F0F0F" stroke-width="3" stroke-miterlimit="10" width="44" height="216.1"/>
	<path fill="none" stroke="#000000" stroke-width="1.0602" stroke-miterlimit="10" d="M261.4,254.2c0,2.4-1.9,4.3-4.3,4.3
		c-2.4,0-4.3-1.9-4.3-4.3"/>
	<path fill="none" stroke="#000000" stroke-width="1.0602" stroke-miterlimit="10" d="M270.1,254.4c0-2.4-1.9-4.3-4.3-4.3
		c-2.4,0-4.3,1.9-4.3,4.3"/>
	<path fill="none" stroke="#000000" stroke-width="1.0602" stroke-miterlimit="10" d="M270.1,254.2c0,2.4,1.9,4.3,4.3,4.3
		c2.4,0,4.3-1.9,4.3-4.3"/>
	<path fill="none" stroke="#000000" stroke-width="1.0602" stroke-miterlimit="10" d="M287.4,254.4c0-2.4-1.9-4.3-4.3-4.3
		c-2.4,0-4.3,1.9-4.3,4.3"/>
	<path fill="none" stroke="#000000" stroke-width="1.0602" stroke-miterlimit="10" d="M287.4,254.2c0,2.4,1.9,4.3,4.3,4.3
		c2.4,0,4.3-1.9,4.3-4.3"/>
	<path fill="none" stroke="#000000" stroke-width="1.0602" stroke-miterlimit="10" d="M254.6,261.2c-1.1-0.8-1.8-2.1-1.8-3.5"/>
	<path fill="none" stroke="#000000" stroke-width="1.0602" stroke-miterlimit="10" d="M259.6,261.2c1.1-0.8,1.8-2.1,1.8-3.5"/>
	<path fill="none" stroke="#000000" stroke-width="1.0602" stroke-miterlimit="10" d="M270.1,257.9c0-2.4-1.9-4.3-4.3-4.3
		c-2.4,0-4.3,1.9-4.3,4.3"/>
	<path fill="none" stroke="#000000" stroke-width="1.0602" stroke-miterlimit="10" d="M276.9,261.2c1.1-0.8,1.8-2.1,1.8-3.5"/>
	<path fill="none" stroke="#000000" stroke-width="1.0602" stroke-miterlimit="10" d="M271.9,261.2c-1.1-0.8-1.8-2.1-1.8-3.5"/>
	<path fill="none" stroke="#000000" stroke-width="1.0602" stroke-miterlimit="10" d="M287.4,257.9c0-2.4-1.9-4.3-4.3-4.3
		c-2.4,0-4.3,1.9-4.3,4.3"/>
	<path fill="none" stroke="#000000" stroke-width="1.0602" stroke-miterlimit="10" d="M294.3,261.2c1.1-0.8,1.8-2.1,1.8-3.5"/>
	<path fill="none" stroke="#000000" stroke-width="1.0602" stroke-miterlimit="10" d="M289.3,261.2c-1.1-0.8-1.8-2.1-1.8-3.5"/>
	<path fill="none" stroke="#000000" stroke-width="1.0602" stroke-miterlimit="10" d="M270.1,261.2c0,0.1,0,0.2,0,0.2"/>
	<path fill="none" stroke="#000000" stroke-width="1.0602" stroke-miterlimit="10" d="M261.5,261.2c0,0.1,0,0.2,0,0.2"/>
	<path fill="none" stroke="#000000" stroke-width="1.0602" stroke-miterlimit="10" d="M270.1,261.2c-0.1-2.3-2-4.1-4.3-4.1
		s-4.2,1.8-4.3,4.1"/>
	<path fill="none" stroke="#000000" stroke-width="1.0602" stroke-miterlimit="10" d="M278.8,261.2c0,0.1,0,0.2,0,0.2"/>
	<path fill="none" stroke="#000000" stroke-width="1.0602" stroke-miterlimit="10" d="M287.4,261.2c0,0.1,0,0.2,0,0.2"/>
	<path fill="none" stroke="#000000" stroke-width="1.0602" stroke-miterlimit="10" d="M287.4,261.2c-0.1-2.3-2-4.1-4.3-4.1
		c-2.3,0-4.2,1.8-4.3,4.1"/>
	<path fill="none" stroke="#000000" stroke-width="1.0602" stroke-miterlimit="10" d="M261.4,249.9c0,2.4-1.9,4.3-4.3,4.3
		c-2.4,0-4.3-1.9-4.3-4.3"/>
	<path fill="none" stroke="#000000" stroke-width="1.0602" stroke-miterlimit="10" d="M270.1,250.2c0-2.4-1.9-4.3-4.3-4.3
		c-2.4,0-4.3,1.9-4.3,4.3"/>
	<path fill="none" stroke="#000000" stroke-width="1.0602" stroke-miterlimit="10" d="M278.8,249.9c0,2.4-1.9,4.3-4.3,4.3
		s-4.3-1.9-4.3-4.3"/>
	<path fill="none" stroke="#000000" stroke-width="1.0602" stroke-miterlimit="10" d="M287.4,250.2c0-2.4-1.9-4.3-4.3-4.3
		c-2.4,0-4.3,1.9-4.3,4.3"/>
	<path fill="none" stroke="#000000" stroke-width="1.0602" stroke-miterlimit="10" d="M287.4,249.9c0,2.4,1.9,4.3,4.3,4.3
		c2.4,0,4.3-1.9,4.3-4.3"/>
	<path fill="none" stroke="#000000" stroke-width="1.0602" stroke-miterlimit="10" d="M261.4,245.7c0,2.4-1.9,4.3-4.3,4.3
		c-2.4,0-4.3-1.9-4.3-4.3"/>
	<path fill="none" stroke="#000000" stroke-width="1.0602" stroke-miterlimit="10" d="M270.1,246c0-2.4-1.9-4.3-4.3-4.3
		c-2.4,0-4.3,1.9-4.3,4.3"/>
	<path fill="none" stroke="#000000" stroke-width="1.0602" stroke-miterlimit="10" d="M278.8,245.7c0,2.4-1.9,4.3-4.3,4.3
		s-4.3-1.9-4.3-4.3"/>
	<path fill="none" stroke="#000000" stroke-width="1.0602" stroke-miterlimit="10" d="M278.8,246c0-2.4,1.9-4.3,4.3-4.3
		c2.4,0,4.3,1.9,4.3,4.3"/>
	<path fill="none" stroke="#000000" stroke-width="1.0602" stroke-miterlimit="10" d="M287.4,245.7c0,2.4,1.9,4.3,4.3,4.3
		c2.4,0,4.3-1.9,4.3-4.3"/>
	<path fill="none" stroke="#000000" stroke-width="1.0602" stroke-miterlimit="10" d="M261.4,241.5c0,2.4-1.9,4.3-4.3,4.3
		c-2.4,0-4.3-1.9-4.3-4.3"/>
	<path fill="none" stroke="#000000" stroke-width="1.0602" stroke-miterlimit="10" d="M270.1,241.8c0-2.4-1.9-4.3-4.3-4.3
		c-2.4,0-4.3,1.9-4.3,4.3"/>
	<path fill="none" stroke="#000000" stroke-width="1.0602" stroke-miterlimit="10" d="M270.1,241.5c0,2.4,1.9,4.3,4.3,4.3
		c2.4,0,4.3-1.9,4.3-4.3"/>
	<path fill="none" stroke="#000000" stroke-width="1.0602" stroke-miterlimit="10" d="M278.8,241.8c0-2.4,1.9-4.3,4.3-4.3
		c2.4,0,4.3,1.9,4.3,4.3"/>
	<path fill="none" stroke="#000000" stroke-width="1.0602" stroke-miterlimit="10" d="M287.4,241.5c0,2.4,1.9,4.3,4.3,4.3
		c2.4,0,4.3-1.9,4.3-4.3"/>
	<path fill="none" stroke="#000000" stroke-width="1.0602" stroke-miterlimit="10" d="M261.4,237.3c0,2.4-1.9,4.3-4.3,4.3
		c-2.4,0-4.3-1.9-4.3-4.3"/>
	<path fill="none" stroke="#000000" stroke-width="1.0602" stroke-miterlimit="10" d="M270.1,237.6c0-2.4-1.9-4.3-4.3-4.3
		c-2.4,0-4.3,1.9-4.3,4.3"/>
	<path fill="none" stroke="#000000" stroke-width="1.0602" stroke-miterlimit="10" d="M270.1,237.3c0,2.4,1.9,4.3,4.3,4.3
		c2.4,0,4.3-1.9,4.3-4.3"/>
	<path fill="none" stroke="#000000" stroke-width="1.0602" stroke-miterlimit="10" d="M278.8,237.6c0-2.4,1.9-4.3,4.3-4.3
		c2.4,0,4.3,1.9,4.3,4.3"/>
	<path fill="none" stroke="#000000" stroke-width="1.0602" stroke-miterlimit="10" d="M296.1,237.3c0,2.4-1.9,4.3-4.3,4.3
		c-2.4,0-4.3-1.9-4.3-4.3"/>
	<path fill="none" stroke="#000000" stroke-width="1.0602" stroke-miterlimit="10" d="M261.4,233.1c0,2.4-1.9,4.3-4.3,4.3
		c-2.4,0-4.3-1.9-4.3-4.3"/>
	<path fill="none" stroke="#000000" stroke-width="1.0602" stroke-miterlimit="10" d="M270.1,233.3c0-2.4-1.9-4.3-4.3-4.3
		c-2.4,0-4.3,1.9-4.3,4.3"/>
	<path fill="none" stroke="#000000" stroke-width="1.0602" stroke-miterlimit="10" d="M270.1,233.1c0,2.4,1.9,4.3,4.3,4.3
		c2.4,0,4.3-1.9,4.3-4.3"/>
	<path fill="none" stroke="#000000" stroke-width="1.0602" stroke-miterlimit="10" d="M287.4,233.3c0-2.4-1.9-4.3-4.3-4.3
		c-2.4,0-4.3,1.9-4.3,4.3"/>
	<path fill="none" stroke="#000000" stroke-width="1.0602" stroke-miterlimit="10" d="M287.4,233.1c0,2.4,1.9,4.3,4.3,4.3
		c2.1,0,3.8-1.5,4.2-3.5"/>
	<path fill="none" stroke="#000000" stroke-width="1.0602" stroke-miterlimit="10" d="M261.4,228.9c0,2.4-1.9,4.3-4.3,4.3
		c-2.4,0-4.3-1.9-4.3-4.3"/>
	<path fill="none" stroke="#000000" stroke-width="1.0602" stroke-miterlimit="10" d="M270.1,229.1c0-2.4-1.9-4.3-4.3-4.3
		c-2.4,0-4.3,1.9-4.3,4.3"/>
	<path fill="none" stroke="#000000" stroke-width="1.0602" stroke-miterlimit="10" d="M270.1,228.9c0,2.4,1.9,4.3,4.3,4.3
		c2.4,0,4.3-1.9,4.3-4.3"/>
	<path fill="none" stroke="#000000" stroke-width="1.0602" stroke-miterlimit="10" d="M278.8,229.1c0-2.4,1.9-4.3,4.3-4.3
		c0.6,0,1.2,0.1,1.7,0.3"/>
	<path fill="none" stroke="#000000" stroke-width="1.0602" stroke-miterlimit="10" d="M287.5,229.8c0.4,2,2.2,3.4,4.2,3.4
		c0.2,0,0.5,0,0.7-0.1"/>
	<path fill="none" stroke="#000000" stroke-width="1.0602" stroke-miterlimit="10" d="M261.4,224.7c0,2.4-1.9,4.3-4.3,4.3
		c-2.4,0-4.3-1.9-4.3-4.3"/>
	<path fill="none" stroke="#000000" stroke-width="1.0602" stroke-miterlimit="10" d="M270.1,224.9c0-2.4-1.9-4.3-4.3-4.3
		c-2.4,0-4.3,1.9-4.3,4.3"/>
	<path fill="none" stroke="#000000" stroke-width="1.0602" stroke-miterlimit="10" d="M270.1,224.7c0,2.4,1.9,4.3,4.3,4.3
		c2.4,0,4.3-1.9,4.3-4.3"/>
	<path fill="none" stroke="#000000" stroke-width="1.0602" stroke-miterlimit="10" d="M278.8,224.9c0-2.4,1.9-4.3,4.3-4.3
		c0.3,0,0.7,0,1,0.1"/>
	<path fill="none" stroke="#000000" stroke-width="1.0602" stroke-miterlimit="10" d="M261.4,220.5c0,2.4-1.9,4.3-4.3,4.3
		c-2.4,0-4.3-1.9-4.3-4.3"/>
	<path fill="none" stroke="#000000" stroke-width="1.0602" stroke-miterlimit="10" d="M270.1,220.7c0-2.4-1.9-4.3-4.3-4.3
		c-2.4,0-4.3,1.9-4.3,4.3"/>
	<path fill="none" stroke="#000000" stroke-width="1.0602" stroke-miterlimit="10" d="M270.1,220.5c0,2.4,1.9,4.3,4.3,4.3
		c2.4,0,4.3-1.9,4.3-4.3"/>
	<path fill="none" stroke="#000000" stroke-width="1.0602" stroke-miterlimit="10" d="M278.8,220.7c0-2.4,1.9-4.3,4.3-4.3
		c0.3,0,0.7,0,1,0.1"/>
	<path fill="none" stroke="#000000" stroke-width="1.0602" stroke-miterlimit="10" d="M261.4,216.3c0,2.4-1.9,4.3-4.3,4.3
		c-2.4,0-4.3-1.9-4.3-4.3"/>
	<path fill="none" stroke="#000000" stroke-width="1.0602" stroke-miterlimit="10" d="M270.1,216.5c0-2.4-1.9-4.3-4.3-4.3
		c-2.4,0-4.3,1.9-4.3,4.3"/>
	<path fill="none" stroke="#000000" stroke-width="1.0602" stroke-miterlimit="10" d="M270.1,216.3c0,2.4,1.9,4.3,4.3,4.3
		c2.4,0,4.3-1.9,4.3-4.3"/>
	<path fill="none" stroke="#000000" stroke-width="1.0602" stroke-miterlimit="10" d="M278.8,216.5c0-2.4,1.9-4.3,4.3-4.3
		c0.3,0,0.7,0,1,0.1"/>
	<path fill="none" stroke="#000000" stroke-width="1.0602" stroke-miterlimit="10" d="M261.4,212c0,2.4-1.9,4.3-4.3,4.3
		c-2.4,0-4.3-1.9-4.3-4.3"/>
	<path fill="none" stroke="#000000" stroke-width="1.0602" stroke-miterlimit="10" d="M270.1,212.3c0-2.4-1.9-4.3-4.3-4.3
		c-2.4,0-4.3,1.9-4.3,4.3"/>
	<path fill="none" stroke="#000000" stroke-width="1.0602" stroke-miterlimit="10" d="M270.1,212c0,2.4,1.9,4.3,4.3,4.3
		c2.4,0,4.3-1.9,4.3-4.3"/>
	<path fill="none" stroke="#000000" stroke-width="1.0602" stroke-miterlimit="10" d="M278.8,212.3c0-2.4,1.9-4.3,4.3-4.3
		c0.3,0,0.7,0,1,0.1"/>
	<path fill="none" stroke="#000000" stroke-width="1.0602" stroke-miterlimit="10" d="M261.4,207.8c0,2.4-1.9,4.3-4.3,4.3
		c-2.4,0-4.3-1.9-4.3-4.3"/>
	<path fill="none" stroke="#000000" stroke-width="1.0602" stroke-miterlimit="10" d="M270.1,208.1c0-2.4-1.9-4.3-4.3-4.3
		c-2.4,0-4.3,1.9-4.3,4.3"/>
	<path fill="none" stroke="#000000" stroke-width="1.0602" stroke-miterlimit="10" d="M270.1,207.8c0,2.4,1.9,4.3,4.3,4.3
		c2.4,0,4.3-1.9,4.3-4.3"/>
	<path fill="none" stroke="#000000" stroke-width="1.0602" stroke-miterlimit="10" d="M278.8,208.1c0-2.4,1.9-4.3,4.3-4.3
		c0.3,0,0.7,0,1,0.1"/>
	<path fill="none" stroke="#000000" stroke-width="1.0602" stroke-miterlimit="10" d="M261.4,203.6c0,2.4-1.9,4.3-4.3,4.3
		c-2.4,0-4.3-1.9-4.3-4.3"/>
	<path fill="none" stroke="#000000" stroke-width="1.0602" stroke-miterlimit="10" d="M270.1,203.9c0-2.4-1.9-4.3-4.3-4.3
		c-2.4,0-4.3,1.9-4.3,4.3"/>
	<path fill="none" stroke="#000000" stroke-width="1.0602" stroke-miterlimit="10" d="M270.1,203.6c0,2.4,1.9,4.3,4.3,4.3
		c2.4,0,4.3-1.9,4.3-4.3"/>
	<path fill="none" stroke="#000000" stroke-width="1.0602" stroke-miterlimit="10" d="M278.8,203.9c0-2.4,1.9-4.3,4.3-4.3
		c0.3,0,0.7,0,1,0.1"/>
	<path fill="none" stroke="#000000" stroke-width="1.0602" stroke-miterlimit="10" d="M261.4,199.4c0,2.4-1.9,4.3-4.3,4.3
		c-2.4,0-4.3-1.9-4.3-4.3"/>
	<path fill="none" stroke="#000000" stroke-width="1.0602" stroke-miterlimit="10" d="M270.1,199.7c0-2.4-1.9-4.3-4.3-4.3
		c-2.4,0-4.3,1.9-4.3,4.3"/>
	<path fill="none" stroke="#000000" stroke-width="1.0602" stroke-miterlimit="10" d="M270.1,199.4c0,2.4,1.9,4.3,4.3,4.3
		c2.4,0,4.3-1.9,4.3-4.3"/>
	<path fill="none" stroke="#000000" stroke-width="1.0602" stroke-miterlimit="10" d="M278.8,199.7c0-2.4,1.9-4.3,4.3-4.3
		c0.3,0,0.7,0,1,0.1"/>
	<path fill="none" stroke="#000000" stroke-width="1.0602" stroke-miterlimit="10" d="M261.4,195.2c0,2.4-1.9,4.3-4.3,4.3
		c-2.4,0-4.3-1.9-4.3-4.3"/>
	<path fill="none" stroke="#000000" stroke-width="1.0602" stroke-miterlimit="10" d="M270.1,195.4c0-2.4-1.9-4.3-4.3-4.3
		c-2.4,0-4.3,1.9-4.3,4.3"/>
	<path fill="none" stroke="#000000" stroke-width="1.0602" stroke-miterlimit="10" d="M270.1,195.2c0,2.4,1.9,4.3,4.3,4.3
		c2.4,0,4.3-1.9,4.3-4.3"/>
	<path fill="none" stroke="#000000" stroke-width="1.0602" stroke-miterlimit="10" d="M278.8,195.4c0-2.4,1.9-4.3,4.3-4.3
		c0.3,0,0.7,0,1,0.1"/>
	<path fill="none" stroke="#000000" stroke-width="1.0602" stroke-miterlimit="10" d="M261.4,191c0,2.4-1.9,4.3-4.3,4.3
		c-2.4,0-4.3-1.9-4.3-4.3"/>
	<path fill="none" stroke="#000000" stroke-width="1.0602" stroke-miterlimit="10" d="M270.1,191.2c0-2.4-1.9-4.3-4.3-4.3
		c-2.4,0-4.3,1.9-4.3,4.3"/>
	<path fill="none" stroke="#000000" stroke-width="1.0602" stroke-miterlimit="10" d="M270.1,191c0,2.4,1.9,4.3,4.3,4.3
		c2.4,0,4.3-1.9,4.3-4.3"/>
	<path fill="none" stroke="#000000" stroke-width="1.0602" stroke-miterlimit="10" d="M278.8,191.2c0-2.4,1.9-4.3,4.3-4.3
		c0.3,0,0.7,0,1,0.1"/>
	<path fill="none" stroke="#000000" stroke-width="1.0602" stroke-miterlimit="10" d="M261.4,186.8c0,2.4-1.9,4.3-4.3,4.3
		c-2.4,0-4.3-1.9-4.3-4.3"/>
	<path fill="none" stroke="#000000" stroke-width="1.0602" stroke-miterlimit="10" d="M270.1,187c0-2.4-1.9-4.3-4.3-4.3
		c-2.4,0-4.3,1.9-4.3,4.3"/>
	<path fill="none" stroke="#000000" stroke-width="1.0602" stroke-miterlimit="10" d="M270.1,186.8c0,2.4,1.9,4.3,4.3,4.3
		c2.4,0,4.3-1.9,4.3-4.3"/>
	<path fill="none" stroke="#000000" stroke-width="1.0602" stroke-miterlimit="10" d="M278.8,187c0-2.4,1.9-4.3,4.3-4.3
		c0.3,0,0.7,0,1,0.1"/>
	<path fill="none" stroke="#000000" stroke-width="1.0602" stroke-miterlimit="10" d="M261.4,182.6c0,2.4-1.9,4.3-4.3,4.3
		c-2.4,0-4.3-1.9-4.3-4.3"/>
	<path fill="none" stroke="#000000" stroke-width="1.0602" stroke-miterlimit="10" d="M270.1,182.8c0-2.4-1.9-4.3-4.3-4.3
		c-2.4,0-4.3,1.9-4.3,4.3"/>
	<path fill="none" stroke="#000000" stroke-width="1.0602" stroke-miterlimit="10" d="M270.1,182.6c0,2.4,1.9,4.3,4.3,4.3
		c2.4,0,4.3-1.9,4.3-4.3"/>
	<path fill="none" stroke="#000000" stroke-width="1.0602" stroke-miterlimit="10" d="M278.8,182.8c0-2.4,1.9-4.3,4.3-4.3
		c0.3,0,0.7,0,1,0.1"/>
	<path fill="none" stroke="#000000" stroke-width="1.0602" stroke-miterlimit="10" d="M261.4,178.4c0,2.4-1.9,4.3-4.3,4.3
		c-2.4,0-4.3-1.9-4.3-4.3"/>
	<path fill="none" stroke="#000000" stroke-width="1.0602" stroke-miterlimit="10" d="M270.1,178.6c0-2.4-1.9-4.3-4.3-4.3
		c-2.4,0-4.3,1.9-4.3,4.3"/>
	<path fill="none" stroke="#000000" stroke-width="1.0602" stroke-miterlimit="10" d="M270.1,178.4c0,2.4,1.9,4.3,4.3,4.3
		c2.4,0,4.3-1.9,4.3-4.3"/>
	<path fill="none" stroke="#000000" stroke-width="1.0602" stroke-miterlimit="10" d="M278.8,178.6c0-2.4,1.9-4.3,4.3-4.3
		c0.3,0,0.7,0,1,0.1"/>
	<path fill="none" stroke="#000000" stroke-width="1.0602" stroke-miterlimit="10" d="M261.4,174.1c0,2.4-1.9,4.3-4.3,4.3
		c-2.4,0-4.3-1.9-4.3-4.3"/>
	<path fill="none" stroke="#000000" stroke-width="1.0602" stroke-miterlimit="10" d="M270.1,174.4c0-2.4-1.9-4.3-4.3-4.3
		c-2.4,0-4.3,1.9-4.3,4.3"/>
	<path fill="none" stroke="#000000" stroke-width="1.0602" stroke-miterlimit="10" d="M270.1,174.1c0,2.4,1.9,4.3,4.3,4.3
		c2.4,0,4.3-1.9,4.3-4.3"/>
	<path fill="none" stroke="#000000" stroke-width="1.0602" stroke-miterlimit="10" d="M278.8,174.4c0-2.4,1.9-4.3,4.3-4.3
		c0.3,0,0.7,0,1,0.1"/>
	<path fill="none" stroke="#000000" stroke-width="1.0602" stroke-miterlimit="10" d="M261.4,169.9c0,2.4-1.9,4.3-4.3,4.3
		c-2.4,0-4.3-1.9-4.3-4.3"/>
	<path fill="none" stroke="#000000" stroke-width="1.0602" stroke-miterlimit="10" d="M270.1,170.2c0-2.4-1.9-4.3-4.3-4.3
		c-2.4,0-4.3,1.9-4.3,4.3"/>
	<path fill="none" stroke="#000000" stroke-width="1.0602" stroke-miterlimit="10" d="M270.1,169.9c0,2.4,1.9,4.3,4.3,4.3
		c2.4,0,4.3-1.9,4.3-4.3"/>
	<path fill="none" stroke="#000000" stroke-width="1.0602" stroke-miterlimit="10" d="M278.8,170.2c0-2.4,1.9-4.3,4.3-4.3
		c0.3,0,0.7,0,1,0.1"/>
	<path fill="none" stroke="#000000" stroke-width="1.0602" stroke-miterlimit="10" d="M261.4,165.7c0,2.4-1.9,4.3-4.3,4.3
		c-2.4,0-4.3-1.9-4.3-4.3"/>
	<path fill="none" stroke="#000000" stroke-width="1.0602" stroke-miterlimit="10" d="M270.1,166c0-2.4-1.9-4.3-4.3-4.3
		c-2.4,0-4.3,1.9-4.3,4.3"/>
	<path fill="none" stroke="#000000" stroke-width="1.0602" stroke-miterlimit="10" d="M270.1,165.7c0,2.4,1.9,4.3,4.3,4.3
		c2.4,0,4.3-1.9,4.3-4.3"/>
	<path fill="none" stroke="#000000" stroke-width="1.0602" stroke-miterlimit="10" d="M278.8,166c0-2.4,1.9-4.3,4.3-4.3
		c0.3,0,0.7,0,1,0.1"/>
	<path fill="none" stroke="#000000" stroke-width="1.0602" stroke-miterlimit="10" d="M261.4,161.5c0,2.4-1.9,4.3-4.3,4.3
		c-2.4,0-4.3-1.9-4.3-4.3"/>
	<path fill="none" stroke="#000000" stroke-width="1.0602" stroke-miterlimit="10" d="M270.1,161.8c0-2.4-1.9-4.3-4.3-4.3
		c-2.4,0-4.3,1.9-4.3,4.3"/>
	<path fill="none" stroke="#000000" stroke-width="1.0602" stroke-miterlimit="10" d="M270.1,161.5c0,2.4,1.9,4.3,4.3,4.3
		c2.4,0,4.3-1.9,4.3-4.3"/>
	<path fill="none" stroke="#000000" stroke-width="1.0602" stroke-miterlimit="10" d="M278.8,161.8c0-2.4,1.9-4.3,4.3-4.3
		c0.3,0,0.7,0,1,0.1"/>
	<path fill="none" stroke="#000000" stroke-width="1.0602" stroke-miterlimit="10" d="M261.4,157.3c0,2.4-1.9,4.3-4.3,4.3
		c-2.4,0-4.3-1.9-4.3-4.3"/>
	<path fill="none" stroke="#000000" stroke-width="1.0602" stroke-miterlimit="10" d="M270.1,157.5c0-2.4-1.9-4.3-4.3-4.3
		c-2.4,0-4.3,1.9-4.3,4.3"/>
	<path fill="none" stroke="#000000" stroke-width="1.0602" stroke-miterlimit="10" d="M270.1,157.3c0,2.4,1.9,4.3,4.3,4.3
		c2.4,0,4.3-1.9,4.3-4.3"/>
	<path fill="none" stroke="#000000" stroke-width="1.0602" stroke-miterlimit="10" d="M278.8,157.5c0-2.4,1.9-4.3,4.3-4.3
		c0.3,0,0.7,0,1,0.1"/>
	<path fill="none" stroke="#000000" stroke-width="1.0602" stroke-miterlimit="10" d="M261.4,153.1c0,2.4-1.9,4.3-4.3,4.3
		c-2.4,0-4.3-1.9-4.3-4.3"/>
	<path fill="none" stroke="#000000" stroke-width="1.0602" stroke-miterlimit="10" d="M270.1,153.3c0-2.4-1.9-4.3-4.3-4.3
		c-2.4,0-4.3,1.9-4.3,4.3"/>
	<path fill="none" stroke="#000000" stroke-width="1.0602" stroke-miterlimit="10" d="M270.1,153.1c0,2.4,1.9,4.3,4.3,4.3
		c2.4,0,4.3-1.9,4.3-4.3"/>
	<path fill="none" stroke="#000000" stroke-width="1.0602" stroke-miterlimit="10" d="M278.8,153.3c0-2.4,1.9-4.3,4.3-4.3
		c0.3,0,0.7,0,1,0.1"/>
	<path fill="none" stroke="#000000" stroke-width="1.0602" stroke-miterlimit="10" d="M261.4,148.9c0,2.4-1.9,4.3-4.3,4.3
		c-2.4,0-4.3-1.9-4.3-4.3"/>
	<path fill="none" stroke="#000000" stroke-width="1.0602" stroke-miterlimit="10" d="M270.1,149.1c0-2.4-1.9-4.3-4.3-4.3
		c-2.4,0-4.3,1.9-4.3,4.3"/>
	<path fill="none" stroke="#000000" stroke-width="1.0602" stroke-miterlimit="10" d="M270.1,148.9c0,2.4,1.9,4.3,4.3,4.3
		c2.4,0,4.3-1.9,4.3-4.3"/>
	<path fill="none" stroke="#000000" stroke-width="1.0602" stroke-miterlimit="10" d="M278.8,149.1c0-2.4,1.9-4.3,4.3-4.3
		c0.3,0,0.7,0,1,0.1"/>
	<path fill="none" stroke="#000000" stroke-width="1.0602" stroke-miterlimit="10" d="M261.4,144.7c0,2.4-1.9,4.3-4.3,4.3
		c-2.4,0-4.3-1.9-4.3-4.3"/>
	<path fill="none" stroke="#000000" stroke-width="1.0602" stroke-miterlimit="10" d="M270.1,144.9c0-2.4-1.9-4.3-4.3-4.3
		c-2.4,0-4.3,1.9-4.3,4.3"/>
	<path fill="none" stroke="#000000" stroke-width="1.0602" stroke-miterlimit="10" d="M270.1,144.7c0,2.4,1.9,4.3,4.3,4.3
		c2.4,0,4.3-1.9,4.3-4.3"/>
	<path fill="none" stroke="#000000" stroke-width="1.0602" stroke-miterlimit="10" d="M278.8,144.9c0-2.4,1.9-4.3,4.3-4.3
		c0.3,0,0.7,0,1,0.1"/>
	<path fill="none" stroke="#000000" stroke-width="1.0602" stroke-miterlimit="10" d="M261.4,140.5c0,2.4-1.9,4.3-4.3,4.3
		c-2.4,0-4.3-1.9-4.3-4.3"/>
	<path fill="none" stroke="#000000" stroke-width="1.0602" stroke-miterlimit="10" d="M270.1,140.7c0-2.4-1.9-4.3-4.3-4.3
		c-2.4,0-4.3,1.9-4.3,4.3"/>
	<path fill="none" stroke="#000000" stroke-width="1.0602" stroke-miterlimit="10" d="M270.1,140.5c0,2.4,1.9,4.3,4.3,4.3
		c2.4,0,4.3-1.9,4.3-4.3"/>
	<path fill="none" stroke="#000000" stroke-width="1.0602" stroke-miterlimit="10" d="M278.8,140.7c0-2.4,1.9-4.3,4.3-4.3
		c0.3,0,0.7,0,1,0.1"/>
	<path fill="none" stroke="#000000" stroke-width="1.0602" stroke-miterlimit="10" d="M261.4,136.2c0,2.4-1.9,4.3-4.3,4.3
		c-2.4,0-4.3-1.9-4.3-4.3"/>
	<path fill="none" stroke="#000000" stroke-width="1.0602" stroke-miterlimit="10" d="M270.1,136.5c0-2.4-1.9-4.3-4.3-4.3
		c-2.4,0-4.3,1.9-4.3,4.3"/>
	<path fill="none" stroke="#000000" stroke-width="1.0602" stroke-miterlimit="10" d="M270.1,136.2c0,2.4,1.9,4.3,4.3,4.3
		c2.4,0,4.3-1.9,4.3-4.3"/>
	<path fill="none" stroke="#000000" stroke-width="1.0602" stroke-miterlimit="10" d="M278.8,136.5c0-2.4,1.9-4.3,4.3-4.3
		c0.3,0,0.7,0,1,0.1"/>
	<path fill="none" stroke="#000000" stroke-width="1.0602" stroke-miterlimit="10" d="M261.4,132c0,2.4-1.9,4.3-4.3,4.3
		c-2.4,0-4.3-1.9-4.3-4.3"/>
	<path fill="none" stroke="#000000" stroke-width="1.0602" stroke-miterlimit="10" d="M261.4,132.3c0-2.4,1.9-4.3,4.3-4.3
		c2.4,0,4.3,1.9,4.3,4.3"/>
	<path fill="none" stroke="#000000" stroke-width="1.0602" stroke-miterlimit="10" d="M278.8,132c0,2.4-1.9,4.3-4.3,4.3
		s-4.3-1.9-4.3-4.3"/>
	<path fill="none" stroke="#000000" stroke-width="1.0602" stroke-miterlimit="10" d="M278.8,132.3c0-2.4,1.9-4.3,4.3-4.3
		c0.3,0,0.7,0,1,0.1"/>
	<path fill="none" stroke="#000000" stroke-width="1.0602" stroke-miterlimit="10" d="M252.8,127.8c0,2.4,1.9,4.3,4.3,4.3
		c2.4,0,4.3-1.9,4.3-4.3"/>
	<path fill="none" stroke="#000000" stroke-width="1.0602" stroke-miterlimit="10" d="M261.4,128.1c0-2.4,1.9-4.3,4.3-4.3
		c2.4,0,4.3,1.9,4.3,4.3"/>
	<path fill="none" stroke="#000000" stroke-width="1.0602" stroke-miterlimit="10" d="M270.1,127.8c0,2.4,1.9,4.3,4.3,4.3
		c2.4,0,4.3-1.9,4.3-4.3"/>
	<path fill="none" stroke="#000000" stroke-width="1.0602" stroke-miterlimit="10" d="M278.8,128.1c0-2.4,1.9-4.3,4.3-4.3
		c0.3,0,0.7,0,1,0.1"/>
	<path fill="none" stroke="#000000" stroke-width="1.0602" stroke-miterlimit="10" d="M296,234"/>
	<line fill="none" stroke="#000000" stroke-width="1.0602" stroke-miterlimit="10" x1="261.4" y1="261.2" x2="261.5" y2="261.2"/>
	<path fill="none" stroke="#000000" stroke-width="1.0602" stroke-miterlimit="10" d="M287.4,261.2"/>
	<line fill="none" stroke="#000000" stroke-width="1.0602" stroke-miterlimit="10" x1="270.1" y1="261.2" x2="270.1" y2="261.2"/>
	<path fill="none" stroke="#000000" stroke-width="1.0602" stroke-miterlimit="10" d="M278.8,261.2"/>
</g>
</svg>
