<?xml version="1.0" encoding="utf-8"?>
<!DOCTYPE svg PUBLIC "-//W3C//DTD SVG 1.1//EN" "http://www.w3.org/Graphics/SVG/1.1/DTD/svg11.dtd">
<svg version="1.1" xmlns="http://www.w3.org/2000/svg" xmlns:xlink="http://www.w3.org/1999/xlink" x="0px" y="0px" width="596px"
	 height="490px" viewBox="0 0 596 490" enable-background="new 0 0 596 490" xml:space="preserve">
<g>
	<g>
		<g>
			<rect x="248.29" y="399.69" width="32.5" height="90"/>
			<rect x="260.66" y="216.76" width="7.76" height="161.18"/>
			<rect x="262.02" y="345.19" width="5.04" height="54.25"/>
			<line fill="none" stroke="#0F0F0F" stroke-width="3" stroke-miterlimit="10" x1="250.52" y1="191.3" x2="278.55" y2="191.3"/>
			<line fill="none" stroke="#0F0F0F" stroke-width="3" stroke-miterlimit="10" x1="250.52" y1="195.69" x2="278.55" y2="195.69"/>
			<line fill="none" stroke="#0F0F0F" stroke-width="3" stroke-miterlimit="10" x1="250.52" y1="200.07" x2="278.55" y2="200.07"/>
			<line fill="none" stroke="#0F0F0F" stroke-width="3" stroke-miterlimit="10" x1="250.52" y1="204.46" x2="278.55" y2="204.46"/>
			<line fill="none" stroke="#0F0F0F" stroke-width="3" stroke-miterlimit="10" x1="250.52" y1="208.84" x2="278.55" y2="208.84"/>
			<line fill="none" stroke="#0F0F0F" stroke-width="3" stroke-miterlimit="10" x1="250.52" y1="213.23" x2="278.55" y2="213.23"/>
			<line fill="none" stroke="#0F0F0F" stroke-width="3" stroke-miterlimit="10" x1="250.52" y1="186.92" x2="278.55" y2="186.92"/>
			<line fill="none" stroke="#0F0F0F" stroke-width="3" stroke-miterlimit="10" x1="250.52" y1="182.53" x2="278.55" y2="182.53"/>
			<line fill="none" stroke="#0F0F0F" stroke-width="3" stroke-miterlimit="10" x1="250.52" y1="178.15" x2="278.55" y2="178.15"/>
			<line fill="none" stroke="#0F0F0F" stroke-width="3" stroke-miterlimit="10" x1="250.52" y1="173.76" x2="278.55" y2="173.76"/>
			<line fill="none" stroke="#0F0F0F" stroke-width="3" stroke-miterlimit="10" x1="250.52" y1="169.38" x2="278.55" y2="169.38"/>
			<line fill="none" stroke="#0F0F0F" stroke-width="3" stroke-miterlimit="10" x1="250.52" y1="164.99" x2="278.55" y2="164.99"/>
			<line fill="none" stroke="#0F0F0F" stroke-width="3" stroke-miterlimit="10" x1="250.52" y1="160.61" x2="278.55" y2="160.61"/>
			<line fill="none" stroke="#0F0F0F" stroke-width="3" stroke-miterlimit="10" x1="250.52" y1="156.22" x2="278.55" y2="156.22"/>
			<line fill="none" stroke="#0F0F0F" stroke-width="3" stroke-miterlimit="10" x1="250.52" y1="151.83" x2="278.55" y2="151.83"/>
			<line fill="none" stroke="#0F0F0F" stroke-width="3" stroke-miterlimit="10" x1="250.52" y1="147.45" x2="278.55" y2="147.45"/>
			<line fill="none" stroke="#0F0F0F" stroke-width="3" stroke-miterlimit="10" x1="250.52" y1="143.06" x2="278.55" y2="143.06"/>
			<line fill="none" stroke="#0F0F0F" stroke-width="3" stroke-miterlimit="10" x1="250.52" y1="138.68" x2="278.55" y2="138.68"/>
			<line fill="none" stroke="#0F0F0F" stroke-width="3" stroke-miterlimit="10" x1="250.52" y1="134.29" x2="278.55" y2="134.29"/>
			<line fill="none" stroke="#0F0F0F" stroke-width="3" stroke-miterlimit="10" x1="250.52" y1="129.91" x2="278.55" y2="129.91"/>
			<line fill="none" stroke="#0F0F0F" stroke-width="3" stroke-miterlimit="10" x1="253.42" y1="125.52" x2="275.66" y2="125.52"/>
			<line fill="none" stroke="#0F0F0F" stroke-width="3" stroke-miterlimit="10" x1="255.04" y1="121.14" x2="274.04" y2="121.14"/>
			<line fill="none" stroke="#0F0F0F" stroke-width="3" stroke-miterlimit="10" x1="256.43" y1="116.75" x2="272.65" y2="116.75"/>
			<line fill="none" stroke="#0F0F0F" stroke-width="3" stroke-miterlimit="10" x1="258.86" y1="112.37" x2="270.21" y2="112.37"/>
		</g>
		<g>
			<rect x="206.64" y="289.44" width="25.5" height="4.33"/>
			<polygon fill="#0F0F0F" points="232.14,308.69 232.14,304.82 206.64,304.82 206.64,308.69 203.05,308.69 203.05,489.69 
				235.55,489.69 235.55,308.69 			"/>
			<rect x="204.14" y="296.28" width="31" height="2.33"/>
			<rect x="204.14" y="300.07" width="31" height="2.33"/>
		</g>
		<g>
			<rect x="552.75" y="367.3" width="24.99" height="6.23"/>
			<rect x="550.05" y="377.31" width="30.38" height="2.29"/>
			<rect x="550.05" y="381.03" width="30.38" height="2.29"/>
			<polygon points="587.68,391.28 577.82,391.28 577.82,386.88 552.83,386.88 552.83,391.28 542.82,391.28 535.87,489.69 
				594.62,489.69 			"/>
		</g>
		<g>
			<path fill="#0F0F0F" d="M376,455.98v22.49c0,6.37,5.17,11.53,11.54,11.53h6.34c6.37,0,11.53-5.17,11.53-11.53v-22.49H376z"/>
			<path fill="none" stroke="#000000" stroke-width="3" stroke-miterlimit="10" d="M369.51,441.26c0,0,0,0.11,0.04,0.29h42.31
				c0.04-0.18,0.04-0.29,0.04-0.29c-2.26-41.7,7.3-117.3,9.79-139.56h-61.97C362.22,323.96,371.77,399.56,369.51,441.26z"/>
			<rect x="375.86" y="446.44" fill="#0F0F0F" width="29.7" height="5.61"/>
			<rect x="357.16" y="284.82" fill="#0F0F0F" width="67.16" height="11.46"/>
			<path fill="none" stroke="#000000" stroke-miterlimit="10" d="M369.86,426.38c0-2.67-0.04-5.42-0.1-8.22"/>
			<path fill="none" stroke="#000000" stroke-miterlimit="10" d="M412.83,391.72c0.19-2.97,0.4-5.95,0.61-8.93"/>
			<path fill="none" stroke="#000000" stroke-miterlimit="10" d="M368.74,394.23c0.16,2.65,0.31,5.28,0.44,7.88"/>
			<path fill="none" stroke="#000000" stroke-miterlimit="10" d="M368.23,386.42c0.18,2.61,0.35,5.22,0.51,7.81"/>
			<path fill="none" stroke="#000000" stroke-miterlimit="10" d="M412.32,400.55c0.15-2.92,0.32-5.87,0.51-8.83"/>
			<path fill="none" stroke="#000000" stroke-miterlimit="10" d="M414.92,364.67c0.28-3.09,0.56-6.15,0.85-9.17"/>
			<path fill="none" stroke="#000000" stroke-miterlimit="10" d="M411.92,409.26c0.11-2.87,0.25-5.78,0.4-8.72"/>
			<path fill="none" stroke="#000000" stroke-miterlimit="10" d="M415.77,355.51c0.3-3.13,0.6-6.21,0.91-9.23"/>
			<path fill="none" stroke="#000000" stroke-miterlimit="10" d="M416.68,346.28c0.32-3.18,0.65-6.28,0.97-9.28"/>
			<path fill="none" stroke="#000000" stroke-miterlimit="10" d="M367.66,378.67c0.2,2.58,0.39,5.17,0.57,7.75"/>
			<path fill="none" stroke="#000000" stroke-miterlimit="10" d="M413.45,382.79c0.22-3.01,0.45-6.02,0.7-9.02"/>
			<path fill="none" stroke="#000000" stroke-miterlimit="10" d="M414.15,373.77c0.25-3.05,0.51-6.09,0.78-9.1"/>
			<path fill="none" stroke="#000000" stroke-miterlimit="10" d="M405.08,441.05h6.78c0.04-0.18,0.04-0.29,0.04-0.29
				c-0.11-2.02-0.19-4.12-0.25-6.28"/>
			<line fill="none" stroke="#000000" stroke-miterlimit="10" x1="371.81" y1="441.05" x2="380.13" y2="441.05"/>
			<line fill="none" stroke="#000000" stroke-miterlimit="10" x1="388.45" y1="441.05" x2="396.76" y2="441.05"/>
			<path fill="none" stroke="#000000" stroke-miterlimit="10" d="M411.65,434.48c-0.07-2.64-0.1-5.39-0.1-8.22"/>
			<line fill="none" stroke="#000000" stroke-miterlimit="10" x1="396.76" y1="441.05" x2="405.08" y2="441.05"/>
			<path fill="none" stroke="#000000" stroke-miterlimit="10" d="M369.75,434.8c-0.06,2.06-0.13,4.05-0.24,5.97
				c0,0,0,0.11,0.04,0.29h2.26"/>
			<path fill="none" stroke="#000000" stroke-miterlimit="10" d="M411.66,417.84c0.06-2.81,0.15-5.67,0.26-8.58"/>
			<path fill="none" stroke="#000000" stroke-miterlimit="10" d="M369.52,410.08c0.1,2.74,0.18,5.44,0.24,8.08"/>
			<path fill="none" stroke="#000000" stroke-miterlimit="10" d="M411.56,426.26c0-2.73,0.04-5.54,0.1-8.42"/>
			<path fill="none" stroke="#000000" stroke-miterlimit="10" d="M369.17,402.11c0.13,2.69,0.25,5.35,0.35,7.97"/>
			<path fill="none" stroke="#000000" stroke-miterlimit="10" d="M369.86,426.38c0,2.9-0.03,5.72-0.1,8.42"/>
			<path fill="none" stroke="#000000" stroke-miterlimit="10" d="M366.37,363.33c0.23,2.53,0.45,5.08,0.67,7.65"/>
			<path fill="none" stroke="#000000" stroke-miterlimit="10" d="M362.52,325.59c0.27,2.4,0.55,4.9,0.83,7.49"/>
			<line fill="none" stroke="#000000" stroke-miterlimit="10" x1="395.21" y1="301.21" x2="386.9" y2="301.21"/>
			<line fill="none" stroke="#000000" stroke-miterlimit="10" x1="420.17" y1="301.21" x2="411.85" y2="301.21"/>
			<path fill="none" stroke="#000000" stroke-miterlimit="10" d="M363.34,333.08c0.26,2.43,0.53,4.95,0.8,7.52"/>
			<path fill="none" stroke="#000000" stroke-miterlimit="10" d="M361.67,318.12c0.27,2.36,0.55,4.85,0.85,7.47"/>
			<line fill="none" stroke="#000000" stroke-miterlimit="10" x1="411.85" y1="301.21" x2="403.53" y2="301.21"/>
			<line fill="none" stroke="#000000" stroke-miterlimit="10" x1="403.53" y1="301.21" x2="395.21" y2="301.21"/>
			<path fill="none" stroke="#000000" stroke-miterlimit="10" d="M359.95,303.21c0.24,2.14,0.54,4.64,0.86,7.45"/>
			<path fill="none" stroke="#000000" stroke-miterlimit="10" d="M359.95,303.21c-0.08-0.71-0.16-1.38-0.23-2h2.23"/>
			<line fill="none" stroke="#000000" stroke-miterlimit="10" x1="370.26" y1="301.21" x2="361.95" y2="301.21"/>
			<line fill="none" stroke="#000000" stroke-miterlimit="10" x1="378.58" y1="301.21" x2="370.26" y2="301.21"/>
			<line fill="none" stroke="#000000" stroke-miterlimit="10" x1="386.9" y1="301.21" x2="378.58" y2="301.21"/>
			<path fill="none" stroke="#000000" stroke-miterlimit="10" d="M360.81,310.67c0.27,2.29,0.55,4.78,0.86,7.46"/>
			<path fill="none" stroke="#000000" stroke-miterlimit="10" d="M364.14,340.6c0.26,2.46,0.52,4.98,0.77,7.54"/>
			<path fill="none" stroke="#000000" stroke-miterlimit="10" d="M367.04,370.98c0.22,2.56,0.42,5.12,0.62,7.7"/>
			<path fill="none" stroke="#000000" stroke-miterlimit="10" d="M419.72,318.29c0.39-3.45,0.76-6.6,1.09-9.4"/>
			<path fill="none" stroke="#000000" stroke-miterlimit="10" d="M418.67,327.66c0.37-3.31,0.72-6.45,1.06-9.38"/>
			<path fill="none" stroke="#000000" stroke-miterlimit="10" d="M417.65,337c0.34-3.24,0.69-6.35,1.02-9.33"/>
			<line fill="none" stroke="#000000" stroke-miterlimit="10" x1="380.13" y1="441.05" x2="388.45" y2="441.05"/>
			<path fill="none" stroke="#000000" stroke-miterlimit="10" d="M364.92,348.14c0.25,2.49,0.5,5.01,0.74,7.58"/>
			<path fill="none" stroke="#000000" stroke-miterlimit="10" d="M420.81,308.88c0.35-2.99,0.65-5.57,0.88-7.67h-1.53"/>
			<path fill="none" stroke="#000000" stroke-miterlimit="10" d="M365.66,355.72c0.24,2.51,0.48,5.05,0.71,7.61"/>
			<line fill="none" stroke="#000000" stroke-miterlimit="10" x1="367.66" y1="378.67" x2="418.67" y2="327.66"/>
			<line fill="none" stroke="#000000" stroke-miterlimit="10" x1="368.23" y1="386.42" x2="417.65" y2="337"/>
			<line fill="none" stroke="#000000" stroke-miterlimit="10" x1="368.74" y1="394.23" x2="416.68" y2="346.28"/>
			<line fill="none" stroke="#000000" stroke-miterlimit="10" x1="369.17" y1="402.11" x2="415.77" y2="355.51"/>
			<line fill="none" stroke="#000000" stroke-miterlimit="10" x1="369.52" y1="410.08" x2="414.92" y2="364.67"/>
			<line fill="none" stroke="#000000" stroke-miterlimit="10" x1="369.76" y1="418.16" x2="414.15" y2="373.77"/>
			<line fill="none" stroke="#000000" stroke-miterlimit="10" x1="413.45" y1="382.79" x2="369.86" y2="426.38"/>
			<line fill="none" stroke="#000000" stroke-miterlimit="10" x1="369.75" y1="434.8" x2="412.83" y2="391.72"/>
			<line fill="none" stroke="#000000" stroke-miterlimit="10" x1="371.81" y1="441.05" x2="412.32" y2="400.55"/>
			<line fill="none" stroke="#000000" stroke-miterlimit="10" x1="380.13" y1="441.05" x2="411.92" y2="409.26"/>
			<line fill="none" stroke="#000000" stroke-miterlimit="10" x1="388.45" y1="441.05" x2="411.66" y2="417.84"/>
			<line fill="none" stroke="#000000" stroke-miterlimit="10" x1="411.56" y1="426.26" x2="396.76" y2="441.05"/>
			<line fill="none" stroke="#000000" stroke-miterlimit="10" x1="405.08" y1="441.05" x2="411.65" y2="434.48"/>
			<line fill="none" stroke="#000000" stroke-miterlimit="10" x1="367.04" y1="370.98" x2="419.72" y2="318.29"/>
			<line fill="none" stroke="#000000" stroke-miterlimit="10" x1="366.37" y1="363.33" x2="420.81" y2="308.88"/>
			<line fill="none" stroke="#000000" stroke-miterlimit="10" x1="365.66" y1="355.72" x2="420.17" y2="301.21"/>
			<line fill="none" stroke="#000000" stroke-miterlimit="10" x1="364.92" y1="348.14" x2="411.85" y2="301.21"/>
			<line fill="none" stroke="#000000" stroke-miterlimit="10" x1="364.14" y1="340.6" x2="403.53" y2="301.21"/>
			<line fill="none" stroke="#000000" stroke-miterlimit="10" x1="363.34" y1="333.08" x2="395.21" y2="301.21"/>
			<line fill="none" stroke="#000000" stroke-miterlimit="10" x1="362.52" y1="325.59" x2="386.9" y2="301.21"/>
			<line fill="none" stroke="#000000" stroke-miterlimit="10" x1="361.67" y1="318.12" x2="378.58" y2="301.21"/>
			<line fill="none" stroke="#000000" stroke-miterlimit="10" x1="360.81" y1="310.67" x2="370.26" y2="301.21"/>
			<line fill="none" stroke="#000000" stroke-miterlimit="10" x1="359.95" y1="303.21" x2="361.95" y2="301.21"/>
		</g>
		<g>
			<path fill="none" stroke="#000000" stroke-width="3" stroke-miterlimit="10" d="M463.75,377.18c0.05-0.27,0.08-0.54,0.08-0.83
				V340c0-2.25-1.82-4.07-4.07-4.07H445.1c-2.25,0-4.07,1.82-4.07,4.07v36.35c0,0.28,0.03,0.56,0.08,0.83H463.75z"/>
			<g>
				<path d="M463.98,440.37v44.44c0,1.21-0.99,2.2-2.2,2.2h-18.71c-1.21,0-2.2-0.99-2.2-2.2v-44.44H463.98 M466.88,437.37h-28.89
					c-0.07,0.34-0.11,0.69-0.11,1.05v46.38c0,2.87,2.33,5.2,5.2,5.2h18.71c2.87,0,5.2-2.33,5.2-5.2v-46.38
					C466.98,438.06,466.95,437.71,466.88,437.37L466.88,437.37z"/>
			</g>
			<path fill="#0F0F0F" d="M459.17,424.5l-3.29-17.25h-6.91l-3.28,17.25c-0.03,0.08-0.04,0.15-0.04,0.23c0,1.19,3.04,2.15,6.78,2.15
				s6.78-0.96,6.78-2.15C459.21,424.65,459.2,424.58,459.17,424.5z"/>
			<line fill="none" stroke="#000000" stroke-width="2" stroke-miterlimit="10" x1="444.93" y1="370.47" x2="459.93" y2="370.47"/>
			<path d="M450.34,376.92v32.88c0,1.15,0.94,2.09,2.09,2.09c1.15,0,2.09-0.93,2.09-2.09v-32.88H450.34z"/>
			<path fill="none" stroke="#000000" stroke-miterlimit="10" d="M438.43,436.33"/>
			<path fill="none" stroke="#000000" stroke-width="2" stroke-miterlimit="10" d="M467.98,436.33"/>
			<line fill="none" stroke="#000000" stroke-miterlimit="10" x1="466.43" y1="443.92" x2="438.43" y2="443.92"/>
			<line fill="none" stroke="#000000" stroke-miterlimit="10" x1="466.43" y1="454.04" x2="438.43" y2="454.04"/>
			<line fill="none" stroke="#000000" stroke-miterlimit="10" x1="466.43" y1="469.21" x2="438.43" y2="469.21"/>
			<line fill="none" stroke="#000000" stroke-miterlimit="10" x1="466.43" y1="479.32" x2="438.43" y2="479.32"/>
			<line fill="none" stroke="#000000" stroke-miterlimit="10" x1="466.43" y1="459.09" x2="438.43" y2="459.09"/>
			<line fill="none" stroke="#000000" stroke-miterlimit="10" x1="466.43" y1="448.98" x2="438.43" y2="448.98"/>
			<line fill="none" stroke="#000000" stroke-miterlimit="10" x1="466.43" y1="464.15" x2="438.43" y2="464.15"/>
			<line fill="none" stroke="#000000" stroke-miterlimit="10" x1="466.43" y1="474.26" x2="438.43" y2="474.26"/>
			<line fill="none" stroke="#000000" stroke-miterlimit="10" x1="466.43" y1="484.38" x2="438.43" y2="484.38"/>
		</g>
	</g>
</g>
</svg>
