<?xml version="1.0" encoding="utf-8"?>
<!DOCTYPE svg PUBLIC "-//W3C//DTD SVG 1.1//EN" "http://www.w3.org/Graphics/SVG/1.1/DTD/svg11.dtd">
<svg version="1.1" xmlns="http://www.w3.org/2000/svg" xmlns:xlink="http://www.w3.org/1999/xlink" x="0px" y="0px" width="596px"
	 height="490px" viewBox="0 0 596 490" enable-background="new 0 0 596 490" xml:space="preserve">
<g>
	<g>
		<g>
			<polygon points="525.5,489.69 495.32,489.69 484.35,204 536.48,204 			"/>
			<rect x="499.67" y="49.96" width="21.49" height="148.17"/>
			<path d="M516.85,72.51c0,3.56-2.88,6.44-6.44,6.44l0,0c-3.55,0-6.44-2.88-6.44-6.44V7.44c0-3.56,2.89-6.44,6.44-6.44l0,0
				c3.56,0,6.44,2.88,6.44,6.44V72.51z"/>
		</g>
		<g>
			<path d="M11.19,478.86c0.27,6.87,3.72,11.14,22.9,11.14h121.27c19.18,0,22.63-4.27,23.57-11.14H11.19z"/>
			<path fill="none" stroke="#000000" stroke-width="3" stroke-miterlimit="10" d="M3.13,413.12c0-3.5-0.04,58.32-0.04,58.32
				c0,4.1,3.32,7.42,7.42,7.42h169.12c4.1,0,7.42-3.32,7.42-7.42c0,0-0.03-61.83-0.04-58.32H3.13z"/>
			<path fill="#0F0F0F" stroke="#0F0F0F" stroke-width="3" stroke-miterlimit="10" d="M187.04,404.12v-18.6
				c0-5.49-4.88-7.12-4.88-7.12c-15.68-5.17-47.72-17.19-86.81-17.26v0c-0.07,0-0.14,0-0.21,0c-0.07,0-0.14,0-0.21,0v0
				c-39.08,0.06-86.4,17.26-86.4,17.26c-3.14,0.87-5.45,3.71-5.45,7.12v18.6H187.04z"/>
			<line fill="none" stroke="#000000" stroke-miterlimit="10" x1="187.04" y1="445.99" x2="3.09" y2="445.99"/>
			<line fill="none" stroke="#000000" stroke-miterlimit="10" x1="187.04" y1="435.04" x2="3.09" y2="435.04"/>
			<line fill="none" stroke="#000000" stroke-miterlimit="10" x1="187.04" y1="456.95" x2="3.09" y2="456.95"/>
			<line fill="none" stroke="#000000" stroke-miterlimit="10" x1="187.04" y1="467.91" x2="3.09" y2="467.91"/>
			<line fill="none" stroke="#000000" stroke-miterlimit="10" x1="187.04" y1="424.08" x2="3.09" y2="424.08"/>
			<line fill="none" stroke="#000000" stroke-miterlimit="10" x1="187.08" y1="462.43" x2="3" y2="462.43"/>
			<line fill="none" stroke="#000000" stroke-miterlimit="10" x1="187.08" y1="451.47" x2="3" y2="451.47"/>
			<line fill="none" stroke="#000000" stroke-miterlimit="10" x1="187.08" y1="473.38" x2="3" y2="473.38"/>
			<line fill="none" stroke="#000000" stroke-miterlimit="10" x1="187.08" y1="440.51" x2="3" y2="440.51"/>
			<line fill="none" stroke="#000000" stroke-miterlimit="10" x1="187.08" y1="429.56" x2="3" y2="429.56"/>
			<line fill="none" stroke="#000000" stroke-miterlimit="10" x1="187.08" y1="418.6" x2="3" y2="418.6"/>
		</g>
		<g>
			<g>
				<path d="M381.38,233.51c-0.27,2.35-0.58,5-0.92,7.92c-4.52,38.92-15,129.17-12.62,182.69h-53.33
					c2.38-53.53-8.11-143.79-12.63-182.71c-0.34-2.91-0.65-5.56-0.91-7.9H381.38 M384.74,230.51h-87.13
					c3.52,31.28,16.95,137.58,13.77,196.21c0,0,0,0.15,0.05,0.41h59.49c0.05-0.25,0.05-0.41,0.05-0.41
					C367.79,368.1,381.23,261.8,384.74,230.51L384.74,230.51z"/>
			</g>
			<g>
				<rect x="320.3" y="434" width="41.76" height="6.49"/>
			</g>
			<line fill="none" stroke="#000000" stroke-width="3" stroke-miterlimit="10" x1="361.85" y1="417.73" x2="320.5" y2="417.73"/>
			<g>
				<path d="M356.37,451.41v28.93c0,3.67-2.98,6.65-6.65,6.65h-17.08c-3.67,0-6.65-2.98-6.65-6.65v-28.93H356.37 M359.37,448.41
					h-36.38v31.93c0,5.33,4.32,9.65,9.65,9.65h17.08c5.33,0,9.65-4.32,9.65-9.65V448.41L359.37,448.41z"/>
			</g>
			<g>
				<g>
					<path d="M382.29,209.77v10.11h-82.22v-10.11H382.29 M385.29,206.77h-88.22v16.11h88.22V206.77L385.29,206.77z"/>
				</g>
			</g>
			<line fill="none" stroke="#000000" stroke-miterlimit="10" x1="333.31" y1="221.83" x2="333.31" y2="207.78"/>
			<line fill="none" stroke="#000000" stroke-miterlimit="10" x1="344.27" y1="221.83" x2="344.27" y2="207.78"/>
			<line fill="none" stroke="#000000" stroke-miterlimit="10" x1="322.35" y1="221.83" x2="322.35" y2="207.78"/>
			<line fill="none" stroke="#000000" stroke-miterlimit="10" x1="311.4" y1="221.83" x2="311.4" y2="207.78"/>
			<line fill="none" stroke="#000000" stroke-miterlimit="10" x1="355.23" y1="221.83" x2="355.23" y2="207.78"/>
			<line fill="none" stroke="#000000" stroke-miterlimit="10" x1="360.7" y1="221.83" x2="360.7" y2="207.78"/>
			<line fill="none" stroke="#000000" stroke-miterlimit="10" x1="366.18" y1="221.83" x2="366.18" y2="207.78"/>
			<line fill="none" stroke="#000000" stroke-miterlimit="10" x1="371.66" y1="221.83" x2="371.66" y2="207.78"/>
			<line fill="none" stroke="#000000" stroke-miterlimit="10" x1="377.14" y1="221.83" x2="377.14" y2="207.78"/>
			<line fill="none" stroke="#000000" stroke-miterlimit="10" x1="382.62" y1="221.83" x2="382.62" y2="207.78"/>
			<line fill="none" stroke="#000000" stroke-miterlimit="10" x1="316.88" y1="221.84" x2="316.88" y2="207.77"/>
			<line fill="none" stroke="#000000" stroke-miterlimit="10" x1="327.83" y1="221.84" x2="327.83" y2="207.77"/>
			<line fill="none" stroke="#000000" stroke-miterlimit="10" x1="305.92" y1="221.84" x2="305.92" y2="207.77"/>
			<line fill="none" stroke="#000000" stroke-miterlimit="10" x1="338.79" y1="221.84" x2="338.79" y2="207.77"/>
			<line fill="none" stroke="#000000" stroke-miterlimit="10" x1="349.75" y1="221.84" x2="349.75" y2="207.77"/>
		</g>
	</g>
</g>
</svg>
