<?xml version="1.0" encoding="utf-8"?>
<!DOCTYPE svg PUBLIC "-//W3C//DTD SVG 1.1//EN" "http://www.w3.org/Graphics/SVG/1.1/DTD/svg11.dtd">
<svg version="1.1" xmlns="http://www.w3.org/2000/svg" xmlns:xlink="http://www.w3.org/1999/xlink" x="0px" y="0px" width="478px"
	 height="450px" viewBox="0 0 478 450" enable-background="new 0 0 478 450" xml:space="preserve">
<g>
	<g>
		<path fill="#8C8083" stroke="#0F0F0F" stroke-width="3" stroke-miterlimit="10" d="M398.2,308c44.6-6.8,77.6-31.6,77.6-61.3
			c0-17.2-10.7-32.5-28.8-43.9L413.3,253c-15.4-16.8-46.9-10.1-46.9-10.1l-18.2-57.3c-44.2,7-76.9,31.7-76.9,61.1
			c0,17.4,16.8,38.6,35.3,50l16.9,45.3c0,0,25.5,21.4,53.6,8L398.2,308z"/>
		<path fill="#8C8083" stroke="#0F0F0F" stroke-width="3" stroke-miterlimit="10" d="M398.2,308l-21.1,42c-28.1,13.4-53.6-8-53.6-8
			l-16.9-45.3c-7.1-4.4-14-10.3-19.8-16.8l20.7,81.3c15.1,17,30.5,21,57.4,21c44.1,0,61.5-21.5,61.5-21.5l28.2-75.6
			C440.8,296.3,421,304.5,398.2,308z"/>
		<path fill="#0F0F0F" d="M395.9,310l5.3-12.7c37-6.5,64.5-27.6,64.5-49.9c0-13.2-8.1-25.5-25.3-36.5l6.7-10.4
			c20.9,13.3,30.9,29.3,30.9,46.8C478.1,277.4,441.2,303.1,395.9,310z"/>
		<path fill="#0F0F0F" d="M310.3,303c-20.5-7.7-46.8-37.2-46.8-56.5c0-29.7,34.8-55.5,85.7-64.9l3.1,12.6
			c-44.1,8.4-76.4,29.1-76.4,52.3c0,11.3,14.4,30.3,30.6,39.3L310.3,303z"/>
		<path fill="#8C8083" stroke="#0F0F0F" stroke-width="3" stroke-miterlimit="10" d="M324.1,342.4c3.9,3,27.3,19.8,53,7.6l11.8-23.6
			c-6.2-1.4-13.2-2.1-20.6-2.1C344.3,324.3,324.8,332.4,324.1,342.4z"/>
	</g>
</g>
</svg>
