<?xml version="1.0" encoding="utf-8"?>
<!DOCTYPE svg PUBLIC "-//W3C//DTD SVG 1.1//EN" "http://www.w3.org/Graphics/SVG/1.1/DTD/svg11.dtd">
<svg version="1.1" xmlns="http://www.w3.org/2000/svg" xmlns:xlink="http://www.w3.org/1999/xlink" x="0px" y="0px" width="400px"
	 height="195px" viewBox="0 0 400 195" enable-background="new 0 0 400 195" xml:space="preserve">
<g>
	<g>
		<ellipse fill="none" stroke="#0F0F0F" stroke-miterlimit="10" cx="310.2" cy="30.1" rx="33.5" ry="21.9"/>
		<polyline fill="none" stroke="#0F0F0F" stroke-miterlimit="10" points="393.7,174.2 393.7,193.6 4.2,193.6 4.2,174.2 		"/>
		<ellipse fill="none" stroke="#0F0F0F" stroke-miterlimit="10" cx="241.2" cy="80.1" rx="37.3" ry="24.4"/>
		<ellipse fill="none" stroke="#0F0F0F" stroke-miterlimit="10" cx="322.5" cy="80.1" rx="37.3" ry="24.4"/>
		<ellipse fill="none" stroke="#0F0F0F" stroke-miterlimit="10" cx="161.9" cy="80.1" rx="37.3" ry="24.4"/>
		<ellipse fill="none" stroke="#0F0F0F" stroke-miterlimit="10" cx="82.6" cy="80.1" rx="37.3" ry="24.4"/>
		<ellipse fill="none" stroke="#0F0F0F" stroke-miterlimit="10" cx="334.1" cy="138.3" rx="40.7" ry="26.6"/>
		<g>
			<path fill="none" stroke="#0F0F0F" stroke-miterlimit="10" d="M53.2,4.8c0.6-2.1,3-3.8,5.2-3.8H340c2.2,0,4.5,1.7,5.2,3.8
				l50.6,165.8c0.6,2.1-0.6,3.8-2.8,3.8H5c-2.2,0-3.5-1.7-2.8-3.8L53.2,4.8z"/>
		</g>
		<ellipse fill="none" stroke="#0F0F0F" stroke-miterlimit="10" cx="244" cy="138.3" rx="40.7" ry="26.6"/>
		<ellipse fill="none" stroke="#0F0F0F" stroke-miterlimit="10" cx="154" cy="138.3" rx="40.7" ry="26.6"/>
		<ellipse fill="none" stroke="#0F0F0F" stroke-miterlimit="10" cx="64.9" cy="138.3" rx="40.7" ry="26.6"/>
		<ellipse fill="none" stroke="#0F0F0F" stroke-miterlimit="10" cx="334.1" cy="138.3" rx="40.7" ry="26.6"/>
		<ellipse fill="none" stroke="#0F0F0F" stroke-miterlimit="10" cx="236.1" cy="30.1" rx="33.5" ry="21.9"/>
		<ellipse fill="none" stroke="#0F0F0F" stroke-miterlimit="10" cx="162.1" cy="30.1" rx="33.5" ry="21.9"/>
		<ellipse fill="none" stroke="#0F0F0F" stroke-miterlimit="10" cx="88.8" cy="30.1" rx="33.5" ry="21.9"/>
		<path fill="#0F0F0F" d="M219.7,116.8l0.2,0.3c0,0.1,0.1,0.1,0.1,0.1c0.9-0.5,1.9-0.9,2.9-1.3c-0.2-0.2-0.3-0.4-0.5-0.5L217.5,96
			c0.8,0.6,1.6,1.2,2.4,1.7l4.9,13l0,0.2l0.6,0.5c0,0,0,0,0,0c0.1,0,0.1,0.1,0.2,0.1c0,0,0.1,0,0.1,0.1c0,0,0,0,0,0c0,0,0,0,0.1,0
			c0,0,0,0,0.1,0c0.1,0.1,0.1,0.1,0.2,0.2c0,0,0.1,0.1,0.1,0.1c0.1,0.1,0.2,0.2,0.4,0.2c0,0,0.1,0,0.1,0.1c0.2,0.1,0.3,0.2,0.5,0.3
			c0,0,0,0,0,0c0.6,0.3,1.3,0.7,2.1,1.1c2-0.6,4.1-1,6.2-1.3c-0.1,0-0.2,0-0.2,0c-0.4,0-0.8-0.1-1.1-0.2c-0.1,0-0.2,0-0.3-0.1
			c-0.3-0.1-0.6-0.2-1-0.2c-0.1,0-0.3-0.1-0.4-0.1c-0.2-0.1-0.4-0.1-0.7-0.2c-0.1-0.1-0.3-0.1-0.4-0.2c-0.2-0.1-0.5-0.2-0.7-0.3
			c-0.2-0.1-0.3-0.1-0.5-0.2c-0.1-0.1-0.2-0.1-0.3-0.2c-0.2-0.1-0.5-0.3-0.7-0.4c-0.1,0-0.1-0.1-0.2-0.1c-0.2-0.1-0.5-0.3-0.7-0.4
			c0,0-0.1,0-0.1-0.1c-0.1,0-0.1-0.1-0.2-0.1c1.1-1.7,5.5-3.6,12.1-3.6c1.4,0,2.9,0.1,4.2,0.3l-2.6,5.1c-0.3,0.1-0.6,0.2-0.9,0.4
			c1.4-0.1,2.8-0.1,4.2-0.1l5.4-10.7c0.6-0.1,1.3-0.3,1.9-0.5c0,0,0.1,0,0.1,0c4.4-0.9,8.3-2.4,11.6-4.3l-6.3,16.8
			c1,0.2,2,0.4,2.9,0.7l7.7-20.5c4.3-3.6,6.9-8.1,6.9-12.9c0-4.4-2-8.5-5.7-11.9c-1.4-1.4-3.1-2.7-5-3.9l-0.1,0.2l-0.1-0.1L253.9,80
			c-3-2.3-6.9-2.8-9.9-2.8c-1.4,0-2.6,0.1-3.5,0.2l-5.7-17.9l-0.1,0l-0.1-0.4c-15.2,2.4-27,11.1-27,21.2c0,3.5,2.4,8,5.8,11.8
			L219.7,116.8z M233.1,63.8l5.4,17l1.3-0.3c0,0,1.8-0.4,4.2-0.4c2.8,0,6.7,0.5,9,3.1l1.3,1.4l10.2-15.1c4.2,3.3,6.3,6.9,6.3,10.7
			c0,7.5-9.3,14.7-21.9,16.9l-0.4,0.9l-0.1,0l-2.7,5.5c-1.8-0.3-3.7-0.5-5.6-0.5c-5.4,0-10.9,1.3-13.6,3.8L222,94.9l-0.1,0l-0.3-1.1
			c-5.5-3-9.8-9.6-9.8-13.4C211.8,73,221.3,66.4,233.1,63.8z"/>
		<path fill="#0F0F0F" d="M300.7,116.9l0.2,0.3c1.1,1.2,2.1,2.2,3.2,3c0.9-0.6,1.8-1.2,2.7-1.8c-1.2-0.8-2.3-1.8-3.4-3l-4.9-19.3
			c0.8,0.6,1.6,1.2,2.4,1.7l4.9,13l0,0.2l0.6,0.5c0,0,0,0,0,0c0.1,0,0.1,0.1,0.2,0.1c0,0,0.1,0,0.1,0.1c0,0,0,0,0,0c0,0,0,0,0.1,0
			c0,0,0,0,0.1,0c0.1,0.1,0.1,0.1,0.2,0.2c0,0,0.1,0.1,0.1,0.1c0.1,0.1,0.2,0.2,0.4,0.2c0,0,0.1,0,0.1,0.1c0.2,0.1,0.3,0.2,0.5,0.3
			c0,0,0,0,0,0c1.2,0.7,3,1.6,5,2.2c0,0,0.1,0,0.1,0c0.2,0.1,0.4,0.1,0.6,0.1c3.7-1.4,7.7-2.4,11.9-2.9l5.6-11.2
			c0.6-0.1,1.3-0.3,1.9-0.5c0,0,0.1,0,0.1,0c4.4-0.9,8.3-2.4,11.7-4.3l-5.8,15.6c1,0.1,2.1,0.2,3.1,0.3l7.1-18.9
			c4.3-3.6,6.9-8.1,6.9-13c0-4.4-2-8.5-5.7-12c-1.4-1.4-3.1-2.7-5-3.9l-0.1,0.2l-0.1-0.1L335,80c-3-2.3-6.9-2.8-9.9-2.8
			c-1.4,0-2.6,0.1-3.5,0.2l-5.7-17.9l-0.1,0l-0.1-0.4c-15.2,2.4-27,11.1-27,21.2c0,3.5,2.4,8,5.8,11.8L300.7,116.9z M322.8,111.6
			c-1.6,0.7-3.2,1-5,1c0,0,0,0,0,0c-0.4,0-0.9,0-1.3-0.1c-0.1,0-0.2,0-0.3,0c-0.4,0-0.8-0.1-1.1-0.2c-0.1,0-0.2,0-0.3-0.1
			c-0.3-0.1-0.7-0.2-1-0.2c-0.1,0-0.3-0.1-0.4-0.1c-0.2-0.1-0.4-0.1-0.7-0.2c-0.1-0.1-0.3-0.1-0.4-0.2c-0.2-0.1-0.5-0.2-0.7-0.3
			c-0.2-0.1-0.3-0.1-0.5-0.2c-0.1-0.1-0.2-0.1-0.3-0.2c-0.2-0.1-0.5-0.3-0.7-0.4c-0.1,0-0.1-0.1-0.2-0.1c-0.2-0.1-0.5-0.3-0.7-0.4
			c0,0-0.1,0-0.1-0.1c-0.1,0-0.1-0.1-0.2-0.1c1.1-1.7,5.5-3.6,12.1-3.6c1.4,0,2.9,0.1,4.2,0.3L322.8,111.6z M314.2,63.9l5.4,17
			l1.3-0.3c0,0,1.8-0.4,4.2-0.4c2.8,0,6.7,0.5,9.1,3.1l1.3,1.4l10.2-15.2c4.3,3.3,6.3,6.9,6.3,10.8c0,7.6-9.3,14.7-21.9,16.9
			l-0.4,0.9l-0.1,0l-2.7,5.5c-1.8-0.3-3.7-0.5-5.6-0.5c-5.4,0-10.9,1.3-13.6,3.8l-4.5-12l-0.1,0l-0.3-1.1c-5.5-3-9.9-9.6-9.9-13.5
			C292.9,73,302.4,66.4,314.2,63.9z"/>
		<path fill="#0F0F0F" d="M279.8,137.3c0-4.6-2.1-9-6-12.6c-1.5-1.5-3.2-2.9-5.3-4.2l-0.1,0.2l-0.1-0.1l-11,16.4
			c-3.2-2.4-7.3-3-10.5-3c-1.5,0-2.8,0.1-3.7,0.2l-6-19l-0.1,0l-0.1-0.4c-16.1,2.5-28.6,11.8-28.6,22.5c0,3.7,2.6,8.4,6.1,12.5
			L221,176l0.3,0.3c5.6,6.3,11.4,7.5,20.2,7.5c15.2,0,21.4-7.4,21.6-7.7l0.2-0.2l9.3-24.9C277.1,147.2,279.8,142.4,279.8,137.3z
			 M242.3,137.6c0,0,1.9-0.4,4.4-0.4c3,0,7.1,0.6,9.6,3.3l1.4,1.5l10.8-16c4.5,3.5,6.6,7.3,6.6,11.4c0,8-9.9,15.6-23.2,17.9
			l-0.4,0.9l-0.1,0l-2.9,5.8c-1.9-0.3-3.9-0.5-5.9-0.5c-5.7,0-11.6,1.4-14.4,4l-4.7-12.7l-0.1,0l-0.3-1.2
			c-5.8-3.2-10.4-10.2-10.4-14.3c0-7.7,10.1-14.8,22.5-17.4l5.7,18L242.3,137.6z M239.1,171.4C239.1,171.4,239.1,171.4,239.1,171.4
			c-0.5,0-0.9,0-1.4-0.1c-0.1,0-0.2,0-0.3,0c-0.4,0-0.8-0.1-1.2-0.2c-0.1,0-0.2-0.1-0.4-0.1c-0.3-0.1-0.7-0.2-1-0.3
			c-0.1,0-0.3-0.1-0.4-0.1c-0.2-0.1-0.5-0.2-0.7-0.2c-0.2-0.1-0.3-0.1-0.5-0.2c-0.3-0.1-0.5-0.2-0.7-0.3c-0.2-0.1-0.3-0.2-0.5-0.2
			c-0.1-0.1-0.2-0.1-0.3-0.2c-0.3-0.1-0.5-0.3-0.7-0.4c-0.1,0-0.1-0.1-0.2-0.1c-0.3-0.2-0.5-0.3-0.7-0.4c0,0-0.1,0-0.1-0.1
			c-0.1,0-0.1-0.1-0.2-0.1c1.1-1.8,5.9-3.8,12.8-3.8c1.5,0,3,0.1,4.5,0.3l-2.7,5.4C242.7,171,240.9,171.4,239.1,171.4z M260.4,174.2
			c-1,1-6.7,6.4-19,6.4c-9,0-13.3-1.5-17.6-6.2l-5.2-20.4c0.8,0.7,1.7,1.3,2.5,1.8l5.1,13.8l0,0.2l0.7,0.5c0,0,0,0,0,0
			c0.1,0,0.1,0.1,0.2,0.2c0,0,0.1,0,0.1,0.1c0,0,0,0,0,0c0,0,0,0,0.1,0.1c0,0,0,0,0.1,0c0.1,0.1,0.2,0.1,0.2,0.2
			c0,0,0.1,0.1,0.1,0.1c0.1,0.1,0.3,0.2,0.4,0.3c0,0,0.1,0,0.1,0.1c0.2,0.1,0.4,0.2,0.6,0.4c0,0,0,0,0,0c1.3,0.8,3.1,1.7,5.3,2.3
			c0,0,0.1,0,0.1,0c0.3,0.1,0.6,0.2,0.9,0.2c0.1,0,0.2,0,0.2,0.1c0.3,0.1,0.6,0.1,0.9,0.2c0,0,0.1,0,0.1,0c0.1,0,0.1,0,0.2,0
			c0.3,0,0.6,0.1,0.9,0.1c0.1,0,0.2,0,0.3,0c0.4,0,0.8,0,1.2,0h0c1.8,0,3.6-0.3,5.4-0.9l0,0c0.6-0.2,1.1-0.4,1.7-0.7l0.5-0.2
			l6.8-13.6c0.7-0.1,1.4-0.3,2-0.5c0,0,0.1,0,0.1,0c4.6-1,8.8-2.5,12.3-4.5L260.4,174.2z"/>
		<path fill="#0F0F0F" d="M189.7,137.3c0-4.6-2.1-9-6-12.6c-1.5-1.5-3.2-2.9-5.3-4.2l-0.1,0.2l-0.1-0.1l-11,16.4
			c-3.2-2.4-7.3-3-10.5-3c-1.5,0-2.8,0.1-3.7,0.2l-6-19l-0.1,0l-0.1-0.4c-16.1,2.5-28.6,11.8-28.6,22.5c0,3.7,2.6,8.4,6.1,12.5
			l6.7,26.2l0.3,0.3c5.6,6.3,11.4,7.5,20.2,7.5c15.2,0,21.4-7.4,21.6-7.7l0.2-0.2l9.3-24.9C187,147.2,189.7,142.4,189.7,137.3z
			 M152.2,137.6c0,0,1.9-0.4,4.4-0.4c3,0,7.1,0.6,9.6,3.3l1.4,1.5l10.8-16c4.5,3.5,6.6,7.3,6.6,11.4c0,8-9.9,15.6-23.2,17.9
			l-0.4,0.9l-0.1,0l-2.9,5.8c-1.9-0.3-3.9-0.5-5.9-0.5c-5.7,0-11.6,1.4-14.4,4l-4.7-12.7l-0.1,0l-0.3-1.2
			c-5.8-3.2-10.4-10.2-10.4-14.3c0-7.7,10.1-14.8,22.5-17.4l5.7,18L152.2,137.6z M149,171.4C149,171.4,149,171.4,149,171.4
			c-0.5,0-0.9,0-1.4-0.1c-0.1,0-0.2,0-0.3,0c-0.4,0-0.8-0.1-1.2-0.2c-0.1,0-0.2-0.1-0.4-0.1c-0.3-0.1-0.7-0.2-1-0.3
			c-0.1,0-0.3-0.1-0.4-0.1c-0.2-0.1-0.5-0.2-0.7-0.2c-0.2-0.1-0.3-0.1-0.5-0.2c-0.3-0.1-0.5-0.2-0.7-0.3c-0.2-0.1-0.3-0.2-0.5-0.2
			c-0.1-0.1-0.2-0.1-0.3-0.2c-0.3-0.1-0.5-0.3-0.7-0.4c-0.1,0-0.1-0.1-0.2-0.1c-0.3-0.2-0.5-0.3-0.7-0.4c0,0-0.1,0-0.1-0.1
			c-0.1,0-0.1-0.1-0.2-0.1c1.1-1.8,5.9-3.8,12.8-3.8c1.5,0,3,0.1,4.5,0.3l-2.7,5.4C152.5,171,150.8,171.4,149,171.4z M170.3,174.2
			c-1,1-6.7,6.4-19,6.4c-9,0-13.3-1.5-17.6-6.2l-5.2-20.4c0.8,0.7,1.7,1.3,2.5,1.8l5.1,13.8l0,0.2l0.7,0.5c0,0,0,0,0,0
			c0.1,0,0.1,0.1,0.2,0.2c0,0,0.1,0,0.1,0.1c0,0,0,0,0,0c0,0,0,0,0.1,0.1c0,0,0,0,0.1,0c0.1,0.1,0.2,0.1,0.2,0.2
			c0,0,0.1,0.1,0.1,0.1c0.1,0.1,0.3,0.2,0.4,0.3c0,0,0.1,0,0.1,0.1c0.2,0.1,0.4,0.2,0.6,0.4c0,0,0,0,0,0c1.3,0.8,3.1,1.7,5.3,2.3
			c0,0,0.1,0,0.1,0c0.3,0.1,0.6,0.2,0.9,0.2c0.1,0,0.2,0,0.2,0.1c0.3,0.1,0.6,0.1,0.9,0.2c0,0,0.1,0,0.1,0c0.1,0,0.1,0,0.2,0
			c0.3,0,0.6,0.1,0.9,0.1c0.1,0,0.2,0,0.3,0c0.4,0,0.8,0,1.2,0h0c1.8,0,3.6-0.3,5.4-0.9l0,0c0.6-0.2,1.1-0.4,1.7-0.7l0.5-0.2
			l6.8-13.6c0.7-0.1,1.4-0.3,2-0.5c0,0,0.1,0,0.1,0c4.6-1,8.8-2.5,12.3-4.5L170.3,174.2z"/>
		<path fill="#0F0F0F" d="M100.6,137.3c0-4.6-2.1-9-6-12.6c-1.5-1.5-3.2-2.9-5.3-4.2l-0.1,0.2l-0.1-0.1L78,137
			c-3.2-2.4-7.3-3-10.5-3c-1.5,0-2.8,0.1-3.7,0.2l-6-19l-0.1,0l-0.1-0.4C41.5,117.4,29,126.6,29,137.3c0,3.7,2.6,8.4,6.1,12.5
			l6.7,26.2l0.3,0.3c5.6,6.3,11.4,7.5,20.2,7.5c15.2,0,21.4-7.4,21.6-7.7l0.2-0.2l9.3-24.9C97.9,147.2,100.6,142.4,100.6,137.3z
			 M63.1,137.6c0,0,1.9-0.4,4.4-0.4c3,0,7.1,0.6,9.6,3.3l1.4,1.5l10.8-16c4.5,3.5,6.6,7.3,6.6,11.4c0,8-9.9,15.6-23.2,17.9l-0.4,0.9
			l-0.1,0l-2.9,5.8c-1.9-0.3-3.9-0.5-5.9-0.5c-5.7,0-11.6,1.4-14.4,4l-4.7-12.7l-0.1,0l-0.3-1.2c-5.8-3.2-10.4-10.2-10.4-14.3
			c0-7.7,10.1-14.8,22.5-17.4l5.7,18L63.1,137.6z M59.9,171.4C59.9,171.4,59.9,171.4,59.9,171.4c-0.5,0-0.9,0-1.4-0.1
			c-0.1,0-0.2,0-0.3,0c-0.4,0-0.8-0.1-1.2-0.2c-0.1,0-0.2-0.1-0.4-0.1c-0.3-0.1-0.7-0.2-1-0.3c-0.1,0-0.3-0.1-0.4-0.1
			c-0.2-0.1-0.5-0.2-0.7-0.2c-0.2-0.1-0.3-0.1-0.5-0.2c-0.3-0.1-0.5-0.2-0.7-0.3c-0.2-0.1-0.3-0.2-0.5-0.2c-0.1-0.1-0.2-0.1-0.3-0.2
			c-0.3-0.1-0.5-0.3-0.7-0.4c-0.1,0-0.1-0.1-0.2-0.1c-0.3-0.2-0.5-0.3-0.7-0.4c0,0-0.1,0-0.1-0.1c-0.1,0-0.1-0.1-0.2-0.1
			c1.1-1.8,5.9-3.8,12.8-3.8c1.5,0,3,0.1,4.5,0.3l-2.7,5.4C63.4,171,61.7,171.4,59.9,171.4z M81.2,174.2c-1,1-6.7,6.4-19,6.4
			c-9,0-13.3-1.5-17.6-6.2L39.4,154c0.8,0.7,1.7,1.3,2.5,1.8l5.1,13.8l0.7,0.7c0,0,0,0,0,0c0.1,0,0.1,0.1,0.2,0.2c0,0,0.1,0,0.1,0.1
			c0,0,0,0,0,0c0,0,0,0,0.1,0.1c0,0,0,0,0.1,0c0.1,0.1,0.2,0.1,0.2,0.2c0,0,0.1,0.1,0.1,0.1c0.1,0.1,0.3,0.2,0.4,0.3
			c0,0,0.1,0,0.1,0.1c0.2,0.1,0.4,0.2,0.6,0.4c0,0,0,0,0,0c1.3,0.8,3.1,1.7,5.3,2.3c0,0,0.1,0,0.1,0c0.3,0.1,0.6,0.2,0.9,0.2
			c0.1,0,0.2,0,0.2,0.1c0.3,0.1,0.6,0.1,0.9,0.2c0,0,0.1,0,0.1,0c0.1,0,0.1,0,0.2,0c0.3,0,0.6,0.1,0.9,0.1c0.1,0,0.2,0,0.3,0
			c0.4,0,0.8,0,1.2,0h0c1.8,0,3.6-0.3,5.4-0.9l0,0c0.6-0.2,1.1-0.4,1.7-0.7l0.5-0.2l6.8-13.6c0.7-0.1,1.4-0.3,2-0.5c0,0,0.1,0,0.1,0
			c4.6-1,8.8-2.5,12.3-4.5L81.2,174.2z"/>
		<path fill="#0F0F0F" d="M290.9,63.6c0.6,0.7,1.2,1.3,1.8,1.8c0.7-0.6,1.4-1.2,2.2-1.7c-0.6-0.5-1.2-1-1.7-1.7l-4.4-17.4
			c0.7,0.6,1.4,1.1,2.1,1.5l4.4,11.7l0,0.2l0.6,0.4c0,0,0,0,0,0c0,0,0.1,0.1,0.2,0.1c0,0,0.1,0,0.1,0.1c0,0,0,0,0,0c0,0,0,0,0.1,0
			c0,0,0,0,0.1,0c0.1,0,0.1,0.1,0.2,0.1c0,0,0.1,0.1,0.1,0.1c0.1,0.1,0.2,0.1,0.3,0.2c0,0,0,0,0.1,0c0.2,0.1,0.3,0.2,0.5,0.3
			c0,0,0,0,0,0c0.6,0.4,1.4,0.8,2.3,1.2c1.2-0.6,2.4-1.1,3.7-1.6c0,0,0,0-0.1,0c-0.3-0.1-0.6-0.1-0.9-0.2c-0.1,0-0.2-0.1-0.3-0.1
			c-0.2-0.1-0.4-0.1-0.6-0.2c-0.1,0-0.3-0.1-0.4-0.1c-0.2-0.1-0.4-0.2-0.6-0.3c-0.1-0.1-0.3-0.1-0.4-0.2c-0.1,0-0.2-0.1-0.3-0.1
			c-0.2-0.1-0.4-0.2-0.6-0.3c-0.1,0-0.1-0.1-0.2-0.1c-0.2-0.1-0.4-0.3-0.6-0.4c0,0-0.1,0-0.1-0.1c-0.1,0-0.1-0.1-0.2-0.1
			c1-1.5,5-3.2,10.9-3.2c1.3,0,2.6,0.1,3.8,0.3l-1.4,2.9c1.1-0.2,2.2-0.4,3.3-0.6l3.6-7.2c0.6-0.1,1.2-0.3,1.7-0.4c0,0,0.1,0,0.1,0
			c3.9-0.8,7.5-2.2,10.5-3.8l-4.1,11.1c0.9,0.1,1.9,0.2,2.8,0.3l5.2-14c3.9-3.2,6.2-7.3,6.2-11.6c0-3.9-1.8-7.6-5.1-10.7
			c-1.3-1.2-2.8-2.4-4.5-3.5l-0.1,0.2l-0.1-0.1l-9.3,13.9c-2.7-2.1-6.2-2.5-8.9-2.5c-1.3,0-2.3,0.1-3.1,0.2l-5.1-16.1l-0.1,0
			l-0.1-0.4c-13.7,2.2-24.3,10-24.3,19.1c0,3.1,2.2,7.2,5.2,10.6l5.7,22.3L290.9,63.6z M283.6,30.5c0-6.6,8.5-12.5,19.1-14.8
			l4.9,15.3l1.2-0.3c0,0,1.6-0.3,3.8-0.3c2.6,0,6,0.5,8.1,2.8l1.2,1.3l9.1-13.6c3.8,3,5.6,6.2,5.6,9.7c0,6.8-8.4,13.2-19.7,15.2
			l-0.3,0.8l-0.1,0l-2.5,4.9c-1.6-0.3-3.3-0.4-5-0.4c-4.9,0-9.8,1.2-12.2,3.4l-4-10.7l0,0l-0.3-1C287.5,39.9,283.6,33.9,283.6,30.5z
			"/>
		<path fill="#0F0F0F" d="M216.2,62c0.8-0.5,1.6-0.9,2.4-1.3l-4.1-16c0.7,0.6,1.4,1.1,2.1,1.5l4.4,11.7l0,0.2l0.6,0.4c0,0,0,0,0,0
			c0,0,0.1,0.1,0.2,0.1c0,0,0.1,0,0.1,0.1c0,0,0,0,0,0c0,0,0,0,0.1,0c0,0,0,0,0.1,0c0.1,0,0.1,0.1,0.2,0.1c0,0,0.1,0.1,0.1,0.1
			c0,0,0,0,0,0c1.1-0.4,2.2-0.8,3.4-1.1c0,0,0,0-0.1,0c-0.2-0.1-0.4-0.2-0.6-0.3c-0.1,0-0.1-0.1-0.2-0.1c-0.2-0.1-0.4-0.3-0.6-0.4
			c0,0-0.1,0-0.1-0.1c-0.1,0-0.1-0.1-0.2-0.1c1-1.5,5-3.2,10.9-3.2c1.3,0,2.6,0.1,3.8,0.3l-0.9,1.9c1-0.1,2-0.1,3.1-0.1l3.3-6.7
			c0.6-0.1,1.2-0.3,1.7-0.4c0,0,0.1,0,0.1,0c3.9-0.8,7.5-2.2,10.5-3.8l-4.5,12c0.9,0.2,1.8,0.4,2.7,0.6l5.7-15.2
			c3.9-3.2,6.2-7.3,6.2-11.6c0-3.9-1.8-7.6-5.1-10.7c-1.3-1.2-2.8-2.4-4.5-3.5l-0.1,0.2l-0.1-0.1l-9.3,13.9
			c-2.7-2.1-6.2-2.5-8.9-2.5c-1.3,0-2.3,0.1-3.1,0.2l-5.1-16.1l-0.1,0l-0.1-0.4c-13.7,2.2-24.3,10-24.3,19.1c0,3.1,2.2,7.2,5.2,10.6
			L216.2,62z M228.6,15.7l4.9,15.3l1.2-0.3c0,0,1.6-0.3,3.8-0.3c2.6,0,6,0.5,8.1,2.8l1.2,1.3l9.1-13.6c3.8,3,5.6,6.2,5.6,9.7
			c0,6.8-8.4,13.2-19.7,15.2l-0.3,0.8l-0.1,0l-2.5,4.9c-1.6-0.3-3.3-0.4-5-0.4c-4.9,0-9.8,1.2-12.2,3.4l-4-10.7l0,0l-0.3-1
			c-4.9-2.7-8.8-8.7-8.8-12.1C209.5,23.9,218,18,228.6,15.7z"/>
		<path fill="#0F0F0F" d="M141.5,59.7c0.8-0.4,1.7-0.7,2.5-1l-3.6-14c0.7,0.6,1.4,1.1,2.1,1.5l4.3,11.5c1-0.3,2.1-0.6,3.1-0.8
			c0,0-0.1-0.1-0.1-0.1c1-1.5,5-3.2,10.9-3.2c1.3,0,2.6,0.1,3.8,0.3l-0.9,1.8c1,0,2,0.1,2.9,0.2L170,49c0.6-0.1,1.2-0.3,1.7-0.4
			c0,0,0.1,0,0.1,0c3.9-0.8,7.5-2.2,10.5-3.8l-4.9,13.1c0.9,0.3,1.7,0.5,2.6,0.8l6.2-16.6c3.9-3.2,6.2-7.3,6.2-11.6
			c0-3.9-1.8-7.6-5.1-10.7c-1.3-1.2-2.8-2.4-4.5-3.5l-0.1,0.2l-0.1-0.1l-9.3,13.9c-2.7-2.1-6.2-2.5-8.9-2.5c-1.3,0-2.3,0.1-3.1,0.2
			L156,11.8l-0.1,0l-0.1-0.4c-13.7,2.2-24.3,10-24.3,19.1c0,3.1,2.2,7.2,5.2,10.6L141.5,59.7z M154.5,15.7l4.9,15.3l1.2-0.3
			c0,0,1.6-0.3,3.8-0.3c2.6,0,6,0.5,8.1,2.8l1.2,1.3l9.1-13.6c3.8,3,5.6,6.2,5.6,9.7c0,6.8-8.4,13.2-19.7,15.2l-0.3,0.8l-0.1,0
			l-2.5,4.9c-1.6-0.3-3.3-0.4-5-0.4c-4.9,0-9.8,1.2-12.2,3.4l-4-10.7l0,0l-0.3-1c-4.9-2.7-8.8-8.7-8.8-12.1
			C135.4,23.9,143.9,18,154.5,15.7z"/>
		<path fill="#0F0F0F" d="M67.9,57.7c0.9-0.2,1.7-0.5,2.6-0.7l-3.1-12.3c0.7,0.6,1.4,1.1,2.1,1.5l3.8,10.2c1.5-0.2,3-0.4,4.5-0.6
			c1.7-1.2,5.2-2.2,9.8-2.2c1.3,0,2.6,0.1,3.8,0.3l-1.1,2.3c0.9,0.1,1.9,0.3,2.8,0.5l3.8-7.6c0.6-0.1,1.2-0.3,1.7-0.4
			c0,0,0.1,0,0.1,0c3.9-0.8,7.5-2.2,10.5-3.8l-5.7,15.1c0.8,0.4,1.7,0.8,2.4,1.2l7.1-19c3.9-3.2,6.2-7.3,6.2-11.6
			c0-3.9-1.8-7.6-5.1-10.7c-1.3-1.2-2.8-2.4-4.5-3.5l-0.1,0.2l-0.1-0.1l-9.3,13.9c-2.7-2.1-6.2-2.5-8.9-2.5c-1.3,0-2.3,0.1-3.1,0.2
			l-5.1-16.1l-0.1,0l-0.1-0.4c-13.7,2.2-24.3,10-24.3,19.1c0,3.1,2.2,7.2,5.2,10.6L67.9,57.7z M81.3,15.7L86.2,31l1.2-0.3
			c0,0,1.6-0.3,3.8-0.3c2.6,0,6,0.5,8.1,2.8l1.2,1.3l9.1-13.6c3.8,3,5.6,6.2,5.6,9.7c0,6.8-8.4,13.2-19.7,15.2l-0.3,0.8l-0.1,0
			l-2.5,4.9c-1.6-0.3-3.3-0.4-5-0.4c-4.9,0-9.8,1.2-12.2,3.4l-4-10.7l0,0l-0.3-1c-4.9-2.7-8.8-8.7-8.8-12.1
			C62.2,23.9,70.8,18,81.3,15.7z"/>
		<path fill="#0F0F0F" d="M139.5,113.4c1-0.2,1.9-0.5,2.9-0.6L138.2,96c0.8,0.6,1.6,1.2,2.4,1.7l4.9,13l0,0.2l0.6,0.5c0,0,0,0,0,0
			c0.1,0,0.1,0.1,0.2,0.1c0,0,0.1,0,0.1,0.1c0,0,0,0,0,0c0,0,0,0,0.1,0c0,0,0,0,0.1,0c0.1,0.1,0.1,0.1,0.2,0.2c0,0,0.1,0.1,0.1,0.1
			c0,0,0.1,0,0.1,0.1c1.9-0.2,3.9-0.4,6-0.4c-0.1,0-0.3-0.1-0.4-0.2c-0.1-0.1-0.3-0.1-0.4-0.2c-0.2-0.1-0.5-0.2-0.7-0.3
			c-0.2-0.1-0.3-0.1-0.5-0.2c-0.1-0.1-0.2-0.1-0.3-0.2c-0.2-0.1-0.5-0.3-0.7-0.4c-0.1,0-0.1-0.1-0.2-0.1c-0.2-0.1-0.5-0.3-0.7-0.4
			c0,0-0.1,0-0.1-0.1c-0.1,0-0.1-0.1-0.2-0.1c1.1-1.7,5.5-3.6,12.1-3.6c1.4,0,2.9,0.1,4.2,0.3l-2.6,5.1c-0.6,0.2-1.1,0.4-1.7,0.6
			c1.5,0.2,3,0.4,4.4,0.6l5.9-11.8c0.6-0.1,1.3-0.3,1.9-0.5c0,0,0.1,0,0.1,0c4.4-0.9,8.3-2.4,11.6-4.3l-7.1,19c-0.2,0.2-0.5,0.5-1,1
			c1,0.4,2,0.9,2.9,1.4c0.3-0.3,0.5-0.6,0.6-0.6l0.2-0.2l8.8-23.5c4.3-3.6,6.9-8.1,6.9-12.9c0-4.4-2-8.5-5.7-11.9
			c-1.4-1.4-3.1-2.7-5-3.9l-0.1,0.2l-0.1-0.1L174.5,80c-3-2.3-6.9-2.8-9.9-2.8c-1.4,0-2.6,0.1-3.5,0.2l-5.7-17.9l-0.1,0l-0.1-0.4
			c-15.2,2.4-27,11.1-27,21.2c0,3.5,2.4,8,5.8,11.8L139.5,113.4z M153.7,63.8l5.4,17l1.3-0.3c0,0,1.8-0.4,4.2-0.4
			c2.8,0,6.7,0.5,9,3.1l1.3,1.4l10.2-15.1c4.2,3.3,6.3,6.9,6.3,10.7c0,7.5-9.3,14.7-21.9,16.9l-0.4,0.9l-0.1,0l-2.7,5.5
			c-1.8-0.3-3.7-0.5-5.6-0.5c-5.4,0-10.9,1.3-13.6,3.8l-4.5-11.9l-0.1,0l-0.3-1.1c-5.5-3-9.8-9.6-9.8-13.4
			C132.5,73,142,66.4,153.7,63.8z"/>
		<path fill="#0F0F0F" d="M111.8,68.3c-1.4-1.4-3.1-2.7-5-3.9l-0.1,0.2l-0.1-0.1L96.2,80c-3-2.3-6.9-2.8-9.9-2.8
			c-1.4,0-2.6,0.1-3.5,0.2l-5.7-17.9l-0.1,0L77,59.1c-15.2,2.4-27,11.1-27,21.2c0,3.5,2.4,8,5.8,11.8l5,19.7c1-0.1,2-0.1,3.1-0.1
			l-4-15.6c0.8,0.6,1.6,1.2,2.4,1.7l4.9,13l0,0.2l0.6,0.5c0,0,0,0,0,0c0.1,0,0.1,0.1,0.2,0.1c0,0,0.1,0,0.1,0.1c0,0,0,0,0,0
			c0,0,0,0,0.1,0c0,0,0,0,0,0c5.6,0.3,11,1.3,15.7,3c0.1,0,0.2-0.1,0.4-0.1c0.5-0.2,1.1-0.4,1.6-0.7l0.5-0.2l6.4-12.8
			c0.6-0.1,1.3-0.3,1.9-0.5c0,0,0.1,0,0.1,0c4.4-0.9,8.3-2.4,11.6-4.3l-7.1,19c-0.5,0.5-2.5,2.4-6.2,3.9c1,0.6,2,1.3,2.9,2
			c3.9-1.9,5.6-4,5.8-4.2l0.2-0.2l8.8-23.5c4.3-3.6,6.9-8.1,6.9-12.9C117.5,75.9,115.5,71.8,111.8,68.3z M84.1,111.4
			c-1.6,0.7-3.2,1-4.9,1c0,0,0,0,0,0c-0.4,0-0.8,0-1.3-0.1c-0.1,0-0.2,0-0.3,0c-0.4,0-0.8-0.1-1.1-0.2c-0.1,0-0.2,0-0.3-0.1
			c-0.3-0.1-0.6-0.2-1-0.2c-0.1,0-0.3-0.1-0.4-0.1c-0.2-0.1-0.4-0.1-0.7-0.2c-0.1-0.1-0.3-0.1-0.4-0.2c-0.2-0.1-0.5-0.2-0.7-0.3
			c-0.2-0.1-0.3-0.1-0.5-0.2c-0.1-0.1-0.2-0.1-0.3-0.2c-0.2-0.1-0.5-0.3-0.7-0.4c-0.1,0-0.1-0.1-0.2-0.1c-0.2-0.1-0.5-0.3-0.7-0.4
			c0,0-0.1,0-0.1-0.1c-0.1,0-0.1-0.1-0.2-0.1c1.1-1.7,5.5-3.6,12.1-3.6c1.4,0,2.9,0.1,4.2,0.3L84.1,111.4z M91.2,97.2l-0.4,0.9
			l-0.1,0l-2.7,5.5c-1.8-0.3-3.7-0.5-5.6-0.5c-5.4,0-10.9,1.3-13.6,3.8l-4.5-11.9l-0.1,0L64,93.7c-5.5-3-9.8-9.6-9.8-13.4
			c0-7.3,9.5-13.9,21.2-16.4l5.4,17l1.3-0.3c0,0,1.8-0.4,4.2-0.4c2.8,0,6.7,0.5,9,3.1l1.3,1.4l10.2-15.1c4.2,3.3,6.3,6.9,6.3,10.7
			C113.1,87.8,103.8,95,91.2,97.2z"/>
	</g>
</g>
</svg>
