<?xml version="1.0" encoding="utf-8"?>
<!DOCTYPE svg PUBLIC "-//W3C//DTD SVG 1.1//EN" "http://www.w3.org/Graphics/SVG/1.1/DTD/svg11.dtd">
<svg version="1.1" xmlns="http://www.w3.org/2000/svg" xmlns:xlink="http://www.w3.org/1999/xlink" x="0px" y="0px" width="246px"
	 height="164px" viewBox="0 0 246 164" enable-background="new 0 0 246 164" xml:space="preserve">
<g>
	<g>
		<path fill="none" stroke="#0F0F0F" stroke-width="3" d="M46.164,101.953c-8.688,4.434-14.64,13.46-14.64,23.882
			c0,10.422,5.952,19.448,14.64,23.882c8.687-4.434,14.639-13.46,14.639-23.882C60.803,115.413,54.851,106.387,46.164,101.953z"/>
		<path fill="none" stroke="#0F0F0F" stroke-width="3" d="M137.87,142.724c-4.435-8.688-13.461-14.64-23.882-14.64
			c-10.422,0-19.448,5.952-23.882,14.64c4.434,8.687,13.46,14.639,23.882,14.639C124.409,157.363,133.436,151.411,137.87,142.724z"
			/>
		<path fill="none" stroke="#0F0F0F" stroke-width="3" d="M115.68,83.184c-9.278-3.007-19.87-0.833-27.239,6.536
			s-9.542,17.96-6.535,27.238c9.278,3.007,19.869,0.834,27.238-6.536C116.513,103.053,118.687,92.462,115.68,83.184z"/>
		<path fill="none" stroke="#0F0F0F" stroke-width="3" d="M222.548,48.765c-4.434-8.687-13.46-14.64-23.882-14.639
			c-10.421,0-19.447,5.952-23.881,14.639c4.434,8.687,13.459,14.639,23.882,14.639C209.088,63.403,218.114,57.451,222.548,48.765z"
			/>
		<path fill="none" stroke="#0F0F0F" stroke-width="3" d="M60.107,75.954c-4.434-8.687-13.46-14.64-23.882-14.639
			c-10.422,0-19.447,5.952-23.882,14.639c4.435,8.687,13.459,14.639,23.882,14.639C46.647,90.592,55.673,84.64,60.107,75.954z"/>
		<path fill="none" stroke="#0F0F0F" stroke-width="3" d="M159.047,21.372c-4.434-8.687-13.46-14.64-23.882-14.639
			c-10.422,0-19.447,5.952-23.882,14.639c4.435,8.687,13.46,14.639,23.882,14.639C145.586,36.011,154.613,30.059,159.047,21.372z"/>
		<path fill="none" stroke="#0F0F0F" stroke-width="3" d="M174.681,129.37c1.079-9.694-3.182-19.631-11.882-25.367
			c-8.702-5.736-19.513-5.733-27.997-0.921c-1.079,9.693,3.181,19.63,11.883,25.366C155.385,134.183,166.197,134.182,174.681,129.37
			z"/>
		<path fill="none" stroke="#0F0F0F" stroke-width="3" d="M220.801,111.215c1.079-9.694-3.182-19.631-11.882-25.367
			c-8.702-5.736-19.513-5.733-27.997-0.921c-1.079,9.693,3.181,19.63,11.883,25.366
			C201.506,116.029,212.318,116.027,220.801,111.215z"/>
		<path fill="none" stroke="#0F0F0F" stroke-width="3" d="M95.411,67.34c3.804-8.981,2.562-19.722-4.138-27.705
			c-6.699-7.983-17.06-11.071-26.565-8.883c-3.804,8.98-2.562,19.72,4.138,27.704C75.545,66.438,85.906,69.527,95.411,67.34z"/>
		<path fill="#0F0F0F" stroke="#0F0F0F" stroke-miterlimit="10" d="M50.307,125.849c0,2.292-1.854,4.151-4.145,4.151
			c-2.297,0-4.152-1.859-4.152-4.151s1.855-4.148,4.152-4.148C48.453,121.701,50.307,123.557,50.307,125.849z"/>
		<path fill="none" stroke="#0F0F0F" stroke-miterlimit="10" d="M46.158,108.388c-6.352,3.242-10.704,9.842-10.704,17.462
			s4.353,14.22,10.704,17.462c6.352-3.242,10.704-9.842,10.704-17.462S52.51,111.63,46.158,108.388z"/>
		<path fill="#0F0F0F" stroke="#0F0F0F" stroke-miterlimit="10" d="M113.983,146.888c-2.292,0-4.151-1.853-4.151-4.145
			c0-2.296,1.859-4.152,4.151-4.152s4.148,1.855,4.148,4.152C118.132,145.035,116.275,146.888,113.983,146.888z"/>
		<path fill="none" stroke="#0F0F0F" stroke-miterlimit="10" d="M131.444,142.74c-3.242-6.352-9.842-10.704-17.462-10.704
			s-14.22,4.353-17.462,10.704c3.242,6.352,9.842,10.704,17.462,10.704S128.202,149.091,131.444,142.74z"/>
		<path fill="#0F0F0F" stroke="#0F0F0F" stroke-miterlimit="10" d="M101.72,103.019c-1.621,1.621-4.245,1.625-5.866,0.004
			c-1.624-1.624-1.621-4.25,0-5.871c1.621-1.621,4.245-1.622,5.869,0.002C103.344,98.775,103.341,101.398,101.72,103.019z"/>
		<path fill="none" stroke="#0F0F0F" stroke-miterlimit="10" d="M111.135,87.739c-6.784-2.199-14.528-0.61-19.917,4.778
			c-5.388,5.389-6.977,13.133-4.778,19.917c6.784,2.198,14.528,0.609,19.916-4.779C111.744,102.268,113.333,94.523,111.135,87.739z"
			/>
		<path fill="#0F0F0F" stroke="#0F0F0F" stroke-miterlimit="10" d="M198.662,52.928c-2.292,0-4.151-1.853-4.151-4.144
			c0-2.296,1.859-4.152,4.151-4.152c2.292,0,4.148,1.855,4.148,4.152C202.811,51.075,200.954,52.929,198.662,52.928z"/>
		<path fill="none" stroke="#0F0F0F" stroke-miterlimit="10" d="M216.123,48.78c-3.242-6.352-9.842-10.704-17.462-10.704
			s-14.22,4.353-17.462,10.705c3.243,6.351,9.842,10.704,17.462,10.704S212.881,55.132,216.123,48.78z"/>
		<path fill="#0F0F0F" stroke="#0F0F0F" stroke-miterlimit="10" d="M36.221,80.117c-2.292,0-4.15-1.853-4.15-4.144
			c0-2.296,1.858-4.152,4.15-4.152c2.292,0,4.148,1.855,4.148,4.152C40.369,78.264,38.513,80.118,36.221,80.117z"/>
		<path fill="none" stroke="#0F0F0F" stroke-miterlimit="10" d="M53.682,75.969c-3.243-6.352-9.842-10.704-17.462-10.704
			c-7.62,0-14.22,4.353-17.462,10.705C22,82.321,28.6,86.673,36.22,86.673S50.439,82.321,53.682,75.969z"/>
		<path fill="#0F0F0F" stroke="#0F0F0F" stroke-miterlimit="10" d="M135.16,25.535c-2.292,0-4.15-1.853-4.15-4.144
			c0-2.296,1.858-4.152,4.15-4.152c2.292,0,4.148,1.855,4.148,4.152C139.309,23.683,137.452,25.536,135.16,25.535z"/>
		<path fill="none" stroke="#0F0F0F" stroke-miterlimit="10" d="M152.622,21.388c-3.243-6.352-9.842-10.704-17.462-10.704
			c-7.62,0-14.22,4.353-17.462,10.705c3.242,6.351,9.842,10.704,17.462,10.704S149.379,27.74,152.622,21.388z"/>
		<path fill="#0F0F0F" stroke="#0F0F0F" stroke-miterlimit="10" d="M152.453,119.705c-1.913-1.261-2.445-3.832-1.185-5.745
			c1.265-1.917,3.837-2.443,5.751-1.182c1.913,1.261,2.442,3.832,1.178,5.749C156.937,120.44,154.367,120.966,152.453,119.705z"/>
		<path fill="none" stroke="#0F0F0F" stroke-miterlimit="10" d="M169.315,125.852c0.788-7.088-2.327-14.354-8.688-18.548
			c-6.362-4.193-14.269-4.192-20.471-0.673c-0.789,7.087,2.327,14.354,8.688,18.547C155.207,129.372,163.111,129.37,169.315,125.852
			z"/>
		<path fill="#0F0F0F" stroke="#0F0F0F" stroke-miterlimit="10" d="M198.574,101.55c-1.914-1.261-2.445-3.832-1.185-5.745
			c1.264-1.917,3.837-2.443,5.75-1.182c1.914,1.261,2.442,3.832,1.179,5.749C203.058,102.286,200.487,102.812,198.574,101.55z"/>
		<path fill="none" stroke="#0F0F0F" stroke-miterlimit="10" d="M215.436,107.697c0.789-7.088-2.326-14.354-8.688-18.548
			c-6.362-4.193-14.268-4.192-20.471-0.673c-0.788,7.087,2.326,14.354,8.688,18.547
			C201.327,111.218,209.232,111.216,215.436,107.697z"/>
		<path fill="#0F0F0F" stroke="#0F0F0F" stroke-miterlimit="10" d="M76.989,51.857c-1.544-1.693-1.427-4.315,0.266-5.859
			c1.698-1.547,4.32-1.423,5.864,0.271c1.544,1.693,1.423,4.315-0.273,5.862C81.153,53.674,78.533,53.551,76.989,51.857z"/>
		<path fill="none" stroke="#0F0F0F" stroke-miterlimit="10" d="M91.818,61.967c2.509-6.676,1.279-14.484-3.854-20.116
			c-5.134-5.631-12.797-7.576-19.675-5.693c-2.509,6.675-1.279,14.484,3.854,20.115C77.277,61.905,84.939,63.85,91.818,61.967z"/>
		<path d="M2.701,2.287v158.988h240.783V2.287H2.701z M217.421,3.287h4.367v3.786h-4.367V3.287z M217.421,8.073h4.367v4.479h-4.367
			V8.073z M217.421,13.551h4.367v4.479h-4.367V13.551z M217.421,19.03h4.367v4.479h-4.367V19.03z M217.421,24.508h4.367v4.479
			h-4.367V24.508z M217.421,29.987h4.367v4.479h-4.367V29.987z M212.054,3.287h4.367v3.786h-4.367V3.287z M212.054,8.073h4.367
			v4.479h-4.367V8.073z M212.054,13.551h4.367v4.479h-4.367V13.551z M212.054,19.03h4.367v4.479h-4.367V19.03z M212.054,24.508
			h4.367v4.479h-4.367V24.508z M212.054,29.987h4.367v4.479h-4.367V29.987z M206.799,3.287h4.255v3.786h-4.255V3.287z
			 M206.799,8.073h4.255v4.479h-4.255V8.073z M206.799,13.551h4.255v4.479h-4.255V13.551z M206.799,19.03h4.255v4.479h-4.255V19.03z
			 M206.799,24.508h4.255v4.479h-4.255V24.508z M201.32,3.287h4.479v3.786h-4.479V3.287z M201.32,8.073h4.479v4.479h-4.479V8.073z
			 M201.32,13.551h4.479v4.479h-4.479V13.551z M201.32,19.03h4.479v4.479h-4.479V19.03z M201.32,24.508h4.479v4.479h-4.479V24.508z
			 M195.842,3.287h4.479v3.786h-4.479V3.287z M195.842,8.073h4.479v4.479h-4.479V8.073z M195.842,13.551h4.479v4.479h-4.479V13.551z
			 M195.842,19.03h4.479v4.479h-4.479V19.03z M195.842,24.508h4.479v4.479h-4.479V24.508z M190.363,3.287h4.479v3.786h-4.479V3.287z
			 M190.363,8.073h4.479v4.479h-4.479V8.073z M190.363,13.551h4.479v4.479h-4.479V13.551z M190.363,19.03h4.479v4.479h-4.479V19.03z
			 M190.363,24.508h4.479v4.479h-4.479V24.508z M184.885,3.287h4.479v3.786h-4.479V3.287z M184.885,8.073h4.479v4.479h-4.479V8.073z
			 M184.885,13.551h4.479v4.479h-4.479V13.551z M184.885,19.03h4.479v4.479h-4.479V19.03z M184.885,24.508h4.479v4.479h-4.479
			V24.508z M179.406,3.287h4.479v3.786h-4.479V3.287z M179.406,8.073h4.479v4.479h-4.479V8.073z M179.406,13.551h4.479v4.479h-4.479
			V13.551z M179.406,19.03h4.479v4.479h-4.479V19.03z M179.406,24.508h4.479v4.479h-4.479V24.508z M179.406,29.987h4.479v4.479
			h-4.479V29.987z M173.928,3.287h4.479v3.786h-4.479V3.287z M173.928,8.073h4.479v4.479h-4.479V8.073z M173.928,13.551h4.479v4.479
			h-4.479V13.551z M173.928,19.03h4.479v4.479h-4.479V19.03z M173.928,24.508h4.479v4.479h-4.479V24.508z M173.928,29.987h4.479
			v4.479h-4.479V29.987z M173.928,35.465h4.479v4.479h-4.479V35.465z M168.449,3.287h4.479v3.786h-4.479V3.287z M168.449,8.073
			h4.479v4.479h-4.479V8.073z M168.449,13.551h4.479v4.479h-4.479V13.551z M168.449,19.03h4.479v4.479h-4.479V19.03z
			 M168.449,24.508h4.479v4.479h-4.479V24.508z M168.449,29.987h4.479v4.479h-4.479V29.987z M168.449,35.465h4.479v4.479h-4.479
			V35.465z M168.449,40.944h4.479v4.479h-4.479V40.944z M168.449,46.422h4.479v4.479h-4.479V46.422z M168.449,51.901h4.479v4.479
			h-4.479V51.901z M168.449,57.379h4.479v4.479h-4.479V57.379z M168.449,62.858h4.479v4.479h-4.479V62.858z M168.449,68.336h4.479
			v4.479h-4.479V68.336z M168.449,73.815h4.479v4.479h-4.479V73.815z M168.449,79.293h4.479v4.479h-4.479V79.293z M168.449,84.772
			h4.479v4.479h-4.479V84.772z M168.449,90.25h4.479v4.479h-4.479V90.25z M168.449,95.729h4.479v4.479h-4.479V95.729z
			 M168.449,101.208h4.479v4.479h-4.479V101.208z M162.971,3.287h4.479v3.786h-4.479V3.287z M162.971,8.073h4.479v4.479h-4.479
			V8.073z M162.971,13.551h4.479v4.479h-4.479V13.551z M162.971,19.03h4.479v4.479h-4.479V19.03z M162.971,24.508h4.479v4.479
			h-4.479V24.508z M162.971,29.987h4.479v4.479h-4.479V29.987z M162.971,35.465h4.479v4.479h-4.479V35.465z M162.971,40.944h4.479
			v4.479h-4.479V40.944z M162.971,46.422h4.479v4.479h-4.479V46.422z M162.971,51.901h4.479v4.479h-4.479V51.901z M162.971,57.379
			h4.479v4.479h-4.479V57.379z M162.971,62.858h4.479v4.479h-4.479V62.858z M162.971,68.336h4.479v4.479h-4.479V68.336z
			 M162.971,73.815h4.479v4.479h-4.479V73.815z M162.971,79.293h4.479v4.479h-4.479V79.293z M162.971,84.772h4.479v4.479h-4.479
			V84.772z M162.971,90.25h4.479v4.479h-4.479V90.25z M162.971,95.729h4.479v4.479h-4.479V95.729z M157.492,3.287h4.479v3.786
			h-4.479V3.287z M157.492,8.073h4.479v4.479h-4.479V8.073z M152.014,3.287h4.479v3.786h-4.479V3.287z M146.535,3.287h4.479v3.786
			h-4.479V3.287z M119.143,3.287h4.479v3.786h-4.479V3.287z M113.664,3.287h4.479v3.786h-4.479V3.287z M108.186,3.287h4.479v3.786
			h-4.479V3.287z M108.186,8.073h4.479v4.479h-4.479V8.073z M108.186,24.508h3.174c-0.211-0.33-0.421-0.66-0.62-1h-2.554V19.03
			h2.686c0.204-0.342,0.426-0.669,0.643-1h-3.328v-4.479h4.479v2.848c0.323-0.425,0.656-0.839,1-1.243v-1.605h1.479
			c0.341-0.342,0.687-0.677,1.043-1h-2.522V8.073h4.479v2.864c0.329-0.248,0.661-0.492,1-0.726V8.073h3.691
			c0.757-0.366,1.529-0.703,2.319-1h-0.532V3.287h4.479v2.615c0.331-0.072,0.666-0.127,1-0.188V3.287h4.479v1.981
			c0.194-0.004,0.385-0.02,0.58-0.02c0,0,0,0,0.001,0c0.141,0,0.279,0.012,0.419,0.015V3.287h4.479v2.399
			c0.333,0.058,0.67,0.106,1,0.176V3.287h4.479v3.786h-0.37c0.79,0.297,1.562,0.634,2.32,1h3.528v2.031
			c0.338,0.229,0.672,0.464,1,0.708V8.073h4.479v4.479h-2.359c0.356,0.323,0.702,0.658,1.043,1h1.316v1.417
			c0.343,0.396,0.678,0.798,1,1.214v-2.631h4.479v4.479h-3.165c0.217,0.331,0.438,0.658,0.642,1h2.523v4.479h-2.392
			c-0.198,0.34-0.408,0.67-0.62,1h3.012v4.479h-4.479v-2.394c-0.322,0.416-0.657,0.819-1,1.214v1.18h-1.082
			c-0.33,0.34-0.662,0.678-1.008,1h2.09v4.479h-4.479v-2.502c-0.328,0.244-0.662,0.479-1,0.708v1.794h-3.036
			c-0.794,0.403-1.611,0.763-2.443,1.089v4.389h-4.479v-3.031c-0.33,0.07-0.667,0.118-1,0.176v2.855h-4.479v-2.432
			c-0.14,0.002-0.278,0.015-0.419,0.015c-0.195,0-0.387-0.016-0.581-0.02v2.438H130.1V37.06c-0.334-0.06-0.669-0.116-1-0.188v3.071
			h-4.479V35.49c-0.775-0.311-1.538-0.648-2.281-1.025h-3.198v-1.901c-0.339-0.233-0.671-0.477-1-0.726v2.627h-4.479v-4.479h2.253
			c-0.346-0.322-0.678-0.66-1.009-1h-1.244v-1.368c-0.344-0.404-0.677-0.818-1-1.243v2.611h-4.479V24.508z M157.492,89.25v-4.479
			h4.479v4.479H157.492z M161.971,90.25v4.479h-4.479V90.25H161.971z M157.492,83.772v-4.479h4.479v4.479H157.492z M157.492,78.293
			v-4.479h4.479v4.479H157.492z M157.492,72.815v-4.479h4.479v4.479H157.492z M157.492,67.336v-4.479h4.479v4.479H157.492z
			 M157.492,61.858v-4.479h4.479v4.479H157.492z M157.492,56.379v-4.479h4.479v4.479H157.492z M157.492,50.901v-4.479h4.479v4.479
			H157.492z M157.492,45.422v-4.479h4.479v4.479H157.492z M157.492,39.944v-4.479h4.479v4.479H157.492z M157.492,34.465v-4.479
			h4.479v4.479H157.492z M152.014,89.25v-4.479h4.479v4.479H152.014z M156.492,90.25v4.479h-4.479V90.25H156.492z M152.014,83.772
			v-4.479h4.479v4.479H152.014z M152.014,78.293v-4.479h4.479v4.479H152.014z M152.014,72.815v-4.479h4.479v4.479H152.014z
			 M152.014,67.336v-4.479h4.479v4.479H152.014z M152.014,61.858v-4.479h4.479v4.479H152.014z M152.014,56.379v-4.479h4.479v4.479
			H152.014z M152.014,50.901v-4.479h4.479v4.479H152.014z M152.014,45.422v-4.479h4.479v4.479H152.014z M152.014,39.944v-4.479
			h4.479v4.479H152.014z M146.535,89.25v-4.479h4.479v4.479H146.535z M151.014,90.25v4.479h-4.479V90.25H151.014z M146.535,83.772
			v-4.479h4.479v4.479H146.535z M146.535,78.293v-4.479h4.479v4.479H146.535z M146.535,72.815v-4.479h4.479v4.479H146.535z
			 M146.535,67.336v-4.479h4.479v4.479H146.535z M146.535,61.858v-4.479h4.479v4.479H146.535z M146.535,56.379v-4.479h4.479v4.479
			H146.535z M146.535,50.901v-4.479h4.479v4.479H146.535z M146.535,45.422v-4.479h4.479v4.479H146.535z M146.535,39.944v-4.479
			h4.479v4.479H146.535z M141.057,89.25v-4.479h4.479v4.479H141.057z M145.535,90.25v4.479h-4.479V90.25H145.535z M141.057,83.772
			v-4.479h4.479v4.479H141.057z M141.057,78.293v-4.479h4.479v4.479H141.057z M141.057,72.815v-4.479h4.479v4.479H141.057z
			 M141.057,67.336v-4.479h4.479v4.479H141.057z M141.057,61.858v-4.479h4.479v4.479H141.057z M141.057,56.379v-4.479h4.479v4.479
			H141.057z M141.057,50.901v-4.479h4.479v4.479H141.057z M141.057,45.422v-4.479h4.479v4.479H141.057z M135.578,89.25v-4.479h4.479
			v4.479H135.578z M140.057,90.25v4.479h-4.479V90.25H140.057z M135.578,83.772v-4.479h4.479v4.479H135.578z M135.578,78.293v-4.479
			h4.479v4.479H135.578z M135.578,72.815v-4.479h4.479v4.479H135.578z M135.578,67.336v-4.479h4.479v4.479H135.578z M135.578,61.858
			v-4.479h4.479v4.479H135.578z M135.578,56.379v-4.479h4.479v4.479H135.578z M135.578,50.901v-4.479h4.479v4.479H135.578z
			 M135.578,45.422v-4.479h4.479v4.479H135.578z M130.1,94.729V90.25h4.479v4.479H130.1z M134.578,95.729v4.479H130.1v-4.479
			H134.578z M130.1,89.25v-4.479h4.479v4.479H130.1z M130.1,83.772v-4.479h4.479v4.479H130.1z M130.1,78.293v-4.479h4.479v4.479
			H130.1z M130.1,72.815v-4.479h4.479v4.479H130.1z M130.1,67.336v-4.479h4.479v4.479H130.1z M130.1,61.858v-4.479h4.479v4.479
			H130.1z M130.1,56.379v-4.479h4.479v4.479H130.1z M130.1,50.901v-4.479h4.479v4.479H130.1z M130.1,45.422v-4.479h4.479v4.479
			H130.1z M130.1,122.122v-4.479h4.479v4.479H130.1z M134.578,123.122v4.479H130.1v-4.479H134.578z M124.621,122.122v-4.479h4.479
			v4.479H124.621z M129.1,123.122v4.479h-4.479v-4.479H129.1z M124.621,116.643v-4.479h4.479v4.479H124.621z M124.621,111.165
			v-4.479h4.479v4.479H124.621z M124.621,105.686v-4.479h4.479v4.479H124.621z M124.621,100.208v-4.479h4.479v4.479H124.621z
			 M124.621,94.729V90.25h4.479v4.479H124.621z M124.621,89.25v-4.479h4.479v4.479H124.621z M124.621,83.772v-4.479h4.479v4.479
			H124.621z M124.621,78.293v-4.479h4.479v4.479H124.621z M124.621,72.815v-4.479h4.479v4.479H124.621z M124.621,67.336v-4.479
			h4.479v4.479H124.621z M124.621,61.858v-4.479h4.479v4.479H124.621z M124.621,56.379v-4.479h4.479v4.479H124.621z M124.621,50.901
			v-4.479h4.479v4.479H124.621z M124.621,45.422v-4.479h4.479v4.479H124.621z M119.143,116.643v-4.479h4.479v4.479H119.143z
			 M123.621,117.643v4.479h-4.479v-4.479H123.621z M119.143,111.165v-4.479h4.479v4.479H119.143z M119.143,105.686v-4.479h4.479
			v4.479H119.143z M119.143,100.208v-4.479h4.479v4.479H119.143z M119.143,94.729V90.25h4.479v4.479H119.143z M119.143,89.25v-4.479
			h4.479v4.479H119.143z M119.143,83.772v-4.479h4.479v4.479H119.143z M119.143,78.293v-4.479h4.479v4.479H119.143z M119.143,72.815
			v-4.479h4.479v4.479H119.143z M119.143,67.336v-4.479h4.479v4.479H119.143z M119.143,61.858v-4.479h4.479v4.479H119.143z
			 M119.143,56.379v-4.479h4.479v4.479H119.143z M119.143,50.901v-4.479h4.479v4.479H119.143z M119.143,45.422v-4.479h4.479v4.479
			H119.143z M119.143,39.944v-4.479h4.479v4.479H119.143z M113.664,72.815v-4.479h4.479v4.479H113.664z M118.143,73.815v4.479
			h-4.479v-4.479H118.143z M113.664,67.336v-4.479h4.479v4.479H113.664z M113.664,61.858v-4.479h4.479v4.479H113.664z
			 M113.664,56.379v-4.479h4.479v4.479H113.664z M113.664,50.901v-4.479h4.479v4.479H113.664z M113.664,45.422v-4.479h4.479v4.479
			H113.664z M113.664,39.944v-4.479h4.479v4.479H113.664z M108.186,29.987h4.479v4.479h-4.479V29.987z M108.186,35.465h4.479v4.479
			h-4.479V35.465z M108.186,40.944h4.479v4.479h-4.479V40.944z M108.186,46.422h4.479v4.479h-4.479V46.422z M108.186,51.901h4.479
			v4.479h-4.479V51.901z M108.186,57.379h4.479v4.479h-4.479V57.379z M108.186,62.858h4.479v4.479h-4.479V62.858z M108.186,68.336
			h4.479v4.479h-4.479V68.336z M108.186,73.815h4.479v4.479h-4.479V73.815z M102.707,3.287h4.479v3.786h-4.479V3.287z
			 M102.707,8.073h4.479v4.479h-4.479V8.073z M102.707,13.551h4.479v4.479h-4.479V13.551z M102.707,19.03h4.479v4.479h-4.479V19.03z
			 M102.707,24.508h4.479v4.479h-4.479V24.508z M102.707,29.987h4.479v4.479h-4.479V29.987z M102.707,35.465h4.479v4.479h-4.479
			V35.465z M102.707,40.944h4.479v4.479h-4.479V40.944z M102.707,46.422h4.479v4.479h-4.479V46.422z M102.707,51.901h4.479v4.479
			h-4.479V51.901z M102.707,57.379h4.479v4.479h-4.479V57.379z M102.707,62.858h4.479v4.479h-4.479V62.858z M102.707,68.336h4.479
			v4.479h-4.479V68.336z M102.707,73.815h4.479v4.479h-4.479V73.815z M97.229,3.287h4.479v3.786h-4.479V3.287z M97.229,8.073h4.479
			v4.479h-4.479V8.073z M97.229,13.551h4.479v4.479h-4.479V13.551z M97.229,19.03h4.479v4.479h-4.479V19.03z M97.229,24.508h4.479
			v4.479h-4.479V24.508z M97.229,29.987h4.479v4.479h-4.479V29.987z M97.229,35.465h4.479v4.479h-4.479V35.465z M97.229,40.944
			h4.479v4.479h-4.479V40.944z M91.75,3.287h4.479v3.786H91.75V3.287z M91.75,8.073h4.479v4.479H91.75V8.073z M91.75,13.551h4.479
			v4.479H91.75V13.551z M91.75,19.03h4.479v4.479H91.75V19.03z M91.75,24.508h4.479v4.479H91.75V24.508z M91.75,29.987h4.479v4.479
			H91.75V29.987z M86.271,3.287h4.479v3.786h-4.479V3.287z M86.271,8.073h4.479v4.479h-4.479V8.073z M86.271,13.551h4.479v4.479
			h-4.479V13.551z M86.271,19.03h4.479v4.479h-4.479V19.03z M86.271,24.508h4.479v4.479h-4.479V24.508z M80.793,3.287h4.479v3.786
			h-4.479V3.287z M80.793,8.073h4.479v4.479h-4.479V8.073z M80.793,13.551h4.479v4.479h-4.479V13.551z M80.793,19.03h4.479v4.479
			h-4.479V19.03z M80.793,24.508h4.479v4.479h-4.479V24.508z M75.314,3.287h4.479v3.786h-4.479V3.287z M75.314,8.073h4.479v4.479
			h-4.479V8.073z M75.314,13.551h4.479v4.479h-4.479V13.551z M75.314,19.03h4.479v4.479h-4.479V19.03z M69.836,3.287h4.479v3.786
			h-4.479V3.287z M69.836,8.073h4.479v4.479h-4.479V8.073z M69.836,13.551h4.479v4.479h-4.479V13.551z M69.836,19.03h4.479v4.479
			h-4.479V19.03z M64.357,3.287h4.479v3.786h-4.479V3.287z M64.357,8.073h4.479v4.479h-4.479V8.073z M64.357,13.551h4.479v4.479
			h-4.479V13.551z M64.357,19.03h4.479v4.479h-4.479V19.03z M58.879,3.287h4.479v3.786h-4.479V3.287z M58.879,8.073h4.479v4.479
			h-4.479V8.073z M58.879,13.551h4.479v4.479h-4.479V13.551z M58.879,19.03h4.479v4.479h-4.479V19.03z M58.879,24.508h4.479v4.479
			h-4.479V24.508z M53.4,3.287h4.479v3.786H53.4V3.287z M53.4,8.073h4.479v4.479H53.4V8.073z M53.4,13.551h4.479v4.479H53.4V13.551z
			 M53.4,19.03h4.479v4.479H53.4V19.03z M53.4,24.508h4.479v4.479H53.4V24.508z M53.4,29.987h4.479v4.479H53.4V29.987z M53.4,35.465
			h4.479v4.479H53.4V35.465z M53.4,40.944h4.479v4.479H53.4V40.944z M53.4,46.422h4.479v4.479H53.4V46.422z M53.4,51.901h4.479
			v4.479H53.4V51.901z M53.4,57.379h4.479v4.479H53.4V57.379z M47.922,3.287H52.4v3.786h-4.479V3.287z M47.922,8.073H52.4v4.479
			h-4.479V8.073z M47.922,13.551H52.4v4.479h-4.479V13.551z M47.922,19.03H52.4v4.479h-4.479V19.03z M47.922,24.508H52.4v4.479
			h-4.479V24.508z M47.922,29.987H52.4v4.479h-4.479V29.987z M47.922,35.465H52.4v4.479h-4.479V35.465z M47.922,40.944H52.4v4.479
			h-4.479V40.944z M47.922,46.422H52.4v4.479h-4.479V46.422z M47.922,51.901H52.4v4.479h-4.479V51.901z M47.922,57.379H52.4v4.479
			h-4.479V57.379z M42.443,3.287h4.479v3.786h-4.479V3.287z M42.443,8.073h4.479v4.479h-4.479V8.073z M42.443,13.551h4.479v4.479
			h-4.479V13.551z M42.443,19.03h4.479v4.479h-4.479V19.03z M42.443,24.508h4.479v4.479h-4.479V24.508z M42.443,29.987h4.479v4.479
			h-4.479V29.987z M42.443,35.465h4.479v4.479h-4.479V35.465z M42.443,40.944h4.479v4.479h-4.479V40.944z M42.443,46.422h4.479
			v4.479h-4.479V46.422z M42.443,51.901h4.479v4.479h-4.479V51.901z M36.965,3.287h4.479v3.786h-4.479V3.287z M36.965,8.073h4.479
			v4.479h-4.479V8.073z M36.965,13.551h4.479v4.479h-4.479V13.551z M36.965,19.03h4.479v4.479h-4.479V19.03z M36.965,24.508h4.479
			v4.479h-4.479V24.508z M36.965,29.987h4.479v4.479h-4.479V29.987z M36.965,35.465h4.479v4.479h-4.479V35.465z M36.965,40.944
			h4.479v4.479h-4.479V40.944z M36.965,46.422h4.479v4.479h-4.479V46.422z M36.965,51.901h4.479v4.479h-4.479V51.901z M31.486,3.287
			h4.479v3.786h-4.479V3.287z M31.486,8.073h4.479v4.479h-4.479V8.073z M31.486,13.551h4.479v4.479h-4.479V13.551z M31.486,19.03
			h4.479v4.479h-4.479V19.03z M31.486,24.508h4.479v4.479h-4.479V24.508z M31.486,29.987h4.479v4.479h-4.479V29.987z M31.486,35.465
			h4.479v4.479h-4.479V35.465z M31.486,40.944h4.479v4.479h-4.479V40.944z M31.486,46.422h4.479v4.479h-4.479V46.422z
			 M31.486,51.901h4.479v4.479h-4.479V51.901z M26.008,3.287h4.479v3.786h-4.479V3.287z M26.008,8.073h4.479v4.479h-4.479V8.073z
			 M26.008,13.551h4.479v4.479h-4.479V13.551z M26.008,19.03h4.479v4.479h-4.479V19.03z M26.008,24.508h4.479v4.479h-4.479V24.508z
			 M26.008,29.987h4.479v4.479h-4.479V29.987z M26.008,35.465h4.479v4.479h-4.479V35.465z M26.008,40.944h4.479v4.479h-4.479V40.944
			z M26.008,46.422h4.479v4.479h-4.479V46.422z M26.008,51.901h4.479v4.479h-4.479V51.901z M20.529,3.287h4.479v3.786h-4.479V3.287z
			 M20.529,8.073h4.479v4.479h-4.479V8.073z M20.529,13.551h4.479v4.479h-4.479V13.551z M20.529,19.03h4.479v4.479h-4.479V19.03z
			 M20.529,24.508h4.479v4.479h-4.479V24.508z M20.529,29.987h4.479v4.479h-4.479V29.987z M20.529,35.465h4.479v4.479h-4.479V35.465
			z M20.529,40.944h4.479v4.479h-4.479V40.944z M20.529,46.422h4.479v4.479h-4.479V46.422z M20.529,51.901h4.479v4.479h-4.479
			V51.901z M20.529,57.379h4.479v4.479h-4.479V57.379z M15.051,3.287h4.479v3.786h-4.479V3.287z M15.051,8.073h4.479v4.479h-4.479
			V8.073z M15.051,13.551h4.479v4.479h-4.479V13.551z M15.051,19.03h4.479v4.479h-4.479V19.03z M15.051,24.508h4.479v4.479h-4.479
			V24.508z M15.051,29.987h4.479v4.479h-4.479V29.987z M15.051,35.465h4.479v4.479h-4.479V35.465z M15.051,40.944h4.479v4.479
			h-4.479V40.944z M15.051,46.422h4.479v4.479h-4.479V46.422z M15.051,51.901h4.479v4.479h-4.479V51.901z M15.051,57.379h4.479
			v4.479h-4.479V57.379z M9.572,3.287h4.479v3.786H9.572V3.287z M9.572,8.073h4.479v4.479H9.572V8.073z M9.572,13.551h4.479v4.479
			H9.572V13.551z M9.572,19.03h4.479v4.479H9.572V19.03z M9.572,24.508h4.479v4.479H9.572V24.508z M9.572,29.987h4.479v4.479H9.572
			V29.987z M9.572,35.465h4.479v4.479H9.572V35.465z M9.572,40.944h4.479v4.479H9.572V40.944z M9.572,46.422h4.479v4.479H9.572
			V46.422z M9.572,51.901h4.479v4.479H9.572V51.901z M9.572,57.379h4.479v4.479H9.572V57.379z M9.572,62.858h4.479v4.479H9.572
			V62.858z M8.572,160.275H3.701v-4.283h4.872V160.275z M8.572,154.993H3.701v-4.479h4.872V154.993z M8.572,149.514H3.701v-4.479
			h4.872V149.514z M8.572,144.036H3.701v-4.479h4.872V144.036z M8.572,138.557H3.701v-4.479h4.872V138.557z M8.572,133.079H3.701
			V128.6h4.872V133.079z M8.572,127.6H3.701v-4.479h4.872V127.6z M8.572,122.122H3.701v-4.479h4.872V122.122z M8.572,116.643H3.701
			v-4.479h4.872V116.643z M8.572,111.165H3.701v-4.479h4.872V111.165z M8.572,105.686H3.701v-4.479h4.872V105.686z M8.572,100.208
			H3.701v-4.479h4.872V100.208z M8.572,94.729H3.701V90.25h4.872V94.729z M8.572,89.25H3.701v-4.479h4.872V89.25z M8.572,83.772
			H3.701v-4.479h4.872V83.772z M8.572,78.293H3.701v-4.479h4.872V78.293z M8.572,72.815H3.701v-4.479h4.872V72.815z M8.572,67.336
			H3.701v-4.479h4.872V67.336z M8.572,61.858H3.701v-4.479h4.872V61.858z M8.572,56.379H3.701v-4.479h4.872V56.379z M8.572,50.901
			H3.701v-4.479h4.872V50.901z M8.572,45.422H3.701v-4.479h4.872V45.422z M8.572,39.944H3.701v-4.479h4.872V39.944z M8.572,34.465
			H3.701v-4.479h4.872V34.465z M8.572,28.987H3.701v-4.479h4.872V28.987z M8.572,23.508H3.701V19.03h4.872V23.508z M8.572,18.03
			H3.701v-4.479h4.872V18.03z M8.572,12.551H3.701V8.073h4.872V12.551z M8.572,7.073H3.701V3.287h4.872V7.073z M14.051,160.275
			H9.572v-4.283h4.479V160.275z M14.051,154.993H9.572v-4.479h4.479V154.993z M14.051,149.514H9.572v-4.479h4.479V149.514z
			 M14.051,144.036H9.572v-4.479h4.479V144.036z M14.051,138.557H9.572v-4.479h4.479V138.557z M14.051,133.079H9.572V128.6h4.479
			V133.079z M14.051,127.6H9.572v-4.479h4.479V127.6z M14.051,122.122H9.572v-4.479h4.479V122.122z M14.051,116.643H9.572v-4.479
			h4.479V116.643z M14.051,111.165H9.572v-4.479h4.479V111.165z M14.051,105.686H9.572v-4.479h4.479V105.686z M14.051,100.208H9.572
			v-4.479h4.479V100.208z M14.051,94.729H9.572V90.25h4.479V94.729z M14.051,89.25H9.572v-4.479h4.479V89.25z M19.529,160.275
			h-4.479v-4.283h4.479V160.275z M19.529,154.993h-4.479v-4.479h4.479V154.993z M19.529,149.514h-4.479v-4.479h4.479V149.514z
			 M19.529,144.036h-4.479v-4.479h4.479V144.036z M19.529,138.557h-4.479v-4.479h4.479V138.557z M19.529,133.079h-4.479V128.6h4.479
			V133.079z M19.529,127.6h-4.479v-4.479h4.479V127.6z M19.529,122.122h-4.479v-4.479h4.479V122.122z M19.529,116.643h-4.479v-4.479
			h4.479V116.643z M19.529,111.165h-4.479v-4.479h4.479V111.165z M19.529,105.686h-4.479v-4.479h4.479V105.686z M19.529,100.208
			h-4.479v-4.479h4.479V100.208z M19.529,94.729h-4.479V90.25h4.479V94.729z M25.008,160.275h-4.479v-4.283h4.479V160.275z
			 M25.008,154.993h-4.479v-4.479h4.479V154.993z M25.008,149.514h-4.479v-4.479h4.479V149.514z M25.008,144.036h-4.479v-4.479
			h4.479V144.036z M25.008,138.557h-4.479v-4.479h4.479V138.557z M25.008,133.079h-4.479V128.6h4.479V133.079z M25.008,127.6h-4.479
			v-4.479h4.479V127.6z M25.008,122.122h-4.479v-4.479h4.479V122.122z M25.008,116.643h-4.479v-4.479h4.479V116.643z
			 M25.008,111.165h-4.479v-4.479h4.479V111.165z M25.008,105.686h-4.479v-4.479h4.479V105.686z M25.008,100.208h-4.479v-4.479
			h4.479V100.208z M25.008,94.729h-4.479V90.25h4.479V94.729z M30.486,160.275h-4.479v-4.283h4.479V160.275z M30.486,154.993h-4.479
			v-4.479h4.479V154.993z M30.486,149.514h-4.479v-4.479h4.479V149.514z M30.486,144.036h-4.479v-4.479h4.479V144.036z
			 M30.486,138.557h-4.479v-4.479h4.479V138.557z M35.965,160.275h-4.479v-4.283h4.479V160.275z M35.965,154.993h-4.479v-4.479
			h4.479V154.993z M35.965,149.514h-4.479v-4.479h4.479V149.514z M41.443,160.275h-4.479v-4.283h4.479V160.275z M41.443,154.993
			h-4.479v-4.479h4.479V154.993z M46.922,160.275h-4.479v-4.283h4.479V160.275z M52.4,160.275h-4.479v-4.283H52.4V160.275z
			 M52.4,154.993h-4.479v-4.479H52.4V154.993z M57.879,160.275H53.4v-4.283h4.479V160.275z M57.879,154.993H53.4v-4.479h4.479
			V154.993z M63.357,160.275h-4.479v-4.283h4.479V160.275z M63.357,154.993h-4.479v-4.479h4.479V154.993z M63.357,149.514h-4.479
			v-4.479h4.479V149.514z M63.357,144.036h-4.479v-4.479h4.479V144.036z M63.357,116.643H60.76c0.113,0.331,0.22,0.665,0.321,1
			h2.276v4.479h-1.31c0.043,0.331,0.072,0.666,0.104,1h1.206v4.479h-1.121c-0.02,0.335-0.055,0.667-0.087,1h1.208v4.479h-2.002
			c-0.088,0.335-0.181,0.669-0.281,1h2.283v4.479H59.29c-0.428,0.853-0.899,1.682-1.411,2.486v2.992h-2.193
			c-0.285,0.339-0.577,0.674-0.878,1h3.071v4.479H53.4v-3.059c-0.323,0.303-0.662,0.592-1,0.881v2.178h-2.912
			c-0.825,0.539-1.676,1.05-2.566,1.508v3.97h-4.479v-4.479h2.035c-0.564-0.316-1.114-0.65-1.65-1h-0.385v-0.25
			c-0.34-0.23-0.671-0.47-1-0.713v0.963h-4.479v-4.479h0.544c-0.544-0.588-1.054-1.202-1.544-1.831v0.831h-4.479v-4.479h2.071
			c-0.183-0.33-0.361-0.663-0.531-1h-1.54v-3.717c-0.425-1.275-0.759-2.586-1-3.925v2.164h-4.479V128.6h4.159
			c-0.032-0.333-0.067-0.665-0.087-1h-4.072v-4.479h4.157c0.032-0.334,0.061-0.669,0.104-1h-4.261v-4.479h4.479v3.142
			c0.255-1.415,0.61-2.799,1.07-4.142h-0.07v-4.479h2.059c0.186-0.335,0.368-0.672,0.567-1h-2.625v-4.479h4.479v1.81
			c0.321-0.413,0.655-0.816,1-1.212v-0.598h0.525c0.316-0.343,0.647-0.672,0.981-1h-1.506v-4.479h4.479v1.941
			c0.329-0.243,0.66-0.483,1-0.713v-1.228h1.996c0.344-0.194,0.683-0.395,1.037-0.575l0.682-0.348l0.682,0.348
			c0.37,0.188,0.723,0.397,1.082,0.6v-0.025H52.4v3.156c0.338,0.289,0.677,0.578,1,0.881v-4.037h4.479v4.479h-4.034
			c0.334,0.328,0.666,0.657,0.981,1h3.052v3.971c0.353,0.554,0.687,1.12,1,1.698v-0.19h4.479V116.643z M30.486,101.208v4.479h-4.479
			v-4.479H30.486z M26.008,100.208v-4.479h4.479v4.479H26.008z M30.486,106.686v4.479h-4.479v-4.479H30.486z M30.486,112.165v4.479
			h-4.479v-4.479H30.486z M35.965,101.208v4.479h-4.479v-4.479H35.965z M31.486,100.208v-4.479h4.479v4.479H31.486z M36.965,100.208
			v-4.479h4.479v4.479H36.965z M42.443,100.208v-4.479h4.479v4.479H42.443z M52.4,95.729v4.479h-4.479v-4.479H52.4z M47.922,94.729
			V90.25H52.4v4.479H47.922z M57.879,95.729v4.479H53.4v-4.479H57.879z M53.4,94.729V90.25h4.479v4.479H53.4z M63.357,111.165
			h-4.479v-4.479h4.479V111.165z M63.357,105.686h-4.479v-4.479h4.479V105.686z M63.357,100.208h-4.479v-4.479h4.479V100.208z
			 M63.357,94.729h-4.479V90.25h4.479V94.729z M63.357,89.25h-4.479v-4.479h4.479V89.25z M63.357,72.815h-3.359
			c0.212,0.33,0.424,0.66,0.623,1h2.736v4.479h-2.831c-0.204,0.341-0.423,0.669-0.639,1h3.47v4.479h-4.479V80.74
			c-0.323,0.434-0.655,0.859-1,1.271v1.76h-1.61c-0.339,0.342-0.683,0.677-1.039,1h2.648v4.479H53.4v-2.956
			c-0.33,0.253-0.66,0.505-1,0.742v2.213h-3.786c-0.753,0.366-1.521,0.702-2.306,1h0.613v4.479h-4.479v-3.315
			c-0.331,0.074-0.665,0.137-1,0.199v3.116h-4.479v-2.647c-0.249,0.007-0.495,0.026-0.745,0.026c-0.085,0-0.169-0.008-0.255-0.009
			v2.63h-4.479v-3.03c-0.334-0.056-0.669-0.107-1-0.175v3.205h-4.479V90.25h0.123c-0.785-0.298-1.553-0.634-2.306-1h-3.296v-1.89
			c-0.337-0.225-0.672-0.452-1-0.691v2.581h-4.479v-4.479h2.158c-0.355-0.323-0.699-0.658-1.038-1h-1.12v-1.194
			c-0.342-0.387-0.678-0.779-1-1.186v2.38H9.572v-4.479h2.98c-0.216-0.331-0.436-0.659-0.639-1H9.572v-4.479h2.247
			c0.199-0.34,0.411-0.67,0.623-1h-2.87v-4.479h4.479v2.21c0.322-0.407,0.658-0.799,1-1.186v-1.024h0.951
			c0.332-0.34,0.666-0.678,1.013-1h-1.964v-4.479h4.479v2.411c0.327-0.24,0.663-0.467,1-0.692v-1.719h2.941
			c0.825-0.416,1.672-0.788,2.538-1.122v-4.357h4.479v3.035c0.331-0.068,0.666-0.119,1-0.175v-2.86h4.479v2.459
			c0.085-0.001,0.168-0.009,0.254-0.009h0c0.25,0,0.497,0.02,0.746,0.026v-2.477h4.479v2.945c0.335,0.062,0.669,0.125,1,0.2v-3.145
			h4.479v4.479h-0.185c0.759,0.303,1.505,0.633,2.232,1H52.4V64.9c0.34,0.238,0.67,0.49,1,0.742v-2.785h4.479v4.479h-2.454
			c0.348,0.322,0.682,0.66,1.013,1h1.441v1.59c0.345,0.412,0.677,0.837,1,1.271v-2.862h4.479V72.815z M63.357,67.336h-4.479v-4.479
			h4.479V67.336z M63.357,61.858h-4.479v-4.479h4.479V61.858z M68.836,160.275h-4.479v-4.283h4.479V160.275z M68.836,154.993h-4.479
			v-4.479h4.479V154.993z M68.836,149.514h-4.479v-4.479h4.479V149.514z M68.836,144.036h-4.479v-4.479h4.479V144.036z
			 M68.836,138.557h-4.479v-4.479h4.479V138.557z M68.836,133.079h-4.479V128.6h4.479V133.079z M68.836,127.6h-4.479v-4.479h4.479
			V127.6z M68.836,122.122h-4.479v-4.479h4.479V122.122z M68.836,116.643h-4.479v-4.479h4.479V116.643z M68.836,111.165h-4.479
			v-4.479h4.479V111.165z M68.836,105.686h-4.479v-4.479h4.479V105.686z M68.836,100.208h-4.479v-4.479h4.479V100.208z
			 M68.836,94.729h-4.479V90.25h4.479V94.729z M68.836,89.25h-4.479v-4.479h4.479V89.25z M68.836,83.772h-4.479v-4.479h4.479V83.772
			z M68.836,78.293h-4.479v-4.479h4.479V78.293z M68.836,72.815h-4.479v-4.479h4.479V72.815z M68.836,67.336h-4.479v-4.479h4.479
			V67.336z M74.314,160.275h-4.479v-4.283h4.479V160.275z M74.314,154.993h-4.479v-4.479h4.479V154.993z M74.314,149.514h-4.479
			v-4.479h4.479V149.514z M74.314,144.036h-4.479v-4.479h4.479V144.036z M74.314,138.557h-4.479v-4.479h4.479V138.557z
			 M74.314,133.079h-4.479V128.6h4.479V133.079z M74.314,127.6h-4.479v-4.479h4.479V127.6z M74.314,122.122h-4.479v-4.479h4.479
			V122.122z M74.314,116.643h-4.479v-4.479h4.479V116.643z M74.314,111.165h-4.479v-4.479h4.479V111.165z M74.314,105.686h-4.479
			v-4.479h4.479V105.686z M74.314,100.208h-4.479v-4.479h4.479V100.208z M74.314,94.729h-4.479V90.25h4.479V94.729z M74.314,89.25
			h-4.479v-4.479h4.479V89.25z M74.314,83.772h-4.479v-4.479h4.479V83.772z M74.314,78.293h-4.479v-4.479h4.479V78.293z
			 M74.314,72.815h-4.479v-4.479h4.479V72.815z M69.836,67.336v-4.479h1.269c-0.381-0.322-0.753-0.656-1.119-1h-0.15v-0.136
			c-0.342-0.326-0.674-0.664-1-1.009v1.145h-4.479v-4.479h1.778c-0.23-0.331-0.461-0.662-0.676-1h-1.102v-1.883
			c-0.367-0.689-0.693-1.393-1-2.105v3.988h-4.479v-4.479h4.278c-0.136-0.333-0.277-0.663-0.4-1h-3.878v-4.479h2.667
			c-0.062-0.333-0.133-0.665-0.183-1h-2.484v-4.479h2.193c0.004-0.333,0.007-0.667,0.022-1h-2.216v-4.479h2.793
			c0.07-0.334,0.15-0.667,0.232-1h-3.026v-4.479h4.479v0.11l0.262-0.619l0.746-0.172c0.53-0.122,1.063-0.228,1.6-0.319h-1.608
			v-4.479h4.479v4.146c0.333-0.022,0.666-0.034,1-0.044v-4.101h4.479v4.31c0.334,0.042,0.668,0.084,1,0.138v-4.448h4.479v4.479
			h-4.299c1.376,0.233,2.725,0.571,4.041,1h0.258v0.08c0.337,0.113,0.668,0.24,1,0.366v-0.446h4.479v2.608
			c0.338,0.203,0.67,0.417,1,0.634v-3.242h4.479v4.479h-2.733c0.417,0.321,0.824,0.655,1.222,1h1.511v1.416
			c0.341,0.342,0.675,0.693,1,1.054v-2.469h4.479v4.479H93.4c0.246,0.329,0.479,0.664,0.709,1h2.12v3.655
			c0.366,0.756,0.705,1.521,1,2.302v-0.478h4.479v4.479h-3.292c0.072,0.332,0.125,0.667,0.184,1h3.108v4.479h-2.663
			c0.005,0.333-0.007,0.667-0.013,1h2.676v4.479h-3.116c-0.061,0.334-0.129,0.667-0.202,1h3.318v4.479h-4.479v-0.547
			c-0.144,0.385-0.28,0.771-0.441,1.152l-0.299,0.705l-0.26,0.06v4.109H91.75v-3.386c-0.333,0.028-0.666,0.056-1,0.072v3.314h-4.479
			v-3.446c-0.335-0.037-0.667-0.088-1-0.137v3.583h-4.479v-4.479h0.429c-0.95-0.285-1.883-0.618-2.795-1h-3.112v-1.537
			c-0.337-0.193-0.671-0.392-1-0.599v2.136H69.836z M97.229,72.815v-4.479h4.479v4.479H97.229z M101.707,73.815v4.479h-4.479v-4.479
			H101.707z M96.229,73.815v4.479H91.75v-4.479H96.229z M86.271,78.293v-4.479h4.479v4.479H86.271z M90.75,79.293v4.479h-4.479
			v-4.479H90.75z M80.793,83.772v-4.479h4.479v4.479H80.793z M85.271,84.772v4.479h-4.479v-4.479H85.271z M80.793,78.293v-4.479
			h4.479v4.479H80.793z M75.314,94.729V90.25h4.479v4.479H75.314z M79.793,95.729v4.479h-4.479v-4.479H79.793z M75.314,89.25v-4.479
			h4.479v4.479H75.314z M75.314,83.772v-4.479h4.479v4.479H75.314z M75.314,78.293v-4.479h4.479v4.479H75.314z M75.314,72.815
			v-4.479h4.479v4.479H75.314z M79.793,160.275h-4.479v-4.283h4.479V160.275z M79.793,154.993h-4.479v-4.479h4.479V154.993z
			 M79.793,149.514h-4.479v-4.479h4.479V149.514z M79.793,144.036h-4.479v-4.479h4.479V144.036z M79.793,138.557h-4.479v-4.479
			h4.479V138.557z M79.793,133.079h-4.479V128.6h4.479V133.079z M79.793,127.6h-4.479v-4.479h4.479V127.6z M79.793,122.122h-4.479
			v-4.479h4.479V122.122z M85.271,160.275h-4.479v-4.283h4.479V160.275z M85.271,154.993h-4.479v-4.479h4.479V154.993z
			 M85.271,149.514h-4.479v-4.479h4.479V149.514z M85.271,144.036h-4.479v-4.479h4.479V144.036z M85.271,138.557h-4.479v-4.479
			h4.479V138.557z M85.271,133.079h-4.479V128.6h4.479V133.079z M85.271,127.6h-4.479v-4.479h4.479V127.6z M80.793,122.122v-3.93
			l-0.084-0.027l-0.236-0.729c-0.271-0.838-0.488-1.683-0.68-2.53v1.737h-4.479v-4.479h3.996c-0.042-0.333-0.079-0.667-0.108-1
			h-3.887v-4.479h3.845c0.023-0.333,0.042-0.668,0.077-1h-3.921v-4.479h4.479v1.152c0.261-1.14,0.599-2.261,1-3.361v-3.269h1.438
			c0.173-0.335,0.344-0.671,0.531-1h-1.969V90.25h4.479v0.797c0.494-0.617,1.016-1.216,1.566-1.797h-0.566v-4.479h4.479v1.019
			c0.329-0.241,0.662-0.476,1-0.701v-0.317h0.501c0.554-0.352,1.116-0.689,1.691-1H91.75v-4.479h4.479v3.377
			c0.331-0.142,0.664-0.275,1-0.404v-2.973h4.479v1.665c0.331-0.067,0.666-0.123,1-0.178v-1.487h4.479v1.103
			c0.064,0,0.128-0.005,0.192-0.005c0.271,0,0.538,0.024,0.808,0.032v-1.129h4.479v1.613c0.334,0.063,0.668,0.123,1,0.198v-1.811
			h4.479v4.479h-0.745c0.094,0.333,0.196,0.666,0.278,1h0.467v2.383c0.461,2.945,0.457,5.907,0,8.789v4.264h-1.022
			c-0.109,0.336-0.229,0.668-0.352,1h1.374v4.479h-3.478c-0.196,0.336-0.395,0.671-0.604,1h4.082v4.479h-4.479v-3.883
			c-0.32,0.473-0.65,0.94-1,1.397v2.486h-2.154c-0.106,0.11-0.204,0.226-0.312,0.334c-0.229,0.229-0.464,0.446-0.699,0.666h3.165
			v4.479h-4.479v-3.315c-0.328,0.271-0.662,0.532-1,0.787v2.528h-4.021c-0.699,0.361-1.41,0.699-2.136,1h0.678v4.479h-4.479v-3.218
			c-0.331,0.084-0.665,0.158-1,0.23v2.988H91.75v-2.384c-0.332,0.018-0.666,0.025-1,0.031v2.353h-4.479v-2.626
			c-0.334-0.046-0.667-0.099-1-0.157v2.783H80.793z M113.664,116.643v-4.479h4.479v4.479H113.664z M118.143,117.643v4.479h-4.479
			v-4.479H118.143z M112.664,117.643v4.479h-4.479v-4.479H112.664z M107.186,117.643v4.479h-4.479v-4.479H107.186z M101.707,123.122
			v4.479h-4.479v-4.479H101.707z M96.229,123.122v4.479H91.75v-4.479H96.229z M86.271,133.079V128.6h4.479v4.479H86.271z
			 M90.75,134.079v4.479h-4.479v-4.479H90.75z M86.271,127.6v-4.479h4.479v4.479H86.271z M90.75,160.275h-4.479v-4.283h4.479
			V160.275z M90.75,154.993h-4.479v-4.479h4.479V154.993z M96.229,160.275H91.75v-4.283h4.479V160.275z M134.578,160.275H130.1
			v-4.283h4.479V160.275z M140.057,160.275h-4.479v-4.283h4.479V160.275z M140.057,154.993h-4.479v-4.479h4.479V154.993z
			 M140.057,138.557h-2.973c0.229,0.325,0.442,0.664,0.659,1h2.314v4.479h-1.197c-0.182,0.336-0.361,0.674-0.555,1h1.751v4.479
			h-4.479v-0.659c-0.485,0.576-0.993,1.127-1.519,1.659h0.519v4.479H130.1v-1.143c-0.329,0.228-0.662,0.447-1,0.661v0.482h-0.797
			c-0.609,0.357-1.232,0.689-1.867,1h2.664v4.283h-4.479v-3.474c-0.333,0.135-0.662,0.276-1,0.398v3.075h-4.479v-1.881
			c-0.333,0.061-0.664,0.125-1,0.174v1.707h-4.479v-1.408c-0.335-0.003-0.667-0.019-1-0.034v1.442h-4.479v-1.992
			c-0.337-0.07-0.667-0.159-1-0.24v2.232h-4.479v-3.727c-0.338-0.146-0.668-0.311-1-0.47v4.197h-4.479v-4.283h4.301
			c-0.635-0.311-1.258-0.643-1.867-1h-2.434v-1.601c-0.338-0.249-0.673-0.5-1-0.764v2.365H91.75v-4.479h2.155
			c-0.323-0.326-0.641-0.657-0.948-1H91.75v-1.436c-0.344-0.438-0.681-0.882-1-1.343v2.779h-4.479v-4.479h3.388
			c-0.194-0.326-0.373-0.664-0.555-1h-2.833v-4.479h3.951c0.48-0.745,0.986-1.467,1.527-2.156v-3.322h3.06
			c0.372-0.343,0.75-0.678,1.139-1H91.75V128.6h4.479v4.251c0.327-0.264,0.662-0.515,1-0.764V128.6h4.479v0.8
			c0.332-0.16,0.662-0.324,1-0.47v-0.33h0.829c0.973-0.385,1.966-0.724,2.983-1h-3.812v-4.479h4.479v4.314
			c0.333-0.082,0.663-0.17,1-0.24v-4.074h4.479v3.524c0.333-0.015,0.665-0.031,1-0.034v-3.49h4.479v3.788
			c0.336,0.05,0.667,0.114,1,0.175v-3.962h4.479v4.479h-2.175c1.084,0.294,2.142,0.658,3.175,1.077V128.6h4.479v2.368
			c0.338,0.213,0.672,0.433,1,0.661V128.6h4.479v4.479h-2.562c0.389,0.322,0.767,0.657,1.139,1h1.423v1.409
			c0.345,0.367,0.674,0.75,1,1.137v-2.545h4.479V138.557z M140.057,133.079h-4.479V128.6h4.479V133.079z M145.535,160.275h-4.479
			v-4.283h4.479V160.275z M145.535,154.993h-4.479v-4.479h4.479V154.993z M145.535,149.514h-4.479v-4.479h4.479V149.514z
			 M145.535,144.036h-4.479v-4.479h4.479V144.036z M145.535,138.557h-4.479v-4.479h4.479V138.557z M151.014,160.275h-4.479v-4.283
			h4.479V160.275z M151.014,154.993h-4.479v-4.479h4.479V154.993z M151.014,149.514h-4.479v-4.479h4.479V149.514z M151.014,144.036
			h-4.479v-4.479h4.479V144.036z M151.014,138.557h-4.479v-4.479h4.479V138.557z M156.492,160.275h-4.479v-4.283h4.479V160.275z
			 M156.492,154.993h-4.479v-4.479h4.479V154.993z M156.492,149.514h-4.479v-4.479h4.479V149.514z M156.492,144.036h-4.479v-4.479
			h4.479V144.036z M156.492,138.557h-4.479v-4.479h4.479V138.557z M161.971,160.275h-4.479v-4.283h4.479V160.275z M161.971,154.993
			h-4.479v-4.479h4.479V154.993z M161.971,149.514h-4.479v-4.479h4.479V149.514z M161.971,144.036h-4.479v-4.479h4.479V144.036z
			 M167.449,160.275h-4.479v-4.283h4.479V160.275z M167.449,154.993h-4.479v-4.479h4.479V154.993z M167.449,149.514h-4.479v-4.479
			h4.479V149.514z M167.449,144.036h-4.479v-4.479h4.479V144.036z M172.928,160.275h-4.479v-4.283h4.479V160.275z M172.928,154.993
			h-4.479v-4.479h4.479V154.993z M172.928,149.514h-4.479v-4.479h4.479V149.514z M172.928,144.036h-4.479v-4.479h4.479V144.036z
			 M172.928,138.557h-4.479v-4.479h4.479V138.557z M178.406,160.275h-4.479v-4.283h4.479V160.275z M178.406,154.993h-4.479v-4.479
			h4.479V154.993z M178.406,149.514h-4.479v-4.479h4.479V149.514z M178.406,144.036h-4.479v-4.479h4.479V144.036z M178.406,138.557
			h-4.479v-4.479h4.479V138.557z M178.406,116.643h-3.794c0.122,0.332,0.24,0.664,0.349,1h3.445v4.479h-2.392
			c0.05,0.332,0.092,0.666,0.131,1h2.261v4.479h-2.091c-0.015,0.333-0.051,0.667-0.077,1h2.168v4.479h-4.479v-1.608
			c-0.329,0.162-0.665,0.307-1,0.456v1.152h-3.051c-1.432,0.448-2.898,0.783-4.384,1h1.957v4.479h-4.479v-4.221
			c-0.333,0.019-0.667,0.026-1,0.033v4.188h-4.479v-4.448c-1.546-0.216-3.066-0.563-4.552-1.031h-0.927v-0.316
			c-0.335-0.118-0.669-0.237-1-0.369v0.685h-4.479v-2.948c-0.227-0.141-0.459-0.268-0.682-0.415
			c-0.109-0.072-0.21-0.152-0.318-0.226v3.589h-4.479V128.6h3.226c-0.422-0.321-0.827-0.659-1.228-1h-1.998v-1.871
			c-0.342-0.354-0.678-0.712-1-1.082v2.952h-4.479v-4.479h3.238c-0.247-0.326-0.475-0.664-0.707-1h-2.532v-4.479h0.013
			c-0.381-0.852-0.718-1.722-1.013-2.609v1.609H130.1v-4.479h3.691c-0.072-0.332-0.141-0.665-0.201-1h-3.49v-4.479h3.041
			c-0.006-0.332,0.002-0.667,0.007-1H130.1v-4.479h4.479v0.311c0.895-0.483,1.809-0.928,2.748-1.311h-1.748v-4.479h4.479v3.537
			c0.333-0.098,0.664-0.197,1-0.282v-3.254h4.479v2.494c0.333-0.03,0.666-0.06,1-0.078v-2.416h4.479v2.537
			c0.334,0.035,0.668,0.063,1,0.11v-2.647h4.479v3.661c0.336,0.105,0.668,0.223,1,0.341v-4.001h4.479v4.479h-3.229
			c0.735,0.301,1.458,0.636,2.169,1h1.061v0.556c0.339,0.192,0.668,0.402,1,0.608v-1.164h4.479v4.479h-0.133
			c0.388,0.359,0.768,0.725,1.133,1.103v-0.103h4.479v4.479h-1.02c0.21,0.328,0.405,0.664,0.601,1h0.419v0.732
			c0.363,0.669,0.692,1.355,1,2.051v-2.784h4.479V116.643z M178.406,111.165h-4.479v-4.479h4.479V111.165z M178.406,105.686h-4.479
			v-4.479h4.479V105.686z M178.406,100.208h-4.479v-4.479h4.479V100.208z M178.406,94.729h-4.479V90.25h4.479V94.729z
			 M178.406,89.25h-4.479v-4.479h4.479V89.25z M178.406,83.772h-4.479v-4.479h4.479V83.772z M178.406,78.293h-4.479v-4.479h4.479
			V78.293z M178.406,72.815h-4.479v-4.479h4.479V72.815z M178.406,67.336h-4.479v-4.479h4.479V67.336z M178.406,61.858h-4.479
			v-4.479h4.479V61.858z M183.885,160.275h-4.479v-4.283h4.479V160.275z M183.885,154.993h-4.479v-4.479h4.479V154.993z
			 M183.885,149.514h-4.479v-4.479h4.479V149.514z M183.885,144.036h-4.479v-4.479h4.479V144.036z M183.885,138.557h-4.479v-4.479
			h4.479V138.557z M183.885,133.079h-4.479V128.6h4.479V133.079z M183.885,127.6h-4.479v-4.479h4.479V127.6z M183.885,122.122
			h-4.479v-4.479h4.479V122.122z M183.885,116.643h-4.479v-4.479h4.479V116.643z M183.885,111.165h-4.479v-4.479h4.479V111.165z
			 M189.363,160.275h-4.479v-4.283h4.479V160.275z M189.363,154.993h-4.479v-4.479h4.479V154.993z M189.363,149.514h-4.479v-4.479
			h4.479V149.514z M189.363,144.036h-4.479v-4.479h4.479V144.036z M189.363,138.557h-4.479v-4.479h4.479V138.557z M189.363,133.079
			h-4.479V128.6h4.479V133.079z M189.363,127.6h-4.479v-4.479h4.479V127.6z M189.363,122.122h-4.479v-4.479h4.479V122.122z
			 M189.363,116.643h-4.479v-4.479h4.479V116.643z M194.842,160.275h-4.479v-4.283h4.479V160.275z M194.842,154.993h-4.479v-4.479
			h4.479V154.993z M194.842,149.514h-4.479v-4.479h4.479V149.514z M194.842,144.036h-4.479v-4.479h4.479V144.036z M194.842,138.557
			h-4.479v-4.479h4.479V138.557z M194.842,133.079h-4.479V128.6h4.479V133.079z M194.842,127.6h-4.479v-4.479h4.479V127.6z
			 M194.842,122.122h-4.479v-4.479h4.479V122.122z M200.32,160.275h-4.479v-4.283h4.479V160.275z M200.32,154.993h-4.479v-4.479
			h4.479V154.993z M200.32,149.514h-4.479v-4.479h4.479V149.514z M200.32,144.036h-4.479v-4.479h4.479V144.036z M200.32,138.557
			h-4.479v-4.479h4.479V138.557z M200.32,133.079h-4.479V128.6h4.479V133.079z M200.32,127.6h-4.479v-4.479h4.479V127.6z
			 M200.32,122.122h-4.479v-4.479h4.479V122.122z M205.799,160.275h-4.479v-4.283h4.479V160.275z M205.799,154.993h-4.479v-4.479
			h4.479V154.993z M205.799,149.514h-4.479v-4.479h4.479V149.514z M205.799,144.036h-4.479v-4.479h4.479V144.036z M205.799,138.557
			h-4.479v-4.479h4.479V138.557z M205.799,133.079h-4.479V128.6h4.479V133.079z M205.799,127.6h-4.479v-4.479h4.479V127.6z
			 M205.799,122.122h-4.479v-4.479h4.479V122.122z M211.054,160.275h-4.255v-4.283h4.255V160.275z M211.054,154.993h-4.255v-4.479
			h4.255V154.993z M211.054,149.514h-4.255v-4.479h4.255V149.514z M211.054,144.036h-4.255v-4.479h4.255V144.036z M211.054,138.557
			h-4.255v-4.479h4.255V138.557z M211.054,133.079h-4.255V128.6h4.255V133.079z M211.054,127.6h-4.255v-4.479h4.255V127.6z
			 M211.054,122.122h-4.255v-4.479h4.255V122.122z M216.421,160.275h-4.367v-4.283h4.367V160.275z M216.421,154.993h-4.367v-4.479
			h4.367V154.993z M216.421,149.514h-4.367v-4.479h4.367V149.514z M216.421,144.036h-4.367v-4.479h4.367V144.036z M216.421,138.557
			h-4.367v-4.479h4.367V138.557z M216.421,133.079h-4.367V128.6h4.367V133.079z M216.421,127.6h-4.367v-4.479h4.367V127.6z
			 M216.421,122.122h-4.367v-4.479h4.367V122.122z M221.788,160.275h-4.367v-4.283h4.367V160.275z M221.788,154.993h-4.367v-4.479
			h4.367V154.993z M221.788,149.514h-4.367v-4.479h4.367V149.514z M221.788,144.036h-4.367v-4.479h4.367V144.036z M221.788,138.557
			h-4.367v-4.479h4.367V138.557z M221.788,133.079h-4.367V128.6h4.367V133.079z M221.788,127.6h-4.367v-4.479h4.367V127.6z
			 M221.788,122.122h-4.367v-4.479h4.367V122.122z M222.286,111.397l-0.084,0.761l-0.414,0.235v4.25h-4.367v-2.208
			c-0.332,0.124-0.663,0.252-1,0.363v1.845h-4.367v-0.791c-0.333,0.054-0.665,0.113-1,0.155v0.636h-4.255v-0.437
			c-0.334-0.008-0.668-0.016-1-0.037v0.473h-4.479v-1.101c-0.336-0.076-0.667-0.173-1-0.261v1.362h-4.479v-2.952
			c-0.337-0.154-0.668-0.323-1-0.49v3.441h-4.479v-4.479h2.603c-0.332-0.2-0.667-0.39-0.992-0.604
			c-0.191-0.126-0.37-0.266-0.559-0.396h-1.052v-0.747c-0.344-0.263-0.67-0.542-1-0.818v1.565h-4.479v-4.479h1.471
			c-0.29-0.326-0.567-0.662-0.84-1h-0.63v-0.783c-0.35-0.466-0.681-0.946-1-1.431v2.214h-4.479v-4.479h3.144
			c-0.175-0.331-0.348-0.663-0.511-1h-2.633v-4.479h0.939c-0.095-0.332-0.191-0.664-0.274-1h-0.666v-3.831
			c-0.199-1.923-0.202-3.886,0-5.863v-0.263h0.021l0.084-0.756l0.43-0.244h-0.535v-4.479h4.479v2.595
			c0.331-0.129,0.664-0.253,1-0.37v-2.226h4.479v1.076c0.333-0.058,0.665-0.117,1-0.163v-0.913h4.479v0.67
			c0.334,0.008,0.667,0.017,1,0.037v-0.707h4.479v1.318c0.336,0.075,0.667,0.174,1,0.261v-1.58h4.479v3.157
			c0.337,0.152,0.668,0.317,1,0.483v-3.641h4.255v4.479h-2.695c0.464,0.27,0.928,0.542,1.379,0.839
			c0.078,0.051,0.149,0.109,0.226,0.161h1.089v0.773c0.342,0.254,0.672,0.519,1,0.786v-1.559h4.367v4.479h-1.282
			c0.298,0.328,0.588,0.66,0.869,1h0.414v0.514c0.348,0.442,0.681,0.894,1,1.354V90.25h4.367v4.479h-2.747
			c0.179,0.329,0.346,0.664,0.511,1h2.236v4.479h-0.486c0.098,0.332,0.188,0.665,0.274,1h0.212v0.893
			C222.449,105.096,222.639,108.229,222.286,111.397z M183.885,68.336v4.479h-4.479v-4.479H183.885z M179.406,67.336v-4.479h4.479
			v4.479H179.406z M183.885,73.815v4.479h-4.479v-4.479H183.885z M189.363,73.815v4.479h-4.479v-4.479H189.363z M184.885,72.815
			v-4.479h4.479v4.479H184.885z M194.842,73.815v4.479h-4.479v-4.479H194.842z M190.363,72.815v-4.479h4.479v4.479H190.363z
			 M200.32,73.815v4.479h-4.479v-4.479H200.32z M195.842,72.815v-4.479h4.479v4.479H195.842z M205.799,73.815v4.479h-4.479v-4.479
			H205.799z M201.32,72.815v-4.479h4.479v4.479H201.32z M211.054,73.815v4.479h-4.255v-4.479H211.054z M206.799,72.815v-4.479h4.255
			v4.479H206.799z M216.421,68.336v4.479h-4.367v-4.479H216.421z M212.054,67.336v-4.479h4.367v4.479H212.054z M216.421,73.815
			v4.479h-4.367v-4.479H216.421z M216.421,79.293v4.479h-4.367v-4.479H216.421z M221.788,68.336v4.479h-4.367v-4.479H221.788z
			 M217.421,67.336v-4.479h4.367v4.479H217.421z M221.788,73.815v4.479h-4.367v-4.479H221.788z M221.788,79.293v4.479h-4.367v-4.479
			H221.788z M221.788,84.772v4.479h-4.367v-4.479H221.788z M227.155,160.275h-4.367v-4.283h4.367V160.275z M227.155,154.993h-4.367
			v-4.479h4.367V154.993z M227.155,149.514h-4.367v-4.479h4.367V149.514z M227.155,144.036h-4.367v-4.479h4.367V144.036z
			 M227.155,138.557h-4.367v-4.479h4.367V138.557z M227.155,133.079h-4.367V128.6h4.367V133.079z M227.155,127.6h-4.367v-4.479
			h4.367V127.6z M227.155,122.122h-4.367v-4.479h4.367V122.122z M227.155,116.643h-4.367v-4.479h4.367V116.643z M227.155,111.165
			h-4.367v-4.479h4.367V111.165z M227.155,105.686h-4.367v-4.479h4.367V105.686z M227.155,100.208h-4.367v-4.479h4.367V100.208z
			 M227.155,94.729h-4.367V90.25h4.367V94.729z M227.155,89.25h-4.367v-4.479h4.367V89.25z M227.155,83.772h-4.367v-4.479h4.367
			V83.772z M227.155,78.293h-4.367v-4.479h4.367V78.293z M227.155,72.815h-4.367v-4.479h4.367V72.815z M227.155,67.336h-4.367
			v-4.479h4.367V67.336z M227.155,61.858h-4.367v-4.479h4.367V61.858z M227.155,56.379h-4.367v-4.479h4.367V56.379z M227.155,50.901
			h-4.074c-0.407,0.696-0.834,1.375-1.293,2.027v3.452h-2.876c-0.331,0.34-0.662,0.678-1.008,1h3.884v4.479h-4.367v-4.055
			c-0.329,0.292-0.658,0.584-1,0.86v3.195h-4.367v-0.299c-0.904,0.485-1.838,0.915-2.793,1.299h1.793v4.479h-4.255v-3.611
			c-0.331,0.099-0.665,0.188-1,0.274v3.337h-4.479V64.78c-0.333,0.031-0.665,0.062-1,0.081v2.475h-4.479v-2.573
			c-0.334-0.033-0.669-0.06-1-0.104v2.677h-4.479v-3.663c-0.335-0.103-0.67-0.207-1-0.321v3.983h-4.479v-4.479h3.176
			c-0.754-0.304-1.496-0.633-2.219-1h-0.957v-0.516c-0.335-0.187-0.673-0.367-1-0.567v1.083h-4.479v-4.479h0.012
			c-0.347-0.323-0.68-0.663-1.012-1.004v0.004h-4.479v-4.479h0.934c-0.211-0.33-0.421-0.66-0.62-1h-0.313v-0.566
			c-0.161-0.291-0.332-0.574-0.484-0.873l-0.348-0.682l0.348-0.682c0.152-0.298,0.323-0.582,0.484-0.873v-0.803h0.445
			c0.204-0.342,0.425-0.669,0.642-1h-1.087v-4.479h4.479v0.241c0.416-0.427,0.842-0.842,1.282-1.241h-0.282v-4.479h4.479v1.32
			c0.327-0.2,0.665-0.38,1-0.567v-0.753h1.451c0.757-0.366,1.529-0.703,2.319-1h-3.771v-4.479h4.479v4.22
			c0.33-0.114,0.665-0.218,1-0.321v-3.899h4.479V32.9c0.331-0.044,0.666-0.071,1-0.104v-2.809h4.479v2.711
			c0.335,0.02,0.667,0.05,1,0.081v-2.792h4.479v3.574c0.335,0.087,0.669,0.176,1,0.274v-3.848h4.255v4.479h-2.387
			c0.791,0.297,1.562,0.634,2.32,1h0.067v0.032c0.336,0.164,0.671,0.327,1,0.503v-0.536h4.367v3.431c0.342,0.276,0.671,0.568,1,0.86
			v-4.292h4.367v4.479h-4.154c0.356,0.323,0.702,0.658,1.042,1h3.111v3.688c0.407,0.579,0.794,1.176,1.161,1.79h4.206V50.901z
			 M227.155,45.422h-4.367v-4.479h4.367V45.422z M227.155,39.944h-4.367v-4.479h4.367V39.944z M227.155,34.465h-4.367v-4.479h4.367
			V34.465z M227.155,28.987h-4.367v-4.479h4.367V28.987z M227.155,23.508h-4.367V19.03h4.367V23.508z M227.155,18.03h-4.367v-4.479
			h4.367V18.03z M227.155,12.551h-4.367V8.073h4.367V12.551z M227.155,7.073h-4.367V3.287h4.367V7.073z M232.522,160.275h-4.367
			v-4.283h4.367V160.275z M232.522,154.993h-4.367v-4.479h4.367V154.993z M232.522,149.514h-4.367v-4.479h4.367V149.514z
			 M232.522,144.036h-4.367v-4.479h4.367V144.036z M232.522,138.557h-4.367v-4.479h4.367V138.557z M232.522,133.079h-4.367V128.6
			h4.367V133.079z M232.522,127.6h-4.367v-4.479h4.367V127.6z M232.522,122.122h-4.367v-4.479h4.367V122.122z M232.522,116.643
			h-4.367v-4.479h4.367V116.643z M232.522,111.165h-4.367v-4.479h4.367V111.165z M232.522,105.686h-4.367v-4.479h4.367V105.686z
			 M232.522,100.208h-4.367v-4.479h4.367V100.208z M232.522,94.729h-4.367V90.25h4.367V94.729z M232.522,89.25h-4.367v-4.479h4.367
			V89.25z M232.522,83.772h-4.367v-4.479h4.367V83.772z M232.522,78.293h-4.367v-4.479h4.367V78.293z M232.522,72.815h-4.367v-4.479
			h4.367V72.815z M232.522,67.336h-4.367v-4.479h4.367V67.336z M232.522,61.858h-4.367v-4.479h4.367V61.858z M232.522,56.379h-4.367
			v-4.479h4.367V56.379z M232.522,50.901h-4.367v-4.479h4.367V50.901z M232.522,45.422h-4.367v-4.479h4.367V45.422z M232.522,39.944
			h-4.367v-4.479h4.367V39.944z M232.522,34.465h-4.367v-4.479h4.367V34.465z M232.522,28.987h-4.367v-4.479h4.367V28.987z
			 M232.522,23.508h-4.367V19.03h4.367V23.508z M232.522,18.03h-4.367v-4.479h4.367V18.03z M232.522,12.551h-4.367V8.073h4.367
			V12.551z M232.522,7.073h-4.367V3.287h4.367V7.073z M237.889,160.275h-4.367v-4.283h4.367V160.275z M237.889,154.993h-4.367
			v-4.479h4.367V154.993z M237.889,149.514h-4.367v-4.479h4.367V149.514z M237.889,144.036h-4.367v-4.479h4.367V144.036z
			 M237.889,138.557h-4.367v-4.479h4.367V138.557z M237.889,133.079h-4.367V128.6h4.367V133.079z M237.889,127.6h-4.367v-4.479
			h4.367V127.6z M237.889,122.122h-4.367v-4.479h4.367V122.122z M237.889,116.643h-4.367v-4.479h4.367V116.643z M237.889,111.165
			h-4.367v-4.479h4.367V111.165z M237.889,105.686h-4.367v-4.479h4.367V105.686z M237.889,100.208h-4.367v-4.479h4.367V100.208z
			 M237.889,94.729h-4.367V90.25h4.367V94.729z M237.889,89.25h-4.367v-4.479h4.367V89.25z M237.889,83.772h-4.367v-4.479h4.367
			V83.772z M237.889,78.293h-4.367v-4.479h4.367V78.293z M237.889,72.815h-4.367v-4.479h4.367V72.815z M237.889,67.336h-4.367
			v-4.479h4.367V67.336z M237.889,61.858h-4.367v-4.479h4.367V61.858z M237.889,56.379h-4.367v-4.479h4.367V56.379z M237.889,50.901
			h-4.367v-4.479h4.367V50.901z M237.889,45.422h-4.367v-4.479h4.367V45.422z M237.889,39.944h-4.367v-4.479h4.367V39.944z
			 M237.889,34.465h-4.367v-4.479h4.367V34.465z M237.889,28.987h-4.367v-4.479h4.367V28.987z M237.889,23.508h-4.367V19.03h4.367
			V23.508z M237.889,18.03h-4.367v-4.479h4.367V18.03z M237.889,12.551h-4.367V8.073h4.367V12.551z M237.889,7.073h-4.367V3.287
			h4.367V7.073z M242.483,160.275h-3.595v-4.283h3.595V160.275z M242.483,154.993h-3.595v-4.479h3.595V154.993z M242.483,149.514
			h-3.595v-4.479h3.595V149.514z M242.483,144.036h-3.595v-4.479h3.595V144.036z M242.483,138.557h-3.595v-4.479h3.595V138.557z
			 M242.483,133.079h-3.595V128.6h3.595V133.079z M242.483,127.6h-3.595v-4.479h3.595V127.6z M242.483,122.122h-3.595v-4.479h3.595
			V122.122z M242.483,116.643h-3.595v-4.479h3.595V116.643z M242.483,111.165h-3.595v-4.479h3.595V111.165z M242.483,105.686h-3.595
			v-4.479h3.595V105.686z M242.483,100.208h-3.595v-4.479h3.595V100.208z M242.483,94.729h-3.595V90.25h3.595V94.729z
			 M242.483,89.25h-3.595v-4.479h3.595V89.25z M242.483,83.772h-3.595v-4.479h3.595V83.772z M242.483,78.293h-3.595v-4.479h3.595
			V78.293z M242.483,72.815h-3.595v-4.479h3.595V72.815z M242.483,67.336h-3.595v-4.479h3.595V67.336z M242.483,61.858h-3.595
			v-4.479h3.595V61.858z M242.483,56.379h-3.595v-4.479h3.595V56.379z M242.483,50.901h-3.595v-4.479h3.595V50.901z M242.483,45.422
			h-3.595v-4.479h3.595V45.422z M242.483,39.944h-3.595v-4.479h3.595V39.944z M242.483,34.465h-3.595v-4.479h3.595V34.465z
			 M242.483,28.987h-3.595v-4.479h3.595V28.987z M242.483,23.508h-3.595V19.03h3.595V23.508z M242.483,18.03h-3.595v-4.479h3.595
			V18.03z M242.483,12.551h-3.595V8.073h3.595V12.551z M242.483,7.073h-3.595V3.287h3.595V7.073z"/>
	</g>
</g>
</svg>
