<?xml version="1.0" encoding="utf-8"?>
<!DOCTYPE svg PUBLIC "-//W3C//DTD SVG 1.1//EN" "http://www.w3.org/Graphics/SVG/1.1/DTD/svg11.dtd">
<svg version="1.1" xmlns="http://www.w3.org/2000/svg" xmlns:xlink="http://www.w3.org/1999/xlink" x="0px" y="0px" width="483px"
	 height="390px" viewBox="0 0 483 390" enable-background="new 0 0 483 390" xml:space="preserve">
<g>
	<g>
		<g>
			<g>
				<line fill="none" stroke="#000000" stroke-miterlimit="10" x1="443.1" y1="244.6" x2="443.1" y2="246.1"/>
				
					<line fill="none" stroke="#000000" stroke-miterlimit="10" stroke-dasharray="3.0088,2.0058" x1="443.1" y1="248.1" x2="443.1" y2="377.5"/>
				<line fill="none" stroke="#000000" stroke-miterlimit="10" x1="443.1" y1="378.5" x2="443.1" y2="380"/>
			</g>
		</g>
		<g>
			<g>
				<line fill="none" stroke="#000000" stroke-miterlimit="10" x1="225.6" y1="165.5" x2="225.6" y2="167"/>
				
					<line fill="none" stroke="#000000" stroke-miterlimit="10" stroke-dasharray="2.9825,1.9884" x1="225.6" y1="169" x2="225.6" y2="376.8"/>
				<line fill="none" stroke="#000000" stroke-miterlimit="10" x1="225.6" y1="377.7" x2="225.6" y2="379.2"/>
			</g>
		</g>
		<g>
			<g>
				<line fill="none" stroke="#000000" stroke-miterlimit="10" x1="67.7" y1="25.7" x2="67.7" y2="27.2"/>
				
					<line fill="none" stroke="#000000" stroke-miterlimit="10" stroke-dasharray="2.9876,1.9918" x1="67.7" y1="29.2" x2="67.7" y2="376.7"/>
				<line fill="none" stroke="#000000" stroke-miterlimit="10" x1="67.7" y1="377.7" x2="67.7" y2="379.2"/>
			</g>
		</g>
		<g>
			<g>
				<line fill="none" stroke="#000000" stroke-miterlimit="10" x1="227.8" y1="163.8" x2="226.3" y2="163.8"/>
				
					<line fill="none" stroke="#000000" stroke-miterlimit="10" stroke-dasharray="2.9992,1.9994" x1="224.3" y1="163.8" x2="10.4" y2="163.8"/>
				<line fill="none" stroke="#000000" stroke-miterlimit="10" x1="9.4" y1="163.8" x2="7.9" y2="163.8"/>
			</g>
		</g>
		<g>
			<g>
				<line fill="none" stroke="#000000" stroke-miterlimit="10" x1="441.5" y1="242.9" x2="440" y2="242.9"/>
				
					<line fill="none" stroke="#000000" stroke-miterlimit="10" stroke-dasharray="2.9901,1.9934" x1="438" y1="242.9" x2="10.4" y2="242.9"/>
				<line fill="none" stroke="#000000" stroke-miterlimit="10" x1="9.4" y1="242.9" x2="7.9" y2="242.9"/>
			</g>
		</g>
		<g>
			<g>
				<line fill="none" stroke="#000000" stroke-miterlimit="10" x1="67.7" y1="24.6" x2="66.2" y2="24.6"/>
				
					<line fill="none" stroke="#000000" stroke-miterlimit="10" stroke-dasharray="3.018,2.012" x1="64.2" y1="24.6" x2="9.9" y2="24.6"/>
				<line fill="none" stroke="#000000" stroke-miterlimit="10" x1="8.9" y1="24.6" x2="7.4" y2="24.6"/>
			</g>
		</g>
	</g>
</g>
</svg>
