<?xml version="1.0" encoding="utf-8"?>
<!DOCTYPE svg PUBLIC "-//W3C//DTD SVG 1.1//EN" "http://www.w3.org/Graphics/SVG/1.1/DTD/svg11.dtd">
<svg version="1.1" id="Calque_1" xmlns="http://www.w3.org/2000/svg" xmlns:xlink="http://www.w3.org/1999/xlink" x="0px" y="0px"
	 width="111px" height="346px" viewBox="0 0 111 346" enable-background="new 0 0 111 346" xml:space="preserve">
<g>
	<path d="M-0.2-0.5l11.4,18.2L-0.2,35.9h98.6V-0.5H-0.2z"/>
	<path d="M-0.2,41.5l11.4,18.2L-0.2,77.9h98.6V41.5H-0.2z"/>
	<circle cx="104.7" cy="338.6" r="6.1"/>
	<line fill="none" stroke="#000000" stroke-width="3" stroke-miterlimit="10" x1="104.7" y1="337.9" x2="104.7" y2="-0.5"/>
	<path fill="#FFFFFF" d="M27.7,17.7c0.1,0.4,0.2,0.7,0.3,0.9c0.3,0.4,0.8,0.5,1.5,0.5c0.4,0,0.8,0,1.1-0.1c0.5-0.2,0.8-0.5,0.8-1
		c0-0.3-0.1-0.5-0.4-0.7c-0.3-0.2-0.7-0.3-1.2-0.4l-0.9-0.2C28,16.5,27.3,16.2,27,16c-0.6-0.4-0.9-1-0.9-1.9c0-0.8,0.3-1.4,0.9-1.9
		c0.6-0.5,1.4-0.8,2.5-0.8c0.9,0,1.7,0.2,2.4,0.7s1,1.2,1,2.1h-1.7c0-0.5-0.3-0.9-0.7-1.1c-0.3-0.1-0.6-0.2-1.1-0.2
		c-0.5,0-0.9,0.1-1.1,0.3s-0.4,0.4-0.4,0.8c0,0.3,0.1,0.5,0.4,0.7c0.2,0.1,0.6,0.2,1.1,0.4l1.5,0.4c0.7,0.2,1.2,0.4,1.5,0.6
		c0.5,0.4,0.8,1,0.8,1.8c0,0.8-0.3,1.4-0.9,2s-1.5,0.8-2.6,0.8c-1.1,0-2-0.3-2.7-0.8c-0.7-0.5-1-1.2-1-2.1H27.7z"/>
	<path fill="#FFFFFF" d="M39.1,14c0.3,0.1,0.6,0.3,0.8,0.6c0.2,0.2,0.3,0.5,0.3,0.7s0.1,0.7,0.1,1.2v3.8h-1.7v-3.9
		c0-0.3-0.1-0.6-0.2-0.8c-0.2-0.3-0.4-0.4-0.9-0.4c-0.4,0-0.8,0.1-1,0.4c-0.2,0.3-0.3,0.7-0.3,1.3v3.5h-1.7v-8.6h1.7v3
		c0.2-0.4,0.5-0.6,0.8-0.8c0.3-0.1,0.7-0.2,1-0.2C38.4,13.8,38.8,13.8,39.1,14z"/>
	<path fill="#FFFFFF" d="M44.6,16.4c0.3,0,0.5-0.1,0.7-0.1c0.2-0.1,0.4-0.3,0.4-0.5c0-0.3-0.1-0.4-0.3-0.5c-0.2-0.1-0.5-0.1-0.8-0.1
		c-0.4,0-0.7,0.1-0.8,0.3c-0.1,0.1-0.2,0.3-0.2,0.6h-1.6c0-0.6,0.2-1,0.5-1.4c0.4-0.6,1.2-0.8,2.3-0.8c0.7,0,1.3,0.1,1.9,0.4
		c0.5,0.3,0.8,0.8,0.8,1.6v2.9c0,0.2,0,0.4,0,0.7c0,0.2,0,0.4,0.1,0.4s0.1,0.1,0.2,0.2v0.2h-1.8c-0.1-0.1-0.1-0.2-0.1-0.4
		s0-0.2,0-0.4c-0.2,0.2-0.5,0.5-0.8,0.6c-0.4,0.2-0.8,0.3-1.2,0.3c-0.6,0-1.1-0.2-1.4-0.5c-0.4-0.3-0.6-0.8-0.6-1.4
		c0-0.8,0.3-1.4,0.9-1.7c0.3-0.2,0.8-0.3,1.5-0.4L44.6,16.4z M45.6,17.2c-0.1,0.1-0.2,0.1-0.3,0.2c-0.1,0-0.3,0.1-0.4,0.1l-0.4,0.1
		c-0.4,0.1-0.6,0.1-0.8,0.2c-0.3,0.2-0.4,0.4-0.4,0.7c0,0.3,0.1,0.5,0.2,0.6c0.2,0.1,0.4,0.2,0.6,0.2c0.4,0,0.7-0.1,1-0.3
		c0.3-0.2,0.5-0.6,0.5-1.2V17.2z"/>
	<path fill="#FFFFFF" d="M54.1,14.3c0.4,0.3,0.6,0.9,0.6,1.7v4.3h-1.7v-3.9c0-0.3,0-0.6-0.1-0.8c-0.2-0.3-0.5-0.5-0.9-0.5
		c-0.6,0-0.9,0.2-1.2,0.7c-0.1,0.3-0.2,0.6-0.2,1v3.5H49v-6.4h1.6v0.9c0.2-0.3,0.4-0.6,0.6-0.7c0.3-0.3,0.8-0.4,1.3-0.4
		C53.2,13.8,53.7,14,54.1,14.3z"/>
	<path fill="#FFFFFF" d="M59.7,13.9c0.4,0.2,0.7,0.5,1,0.9v-0.9h1.6V20c0,0.8-0.1,1.4-0.4,1.9c-0.5,0.7-1.4,1.1-2.7,1.1
		c-0.8,0-1.5-0.2-2-0.5s-0.8-0.8-0.9-1.4h1.8c0,0.2,0.1,0.3,0.2,0.4c0.2,0.2,0.5,0.2,0.9,0.2c0.6,0,1-0.2,1.2-0.6
		c0.1-0.3,0.2-0.7,0.2-1.3v-0.4c-0.2,0.3-0.3,0.5-0.5,0.6c-0.3,0.3-0.8,0.4-1.3,0.4c-0.8,0-1.5-0.3-2-0.9s-0.7-1.4-0.7-2.3
		c0-0.9,0.2-1.7,0.7-2.4s1.1-1,2-1C59.2,13.8,59.5,13.8,59.7,13.9z M60.3,18.5c0.3-0.3,0.4-0.8,0.4-1.4c0-0.6-0.1-1.1-0.4-1.4
		s-0.6-0.5-1-0.5c-0.6,0-1,0.3-1.2,0.8c-0.1,0.3-0.2,0.7-0.2,1.1c0,0.4,0.1,0.7,0.2,1c0.2,0.5,0.6,0.8,1.2,0.8
		C59.7,19,60,18.8,60.3,18.5z"/>
	<path fill="#FFFFFF" d="M68.7,14c0.3,0.1,0.6,0.3,0.8,0.6c0.2,0.2,0.3,0.5,0.3,0.7s0.1,0.7,0.1,1.2v3.8h-1.7v-3.9
		c0-0.3-0.1-0.6-0.2-0.8c-0.2-0.3-0.4-0.4-0.9-0.4c-0.4,0-0.8,0.1-1,0.4c-0.2,0.3-0.3,0.7-0.3,1.3v3.5h-1.7v-8.6h1.7v3
		c0.2-0.4,0.5-0.6,0.8-0.8c0.3-0.1,0.7-0.2,1-0.2C68,13.8,68.4,13.8,68.7,14z"/>
	<path fill="#FFFFFF" d="M74.2,16.4c0.3,0,0.5-0.1,0.7-0.1c0.2-0.1,0.4-0.3,0.4-0.5c0-0.3-0.1-0.4-0.3-0.5c-0.2-0.1-0.5-0.1-0.8-0.1
		c-0.4,0-0.7,0.1-0.8,0.3c-0.1,0.1-0.2,0.3-0.2,0.6h-1.6c0-0.6,0.2-1,0.5-1.4c0.4-0.6,1.2-0.8,2.3-0.8c0.7,0,1.3,0.1,1.9,0.4
		c0.5,0.3,0.8,0.8,0.8,1.6v2.9c0,0.2,0,0.4,0,0.7c0,0.2,0,0.4,0.1,0.4s0.1,0.1,0.2,0.2v0.2h-1.8c-0.1-0.1-0.1-0.2-0.1-0.4
		s0-0.2,0-0.4c-0.2,0.2-0.5,0.5-0.8,0.6c-0.4,0.2-0.8,0.3-1.2,0.3c-0.6,0-1.1-0.2-1.4-0.5c-0.4-0.3-0.6-0.8-0.6-1.4
		c0-0.8,0.3-1.4,0.9-1.7c0.3-0.2,0.8-0.3,1.5-0.4L74.2,16.4z M75.3,17.2c-0.1,0.1-0.2,0.1-0.3,0.2c-0.1,0-0.3,0.1-0.4,0.1l-0.4,0.1
		c-0.4,0.1-0.6,0.1-0.8,0.2c-0.3,0.2-0.4,0.4-0.4,0.7c0,0.3,0.1,0.5,0.2,0.6c0.2,0.1,0.4,0.2,0.6,0.2c0.4,0,0.7-0.1,1-0.3
		c0.3-0.2,0.5-0.6,0.5-1.2V17.2z"/>
	<path fill="#FFFFFF" d="M80.3,13.2h-1.7v-1.5h1.7V13.2z M78.6,13.9h1.7v6.4h-1.7V13.9z"/>
	<path fill="#FFFFFF" d="M47.6,66.8h10.6v1.6H37v-1.6h9V48.3l2.1,0.1c0,0.2-0.2,0.3-0.5,0.3v6.9h8.9v1.6h-8.9V66.8z"/>
	<path fill="#FFFFFF" d="M60.9,54.5c1.4,0.6,3.2,1.6,4,2.4L64,58.1c-0.8-0.8-2.5-1.9-4-2.5L60.9,54.5z M60.6,68.3
		c1.1-1.8,2.6-5,3.7-7.6l1.2,0.9c-1,2.5-2.4,5.4-3.4,7.2c0.1,0.1,0.1,0.3,0.1,0.4c0,0.1,0,0.2-0.1,0.2L60.6,68.3z M65.1,52
		c-0.8-0.8-2.5-2-3.9-2.7l0.9-1.1c1.4,0.7,3.1,1.7,4,2.6L65.1,52z M81.6,61h-2.1c-0.1,1.5-0.1,2.8-0.2,3.8h2.2v1.4h-2.3
		c-0.4,3.3-1.2,3.3-3.4,3.3c-0.6,0-1.2,0-1.8,0c0-0.4-0.2-1-0.4-1.3c1.3,0.1,2.4,0.1,3,0.1c0.8,0,1-0.6,1.2-2h-8.8l-0.2,1.2
		l-1.5-0.1c0.3-1.6,0.6-3.9,0.9-6.2h-2.4v-1.4h2.6c0.2-1.7,0.4-3.4,0.5-4.9H79l0.8,0c0,0.1,0,0.3,0,0.5l-0.1,4.4h2V61z M81.5,52.3
		H69.6c-0.8,1.7-1.7,3.3-2.7,4.4c-0.3-0.3-0.8-0.7-1.2-0.9c1.6-1.8,3-4.9,3.8-7.9l1.9,0.5c0,0.2-0.2,0.3-0.5,0.3
		c-0.2,0.7-0.5,1.5-0.8,2.2h11.3V52.3z M72.6,64.7c0.1-1.1,0.2-2.4,0.4-3.8h-3.5c-0.2,1.3-0.3,2.6-0.5,3.8H72.6z M73.1,59.5
		c0.1-1.2,0.2-2.4,0.2-3.5h-3.3c-0.1,1.1-0.3,2.3-0.4,3.5H73.1z M74.3,61c-0.1,1.4-0.2,2.7-0.3,3.8h3.9c0.1-1,0.2-2.2,0.2-3.8H74.3z
		 M74.7,56c-0.1,1.1-0.2,2.3-0.3,3.5h3.7c0-1,0.1-2.2,0.1-3.5H74.7z"/>
</g>
</svg>
