<?xml version="1.0" encoding="utf-8"?>
<!DOCTYPE svg PUBLIC "-//W3C//DTD SVG 1.1//EN" "http://www.w3.org/Graphics/SVG/1.1/DTD/svg11.dtd">
<svg version="1.1" id="Calque_1" xmlns="http://www.w3.org/2000/svg" xmlns:xlink="http://www.w3.org/1999/xlink" x="0px" y="0px"
	 width="300px" height="262px" viewBox="0 0 300 262" enable-background="new 0 0 300 262" xml:space="preserve">
<g>
	<rect x="126.8" y="28.2" width="46.2" height="10.1"/>
	<line fill="none" stroke="#000000" stroke-width="3" stroke-miterlimit="10" x1="167.1" y1="3" x2="167.1" y2="24.6"/>
	<line fill="none" stroke="#000000" stroke-width="3" stroke-miterlimit="10" x1="161.3" y1="3" x2="161.3" y2="24.6"/>
	<rect x="126.3" y="3" fill="none" stroke="#000000" stroke-width="3" stroke-miterlimit="10" width="46.1" height="21.6"/>
	<line fill="none" stroke="#000000" stroke-width="3" stroke-miterlimit="10" x1="155.5" y1="3" x2="155.5" y2="24.6"/>
	<line fill="none" stroke="#000000" stroke-width="3" stroke-miterlimit="10" x1="149.7" y1="3" x2="149.7" y2="24.6"/>
	<line fill="none" stroke="#000000" stroke-width="3" stroke-miterlimit="10" x1="143.8" y1="3" x2="143.8" y2="24.6"/>
	<line fill="none" stroke="#000000" stroke-width="3" stroke-miterlimit="10" x1="138" y1="3" x2="138" y2="24.6"/>
	<line fill="none" stroke="#000000" stroke-width="3" stroke-miterlimit="10" x1="132.2" y1="3" x2="132.2" y2="24.6"/>
	<path fill="none" stroke="#000000" stroke-miterlimit="10" d="M171.5,72.6c-7.1,0.2-12.8,6-12.8,13.1v135.2
		c0,7.1,5.7,12.9,12.8,13.1"/>
	<line fill="none" stroke="#000000" stroke-miterlimit="10" x1="171.4" y1="256" x2="126.8" y2="256"/>
	<line fill="none" stroke="#000000" stroke-miterlimit="10" x1="171.4" y1="251" x2="126.8" y2="251"/>
	<line fill="none" stroke="#000000" stroke-miterlimit="10" x1="171.4" y1="246" x2="126.8" y2="246"/>
	<line fill="none" stroke="#000000" stroke-miterlimit="10" x1="171.4" y1="241" x2="126.8" y2="241"/>
	<line fill="none" stroke="#000000" stroke-miterlimit="10" x1="171.4" y1="236" x2="126.8" y2="236"/>
	<line fill="none" stroke="#000000" stroke-miterlimit="10" x1="163" y1="231" x2="126.8" y2="231"/>
	<line fill="none" stroke="#000000" stroke-miterlimit="10" x1="159.6" y1="226" x2="126.8" y2="226"/>
	<line fill="none" stroke="#000000" stroke-miterlimit="10" x1="158.7" y1="221" x2="126.8" y2="221"/>
	<line fill="none" stroke="#000000" stroke-miterlimit="10" x1="158.7" y1="216" x2="126.8" y2="216"/>
	<line fill="none" stroke="#000000" stroke-miterlimit="10" x1="158.7" y1="211" x2="126.8" y2="211"/>
	<line fill="none" stroke="#000000" stroke-miterlimit="10" x1="158.7" y1="206" x2="126.8" y2="206"/>
	<line fill="none" stroke="#000000" stroke-miterlimit="10" x1="158.7" y1="201" x2="126.8" y2="201"/>
	<line fill="none" stroke="#000000" stroke-miterlimit="10" x1="158.7" y1="196" x2="126.8" y2="196"/>
	<line fill="none" stroke="#000000" stroke-miterlimit="10" x1="158.7" y1="191" x2="126.8" y2="191"/>
	<line fill="none" stroke="#000000" stroke-miterlimit="10" x1="158.7" y1="186" x2="126.8" y2="186"/>
	<line fill="none" stroke="#000000" stroke-miterlimit="10" x1="158.7" y1="181" x2="126.8" y2="181"/>
	<line fill="none" stroke="#000000" stroke-miterlimit="10" x1="158.7" y1="176" x2="126.8" y2="176"/>
	<line fill="none" stroke="#000000" stroke-miterlimit="10" x1="158.7" y1="171" x2="126.8" y2="171"/>
	<line fill="none" stroke="#000000" stroke-miterlimit="10" x1="158.7" y1="166" x2="126.8" y2="166"/>
	<line fill="none" stroke="#000000" stroke-miterlimit="10" x1="158.7" y1="161" x2="126.8" y2="161"/>
	<line fill="none" stroke="#000000" stroke-miterlimit="10" x1="158.7" y1="156" x2="126.8" y2="156"/>
	<line fill="none" stroke="#000000" stroke-miterlimit="10" x1="158.7" y1="151" x2="126.8" y2="151"/>
	<line fill="none" stroke="#000000" stroke-miterlimit="10" x1="158.7" y1="146" x2="126.8" y2="146"/>
	<line fill="none" stroke="#000000" stroke-miterlimit="10" x1="158.7" y1="141" x2="126.8" y2="141"/>
	<line fill="none" stroke="#000000" stroke-miterlimit="10" x1="158.7" y1="136" x2="126.8" y2="136"/>
	<line fill="none" stroke="#000000" stroke-miterlimit="10" x1="158.7" y1="131" x2="126.8" y2="131"/>
	<line fill="none" stroke="#000000" stroke-miterlimit="10" x1="158.7" y1="126" x2="126.8" y2="126"/>
	<rect x="127.4" y="45.3" fill="none" stroke="#0F0F0F" stroke-width="3" stroke-miterlimit="10" width="44" height="216.1"/>
</g>
</svg>
