<?xml version="1.0" encoding="utf-8"?>
<!DOCTYPE svg PUBLIC "-//W3C//DTD SVG 1.1//EN" "http://www.w3.org/Graphics/SVG/1.1/DTD/svg11.dtd">
<svg version="1.1" xmlns="http://www.w3.org/2000/svg" xmlns:xlink="http://www.w3.org/1999/xlink" x="0px" y="0px" width="236px"
	 height="182px" viewBox="0 0 236 182" enable-background="new 0 0 236 182" xml:space="preserve">
<g>
	<g>
		<g>
			<line fill="none" stroke="#000000" stroke-miterlimit="10" x1="50.1" y1="133.9" x2="29.7" y2="142.3"/>
			<circle fill="none" stroke="#000000" stroke-miterlimit="10" cx="29.7" cy="142.3" r="4.7"/>
			<line fill="none" stroke="#000000" stroke-miterlimit="10" x1="32.2" y1="118.9" x2="53.8" y2="114.7"/>
			<path fill="none" stroke="#000000" stroke-miterlimit="10" d="M58.4,115.9c-0.7,2.5-3.3,4-5.8,3.4c-2.5-0.7-4-3.3-3.4-5.8
				c0.7-2.5,3.3-4,5.8-3.4C57.6,110.8,59.1,113.4,58.4,115.9z"/>
			<circle cx="19" cy="68.6" r="5.5"/>
			<line fill="none" stroke="#000000" stroke-miterlimit="10" x1="18" y1="63.7" x2="23.4" y2="85.6"/>
			<line fill="none" stroke="#000000" stroke-miterlimit="10" x1="102.5" y1="83.1" x2="99.5" y2="63.2"/>
			<path fill="none" stroke="#000000" stroke-miterlimit="10" d="M100.1,56.9c2.5,0.7,4,3.4,3.2,5.9c-0.7,2.5-3.4,4-5.9,3.2
				c-2.5-0.7-4-3.4-3.2-5.9C95,57.6,97.6,56.1,100.1,56.9z"/>
			<line fill="none" stroke="#000000" stroke-miterlimit="10" x1="148.8" y1="114.1" x2="141.3" y2="128"/>
			<path fill="none" stroke="#000000" stroke-miterlimit="10" d="M136.5,128.6c-0.3-2.6,1.5-5,4.2-5.3c2.6-0.3,5,1.5,5.3,4.1
				c0.3,2.6-1.6,5-4.2,5.3S136.9,131.2,136.5,128.6z"/>
			<line fill="none" stroke="#000000" stroke-miterlimit="10" x1="204.9" y1="155.9" x2="214" y2="135.4"/>
			<line fill="none" stroke="#000000" stroke-miterlimit="10" x1="125.3" y1="112.3" x2="144.4" y2="112.2"/>
			<line fill="none" stroke="#000000" stroke-miterlimit="10" x1="124.3" y1="114.6" x2="143.4" y2="114.5"/>
			<line fill="none" stroke="#000000" stroke-miterlimit="10" x1="106" y1="88.6" x2="116.9" y2="107.5"/>
			<line fill="none" stroke="#000000" stroke-miterlimit="10" x1="105" y1="91.1" x2="114.5" y2="107.7"/>
			<g>
				<line fill="none" stroke="#000000" stroke-miterlimit="10" x1="120.4" y1="37.9" x2="122.1" y2="59.6"/>
				<line fill="none" stroke="#000000" stroke-miterlimit="10" x1="118.4" y1="39.6" x2="119.8" y2="58.7"/>
			</g>
			<g>
				<line fill="none" stroke="#000000" stroke-miterlimit="10" x1="119.8" y1="64.2" x2="107.2" y2="82"/>
				<line fill="none" stroke="#000000" stroke-miterlimit="10" x1="117.2" y1="64.3" x2="106" y2="79.8"/>
			</g>
			<g>
				<line fill="none" stroke="#000000" stroke-miterlimit="10" x1="59.7" y1="48.7" x2="56" y2="70.2"/>
				<line fill="none" stroke="#000000" stroke-miterlimit="10" x1="57.4" y1="49.9" x2="53.9" y2="68.8"/>
			</g>
			<g>
				<line fill="none" stroke="#000000" stroke-miterlimit="10" x1="50.5" y1="78.8" x2="30.3" y2="86.9"/>
				<line fill="none" stroke="#000000" stroke-miterlimit="10" x1="48.3" y1="77.5" x2="30.4" y2="84.4"/>
			</g>
			<g>
				<line fill="none" stroke="#000000" stroke-miterlimit="10" x1="27.2" y1="93.3" x2="33.2" y2="114.2"/>
				<line fill="none" stroke="#000000" stroke-miterlimit="10" x1="24.7" y1="92.1" x2="30.8" y2="113.8"/>
			</g>
			<g>
				<line fill="none" stroke="#000000" stroke-miterlimit="10" x1="73.9" y1="126.4" x2="53.7" y2="134.3"/>
				<line fill="none" stroke="#000000" stroke-miterlimit="10" x1="74.9" y1="123.8" x2="53.8" y2="131.8"/>
			</g>
			<g>
				<line fill="none" stroke="#000000" stroke-miterlimit="10" x1="45.7" y1="135.1" x2="31.4" y2="118.7"/>
				<line fill="none" stroke="#000000" stroke-miterlimit="10" x1="48.5" y1="135.1" x2="33.8" y2="118"/>
			</g>
			<g>
				<line fill="none" stroke="#000000" stroke-miterlimit="10" x1="164.8" y1="93.3" x2="151.8" y2="110.8"/>
				<line fill="none" stroke="#000000" stroke-miterlimit="10" x1="162.2" y1="93.3" x2="150.6" y2="108.6"/>
			</g>
			<path d="M154.4,59.8c1.2,2.8-0.1,6.1-2.9,7.3c-2.8,1.2-6.1-0.1-7.3-2.9c-1.2-2.8,0.1-6.1,2.9-7.3C149.9,55.7,153.2,57,154.4,59.8
				z"/>
			<path d="M187.4,77.5c1.2,2.8-0.1,6.1-2.9,7.3c-2.8,1.2-6.1-0.1-7.3-2.9c-1.2-2.8,0.1-6.1,2.9-7.3
				C182.9,73.4,186.2,74.7,187.4,77.5z"/>
			<circle cx="161.2" cy="152.3" r="5.5"/>
			<circle cx="101.6" cy="128.3" r="5.5"/>
			<circle cx="85.1" cy="80.4" r="5.5"/>
			<circle cx="120.4" cy="14.8" r="5.5"/>
			<path d="M82.4,28.8c1.2,2.8-0.1,6.1-2.9,7.3c-2.8,1.2-6.1-0.1-7.3-2.9c-1.2-2.8,0.1-6.1,2.9-7.3C77.9,24.7,81.1,26,82.4,28.8z"/>
			<circle cx="42.5" cy="41.9" r="5.5"/>
			<path d="M74.3,90.8c1.2,2.8-0.1,6.1-2.9,7.3c-2.8,1.2-6.1-0.1-7.3-2.9c-1.2-2.8,0.1-6.1,2.9-7.3C69.9,86.7,73.1,88,74.3,90.8z"/>
			<circle cx="50.3" cy="155.2" r="5.5"/>
			<path fill="none" stroke="#000000" stroke-miterlimit="10" d="M63.2,156.7c-1,2.4-3.8,3.5-6.2,2.5c-2.4-1-3.5-3.8-2.5-6.2
				c1-2.4,3.8-3.5,6.2-2.5C63.1,151.5,64.3,154.3,63.2,156.7z"/>
			<circle fill="none" stroke="#000000" stroke-miterlimit="10" cx="87" cy="71.3" r="4.7"/>
			<line fill="none" stroke="#000000" stroke-miterlimit="10" x1="122.9" y1="61.7" x2="147.3" y2="62"/>
			<line fill="none" stroke="#000000" stroke-miterlimit="10" x1="121.2" y1="36.1" x2="120.7" y2="15.8"/>
			<line fill="none" stroke="#000000" stroke-miterlimit="10" x1="151.3" y1="64.8" x2="164.2" y2="86.5"/>
			<line fill="none" stroke="#000000" stroke-miterlimit="10" x1="165" y1="89.3" x2="179.4" y2="80.5"/>
			<line fill="none" stroke="#000000" stroke-miterlimit="10" x1="80" y1="29" x2="59.9" y2="45.2"/>
			<line fill="none" stroke="#000000" stroke-miterlimit="10" x1="45.6" y1="42.2" x2="59.8" y2="45.2"/>
			<line fill="none" stroke="#000000" stroke-miterlimit="10" x1="57.8" y1="79.8" x2="67.6" y2="90.2"/>
			<line fill="none" stroke="#000000" stroke-miterlimit="10" x1="69.6" y1="94.1" x2="77.3" y2="122.1"/>
			<line fill="none" stroke="#000000" stroke-miterlimit="10" x1="98.4" y1="26.5" x2="120.7" y2="34.5"/>
			<line fill="none" stroke="#000000" stroke-miterlimit="10" x1="120.7" y1="34.5" x2="140.8" y2="33.9"/>
			<line fill="none" stroke="#000000" stroke-miterlimit="10" x1="152.4" y1="115.5" x2="169.9" y2="121.3"/>
			<line fill="none" stroke="#000000" stroke-miterlimit="10" x1="169.9" y1="121.3" x2="183.4" y2="113"/>
			<line fill="none" stroke="#000000" stroke-miterlimit="10" x1="161.2" y1="152.2" x2="181.5" y2="144.6"/>
			<line fill="none" stroke="#000000" stroke-miterlimit="10" x1="169.9" y1="121.3" x2="179.4" y2="141.6"/>
			<line fill="none" stroke="#000000" stroke-miterlimit="10" x1="182.8" y1="145.4" x2="202.5" y2="154.7"/>
			<line fill="none" stroke="#000000" stroke-miterlimit="10" x1="204.9" y1="155.9" x2="228.4" y2="150.1"/>
			<line fill="none" stroke="#000000" stroke-miterlimit="10" x1="207.1" y1="157.9" x2="203.3" y2="175.6"/>
			<line fill="none" stroke="#000000" stroke-miterlimit="10" x1="117.6" y1="114.7" x2="101.6" y2="128.3"/>
			<line fill="none" stroke="#000000" stroke-miterlimit="10" x1="80.8" y1="125.5" x2="101.6" y2="128.3"/>
			<line fill="none" stroke="#000000" stroke-miterlimit="10" x1="85.1" y1="80.4" x2="99.3" y2="83.7"/>
			<circle cx="15.8" cy="129" r="5.5"/>
			<path fill="none" stroke="#000000" stroke-miterlimit="10" d="M15.6,119.4c0.9,2.5-0.5,5.2-2.9,6c-2.5,0.9-5.2-0.5-6-2.9
				c-0.9-2.5,0.5-5.2,2.9-6C12,115.6,14.7,116.9,15.6,119.4z"/>
			<line fill="none" stroke="#000000" stroke-miterlimit="10" x1="15.8" y1="129" x2="28.5" y2="122"/>
			<line fill="none" stroke="#000000" stroke-miterlimit="10" x1="50.4" y1="154.3" x2="48.1" y2="135.4"/>
			<line fill="none" stroke="#000000" stroke-miterlimit="10" x1="54.7" y1="75.3" x2="69.1" y2="71.5"/>
			<line fill="none" stroke="#000000" stroke-miterlimit="10" x1="21.5" y1="88" x2="5.7" y2="86.8"/>
			<g>
				<path fill="#746367" stroke="#000000" stroke-miterlimit="10" d="M31.5,87.5c0.1,3.7-2.8,6.8-6.5,7c-3.7,0.1-6.8-2.8-7-6.5
					c-0.1-3.7,2.8-6.8,6.5-7C28.2,80.9,31.4,83.8,31.5,87.5z"/>
				<g>
					<defs>
						<path id="SVGID_1_" d="M31.5,87.5c0.1,3.7-2.8,6.8-6.5,7c-3.7,0.1-6.8-2.8-7-6.5c-0.1-3.7,2.8-6.8,6.5-7
							C28.2,80.9,31.4,83.8,31.5,87.5z"/>
					</defs>
					<clipPath id="SVGID_2_">
						<use xlink:href="#SVGID_1_"  overflow="visible"/>
					</clipPath>
					
						<line clip-path="url(#SVGID_2_)" fill="none" stroke="#000000" stroke-miterlimit="10" x1="36.1" y1="89.3" x2="19.7" y2="98.9"/>
					
						<line clip-path="url(#SVGID_2_)" fill="none" stroke="#000000" stroke-miterlimit="10" x1="34.7" y1="86.8" x2="18.3" y2="96.5"/>
					
						<line clip-path="url(#SVGID_2_)" fill="none" stroke="#000000" stroke-miterlimit="10" x1="33.3" y1="84.4" x2="16.8" y2="94.1"/>
					
						<line clip-path="url(#SVGID_2_)" fill="none" stroke="#000000" stroke-miterlimit="10" x1="31.8" y1="82" x2="15.4" y2="91.6"/>
					
						<line clip-path="url(#SVGID_2_)" fill="none" stroke="#000000" stroke-miterlimit="10" x1="30.4" y1="79.5" x2="14" y2="89.2"/>
					
						<line clip-path="url(#SVGID_2_)" fill="none" stroke="#000000" stroke-miterlimit="10" x1="28.5" y1="77.3" x2="12.9" y2="86.6"/>
				</g>
			</g>
			<g>
				<circle fill="#746367" stroke="#000000" stroke-miterlimit="10" cx="54.7" cy="75.5" r="6.7"/>
				<g>
					<defs>
						<circle id="SVGID_3_" cx="54.7" cy="75.5" r="6.7"/>
					</defs>
					<clipPath id="SVGID_4_">
						<use xlink:href="#SVGID_3_"  overflow="visible"/>
					</clipPath>
					<line clip-path="url(#SVGID_4_)" fill="none" stroke="#000000" stroke-miterlimit="10" x1="66" y1="77" x2="49.6" y2="86.6"/>
					
						<line clip-path="url(#SVGID_4_)" fill="none" stroke="#000000" stroke-miterlimit="10" x1="64.6" y1="74.5" x2="48.2" y2="84.2"/>
					
						<line clip-path="url(#SVGID_4_)" fill="none" stroke="#000000" stroke-miterlimit="10" x1="63.1" y1="72.1" x2="46.7" y2="81.7"/>
					
						<line clip-path="url(#SVGID_4_)" fill="none" stroke="#000000" stroke-miterlimit="10" x1="61.7" y1="69.6" x2="45.3" y2="79.3"/>
					
						<line clip-path="url(#SVGID_4_)" fill="none" stroke="#000000" stroke-miterlimit="10" x1="60.3" y1="67.2" x2="43.9" y2="76.9"/>
					
						<line clip-path="url(#SVGID_4_)" fill="none" stroke="#000000" stroke-miterlimit="10" x1="58.4" y1="65" x2="42.8" y2="74.2"/>
				</g>
			</g>
			<g>
				<circle fill="#746367" stroke="#000000" stroke-miterlimit="10" cx="59.9" cy="45.2" r="6.7"/>
				<g>
					<defs>
						<circle id="SVGID_5_" cx="59.9" cy="45.2" r="6.7"/>
					</defs>
					<clipPath id="SVGID_6_">
						<use xlink:href="#SVGID_5_"  overflow="visible"/>
					</clipPath>
					
						<line clip-path="url(#SVGID_6_)" fill="none" stroke="#000000" stroke-miterlimit="10" x1="71.3" y1="46.7" x2="54.8" y2="56.3"/>
					
						<line clip-path="url(#SVGID_6_)" fill="none" stroke="#000000" stroke-miterlimit="10" x1="69.8" y1="44.3" x2="53.4" y2="53.9"/>
					
						<line clip-path="url(#SVGID_6_)" fill="none" stroke="#000000" stroke-miterlimit="10" x1="68.4" y1="41.8" x2="52" y2="51.5"/>
					<line clip-path="url(#SVGID_6_)" fill="none" stroke="#000000" stroke-miterlimit="10" x1="67" y1="39.4" x2="50.5" y2="49"/>
					
						<line clip-path="url(#SVGID_6_)" fill="none" stroke="#000000" stroke-miterlimit="10" x1="65.5" y1="36.9" x2="49.1" y2="46.6"/>
					<line clip-path="url(#SVGID_6_)" fill="none" stroke="#000000" stroke-miterlimit="10" x1="63.7" y1="34.8" x2="48" y2="44"/>
				</g>
			</g>
			<g>
				<circle fill="#746367" stroke="#000000" stroke-miterlimit="10" cx="120.4" cy="61.6" r="6.7"/>
				<g>
					<defs>
						<circle id="SVGID_7_" cx="120.4" cy="61.6" r="6.7"/>
					</defs>
					<clipPath id="SVGID_8_">
						<use xlink:href="#SVGID_7_"  overflow="visible"/>
					</clipPath>
					
						<line clip-path="url(#SVGID_8_)" fill="none" stroke="#000000" stroke-miterlimit="10" x1="131.7" y1="63.1" x2="115.3" y2="72.7"/>
					
						<line clip-path="url(#SVGID_8_)" fill="none" stroke="#000000" stroke-miterlimit="10" x1="130.2" y1="60.6" x2="113.8" y2="70.3"/>
					
						<line clip-path="url(#SVGID_8_)" fill="none" stroke="#000000" stroke-miterlimit="10" x1="128.8" y1="58.2" x2="112.4" y2="67.8"/>
					
						<line clip-path="url(#SVGID_8_)" fill="none" stroke="#000000" stroke-miterlimit="10" x1="127.4" y1="55.8" x2="111" y2="65.4"/>
					
						<line clip-path="url(#SVGID_8_)" fill="none" stroke="#000000" stroke-miterlimit="10" x1="126" y1="53.3" x2="109.5" y2="63"/>
					
						<line clip-path="url(#SVGID_8_)" fill="none" stroke="#000000" stroke-miterlimit="10" x1="124.1" y1="51.1" x2="108.4" y2="60.3"/>
				</g>
			</g>
			<g>
				<circle fill="#746367" stroke="#000000" stroke-miterlimit="10" cx="120.7" cy="34.5" r="6.7"/>
				<g>
					<defs>
						<circle id="SVGID_9_" cx="120.7" cy="34.5" r="6.7"/>
					</defs>
					<clipPath id="SVGID_10_">
						<use xlink:href="#SVGID_9_"  overflow="visible"/>
					</clipPath>
					
						<line clip-path="url(#SVGID_10_)" fill="none" stroke="#000000" stroke-miterlimit="10" x1="132" y1="36" x2="115.6" y2="45.6"/>
					
						<line clip-path="url(#SVGID_10_)" fill="none" stroke="#000000" stroke-miterlimit="10" x1="130.6" y1="33.5" x2="114.2" y2="43.2"/>
					
						<line clip-path="url(#SVGID_10_)" fill="none" stroke="#000000" stroke-miterlimit="10" x1="129.1" y1="31.1" x2="112.7" y2="40.8"/>
					
						<line clip-path="url(#SVGID_10_)" fill="none" stroke="#000000" stroke-miterlimit="10" x1="127.7" y1="28.7" x2="111.3" y2="38.3"/>
					
						<line clip-path="url(#SVGID_10_)" fill="none" stroke="#000000" stroke-miterlimit="10" x1="126.3" y1="26.2" x2="109.9" y2="35.9"/>
					
						<line clip-path="url(#SVGID_10_)" fill="none" stroke="#000000" stroke-miterlimit="10" x1="124.4" y1="24.1" x2="108.8" y2="33.3"/>
				</g>
			</g>
			<g>
				<circle fill="#746367" stroke="#000000" stroke-miterlimit="10" cx="165" cy="89.3" r="6.7"/>
				<g>
					<defs>
						<circle id="SVGID_11_" cx="165" cy="89.3" r="6.7"/>
					</defs>
					<clipPath id="SVGID_12_">
						<use xlink:href="#SVGID_11_"  overflow="visible"/>
					</clipPath>
					
						<line clip-path="url(#SVGID_12_)" fill="none" stroke="#000000" stroke-miterlimit="10" x1="176.3" y1="90.8" x2="159.9" y2="100.5"/>
					
						<line clip-path="url(#SVGID_12_)" fill="none" stroke="#000000" stroke-miterlimit="10" x1="174.9" y1="88.4" x2="158.5" y2="98.1"/>
					
						<line clip-path="url(#SVGID_12_)" fill="none" stroke="#000000" stroke-miterlimit="10" x1="173.5" y1="86" x2="157.1" y2="95.6"/>
					
						<line clip-path="url(#SVGID_12_)" fill="none" stroke="#000000" stroke-miterlimit="10" x1="172" y1="83.5" x2="155.6" y2="93.2"/>
					
						<line clip-path="url(#SVGID_12_)" fill="none" stroke="#000000" stroke-miterlimit="10" x1="170.6" y1="81.1" x2="154.2" y2="90.8"/>
					
						<line clip-path="url(#SVGID_12_)" fill="none" stroke="#000000" stroke-miterlimit="10" x1="168.8" y1="78.9" x2="153.1" y2="88.1"/>
				</g>
			</g>
			<g>
				<path fill="#746367" stroke="#000000" stroke-miterlimit="10" d="M188.2,144.3c0.1,3.7-2.8,6.8-6.5,7c-3.7,0.1-6.8-2.8-7-6.5
					c-0.1-3.7,2.8-6.8,6.5-7C185,137.7,188.1,140.6,188.2,144.3z"/>
				<g>
					<defs>
						<path id="SVGID_13_" d="M188.2,144.3c0.1,3.7-2.8,6.8-6.5,7c-3.7,0.1-6.8-2.8-7-6.5c-0.1-3.7,2.8-6.8,6.5-7
							C185,137.7,188.1,140.6,188.2,144.3z"/>
					</defs>
					<clipPath id="SVGID_14_">
						<use xlink:href="#SVGID_13_"  overflow="visible"/>
					</clipPath>
					
						<line clip-path="url(#SVGID_14_)" fill="none" stroke="#000000" stroke-miterlimit="10" x1="192.8" y1="146.1" x2="176.4" y2="155.7"/>
					
						<line clip-path="url(#SVGID_14_)" fill="none" stroke="#000000" stroke-miterlimit="10" x1="191.4" y1="143.6" x2="175" y2="153.3"/>
					
						<line clip-path="url(#SVGID_14_)" fill="none" stroke="#000000" stroke-miterlimit="10" x1="190" y1="141.2" x2="173.6" y2="150.9"/>
					
						<line clip-path="url(#SVGID_14_)" fill="none" stroke="#000000" stroke-miterlimit="10" x1="188.5" y1="138.8" x2="172.1" y2="148.4"/>
					
						<line clip-path="url(#SVGID_14_)" fill="none" stroke="#000000" stroke-miterlimit="10" x1="187.1" y1="136.3" x2="170.7" y2="146"/>
					
						<line clip-path="url(#SVGID_14_)" fill="none" stroke="#000000" stroke-miterlimit="10" x1="185.2" y1="134.1" x2="169.6" y2="143.4"/>
				</g>
			</g>
			<g>
				<path fill="#746367" stroke="#000000" stroke-miterlimit="10" d="M211.6,155.7c0.1,3.7-2.8,6.8-6.5,7c-3.7,0.1-6.8-2.8-7-6.5
					c-0.1-3.7,2.7-6.8,6.5-7C208.4,149.1,211.5,151.9,211.6,155.7z"/>
				<g>
					<defs>
						<path id="SVGID_15_" d="M211.6,155.7c0.1,3.7-2.8,6.8-6.5,7c-3.7,0.1-6.8-2.8-7-6.5c-0.1-3.7,2.7-6.8,6.5-7
							C208.4,149.1,211.5,151.9,211.6,155.7z"/>
					</defs>
					<clipPath id="SVGID_16_">
						<use xlink:href="#SVGID_15_"  overflow="visible"/>
					</clipPath>
					
						<line clip-path="url(#SVGID_16_)" fill="none" stroke="#000000" stroke-miterlimit="10" x1="216.2" y1="157.4" x2="199.8" y2="167.1"/>
					
						<line clip-path="url(#SVGID_16_)" fill="none" stroke="#000000" stroke-miterlimit="10" x1="214.8" y1="155" x2="198.4" y2="164.6"/>
					
						<line clip-path="url(#SVGID_16_)" fill="none" stroke="#000000" stroke-miterlimit="10" x1="213.4" y1="152.5" x2="196.9" y2="162.2"/>
					
						<line clip-path="url(#SVGID_16_)" fill="none" stroke="#000000" stroke-miterlimit="10" x1="211.9" y1="150.1" x2="195.5" y2="159.8"/>
					<path clip-path="url(#SVGID_16_)" fill="none" stroke="#000000" stroke-miterlimit="10" d="M194.8,158.5"/>
					<path clip-path="url(#SVGID_16_)" fill="none" stroke="#000000" stroke-miterlimit="10" d="M211.2,148.9"/>
					
						<line clip-path="url(#SVGID_16_)" fill="none" stroke="#000000" stroke-miterlimit="10" x1="210.5" y1="147.7" x2="194.1" y2="157.3"/>
					
						<line clip-path="url(#SVGID_16_)" fill="none" stroke="#000000" stroke-miterlimit="10" x1="208.6" y1="145.5" x2="193" y2="154.7"/>
				</g>
			</g>
			<g>
				<path fill="#746367" stroke="#000000" stroke-miterlimit="10" d="M125.3,112.3c0.1,3.7-2.8,6.8-6.5,7c-3.7,0.1-6.8-2.8-7-6.5
					c-0.1-3.7,2.8-6.8,6.5-7C122,105.7,125.1,108.6,125.3,112.3z"/>
				<g>
					<defs>
						<path id="SVGID_17_" d="M125.3,112.3c0.1,3.7-2.8,6.8-6.5,7c-3.7,0.1-6.8-2.8-7-6.5c-0.1-3.7,2.8-6.8,6.5-7
							C122,105.7,125.1,108.6,125.3,112.3z"/>
					</defs>
					<clipPath id="SVGID_18_">
						<use xlink:href="#SVGID_17_"  overflow="visible"/>
					</clipPath>
					
						<line clip-path="url(#SVGID_18_)" fill="none" stroke="#000000" stroke-miterlimit="10" x1="129.9" y1="114.1" x2="113.5" y2="123.7"/>
					
						<line clip-path="url(#SVGID_18_)" fill="none" stroke="#000000" stroke-miterlimit="10" x1="128.5" y1="111.7" x2="112" y2="121.3"/>
					
						<line clip-path="url(#SVGID_18_)" fill="none" stroke="#000000" stroke-miterlimit="10" x1="127" y1="109.2" x2="110.6" y2="118.9"/>
					
						<line clip-path="url(#SVGID_18_)" fill="none" stroke="#000000" stroke-miterlimit="10" x1="125.6" y1="106.8" x2="109.2" y2="116.4"/>
					<path clip-path="url(#SVGID_18_)" fill="none" stroke="#000000" stroke-miterlimit="10" d="M108.5,115.2"/>
					<path clip-path="url(#SVGID_18_)" fill="none" stroke="#000000" stroke-miterlimit="10" d="M124.9,105.6"/>
					
						<line clip-path="url(#SVGID_18_)" fill="none" stroke="#000000" stroke-miterlimit="10" x1="124.2" y1="104.4" x2="107.7" y2="114"/>
					
						<line clip-path="url(#SVGID_18_)" fill="none" stroke="#000000" stroke-miterlimit="10" x1="122.3" y1="102.2" x2="106.6" y2="111.4"/>
				</g>
			</g>
			<g>
				<circle fill="#746367" stroke="#000000" stroke-miterlimit="10" cx="77.7" cy="123.8" r="6.7"/>
				<g>
					<defs>
						<circle id="SVGID_19_" cx="77.7" cy="123.8" r="6.7"/>
					</defs>
					<clipPath id="SVGID_20_">
						<use xlink:href="#SVGID_19_"  overflow="visible"/>
					</clipPath>
					
						<line clip-path="url(#SVGID_20_)" fill="none" stroke="#000000" stroke-miterlimit="10" x1="89" y1="125.3" x2="72.6" y2="135"/>
					
						<line clip-path="url(#SVGID_20_)" fill="none" stroke="#000000" stroke-miterlimit="10" x1="87.6" y1="122.9" x2="71.2" y2="132.5"/>
					
						<line clip-path="url(#SVGID_20_)" fill="none" stroke="#000000" stroke-miterlimit="10" x1="86.2" y1="120.4" x2="69.7" y2="130.1"/>
					
						<line clip-path="url(#SVGID_20_)" fill="none" stroke="#000000" stroke-miterlimit="10" x1="84.7" y1="118" x2="68.3" y2="127.6"/>
					
						<line clip-path="url(#SVGID_20_)" fill="none" stroke="#000000" stroke-miterlimit="10" x1="83.3" y1="115.6" x2="66.9" y2="125.2"/>
					
						<line clip-path="url(#SVGID_20_)" fill="none" stroke="#000000" stroke-miterlimit="10" x1="81.4" y1="113.4" x2="65.8" y2="122.6"/>
				</g>
			</g>
			<g>
				<circle fill="#746367" stroke="#000000" stroke-miterlimit="10" cx="48.1" cy="135.4" r="6.7"/>
				<g>
					<defs>
						<circle id="SVGID_21_" cx="48.1" cy="135.4" r="6.7"/>
					</defs>
					<clipPath id="SVGID_22_">
						<use xlink:href="#SVGID_21_"  overflow="visible"/>
					</clipPath>
					
						<line clip-path="url(#SVGID_22_)" fill="none" stroke="#000000" stroke-miterlimit="10" x1="59.4" y1="136.9" x2="43" y2="146.5"/>
					
						<line clip-path="url(#SVGID_22_)" fill="none" stroke="#000000" stroke-miterlimit="10" x1="58" y1="134.4" x2="41.5" y2="144.1"/>
					
						<line clip-path="url(#SVGID_22_)" fill="none" stroke="#000000" stroke-miterlimit="10" x1="56.5" y1="132" x2="40.1" y2="141.6"/>
					
						<line clip-path="url(#SVGID_22_)" fill="none" stroke="#000000" stroke-miterlimit="10" x1="55.1" y1="129.5" x2="38.7" y2="139.2"/>
					
						<line clip-path="url(#SVGID_22_)" fill="none" stroke="#000000" stroke-miterlimit="10" x1="53.7" y1="127.1" x2="37.2" y2="136.8"/>
					
						<line clip-path="url(#SVGID_22_)" fill="none" stroke="#000000" stroke-miterlimit="10" x1="51.8" y1="124.9" x2="36.1" y2="134.1"/>
				</g>
			</g>
			<g>
				<circle fill="#746367" stroke="#000000" stroke-miterlimit="10" cx="33.2" cy="118.5" r="6.7"/>
				<g>
					<defs>
						<circle id="SVGID_23_" cx="33.2" cy="118.5" r="6.7"/>
					</defs>
					<clipPath id="SVGID_24_">
						<use xlink:href="#SVGID_23_"  overflow="visible"/>
					</clipPath>
					
						<line clip-path="url(#SVGID_24_)" fill="none" stroke="#000000" stroke-miterlimit="10" x1="44.6" y1="120" x2="28.1" y2="129.7"/>
					
						<line clip-path="url(#SVGID_24_)" fill="none" stroke="#000000" stroke-miterlimit="10" x1="43.1" y1="117.6" x2="26.7" y2="127.2"/>
					
						<line clip-path="url(#SVGID_24_)" fill="none" stroke="#000000" stroke-miterlimit="10" x1="41.7" y1="115.1" x2="25.3" y2="124.8"/>
					
						<line clip-path="url(#SVGID_24_)" fill="none" stroke="#000000" stroke-miterlimit="10" x1="40.3" y1="112.7" x2="23.8" y2="122.4"/>
					
						<line clip-path="url(#SVGID_24_)" fill="none" stroke="#000000" stroke-miterlimit="10" x1="38.8" y1="110.3" x2="22.4" y2="119.9"/>
					
						<line clip-path="url(#SVGID_24_)" fill="none" stroke="#000000" stroke-miterlimit="10" x1="37" y1="108.1" x2="21.3" y2="117.3"/>
				</g>
			</g>
			<g>
				<circle fill="#746367" stroke="#000000" stroke-miterlimit="10" cx="148.5" cy="113.2" r="6.7"/>
				<g>
					<defs>
						<circle id="SVGID_25_" cx="148.5" cy="113.2" r="6.7"/>
					</defs>
					<clipPath id="SVGID_26_">
						<use xlink:href="#SVGID_25_"  overflow="visible"/>
					</clipPath>
					
						<line clip-path="url(#SVGID_26_)" fill="none" stroke="#000000" stroke-miterlimit="10" x1="159.8" y1="114.7" x2="143.4" y2="124.3"/>
					
						<line clip-path="url(#SVGID_26_)" fill="none" stroke="#000000" stroke-miterlimit="10" x1="158.4" y1="112.2" x2="141.9" y2="121.9"/>
					
						<line clip-path="url(#SVGID_26_)" fill="none" stroke="#000000" stroke-miterlimit="10" x1="156.9" y1="109.8" x2="140.5" y2="119.5"/>
					
						<line clip-path="url(#SVGID_26_)" fill="none" stroke="#000000" stroke-miterlimit="10" x1="155.5" y1="107.4" x2="139.1" y2="117"/>
					
						<line clip-path="url(#SVGID_26_)" fill="none" stroke="#000000" stroke-miterlimit="10" x1="154.1" y1="104.9" x2="137.6" y2="114.6"/>
					
						<line clip-path="url(#SVGID_26_)" fill="none" stroke="#000000" stroke-miterlimit="10" x1="152.2" y1="102.7" x2="136.5" y2="112"/>
				</g>
			</g>
			<g>
				<circle fill="#746367" stroke="#000000" stroke-miterlimit="10" cx="102.5" cy="85.1" r="6.7"/>
				<g>
					<defs>
						<circle id="SVGID_27_" cx="102.5" cy="85.1" r="6.7"/>
					</defs>
					<clipPath id="SVGID_28_">
						<use xlink:href="#SVGID_27_"  overflow="visible"/>
					</clipPath>
					
						<line clip-path="url(#SVGID_28_)" fill="none" stroke="#000000" stroke-miterlimit="10" x1="113.8" y1="86.6" x2="97.4" y2="96.3"/>
					
						<line clip-path="url(#SVGID_28_)" fill="none" stroke="#000000" stroke-miterlimit="10" x1="112.4" y1="84.2" x2="96" y2="93.8"/>
					
						<line clip-path="url(#SVGID_28_)" fill="none" stroke="#000000" stroke-miterlimit="10" x1="111" y1="81.7" x2="94.5" y2="91.4"/>
					
						<line clip-path="url(#SVGID_28_)" fill="none" stroke="#000000" stroke-miterlimit="10" x1="109.5" y1="79.3" x2="93.1" y2="89"/>
					
						<line clip-path="url(#SVGID_28_)" fill="none" stroke="#000000" stroke-miterlimit="10" x1="108.1" y1="76.9" x2="91.7" y2="86.5"/>
					
						<line clip-path="url(#SVGID_28_)" fill="none" stroke="#000000" stroke-miterlimit="10" x1="106.2" y1="74.7" x2="90.6" y2="83.9"/>
				</g>
			</g>
			<g>
				<circle fill="#746367" stroke="#000000" stroke-miterlimit="10" cx="169.9" cy="121.3" r="6.1"/>
				<circle fill="none" stroke="#000000" stroke-miterlimit="10" cx="169.9" cy="121.3" r="4"/>
				<circle fill="none" stroke="#000000" stroke-miterlimit="10" cx="169.9" cy="121.3" r="1.7"/>
			</g>
			<path fill="none" stroke="#000000" stroke-miterlimit="10" d="M102.9,121.8c-1,2.4-3.8,3.5-6.2,2.5c-2.4-1-3.5-3.8-2.5-6.2
				c1-2.4,3.8-3.5,6.2-2.5C102.8,116.6,103.9,119.3,102.9,121.8z"/>
			<path fill="none" stroke="#000000" stroke-miterlimit="10" d="M187.8,114.8c-1,2.4-3.8,3.5-6.2,2.5c-2.4-1-3.5-3.8-2.5-6.2
				c1-2.4,3.8-3.5,6.2-2.5C187.7,109.6,188.8,112.4,187.8,114.8z"/>
			<path fill="none" stroke="#000000" stroke-miterlimit="10" d="M234.4,150.7c-1,2.4-3.8,3.5-6.2,2.5c-2.4-1-3.5-3.8-2.5-6.2
				c1-2.4,3.8-3.5,6.2-2.5C234.3,145.5,235.4,148.3,234.4,150.7z"/>
			<path fill="none" stroke="#000000" stroke-miterlimit="10" d="M208,178.7c-1,2.4-3.8,3.5-6.2,2.5c-2.4-1-3.5-3.8-2.5-6.2
				c1-2.4,3.8-3.5,6.2-2.5C207.9,173.5,209,176.3,208,178.7z"/>
			<circle fill="none" stroke="#000000" stroke-miterlimit="10" cx="98.4" cy="26.5" r="4.7"/>
			<path fill="none" stroke="#000000" stroke-miterlimit="10" d="M147.1,35.2c-1,2.4-3.8,3.5-6.2,2.5c-2.4-1-3.5-3.8-2.5-6.2
				c1-2.4,3.8-3.5,6.2-2.5C147,30,148.1,32.8,147.1,35.2z"/>
			<path fill="none" stroke="#000000" stroke-miterlimit="10" d="M124.1,7.6c-1,2.4-3.8,3.5-6.2,2.5c-2.4-1-3.5-3.8-2.5-6.2
				c1-2.4,3.8-3.5,6.2-2.5C124,2.4,125.2,5.2,124.1,7.6z"/>
			<path fill="none" stroke="#000000" stroke-miterlimit="10" d="M10.1,88.7c-1,2.4-3.8,3.5-6.2,2.5c-2.4-1-3.5-3.8-2.5-6.2
				c1-2.4,3.8-3.5,6.2-2.5C10,83.5,11.1,86.3,10.1,88.7z"/>
			<path fill="none" stroke="#000000" stroke-miterlimit="10" d="M218.4,137.2c-1,2.4-3.8,3.5-6.2,2.5c-2.4-1-3.5-3.8-2.5-6.2
				c1-2.4,3.8-3.5,6.2-2.5C218.3,132,219.4,134.8,218.4,137.2z"/>
			<circle fill="none" stroke="#000000" stroke-miterlimit="10" cx="69.1" cy="71.5" r="4.7"/>
		</g>
	</g>
</g>
</svg>
