<?xml version="1.0" encoding="utf-8"?>
<!DOCTYPE svg PUBLIC "-//W3C//DTD SVG 1.1//EN" "http://www.w3.org/Graphics/SVG/1.1/DTD/svg11.dtd">
<svg version="1.1" xmlns="http://www.w3.org/2000/svg" xmlns:xlink="http://www.w3.org/1999/xlink" x="0px" y="0px" width="246px"
	 height="87px" viewBox="0 0 246 87" enable-background="new 0 0 246 87" xml:space="preserve">
<g>
	<g>
		<path fill="none" stroke="#0F0F0F" stroke-miterlimit="10" d="M27.794,17.946c0,5.957-4.827,10.787-10.784,10.787
			c-5.963,0-10.788-4.83-10.788-10.787c0-5.957,4.825-10.787,10.788-10.787C22.968,7.159,27.794,11.989,27.794,17.946z"/>
		<path fill="none" stroke="#0F0F0F" stroke-width="3" stroke-miterlimit="10" d="M31.762,17.946
			c0,8.148-6.605,14.754-14.751,14.754c-8.149,0-14.757-6.605-14.757-14.754c0-8.147,6.607-14.752,14.757-14.752
			C25.156,3.194,31.762,9.798,31.762,17.946z"/>
		<path fill="#0F0F0F" stroke="#0F0F0F" stroke-miterlimit="10" d="M21.19,17.946c0,2.309-1.875,4.18-4.18,4.18
			c-2.309,0-4.18-1.871-4.18-4.18c0-2.307,1.872-4.177,4.18-4.177C19.315,13.769,21.19,15.639,21.19,17.946z"/>
		<path fill="none" stroke="#0F0F0F" stroke-miterlimit="10" d="M58.122,17.946c0,5.957-4.825,10.787-10.784,10.787
			c-5.955,0-10.79-4.83-10.79-10.787c0-5.957,4.835-10.787,10.79-10.787C53.297,7.159,58.122,11.989,58.122,17.946z"/>
		<path fill="none" stroke="#0F0F0F" stroke-width="3" stroke-miterlimit="10" d="M62.092,17.946
			c0,8.148-6.608,14.754-14.754,14.754c-8.146,0-14.754-6.605-14.754-14.754c0-8.147,6.607-14.752,14.754-14.752
			C55.483,3.194,62.092,9.798,62.092,17.946z"/>
		<circle fill="#0F0F0F" stroke="#0F0F0F" stroke-miterlimit="10" cx="47.338" cy="17.946" r="4.179"/>
		<circle fill="none" stroke="#0F0F0F" stroke-miterlimit="10" cx="77.669" cy="17.946" r="10.787"/>
		<path fill="none" stroke="#0F0F0F" stroke-width="3" stroke-miterlimit="10" d="M92.424,17.946
			c0,8.148-6.607,14.754-14.754,14.754c-8.151,0-14.752-6.605-14.752-14.754c0-8.147,6.601-14.752,14.752-14.752
			C85.816,3.194,92.424,9.798,92.424,17.946z"/>
		<path fill="#0F0F0F" stroke="#0F0F0F" stroke-miterlimit="10" d="M81.844,17.946c0,2.309-1.866,4.18-4.174,4.18
			c-2.312,0-4.183-1.871-4.183-4.18c0-2.307,1.87-4.177,4.183-4.177C79.978,13.769,81.844,15.639,81.844,17.946z"/>
		<circle fill="none" stroke="#0F0F0F" stroke-miterlimit="10" cx="107.995" cy="17.946" r="10.788"/>
		<circle fill="none" stroke="#0F0F0F" stroke-width="3" stroke-miterlimit="10" cx="107.998" cy="17.946" r="14.754"/>
		<circle fill="#0F0F0F" stroke="#0F0F0F" stroke-miterlimit="10" cx="107.997" cy="17.946" r="4.179"/>
		<path fill="none" stroke="#0F0F0F" stroke-miterlimit="10" d="M149.117,17.946c0,5.957-4.832,10.787-10.785,10.787
			c-5.963,0-10.791-4.83-10.791-10.787c0-5.957,4.827-10.787,10.791-10.787C144.286,7.159,149.117,11.989,149.117,17.946z"/>
		<path fill="none" stroke="#0F0F0F" stroke-width="3" stroke-miterlimit="10" d="M153.083,17.946
			c0,8.148-6.605,14.754-14.75,14.754c-8.148,0-14.756-6.605-14.756-14.754c0-8.147,6.607-14.752,14.756-14.752
			C146.478,3.194,153.083,9.798,153.083,17.946z"/>
		<path fill="#0F0F0F" stroke="#0F0F0F" stroke-miterlimit="10" d="M142.508,17.946c0,2.309-1.871,4.18-4.175,4.18
			c-2.313,0-4.181-1.871-4.181-4.18c0-2.307,1.868-4.177,4.181-4.177C140.637,13.769,142.508,15.639,142.508,17.946z"/>
		<circle fill="none" stroke="#0F0F0F" stroke-miterlimit="10" cx="168.66" cy="17.946" r="10.787"/>
		<circle fill="none" stroke="#0F0F0F" stroke-width="3" stroke-miterlimit="10" cx="168.659" cy="17.946" r="14.754"/>
		<circle fill="#0F0F0F" stroke="#0F0F0F" stroke-miterlimit="10" cx="168.658" cy="17.946" r="4.179"/>
		<path fill="none" stroke="#0F0F0F" stroke-miterlimit="10" d="M209.776,17.946c0,5.957-4.828,10.787-10.785,10.787
			c-5.958,0-10.793-4.83-10.793-10.787c0-5.957,4.835-10.787,10.793-10.787C204.948,7.159,209.776,11.989,209.776,17.946z"/>
		<path fill="none" stroke="#0F0F0F" stroke-width="3" stroke-miterlimit="10" d="M213.742,17.946
			c0,8.148-6.607,14.754-14.75,14.754c-8.148,0-14.752-6.605-14.752-14.754c0-8.147,6.604-14.752,14.752-14.752
			C207.135,3.194,213.742,9.798,213.742,17.946z"/>
		<circle fill="#0F0F0F" stroke="#0F0F0F" stroke-miterlimit="10" cx="198.989" cy="17.946" r="4.178"/>
		<path fill="none" stroke="#0F0F0F" stroke-miterlimit="10" d="M240.106,17.946c0,5.957-4.83,10.787-10.787,10.787
			c-5.961,0-10.786-4.83-10.786-10.787c0-5.957,4.825-10.787,10.786-10.787C235.276,7.159,240.106,11.989,240.106,17.946z"/>
		<circle fill="none" stroke="#0F0F0F" stroke-width="3" stroke-miterlimit="10" cx="229.318" cy="17.946" r="14.754"/>
		<circle fill="#0F0F0F" stroke="#0F0F0F" stroke-miterlimit="10" cx="229.317" cy="17.946" r="4.178"/>
		<path fill="none" stroke="#0F0F0F" stroke-miterlimit="10" d="M42.959,43.581c0,5.957-4.826,10.786-10.782,10.786
			c-5.96,0-10.792-4.829-10.792-10.786c0-5.958,4.832-10.786,10.792-10.786C38.133,32.795,42.959,37.624,42.959,43.581z"/>
		<path fill="none" stroke="#0F0F0F" stroke-width="3" stroke-miterlimit="10" d="M46.926,43.581
			c0,8.148-6.608,14.754-14.749,14.754c-8.148,0-14.754-6.606-14.754-14.754c0-8.148,6.606-14.752,14.754-14.752
			C40.318,28.829,46.926,35.433,46.926,43.581z"/>
		<path fill="#0F0F0F" stroke="#0F0F0F" stroke-miterlimit="10" d="M36.351,43.581c0,2.309-1.866,4.18-4.174,4.18
			c-2.312,0-4.181-1.871-4.181-4.18c0-2.308,1.869-4.178,4.181-4.178C34.484,39.403,36.351,41.273,36.351,43.581z"/>
		<circle fill="none" stroke="#0F0F0F" stroke-miterlimit="10" cx="62.5" cy="43.581" r="10.788"/>
		<circle fill="none" stroke="#0F0F0F" stroke-width="3" stroke-miterlimit="10" cx="62.503" cy="43.581" r="14.752"/>
		<circle fill="#0F0F0F" stroke="#0F0F0F" stroke-miterlimit="10" cx="62.5" cy="43.581" r="4.178"/>
		<circle fill="none" stroke="#0F0F0F" stroke-miterlimit="10" cx="92.829" cy="43.581" r="10.787"/>
		<path fill="none" stroke="#0F0F0F" stroke-width="3" stroke-miterlimit="10" d="M107.586,43.581
			c0,8.148-6.604,14.754-14.754,14.754c-8.146,0-14.75-6.606-14.75-14.754c0-8.148,6.604-14.752,14.75-14.752
			C100.982,28.829,107.586,35.433,107.586,43.581z"/>
		<path fill="#0F0F0F" stroke="#0F0F0F" stroke-miterlimit="10" d="M97.011,43.581c0,2.309-1.874,4.18-4.179,4.18
			c-2.306,0-4.179-1.871-4.179-4.18c0-2.308,1.874-4.178,4.179-4.178C95.137,39.403,97.011,41.273,97.011,43.581z"/>
		<path fill="none" stroke="#0F0F0F" stroke-miterlimit="10" d="M133.95,43.581c0,5.957-4.83,10.786-10.785,10.786
			c-5.962,0-10.789-4.829-10.789-10.786c0-5.958,4.827-10.786,10.789-10.786C129.12,32.795,133.95,37.624,133.95,43.581z"/>
		<circle fill="none" stroke="#0F0F0F" stroke-width="3" stroke-miterlimit="10" cx="123.164" cy="43.581" r="14.754"/>
		<path fill="#0F0F0F" stroke="#0F0F0F" stroke-miterlimit="10" d="M127.341,43.581c0,2.309-1.87,4.18-4.175,4.18
			c-2.309,0-4.184-1.871-4.184-4.18c0-2.308,1.875-4.178,4.184-4.178C125.471,39.403,127.341,41.273,127.341,43.581z"/>
		<path fill="none" stroke="#0F0F0F" stroke-miterlimit="10" d="M164.278,43.581c0,5.957-4.822,10.786-10.786,10.786
			c-5.958,0-10.786-4.829-10.786-10.786c0-5.958,4.828-10.786,10.786-10.786C159.456,32.795,164.278,37.624,164.278,43.581z"/>
		<circle fill="none" stroke="#0F0F0F" stroke-width="3" stroke-miterlimit="10" cx="153.494" cy="43.581" r="14.754"/>
		<circle fill="#0F0F0F" stroke="#0F0F0F" stroke-miterlimit="10" cx="153.492" cy="43.581" r="4.179"/>
		<circle fill="none" stroke="#0F0F0F" stroke-miterlimit="10" cx="183.823" cy="43.581" r="10.787"/>
		<path fill="none" stroke="#0F0F0F" stroke-width="3" stroke-miterlimit="10" d="M198.576,43.581
			c0,8.148-6.604,14.754-14.75,14.754c-8.152,0-14.754-6.606-14.754-14.754c0-8.148,6.602-14.752,14.754-14.752
			C191.973,28.829,198.576,35.433,198.576,43.581z"/>
		<path fill="#0F0F0F" stroke="#0F0F0F" stroke-miterlimit="10" d="M188.002,43.581c0,2.309-1.872,4.18-4.176,4.18
			c-2.311,0-4.181-1.871-4.181-4.18c0-2.308,1.87-4.178,4.181-4.178C186.13,39.403,188.002,41.273,188.002,43.581z"/>
		<path fill="none" stroke="#0F0F0F" stroke-miterlimit="10" d="M224.938,43.581c0,5.957-4.824,10.786-10.784,10.786
			c-5.96,0-10.789-4.829-10.789-10.786c0-5.958,4.829-10.786,10.789-10.786C220.113,32.795,224.938,37.624,224.938,43.581z"/>
		<circle fill="none" stroke="#0F0F0F" stroke-width="3" stroke-miterlimit="10" cx="214.153" cy="43.581" r="14.754"/>
		<circle fill="#0F0F0F" stroke="#0F0F0F" stroke-miterlimit="10" cx="214.152" cy="43.581" r="4.178"/>
		<path fill="none" stroke="#0F0F0F" stroke-miterlimit="10" d="M27.794,69.639c0,5.956-4.827,10.787-10.784,10.787
			c-5.963,0-10.788-4.831-10.788-10.787c0-5.957,4.825-10.786,10.788-10.786C22.968,58.853,27.794,63.682,27.794,69.639z"/>
		<path fill="none" stroke="#0F0F0F" stroke-width="3" stroke-miterlimit="10" d="M31.762,69.639
			c0,8.148-6.605,14.754-14.751,14.754c-8.149,0-14.757-6.606-14.757-14.754c0-8.146,6.607-14.752,14.757-14.752
			C25.156,54.886,31.762,61.492,31.762,69.639z"/>
		<path fill="#0F0F0F" stroke="#0F0F0F" stroke-miterlimit="10" d="M21.19,69.639c0,2.31-1.875,4.179-4.18,4.179
			c-2.309,0-4.18-1.87-4.18-4.179c0-2.306,1.872-4.177,4.18-4.177C19.315,65.461,21.19,67.333,21.19,69.639z"/>
		<path fill="none" stroke="#0F0F0F" stroke-miterlimit="10" d="M58.122,69.639c0,5.956-4.825,10.787-10.784,10.787
			c-5.955,0-10.79-4.831-10.79-10.787c0-5.957,4.835-10.786,10.79-10.786C53.297,58.853,58.122,63.682,58.122,69.639z"/>
		<path fill="none" stroke="#0F0F0F" stroke-width="3" stroke-miterlimit="10" d="M62.092,69.639
			c0,8.148-6.608,14.754-14.754,14.754c-8.146,0-14.754-6.606-14.754-14.754c0-8.146,6.607-14.752,14.754-14.752
			C55.483,54.886,62.092,61.492,62.092,69.639z"/>
		<circle fill="#0F0F0F" stroke="#0F0F0F" stroke-miterlimit="10" cx="47.338" cy="69.639" r="4.179"/>
		<circle fill="none" stroke="#0F0F0F" stroke-miterlimit="10" cx="77.669" cy="69.639" r="10.787"/>
		<path fill="none" stroke="#0F0F0F" stroke-width="3" stroke-miterlimit="10" d="M92.424,69.639
			c0,8.148-6.607,14.754-14.754,14.754c-8.151,0-14.752-6.606-14.752-14.754c0-8.146,6.601-14.752,14.752-14.752
			C85.816,54.886,92.424,61.492,92.424,69.639z"/>
		<path fill="#0F0F0F" stroke="#0F0F0F" stroke-miterlimit="10" d="M81.844,69.639c0,2.31-1.866,4.179-4.174,4.179
			c-2.312,0-4.183-1.87-4.183-4.179c0-2.306,1.87-4.177,4.183-4.177C79.978,65.461,81.844,67.333,81.844,69.639z"/>
		<circle fill="none" stroke="#0F0F0F" stroke-miterlimit="10" cx="107.995" cy="69.639" r="10.788"/>
		<circle fill="none" stroke="#0F0F0F" stroke-width="3" stroke-miterlimit="10" cx="107.998" cy="69.639" r="14.754"/>
		<circle fill="#0F0F0F" stroke="#0F0F0F" stroke-miterlimit="10" cx="107.997" cy="69.639" r="4.179"/>
		<path fill="none" stroke="#0F0F0F" stroke-miterlimit="10" d="M149.117,69.639c0,5.956-4.832,10.787-10.785,10.787
			c-5.963,0-10.791-4.831-10.791-10.787c0-5.957,4.827-10.786,10.791-10.786C144.286,58.853,149.117,63.682,149.117,69.639z"/>
		<path fill="none" stroke="#0F0F0F" stroke-width="3" stroke-miterlimit="10" d="M153.083,69.639
			c0,8.148-6.605,14.754-14.75,14.754c-8.148,0-14.756-6.606-14.756-14.754c0-8.146,6.607-14.752,14.756-14.752
			C146.478,54.886,153.083,61.492,153.083,69.639z"/>
		<path fill="#0F0F0F" stroke="#0F0F0F" stroke-miterlimit="10" d="M142.508,69.639c0,2.31-1.871,4.179-4.175,4.179
			c-2.313,0-4.181-1.87-4.181-4.179c0-2.306,1.868-4.177,4.181-4.177C140.637,65.461,142.508,67.333,142.508,69.639z"/>
		<circle fill="none" stroke="#0F0F0F" stroke-miterlimit="10" cx="168.66" cy="69.639" r="10.787"/>
		<circle fill="none" stroke="#0F0F0F" stroke-width="3" stroke-miterlimit="10" cx="168.659" cy="69.639" r="14.754"/>
		<circle fill="#0F0F0F" stroke="#0F0F0F" stroke-miterlimit="10" cx="168.658" cy="69.639" r="4.179"/>
		<path fill="none" stroke="#0F0F0F" stroke-miterlimit="10" d="M209.776,69.639c0,5.956-4.828,10.787-10.785,10.787
			c-5.958,0-10.793-4.831-10.793-10.787c0-5.957,4.835-10.786,10.793-10.786C204.948,58.853,209.776,63.682,209.776,69.639z"/>
		<path fill="none" stroke="#0F0F0F" stroke-width="3" stroke-miterlimit="10" d="M213.742,69.639
			c0,8.148-6.607,14.754-14.75,14.754c-8.148,0-14.752-6.606-14.752-14.754c0-8.146,6.604-14.752,14.752-14.752
			C207.135,54.886,213.742,61.492,213.742,69.639z"/>
		<circle fill="#0F0F0F" stroke="#0F0F0F" stroke-miterlimit="10" cx="198.989" cy="69.639" r="4.178"/>
		<path fill="none" stroke="#0F0F0F" stroke-miterlimit="10" d="M240.106,69.639c0,5.956-4.83,10.787-10.787,10.787
			c-5.961,0-10.786-4.831-10.786-10.787c0-5.957,4.825-10.786,10.786-10.786C235.276,58.853,240.106,63.682,240.106,69.639z"/>
		<circle fill="none" stroke="#0F0F0F" stroke-width="3" stroke-miterlimit="10" cx="229.318" cy="69.639" r="14.754"/>
		<circle fill="#0F0F0F" stroke="#0F0F0F" stroke-miterlimit="10" cx="229.317" cy="69.639" r="4.178"/>
		<path fill="none" stroke="#0F0F0F" stroke-width="3" stroke-miterlimit="10" d="M2.11,58.853c0.002,0,0.002,0,0.003,0
			c8.147,0,14.752-6.606,14.752-14.754c0-8.149-6.605-14.753-14.752-14.753c-0.001,0-0.001,0-0.003,0"/>
		<path fill="none" stroke="#0F0F0F" stroke-miterlimit="10" d="M2.11,33.312c0.002,0,0.002,0,0.003,0
			c5.96,0,10.783,4.829,10.783,10.786c0,5.956-4.823,10.786-10.783,10.786c-0.001,0-0.001,0-0.003,0"/>
		<path fill="none" stroke="#0F0F0F" stroke-miterlimit="10" d="M2.11,54.885c0.002,0,0.002,0,0.003,0
			c5.96,0,10.783-4.83,10.783-10.786c0-5.958-4.823-10.786-10.783-10.786c-0.001,0-0.001,0-0.003,0"/>
		<path fill="#0F0F0F" d="M2.004,39.248c-0.002,0-0.004,0-0.004,0v8.854c0,0,0.002,0.001,0.004,0.001
			c2.438,0,4.422-1.986,4.422-4.428S4.442,39.248,2.004,39.248z"/>
		<path fill="none" stroke="#0F0F0F" stroke-width="3" stroke-miterlimit="10" d="M244.074,29.345c-0.001,0-0.003,0-0.003,0
			c-8.147,0-14.754,6.606-14.754,14.755c0,8.149,6.607,14.752,14.754,14.752c0,0,0.002,0,0.003,0"/>
		<path fill="none" stroke="#0F0F0F" stroke-miterlimit="10" d="M244.074,54.885c-0.001,0-0.003,0-0.003,0
			c-5.96,0-10.783-4.828-10.783-10.785c0-5.958,4.823-10.787,10.783-10.787c0,0,0.002,0,0.003,0"/>
		<path fill="none" stroke="#0F0F0F" stroke-miterlimit="10" d="M244.074,33.312c-0.001,0-0.003,0-0.003,0
			c-5.96,0-10.783,4.83-10.783,10.787c0,5.957,4.823,10.785,10.783,10.785c0,0,0.002,0,0.003,0"/>
		<path fill="#0F0F0F" d="M244.181,48.95c0.002,0,0.002,0,0.003,0v-8.855c-0.001,0-0.001,0-0.003,0c-2.44,0-4.423,1.986-4.423,4.427
			C239.758,46.963,241.74,48.95,244.181,48.95z"/>
	</g>
</g>
</svg>
