<?xml version="1.0" encoding="utf-8"?>
<!DOCTYPE svg PUBLIC "-//W3C//DTD SVG 1.1//EN" "http://www.w3.org/Graphics/SVG/1.1/DTD/svg11.dtd">
<svg version="1.1" xmlns="http://www.w3.org/2000/svg" xmlns:xlink="http://www.w3.org/1999/xlink" x="0px" y="0px" width="171px"
	 height="171px" viewBox="0 0 171 171" enable-background="new 0 0 171 171" xml:space="preserve">
<g>
	<path fill="#8C8083" d="M85.7,0C38.6,0,0.2,38.3,0.2,85.4c0,47.1,38.3,85.4,85.4,85.4c47.1,0,85.4-38.3,85.4-85.4
		C171.1,38.3,132.8,0,85.7,0z M85.7,145.2c-33,0-59.8-26.8-59.8-59.8c0-13.2,4.3-25.4,11.6-35.3l83.5,83.5
		C111.1,140.9,98.9,145.2,85.7,145.2z M135.2,118.9l-83-83c9.6-6.5,21.1-10.3,33.5-10.3c33,0,59.8,26.8,59.8,59.8
		C145.5,97.8,141.7,109.4,135.2,118.9z"/>
	<g id="_x30__1_">
		<line fill="#746367" stroke="#000000" stroke-miterlimit="10" x1="104.6" y1="168.6" x2="66.3" y2="168.6"/>
		<line fill="#746367" stroke="#000000" stroke-miterlimit="10" x1="117.2" y1="164.6" x2="53.7" y2="164.6"/>
		<line fill="#746367" stroke="#000000" stroke-miterlimit="10" x1="125.7" y1="160.7" x2="45.2" y2="160.7"/>
		<line fill="#746367" stroke="#000000" stroke-miterlimit="10" x1="132.3" y1="156.7" x2="38.5" y2="156.7"/>
		<line fill="#746367" stroke="#000000" stroke-miterlimit="10" x1="137.9" y1="152.7" x2="33" y2="152.7"/>
		<line fill="#746367" stroke="#000000" stroke-miterlimit="10" x1="142.6" y1="148.8" x2="28.3" y2="148.8"/>
		<line fill="#746367" stroke="#000000" stroke-miterlimit="10" x1="146.7" y1="144.8" x2="91.6" y2="144.8"/>
		<line fill="#746367" stroke="#000000" stroke-miterlimit="10" x1="24.2" y1="144.8" x2="79.2" y2="144.8"/>
		<line fill="#746367" stroke="#000000" stroke-miterlimit="10" x1="150.3" y1="140.9" x2="107.6" y2="140.9"/>
		<line fill="#746367" stroke="#000000" stroke-miterlimit="10" x1="20.6" y1="140.9" x2="63.2" y2="140.9"/>
		<line fill="#746367" stroke="#000000" stroke-miterlimit="10" x1="153.5" y1="136.9" x2="115.7" y2="136.9"/>
		<line fill="#746367" stroke="#000000" stroke-miterlimit="10" x1="17.4" y1="136.9" x2="55.2" y2="136.9"/>
		<line fill="#746367" stroke="#000000" stroke-miterlimit="10" x1="156.4" y1="132.9" x2="120" y2="132.9"/>
		<line fill="#746367" stroke="#000000" stroke-miterlimit="10" x1="14.5" y1="132.9" x2="49.3" y2="132.9"/>
		<line fill="#746367" stroke="#000000" stroke-miterlimit="10" x1="158.9" y1="129" x2="116.1" y2="129"/>
		<line fill="#746367" stroke="#000000" stroke-miterlimit="10" x1="12" y1="129" x2="44.6" y2="129"/>
		<line fill="#746367" stroke="#000000" stroke-miterlimit="10" x1="9.8" y1="125" x2="40.7" y2="125"/>
		<line fill="#746367" stroke="#000000" stroke-miterlimit="10" x1="161.1" y1="125" x2="112.1" y2="125"/>
		<line fill="#746367" stroke="#000000" stroke-miterlimit="10" x1="163" y1="121" x2="108.1" y2="121"/>
		<line fill="#746367" stroke="#000000" stroke-miterlimit="10" x1="7.8" y1="121" x2="37.5" y2="121"/>
		<line fill="#746367" stroke="#000000" stroke-miterlimit="10" x1="104.2" y1="117.1" x2="133.2" y2="117.1"/>
		<line fill="#746367" stroke="#000000" stroke-miterlimit="10" x1="164.7" y1="117.1" x2="136.1" y2="117.1"/>
		<line fill="#746367" stroke="#000000" stroke-miterlimit="10" x1="6.1" y1="117.1" x2="34.8" y2="117.1"/>
		<line fill="#746367" stroke="#000000" stroke-miterlimit="10" x1="100.2" y1="113.1" x2="129.2" y2="113.1"/>
		<line fill="#746367" stroke="#000000" stroke-miterlimit="10" x1="166.2" y1="113.1" x2="138.4" y2="113.1"/>
		<line fill="#746367" stroke="#000000" stroke-miterlimit="10" x1="4.7" y1="113.1" x2="32.5" y2="113.1"/>
		<line fill="#746367" stroke="#000000" stroke-miterlimit="10" x1="3.4" y1="109.1" x2="30.6" y2="109.1"/>
		<line fill="#746367" stroke="#000000" stroke-miterlimit="10" x1="167.5" y1="109.1" x2="140.3" y2="109.1"/>
		<line fill="#746367" stroke="#000000" stroke-miterlimit="10" x1="125.2" y1="109.1" x2="96.3" y2="109.1"/>
		<line fill="#746367" stroke="#000000" stroke-miterlimit="10" x1="2.3" y1="105.2" x2="29" y2="105.2"/>
		<line fill="#746367" stroke="#000000" stroke-miterlimit="10" x1="121.3" y1="105.2" x2="92.3" y2="105.2"/>
		<line fill="#746367" stroke="#000000" stroke-miterlimit="10" x1="168.5" y1="105.2" x2="141.9" y2="105.2"/>
		<line fill="#746367" stroke="#000000" stroke-miterlimit="10" x1="169.4" y1="101.2" x2="143.1" y2="101.2"/>
		<line fill="#746367" stroke="#000000" stroke-miterlimit="10" x1="117.3" y1="101.2" x2="88.3" y2="101.2"/>
		<line fill="#746367" stroke="#000000" stroke-miterlimit="10" x1="1.5" y1="101.2" x2="27.8" y2="101.2"/>
		<line fill="#746367" stroke="#000000" stroke-miterlimit="10" x1="170" y1="97.2" x2="144" y2="97.2"/>
		<line fill="#746367" stroke="#000000" stroke-miterlimit="10" x1="0.8" y1="97.2" x2="26.8" y2="97.2"/>
		<line fill="#746367" stroke="#000000" stroke-miterlimit="10" x1="113.3" y1="97.2" x2="84.4" y2="97.2"/>
		<line fill="#746367" stroke="#000000" stroke-miterlimit="10" x1="109.4" y1="93.3" x2="80.4" y2="93.3"/>
		<line fill="#746367" stroke="#000000" stroke-miterlimit="10" x1="170.5" y1="93.3" x2="144.7" y2="93.3"/>
		<line fill="#746367" stroke="#000000" stroke-miterlimit="10" x1="0.4" y1="93.3" x2="26.2" y2="93.3"/>
		<line fill="#746367" stroke="#000000" stroke-miterlimit="10" x1="170.8" y1="89.3" x2="145.1" y2="89.3"/>
		<line fill="#746367" stroke="#000000" stroke-miterlimit="10" x1="105.4" y1="89.3" x2="76.4" y2="89.3"/>
		<line fill="#746367" stroke="#000000" stroke-miterlimit="10" x1="0.1" y1="89.3" x2="25.8" y2="89.3"/>
		<line fill="#746367" stroke="#000000" stroke-miterlimit="10" x1="0" y1="85.4" x2="25.6" y2="85.4"/>
		<line fill="#746367" stroke="#000000" stroke-miterlimit="10" x1="101.4" y1="85.4" x2="72.5" y2="85.4"/>
		<line fill="#746367" stroke="#000000" stroke-miterlimit="10" x1="170.9" y1="85.4" x2="145.2" y2="85.4"/>
		<line fill="#746367" stroke="#000000" stroke-miterlimit="10" x1="97.5" y1="81.4" x2="68.5" y2="81.4"/>
		<line fill="#746367" stroke="#000000" stroke-miterlimit="10" x1="0.1" y1="81.4" x2="25.8" y2="81.4"/>
		<line fill="#746367" stroke="#000000" stroke-miterlimit="10" x1="170.8" y1="81.4" x2="145.1" y2="81.4"/>
		<line fill="#746367" stroke="#000000" stroke-miterlimit="10" x1="170.5" y1="77.4" x2="144.7" y2="77.4"/>
		<line fill="#746367" stroke="#000000" stroke-miterlimit="10" x1="93.5" y1="77.4" x2="64.5" y2="77.4"/>
		<line fill="#746367" stroke="#000000" stroke-miterlimit="10" x1="0.4" y1="77.4" x2="26.2" y2="77.4"/>
		<line fill="#746367" stroke="#000000" stroke-miterlimit="10" x1="170" y1="73.5" x2="144" y2="73.5"/>
		<line fill="#746367" stroke="#000000" stroke-miterlimit="10" x1="0.8" y1="73.5" x2="26.8" y2="73.5"/>
		<line fill="#746367" stroke="#000000" stroke-miterlimit="10" x1="89.5" y1="73.5" x2="60.6" y2="73.5"/>
		<line fill="#746367" stroke="#000000" stroke-miterlimit="10" x1="168.5" y1="65.5" x2="141.8" y2="65.5"/>
		<line fill="#746367" stroke="#000000" stroke-miterlimit="10" x1="81.6" y1="65.5" x2="52.6" y2="65.5"/>
		<line fill="#746367" stroke="#000000" stroke-miterlimit="10" x1="2.3" y1="65.5" x2="29" y2="65.5"/>
		<line fill="#746367" stroke="#000000" stroke-miterlimit="10" x1="167.5" y1="61.6" x2="140.3" y2="61.6"/>
		<line fill="#746367" stroke="#000000" stroke-miterlimit="10" x1="3.4" y1="61.6" x2="30.6" y2="61.6"/>
		<line fill="#746367" stroke="#000000" stroke-miterlimit="10" x1="77.6" y1="61.6" x2="48.7" y2="61.6"/>
		<line fill="#746367" stroke="#000000" stroke-miterlimit="10" x1="166.2" y1="57.6" x2="138.4" y2="57.6"/>
		<line fill="#746367" stroke="#000000" stroke-miterlimit="10" x1="4.7" y1="57.6" x2="32.5" y2="57.6"/>
		<line fill="#746367" stroke="#000000" stroke-miterlimit="10" x1="73.7" y1="57.6" x2="44.7" y2="57.6"/>
		<line fill="#746367" stroke="#000000" stroke-miterlimit="10" x1="6.1" y1="53.6" x2="34.8" y2="53.6"/>
		<line fill="#746367" stroke="#000000" stroke-miterlimit="10" x1="164.7" y1="53.6" x2="136.1" y2="53.6"/>
		<line fill="#746367" stroke="#000000" stroke-miterlimit="10" x1="69.7" y1="53.6" x2="40.8" y2="53.6"/>
		<line fill="#746367" stroke="#000000" stroke-miterlimit="10" x1="7.8" y1="49.7" x2="65.8" y2="49.7"/>
		<line fill="#746367" stroke="#000000" stroke-miterlimit="10" x1="163" y1="49.7" x2="133.4" y2="49.7"/>
		<line fill="#746367" stroke="#000000" stroke-miterlimit="10" x1="9.8" y1="45.7" x2="61.8" y2="45.7"/>
		<line fill="#746367" stroke="#000000" stroke-miterlimit="10" x1="161.1" y1="45.7" x2="130.1" y2="45.7"/>
		<line fill="#746367" stroke="#000000" stroke-miterlimit="10" x1="12" y1="41.7" x2="57.8" y2="41.7"/>
		<line fill="#746367" stroke="#000000" stroke-miterlimit="10" x1="158.9" y1="41.7" x2="126.3" y2="41.7"/>
		<line fill="#746367" stroke="#000000" stroke-miterlimit="10" x1="153.5" y1="33.8" x2="115.7" y2="33.8"/>
		<line fill="#746367" stroke="#000000" stroke-miterlimit="10" x1="17.3" y1="33.8" x2="55.2" y2="33.8"/>
		<line fill="#746367" stroke="#000000" stroke-miterlimit="10" x1="20.6" y1="29.8" x2="63.2" y2="29.8"/>
		<line fill="#746367" stroke="#000000" stroke-miterlimit="10" x1="150.3" y1="29.8" x2="107.6" y2="29.8"/>
		<line fill="#746367" stroke="#000000" stroke-miterlimit="10" x1="146.7" y1="25.9" x2="91.7" y2="25.9"/>
		<line fill="#746367" stroke="#000000" stroke-miterlimit="10" x1="24.2" y1="25.9" x2="79.3" y2="25.9"/>
		<line fill="#746367" stroke="#000000" stroke-miterlimit="10" x1="142.6" y1="21.9" x2="28.3" y2="21.9"/>
		<line fill="#746367" stroke="#000000" stroke-miterlimit="10" x1="137.9" y1="18" x2="33" y2="18"/>
		<line fill="#746367" stroke="#000000" stroke-miterlimit="10" x1="132.3" y1="14" x2="38.5" y2="14"/>
		<line fill="#746367" stroke="#000000" stroke-miterlimit="10" x1="125.7" y1="10" x2="45.2" y2="10"/>
		<line fill="#746367" stroke="#000000" stroke-miterlimit="10" x1="117.2" y1="6.1" x2="53.7" y2="6.1"/>
		<line fill="#746367" stroke="#000000" stroke-miterlimit="10" x1="104.6" y1="2.1" x2="66.3" y2="2.1"/>
		<line fill="#746367" stroke="#000000" stroke-miterlimit="10" x1="156.4" y1="37.8" x2="121.6" y2="37.8"/>
		<line fill="#746367" stroke="#000000" stroke-miterlimit="10" x1="14.5" y1="37.8" x2="53.9" y2="37.8"/>
		<line fill="#746367" stroke="#000000" stroke-miterlimit="10" x1="1.5" y1="69.5" x2="27.8" y2="69.5"/>
		<line fill="#746367" stroke="#000000" stroke-miterlimit="10" x1="169.4" y1="69.5" x2="143.1" y2="69.5"/>
		<line fill="#746367" stroke="#000000" stroke-miterlimit="10" x1="85.6" y1="69.5" x2="56.6" y2="69.5"/>
	</g>
</g>
</svg>
