<?xml version="1.0" encoding="utf-8"?>
<!DOCTYPE svg PUBLIC "-//W3C//DTD SVG 1.1//EN" "http://www.w3.org/Graphics/SVG/1.1/DTD/svg11.dtd">
<svg version="1.1" xmlns="http://www.w3.org/2000/svg" xmlns:xlink="http://www.w3.org/1999/xlink" x="0px" y="0px" width="72px"
	 height="70px" viewBox="0 0 72 70" enable-background="new 0 0 72 70" xml:space="preserve">
<g>
	<path fill="#0F0F0F" d="M71.6,22.5c0-4.6-2.1-9-6-12.6c-1.5-1.5-3.2-2.9-5.3-4.2l-0.1,0.2L60,5.7L49,22.1c-3.2-2.4-7.3-3-10.5-3
		c-1.5,0-2.8,0.1-3.7,0.2l-6-19l-0.1,0L28.6,0C12.5,2.5,0,11.8,0,22.5c0,3.7,2.6,8.4,6.1,12.5l6.7,26.2l0.3,0.3
		c5.6,6.3,11.4,7.5,20.2,7.5c15.2,0,21.4-7.4,21.6-7.7L55,61l9.3-24.9C68.9,32.3,71.6,27.6,71.6,22.5z M34.1,22.7
		c0,0,1.9-0.4,4.4-0.4c3,0,7.1,0.6,9.6,3.3l1.4,1.5l10.8-16c4.5,3.5,6.6,7.3,6.6,11.4c0,8-9.9,15.6-23.2,17.9l-0.4,0.9l-0.1,0
		l-2.9,5.8c-1.9-0.3-3.9-0.5-5.9-0.5c-5.7,0-11.6,1.4-14.4,4L15.2,38l-0.1,0l-0.3-1.2C9.1,33.5,4.4,26.5,4.4,22.5
		C4.4,14.7,14.5,7.7,26.9,5l5.7,18L34.1,22.7z M30.9,56.6C30.9,56.6,30.9,56.6,30.9,56.6c-0.5,0-0.9,0-1.4-0.1c-0.1,0-0.2,0-0.3,0
		c-0.4,0-0.8-0.1-1.2-0.2c-0.1,0-0.2-0.1-0.4-0.1c-0.3-0.1-0.7-0.2-1-0.3c-0.1,0-0.3-0.1-0.4-0.1c-0.2-0.1-0.5-0.2-0.7-0.2
		c-0.2-0.1-0.3-0.1-0.5-0.2c-0.3-0.1-0.5-0.2-0.7-0.3c-0.2-0.1-0.3-0.2-0.5-0.2c-0.1-0.1-0.2-0.1-0.3-0.2c-0.3-0.1-0.5-0.3-0.7-0.4
		c-0.1,0-0.1-0.1-0.2-0.1c-0.3-0.2-0.5-0.3-0.7-0.4c0,0-0.1,0-0.1-0.1c-0.1,0-0.1-0.1-0.2-0.1c1.1-1.8,5.9-3.8,12.8-3.8
		c1.5,0,3,0.1,4.5,0.3l-2.7,5.4C34.4,56.2,32.7,56.6,30.9,56.6z M52.2,59.4c-1,1-6.7,6.4-19,6.4c-9,0-13.3-1.5-17.6-6.2l-5.2-20.4
		c0.8,0.7,1.7,1.3,2.5,1.8l5.1,13.8l0,0.2l0.7,0.5c0,0,0,0,0,0c0.1,0,0.1,0.1,0.2,0.2c0,0,0.1,0,0.1,0.1c0,0,0,0,0,0
		c0,0,0,0,0.1,0.1c0,0,0,0,0.1,0c0.1,0.1,0.2,0.1,0.2,0.2c0,0,0.1,0.1,0.1,0.1c0.1,0.1,0.3,0.2,0.4,0.3c0,0,0.1,0,0.1,0.1
		c0.2,0.1,0.4,0.2,0.6,0.4c0,0,0,0,0,0c1.3,0.8,3.1,1.7,5.3,2.3c0,0,0.1,0,0.1,0c0.3,0.1,0.6,0.2,0.9,0.2c0.1,0,0.2,0,0.2,0.1
		c0.3,0.1,0.6,0.1,0.9,0.2c0,0,0.1,0,0.1,0c0.1,0,0.1,0,0.2,0c0.3,0,0.6,0.1,0.9,0.1c0.1,0,0.2,0,0.3,0c0.4,0,0.8,0,1.2,0h0
		c1.8,0,3.6-0.3,5.4-0.9l0,0c0.6-0.2,1.1-0.4,1.7-0.7l0.5-0.2l6.8-13.6c0.7-0.1,1.4-0.3,2-0.5c0,0,0.1,0,0.1,0
		c4.6-1,8.8-2.5,12.3-4.5L52.2,59.4z"/>
</g>
</svg>
