<?xml version="1.0" encoding="utf-8"?>
<!DOCTYPE svg PUBLIC "-//W3C//DTD SVG 1.1//EN" "http://www.w3.org/Graphics/SVG/1.1/DTD/svg11.dtd">
<svg version="1.1" xmlns="http://www.w3.org/2000/svg" xmlns:xlink="http://www.w3.org/1999/xlink" x="0px" y="0px" width="236px"
	 height="182px" viewBox="0 0 236 182" enable-background="new 0 0 236 182" xml:space="preserve">
<g>
	<g>
		<g>
			<line fill="none" stroke="#000000" stroke-miterlimit="10" x1="150.8" y1="35.5" x2="159.3" y2="15.2"/>
			<circle fill="none" stroke="#000000" stroke-miterlimit="10" cx="159.3" cy="15.2" r="4.7"/>
			<line fill="none" stroke="#000000" stroke-miterlimit="10" x1="174.1" y1="33.5" x2="161.7" y2="51.8"/>
			<circle fill="none" stroke="#000000" stroke-miterlimit="10" cx="161.7" cy="51.8" r="4.7"/>
			<circle cx="219" cy="59.8" r="5.5"/>
			<line fill="none" stroke="#000000" stroke-miterlimit="10" x1="222" y1="62.3" x2="203.8" y2="50.8"/>
			<line fill="none" stroke="#000000" stroke-miterlimit="10" x1="149.6" y1="108.6" x2="165.9" y2="120.5"/>
			<path fill="none" stroke="#000000" stroke-miterlimit="10" d="M169.9,125.4c-2.3,1.3-5.2,0.4-6.4-1.9c-1.3-2.3-0.4-5.2,1.9-6.4
				c2.3-1.3,5.2-0.4,6.4,1.9C173,121.3,172.2,124.2,169.9,125.4z"/>
			<line fill="none" stroke="#000000" stroke-miterlimit="10" x1="95" y1="119.4" x2="90.5" y2="104.2"/>
			<path fill="none" stroke="#000000" stroke-miterlimit="10" d="M93.4,100.5c2.1,1.6,2.4,4.6,0.8,6.7c-1.6,2.1-4.6,2.4-6.7,0.8
				c-2.1-1.6-2.4-4.6-0.8-6.7C88.4,99.2,91.4,98.9,93.4,100.5z"/>
			<line fill="none" stroke="#000000" stroke-miterlimit="10" x1="25.8" y1="129.5" x2="33.8" y2="150.5"/>
			<line fill="none" stroke="#000000" stroke-miterlimit="10" x1="112.9" y1="104" x2="99.4" y2="117.6"/>
			<line fill="none" stroke="#000000" stroke-miterlimit="10" x1="112" y1="101.7" x2="98.5" y2="115.3"/>
			<line fill="none" stroke="#000000" stroke-miterlimit="10" x1="143.3" y1="107.1" x2="122.2" y2="101.5"/>
			<line fill="none" stroke="#000000" stroke-miterlimit="10" x1="142.3" y1="104.7" x2="123.8" y2="99.6"/>
			<g>
				<line fill="none" stroke="#000000" stroke-miterlimit="10" x1="169" y1="153.2" x2="152.5" y2="139"/>
				<line fill="none" stroke="#000000" stroke-miterlimit="10" x1="169.2" y1="150.6" x2="154.7" y2="138"/>
			</g>
			<g>
				<line fill="none" stroke="#000000" stroke-miterlimit="10" x1="150.8" y1="134.2" x2="147.2" y2="112.7"/>
				<line fill="none" stroke="#000000" stroke-miterlimit="10" x1="152.6" y1="132.3" x2="149.5" y2="113.3"/>
			</g>
			<g>
				<line fill="none" stroke="#000000" stroke-miterlimit="10" x1="204.3" y1="102.6" x2="191.7" y2="84.8"/>
				<line fill="none" stroke="#000000" stroke-miterlimit="10" x1="205" y1="100.1" x2="194.1" y2="84.4"/>
			</g>
			<g>
				<line fill="none" stroke="#000000" stroke-miterlimit="10" x1="189.5" y1="74.8" x2="198.1" y2="54.8"/>
				<line fill="none" stroke="#000000" stroke-miterlimit="10" x1="192" y1="74.2" x2="199.7" y2="56.7"/>
			</g>
			<g>
				<line fill="none" stroke="#000000" stroke-miterlimit="10" x1="195.7" y1="48.1" x2="176.7" y2="37.6"/>
				<line fill="none" stroke="#000000" stroke-miterlimit="10" x1="198.3" y1="47.2" x2="178.7" y2="36.1"/>
			</g>
			<g>
				<line fill="none" stroke="#000000" stroke-miterlimit="10" x1="139.3" y1="57.8" x2="148" y2="37.8"/>
				<line fill="none" stroke="#000000" stroke-miterlimit="10" x1="140.4" y1="60.2" x2="149.6" y2="39.7"/>
			</g>
			<g>
				<line fill="none" stroke="#000000" stroke-miterlimit="10" x1="153.1" y1="31.7" x2="174.8" y2="33.2"/>
				<line fill="none" stroke="#000000" stroke-miterlimit="10" x1="151.1" y1="33.6" x2="173.6" y2="35.3"/>
			</g>
			<g>
				<line fill="none" stroke="#000000" stroke-miterlimit="10" x1="98.4" y1="145.4" x2="95.3" y2="123.9"/>
				<line fill="none" stroke="#000000" stroke-miterlimit="10" x1="100.2" y1="143.6" x2="97.6" y2="124.6"/>
			</g>
			<path d="M129.5,161.7c-2.8-1.1-4.2-4.3-3.1-7.2c1.1-2.8,4.3-4.2,7.2-3.1c2.8,1.1,4.2,4.3,3.1,7.2
				C135.5,161.5,132.3,162.8,129.5,161.7z"/>
			<path d="M93.6,172.6c-2.8-1.1-4.2-4.3-3.1-7.2c1.1-2.8,4.3-4.2,7.2-3.1c2.8,1.1,4.2,4.3,3.1,7.2
				C99.7,172.3,96.4,173.7,93.6,172.6z"/>
			<circle cx="59.2" cy="101.1" r="5.5"/>
			<path d="M116.3,81.1c-2.8-1.1-4.2-4.3-3.1-7.2c1.1-2.8,4.3-4.2,7.2-3.1c2.8,1.1,4.2,4.3,3.1,7.2
				C122.3,80.9,119.1,82.3,116.3,81.1z"/>
			<path d="M161.8,103.3c-2.8-1.1-4.2-4.3-3.1-7.2c1.1-2.8,4.3-4.2,7.2-3.1c2.8,1.1,4.2,4.3,3.1,7.2
				C167.9,103,164.7,104.4,161.8,103.3z"/>
			<path d="M183.3,174.7c-2.8-1.1-4.2-4.3-3.1-7.2c1.1-2.8,4.3-4.2,7.2-3.1c2.8,1.1,4.2,4.3,3.1,7.2
				C189.4,174.4,186.2,175.8,183.3,174.7z"/>
			<path d="M202.3,132.7c-2.8-1.1-4.2-4.3-3.1-7.2c1.1-2.8,4.3-4.2,7.2-3.1c2.8,1.1,4.2,4.3,3.1,7.2
				C208.4,132.5,205.2,133.9,202.3,132.7z"/>
			<circle cx="221.2" cy="95.3" r="5.5"/>
			<path d="M164.2,83.2c-2.8-1.1-4.2-4.3-3.1-7.2c1.1-2.8,4.3-4.2,7.2-3.1c2.8,1.1,4.2,4.3,3.1,7.2C170.2,82.9,167,84.3,164.2,83.2z
				"/>
			<path d="M133.6,25.8c-2.8-1.1-4.2-4.3-3.1-7.2c1.1-2.8,4.3-4.2,7.2-3.1c2.8,1.1,4.2,4.3,3.1,7.2
				C139.6,25.5,136.4,26.9,133.6,25.8z"/>
			<path fill="none" stroke="#000000" stroke-miterlimit="10" d="M125.4,28.8c-1-2.4,0.2-5.2,2.6-6.2c2.4-1,5.2,0.2,6.2,2.6
				c1,2.4-0.2,5.2-2.6,6.2C129.1,32.4,126.4,31.2,125.4,28.8z"/>
			<path fill="none" stroke="#000000" stroke-miterlimit="10" d="M164.6,107.8c-1-2.4,0.2-5.2,2.6-6.2c2.4-1,5.2,0.2,6.2,2.6
				c1,2.4-0.2,5.2-2.6,6.2C168.3,111.4,165.5,110.2,164.6,107.8z"/>
			<line fill="none" stroke="#000000" stroke-miterlimit="10" x1="150.4" y1="138.2" x2="132.9" y2="155.2"/>
			<line fill="none" stroke="#000000" stroke-miterlimit="10" x1="169.7" y1="155" x2="184.4" y2="169"/>
			<line fill="none" stroke="#000000" stroke-miterlimit="10" x1="128.1" y1="156.1" x2="103.6" y2="149.8"/>
			<line fill="none" stroke="#000000" stroke-miterlimit="10" x1="101.1" y1="148.4" x2="97.1" y2="164.8"/>
			<line fill="none" stroke="#000000" stroke-miterlimit="10" x1="204.6" y1="131.7" x2="206.6" y2="105.3"/>
			<line fill="none" stroke="#000000" stroke-miterlimit="10" x1="218.9" y1="97.2" x2="206.6" y2="105.2"/>
			<line fill="none" stroke="#000000" stroke-miterlimit="10" x1="183.6" y1="79.3" x2="169.3" y2="78.9"/>
			<line fill="none" stroke="#000000" stroke-miterlimit="10" x1="165.1" y1="77.5" x2="139.9" y2="63.1"/>
			<line fill="none" stroke="#000000" stroke-miterlimit="10" x1="192.6" y1="145.7" x2="171.2" y2="155.8"/>
			<line fill="none" stroke="#000000" stroke-miterlimit="10" x1="171.2" y1="155.8" x2="157.4" y2="170.5"/>
			<line fill="none" stroke="#000000" stroke-miterlimit="10" x1="91.5" y1="121" x2="75" y2="129.2"/>
			<line fill="none" stroke="#000000" stroke-miterlimit="10" x1="75" y1="129.2" x2="71.3" y2="144.6"/>
			<line fill="none" stroke="#000000" stroke-miterlimit="10" x1="59.3" y1="101.3" x2="50.3" y2="121"/>
			<line fill="none" stroke="#000000" stroke-miterlimit="10" x1="75" y1="129.2" x2="54" y2="121.5"/>
			<line fill="none" stroke="#000000" stroke-miterlimit="10" x1="48.8" y1="121.3" x2="28.3" y2="128.7"/>
			<line fill="none" stroke="#000000" stroke-miterlimit="10" x1="25.8" y1="129.5" x2="13.3" y2="150.3"/>
			<line fill="none" stroke="#000000" stroke-miterlimit="10" x1="22.9" y1="129.6" x2="12.9" y2="114.4"/>
			<line fill="none" stroke="#000000" stroke-miterlimit="10" x1="116.7" y1="96.9" x2="118.3" y2="76"/>
			<line fill="none" stroke="#000000" stroke-miterlimit="10" x1="135" y1="63.2" x2="118.3" y2="76"/>
			<line fill="none" stroke="#000000" stroke-miterlimit="10" x1="163.9" y1="98.2" x2="151.5" y2="105.8"/>
			<circle cx="178.5" cy="14.8" r="5.5"/>
			<circle fill="none" stroke="#000000" stroke-miterlimit="10" cx="187.5" cy="17.2" r="4.7"/>
			<line fill="none" stroke="#000000" stroke-miterlimit="10" x1="178.5" y1="14.8" x2="174.5" y2="28.7"/>
			<line fill="none" stroke="#000000" stroke-miterlimit="10" x1="136.2" y1="21.3" x2="151.2" y2="33.1"/>
			<line fill="none" stroke="#000000" stroke-miterlimit="10" x1="189" y1="80.3" x2="181.5" y2="93.2"/>
			<line fill="none" stroke="#000000" stroke-miterlimit="10" x1="203.5" y1="47.9" x2="215.5" y2="37.5"/>
			<g>
				<path fill="#746367" stroke="#000000" stroke-miterlimit="10" d="M196.7,55.3c-2.7-2.5-2.9-6.8-0.4-9.5c2.5-2.7,6.8-2.9,9.5-0.4
					c2.7,2.5,2.9,6.8,0.4,9.5C203.7,57.6,199.5,57.8,196.7,55.3z"/>
				<g>
					<defs>
						<path id="SVGID_29_" d="M196.7,55.3c-2.7-2.5-2.9-6.8-0.4-9.5c2.5-2.7,6.8-2.9,9.5-0.4c2.7,2.5,2.9,6.8,0.4,9.5
							C203.7,57.6,199.5,57.8,196.7,55.3z"/>
					</defs>
					<clipPath id="SVGID_30_">
						<use xlink:href="#SVGID_29_"  overflow="visible"/>
					</clipPath>
					
						<line clip-path="url(#SVGID_30_)" fill="none" stroke="#000000" stroke-miterlimit="10" x1="192.3" y1="57.3" x2="197" y2="38.8"/>
					
						<line clip-path="url(#SVGID_30_)" fill="none" stroke="#000000" stroke-miterlimit="10" x1="195" y1="58" x2="199.8" y2="39.5"/>
					
						<line clip-path="url(#SVGID_30_)" fill="none" stroke="#000000" stroke-miterlimit="10" x1="197.7" y1="58.7" x2="202.5" y2="40.3"/>
					
						<line clip-path="url(#SVGID_30_)" fill="none" stroke="#000000" stroke-miterlimit="10" x1="200.5" y1="59.4" x2="205.2" y2="41"/>
					
						<line clip-path="url(#SVGID_30_)" fill="none" stroke="#000000" stroke-miterlimit="10" x1="203.2" y1="60.1" x2="208" y2="41.7"/>
					
						<line clip-path="url(#SVGID_30_)" fill="none" stroke="#000000" stroke-miterlimit="10" x1="206.1" y1="60.3" x2="210.6" y2="42.8"/>
				</g>
			</g>
			<g>
				<circle fill="#746367" stroke="#000000" stroke-miterlimit="10" cx="188.9" cy="80.2" r="6.7"/>
				<g>
					<defs>
						<circle id="SVGID_31_" cx="188.9" cy="80.2" r="6.7"/>
					</defs>
					<clipPath id="SVGID_32_">
						<use xlink:href="#SVGID_31_"  overflow="visible"/>
					</clipPath>
					
						<line clip-path="url(#SVGID_32_)" fill="none" stroke="#000000" stroke-miterlimit="10" x1="179.8" y1="87.1" x2="184.6" y2="68.7"/>
					
						<line clip-path="url(#SVGID_32_)" fill="none" stroke="#000000" stroke-miterlimit="10" x1="182.6" y1="87.8" x2="187.3" y2="69.4"/>
					
						<line clip-path="url(#SVGID_32_)" fill="none" stroke="#000000" stroke-miterlimit="10" x1="185.3" y1="88.5" x2="190.1" y2="70.1"/>
					
						<line clip-path="url(#SVGID_32_)" fill="none" stroke="#000000" stroke-miterlimit="10" x1="188" y1="89.2" x2="192.8" y2="70.8"/>
					
						<line clip-path="url(#SVGID_32_)" fill="none" stroke="#000000" stroke-miterlimit="10" x1="190.8" y1="89.9" x2="195.6" y2="71.5"/>
					
						<line clip-path="url(#SVGID_32_)" fill="none" stroke="#000000" stroke-miterlimit="10" x1="193.6" y1="90.2" x2="198.2" y2="72.6"/>
				</g>
			</g>
			<g>
				<circle fill="#746367" stroke="#000000" stroke-miterlimit="10" cx="206.6" cy="105.3" r="6.7"/>
				<g>
					<defs>
						<circle id="SVGID_33_" cx="206.6" cy="105.3" r="6.7"/>
					</defs>
					<clipPath id="SVGID_34_">
						<use xlink:href="#SVGID_33_"  overflow="visible"/>
					</clipPath>
					
						<line clip-path="url(#SVGID_34_)" fill="none" stroke="#000000" stroke-miterlimit="10" x1="197.5" y1="112.2" x2="202.3" y2="93.8"/>
					
						<line clip-path="url(#SVGID_34_)" fill="none" stroke="#000000" stroke-miterlimit="10" x1="200.2" y1="112.9" x2="205" y2="94.5"/>
					
						<line clip-path="url(#SVGID_34_)" fill="none" stroke="#000000" stroke-miterlimit="10" x1="203" y1="113.6" x2="207.8" y2="95.2"/>
					
						<line clip-path="url(#SVGID_34_)" fill="none" stroke="#000000" stroke-miterlimit="10" x1="205.7" y1="114.4" x2="210.5" y2="95.9"/>
					
						<line clip-path="url(#SVGID_34_)" fill="none" stroke="#000000" stroke-miterlimit="10" x1="208.5" y1="115.1" x2="213.2" y2="96.6"/>
					
						<line clip-path="url(#SVGID_34_)" fill="none" stroke="#000000" stroke-miterlimit="10" x1="211.3" y1="115.3" x2="215.9" y2="97.7"/>
				</g>
			</g>
			<g>
				<circle fill="#746367" stroke="#000000" stroke-miterlimit="10" cx="152.3" cy="136.4" r="6.7"/>
				<g>
					<defs>
						<circle id="SVGID_35_" cx="152.3" cy="136.4" r="6.7"/>
					</defs>
					<clipPath id="SVGID_36_">
						<use xlink:href="#SVGID_35_"  overflow="visible"/>
					</clipPath>
					
						<line clip-path="url(#SVGID_36_)" fill="none" stroke="#000000" stroke-miterlimit="10" x1="143.2" y1="143.4" x2="148" y2="124.9"/>
					
						<line clip-path="url(#SVGID_36_)" fill="none" stroke="#000000" stroke-miterlimit="10" x1="146" y1="144.1" x2="150.7" y2="125.6"/>
					
						<line clip-path="url(#SVGID_36_)" fill="none" stroke="#000000" stroke-miterlimit="10" x1="148.7" y1="144.8" x2="153.5" y2="126.4"/>
					
						<line clip-path="url(#SVGID_36_)" fill="none" stroke="#000000" stroke-miterlimit="10" x1="151.4" y1="145.5" x2="156.2" y2="127.1"/>
					
						<line clip-path="url(#SVGID_36_)" fill="none" stroke="#000000" stroke-miterlimit="10" x1="154.2" y1="146.2" x2="158.9" y2="127.8"/>
					
						<line clip-path="url(#SVGID_36_)" fill="none" stroke="#000000" stroke-miterlimit="10" x1="157" y1="146.4" x2="161.6" y2="128.9"/>
				</g>
			</g>
			<g>
				<path fill="#746367" stroke="#000000" stroke-miterlimit="10" d="M166.6,160.7c-2.7-2.5-2.9-6.8-0.4-9.5
					c2.5-2.7,6.8-2.9,9.5-0.4c2.7,2.5,2.9,6.8,0.4,9.5C173.6,163.1,169.3,163.3,166.6,160.7z"/>
				<g>
					<defs>
						<path id="SVGID_37_" d="M166.6,160.7c-2.7-2.5-2.9-6.8-0.4-9.5c2.5-2.7,6.8-2.9,9.5-0.4c2.7,2.5,2.9,6.8,0.4,9.5
							C173.6,163.1,169.3,163.3,166.6,160.7z"/>
					</defs>
					<clipPath id="SVGID_38_">
						<use xlink:href="#SVGID_37_"  overflow="visible"/>
					</clipPath>
					
						<line clip-path="url(#SVGID_38_)" fill="none" stroke="#000000" stroke-miterlimit="10" x1="162.1" y1="162.8" x2="166.9" y2="144.3"/>
					
						<line clip-path="url(#SVGID_38_)" fill="none" stroke="#000000" stroke-miterlimit="10" x1="164.9" y1="163.5" x2="169.6" y2="145"/>
					
						<line clip-path="url(#SVGID_38_)" fill="none" stroke="#000000" stroke-miterlimit="10" x1="167.6" y1="164.2" x2="172.4" y2="145.7"/>
					
						<line clip-path="url(#SVGID_38_)" fill="none" stroke="#000000" stroke-miterlimit="10" x1="170.3" y1="164.9" x2="175.1" y2="146.4"/>
					
						<line clip-path="url(#SVGID_38_)" fill="none" stroke="#000000" stroke-miterlimit="10" x1="173.1" y1="165.6" x2="177.8" y2="147.2"/>
					
						<line clip-path="url(#SVGID_38_)" fill="none" stroke="#000000" stroke-miterlimit="10" x1="175.9" y1="165.8" x2="180.5" y2="148.2"/>
				</g>
			</g>
			<g>
				<circle fill="#746367" stroke="#000000" stroke-miterlimit="10" cx="101.1" cy="148.4" r="6.7"/>
				<g>
					<defs>
						<circle id="SVGID_39_" cx="101.1" cy="148.4" r="6.7"/>
					</defs>
					<clipPath id="SVGID_40_">
						<use xlink:href="#SVGID_39_"  overflow="visible"/>
					</clipPath>
					
						<line clip-path="url(#SVGID_40_)" fill="none" stroke="#000000" stroke-miterlimit="10" x1="92" y1="155.3" x2="96.8" y2="136.9"/>
					
						<line clip-path="url(#SVGID_40_)" fill="none" stroke="#000000" stroke-miterlimit="10" x1="94.7" y1="156" x2="99.5" y2="137.6"/>
					
						<line clip-path="url(#SVGID_40_)" fill="none" stroke="#000000" stroke-miterlimit="10" x1="97.5" y1="156.7" x2="102.2" y2="138.3"/>
					
						<line clip-path="url(#SVGID_40_)" fill="none" stroke="#000000" stroke-miterlimit="10" x1="100.2" y1="157.4" x2="105" y2="139"/>
					
						<line clip-path="url(#SVGID_40_)" fill="none" stroke="#000000" stroke-miterlimit="10" x1="102.9" y1="158.2" x2="107.7" y2="139.7"/>
					
						<line clip-path="url(#SVGID_40_)" fill="none" stroke="#000000" stroke-miterlimit="10" x1="105.8" y1="158.4" x2="110.3" y2="140.8"/>
				</g>
			</g>
			<g>
				<path fill="#746367" stroke="#000000" stroke-miterlimit="10" d="M45.8,125.9c-2.7-2.5-2.9-6.8-0.4-9.5c2.5-2.7,6.8-2.9,9.5-0.4
					c2.7,2.5,2.9,6.8,0.4,9.5S48.5,128.4,45.8,125.9z"/>
				<g>
					<defs>
						<path id="SVGID_41_" d="M45.8,125.9c-2.7-2.5-2.9-6.8-0.4-9.5c2.5-2.7,6.8-2.9,9.5-0.4c2.7,2.5,2.9,6.8,0.4,9.5
							S48.5,128.4,45.8,125.9z"/>
					</defs>
					<clipPath id="SVGID_42_">
						<use xlink:href="#SVGID_41_"  overflow="visible"/>
					</clipPath>
					
						<line clip-path="url(#SVGID_42_)" fill="none" stroke="#000000" stroke-miterlimit="10" x1="41.3" y1="127.9" x2="46.1" y2="109.5"/>
					
						<line clip-path="url(#SVGID_42_)" fill="none" stroke="#000000" stroke-miterlimit="10" x1="44" y1="128.6" x2="48.8" y2="110.2"/>
					
						<line clip-path="url(#SVGID_42_)" fill="none" stroke="#000000" stroke-miterlimit="10" x1="46.7" y1="129.3" x2="51.5" y2="110.9"/>
					
						<line clip-path="url(#SVGID_42_)" fill="none" stroke="#000000" stroke-miterlimit="10" x1="49.5" y1="130.1" x2="54.3" y2="111.6"/>
					
						<line clip-path="url(#SVGID_42_)" fill="none" stroke="#000000" stroke-miterlimit="10" x1="52.2" y1="130.8" x2="57" y2="112.3"/>
					
						<line clip-path="url(#SVGID_42_)" fill="none" stroke="#000000" stroke-miterlimit="10" x1="55.1" y1="131" x2="59.6" y2="113.4"/>
				</g>
			</g>
			<g>
				<path fill="#746367" stroke="#000000" stroke-miterlimit="10" d="M21.2,134.4c-2.7-2.5-2.9-6.8-0.4-9.5c2.5-2.7,6.8-2.9,9.5-0.4
					c2.7,2.5,2.9,6.8,0.4,9.5C28.2,136.8,23.9,136.9,21.2,134.4z"/>
				<g>
					<defs>
						<path id="SVGID_43_" d="M21.2,134.4c-2.7-2.5-2.9-6.8-0.4-9.5c2.5-2.7,6.8-2.9,9.5-0.4c2.7,2.5,2.9,6.8,0.4,9.5
							C28.2,136.8,23.9,136.9,21.2,134.4z"/>
					</defs>
					<clipPath id="SVGID_44_">
						<use xlink:href="#SVGID_43_"  overflow="visible"/>
					</clipPath>
					
						<line clip-path="url(#SVGID_44_)" fill="none" stroke="#000000" stroke-miterlimit="10" x1="16.7" y1="136.4" x2="21.5" y2="118"/>
					
						<line clip-path="url(#SVGID_44_)" fill="none" stroke="#000000" stroke-miterlimit="10" x1="19.5" y1="137.1" x2="24.2" y2="118.7"/>
					
						<line clip-path="url(#SVGID_44_)" fill="none" stroke="#000000" stroke-miterlimit="10" x1="22.2" y1="137.9" x2="27" y2="119.4"/>
					
						<line clip-path="url(#SVGID_44_)" fill="none" stroke="#000000" stroke-miterlimit="10" x1="24.9" y1="138.6" x2="29.7" y2="120.1"/>
					<path clip-path="url(#SVGID_44_)" fill="none" stroke="#000000" stroke-miterlimit="10" d="M31.1,120.5"/>
					<path clip-path="url(#SVGID_44_)" fill="none" stroke="#000000" stroke-miterlimit="10" d="M26.3,138.9"/>
					
						<line clip-path="url(#SVGID_44_)" fill="none" stroke="#000000" stroke-miterlimit="10" x1="27.7" y1="139.3" x2="32.4" y2="120.8"/>
					
						<line clip-path="url(#SVGID_44_)" fill="none" stroke="#000000" stroke-miterlimit="10" x1="30.5" y1="139.5" x2="35.1" y2="121.9"/>
				</g>
			</g>
			<g>
				<path fill="#746367" stroke="#000000" stroke-miterlimit="10" d="M112.9,104c-2.7-2.5-2.9-6.8-0.4-9.5c2.5-2.7,6.8-2.9,9.5-0.4
					c2.7,2.5,2.9,6.8,0.4,9.5C119.9,106.4,115.6,106.5,112.9,104z"/>
				<g>
					<defs>
						<path id="SVGID_45_" d="M112.9,104c-2.7-2.5-2.9-6.8-0.4-9.5c2.5-2.7,6.8-2.9,9.5-0.4c2.7,2.5,2.9,6.8,0.4,9.5
							C119.9,106.4,115.6,106.5,112.9,104z"/>
					</defs>
					<clipPath id="SVGID_46_">
						<use xlink:href="#SVGID_45_"  overflow="visible"/>
					</clipPath>
					
						<line clip-path="url(#SVGID_46_)" fill="none" stroke="#000000" stroke-miterlimit="10" x1="108.4" y1="106" x2="113.2" y2="87.6"/>
					
						<line clip-path="url(#SVGID_46_)" fill="none" stroke="#000000" stroke-miterlimit="10" x1="111.1" y1="106.7" x2="115.9" y2="88.3"/>
					
						<line clip-path="url(#SVGID_46_)" fill="none" stroke="#000000" stroke-miterlimit="10" x1="113.9" y1="107.4" x2="118.6" y2="89"/>
					
						<line clip-path="url(#SVGID_46_)" fill="none" stroke="#000000" stroke-miterlimit="10" x1="116.6" y1="108.2" x2="121.4" y2="89.7"/>
					<path clip-path="url(#SVGID_46_)" fill="none" stroke="#000000" stroke-miterlimit="10" d="M122.8,90.1"/>
					<path clip-path="url(#SVGID_46_)" fill="none" stroke="#000000" stroke-miterlimit="10" d="M118,108.5"/>
					
						<line clip-path="url(#SVGID_46_)" fill="none" stroke="#000000" stroke-miterlimit="10" x1="119.3" y1="108.9" x2="124.1" y2="90.4"/>
					
						<line clip-path="url(#SVGID_46_)" fill="none" stroke="#000000" stroke-miterlimit="10" x1="122.2" y1="109.1" x2="126.8" y2="91.5"/>
				</g>
			</g>
			<g>
				<circle fill="#746367" stroke="#000000" stroke-miterlimit="10" cx="138.4" cy="62.3" r="6.7"/>
				<g>
					<defs>
						<circle id="SVGID_47_" cx="138.4" cy="62.3" r="6.7"/>
					</defs>
					<clipPath id="SVGID_48_">
						<use xlink:href="#SVGID_47_"  overflow="visible"/>
					</clipPath>
					
						<line clip-path="url(#SVGID_48_)" fill="none" stroke="#000000" stroke-miterlimit="10" x1="129.4" y1="69.2" x2="134.1" y2="50.8"/>
					
						<line clip-path="url(#SVGID_48_)" fill="none" stroke="#000000" stroke-miterlimit="10" x1="132.1" y1="69.9" x2="136.9" y2="51.5"/>
					
						<line clip-path="url(#SVGID_48_)" fill="none" stroke="#000000" stroke-miterlimit="10" x1="134.8" y1="70.6" x2="139.6" y2="52.2"/>
					
						<line clip-path="url(#SVGID_48_)" fill="none" stroke="#000000" stroke-miterlimit="10" x1="137.6" y1="71.3" x2="142.4" y2="52.9"/>
					
						<line clip-path="url(#SVGID_48_)" fill="none" stroke="#000000" stroke-miterlimit="10" x1="140.3" y1="72" x2="145.1" y2="53.6"/>
					
						<line clip-path="url(#SVGID_48_)" fill="none" stroke="#000000" stroke-miterlimit="10" x1="143.2" y1="72.3" x2="147.7" y2="54.7"/>
				</g>
			</g>
			<g>
				<path fill="#746367" stroke="#000000" stroke-miterlimit="10" d="M146.6,38.1c-2.7-2.5-2.9-6.8-0.4-9.5c2.5-2.7,6.8-2.9,9.5-0.4
					c2.7,2.5,2.9,6.8,0.4,9.5C153.6,40.4,149.4,40.6,146.6,38.1z"/>
				<g>
					<defs>
						<path id="SVGID_49_" d="M146.6,38.1c-2.7-2.5-2.9-6.8-0.4-9.5c2.5-2.7,6.8-2.9,9.5-0.4c2.7,2.5,2.9,6.8,0.4,9.5
							C153.6,40.4,149.4,40.6,146.6,38.1z"/>
					</defs>
					<clipPath id="SVGID_50_">
						<use xlink:href="#SVGID_49_"  overflow="visible"/>
					</clipPath>
					
						<line clip-path="url(#SVGID_50_)" fill="none" stroke="#000000" stroke-miterlimit="10" x1="142.1" y1="40.1" x2="146.9" y2="21.6"/>
					
						<line clip-path="url(#SVGID_50_)" fill="none" stroke="#000000" stroke-miterlimit="10" x1="144.9" y1="40.8" x2="149.7" y2="22.3"/>
					
						<line clip-path="url(#SVGID_50_)" fill="none" stroke="#000000" stroke-miterlimit="10" x1="147.6" y1="41.5" x2="152.4" y2="23.1"/>
					
						<line clip-path="url(#SVGID_50_)" fill="none" stroke="#000000" stroke-miterlimit="10" x1="150.4" y1="42.2" x2="155.1" y2="23.8"/>
					
						<line clip-path="url(#SVGID_50_)" fill="none" stroke="#000000" stroke-miterlimit="10" x1="153.1" y1="42.9" x2="157.9" y2="24.5"/>
					
						<line clip-path="url(#SVGID_50_)" fill="none" stroke="#000000" stroke-miterlimit="10" x1="155.9" y1="43.1" x2="160.5" y2="25.6"/>
				</g>
			</g>
			<g>
				<path fill="#746367" stroke="#000000" stroke-miterlimit="10" d="M169.1,39.5c-2.7-2.5-2.9-6.8-0.4-9.5c2.5-2.7,6.8-2.9,9.5-0.4
					c2.7,2.5,2.9,6.8,0.4,9.5C176,41.8,171.8,42,169.1,39.5z"/>
				<g>
					<defs>
						<path id="SVGID_51_" d="M169.1,39.5c-2.7-2.5-2.9-6.8-0.4-9.5c2.5-2.7,6.8-2.9,9.5-0.4c2.7,2.5,2.9,6.8,0.4,9.5
							C176,41.8,171.8,42,169.1,39.5z"/>
					</defs>
					<clipPath id="SVGID_52_">
						<use xlink:href="#SVGID_51_"  overflow="visible"/>
					</clipPath>
					
						<line clip-path="url(#SVGID_52_)" fill="none" stroke="#000000" stroke-miterlimit="10" x1="164.6" y1="41.5" x2="169.3" y2="23.1"/>
					
						<line clip-path="url(#SVGID_52_)" fill="none" stroke="#000000" stroke-miterlimit="10" x1="167.3" y1="42.2" x2="172.1" y2="23.8"/>
					
						<line clip-path="url(#SVGID_52_)" fill="none" stroke="#000000" stroke-miterlimit="10" x1="170" y1="42.9" x2="174.8" y2="24.5"/>
					
						<line clip-path="url(#SVGID_52_)" fill="none" stroke="#000000" stroke-miterlimit="10" x1="172.8" y1="43.6" x2="177.5" y2="25.2"/>
					
						<line clip-path="url(#SVGID_52_)" fill="none" stroke="#000000" stroke-miterlimit="10" x1="175.5" y1="44.3" x2="180.3" y2="25.9"/>
					
						<line clip-path="url(#SVGID_52_)" fill="none" stroke="#000000" stroke-miterlimit="10" x1="178.4" y1="44.6" x2="182.9" y2="27"/>
				</g>
			</g>
			<g>
				<circle fill="#746367" stroke="#000000" stroke-miterlimit="10" cx="95.9" cy="119.8" r="6.7"/>
				<g>
					<defs>
						<circle id="SVGID_53_" cx="95.9" cy="119.8" r="6.7"/>
					</defs>
					<clipPath id="SVGID_54_">
						<use xlink:href="#SVGID_53_"  overflow="visible"/>
					</clipPath>
					
						<line clip-path="url(#SVGID_54_)" fill="none" stroke="#000000" stroke-miterlimit="10" x1="86.9" y1="126.8" x2="91.6" y2="108.3"/>
					
						<line clip-path="url(#SVGID_54_)" fill="none" stroke="#000000" stroke-miterlimit="10" x1="89.6" y1="127.5" x2="94.4" y2="109"/>
					
						<line clip-path="url(#SVGID_54_)" fill="none" stroke="#000000" stroke-miterlimit="10" x1="92.3" y1="128.2" x2="97.1" y2="109.7"/>
					
						<line clip-path="url(#SVGID_54_)" fill="none" stroke="#000000" stroke-miterlimit="10" x1="95.1" y1="128.9" x2="99.8" y2="110.4"/>
					
						<line clip-path="url(#SVGID_54_)" fill="none" stroke="#000000" stroke-miterlimit="10" x1="97.8" y1="129.6" x2="102.6" y2="111.1"/>
					
						<line clip-path="url(#SVGID_54_)" fill="none" stroke="#000000" stroke-miterlimit="10" x1="100.6" y1="129.8" x2="105.2" y2="112.2"/>
				</g>
			</g>
			<g>
				<circle fill="#746367" stroke="#000000" stroke-miterlimit="10" cx="148.2" cy="107.1" r="6.7"/>
				<g>
					<defs>
						<circle id="SVGID_55_" cx="148.2" cy="107.1" r="6.7"/>
					</defs>
					<clipPath id="SVGID_56_">
						<use xlink:href="#SVGID_55_"  overflow="visible"/>
					</clipPath>
					
						<line clip-path="url(#SVGID_56_)" fill="none" stroke="#000000" stroke-miterlimit="10" x1="139.2" y1="114.1" x2="144" y2="95.7"/>
					
						<line clip-path="url(#SVGID_56_)" fill="none" stroke="#000000" stroke-miterlimit="10" x1="141.9" y1="114.8" x2="146.7" y2="96.4"/>
					
						<line clip-path="url(#SVGID_56_)" fill="none" stroke="#000000" stroke-miterlimit="10" x1="144.7" y1="115.5" x2="149.4" y2="97.1"/>
					
						<line clip-path="url(#SVGID_56_)" fill="none" stroke="#000000" stroke-miterlimit="10" x1="147.4" y1="116.2" x2="152.2" y2="97.8"/>
					
						<line clip-path="url(#SVGID_56_)" fill="none" stroke="#000000" stroke-miterlimit="10" x1="150.1" y1="116.9" x2="154.9" y2="98.5"/>
					
						<line clip-path="url(#SVGID_56_)" fill="none" stroke="#000000" stroke-miterlimit="10" x1="153" y1="117.2" x2="157.5" y2="99.6"/>
				</g>
			</g>
			<g>
				<circle fill="#746367" stroke="#000000" stroke-miterlimit="10" cx="75" cy="129.2" r="6.1"/>
				<circle fill="none" stroke="#000000" stroke-miterlimit="10" cx="75" cy="129.2" r="4"/>
				<circle fill="none" stroke="#000000" stroke-miterlimit="10" cx="75" cy="129.2" r="1.7"/>
			</g>
			<path fill="none" stroke="#000000" stroke-miterlimit="10" d="M122.1,81.5c-1-2.4,0.2-5.2,2.6-6.2c2.4-1,5.2,0.2,6.2,2.6
				c1,2.4-0.2,5.2-2.6,6.2C125.8,85.1,123.1,83.9,122.1,81.5z"/>
			<path fill="none" stroke="#000000" stroke-miterlimit="10" d="M67,146.4c-1-2.4,0.2-5.2,2.6-6.2c2.4-1,5.2,0.2,6.2,2.6
				c1,2.4-0.2,5.2-2.6,6.2C70.7,150,67.9,148.8,67,146.4z"/>
			<path fill="none" stroke="#000000" stroke-miterlimit="10" d="M8.7,154c-1-2.4,0.2-5.2,2.6-6.2c2.4-1,5.2,0.2,6.2,2.6
				c1,2.4-0.2,5.2-2.6,6.2C12.4,157.6,9.6,156.5,8.7,154z"/>
			<path fill="none" stroke="#000000" stroke-miterlimit="10" d="M7.5,115.6c-1-2.4,0.2-5.2,2.6-6.2c2.4-1,5.2,0.2,6.2,2.6
				c1,2.4-0.2,5.2-2.6,6.2C11.2,119.2,8.5,118,7.5,115.6z"/>
			<circle fill="none" stroke="#000000" stroke-miterlimit="10" cx="192.6" cy="145.7" r="4.7"/>
			<path fill="none" stroke="#000000" stroke-miterlimit="10" d="M152,173.9c-1-2.4,0.2-5.2,2.6-6.2c2.4-1,5.2,0.2,6.2,2.6
				c1,2.4-0.2,5.2-2.6,6.2C155.8,177.5,153,176.4,152,173.9z"/>
			<circle fill="none" stroke="#000000" stroke-miterlimit="10" cx="192.2" cy="175.5" r="4.7"/>
			<path fill="none" stroke="#000000" stroke-miterlimit="10" d="M211.1,39.3c-1-2.4,0.2-5.2,2.6-6.2c2.4-1,5.2,0.2,6.2,2.6
				c1,2.4-0.2,5.2-2.6,6.2C214.8,42.9,212,41.7,211.1,39.3z"/>
			<path fill="none" stroke="#000000" stroke-miterlimit="10" d="M29.5,152.3c-1-2.4,0.2-5.2,2.6-6.2c2.4-1,5.2,0.2,6.2,2.6
				c1,2.4-0.2,5.2-2.6,6.2C33.2,155.9,30.4,154.7,29.5,152.3z"/>
			<circle fill="none" stroke="#000000" stroke-miterlimit="10" cx="181.5" cy="93.2" r="4.7"/>
		</g>
	</g>
</g>
</svg>
