<?xml version="1.0" encoding="utf-8"?>
<!DOCTYPE svg PUBLIC "-//W3C//DTD SVG 1.1//EN" "http://www.w3.org/Graphics/SVG/1.1/DTD/svg11.dtd">
<svg version="1.1" xmlns="http://www.w3.org/2000/svg" xmlns:xlink="http://www.w3.org/1999/xlink" x="0px" y="0px" width="609px"
	 height="400px" viewBox="0 0 609 400" enable-background="new 0 0 609 400" xml:space="preserve">
<g>
	<g id="_x31__1_">
		<rect x="3" y="156.2" fill="#8C8083" stroke="#000000" stroke-width="3" stroke-miterlimit="10" width="246" height="183.9"/>
		<g>
			<path display="inline" fill="#0F0F0F" d="M53.1,214.5c-1.5,1.2-3.6,1.8-6.3,1.8h-5.2v9h-5.2v-25.1h10.8c2.5,0,4.5,0.6,5.9,1.9
				c1.5,1.3,2.2,3.3,2.2,6C55.3,211.2,54.5,213.3,53.1,214.5z M49.1,205.5c-0.7-0.6-1.6-0.8-2.8-0.8h-4.7v7.4h4.7
				c1.2,0,2.1-0.3,2.8-0.9s1-1.6,1-2.9C50.1,206.9,49.7,206,49.1,205.5z"/>
			<path display="inline" fill="#0F0F0F" d="M75.6,200.9c0.9,0.4,1.7,1,2.4,1.8c0.5,0.6,1,1.3,1.3,2.1c0.3,0.8,0.5,1.7,0.5,2.6
				c0,1.2-0.3,2.4-0.9,3.5c-0.6,1.2-1.6,2-3,2.4c1.2,0.5,2,1.1,2.5,2c0.5,0.9,0.7,2.2,0.7,3.9v1.7c0,1.1,0,1.9,0.1,2.3
				c0.1,0.6,0.5,1.1,1,1.4v0.6h-5.8c-0.2-0.6-0.3-1-0.3-1.3c-0.1-0.7-0.2-1.4-0.2-2.2l0-2.3c0-1.6-0.3-2.7-0.8-3.2
				c-0.5-0.5-1.5-0.8-3-0.8h-5.1v9.8h-5.1v-25.1h12C73.3,200.3,74.6,200.5,75.6,200.9z M64.7,204.6v6.7h5.6c1.1,0,2-0.1,2.5-0.4
				c1-0.5,1.5-1.4,1.5-2.8c0-1.5-0.5-2.5-1.4-3.1c-0.5-0.3-1.3-0.4-2.4-0.4H64.7z"/>
			<path display="inline" fill="#0F0F0F" d="M104,223.1c-1.9,2-4.6,2.9-8.2,2.9s-6.3-1-8.2-2.9c-2.5-2.4-3.8-5.9-3.8-10.4
				c0-4.6,1.3-8.1,3.8-10.4c1.9-2,4.6-2.9,8.2-2.9s6.3,1,8.2,2.9c2.5,2.3,3.8,5.8,3.8,10.4C107.8,217.3,106.6,220.8,104,223.1z
				 M100.7,219.3c1.2-1.5,1.8-3.7,1.8-6.5c0-2.8-0.6-5-1.8-6.5c-1.2-1.5-2.9-2.3-5-2.3c-2.1,0-3.7,0.8-5,2.3S89,210,89,212.8
				c0,2.8,0.6,5,1.9,6.5s2.9,2.3,5,2.3C97.9,221.6,99.5,220.9,100.7,219.3z"/>
			<path display="inline" fill="#0F0F0F" d="M126.5,200.8c1.8,0.6,3.2,1.6,4.3,3.2c0.9,1.2,1.5,2.6,1.8,4.1s0.5,2.8,0.5,4.2
				c0,3.3-0.7,6.2-2,8.5c-1.8,3.1-4.6,4.7-8.4,4.7h-10.8v-25.1h10.8C124.2,200.3,125.5,200.5,126.5,200.8z M116.9,204.6V221h4.8
				c2.5,0,4.2-1.2,5.2-3.7c0.5-1.3,0.8-2.9,0.8-4.8c0-2.6-0.4-4.5-1.2-5.9c-0.8-1.4-2.4-2.1-4.8-2.1H116.9z"/>
			<path display="inline" fill="#0F0F0F" d="M137,200.3h5.3v15.4c0,1.7,0.2,3,0.6,3.8c0.6,1.4,2,2.1,4.1,2.1c2.1,0,3.5-0.7,4.1-2.1
				c0.4-0.8,0.6-2.1,0.6-3.8v-15.4h5.3v15.4c0,2.7-0.4,4.7-1.2,6.2c-1.5,2.7-4.5,4.1-8.8,4.1s-7.3-1.4-8.8-4.1
				c-0.8-1.5-1.2-3.6-1.2-6.2V200.3z"/>
			<path display="inline" fill="#0F0F0F" d="M167,225.4h-5.2v-25.1h5.2V225.4z"/>
			<path display="inline" fill="#0F0F0F" d="M190.2,200.3v4.4h-7.5v20.7h-5.3v-20.7h-7.5v-4.4H190.2z"/>
			<path display="inline" fill="#0F0F0F" d="M197,217.6c0.2,1.1,0.5,2,1,2.6c0.9,1,2.4,1.6,4.5,1.6c1.3,0,2.3-0.1,3.1-0.4
				c1.5-0.5,2.2-1.5,2.2-2.9c0-0.8-0.4-1.5-1.1-1.9c-0.7-0.4-1.9-0.8-3.5-1.2l-2.7-0.6c-2.7-0.6-4.5-1.2-5.5-1.9
				c-1.7-1.2-2.5-3-2.5-5.4c0-2.2,0.8-4.1,2.5-5.6s4.1-2.2,7.3-2.2c2.7,0,5,0.7,6.9,2.1c1.9,1.4,2.9,3.4,3,6.1h-5
				c-0.1-1.5-0.8-2.6-2-3.2c-0.8-0.4-1.9-0.6-3.1-0.6c-1.4,0-2.5,0.3-3.3,0.8c-0.8,0.5-1.2,1.3-1.2,2.3c0,0.9,0.4,1.6,1.2,2
				c0.5,0.3,1.6,0.6,3.3,1l4.4,1c1.9,0.5,3.4,1.1,4.3,1.8c1.5,1.2,2.2,2.9,2.2,5.1c0,2.3-0.9,4.2-2.7,5.7s-4.3,2.3-7.5,2.3
				c-3.3,0-5.9-0.7-7.8-2.2c-1.9-1.5-2.8-3.5-2.8-6.2H197z"/>
			<path display="inline" fill="#0F0F0F" d="M35.1,234.1v4.4h-7.5v20.7h-5.3v-20.7h-7.5v-4.4H35.1z"/>
			<path display="inline" fill="#0F0F0F" d="M56.7,238.6H43.4v5.3h12.2v4.4H43.4v6.5h13.9v4.5h-19v-25.1h18.4V238.6z"/>
			<path display="inline" fill="#0F0F0F" d="M65.2,251.5c0.2,1.1,0.5,2,1,2.6c0.9,1,2.4,1.6,4.5,1.6c1.3,0,2.3-0.1,3.1-0.4
				c1.5-0.5,2.2-1.5,2.2-2.9c0-0.8-0.4-1.5-1.1-1.9c-0.7-0.4-1.9-0.8-3.5-1.2l-2.7-0.6c-2.7-0.6-4.5-1.2-5.5-1.9
				c-1.7-1.2-2.5-3-2.5-5.4c0-2.2,0.8-4.1,2.5-5.6s4.1-2.2,7.3-2.2c2.7,0,5,0.7,6.9,2.1c1.9,1.4,2.9,3.4,3,6.1h-5
				c-0.1-1.5-0.8-2.6-2-3.2c-0.8-0.4-1.9-0.6-3.1-0.6c-1.4,0-2.5,0.3-3.3,0.8c-0.8,0.5-1.2,1.3-1.2,2.3c0,0.9,0.4,1.6,1.2,2
				c0.5,0.3,1.6,0.6,3.3,1l4.4,1c1.9,0.5,3.4,1.1,4.3,1.8c1.5,1.2,2.2,2.9,2.2,5.1c0,2.3-0.9,4.2-2.7,5.7s-4.3,2.3-7.5,2.3
				c-3.3,0-5.9-0.7-7.8-2.2c-1.9-1.5-2.8-3.5-2.8-6.2H65.2z"/>
			<path display="inline" fill="#0F0F0F" d="M102.9,234.1v4.4h-7.5v20.7h-5.3v-20.7h-7.5v-4.4H102.9z"/>
			<path display="inline" fill="#0F0F0F" d="M124.6,238.6h-13.3v5.3h12.2v4.4h-12.2v6.5h13.9v4.5h-19v-25.1h18.4V238.6z M121.3,227
				l-5.2,5.1h-3.5l3.3-5.1H121.3z"/>
			<path display="inline" fill="#0F0F0F" d="M133.1,251.5c0.2,1.1,0.5,2,1,2.6c0.9,1,2.4,1.6,4.5,1.6c1.3,0,2.3-0.1,3.1-0.4
				c1.5-0.5,2.2-1.5,2.2-2.9c0-0.8-0.4-1.5-1.1-1.9c-0.7-0.4-1.9-0.8-3.5-1.2l-2.7-0.6c-2.7-0.6-4.5-1.2-5.5-1.9
				c-1.7-1.2-2.5-3-2.5-5.4c0-2.2,0.8-4.1,2.5-5.6s4.1-2.2,7.3-2.2c2.7,0,5,0.7,6.9,2.1c1.9,1.4,2.9,3.4,3,6.1h-5
				c-0.1-1.5-0.8-2.6-2-3.2c-0.8-0.4-1.9-0.6-3.1-0.6c-1.4,0-2.5,0.3-3.3,0.8c-0.8,0.5-1.2,1.3-1.2,2.3c0,0.9,0.4,1.6,1.2,2
				c0.5,0.3,1.6,0.6,3.3,1l4.4,1c1.9,0.5,3.4,1.1,4.3,1.8c1.5,1.2,2.2,2.9,2.2,5.1c0,2.3-0.9,4.2-2.7,5.7s-4.3,2.3-7.5,2.3
				c-3.3,0-5.9-0.7-7.8-2.2c-1.9-1.5-2.8-3.5-2.8-6.2H133.1z"/>
			<path display="inline" fill="#0F0F0F" d="M166,251.5c0.2,1.1,0.5,2,1,2.6c0.9,1,2.4,1.6,4.5,1.6c1.3,0,2.3-0.1,3.1-0.4
				c1.5-0.5,2.2-1.5,2.2-2.9c0-0.8-0.4-1.5-1.1-1.9c-0.7-0.4-1.9-0.8-3.5-1.2l-2.7-0.6c-2.7-0.6-4.5-1.2-5.5-1.9
				c-1.7-1.2-2.5-3-2.5-5.4c0-2.2,0.8-4.1,2.5-5.6s4.1-2.2,7.3-2.2c2.7,0,5,0.7,6.9,2.1c1.9,1.4,2.9,3.4,3,6.1h-5
				c-0.1-1.5-0.8-2.6-2-3.2c-0.8-0.4-1.9-0.6-3.1-0.6c-1.4,0-2.5,0.3-3.3,0.8c-0.8,0.5-1.2,1.3-1.2,2.3c0,0.9,0.4,1.6,1.2,2
				c0.5,0.3,1.6,0.6,3.3,1l4.4,1c1.9,0.5,3.4,1.1,4.3,1.8c1.5,1.2,2.2,2.9,2.2,5.1c0,2.3-0.9,4.2-2.7,5.7s-4.3,2.3-7.5,2.3
				c-3.3,0-5.9-0.7-7.8-2.2c-1.9-1.5-2.8-3.5-2.8-6.2H166z"/>
			<path display="inline" fill="#0F0F0F" d="M185.5,234.1h5.3v15.4c0,1.7,0.2,3,0.6,3.8c0.6,1.4,2,2.1,4.1,2.1
				c2.1,0,3.5-0.7,4.1-2.1c0.4-0.8,0.6-2.1,0.6-3.8v-15.4h5.3v15.4c0,2.7-0.4,4.7-1.2,6.2c-1.5,2.7-4.5,4.1-8.8,4.1
				s-7.3-1.4-8.8-4.1c-0.8-1.5-1.2-3.6-1.2-6.2V234.1z"/>
			<path display="inline" fill="#0F0F0F" d="M226.8,234.8c0.9,0.4,1.7,1,2.4,1.8c0.5,0.6,1,1.3,1.3,2.1c0.3,0.8,0.5,1.7,0.5,2.6
				c0,1.2-0.3,2.4-0.9,3.5c-0.6,1.2-1.6,2-3,2.4c1.2,0.5,2,1.1,2.5,2c0.5,0.9,0.7,2.2,0.7,3.9v1.7c0,1.1,0,1.9,0.1,2.3
				c0.1,0.6,0.5,1.1,1,1.4v0.6h-5.8c-0.2-0.6-0.3-1-0.3-1.3c-0.1-0.7-0.2-1.4-0.2-2.2l0-2.3c0-1.6-0.3-2.7-0.8-3.2
				c-0.5-0.5-1.5-0.8-3-0.8H216v9.8h-5.1v-25.1h12C224.6,234.1,225.9,234.4,226.8,234.8z M216,238.5v6.7h5.6c1.1,0,2-0.1,2.5-0.4
				c1-0.5,1.5-1.4,1.5-2.8c0-1.5-0.5-2.5-1.4-3.1c-0.5-0.3-1.3-0.4-2.4-0.4H216z"/>
			<path display="inline" fill="#0F0F0F" d="M52.1,268h5.9l8.9,25.1h-5.7l-1.7-5.2h-9.2l-1.7,5.2h-5.5L52.1,268z M51.8,283.6h6.4
				l-3.2-9.9L51.8,283.6z"/>
			<path display="inline" fill="#0F0F0F" d="M70.1,268h5.5l10,17.5V268h4.9v25.1h-5.2l-10.2-17.8v17.8h-4.9V268z"/>
			<path display="inline" fill="#0F0F0F" d="M100.1,293.1h-5.2V268h5.2V293.1z"/>
			<path display="inline" fill="#0F0F0F" d="M121.7,268h7.6v25.1h-4.9v-17c0-0.5,0-1.2,0-2.1c0-0.9,0-1.6,0-2l-4.8,21.1h-5.1
				l-4.7-21.1c0,0.5,0,1.2,0,2c0,0.9,0,1.6,0,2.1v17H105V268h7.6l4.6,19.8L121.7,268z"/>
			<path display="inline" fill="#0F0F0F" d="M141.3,268h5.9l8.9,25.1h-5.7l-1.7-5.2h-9.2l-1.7,5.2h-5.5L141.3,268z M140.9,283.6h6.4
				l-3.2-9.9L140.9,283.6z"/>
			<path display="inline" fill="#0F0F0F" d="M159.3,268h5.3v15.4c0,1.7,0.2,3,0.6,3.8c0.6,1.4,2,2.1,4.1,2.1c2.1,0,3.5-0.7,4.1-2.1
				c0.4-0.8,0.6-2.1,0.6-3.8V268h5.3v15.4c0,2.7-0.4,4.7-1.2,6.2c-1.5,2.7-4.5,4.1-8.8,4.1s-7.3-1.4-8.8-4.1
				c-0.8-1.5-1.2-3.6-1.2-6.2V268z"/>
			<path display="inline" fill="#0F0F0F" d="M188.5,293.1h-6.1l8.1-12.8l-7.7-12.3h6.3l4.5,8.2l4.6-8.2h6.1l-7.7,12.1l8.2,13h-6.4
				l-4.8-8.6L188.5,293.1z"/>
		</g>
	</g>
</g>
</svg>
