<?xml version="1.0" encoding="utf-8"?>
<!DOCTYPE svg PUBLIC "-//W3C//DTD SVG 1.1//EN" "http://www.w3.org/Graphics/SVG/1.1/DTD/svg11.dtd">
<svg version="1.1" xmlns="http://www.w3.org/2000/svg" xmlns:xlink="http://www.w3.org/1999/xlink" x="0px" y="0px" width="155px"
	 height="178px" viewBox="0 0 155 178" enable-background="new 0 0 155 178" xml:space="preserve">
<g>
	<g>
		<path fill="none" stroke="#0F0F0F" stroke-miterlimit="10" d="M88.9,28.5c5.2-0.7,8.9-5.5,8.2-10.7c-0.7-5.2-5.5-8.9-10.7-8.2
			c-5.2,0.7-8.9,5.5-8.2,10.7C78.9,25.5,83.7,29.2,88.9,28.5z"/>
		<circle fill="none" stroke="#0F0F0F" stroke-width="3" stroke-miterlimit="10" cx="87.7" cy="19.1" r="13.1"/>
		<circle fill="#0F0F0F" stroke="#0F0F0F" stroke-miterlimit="10" cx="87.7" cy="19.1" r="3.7"/>
		<path fill="none" stroke="#0F0F0F" stroke-miterlimit="10" d="M62.8,54.4c5.2-0.7,8.9-5.5,8.2-10.7c-0.7-5.2-5.5-8.9-10.7-8.2
			c-5.2,0.7-8.9,5.5-8.2,10.7C52.7,51.4,57.5,55.1,62.8,54.4z"/>
		<circle fill="none" stroke="#0F0F0F" stroke-width="3" stroke-miterlimit="10" cx="61.5" cy="44.9" r="13.1"/>
		<path fill="#0F0F0F" stroke="#0F0F0F" stroke-miterlimit="10" d="M62,48.6c2-0.3,3.5-2.1,3.2-4.1c-0.3-2-2.1-3.5-4.1-3.2
			c-2,0.3-3.5,2.1-3.2,4.1C58.1,47.4,60,48.9,62,48.6z"/>
		<path fill="none" stroke="#0F0F0F" stroke-miterlimit="10" d="M99.9,60.7c5.2-0.7,8.9-5.5,8.2-10.7c-0.7-5.2-5.5-8.9-10.7-8.2
			c-5.2,0.7-8.9,5.5-8.2,10.7C89.8,57.7,94.6,61.4,99.9,60.7z"/>
		<circle fill="none" stroke="#0F0F0F" stroke-width="3" stroke-miterlimit="10" cx="98.6" cy="51.2" r="13.1"/>
		<path fill="#0F0F0F" stroke="#0F0F0F" stroke-miterlimit="10" d="M99.1,54.9c2-0.3,3.5-2.1,3.2-4.1c-0.3-2-2.1-3.5-4.1-3.2
			c-2,0.3-3.5,2.1-3.2,4.1C95.2,53.7,97.1,55.2,99.1,54.9z"/>
		<path fill="none" stroke="#0F0F0F" stroke-miterlimit="10" d="M87.1,93.2c5.2-0.7,8.9-5.5,8.2-10.7c-0.7-5.2-5.5-8.9-10.7-8.2
			c-5.2,0.7-8.9,5.5-8.2,10.7C77.1,90.2,81.9,93.9,87.1,93.2z"/>
		<circle fill="none" stroke="#0F0F0F" stroke-width="3" stroke-miterlimit="10" cx="85.9" cy="83.7" r="13.1"/>
		<path fill="#0F0F0F" stroke="#0F0F0F" stroke-miterlimit="10" d="M86.4,87.4c2-0.3,3.5-2.1,3.2-4.1c-0.3-2-2.1-3.5-4.1-3.2
			c-2,0.3-3.5,2.1-3.2,4.1C82.5,86.2,84.3,87.6,86.4,87.4z"/>
		<path fill="none" stroke="#0F0F0F" stroke-miterlimit="10" d="M20.3,38.1c5.2-0.7,8.9-5.5,8.2-10.7c-0.7-5.2-5.5-8.9-10.7-8.2
			c-5.2,0.7-8.9,5.5-8.2,10.7C10.3,35.1,15.1,38.8,20.3,38.1z"/>
		<circle fill="none" stroke="#0F0F0F" stroke-width="3" stroke-miterlimit="10" cx="19.1" cy="28.6" r="13.1"/>
		<path fill="#0F0F0F" stroke="#0F0F0F" stroke-miterlimit="10" d="M19.5,32.3c2-0.3,3.5-2.1,3.2-4.1c-0.3-2-2.1-3.5-4.1-3.2
			c-2,0.3-3.5,2.1-3.2,4.1C15.7,31.1,17.5,32.6,19.5,32.3z"/>
		<path fill="none" stroke="#0F0F0F" stroke-miterlimit="10" d="M140.1,45.5c5.2-0.7,8.9-5.5,8.2-10.7c-0.7-5.2-5.5-8.9-10.7-8.2
			c-5.2,0.7-8.9,5.5-8.2,10.7C130.1,42.4,134.9,46.1,140.1,45.5z"/>
		<circle fill="none" stroke="#0F0F0F" stroke-width="3" stroke-miterlimit="10" cx="138.9" cy="36" r="13.1"/>
		<path fill="#0F0F0F" stroke="#0F0F0F" stroke-miterlimit="10" d="M139.3,39.7c2-0.3,3.5-2.1,3.2-4.1c-0.3-2-2.1-3.5-4.1-3.2
			c-2,0.3-3.5,2.1-3.2,4.1C135.5,38.5,137.3,39.9,139.3,39.7z"/>
	</g>
</g>
</svg>
