<?xml version="1.0" encoding="utf-8"?>
<!DOCTYPE svg PUBLIC "-//W3C//DTD SVG 1.1//EN" "http://www.w3.org/Graphics/SVG/1.1/DTD/svg11.dtd">
<svg version="1.1" id="Calque_1" xmlns="http://www.w3.org/2000/svg" xmlns:xlink="http://www.w3.org/1999/xlink" x="0px" y="0px"
	 width="155px" height="178px" viewBox="0 0 155 178" enable-background="new 0 0 155 178" xml:space="preserve">
<g>
	<g>
		<path d="M30.6,19.8c6.5-2.6,13.8,0.5,16.4,7s-0.5,13.8-7,16.4c-6.5,2.6-13.8-0.5-16.4-7C21.1,29.8,24.2,22.4,30.6,19.8z"/>
		<line fill="none" stroke="#000000" stroke-width="3" stroke-miterlimit="10" x1="28.4" y1="41.9" x2="22.7" y2="50.9"/>
		<path fill="#8C8083" stroke="#000000" stroke-width="3" stroke-miterlimit="10" d="M13.8,64.8c-3.9-2.5-5-7.6-2.5-11.4
			c2.5-3.9,7.6-5,11.4-2.5c3.9,2.5,5,7.6,2.5,11.4C22.7,66.2,17.6,67.3,13.8,64.8z"/>
		<line fill="none" stroke="#000000" stroke-width="3" stroke-miterlimit="10" x1="46.6" y1="37.2" x2="56.2" y2="41.8"/>
		<path fill="#8C8083" stroke="#000000" stroke-width="3" stroke-miterlimit="10" d="M71.1,48.9c-2,4.1-6.9,5.9-11,3.9
			s-5.9-6.9-3.9-11c2-4.1,6.9-5.9,11.1-3.9C71.3,39.9,73.1,44.8,71.1,48.9z"/>
	</g>
</g>
</svg>
