<?xml version="1.0" encoding="utf-8"?>
<!DOCTYPE svg PUBLIC "-//W3C//DTD SVG 1.1//EN" "http://www.w3.org/Graphics/SVG/1.1/DTD/svg11.dtd">
<svg version="1.1" xmlns="http://www.w3.org/2000/svg" xmlns:xlink="http://www.w3.org/1999/xlink" x="0px" y="0px" width="155px"
	 height="178px" viewBox="0 0 155 178" enable-background="new 0 0 155 178" xml:space="preserve">
<g>
	<g>
		<circle cx="93.8" cy="118.7" r="1.9"/>
		<path d="M56,172c1,0.3,1.6,1.4,1.3,2.4c-0.3,1-1.4,1.6-2.4,1.3c-1-0.3-1.6-1.4-1.3-2.4C53.9,172.3,55,171.7,56,172z"/>
		<circle cx="72.2" cy="41" r="1.9"/>
		<path d="M94.6,11.1c1,0.3,1.6,1.4,1.3,2.4c-0.3,1-1.4,1.6-2.4,1.3c-1-0.3-1.6-1.4-1.3-2.4C92.5,11.4,93.6,10.8,94.6,11.1z"/>
		<path d="M77,108.8c1,0.3,1.6,1.4,1.3,2.4c-0.3,1-1.4,1.6-2.4,1.3c-1-0.3-1.6-1.4-1.3-2.4C74.9,109.1,76,108.5,77,108.8z"/>
		<path d="M81.5,93c1,0.3,1.6,1.4,1.3,2.4c-0.3,1-1.4,1.6-2.4,1.3c-1-0.3-1.6-1.4-1.3-2.4C79.4,93.3,80.5,92.7,81.5,93z"/>
		<path d="M95.1,89.4c1,0.3,1.6,1.4,1.3,2.4c-0.3,1-1.4,1.6-2.4,1.3c-1-0.3-1.6-1.4-1.3-2.4C93,89.8,94.1,89.2,95.1,89.4z"/>
		<path d="M105.8,72.7c1,0.3,1.6,1.4,1.3,2.4c-0.3,1-1.4,1.6-2.4,1.3c-1-0.3-1.6-1.4-1.3-2.4C103.7,73,104.7,72.4,105.8,72.7z"/>
		<circle cx="90" cy="63.2" r="1.9"/>
		<path d="M95,45.5c1,0.3,1.6,1.4,1.3,2.4c-0.3,1-1.4,1.6-2.4,1.3c-1-0.3-1.6-1.4-1.3-2.4C92.9,45.8,94,45.2,95,45.5z"/>
		<path d="M54.8,146.5c1,0.3,1.6,1.4,1.3,2.4c-0.3,1-1.4,1.6-2.4,1.3c-1-0.3-1.6-1.4-1.3-2.4C52.7,146.8,53.8,146.2,54.8,146.5z"/>
		<path d="M59.3,130.6c1,0.3,1.6,1.4,1.3,2.4c-0.3,1-1.4,1.6-2.4,1.3c-1-0.3-1.6-1.4-1.3-2.4C57.2,130.9,58.3,130.3,59.3,130.6z"/>
		<circle cx="63.3" cy="116.6" r="1.9"/>
		<path d="M68.3,98.9c1,0.3,1.6,1.4,1.3,2.4c-0.3,1-1.4,1.6-2.4,1.3c-1-0.3-1.6-1.4-1.3-2.4C66.2,99.3,67.3,98.7,68.3,98.9z"/>
		<path d="M72.8,83.1c1,0.3,1.6,1.4,1.3,2.4c-0.3,1-1.4,1.6-2.4,1.3c-1-0.3-1.6-1.4-1.3-2.4C70.7,83.4,71.8,82.8,72.8,83.1z"/>
		<circle cx="128.7" cy="140.6" r="1.9"/>
		<circle cx="76.8" cy="69.1" r="1.9"/>
		<circle cx="81.3" cy="53.3" r="1.9"/>
		<path d="M53,119.2c1,0.3,1.6,1.4,1.3,2.4c-0.3,1-1.4,1.6-2.4,1.3c-1-0.3-1.6-1.4-1.3-2.4C50.9,119.5,52,118.9,53,119.2z"/>
		<path d="M57.5,103.3c1,0.3,1.6,1.4,1.3,2.4c-0.3,1-1.4,1.6-2.4,1.3c-1-0.3-1.6-1.4-1.3-2.4C55.4,103.6,56.5,103,57.5,103.3z"/>
		<path d="M62,87.5c1,0.3,1.6,1.4,1.3,2.4c-0.3,1-1.4,1.6-2.4,1.3c-1-0.3-1.6-1.4-1.3-2.4C59.9,87.8,61,87.2,62,87.5z"/>
		<path d="M66.5,71.6c1,0.3,1.6,1.4,1.3,2.4c-0.3,1-1.4,1.6-2.4,1.3c-1-0.3-1.6-1.4-1.3-2.4C64.4,71.9,65.5,71.3,66.5,71.6z"/>
		<circle cx="70.5" cy="57.6" r="1.9"/>
		<circle cx="43.8" cy="111.1" r="1.9"/>
		<circle cx="98.5" cy="106.7" r="1.9"/>
		<circle cx="132.5" cy="75.7" r="1.9"/>
		<circle cx="36" cy="97.2" r="1.9"/>
		<circle cx="30.4" cy="132.6" r="1.9"/>
		<circle cx="48.3" cy="95.3" r="1.9"/>
		<path d="M53.3,77.6c1,0.3,1.6,1.4,1.3,2.4c-0.3,1-1.4,1.6-2.4,1.3c-1-0.3-1.6-1.4-1.3-2.4C51.2,77.9,52.3,77.3,53.3,77.6z"/>
		<circle cx="57.3" cy="63.6" r="1.9"/>
		<circle cx="61.8" cy="47.8" r="1.9"/>
		<path d="M42.6,81.9c1,0.3,1.6,1.4,1.3,2.4c-0.3,1-1.4,1.6-2.4,1.3c-1-0.3-1.6-1.4-1.3-2.4C40.5,82.2,41.5,81.6,42.6,81.9z"/>
		<path d="M51.6,50.3c1,0.3,1.6,1.4,1.3,2.4c-0.3,1-1.4,1.6-2.4,1.3c-1-0.3-1.6-1.4-1.3-2.4C49.5,50.6,50.5,50,51.6,50.3z"/>
		<path d="M53.5,3.1c1,0.3,1.6,1.4,1.3,2.4c-0.3,1-1.4,1.6-2.4,1.3c-1-0.3-1.6-1.4-1.3-2.4C51.4,3.4,52.4,2.8,53.5,3.1z"/>
		<path d="M114.5,147.2c1,0.3,1.6,1.4,1.3,2.4c-0.3,1-1.4,1.6-2.4,1.3c-1-0.3-1.6-1.4-1.3-2.4C112.4,147.5,113.5,146.9,114.5,147.2z
			"/>
		<path d="M109.4,132.8c1,0.3,1.6,1.4,1.3,2.4c-0.3,1-1.4,1.6-2.4,1.3c-1-0.3-1.6-1.4-1.3-2.4C107.3,133.1,108.4,132.5,109.4,132.8z
			"/>
		<circle cx="113.2" cy="116.6" r="1.9"/>
		<path d="M33.9,72c1,0.3,1.6,1.4,1.3,2.4c-0.3,1-1.4,1.6-2.4,1.3c-1-0.3-1.6-1.4-1.3-2.4C31.8,72.3,32.8,71.7,33.9,72z"/>
		<path d="M55,24c1,0.3,1.6,1.4,1.3,2.4c-0.3,1-1.4,1.6-2.4,1.3c-1-0.3-1.6-1.4-1.3-2.4C52.9,24.3,53.9,23.7,55,24z"/>
		<path d="M5.5,102.5c1,0.3,1.6,1.4,1.3,2.4c-0.3,1-1.4,1.6-2.4,1.3c-1-0.3-1.6-1.4-1.3-2.4C3.4,102.8,4.4,102.2,5.5,102.5z"/>
		<path d="M91.8,136.8c1,0.3,1.6,1.4,1.3,2.4c-0.3,1-1.4,1.6-2.4,1.3c-1-0.3-1.6-1.4-1.3-2.4C89.7,137.1,90.7,136.5,91.8,136.8z"/>
		<circle cx="75.8" cy="157.5" r="1.9"/>
	</g>
</g>
</svg>
