<?xml version="1.0" encoding="utf-8"?>
<!DOCTYPE svg PUBLIC "-//W3C//DTD SVG 1.1//EN" "http://www.w3.org/Graphics/SVG/1.1/DTD/svg11.dtd">
<svg version="1.1" xmlns="http://www.w3.org/2000/svg" xmlns:xlink="http://www.w3.org/1999/xlink" x="0px" y="0px" width="818px"
	 height="324px" viewBox="0 0 818 324" enable-background="new 0 0 818 324" xml:space="preserve">
<g>
	<g>
		<line fill="none" stroke="#000000" stroke-miterlimit="10" x1="458.1" y1="317.9" x2="107.1" y2="317.9"/>
		<line fill="none" stroke="#000000" stroke-miterlimit="10" x1="458.1" y1="312.4" x2="84.3" y2="312.4"/>
		<line fill="none" stroke="#000000" stroke-miterlimit="10" x1="458.1" y1="306.9" x2="84.3" y2="306.9"/>
		<line fill="none" stroke="#000000" stroke-miterlimit="10" x1="458.1" y1="301.4" x2="84.3" y2="301.4"/>
		<line fill="none" stroke="#000000" stroke-miterlimit="10" x1="458.1" y1="296" x2="84.3" y2="296"/>
		<line fill="none" stroke="#000000" stroke-miterlimit="10" x1="458.1" y1="290.5" x2="84.3" y2="290.5"/>
		<line fill="none" stroke="#000000" stroke-miterlimit="10" x1="459" y1="186.4" x2="183.5" y2="186.4"/>
		<line fill="none" stroke="#000000" stroke-miterlimit="10" x1="459" y1="180.9" x2="180.5" y2="180.9"/>
		<line fill="none" stroke="#000000" stroke-miterlimit="10" x1="459" y1="175.4" x2="180.5" y2="175.4"/>
		<line fill="none" stroke="#000000" stroke-miterlimit="10" x1="459" y1="169.9" x2="180.5" y2="169.9"/>
		<path fill="none" stroke="#000000" stroke-miterlimit="10" d="M180.5,131.6"/>
		<path fill="none" stroke="#000000" stroke-miterlimit="10" d="M459,131.6"/>
		<polygon fill="none" stroke="#000000" stroke-width="3" stroke-miterlimit="10" points="179.8,185.1 179.8,106.4 225.7,100.2 
			459,100.2 459,144.5 459,147.8 459,192.1 225.7,192.1 		"/>
		<rect x="156.1" y="126.6" width="18.1" height="36.2"/>
		<line fill="none" stroke="#000000" stroke-width="3" stroke-miterlimit="10" x1="119" y1="127.5" x2="150.6" y2="127.5"/>
		<line fill="none" stroke="#000000" stroke-width="3" stroke-miterlimit="10" x1="119" y1="133.3" x2="150.6" y2="133.3"/>
		<rect x="119" y="122.2" fill="none" stroke="#000000" stroke-width="3" stroke-miterlimit="10" width="31.6" height="46.1"/>
		<line fill="none" stroke="#000000" stroke-width="3" stroke-miterlimit="10" x1="119" y1="139.1" x2="150.6" y2="139.1"/>
		<line fill="none" stroke="#000000" stroke-width="3" stroke-miterlimit="10" x1="119" y1="145" x2="150.6" y2="145"/>
		<line fill="none" stroke="#000000" stroke-width="3" stroke-miterlimit="10" x1="119" y1="150.8" x2="150.6" y2="150.8"/>
		<line fill="none" stroke="#000000" stroke-width="3" stroke-miterlimit="10" x1="119" y1="156.6" x2="150.6" y2="156.6"/>
		<line fill="none" stroke="#000000" stroke-width="3" stroke-miterlimit="10" x1="119" y1="162.4" x2="150.6" y2="162.4"/>
		<line fill="none" stroke="#000000" stroke-width="3" stroke-miterlimit="10" x1="225.7" y1="99.3" x2="225.7" y2="192.2"/>
		<polygon fill="none" stroke="#000000" stroke-width="3" stroke-miterlimit="10" points="84.3,313.6 84.3,207.9 145.9,199.5 
			459,199.5 459,259 459,263.4 459,322.9 145.9,322.9 		"/>
		<rect x="52.5" y="236.2" width="24.3" height="48.6"/>
		<line fill="none" stroke="#000000" stroke-width="3" stroke-miterlimit="10" x1="2.6" y1="237.4" x2="45" y2="237.4"/>
		<line fill="none" stroke="#000000" stroke-width="3" stroke-miterlimit="10" x1="2.6" y1="245.3" x2="45" y2="245.3"/>
		<rect x="2.6" y="230.3" fill="none" stroke="#000000" stroke-width="3" stroke-miterlimit="10" width="42.4" height="61.9"/>
		<line fill="none" stroke="#000000" stroke-width="3" stroke-miterlimit="10" x1="2.6" y1="253.1" x2="45" y2="253.1"/>
		<line fill="none" stroke="#000000" stroke-width="3" stroke-miterlimit="10" x1="2.6" y1="260.9" x2="45" y2="260.9"/>
		<line fill="none" stroke="#000000" stroke-width="3" stroke-miterlimit="10" x1="2.6" y1="268.7" x2="45" y2="268.7"/>
		<line fill="none" stroke="#000000" stroke-width="3" stroke-miterlimit="10" x1="2.6" y1="276.5" x2="45" y2="276.5"/>
		<line fill="none" stroke="#000000" stroke-width="3" stroke-miterlimit="10" x1="2.6" y1="284.3" x2="45" y2="284.3"/>
		<line fill="none" stroke="#000000" stroke-width="3" stroke-miterlimit="10" x1="145.9" y1="199.5" x2="145.9" y2="324.2"/>
	</g>
</g>
</svg>
