<?xml version="1.0" encoding="utf-8"?>
<!DOCTYPE svg PUBLIC "-//W3C//DTD SVG 1.1//EN" "http://www.w3.org/Graphics/SVG/1.1/DTD/svg11.dtd">
<svg version="1.1" xmlns="http://www.w3.org/2000/svg" xmlns:xlink="http://www.w3.org/1999/xlink" x="0px" y="0px" width="818px"
	 height="324px" viewBox="0 0 818 324" enable-background="new 0 0 818 324" xml:space="preserve">
<g>
	<g>
		<path fill="none" stroke="#000000" stroke-width="3" stroke-miterlimit="10" d="M785.1,153.1c-9.3-3.7-8.6-10.3-8.6-10.3v-7.3
			h-16.6v7.3c0,0,0.7,6.6-8.6,10.3c0,0-28.2,6.7-28.2,57.8v111.7h90.4V210.9C813.3,159.8,785.1,153.1,785.1,153.1z"/>
		<rect x="756" y="121.3" width="24.2" height="5.5"/>
		<line fill="none" stroke="#000000" stroke-miterlimit="10" x1="566.7" y1="300.9" x2="613.1" y2="300.9"/>
		<line fill="none" stroke="#000000" stroke-miterlimit="10" x1="583.9" y1="295.4" x2="595.8" y2="295.4"/>
		<line fill="none" stroke="#000000" stroke-miterlimit="10" x1="583.9" y1="290" x2="595.8" y2="290"/>
		<line fill="none" stroke="#000000" stroke-miterlimit="10" x1="583.9" y1="284.5" x2="595.8" y2="284.5"/>
		<line fill="none" stroke="#000000" stroke-miterlimit="10" x1="583.9" y1="279" x2="595.8" y2="279"/>
		<line fill="none" stroke="#000000" stroke-miterlimit="10" x1="583.9" y1="273.5" x2="595.8" y2="273.5"/>
		<line fill="none" stroke="#000000" stroke-miterlimit="10" x1="583.9" y1="268" x2="595.8" y2="268"/>
		<line fill="none" stroke="#000000" stroke-miterlimit="10" x1="583.9" y1="262.5" x2="595.8" y2="262.5"/>
		<line fill="none" stroke="#000000" stroke-miterlimit="10" x1="583.9" y1="257" x2="595.8" y2="257"/>
		<line fill="none" stroke="#000000" stroke-miterlimit="10" x1="583.9" y1="251.5" x2="595.8" y2="251.5"/>
		<line fill="none" stroke="#000000" stroke-miterlimit="10" x1="577.3" y1="246" x2="602.5" y2="246"/>
		<line fill="none" stroke="#000000" stroke-miterlimit="10" x1="583.9" y1="240.5" x2="595.8" y2="240.5"/>
		<line fill="none" stroke="#000000" stroke-miterlimit="10" x1="583.9" y1="235" x2="595.8" y2="235"/>
		<line fill="none" stroke="#000000" stroke-miterlimit="10" x1="583.9" y1="229.6" x2="595.8" y2="229.6"/>
		<line fill="none" stroke="#000000" stroke-miterlimit="10" x1="583.9" y1="224.1" x2="595.8" y2="224.1"/>
		<line fill="none" stroke="#000000" stroke-miterlimit="10" x1="583.9" y1="218.6" x2="595.8" y2="218.6"/>
		<line fill="none" stroke="#000000" stroke-miterlimit="10" x1="583.9" y1="213.1" x2="595.8" y2="213.1"/>
		<line fill="none" stroke="#000000" stroke-miterlimit="10" x1="583.9" y1="207.6" x2="595.8" y2="207.6"/>
		<line fill="none" stroke="#000000" stroke-miterlimit="10" x1="583.9" y1="202.1" x2="595.8" y2="202.1"/>
		<line fill="none" stroke="#000000" stroke-miterlimit="10" x1="583.9" y1="196.6" x2="595.8" y2="196.6"/>
		<line fill="none" stroke="#000000" stroke-miterlimit="10" x1="577.3" y1="191.1" x2="602.5" y2="191.1"/>
		<line fill="none" stroke="#000000" stroke-miterlimit="10" x1="583.9" y1="185.6" x2="595.8" y2="185.6"/>
		<line fill="none" stroke="#000000" stroke-miterlimit="10" x1="583.9" y1="180.1" x2="595.8" y2="180.1"/>
		<line fill="none" stroke="#000000" stroke-miterlimit="10" x1="583.9" y1="174.6" x2="595.8" y2="174.6"/>
		<line fill="none" stroke="#000000" stroke-miterlimit="10" x1="583.9" y1="169.2" x2="595.8" y2="169.2"/>
		<line fill="none" stroke="#000000" stroke-miterlimit="10" x1="583.9" y1="163.7" x2="595.8" y2="163.7"/>
		<line fill="none" stroke="#000000" stroke-miterlimit="10" x1="583.9" y1="158.2" x2="595.8" y2="158.2"/>
		<line fill="none" stroke="#000000" stroke-miterlimit="10" x1="583.9" y1="152.7" x2="595.8" y2="152.7"/>
		<line fill="none" stroke="#000000" stroke-miterlimit="10" x1="583.9" y1="147.2" x2="595.8" y2="147.2"/>
		<line fill="none" stroke="#000000" stroke-miterlimit="10" x1="583.9" y1="141.7" x2="595.8" y2="141.7"/>
		<line fill="none" stroke="#000000" stroke-miterlimit="10" x1="577.3" y1="136.2" x2="602.5" y2="136.2"/>
		<line fill="none" stroke="#000000" stroke-miterlimit="10" x1="583.9" y1="130.7" x2="595.8" y2="130.7"/>
		<line fill="none" stroke="#000000" stroke-miterlimit="10" x1="583.9" y1="125.2" x2="595.8" y2="125.2"/>
		<line fill="none" stroke="#000000" stroke-miterlimit="10" x1="583.9" y1="119.7" x2="595.8" y2="119.7"/>
		<line fill="none" stroke="#000000" stroke-miterlimit="10" x1="583.9" y1="114.2" x2="595.8" y2="114.2"/>
		<line fill="none" stroke="#000000" stroke-miterlimit="10" x1="583.9" y1="108.7" x2="595.8" y2="108.7"/>
		<line fill="none" stroke="#000000" stroke-miterlimit="10" x1="583.9" y1="103.3" x2="595.8" y2="103.3"/>
		<line fill="none" stroke="#000000" stroke-miterlimit="10" x1="583.9" y1="97.8" x2="595.8" y2="97.8"/>
		<line fill="none" stroke="#000000" stroke-miterlimit="10" x1="583.9" y1="92.3" x2="595.8" y2="92.3"/>
		<line fill="none" stroke="#000000" stroke-miterlimit="10" x1="583.9" y1="86.8" x2="595.8" y2="86.8"/>
		<line fill="none" stroke="#000000" stroke-miterlimit="10" x1="566.7" y1="81.3" x2="613.1" y2="81.3"/>
		<rect x="762.6" y="124.6" width="11" height="7"/>
		<path fill="none" stroke="#000000" stroke-width="3" stroke-miterlimit="10" d="M553.6,2.5c0,2.4,1.7,4.7,4.8,6.7v51.6
			c0,0-73.1,189.4-73.1,225.2c0,20.3,16.5,36.7,37,36.7h135.5c20.4,0,37-16.4,37-36.7c0-34.4-71.1-225.2-71.1-225.2V8.9
			c2.7-1.9,4.3-4.1,4.3-6.4H553.6z"/>
		<line fill="none" stroke="#000000" stroke-width="3" stroke-miterlimit="10" x1="564.1" y1="12.1" x2="615.7" y2="12.1"/>
		<line fill="none" stroke="#000000" stroke-width="3" stroke-miterlimit="10" x1="598.5" y1="21.6" x2="581.3" y2="21.6"/>
		<line fill="none" stroke="#000000" stroke-miterlimit="10" x1="813.3" y1="317.4" x2="722.9" y2="317.4"/>
		<line fill="none" stroke="#000000" stroke-miterlimit="10" x1="813.3" y1="323.6" x2="722.9" y2="323.6"/>
		<line fill="none" stroke="#000000" stroke-miterlimit="10" x1="813.3" y1="311.9" x2="722.9" y2="311.9"/>
		<line fill="none" stroke="#000000" stroke-miterlimit="10" x1="813.3" y1="306.4" x2="722.9" y2="306.4"/>
		<line fill="none" stroke="#000000" stroke-miterlimit="10" x1="813.3" y1="300.9" x2="722.9" y2="300.9"/>
		<line fill="none" stroke="#000000" stroke-miterlimit="10" x1="813.3" y1="295.5" x2="722.9" y2="295.5"/>
		<line fill="none" stroke="#000000" stroke-miterlimit="10" x1="813.3" y1="290" x2="722.9" y2="290"/>
		<line fill="none" stroke="#000000" stroke-miterlimit="10" x1="813.3" y1="284.5" x2="722.9" y2="284.5"/>
		<line fill="none" stroke="#000000" stroke-miterlimit="10" x1="813.3" y1="279" x2="722.9" y2="279"/>
		<line fill="none" stroke="#000000" stroke-miterlimit="10" x1="813.3" y1="273.5" x2="722.9" y2="273.5"/>
		<line fill="none" stroke="#000000" stroke-miterlimit="10" x1="813.3" y1="268.1" x2="722.9" y2="268.1"/>
		<line fill="none" stroke="#000000" stroke-miterlimit="10" x1="813.3" y1="262.6" x2="722.9" y2="262.6"/>
		<line fill="none" stroke="#000000" stroke-miterlimit="10" x1="813.3" y1="257.1" x2="722.9" y2="257.1"/>
		<line fill="none" stroke="#000000" stroke-miterlimit="10" x1="813.3" y1="251.6" x2="722.9" y2="251.6"/>
		<line fill="none" stroke="#000000" stroke-miterlimit="10" x1="813.3" y1="246.1" x2="722.9" y2="246.1"/>
		<line fill="none" stroke="#000000" stroke-miterlimit="10" x1="813.3" y1="240.7" x2="722.9" y2="240.7"/>
		<line fill="none" stroke="#000000" stroke-miterlimit="10" x1="813.3" y1="235.2" x2="722.9" y2="235.2"/>
		<line fill="none" stroke="#000000" stroke-miterlimit="10" x1="813.3" y1="229.7" x2="722.9" y2="229.7"/>
		<line fill="none" stroke="#000000" stroke-miterlimit="10" x1="813.3" y1="224.2" x2="722.9" y2="224.2"/>
		<line fill="none" stroke="#000000" stroke-miterlimit="10" x1="813.3" y1="218.8" x2="722.9" y2="218.8"/>
		<line fill="none" stroke="#000000" stroke-miterlimit="10" x1="813.3" y1="213.3" x2="722.9" y2="213.3"/>
		<line fill="none" stroke="#000000" stroke-miterlimit="10" x1="813.3" y1="207.8" x2="722.9" y2="207.8"/>
		<line fill="none" stroke="#000000" stroke-miterlimit="10" x1="813.3" y1="202.3" x2="722.9" y2="202.3"/>
		<line fill="none" stroke="#000000" stroke-miterlimit="10" x1="813.3" y1="196.8" x2="722.9" y2="196.8"/>
		<line fill="none" stroke="#000000" stroke-miterlimit="10" x1="813.3" y1="191.4" x2="722.9" y2="191.4"/>
		<line fill="none" stroke="#000000" stroke-miterlimit="10" x1="810.5" y1="185.9" x2="725.7" y2="185.9"/>
		<line fill="none" stroke="#000000" stroke-miterlimit="10" x1="808.9" y1="180.4" x2="727.3" y2="180.4"/>
		<line fill="none" stroke="#000000" stroke-miterlimit="10" x1="806.8" y1="174.9" x2="729.5" y2="174.9"/>
		<line fill="none" stroke="#000000" stroke-miterlimit="10" x1="803.9" y1="169.4" x2="732.3" y2="169.4"/>
		<line fill="none" stroke="#000000" stroke-miterlimit="10" x1="800.1" y1="164" x2="736.1" y2="164"/>
		<line fill="none" stroke="#000000" stroke-miterlimit="10" x1="796" y1="158.5" x2="742.6" y2="158.5"/>
		<line fill="none" stroke="#000000" stroke-miterlimit="10" x1="784.8" y1="153" x2="752.7" y2="153"/>
		<line fill="none" stroke="#000000" stroke-miterlimit="10" x1="776.4" y1="147.5" x2="759.8" y2="147.5"/>
		<line fill="none" stroke="#000000" stroke-miterlimit="10" x1="776.4" y1="142.1" x2="759.8" y2="142.1"/>
	</g>
</g>
</svg>
