<?xml version="1.0" encoding="utf-8"?>
<!-- Generator: Adobe Illustrator 15.1.0, SVG Export Plug-In . SVG Version: 6.00 Build 0)  -->
<!DOCTYPE svg PUBLIC "-//W3C//DTD SVG 1.1//EN" "http://www.w3.org/Graphics/SVG/1.1/DTD/svg11.dtd">
<svg version="1.1" xmlns="http://www.w3.org/2000/svg" xmlns:xlink="http://www.w3.org/1999/xlink" x="0px" y="0px" width="25px"
	 height="150px" viewBox="0 0 25 150" enable-background="new 0 0 25 150" xml:space="preserve">
<g id="Calque_1">
	<path display="none" fill="#FFFFFF" d="M26.5,0C11.9,0,0,11.9,0,26.5S11.9,53,26.5,53S53,41.1,53,26.5S41.1,0,26.5,0z M25,28.5
		l6.3,6.3h-5.5l-5.5-5.5l-2.7-2.7l2.7-2.7l0,0l0,0l5.5-5.5h5.5l-6.3,6.3l-2,2l0,0L25,28.5z"/>
	<path display="none" fill="#FFFFFF" d="M26.5,60C11.9,60,0,71.9,0,86.5S11.9,113,26.5,113C41.1,113,53,101.1,53,86.5
		S41.1,60,26.5,60z M32.7,89.2l-5.5,5.5h-5.5l6.3-6.3l2-2l0,0l-2-2l-6.3-6.3h5.5l5.5,5.5l0,0l0,0l2.7,2.7L32.7,89.2z"/>
	<polygon fill="#746367" points="15.3,2.7 15.3,2.8 15.3,2.8 21,8.3 21,13.8 14.5,7.5 12.5,5.5 12.5,5.5 10.5,7.4 4,13.7 4,8.3 
		9.7,2.7 12.5,0 	"/>
	<polygon fill="#746367" points="15.3,71.1 15.3,71 15.3,71 21,65.5 21,60 14.5,66.3 12.5,68.3 12.5,68.3 10.5,66.4 4,60.1 4,65.5 
		9.7,71.1 12.5,73.8 	"/>
	<path fill="#746367" d="M24.7,135.6c-0.3-3.3-1.9-6.2-4.4-8.3c-2.5-2.1-5.7-3-9-2.7c-2,0.2-3.9,0.9-5.5,1.9L9,120l-4.4,1.4l-3,6
		l0,0.1l0,0L0,130.4l2.9,1.5l6,3l4.4-1.5l-6.7-3.4c1.4-1.2,3.1-2,4.9-2.1c2.4-0.2,4.7,0.5,6.5,2c1.8,1.5,3,3.6,3.2,6s-0.5,4.7-2,6.5
		c-3.1,3.8-8.7,4.3-12.5,1.2l-2.2,2.7c2.3,1.9,5,2.8,7.8,2.8c3.6,0,7.1-1.5,9.5-4.5C24,142,25,138.8,24.7,135.6z"/>
</g>
<g id="Calque_2" display="none">
	<path display="inline" fill="#FFFFFF" d="M34,0v16h32V0H34z M45.7,11.7L50,4.3l4.3,7.5H45.7z"/>
	<path display="inline" fill="#FFFFFF" d="M34,18v16h32V18H34z M50,29.7l-4.3-7.5h8.6L50,29.7z"/>
	<path display="inline" fill="#FFFFFF" d="M0,18v16h32V18H0z M18.9,30.3L11.4,26l7.5-4.3V30.3z"/>
	<path display="inline" fill="#FFFFFF" d="M68,18v16h32V18H68z M80.9,30.3v-8.6l7.5,4.3L80.9,30.3z"/>
</g>
</svg>
